<svg width="14" height="14" viewBox="0 0 14 14" fill="none" xmlns="http://www.w3.org/2000/svg">
<path d="M1.5 3C1.5 2.17157 2.17157 1.5 3 1.5H11C11.8284 1.5 12.5 2.17157 12.5 3V11C12.5 11.8284 11.8284 12.5 11 12.5H3C2.17157 12.5 1.5 11.8284 1.5 11V3Z" fill="#25324D" stroke="#548AF7"/>
<path d="M8.00105 3.69995H8.99105V9.99995H8.00105V3.69995ZM6.40805 10.108C5.98805 10.108 5.61455 10.0075 5.28755 9.80645C4.96055 9.60245 4.70555 9.31745 4.52255 8.95145C4.33955 8.58545 4.24805 8.16695 4.24805 7.69595C4.24805 7.22495 4.33955 6.80645 4.52255 6.44045C4.70555 6.07445 4.96055 5.79095 5.28755 5.58995C5.61455 5.38595 5.98655 5.28395 6.40355 5.28395C6.78755 5.28395 7.12505 5.36945 7.41605 5.54045C7.71005 5.70845 7.93805 5.94695 8.10005 6.25595C8.26505 6.56195 8.34905 6.91895 8.35205 7.32695H8.04155V8.06495H8.35205C8.34905 8.47295 8.26505 8.83145 8.10005 9.14045C7.93805 9.44645 7.71155 9.68495 7.42055 9.85595C7.12955 10.024 6.79205 10.108 6.40805 10.108ZM6.63755 9.22145C6.90455 9.22145 7.14155 9.15695 7.34855 9.02795C7.55855 8.89895 7.72205 8.72045 7.83905 8.49245C7.95605 8.26145 8.01455 7.99595 8.01455 7.69595C8.01455 7.39595 7.95605 7.13195 7.83905 6.90395C7.72205 6.67295 7.55855 6.49295 7.34855 6.36395C7.14155 6.23495 6.90455 6.17045 6.63755 6.17045C6.37055 6.17045 6.13355 6.23495 5.92655 6.36395C5.72255 6.49295 5.56355 6.67295 5.44955 6.90395C5.33555 7.13195 5.27855 7.39595 5.27855 7.69595C5.27855 7.99595 5.33555 8.26145 5.44955 8.49245C5.56355 8.72045 5.72255 8.89895 5.92655 9.02795C6.13355 9.15695 6.37055 9.22145 6.63755 9.22145Z" fill="#548AF7"/>
</svg>
