<svg width="16" height="16" viewBox="0 0 16 16" fill="none" xmlns="http://www.w3.org/2000/svg">
<path fill-rule="evenodd" clip-rule="evenodd" d="M15.827 11.1757C16.0613 11.4101 16.0613 11.7899 15.827 12.0243L12.0301 15.8211C11.7958 16.0555 11.4159 16.0555 11.1816 15.8211L9.17574 13.8153C8.94142 13.581 8.94142 13.2011 9.17574 12.9668C9.41005 12.7324 9.78995 12.7324 10.0243 12.9668L11.6059 14.5483L14.9785 11.1757C15.2128 10.9414 15.5927 10.9414 15.827 11.1757Z" fill="#3574F0"/>
<path d="M2.75 2C1.7835 2 1 2.83574 1 3.86667V12.1333C1 13.1643 1.7835 14 2.75 14H8.12275C7.88554 13.4211 8.00197 12.7313 8.47205 12.2612C9.09689 11.6364 10.11 11.6364 10.7348 12.2612L11.6093 13.1357L15 9.74499V6C15 4.89543 14.1046 4 13 4L8.5 4L6.73559 2.28327C6.5489 2.10163 6.29871 2 6.03823 2H2.75Z" fill="#EBECF0"/>
<path d="M6.03823 3L8.09379 5H13C13.5523 5 14 5.44772 14 6V10.745L15 9.74499V6C15 4.89543 14.1046 4 13 4L8.5 4L6.73559 2.28327C6.5489 2.10163 6.29871 2 6.03823 2H2.75C1.7835 2 1 2.83574 1 3.86667V12.1333C1 13.1643 1.7835 14 2.75 14H8.12274C8.10238 13.9503 8.08461 13.8998 8.06946 13.8486C7.98764 13.5725 7.98184 13.2786 8.05208 13H2.75C2.3956 13 2 12.6738 2 12.1333V3.86667C2 3.32624 2.3956 3 2.75 3H6.03823Z" fill="#6C707E"/>
</svg>
