<svg width="16" height="16" viewBox="0 0 16 16" fill="none" xmlns="http://www.w3.org/2000/svg">
<path fill-rule="evenodd" clip-rule="evenodd" d="M6.99994 3L4 3C3.44772 3 3 3.44772 3 4L3 12C3 12.5523 3.44772 13 4 13L6.99994 13L6.99994 8L6.99994 7L6.99994 3ZM7.99994 3L7.99994 7L13 7L13 4C13 3.44772 12.5523 3 12 3L7.99994 3ZM7.99994 8L7.99994 13L12 13C12.5523 13 13 12.5523 13 12L13 8L7.99994 8ZM4 2C2.89543 2 2 2.89543 2 4L2 12C2 13.1046 2.89543 14 4 14L12 14C13.1046 14 14 13.1046 14 12L14 4C14 2.89543 13.1046 2 12 2L4 2Z" fill="#CED0D6"/>
</svg>
