<svg width="16" height="16" viewBox="0 0 16 16" fill="none" xmlns="http://www.w3.org/2000/svg">
<path fill-rule="evenodd" clip-rule="evenodd" d="M4 3L12 3C12.5523 3 13 3.44772 13 4L13 6L3 6L3 4C3 3.44772 3.44771 3 4 3ZM2 7L2 12C2 13.1046 2.89543 14 4 14L12 14C13.1046 14 14 13.1046 14 12L14 4C14 2.89543 13.1046 2 12 2L4 2C2.89543 2 2 2.89543 2 4L2 6L1.99994 6L1.99994 7L2 7ZM3 7L13 7L13 12C13 12.5523 12.5523 13 12 13L4 13C3.44771 13 3 12.5523 3 12L3 7Z" fill="#CED0D6"/>
<rect x="5" y="8.5" width="6" height="1" rx="0.5" fill="#CED0D6"/>
<rect x="5" y="10.5" width="6" height="1" rx="0.5" fill="#CED0D6"/>
</svg>
