<svg width="16" height="16" viewBox="0 0 16 16" fill="none" xmlns="http://www.w3.org/2000/svg">
<path fill-rule="evenodd" clip-rule="evenodd" d="M5.85363 13.6464C6.04889 13.8417 6.04889 14.1583 5.85363 14.3536C5.65837 14.5488 5.34178 14.5488 5.14652 14.3536L1.64652 10.8536L1.29297 10.5L1.64652 10.1464L5.14652 6.64645C5.34178 6.45118 5.65837 6.45118 5.85363 6.64645C6.04889 6.84171 6.04889 7.15829 5.85363 7.35355L3.20718 10H10.5001C12.4331 10 14.0001 8.433 14.0001 6.5C14.0001 4.567 12.4331 3 10.5001 3H5.50008C5.22393 3 5.00008 2.77614 5.00008 2.5C5.00008 2.22386 5.22393 2 5.50008 2H10.5001C12.9854 2 15.0001 4.01472 15.0001 6.5C15.0001 8.98528 12.9854 11 10.5001 11H3.20718L5.85363 13.6464Z" fill="#CED0D6"/>
</svg>
