<svg width="16" height="16" viewBox="0 0 16 16" fill="none" xmlns="http://www.w3.org/2000/svg">
<path d="M4.99109 14.7076L5.4568 13.901C5.53169 13.7712 5.48725 13.6054 5.35752 13.5305L4.70819 13.1556C4.54629 13.0621 4.33926 13.1176 4.24579 13.2795L3.81372 14.0278C3.62601 14.353 3.7374 14.7687 4.06253 14.9564C4.38765 15.1441 4.80338 15.0327 4.99109 14.7076Z" fill="#CCA18A"/>
<path d="M4.41504 12.9863L3.81372 14.0278C3.62601 14.353 3.7374 14.7687 4.06253 14.9564V14.9564C4.38765 15.1441 4.80338 15.0327 4.99109 14.7076L5.59241 13.6661" stroke="black" stroke-width="0.2"/>
<path d="M12.3703 14.0651L11.8628 13.186C11.7879 13.0563 11.622 13.0118 11.4923 13.0867L10.843 13.4616C10.6811 13.5551 10.6256 13.7621 10.7191 13.924L11.193 14.7448C11.3807 15.07 11.7964 15.1813 12.1215 14.9936C12.4466 14.8059 12.558 14.3902 12.3703 14.0651Z" fill="#CCA18A"/>
<path d="M10.5498 13.6309L11.193 14.7448C11.3807 15.07 11.7964 15.1813 12.1215 14.9936V14.9936C12.4466 14.8059 12.558 14.3902 12.3703 14.0651L11.7272 12.9511" stroke="black" stroke-width="0.2"/>
<path d="M3.51896 2.34563L4.13287 2.58765C4.35452 2.67503 4.42858 2.95182 4.28018 3.13821L3.96642 3.54806C3.80865 3.74966 3.5029 3.74771 3.34772 3.5441L2.97871 3.05993C2.85512 2.89778 2.85161 2.67402 2.97005 2.50807C3.09403 2.33434 3.32039 2.26735 3.51896 2.34563Z" fill="#99D6FA"/>
<path d="M3.62277 3.86282L2.96516 3.0174C2.83973 2.85613 2.84204 2.62968 2.97075 2.47101V2.47101C3.09209 2.32144 3.29671 2.26836 3.47545 2.3401L4.56672 2.77807" stroke="black" stroke-width="0.2"/>
<path d="M12.4572 2.34555L11.8451 2.59217C11.6242 2.68122 11.5522 2.95856 11.702 3.14383L12.0188 3.55131C12.1781 3.75172 12.4838 3.74746 12.6375 3.5427L13.0028 3.05577C13.1252 2.89269 13.127 2.66891 13.0073 2.50386C12.882 2.33106 12.6552 2.26578 12.4572 2.34555Z" fill="#99D6FA"/>
<path d="M12.3651 3.8635L13.0163 3.01316C13.1405 2.85096 13.1365 2.62452 13.0066 2.46683V2.46683C12.8842 2.31818 12.6792 2.26664 12.501 2.33972L11.413 2.78588" stroke="black" stroke-width="0.2"/>
<path fill-rule="evenodd" clip-rule="evenodd" d="M7.4249 1.41113C5.25974 1.41113 3.11664 3.31166 3.04023 5.78436C2.9918 7.35163 2.9918 8.94238 3.04023 10.5097C3.11454 12.9144 4.87781 14.3798 6.96623 14.4585C6.66799 13.7994 6.50195 13.0676 6.50195 12.297C6.50195 9.39798 8.85208 7.04785 11.7511 7.04785C12.1753 7.04785 12.5876 7.09816 12.9826 7.19312C12.9773 6.72504 12.9681 6.25594 12.955 5.78436C12.8872 3.33395 10.7441 1.41113 8.59871 1.41113H7.4249Z" fill="#99D6FA"/>
<path fill-rule="evenodd" clip-rule="evenodd" d="M7.4249 1.61113H8.59871C10.6366 1.61113 12.6903 3.44851 12.7551 5.78989C12.7677 6.24483 12.7767 6.69745 12.7821 7.14907C12.8494 7.16247 12.9163 7.17717 12.9826 7.19312C12.9773 6.72504 12.9681 6.25594 12.955 5.78436C12.8872 3.33395 10.7441 1.41113 8.59871 1.41113H7.4249C5.25974 1.41113 3.11664 3.31166 3.04023 5.78436C2.9918 7.35163 2.9918 8.94238 3.04023 10.5097C3.11454 12.9144 4.87781 14.3798 6.96623 14.4585C6.93574 14.3911 6.90663 14.323 6.87894 14.2541C4.92661 14.1393 3.30972 12.7556 3.24013 10.5035C3.19183 8.94032 3.19183 7.35369 3.24013 5.79053C3.31315 3.42747 5.36615 1.61113 7.4249 1.61113Z" fill="black"/>
<path fill-rule="evenodd" clip-rule="evenodd" d="M7.30156 4.83828C7.30156 5.76247 6.56724 6.51152 5.66152 6.51152C4.75581 6.51152 4.02148 5.76247 4.02148 4.83828C4.02148 3.91409 4.75581 3.16504 5.66152 3.16504C6.56724 3.16504 7.30156 3.91409 7.30156 4.83828Z" fill="white"/>
<path fill-rule="evenodd" clip-rule="evenodd" d="M5.93012 4.83735C5.93012 5.26451 5.59046 5.61122 5.17139 5.61122C4.75275 5.61122 4.41309 5.26451 4.41309 4.83735C4.41309 4.41019 4.75275 4.06348 5.17139 4.06348C5.59046 4.06348 5.93012 4.41019 5.93012 4.83735Z" fill="black"/>
<path fill-rule="evenodd" clip-rule="evenodd" d="M11.9705 4.83828C11.9705 5.76247 11.2362 6.51152 10.3305 6.51152C9.42435 6.51152 8.69043 5.76247 8.69043 4.83828C8.69043 3.91409 9.42435 3.16504 10.3305 3.16504C11.2362 3.16504 11.9705 3.91409 11.9705 4.83828Z" fill="white"/>
<path fill-rule="evenodd" clip-rule="evenodd" d="M11.5854 4.83735C11.5854 5.26451 11.2457 5.61122 10.8271 5.61122C10.408 5.61122 10.0684 5.26451 10.0684 4.83735C10.0684 4.41019 10.408 4.06348 10.8271 4.06348C11.2457 4.06348 11.5854 4.41019 11.5854 4.83735Z" fill="black"/>
<path fill-rule="evenodd" clip-rule="evenodd" d="M7.63184 7.58374H8.60913V6.7793H7.63184V7.58374Z" fill="white"/>
<path fill-rule="evenodd" clip-rule="evenodd" d="M9.0972 6.51175C9.0972 6.80778 8.65999 7.04791 8.12067 7.04791C7.58174 7.04791 7.14453 6.80778 7.14453 6.51175C7.14453 6.21571 7.58174 5.97559 8.12067 5.97559C8.65999 5.97559 9.0972 6.21571 9.0972 6.51175Z" fill="#CCA18A"/>
<path fill-rule="evenodd" clip-rule="evenodd" d="M8.60968 6.23446C8.60968 6.53573 8.38755 6.51159 8.11295 6.51159C7.83874 6.51159 7.61621 6.53573 7.61621 6.23446C7.61621 5.9332 7.83874 5.68945 8.11295 5.68945C8.38755 5.68945 8.60968 5.9332 8.60968 6.23446Z" fill="black"/>
<path d="M13.7107 9.68248L13.0226 8.99436C12.933 8.90474 12.7876 8.90474 12.698 8.99436L12.2494 9.44297C12.1376 9.55483 12.1376 9.73618 12.2494 9.84804L12.8973 10.4959C13.1219 10.7205 13.4861 10.7205 13.7107 10.4959C13.9353 10.2713 13.9353 9.9071 13.7107 9.68248Z" fill="#CCA18A"/>
<path d="M12.0469 9.64551L12.8973 10.4959C13.1219 10.7205 13.4861 10.7205 13.7107 10.4959V10.4959C13.9353 10.2713 13.9353 9.9071 13.7107 9.68248L12.8603 8.83209" stroke="black" stroke-width="0.2"/>
<path d="M3.09682 10.4958L3.78493 9.80773C3.87456 9.71811 3.87456 9.5728 3.78493 9.48318L3.33632 9.03456C3.22447 8.92271 3.04311 8.92271 2.93126 9.03456L2.28339 9.68243C2.05877 9.90705 2.05877 10.2712 2.28339 10.4958C2.50801 10.7205 2.8722 10.7205 3.09682 10.4958Z" fill="#CCA18A"/>
<path d="M3.13379 8.83203L2.28339 9.68243C2.05877 9.90705 2.05877 10.2712 2.28339 10.4958V10.4958C2.50801 10.7205 2.8722 10.7205 3.09682 10.4958L3.94721 9.64545" stroke="black" stroke-width="0.2"/>
<path fill-rule="evenodd" clip-rule="evenodd" d="M15.651 11.5311L13.8519 8.40222C13.7142 8.1581 13.4576 8.00508 13.1774 8H9.57864C9.29838 8.00494 9.04172 8.158 8.90416 8.40222L7.10442 11.5229C6.96519 11.7651 6.96519 12.0631 7.10442 12.3054L8.90348 15.4521C9.03963 15.6997 9.2956 15.8578 9.57795 15.8686H13.1767C13.4591 15.859 13.7155 15.7015 13.8519 15.4541L15.651 12.3253C15.7912 12.0791 15.7912 11.7772 15.651 11.5311Z" fill="#4285F4"/>
<path opacity="0.07" fill-rule="evenodd" clip-rule="evenodd" d="M13.9266 11.7969L13.8794 11.7826L11.492 9.39453L11.0022 10.1107L11.4127 10.5212L10.3681 10.9015L9.95768 11.9399L9.55683 11.539L8.83789 12.1738L12.5318 15.8677H13.1761C13.4585 15.858 13.7149 15.7006 13.8513 15.4532L15.2133 13.0829L13.9266 11.7969Z" fill="black"/>
<path fill-rule="evenodd" clip-rule="evenodd" d="M9.80371 11.9335C9.80371 11.0646 10.5081 10.3602 11.377 10.3602C11.7943 10.3602 12.1945 10.526 12.4895 10.821C12.7846 11.1161 12.9503 11.5163 12.9503 11.9335C12.9503 12.8025 12.2459 13.5069 11.377 13.5069C10.5081 13.5069 9.80371 12.8025 9.80371 11.9335ZM10.1797 11.9376C10.1804 12.5981 10.7163 13.1331 11.3768 13.1327V13.1299C11.694 13.1299 11.9983 13.0039 12.2225 12.7795C12.4468 12.5551 12.5727 12.2508 12.5725 11.9335C12.571 11.2731 12.0345 10.7387 11.374 10.7399C10.7136 10.741 10.1789 11.2772 10.1797 11.9376Z" fill="white"/>
<path fill-rule="evenodd" clip-rule="evenodd" d="M13.8488 11.7472L13.1914 11.542C13.2194 11.6708 13.2336 11.8022 13.2338 11.934C13.2338 12.0267 13.2269 12.1193 13.2133 12.211H13.8495C13.9033 12.2027 13.944 12.158 13.9473 12.1036V11.8553C13.944 11.8009 13.9033 11.7562 13.8495 11.7479" fill="white"/>
<path fill-rule="evenodd" clip-rule="evenodd" d="M11.3776 10.0764C11.507 10.0765 11.6361 10.09 11.7627 10.1167L11.5267 9.46208C11.5184 9.408 11.4733 9.36718 11.4186 9.36426H11.3201C11.2654 9.36692 11.2201 9.40787 11.2121 9.46208L11.0068 10.114C11.1284 10.0894 11.2522 10.077 11.3762 10.077" fill="white"/>
<path fill-rule="evenodd" clip-rule="evenodd" d="M9.52011 11.9336C9.51997 11.8014 9.53396 11.6695 9.56183 11.5403L8.90446 11.7455C8.85039 11.7538 8.80956 11.7989 8.80664 11.8536V12.1019C8.80987 12.1563 8.85062 12.201 8.90446 12.2093H9.54063C9.52689 12.1176 9.52003 12.025 9.52011 11.9322" fill="white"/>
<path fill-rule="evenodd" clip-rule="evenodd" d="M11.7876 11.5683L11.9402 11.4192C12.1369 11.6159 12.2138 11.9027 12.1417 12.1714C12.0697 12.4401 11.8598 12.6501 11.5911 12.7221C11.3223 12.7941 11.0356 12.7172 10.8389 12.5205L10.988 12.3714C10.7892 12.147 10.7991 11.8067 11.0106 11.5943C11.2222 11.3818 11.5624 11.3705 11.7876 11.5683ZM11.2387 12.2673C11.3737 12.3232 11.5291 12.2922 11.6324 12.1887C11.7006 12.1214 11.7391 12.0295 11.7391 11.9336C11.7391 11.8377 11.7006 11.7458 11.6324 11.6784C11.5291 11.575 11.3737 11.544 11.2387 11.5998C11.1036 11.6557 11.0156 11.7875 11.0156 11.9336C11.0156 12.0797 11.1036 12.2115 11.2387 12.2673Z" fill="white"/>
</svg>
