<svg width="16" height="16" viewBox="0 0 16 16" fill="none" xmlns="http://www.w3.org/2000/svg">
<circle cx="13.5" cy="13.5" r="2.5" fill="#DB5C5C"/>
<path fill-rule="evenodd" clip-rule="evenodd" d="M5.30176 4.19998C5.30176 4.27878 5.30513 4.3568 5.31175 4.43389C4.83999 4.69435 4.43475 5.06053 4.12799 5.50048L2.01829 4.36016C1.77536 4.22886 1.47198 4.31935 1.34068 4.56228C1.20938 4.8052 1.29986 5.10858 1.54279 5.23988L3.67912 6.39459C3.56355 6.74205 3.50098 7.11372 3.50098 7.5V8.50008H1.10059C0.824444 8.50008 0.600586 8.72394 0.600586 9.00008C0.600586 9.27623 0.824444 9.50008 1.10059 9.50008H3.50098V10C3.50098 10.4892 3.57905 10.9603 3.72342 11.4012L1.53087 12.6671C1.29172 12.8052 1.20979 13.111 1.34786 13.3501C1.48593 13.5893 1.79172 13.6712 2.03087 13.5331L4.14118 12.3148C4.92805 13.624 6.36221 14.5 8.00098 14.5C8.73394 14.5 9.42597 14.3248 10.0375 14.0139C10.0128 13.8462 10 13.6746 10 13.5C10 13.2699 10.0222 13.0449 10.0646 12.8272C9.486 13.2503 8.77265 13.5 8.00098 13.5C6.06798 13.5 4.50098 11.933 4.50098 10V7.5C4.50098 6.11929 5.62027 5 7.00098 5H9.00098C10.3817 5 11.501 6.11929 11.501 7.5V10C11.501 10.2301 11.4788 10.4551 11.4364 10.6728C11.7541 10.4405 12.1124 10.2605 12.4987 10.1453C12.5002 10.0971 12.501 10.0486 12.501 10V9.49977H14.9013C15.1775 9.49977 15.4013 9.27591 15.4013 8.99977C15.4013 8.72362 15.1775 8.49977 14.9013 8.49977H12.501V7.5C12.501 7.11364 12.4384 6.7419 12.3228 6.39437L14.456 5.23974C14.6989 5.1083 14.7892 4.80487 14.6577 4.56202C14.5263 4.31917 14.2228 4.22886 13.98 4.3603L11.8738 5.50028C11.5674 5.06088 11.1627 4.69509 10.6917 4.43472C10.6984 4.35736 10.7018 4.27906 10.7018 4.19998C10.7018 2.70882 9.49293 1.5 8.00176 1.5C6.51059 1.5 5.30176 2.70882 5.30176 4.19998ZM8.00176 2.49999C7.107 2.49999 6.37369 3.19125 6.30674 4.06885C6.53113 4.02369 6.76329 4 7.00098 4H9.00098C9.23923 4 9.47192 4.02381 9.6968 4.06917C9.63001 3.19141 8.89663 2.49999 8.00176 2.49999Z" fill="#CED0D6"/>
</svg>
