<svg width="14" height="14" viewBox="0 0 14 14" fill="none" xmlns="http://www.w3.org/2000/svg">
<path d="M0 7C0 3.13401 3.13401 0 7 0C10.8658 0 13.9997 3.13374 14 6.99951C13.0878 5.78534 11.6356 5 10 5C7.23858 5 5 7.23858 5 10C5 11.6356 5.78534 13.0878 6.99951 14C3.13374 13.9997 0 10.8658 0 7Z" fill="#402929"/>
<path d="M6.99951 14C3.13374 13.9997 0 10.8658 0 7C0 3.13401 3.13401 0 7 0C10.8658 0 13.9997 3.13374 14 6.99951C13.6919 6.5895 13.3223 6.22839 12.9049 5.9299C12.4002 3.12676 9.94847 1 7 1C3.68629 1 1 3.68629 1 7C1 9.94847 3.12676 12.4002 5.9299 12.9049C6.22839 13.3223 6.5895 13.6919 6.99951 14Z" fill="#DB5C5C"/>
<path d="M8.71266 12.7107C8.4717 12.1134 8.30933 11.3479 8.26308 10.5H7.04102C7.2053 11.4792 7.84398 12.2976 8.71266 12.7107Z" fill="#43454A"/>
<path d="M9.67826 12.4276C9.47151 11.955 9.31294 11.285 9.26473 10.5H10.7343C10.6861 11.285 10.5276 11.955 10.3208 12.4276C10.202 12.6991 10.085 12.8652 9.99954 12.9529C9.91411 12.8652 9.79704 12.6991 9.67826 12.4276Z" fill="#43454A"/>
<path d="M9.67826 7.57238C9.47151 8.04494 9.31294 8.71499 9.26473 9.49999H10.7343C10.6861 8.71499 10.5276 8.04494 10.3208 7.57238C10.202 7.30087 10.085 7.13482 9.99954 7.04712C9.91411 7.13482 9.79704 7.30087 9.67826 7.57238Z" fill="#43454A"/>
<path d="M11.2864 12.7107C11.5274 12.1134 11.6897 11.3479 11.736 10.5H12.9581C12.7938 11.4792 12.1551 12.2976 11.2864 12.7107Z" fill="#43454A"/>
<path d="M11.736 9.49999H12.9581C12.7938 8.52074 12.1551 7.70236 11.2864 7.28924C11.5274 7.88657 11.6897 8.65207 11.736 9.49999Z" fill="#43454A"/>
<path d="M7.04102 9.49999H8.26308C8.30933 8.65207 8.4717 7.88657 8.71266 7.28924C7.84398 7.70236 7.2053 8.52074 7.04102 9.49999Z" fill="#43454A"/>
<path fill-rule="evenodd" clip-rule="evenodd" d="M14 10C14 7.79086 12.2091 6 10 6C7.79086 6 6 7.79086 6 10C6 12.2091 7.79086 14 10 14C12.2091 14 14 12.2091 14 10ZM8.26354 10.5C8.3098 11.3479 8.47216 12.1134 8.71313 12.7107C7.84445 12.2976 7.20577 11.4792 7.04148 10.5H8.26354ZM9.2652 10.5C9.3134 11.285 9.47198 11.955 9.67872 12.4276C9.7975 12.6991 9.91458 12.8652 10 12.9529C10.0854 12.8652 10.2025 12.6991 10.3213 12.4276C10.528 11.955 10.6866 11.285 10.7348 10.5H9.2652ZM10.7348 9.5H9.2652C9.3134 8.715 9.47198 8.04495 9.67872 7.57239C9.7975 7.30089 9.91458 7.13483 10 7.04713C10.0854 7.13483 10.2025 7.30089 10.3213 7.57239C10.528 8.04495 10.6866 8.715 10.7348 9.5ZM11.7365 10.5C11.6902 11.3479 11.5278 12.1134 11.2869 12.7107C12.1556 12.2976 12.7942 11.4792 12.9585 10.5H11.7365ZM12.9585 9.5H11.7365C11.6902 8.65208 11.5278 7.88659 11.2869 7.28925C12.1556 7.70237 12.7942 8.52076 12.9585 9.5ZM8.26354 9.5H7.04148C7.20577 8.52076 7.84445 7.70237 8.71313 7.28925C8.47216 7.88659 8.3098 8.65208 8.26354 9.5Z" fill="#CED0D6"/>
</svg>
