<svg width="14" height="14" viewBox="0 0 14 14" fill="none" xmlns="http://www.w3.org/2000/svg">
<path d="M13.993 9.08285C13.9977 8.99038 14 8.89472 14 8.79588C14 8.42663 13.9561 8.10116 13.8683 7.81947C13.7805 7.53777 13.6487 7.29415 13.4731 7.08859C13.2974 6.87922 13.0741 6.70221 12.803 6.55756L12.1272 6.22638C11.9286 6.11598 11.7816 5.96943 11.6861 5.78671C11.5907 5.60399 11.543 5.36988 11.543 5.08438C11.543 4.64661 11.5926 4.32685 11.6919 4.1251C11.795 3.91954 11.9496 3.81676 12.1558 3.81676C12.2894 3.81676 12.4002 3.86434 12.488 3.95951C12.5796 4.05087 12.6464 4.19171 12.6884 4.38205C12.7343 4.56857 12.7572 4.8103 12.7572 5.10722H13.8511C13.8473 4.59332 13.7824 4.17268 13.6564 3.84531C13.5304 3.51793 13.3414 3.27431 13.0893 3.11443C12.8373 2.95074 12.5204 2.8689 12.1386 2.8689C11.7606 2.8689 11.4475 2.94884 11.1993 3.10872C10.955 3.2686 10.7717 3.51413 10.6495 3.84531C10.5273 4.17268 10.4662 4.59141 10.4662 5.10151C10.4662 5.43988 10.5081 5.74028 10.5919 6.00271C11.3346 6.0476 11.9314 6.63286 11.9945 7.37049L12.3047 7.51684C12.5109 7.63104 12.6617 7.79282 12.7572 8.00219C12.8564 8.20775 12.9061 8.47992 12.9061 8.81872C12.9061 8.88137 12.905 8.94178 12.9029 8.99994H13.5C13.6727 8.99994 13.8386 9.02913 13.993 9.08285Z" fill="#CED0D6"/>
<path fill-rule="evenodd" clip-rule="evenodd" d="M9 7.82593C8.97918 7.7641 8.95597 7.70485 8.93039 7.64817C8.79293 7.34363 8.58675 7.11523 8.31183 6.96297C8.20617 6.90362 8.09007 6.85584 7.96352 6.81962C8.04698 6.79159 8.1249 6.75753 8.19729 6.71744C8.44165 6.5804 8.62493 6.37674 8.74711 6.10647C8.8693 5.83619 8.93039 5.4993 8.93039 5.0958C8.93039 4.63138 8.85021 4.24501 8.68984 3.93667C8.53329 3.62452 8.29656 3.39231 7.97965 3.24005C7.66655 3.08397 7.27709 2.99994 6.81127 2.99994H5.33361V10.9999H6.08535C6.03008 10.8435 6 10.6753 6 10.4999C6 10.1128 6.14666 9.75993 6.38744 9.49383V7.36838H6.8399C7.10336 7.36838 7.32291 7.41786 7.49855 7.51684C7.67419 7.61581 7.80592 7.76617 7.89374 7.96793C7.98156 8.16968 8.02547 8.42282 8.02547 8.72736C8.02547 8.82344 8.021 8.9143 8.01207 8.99994H9V7.82593ZM6.77117 6.46049C7.11863 6.46049 7.38018 6.3558 7.55582 6.14644C7.73528 5.93707 7.82501 5.62112 7.82501 5.19858C7.82501 4.77223 7.73528 4.45628 7.55582 4.25072C7.38018 4.04135 7.11863 3.93667 6.77117 3.93667H6.38744V6.46049H6.77117Z" fill="#CED0D6"/>
<path fill-rule="evenodd" clip-rule="evenodd" d="M2.65177 10.9999L1.61098 7.71669H1.07102V10.9999H0V2.99994H1.66666C2.12485 2.99994 2.50286 3.09349 2.80068 3.2686C3.10232 3.4399 3.32569 3.69875 3.47078 4.04516C3.61587 4.39156 3.68842 4.82743 3.68842 5.35275C3.68842 5.88187 3.61396 6.32154 3.46505 6.67176C3.31614 7.02197 3.08896 7.28463 2.7835 7.45974C2.74586 7.48084 2.70699 7.50064 2.66686 7.51915L3.80869 10.9999H2.65177ZM1.64948 6.7517C1.96639 6.7517 2.1974 6.6394 2.34249 6.41481C2.48758 6.18641 2.56013 5.83429 2.56013 5.35846C2.56013 4.88643 2.48758 4.53812 2.34249 4.31353C2.1974 4.08513 1.96639 3.97093 1.64948 3.97093H1.07102V6.7517H1.64948Z" fill="#CED0D6"/>
<path fill-rule="evenodd" clip-rule="evenodd" d="M10.5 7C10.7761 7 11 7.22386 11 7.5V10H13.5C13.7761 10 14 10.2239 14 10.5C14 10.7761 13.7761 11 13.5 11H11V13.5C11 13.7761 10.7761 14 10.5 14C10.2239 14 10 13.7761 10 13.5V11H7.5C7.22386 11 7 10.7761 7 10.5C7 10.2239 7.22386 10 7.5 10H10V7.5C10 7.22386 10.2239 7 10.5 7Z" fill="#548AF7"/>
</svg>
