<svg width="16" height="16" viewBox="0 0 16 16" fill="none" xmlns="http://www.w3.org/2000/svg">
<path fill-rule="evenodd" clip-rule="evenodd" d="M2 12.4984V3.50157C2 3.06857 2.51115 2.8398 2.83262 3.12893L7.83411 7.62736C8.05529 7.82629 8.05529 8.17371 7.83411 8.37264L2.83262 12.8711C2.51115 13.1602 2 12.9314 2 12.4984Z" fill="#43454A"/>
<path fill-rule="evenodd" clip-rule="evenodd" d="M2.9985 11.3769L6.75307 8L2.9985 4.62308V11.3769ZM2 12.4984V3.50157C2 3.06857 2.51115 2.8398 2.83262 3.12893L7.83411 7.62736C8.05529 7.82629 8.05529 8.17371 7.83411 8.37264L2.83262 12.8711C2.51115 13.1602 2 12.9314 2 12.4984Z" fill="#CED0D6"/>
<path d="M11 9H15.5V10H12V12H15V13H12V16H11V9Z" fill="#548AF7"/>
<path d="M9 3.50157V12.4984C9 12.9314 9.51115 13.1602 9.83262 12.8711L10 12.7205V8H15C15 7.86341 14.9447 7.72682 14.8341 7.62736L9.83262 3.12893C9.51115 2.8398 9 3.06857 9 3.50157Z" fill="#43454A"/>
<path d="M10 11.3756L9.9985 11.3769V4.62308L13.7531 8L15 8C15 7.86341 14.9447 7.72682 14.8341 7.62736L9.83262 3.12893C9.51115 2.8398 9 3.06857 9 3.50157V12.4984C9 12.9314 9.51115 13.1602 9.83262 12.8711L10 12.7205V11.3756Z" fill="#CED0D6"/>
</svg>
