<svg width="14" height="14" viewBox="0 0 14 14" fill="none" xmlns="http://www.w3.org/2000/svg">
<path d="M2 4.82843V12C2 13.1046 2.89543 14 4 14H10C11.1046 14 12 13.1046 12 12V2C12 0.895431 11.1046 0 10 0H6.82843C6.29799 0 5.78929 0.210713 5.41421 0.585786L2.58579 3.41421C2.21071 3.78929 2 4.29799 2 4.82843Z" fill="#EBECF0"/>
<path fill-rule="evenodd" clip-rule="evenodd" d="M2 4.82843V12C2 13.1046 2.89543 14 4 14H10C11.1046 14 12 13.1046 12 12V2C12 0.895431 11.1046 0 10 0H6.82843C6.29799 0 5.78929 0.210713 5.41421 0.585786L2.58579 3.41421C2.21071 3.78929 2 4.29799 2 4.82843ZM3 5V12C3 12.5523 3.44772 13 4 13H10C10.5523 13 11 12.5523 11 12V2C11 1.44772 10.5523 1 10 1H7V3C7 4.10457 6.10457 5 5 5H3ZM6 1.41421L3.41421 4H5C5.55228 4 6 3.55228 6 3V1.41421Z" fill="#6C707E"/>
</svg>
