<svg width="14" height="14" viewBox="0 0 14 14" fill="none" xmlns="http://www.w3.org/2000/svg">
<path d="M10.8536 0.146447C10.6583 -0.0488155 10.3417 -0.0488155 10.1464 0.146447C9.95118 0.341709 9.95118 0.658291 10.1464 0.853553L11.2929 2H1.5C1.22386 2 1 2.22386 1 2.5C1 2.77614 1.22386 3 1.5 3H11.2929L10.1464 4.14645C9.95118 4.34171 9.95118 4.65829 10.1464 4.85355C10.3417 5.04882 10.6583 5.04882 10.8536 4.85355L12.8536 2.85355C13.0488 2.65829 13.0488 2.34171 12.8536 2.14645L10.8536 0.146447Z" fill="#CED0D6"/>
<path fill-rule="evenodd" clip-rule="evenodd" d="M3.5 14C2.11929 14 1 12.2091 1 10C1 7.79086 2.11929 6 3.5 6H10.5C11.8807 6 13 7.79086 13 10C13 12.2091 11.8807 14 10.5 14H3.5ZM2.58023 7.70157C2.92734 7.14619 3.27885 7 3.5 7H8.84636C8.32735 7.73294 8 8.80531 8 10C8 11.1947 8.32735 12.2671 8.84636 13H3.5C3.27885 13 2.92734 12.8538 2.58023 12.2984C2.24193 11.7571 2 10.9471 2 10C2 9.05287 2.24193 8.24286 2.58023 7.70157ZM10.5 13C10.7212 13 11.0727 12.8538 11.4198 12.2984C11.7581 11.7571 12 10.9471 12 10C12 9.05287 11.7581 8.24286 11.4198 7.70157C11.0727 7.14619 10.7212 7 10.5 7C10.2788 7 9.92734 7.14619 9.58023 7.70157C9.24193 8.24286 9 9.05287 9 10C9 10.9471 9.24193 11.7571 9.58023 12.2984C9.92734 12.8538 10.2788 13 10.5 13Z" fill="#CED0D6"/>
<path d="M3.5 7C3.27885 7 2.92734 7.14619 2.58023 7.70157C2.24193 8.24286 2 9.05287 2 10C2 10.9471 2.24193 11.7571 2.58023 12.2984C2.92734 12.8538 3.27885 13 3.5 13H8.84636C8.32735 12.2671 8 11.1947 8 10C8 8.80531 8.32735 7.73294 8.84636 7H3.5Z" fill="#43454A"/>
<path d="M11.4198 12.2984C11.0727 12.8538 10.7212 13 10.5 13C10.2788 13 9.92734 12.8538 9.58023 12.2984C9.24193 11.7571 9 10.9471 9 10C9 9.05287 9.24193 8.24286 9.58023 7.70157C9.92734 7.14619 10.2788 7 10.5 7C10.7212 7 11.0727 7.14619 11.4198 7.70157C11.7581 8.24286 12 9.05287 12 10C12 10.9471 11.7581 11.7571 11.4198 12.2984Z" fill="#43454A"/>
</svg>
