<svg width="16" height="16" viewBox="0 0 16 16" fill="none" xmlns="http://www.w3.org/2000/svg">
<rect x="3" y="3" width="10" height="10" rx="1" fill="#EBECF0"/>
<path d="M6.99219 4H6V12H6.99219V8.55722C6.99219 8.23802 7.05869 7.95492 7.19169 7.70792C7.32469 7.45712 7.5333 7.26332 7.7727 7.12652C8.0121 6.98592 8.2876 6.91562 8.5992 6.91562C8.8918 6.91562 9.1426 6.97642 9.3516 7.09802C9.5644 7.21582 9.7278 7.39062 9.8418 7.62242C9.9558 7.85042 10.0128 8.12592 10.0128 8.44892V12H11V8.33492C11 7.84852 10.9362 7.43242 10.7538 7.08662C10.5714 6.73702 10.3187 6.47292 9.9957 6.29432C9.6727 6.11572 9.3022 6.02642 8.8842 6.02642C8.4244 6.02642 8.0235 6.13472 7.6815 6.35132C7.40751 6.52181 7.16913 6.75205 6.98941 7.04204L6.99219 6.89852V4Z" fill="#6C707E"/>
<path fill-rule="evenodd" clip-rule="evenodd" d="M2 4C2 2.89543 2.89543 2 4 2H12C13.1046 2 14 2.89543 14 4V12C14 13.1046 13.1046 14 12 14H4C2.89543 14 2 13.1046 2 12V4ZM4 3H12C12.5523 3 13 3.44772 13 4V12C13 12.5523 12.5523 13 12 13H4C3.44772 13 3 12.5523 3 12V4C3 3.44772 3.44772 3 4 3Z" fill="#6C707E"/>
</svg>
