<svg width="16" height="16" viewBox="0 0 16 16" fill="none" xmlns="http://www.w3.org/2000/svg">
<path d="M13.8561 4.01496C14.2639 4.34394 14.6537 4.7208 15.0254 5.14042L14.7469 6.43191C14.7469 6.43191 13.9984 6.20376 13.772 6.16709C13.0075 6.04589 12.2621 6.13857 11.5778 6.67533C11.4655 6.76313 11.3581 6.85301 11.2555 6.94516C8.84745 7.30494 7.00058 9.3818 7.00058 11.89C7.00058 13.0629 7.40444 14.1415 8.08069 14.9943C6.12594 14.9963 2.02539 14.9987 2.02539 14.9987C2.11728 14.5814 2.19147 14.1452 2.26693 13.7016C2.40622 12.8828 2.54982 12.0387 2.81691 11.2413C4.34886 6.67533 7.04204 4.43256 8.4277 3.66765C9.31842 3.17672 10.6009 2.90885 11.5407 3.02598C12.4414 3.13904 13.0456 3.35904 13.8561 4.01496Z" fill="#FFF4EB"/>
<path d="M10.377 2.28201L9.755 0.890015L8 1.22301L8.703 2.60701C9.196 2.42001 9.746 2.30101 10.377 2.28201Z" fill="#E66D17"/>
<path d="M3.523 7.96461L2.025 7.07361L1 9.34161L2.51 10.1736C2.821 9.36261 3.161 8.62361 3.523 7.96461Z" fill="#E66D17"/>
<path d="M13.643 3.14351L13.6417 3.14214L13.641 3.14101C13.12 2.72601 12.668 2.48201 12.219 2.32101L12 0.890015L13.45 1.30601L13.645 3.14601C13.6445 3.14501 13.6438 3.14426 13.643 3.14351Z" fill="#E66D17"/>
<path d="M6.6218 4.01655L5.4718 2.76355L3.8418 4.18755L5.1828 5.52055C5.6878 4.90955 6.1808 4.41055 6.6218 4.01655Z" fill="#E66D17"/>
<path d="M14.7469 6.43191C14.7469 6.43191 14.0169 6.20939 13.7807 6.16855L13.772 6.16709C13.0075 6.04589 12.2621 6.13857 11.5778 6.67533C11.4655 6.76313 11.3581 6.85301 11.2555 6.94516C10.5851 7.04531 9.95831 7.27852 9.4027 7.61705C9.79663 6.97393 10.3056 6.40079 10.9617 5.88764C11.8223 5.21309 12.7551 5.05643 13.6306 5.14126C13.4979 5.01865 13.3638 4.90262 13.2282 4.79326L13.2271 4.79232C12.5721 4.26233 12.1462 4.10987 11.4167 4.01826C10.7057 3.92977 9.63457 4.1445 8.91097 4.54312C7.73558 5.19201 5.21401 7.24055 3.76498 11.5594C3.58305 12.1027 3.46071 12.6867 3.34924 13.3113C3.31865 13.4827 3.28831 13.6611 3.25738 13.8428L3.23096 13.9979L7.46389 13.9949C7.63035 14.353 7.83797 14.6882 8.08068 14.9943C6.74067 14.9957 4.39227 14.9972 3.04774 14.998L2.02539 14.9987C2.09669 14.6749 2.15734 14.3397 2.21619 13.9985C2.23318 13.9 2.25003 13.801 2.26693 13.7016C2.40622 12.8828 2.54982 12.0387 2.81691 11.2413C4.34886 6.67533 7.04204 4.43256 8.4277 3.66765C9.31842 3.17672 10.6009 2.90885 11.5407 3.02598C12.4414 3.13904 13.0456 3.35904 13.8561 4.01496C14.2639 4.34394 14.6537 4.7208 15.0254 5.14042L14.7469 6.43191Z" fill="#E66D17"/>
<path d="M10.7127 14.7107C10.4717 14.1134 10.3093 13.3479 10.2631 12.5H9.04102C9.2053 13.4792 9.84398 14.2976 10.7127 14.7107Z" fill="#EBECF0"/>
<path d="M11.6783 14.4276C11.4715 13.955 11.3129 13.285 11.2647 12.5H12.7343C12.6861 13.285 12.5276 13.955 12.3208 14.4276C12.202 14.6991 12.085 14.8652 11.9995 14.9529C11.9141 14.8652 11.797 14.6991 11.6783 14.4276Z" fill="#EBECF0"/>
<path d="M11.6783 9.57238C11.4715 10.0449 11.3129 10.715 11.2647 11.5H12.7343C12.6861 10.715 12.5276 10.0449 12.3208 9.57238C12.202 9.30087 12.085 9.13482 11.9995 9.04712C11.9141 9.13482 11.797 9.30087 11.6783 9.57238Z" fill="#EBECF0"/>
<path d="M13.2864 14.7107C13.5274 14.1134 13.6897 13.3479 13.736 12.5H14.9581C14.7938 13.4792 14.1551 14.2976 13.2864 14.7107Z" fill="#EBECF0"/>
<path d="M13.736 11.5H14.9581C14.7938 10.5207 14.1551 9.70236 13.2864 9.28924C13.5274 9.88657 13.6897 10.6521 13.736 11.5Z" fill="#EBECF0"/>
<path d="M9.04102 11.5H10.2631C10.3093 10.6521 10.4717 9.88657 10.7127 9.28924C9.84398 9.70236 9.2053 10.5207 9.04102 11.5Z" fill="#EBECF0"/>
<path fill-rule="evenodd" clip-rule="evenodd" d="M16 12C16 9.79086 14.2091 8 12 8C9.79086 8 8 9.79086 8 12C8 14.2091 9.79086 16 12 16C14.2091 16 16 14.2091 16 12ZM10.2635 12.5C10.3098 13.3479 10.4722 14.1134 10.7131 14.7107C9.84445 14.2976 9.20577 13.4792 9.04148 12.5H10.2635ZM11.2652 12.5C11.3134 13.285 11.472 13.955 11.6787 14.4276C11.7975 14.6991 11.9146 14.8652 12 14.9529C12.0854 14.8652 12.2025 14.6991 12.3213 14.4276C12.528 13.955 12.6866 13.285 12.7348 12.5H11.2652ZM12.7348 11.5H11.2652C11.3134 10.715 11.472 10.045 11.6787 9.57239C11.7975 9.30089 11.9146 9.13483 12 9.04713C12.0854 9.13483 12.2025 9.30089 12.3213 9.57239C12.528 10.045 12.6866 10.715 12.7348 11.5ZM13.7365 12.5C13.6902 13.3479 13.5278 14.1134 13.2869 14.7107C14.1556 14.2976 14.7942 13.4792 14.9585 12.5H13.7365ZM14.9585 11.5H13.7365C13.6902 10.6521 13.5278 9.88659 13.2869 9.28925C14.1556 9.70237 14.7942 10.5208 14.9585 11.5ZM10.2635 11.5H9.04148C9.20577 10.5208 9.84445 9.70237 10.7131 9.28925C10.4722 9.88659 10.3098 10.6521 10.2635 11.5Z" fill="#6C707E"/>
</svg>
