<svg width="16" height="16" viewBox="0 0 16 16" fill="none" xmlns="http://www.w3.org/2000/svg">
<g clip-path="url(#clip0_5092_56777)">
<path d="M4 2C2.89543 2 2 2.89543 2 4V12C2 13.1046 2.89543 14 4 14H7.03544C7.01209 13.8367 7 13.6698 7 13.5C7 11.567 8.567 10 10.5 10C11.8962 10 13.1015 10.8175 13.6632 12H14V4C14 2.89543 13.1046 2 12 2H4Z" fill="#45322B"/>
<path d="M4 2C2.89543 2 2 2.89543 2 4V12C2 13.1046 2.89543 14 4 14H7.03544C7.01209 13.8367 7 13.6698 7 13.5C7 13.3302 7.01209 13.1633 7.03544 13H4C3.44772 13 3 12.5523 3 12V4C3 3.44772 3.44772 3 4 3H12C12.5523 3 13 3.44772 13 4V11.0506C13.2702 11.3266 13.4952 11.647 13.6629 12H14V4C14 2.89543 13.1046 2 12 2H4Z" fill="#C77D55"/>
<path d="M11 10.0354V8.33492C11 7.84852 10.9362 7.43242 10.7538 7.08662C10.5714 6.73702 10.3187 6.47292 9.9957 6.29432C9.6727 6.11572 9.3022 6.02642 8.8842 6.02642C8.4244 6.02642 8.0235 6.13472 7.6815 6.35132C7.40751 6.52181 7.16913 6.75205 6.98941 7.04204L6.99219 6.89852V4H6V12H6.99219V8.55722C6.99219 8.23802 7.05869 7.95492 7.19169 7.70792C7.32469 7.45712 7.5333 7.26332 7.7727 7.12652C8.0121 6.98592 8.2876 6.91562 8.5992 6.91562C8.8918 6.91562 9.1426 6.97642 9.3516 7.09802C9.5644 7.21582 9.7278 7.39062 9.8418 7.62242C9.9558 7.85042 10.0128 8.12592 10.0128 8.44892V10.0336C10.172 10.0115 10.3347 10 10.5 10C10.6698 10 10.8367 10.0121 11 10.0354Z" fill="#C77D55"/>
<path fill-rule="evenodd" clip-rule="evenodd" d="M12.95 14C12.7184 15.1411 11.7095 16 10.5 16C9.11929 16 8 14.8807 8 13.5C8 12.1193 9.11929 11 10.5 11C11.7095 11 12.7184 11.8589 12.95 13L16 13L16 14L15 14L15 16L14 16L14 14L12.95 14ZM10.5 15C11.3284 15 12 14.3284 12 13.5C12 12.6716 11.3284 12 10.5 12C9.67157 12 9 12.6716 9 13.5C9 14.3284 9.67157 15 10.5 15Z" fill="#CED0D6"/>
</g>
<defs>
<clipPath id="clip0_5092_56777">
<rect width="16" height="16" fill="white"/>
</clipPath>
</defs>
</svg>
