<svg width="16" height="16" viewBox="0 0 16 16" fill="none" xmlns="http://www.w3.org/2000/svg">
<path fill-rule="evenodd" clip-rule="evenodd" d="M10 11.0004V9.0004H11.537C12.303 9.0004 13 9.313 13 9.954C13 10.595 12.285 11.0004 11.547 11.0004H10ZM12.36 11.828C13.175 11.59 14 11.1099 14 9.913C14 8.71613 12.9489 8 11.622 8H9V14H10V12.0004H11.328L12.773 14H14L12.36 11.828Z" fill="#E08855"/>
<path fill-rule="evenodd" clip-rule="evenodd" d="M15.5 10C15.7761 10 16 10.2239 16 10.5V15C16 15.5523 15.5523 16 15 16H11.5C11.2239 16 11 15.7761 11 15.5C11 15.2239 11.2239 15 11.5 15H15V10.5C15 10.2239 15.2239 10 15.5 10Z" fill="#548AF7"/>
<path d="M1 3.86667C1 2.83574 1.73127 2 2.63333 2H6.1217C6.39413 2 6.65477 2.11115 6.84336 2.30775L8.46667 4L13 4C14.1046 4 15 4.89543 15 6V7H8V14H2.63333C1.73127 14 1 13.1643 1 12.1333V3.86667Z" fill="#43454A"/>
<path d="M2.63333 3L6.1217 3L8.04022 5H13C13.5523 5 14 5.44771 14 6V7H15V6C15 4.89543 14.1046 4 13 4L8.46667 4L6.84336 2.30775C6.65477 2.11115 6.39413 2 6.1217 2H2.63333C1.73127 2 1 2.83574 1 3.86667V12.1333C1 13.1643 1.73127 14 2.63333 14H8V13H2.63333C2.40481 13 2 12.7416 2 12.1333V3.86667C2 3.25841 2.40481 3 2.63333 3Z" fill="#CED0D6"/>
</svg>
