<svg width="16" height="16" viewBox="0 0 16 16" fill="none" xmlns="http://www.w3.org/2000/svg">
<path d="M12.1622 7.0125C12.9262 5.67231 13.3013 4.46303 13.332 4.36156C13.3642 4.253 13.3307 4.13625 13.2455 4.06225C13.1603 3.98831 13.0397 3.97212 12.9372 4.01925L10.6971 5.06419L10.292 4.19512L11.0709 2.39974C11.1184 2.29118 11.0932 2.16406 11.0078 2.08156C10.9221 1.99799 10.795 1.97668 10.6873 2.02674L0.169927 6.9317C0.071489 6.97726 0.00723881 7.07451 0.0039888 7.18276C0.00142629 7.29038 0.0586765 7.3917 0.154302 7.44301L2.06843 8.47651L3.54837 11.6506C3.58075 11.7188 3.63844 11.7721 3.70944 11.7981L8.0502 13.3821C8.08183 13.3937 8.11514 13.3997 8.14845 13.3997C8.18939 13.3997 8.23083 13.3905 8.26901 13.373L8.38309 13.3197C8.13681 12.7633 8 12.1476 8 11.5C8 9.12837 9.83467 7.18525 12.1622 7.0125Z" fill="#402929"/>
<path fill-rule="evenodd" clip-rule="evenodd" d="M2.5075 8.06264L0.921875 7.20651L1.89788 6.75426L2.5075 8.06264Z" fill="#F2C55C"/>
<path fill-rule="evenodd" clip-rule="evenodd" d="M11.4159 7.13156C9.94838 7.49471 8.76483 8.57805 8.26189 9.98497C8.25478 9.9873 8.2547 9.98927 8.25976 9.99094C8.20003 10.1588 8.14999 10.3312 8.11029 10.5075C8.10375 10.5088 8.10263 10.5113 8.10853 10.5154C8.0378 10.8323 8.00049 11.1618 8.00049 11.5C8.00049 11.9449 8.06506 12.3748 8.18534 12.7807L8.13432 12.8045L4.01705 11.3015L1.89648 6.75538L4.45699 5.562C4.97606 5.35144 5.40393 5.34644 5.72581 5.54825C6.41462 5.97957 6.5035 7.2072 6.504 7.21988C6.5105 7.31382 6.56262 7.39957 6.64387 7.44757C6.72537 7.49538 6.82475 7.50063 6.91087 7.46095L12.5584 4.82744C12.3397 5.39004 11.9601 6.2578 11.4159 7.13156ZM3.11305 7.06577C3.24199 6.71002 3.63611 6.5267 3.99174 6.65614C4.34743 6.78558 4.53037 7.17889 4.40143 7.53427C4.27199 7.89065 3.87843 8.07396 3.52249 7.94396C3.16705 7.81496 2.98342 7.42158 3.11305 7.06577Z" fill="#DB5C5C"/>
<path fill-rule="evenodd" clip-rule="evenodd" d="M14.1667 12.5897C13.8417 12.4486 13.6052 12.1675 13.5356 11.8616C13.7097 11.744 13.9251 11.681 14.1378 11.6853C14.2652 11.6876 14.3932 11.7132 14.5149 11.7661C14.6078 11.8132 14.6978 11.8573 14.7907 11.9279C15.1158 12.1632 14.9112 12.6869 14.4932 12.6633C14.3772 12.6633 14.2828 12.6368 14.1667 12.5897ZM12.9112 13.3913C12.7719 13.0619 12.8198 12.7088 13.0055 12.4499C13.3306 12.5206 13.6279 12.731 13.7673 13.0604C13.8138 13.1545 13.8399 13.2751 13.8399 13.3694C13.8631 13.7222 13.3263 13.9311 13.0709 13.6487C13.0011 13.5782 12.9577 13.4854 12.9112 13.3913ZM13.0269 9.25104C13.1227 9.13633 13.2597 9.09044 13.3896 9.10401C13.6065 9.12637 13.8105 9.30256 13.796 9.55248C13.796 9.6467 13.7699 9.76733 13.7234 9.86141C13.5842 10.1908 13.3084 10.4011 12.9835 10.4718C12.7745 10.2129 12.728 9.85982 12.8673 9.5304C12.9137 9.43632 12.9574 9.34512 13.0269 9.25104ZM12.077 13.6487C11.8447 13.9546 11.3064 13.7399 11.3297 13.3398C11.3297 13.2457 11.3558 13.1324 11.4022 13.0383C11.5415 12.7088 11.8171 12.4985 12.1422 12.428C12.3279 12.7104 12.3759 13.0633 12.2366 13.3694C12.1902 13.4634 12.1465 13.5546 12.077 13.6487ZM10.6329 12.6853C10.215 12.7088 10.0119 12.216 10.3137 11.9573C10.3833 11.8867 10.4733 11.8352 10.5895 11.7882C10.7114 11.7352 10.8391 11.7098 10.9666 11.7072C11.1782 11.7035 11.3857 11.7649 11.5616 11.8838C11.5152 12.1897 11.2845 12.4705 10.9595 12.6118C10.8665 12.6588 10.7491 12.6853 10.6329 12.6853ZM10.6332 10.2585C10.7493 10.2585 10.8436 10.2851 10.9597 10.3321C11.2847 10.4732 11.5213 10.7543 11.5908 11.0602C11.3123 11.2484 10.9364 11.2968 10.6115 11.1557C10.5186 11.1087 10.4285 11.0572 10.3357 10.9866C10.031 10.7439 10.1946 10.2776 10.5607 10.2585C10.5851 10.2572 10.6071 10.2555 10.6332 10.2585ZM12.0552 9.27312C12.1249 9.34368 12.1684 9.43632 12.2148 9.5304C12.3541 9.85982 12.3063 10.2131 12.1204 10.4718C11.7955 10.4011 11.498 10.1908 11.3587 9.86141C11.3122 9.76733 11.2862 9.6467 11.2862 9.55248C11.2862 9.31727 11.4878 9.14643 11.6997 9.12594C11.8269 9.11367 11.9594 9.15841 12.0552 9.27312ZM12.5364 8C10.5818 8 9 9.57834 9 11.5286C9 13.2457 10.2336 14.6724 11.8615 14.9898V16C13.9779 15.6816 15.8518 14.0053 15.9917 11.8048C16.1315 9.60429 14.4909 8 12.5364 8Z" fill="#57965C"/>
</svg>
