<svg width="16" height="16" viewBox="0 0 16 16" fill="none" xmlns="http://www.w3.org/2000/svg">
<path fill-rule="evenodd" clip-rule="evenodd" d="M15.8133 9.30783L14.6665 8.90283L14.5275 8.06345C14.5103 7.9592 14.4372 7.87339 14.3378 7.8392C14.2385 7.80576 14.1286 7.82839 14.0508 7.8997L12.6312 9.21102L11.8483 7.53345C12.8241 6.00132 13.2973 4.47606 13.332 4.36156C13.3642 4.253 13.3307 4.13625 13.2455 4.06225C13.1603 3.98831 13.0397 3.97212 12.9372 4.01925L10.6971 5.06419L10.292 4.19512L11.0709 2.39974C11.1184 2.29118 11.0932 2.16406 11.0078 2.08156C10.9221 1.99799 10.795 1.97668 10.6873 2.02674L0.169927 6.9317C0.071489 6.97726 0.00723881 7.07451 0.0039888 7.18276C0.00142629 7.29038 0.0586765 7.3917 0.154302 7.44301L2.06843 8.47651L3.54837 11.6506C3.58075 11.7188 3.63844 11.7721 3.70944 11.7981L8.0502 13.3821C8.08183 13.3937 8.11514 13.3997 8.14845 13.3997C8.18939 13.3997 8.23083 13.3905 8.26901 13.373L15.8397 9.8367C15.9444 9.78739 16.0094 9.67958 16.0035 9.56345C15.9982 9.44752 15.9228 9.34627 15.8133 9.30783Z" fill="#633333"/>
<path fill-rule="evenodd" clip-rule="evenodd" d="M2.5075 8.06265L0.921875 7.20652L1.89788 6.75427L2.5075 8.06265Z" fill="#FCC75B"/>
<path fill-rule="evenodd" clip-rule="evenodd" d="M11.0491 7.68283L11.0531 7.67753C11.7945 6.6339 12.294 5.50764 12.5584 4.82745L6.91087 7.46096C6.82475 7.50065 6.72537 7.4954 6.64387 7.44759C6.56262 7.39959 6.5105 7.31384 6.504 7.2199C6.5035 7.20721 6.41462 5.97958 5.72581 5.54827C5.40393 5.34646 4.97606 5.35146 4.45699 5.56202L1.89648 6.7554L4.01705 11.3015L8.13432 12.8045L12.2586 10.882C11.9888 10.489 11.3896 9.69866 10.5891 9.13165C9.96113 9.76141 9.22001 10.283 8.35688 10.5537C8.32844 10.5625 8.29982 10.5667 8.27144 10.5667C8.14994 10.5667 8.037 10.4882 7.99882 10.3658C7.95138 10.2153 8.03519 10.0545 8.186 10.0079C8.186 10.0079 9.73088 9.61441 11.0403 7.69477C11.0432 7.69057 11.0461 7.68675 11.0491 7.68283ZM3.11305 7.06578C3.24199 6.71003 3.63611 6.52672 3.99174 6.65616C4.34743 6.7856 4.53037 7.17891 4.40143 7.53429C4.27199 7.89066 3.87843 8.07397 3.52249 7.94397C3.16705 7.81497 2.98342 7.4216 3.11305 7.06578Z" fill="#E55765"/>
<path d="M14.1295 9.16309L14.0498 8.67984L12.8851 9.7561L13.2044 10.4404L14.9644 9.61478L14.3166 9.38609C14.2188 9.35153 14.1469 9.26559 14.1295 9.16309Z" fill="#E55765"/>
</svg>
