<svg width="16" height="16" viewBox="0 0 16 16" fill="none" xmlns="http://www.w3.org/2000/svg">
<path d="M8 1C4.13401 1 1 4.13401 1 8C1 11.866 4.13401 15 8 15C9.48711 15 10.8659 14.5363 11.9997 13.7455V12H10.417V11.0597C10.417 10.5009 10.5376 9.9638 10.8115 9.48034L10.8154 9.47346C11.0918 8.99466 11.485 8.62194 11.9754 8.36813C12.4669 8.11211 13.0088 8 13.573 8C14.0702 8 14.5511 8.08794 14.9941 8.28929C14.998 8.19335 15 8.0969 15 8C15 4.13401 11.866 1 8 1Z" fill="#EDF3FF"/>
<path d="M8 14C4.68629 14 2 11.3137 2 8C2 4.68629 4.68629 2 8 2C11.3137 2 14 4.68629 14 8C14 8.00757 14 8.01514 14 8.02271C14.3453 8.06038 14.6793 8.1462 14.9941 8.28929C14.998 8.19335 15 8.0969 15 8C15 4.13401 11.866 1 8 1C4.13401 1 1 4.13401 1 8C1 11.866 4.13401 15 8 15C9.48711 15 10.8659 14.5363 11.9997 13.7455V12.4725C10.9382 13.4224 9.53656 14 8 14Z" fill="#3574F0"/>
<path d="M13.0007 13.5815C13.0007 13.3717 13.0366 13.1866 13.1085 13.026C13.1836 12.8621 13.2734 12.7212 13.378 12.6032C13.4858 12.4853 13.6279 12.346 13.8043 12.1854C13.9709 12.0314 14.1015 11.9019 14.1963 11.7971C14.2943 11.6922 14.3759 11.5676 14.4413 11.4235C14.5099 11.2793 14.5442 11.117 14.5442 10.9368C14.5442 10.7434 14.5017 10.5714 14.4168 10.4206C14.3351 10.2699 14.2191 10.1536 14.0689 10.0716C13.9219 9.98642 13.752 9.94382 13.5593 9.94382C13.3437 9.94382 13.1542 9.99134 12.9909 10.0864C12.8275 10.1781 12.7018 10.3092 12.6136 10.4796C12.5254 10.6468 12.4813 10.8401 12.4813 11.0597H11.418C11.418 10.6468 11.5062 10.2846 11.6826 9.97331C11.8622 9.66198 12.1138 9.42275 12.4372 9.25562C12.7638 9.08521 13.1428 9 13.574 9C13.9856 9 14.3465 9.07865 14.6569 9.23595C14.9672 9.38998 15.2057 9.60955 15.3723 9.89466C15.5421 10.1765 15.6254 10.5026 15.6222 10.8729C15.6222 11.1613 15.5764 11.4136 15.485 11.6299C15.3935 11.8429 15.2841 12.0215 15.1567 12.1657C15.0293 12.3066 14.8627 12.464 14.6569 12.6376C14.5099 12.7687 14.3923 12.8801 14.3041 12.9719C14.2191 13.0604 14.1489 13.1603 14.0934 13.2718C14.0378 13.3799 14.0101 13.4995 14.0101 13.6306V13.8174H13.0007V13.5815ZM12.8978 14.7416H14.1522V16H12.8978V14.7416Z" fill="#6C707E"/>
</svg>
