<svg width="16" height="16" viewBox="0 0 16 16" fill="none" xmlns="http://www.w3.org/2000/svg">
<path fill-rule="evenodd" clip-rule="evenodd" d="M12 13.0004V11.0004H13.537C14.303 11.0004 15 11.313 15 11.954C15 12.595 14.285 13.0004 13.547 13.0004H12ZM14.36 13.828C15.175 13.59 16 13.1099 16 11.913C16 10.7161 14.9489 10 13.622 10H11V16H12V14.0004H13.328L14.773 16H16L14.36 13.828Z" fill="#E08855"/>
<path d="M1 3.86667C1 2.83574 1.73127 2 2.63333 2H6.1217C6.39413 2 6.65477 2.11115 6.84336 2.30775L8.46667 4L13 4C14.1046 4 15 4.89543 15 6V9.22455C14.5649 9.07217 14.095 9 13.622 9H10V14H2.63333C1.73127 14 1 13.1643 1 12.1333V3.86667Z" fill="#43454A"/>
<path d="M2.63333 3L6.1217 3L8.04022 5H13C13.5523 5 14 5.44771 14 6V9.01562C14.3437 9.04431 14.6812 9.1129 15 9.22455V6C15 4.89543 14.1046 4 13 4L8.46667 4L6.84336 2.30775C6.65477 2.11115 6.39413 2 6.1217 2H2.63333C1.73127 2 1 2.83574 1 3.86667V12.1333C1 13.1643 1.73127 14 2.63333 14H10V13H2.63333C2.40481 13 2 12.7416 2 12.1333V3.86667C2 3.25841 2.40481 3 2.63333 3Z" fill="#CED0D6"/>
</svg>
