<svg width="16" height="16" viewBox="0 0 16 16" fill="none" xmlns="http://www.w3.org/2000/svg">
<path d="M2.90375 12L1.93775 8.32H2.91525L3.92725 12H2.90375ZM0.575 12V3.95H1.932C2.369 3.95 2.7255 4.03433 3.0015 4.203C3.2775 4.37167 3.48067 4.6285 3.611 4.9735C3.74133 5.31467 3.8065 5.75167 3.8065 6.2845C3.8065 6.82117 3.73942 7.262 3.60525 7.607C3.47492 7.952 3.26792 8.20883 2.98425 8.3775C2.70058 8.54617 2.3345 8.6305 1.886 8.6305H1.5295V12H0.575ZM1.932 7.73925C2.2425 7.73925 2.46292 7.62425 2.59325 7.39425C2.72742 7.16042 2.7945 6.7905 2.7945 6.2845C2.7945 5.78617 2.72742 5.422 2.59325 5.192C2.46292 4.95817 2.2425 4.84125 1.932 4.84125H1.5295V7.73925H1.932ZM6.60768 3.95C7.06768 3.95 7.44718 4.02667 7.74618 4.18C8.04901 4.3295 8.27326 4.5595 8.41893 4.87C8.56843 5.1805 8.64318 5.57342 8.64318 6.04875C8.64318 6.46658 8.58568 6.81158 8.47068 7.08375C8.35568 7.35208 8.18126 7.55333 7.94743 7.6875C7.71359 7.82167 7.41651 7.88875 7.05618 7.88875V7.70475C7.46251 7.70475 7.79793 7.7795 8.06243 7.929C8.32693 8.0785 8.52434 8.30658 8.65468 8.61325C8.78501 8.91608 8.85018 9.30133 8.85018 9.769C8.85018 10.275 8.77159 10.6928 8.61443 11.0225C8.45726 11.3522 8.21768 11.5975 7.89568 11.7585C7.57368 11.9195 7.16734 12 6.67668 12H5.48643V3.95H6.60768ZM6.42368 8.297V11.1375H6.67668C7.07918 11.1375 7.37626 11.0225 7.56793 10.7925C7.76343 10.5625 7.86118 10.2079 7.86118 9.72875C7.86118 9.40292 7.81709 9.13458 7.72893 8.92375C7.64459 8.71292 7.51426 8.55575 7.33793 8.45225C7.16543 8.34875 6.94501 8.297 6.67668 8.297H6.42368ZM6.60768 7.4575C6.96034 7.4575 7.22293 7.35017 7.39543 7.1355C7.56793 6.917 7.65418 6.58542 7.65418 6.14075C7.65418 5.68842 7.56793 5.35492 7.39543 5.14025C7.22293 4.92175 6.96034 4.8125 6.60768 4.8125H6.42368V7.4575H6.60768ZM11.7705 12.138C11.3833 12.138 11.069 12.0537 10.8275 11.885C10.586 11.7163 10.4077 11.4557 10.2927 11.103C10.1777 10.7503 10.1202 10.2922 10.1202 9.72875H11.0977C11.0977 10.0891 11.1207 10.3842 11.1667 10.6142C11.2166 10.8404 11.2913 11.0072 11.391 11.1145C11.4907 11.2218 11.621 11.2755 11.782 11.2755C11.9315 11.2755 12.0522 11.2257 12.1442 11.126C12.2401 11.0225 12.3091 10.8653 12.3512 10.6545C12.3972 10.4398 12.4202 10.1619 12.4202 9.82075C12.4202 9.45658 12.3742 9.16717 12.2822 8.9525C12.1902 8.734 12.0446 8.5615 11.8452 8.435L11.345 8.1245C11.0882 7.9635 10.8792 7.78333 10.7182 7.584C10.5611 7.38467 10.4442 7.1585 10.3675 6.9055C10.2947 6.64867 10.2582 6.3535 10.2582 6.02C10.2582 5.5025 10.31 5.08275 10.4135 4.76075C10.517 4.43492 10.6761 4.19533 10.8907 4.042C11.1054 3.88867 11.3872 3.812 11.736 3.812C12.0887 3.812 12.3742 3.89058 12.5927 4.04775C12.8151 4.20108 12.978 4.44067 13.0815 4.7665C13.1888 5.09233 13.2425 5.51783 13.2425 6.043H12.265C12.265 5.721 12.2458 5.46033 12.2075 5.261C12.173 5.06167 12.1174 4.91408 12.0407 4.81825C11.9679 4.72242 11.8702 4.6745 11.7475 4.6745C11.5635 4.6745 11.4293 4.78183 11.345 4.9965C11.2645 5.20733 11.2242 5.5485 11.2242 6.02C11.2242 6.32283 11.2683 6.572 11.3565 6.7675C11.4485 6.95917 11.5922 7.11633 11.7877 7.239L12.3397 7.584C12.5889 7.74117 12.7902 7.92325 12.9435 8.13025C13.0968 8.33342 13.2099 8.573 13.2827 8.849C13.3556 9.125 13.392 9.44508 13.392 9.80925C13.392 10.3536 13.3345 10.7963 13.2195 11.1375C13.1083 11.4787 12.9339 11.7317 12.6962 11.8965C12.4586 12.0575 12.15 12.138 11.7705 12.138Z" fill="#DB5C5C"/>
</svg>
