<svg width="16" height="16" viewBox="0 0 16 16" fill="none" xmlns="http://www.w3.org/2000/svg">
<path fill-rule="evenodd" clip-rule="evenodd" d="M1.38421 8.41903C1.1744 8.1901 1.17396 7.83893 1.38322 7.60948L5.4555 3.14419C5.82475 2.73931 6.49895 3.00049 6.49895 3.54842L6.49902 12.4571C6.49902 13.0043 5.82632 13.2659 5.45656 12.8624L1.38421 8.41903Z" fill="#FFF7F7"/>
<path fill-rule="evenodd" clip-rule="evenodd" d="M5.08605 2.80731C5.763 2.06503 6.99903 2.54386 6.99904 3.5484L6.9991 12.4571C6.99911 13.4603 5.76582 13.9398 5.08793 13.2002L1.01558 8.75679C0.630922 8.33708 0.630132 7.69326 1.01376 7.27261L5.08605 2.80731ZM5.87597 3.449C5.86295 3.4517 5.84566 3.45843 5.82505 3.48103L1.75276 7.94633C1.71788 7.98457 1.71795 8.0431 1.75292 8.08125L5.82527 12.5247C5.8459 12.5472 5.86318 12.5539 5.87623 12.5565C5.89225 12.5598 5.91321 12.5589 5.93526 12.5503C5.95731 12.5417 5.97341 12.5283 5.983 12.515C5.9908 12.5042 5.99902 12.4876 5.99902 12.4571L5.99895 3.54841C5.99895 3.51781 5.99071 3.5012 5.98291 3.49043C5.97331 3.47718 5.95718 3.46373 5.93508 3.45517C5.91298 3.44661 5.89199 3.44567 5.87597 3.449Z" fill="#DB3B4B"/>
<path d="M14.786 8.00001C14.786 7.85465 14.7335 7.7093 14.6283 7.59461L10.5424 3.1372C10.1727 2.73381 9.50002 2.99537 9.50002 3.54256L9.5 8.67708C9.86647 8.26188 10.4026 8.00001 11 8.00001H14.786Z" fill="#F2FCF3"/>
<path d="M10.0001 8.2675L10.0001 3.54255C10.0001 3.51203 10.0083 3.49541 10.0161 3.48462C10.0257 3.47137 10.0418 3.45793 10.0639 3.44936C10.0859 3.44078 10.1069 3.43981 10.1229 3.44311C10.1359 3.44579 10.1532 3.45249 10.1739 3.47499L14.2597 7.93239C14.2773 7.95152 14.286 7.97576 14.286 7.99999H15C15.0971 7.99999 15.1925 8.00691 15.2859 8.02028C15.291 7.74709 15.1947 7.47239 14.997 7.2568L10.9111 2.79939C10.2332 2.05984 9.00003 2.53937 9.00003 3.54254L9 9.99347C9.00236 9.25587 9.40399 8.61227 10.0001 8.2675Z" fill="#208A3C"/>
<path d="M12 12H14V11H12V12Z" fill="#6C707E"/>
<path d="M12 14H14V13H12V14Z" fill="#6C707E"/>
<path fill-rule="evenodd" clip-rule="evenodd" d="M11 9C10.4477 9 10 9.44772 10 10V15C10 15.5523 10.4477 16 11 16H15C15.5523 16 16 15.5523 16 15V10C16 9.44772 15.5523 9 15 9H11ZM15 10H11V15H15V10Z" fill="#6C707E"/>
</svg>
