<svg width="16" height="16" viewBox="0 0 16 16" fill="none" xmlns="http://www.w3.org/2000/svg">
<path d="M14 4.26756C14.5978 4.61337 15 5.25972 15 6V12.1333C15 13.1643 14.2165 14 13.25 14H2.75C1.7835 14 1 13.1643 1 12.1333V3.86667C1 2.83574 1.7835 2 2.75 2H6.03823C6.29871 2 6.5489 2.10163 6.73559 2.28327L8.00006 3.51357C8.00347 3.89292 8.1499 4.27122 8.43934 4.56066C8.73223 4.85355 9.11612 5 9.5 5H11V7.5C11 8.32843 11.6716 9 12.5 9C13.3284 9 14 8.32843 14 7.5V4.26756Z" fill="#253627"/>
<path d="M14 4.26756C14.5978 4.61337 15 5.25972 15 6V12.1333C15 13.1643 14.2165 14 13.25 14H2.75C1.7835 14 1 13.1643 1 12.1333V3.86667C1 2.83574 1.7835 2 2.75 2H6.03823C6.29871 2 6.5489 2.10163 6.73559 2.28327L8.00006 3.51357C8.00347 3.89292 8.1499 4.27122 8.43934 4.56066C8.73223 4.85355 9.11612 5 9.5 5H8.09379L6.03823 3H2.75C2.3956 3 2 3.32624 2 3.86667V12.1333C2 12.6738 2.3956 13 2.75 13H13.25C13.6044 13 14 12.6738 14 12.1333V4.26756Z" fill="#57965C"/>
<path fill-rule="evenodd" clip-rule="evenodd" d="M12.1464 0.146447C12.3417 -0.0488155 12.6583 -0.0488155 12.8536 0.146447L15.8536 3.14645C16.0488 3.34171 16.0488 3.65829 15.8536 3.85355C15.6583 4.04882 15.3417 4.04882 15.1464 3.85355L13 1.70711V7.5C13 7.77614 12.7761 8 12.5 8C12.2239 8 12 7.77614 12 7.5V1.70711L9.85355 3.85355C9.65829 4.04882 9.34171 4.04882 9.14645 3.85355C8.95118 3.65829 8.95118 3.34171 9.14645 3.14645L12.1464 0.146447Z" fill="#CED0D6"/>
</svg>
