<svg width="16" height="16" viewBox="0 0 16 16" fill="none" xmlns="http://www.w3.org/2000/svg">
<path d="M7.60349 15.478L0.250723 5.82749C0.105786 5.63726 0.11585 5.37103 0.274734 5.19228L3.70287 1.33564C3.89263 1.12215 4.16464 1 4.45027 1H11.5521C11.8378 1 12.1098 1.12215 12.2996 1.33564L15.7277 5.19228C15.8866 5.37103 15.8966 5.63726 15.7517 5.82749L14.0964 8H11.001C9.89641 8 9.00098 8.89543 9.00098 10V14.6878L8.39892 15.478C8.19882 15.7406 7.8036 15.7406 7.60349 15.478Z" fill="#FFF7F7"/>
<path fill-rule="evenodd" clip-rule="evenodd" d="M7.60349 15.478L0.250723 5.82749C0.105786 5.63726 0.11585 5.37103 0.274734 5.19228L3.70287 1.33564C3.89263 1.12215 4.16464 1 4.45027 1H11.5521C11.8378 1 12.1098 1.12215 12.2996 1.33564L15.7277 5.19228C15.8866 5.37103 15.8966 5.63726 15.7517 5.82749L14.0964 8H12.8393L14.3631 6H11.3674L10.7301 8.01819C10.2193 8.08735 9.76972 8.34936 9.45711 8.7285L10.3187 6H5.68321L8.00098 13.3396L9.00098 10.1729V14.6878L8.39892 15.478C8.19882 15.7406 7.8036 15.7406 7.60349 15.478ZM11.5521 2L14.2188 5H11.31L9.80999 2H11.5521ZM7.31 2H8.69196L10.192 5H5.80999L7.31 2ZM4.45027 2H6.19196L4.69196 5H1.7836L4.45027 2ZM6.75472 12.7139L1.63934 6H4.63453L6.75472 12.7139Z" fill="#DB3B4B"/>
<path d="M12 12H14V11H12V12Z" fill="#6C707E"/>
<path d="M12 14H14V13H12V14Z" fill="#6C707E"/>
<path fill-rule="evenodd" clip-rule="evenodd" d="M11 9C10.4477 9 10 9.44772 10 10V15C10 15.5523 10.4477 16 11 16H15C15.5523 16 16 15.5523 16 15V10C16 9.44772 15.5523 9 15 9H11ZM15 10H11V15H15V10Z" fill="#6C707E"/>
</svg>
