<svg width="16" height="16" viewBox="0 0 16 16" fill="none" xmlns="http://www.w3.org/2000/svg">
<path fill-rule="evenodd" clip-rule="evenodd" d="M10.5 3H4.73244C4.90261 3.29417 5 3.63571 5 4V12C5 12.5523 5.44772 13 6 13H8.12052L8.90831 14H6C4.89543 14 4 13.1046 4 12V5H1.5C1.22386 5 1 4.77614 1 4.5V4C1 2.89543 1.89543 2 3 2H10.5C11.8807 2 13 3.11929 13 4.5V8H12V4.5C12 3.67157 11.3284 3 10.5 3ZM2 4C2 3.44772 2.44772 3 3 3C3.55228 3 4 3.44772 4 4H2Z" fill="#CED0D6"/>
<path fill-rule="evenodd" clip-rule="evenodd" d="M15.8926 11.3674L12.3935 15.8091C12.193 16.0636 11.807 16.0636 11.6065 15.8091L8.10741 11.3674C7.94549 11.1619 7.9691 10.8664 8.1616 10.6892L9.70871 9.26481C9.89367 9.09453 10.1359 9 10.3873 9H13.6127C13.8641 9 14.1063 9.09453 14.2913 9.26481L15.8384 10.6892C16.0309 10.8664 16.0545 11.1619 15.8926 11.3674Z" fill="#402929"/>
<path fill-rule="evenodd" clip-rule="evenodd" d="M12 14.6898L14.8186 11.1119L13.6127 10.0016L10.3873 10.0016L9.18136 11.1119L12 14.6898ZM15.8926 11.3674L12.3935 15.8091C12.193 16.0636 11.807 16.0636 11.6065 15.8091L8.10741 11.3674C7.94549 11.1619 7.9691 10.8664 8.1616 10.6892L9.70871 9.26481C9.89367 9.09453 10.1359 9 10.3873 9H13.6127C13.8641 9 14.1063 9.09453 14.2913 9.26481L15.8384 10.6892C16.0309 10.8664 16.0545 11.1619 15.8926 11.3674Z" fill="#DB5C5C"/>
</svg>
