<svg width="14" height="14" viewBox="0 0 14 14" fill="none" xmlns="http://www.w3.org/2000/svg">
<path fill-rule="evenodd" clip-rule="evenodd" d="M13.7456 4.84613L7.40316 13.4537C7.20333 13.7249 6.79794 13.7249 6.59811 13.4537L0.255681 4.84613C0.109032 4.64711 0.129846 4.37079 0.304655 4.19598L3.20774 1.29289C3.39528 1.10536 3.64963 1 3.91485 1H10.0864C10.3516 1 10.606 1.10536 10.7935 1.29289L13.6966 4.19598C13.8714 4.37079 13.8922 4.64711 13.7456 4.84613Z" fill="#43454A"/>
<path fill-rule="evenodd" clip-rule="evenodd" d="M13.7456 4.84613L7.40316 13.4537C7.20333 13.7249 6.79794 13.7249 6.59811 13.4537L0.255681 4.84613C0.109032 4.64711 0.129846 4.37079 0.304655 4.19598L3.20774 1.29289C3.39528 1.10536 3.64963 1 3.91485 1H10.0864C10.3516 1 10.606 1.10536 10.7935 1.29289L13.6966 4.19598C13.8714 4.37079 13.8922 4.64711 13.7456 4.84613ZM5.7973 10.6811L1.61121 5H4.12638L5.7973 10.6811ZM8.20349 10.6818L12.3901 5H9.8746L8.20349 10.6818ZM9.80952 4H12.0864L10.0864 2H8.80952L9.80952 4ZM7.69148 2L8.69148 4H5.30949L6.30949 2L7.69148 2ZM5.19146 2H3.91485L1.91485 4H4.19146L5.19146 2ZM5.16873 5H8.83224L7.00049 11.228L5.16873 5Z" fill="#CED0D6"/>
</svg>
