<svg width="16" height="16" viewBox="0 0 16 16" fill="none" xmlns="http://www.w3.org/2000/svg">
<path fill-rule="evenodd" clip-rule="evenodd" d="M1.38616 8.41906C1.17635 8.19013 1.17592 7.83896 1.38517 7.60951L5.45746 3.14422C5.8267 2.73934 6.5009 3.00052 6.50091 3.54845L6.50097 12.4571C6.50097 13.0044 5.82827 13.2659 5.45851 12.8625L1.38616 8.41906Z" fill="#FFF7F7"/>
<path fill-rule="evenodd" clip-rule="evenodd" d="M5.08605 2.80734C5.763 2.06506 6.99903 2.54389 6.99904 3.54843L6.9991 12.4571C6.99911 13.4604 5.76582 13.9399 5.08793 13.2002L1.01558 8.75682C0.630922 8.33711 0.630132 7.69329 1.01376 7.27264L5.08605 2.80734ZM5.87597 3.44903C5.86295 3.45173 5.84566 3.45846 5.82505 3.48107L1.75276 7.94636C1.71788 7.9846 1.71795 8.04313 1.75292 8.08128L5.82527 12.5247C5.8459 12.5472 5.86318 12.5539 5.87623 12.5566C5.89225 12.5599 5.91321 12.5589 5.93526 12.5503C5.95731 12.5418 5.97341 12.5283 5.983 12.5151C5.9908 12.5043 5.99902 12.4877 5.99902 12.4571L5.99895 3.54844C5.99895 3.51785 5.99071 3.50123 5.98291 3.49046C5.97331 3.47721 5.95718 3.46376 5.93508 3.4552C5.91298 3.44664 5.89199 3.4457 5.87597 3.44903Z" fill="#DB3B4B"/>
<path d="M14.5221 7.47872C13.9142 7.17247 13.2273 7 12.5002 7C11.3476 7 10.2962 7.43336 9.5 8.14602L9.50002 3.54256C9.50002 2.99537 10.1727 2.73381 10.5424 3.1372L14.5221 7.47872Z" fill="#F2FCF3"/>
<path d="M10.0001 7.7577L10.0001 3.54256C10.0001 3.51204 10.0083 3.49543 10.0161 3.48464C10.0257 3.47139 10.0418 3.45795 10.0639 3.44937C10.0859 3.4408 10.1069 3.43983 10.1229 3.44312C10.1359 3.4458 10.1532 3.4525 10.1738 3.475L13.5092 7.11361C14.1683 7.26463 14.7721 7.56037 15.2856 7.96559C15.2776 7.7107 15.1815 7.45801 14.997 7.25681L10.9111 2.79941C10.2332 2.05985 9.00003 2.53939 9.00002 3.54256L9 8.6713C9.28514 8.31893 9.62242 8.01048 10.0001 7.7577Z" fill="#208A3C"/>
<path fill-rule="evenodd" clip-rule="evenodd" d="M14.1667 12.5897C13.8417 12.4486 13.6052 12.1675 13.5356 11.8616C13.7097 11.744 13.9251 11.681 14.1378 11.6853C14.2652 11.6876 14.3932 11.7132 14.5149 11.7661C14.6078 11.8132 14.6978 11.8573 14.7907 11.9279C15.1158 12.1632 14.9112 12.6869 14.4932 12.6633C14.3772 12.6633 14.2828 12.6368 14.1667 12.5897ZM12.9112 13.3913C12.7719 13.0619 12.8198 12.7088 13.0055 12.4499C13.3306 12.5206 13.6279 12.731 13.7673 13.0604C13.8138 13.1545 13.8399 13.2751 13.8399 13.3694C13.8631 13.7222 13.3263 13.9311 13.0709 13.6487C13.0011 13.5782 12.9577 13.4854 12.9112 13.3913ZM13.0269 9.25104C13.1227 9.13633 13.2597 9.09044 13.3896 9.10401C13.6065 9.12637 13.8105 9.30256 13.796 9.55248C13.796 9.6467 13.7699 9.76733 13.7234 9.86141C13.5842 10.1908 13.3084 10.4011 12.9835 10.4718C12.7745 10.2129 12.728 9.85982 12.8673 9.5304C12.9137 9.43632 12.9574 9.34512 13.0269 9.25104ZM12.077 13.6487C11.8447 13.9546 11.3064 13.7399 11.3297 13.3398C11.3297 13.2457 11.3558 13.1324 11.4022 13.0383C11.5415 12.7088 11.8171 12.4985 12.1422 12.428C12.3279 12.7104 12.3759 13.0633 12.2366 13.3694C12.1902 13.4634 12.1465 13.5546 12.077 13.6487ZM10.6329 12.6853C10.215 12.7088 10.0119 12.216 10.3137 11.9573C10.3833 11.8867 10.4733 11.8352 10.5895 11.7882C10.7114 11.7352 10.8391 11.7098 10.9666 11.7072C11.1782 11.7035 11.3857 11.7649 11.5616 11.8838C11.5152 12.1897 11.2845 12.4705 10.9595 12.6118C10.8665 12.6588 10.7491 12.6853 10.6329 12.6853ZM10.6332 10.2585C10.7493 10.2585 10.8436 10.2851 10.9597 10.3321C11.2847 10.4732 11.5213 10.7543 11.5908 11.0602C11.3123 11.2484 10.9364 11.2968 10.6115 11.1557C10.5186 11.1087 10.4285 11.0572 10.3357 10.9866C10.031 10.7439 10.1946 10.2776 10.5607 10.2585C10.5851 10.2572 10.6071 10.2555 10.6332 10.2585ZM12.0552 9.27312C12.1249 9.34368 12.1684 9.43632 12.2148 9.5304C12.3541 9.85982 12.3063 10.2131 12.1204 10.4718C11.7955 10.4011 11.498 10.1908 11.3587 9.86141C11.3122 9.76733 11.2862 9.6467 11.2862 9.55248C11.2862 9.31727 11.4878 9.14643 11.6997 9.12594C11.8269 9.11367 11.9594 9.15841 12.0552 9.27312ZM12.5364 8C10.5818 8 9 9.57834 9 11.5286C9 13.2457 10.2336 14.6724 11.8615 14.9898V16C13.9779 15.6816 15.8518 14.0053 15.9917 11.8048C16.1315 9.60429 14.4909 8 12.5364 8Z" fill="#55A76A"/>
</svg>
