<svg width="16" height="16" viewBox="0 0 16 16" fill="none" xmlns="http://www.w3.org/2000/svg">
<path d="M4 4H6V5H4V4Z" fill="#6C707E"/>
<path fill-rule="evenodd" clip-rule="evenodd" d="M2 3V6C2 6.55228 2.44772 7 3 7H13C13.5523 7 14 6.55228 14 6V3C14 2.44772 13.5523 2 13 2H3C2.44772 2 2 2.44772 2 3ZM3 6V3H13L13 6H3Z" fill="#6C707E"/>
<path d="M8 9H3C2.44772 9 2 9.44771 2 10V13C2 13.5523 2.44772 14 3 14H8V13H3V10H8V9Z" fill="#6C707E"/>
<path d="M4 11H6V12H4V11Z" fill="#6C707E"/>
<path fill-rule="evenodd" clip-rule="evenodd" d="M16 12C16 14.2091 14.433 16 12.5 16C10.567 16 9 14.2091 9 12L9.00031 9.49979C9.00034 9.22375 9.22412 9 9.50015 9C9.77621 9 10 9.22379 10 9.49985V11H11V8.5C11 8.22386 11.2239 8 11.5 8C11.7761 8 12 8.22386 12 8.5V11H13V8.5C13 8.22386 13.2239 8 13.5 8C13.7761 8 14 8.22386 14 8.5V11H15V9.5C15 9.22386 15.2239 9 15.5 9C15.7761 9 16 9.22386 16 9.5V12ZM12.5 15C13.8807 15 15 13.6569 15 12H10C10 13.6569 11.1193 15 12.5 15Z" fill="#DB3B4B"/>
<path d="M15 12C15 13.6569 13.8807 15 12.5 15C11.1193 15 10 13.6569 10 12H15Z" fill="#FFF7F7"/>
</svg>
