<svg width="16" height="16" viewBox="0 0 16 16" fill="none" xmlns="http://www.w3.org/2000/svg">
<path fill-rule="evenodd" clip-rule="evenodd" d="M12.0617 8C12.0252 7.95436 11.9814 7.91189 11.9297 7.87374C11.7787 7.75671 11.6323 7.68119 11.4818 7.60353L11.4569 7.59067C11.2481 7.498 11.0288 7.4533 10.8102 7.44926C10.4455 7.44169 10.0762 7.55204 9.77783 7.75784C9.80114 7.86254 9.83541 7.96558 9.87963 8.06545C9.56572 8.14776 9.27393 8.30584 9.0314 8.52912L7.68773 9.76618C7.69313 9.41232 7.58642 9.0567 7.38813 8.74896C6.83082 8.87244 6.35819 9.24036 6.11931 9.8171C6.03976 9.98174 5.99497 10.18 5.99497 10.3446C5.96271 10.9109 6.56012 11.2649 7.0005 11.0966C7.00849 11.4099 7.11432 11.7228 7.3219 11.9863L9.16448 14.3252C8.44792 14.6504 7.68669 14.8801 6.90623 15V13.2321C4.11502 12.6767 2 10.1799 2 7.17503C2 3.76209 4.71205 1 8.06333 1C11.4146 1 14.2275 3.80751 13.9877 7.65836C13.98 7.78305 13.9691 7.90679 13.9552 8.02951C13.8427 8.00999 13.7282 8 13.6127 8H12.0617ZM8.90347 3.18931C9.0677 2.98856 9.30267 2.90826 9.5254 2.932C9.89719 2.97114 10.2469 3.27946 10.2222 3.71682C10.2222 3.88171 10.1774 4.09282 10.0976 4.25746C9.859 4.83395 9.38613 5.20186 8.82906 5.3256C8.47074 4.87258 8.39095 4.25468 8.62983 3.67818L8.64179 3.65341C8.71702 3.4975 8.79026 3.34568 8.90347 3.18931ZM4.79848 9.19919C4.08208 9.24035 3.73379 8.378 4.2512 7.92524C4.37065 7.80176 4.52484 7.71162 4.72408 7.6293C4.9331 7.53662 5.15216 7.49218 5.37072 7.48763C5.73345 7.48107 6.08933 7.58864 6.39087 7.79671C6.31133 8.33205 5.9158 8.82344 5.35849 9.07065C5.19915 9.15298 4.99771 9.19919 4.79848 9.19919ZM5.35985 5.08119C5.16086 4.99887 4.99908 4.95241 4.80009 4.95241C4.75987 4.94765 4.72538 4.94961 4.68846 4.9517L4.67575 4.95241C4.04795 4.98574 3.76746 5.80187 4.29001 6.2266C4.44911 6.35009 4.60355 6.44023 4.76289 6.52255C5.31995 6.76951 5.9644 6.68467 6.44192 6.35539C6.32272 5.82006 5.91716 5.32815 5.35985 5.08119ZM7.23953 3.228C7.35242 3.34471 7.4253 3.49593 7.50012 3.65118L7.51317 3.67823C7.75205 4.25473 7.67006 4.87288 7.35138 5.32564C6.79432 5.20191 6.28424 4.834 6.04536 4.2575C5.96557 4.09286 5.92102 3.88176 5.92102 3.71687C5.92102 3.30527 6.26662 3.00629 6.63008 2.97043C6.84816 2.94897 7.0753 3.02725 7.23953 3.228Z" fill="#55A76A"/>
<path fill-rule="evenodd" clip-rule="evenodd" d="M15.8926 11.3674L12.3935 15.8091C12.193 16.0636 11.807 16.0636 11.6065 15.8091L8.10741 11.3674C7.94549 11.1619 7.9691 10.8664 8.1616 10.6892L9.70871 9.26481C9.89367 9.09453 10.1359 9 10.3873 9H13.6127C13.8641 9 14.1063 9.09453 14.2913 9.26481L15.8384 10.6892C16.0309 10.8664 16.0545 11.1619 15.8926 11.3674Z" fill="#FFF7F7"/>
<path fill-rule="evenodd" clip-rule="evenodd" d="M12 14.6898L14.8186 11.1119L13.6127 10.0016L10.3873 10.0016L9.18136 11.1119L12 14.6898ZM15.8926 11.3674L12.3935 15.8091C12.193 16.0636 11.807 16.0636 11.6065 15.8091L8.10741 11.3674C7.94549 11.1619 7.9691 10.8664 8.1616 10.6892L9.70871 9.26481C9.89367 9.09453 10.1359 9 10.3873 9H13.6127C13.8641 9 14.1063 9.09453 14.2913 9.26481L15.8384 10.6892C16.0309 10.8664 16.0545 11.1619 15.8926 11.3674Z" fill="#DB3B4B"/>
</svg>
