<svg width="16" height="16" viewBox="0 0 16 16" fill="none" xmlns="http://www.w3.org/2000/svg">
<g clip-path="url(#clip0_5092_57156)">
<path fill-rule="evenodd" clip-rule="evenodd" d="M15.3798 12.7117C15.5435 12.8691 15.5436 13.131 15.3799 13.2884L12.6774 15.8876C12.4232 16.132 12 15.9519 12 15.5993L12 10.4038C12 10.0513 12.423 9.87118 12.6772 10.1154L15.3798 12.7117Z" fill="#57965C"/>
<path fill-rule="evenodd" clip-rule="evenodd" d="M7.62255 13.2883C7.45909 13.1309 7.45916 12.8692 7.62271 12.7119L10.3216 10.1163C10.5757 9.87185 10.9989 10.0519 10.9989 10.4045V15.5986C10.9989 15.9514 10.5755 16.1314 10.3214 15.8868L7.62255 13.2883Z" fill="#DB5C5C"/>
</g>
<path d="M7.60349 15.478L0.250723 5.82749C0.105786 5.63726 0.11585 5.37103 0.274734 5.19228L3.70287 1.33564C3.89263 1.12215 4.16464 1 4.45027 1H11.5521C11.8378 1 12.1098 1.12215 12.2996 1.33564L15.7277 5.19228C15.8866 5.37103 15.8966 5.63726 15.7517 5.82749L13.1618 9.22672C12.624 8.87231 11.9512 8.95719 11.5005 9.32964C10.9889 8.90752 10.1917 8.85569 9.63035 9.39554L6.93148 11.9912C6.359 12.5417 6.35874 13.4577 6.93092 14.0086L8.42352 15.4457L8.39892 15.478C8.19882 15.7406 7.8036 15.7406 7.60349 15.478Z" fill="#402929"/>
<path fill-rule="evenodd" clip-rule="evenodd" d="M7.60349 15.478L0.250723 5.82749C0.105786 5.63726 0.11585 5.37103 0.274734 5.19228L3.70287 1.33564C3.89263 1.12215 4.16464 1 4.45027 1H11.5521C11.8378 1 12.1098 1.12215 12.2996 1.33564L15.7277 5.19228C15.8866 5.37103 15.8966 5.63726 15.7517 5.82749L13.1618 9.22672C12.8117 8.996 12.4043 8.95145 12.0383 9.05121L14.3631 6H11.3674L10.4159 9.01303C10.1383 9.04873 9.8639 9.17092 9.63035 9.39554L9.07903 9.92576L10.3187 6H5.68321L7.4252 11.5163L6.93148 11.9912C6.81217 12.1059 6.71772 12.2365 6.64812 12.3764L4.63453 6H1.63934L6.5932 12.5019C6.40048 13.0092 6.51303 13.6063 6.93092 14.0086L8.42352 15.4457L8.39892 15.478C8.19882 15.7406 7.8036 15.7406 7.60349 15.478ZM11.5521 2L14.2188 5H11.31L9.80999 2H11.5521ZM7.31 2H8.69196L10.192 5H5.80999L7.31 2ZM4.45027 2H6.19196L4.69196 5H1.7836L4.45027 2Z" fill="#DB5C5C"/>
<defs>
<clipPath id="clip0_5092_57156">
<rect width="9" height="6" fill="white" transform="translate(7 10)"/>
</clipPath>
</defs>
</svg>
