<svg width="16" height="16" viewBox="0 0 16 16" fill="none" xmlns="http://www.w3.org/2000/svg">
<path fill-rule="evenodd" clip-rule="evenodd" d="M13 5C14.1046 5 15 4.10457 15 3C15 1.89543 14.1046 1 13 1C11.8954 1 11 1.89543 11 3C11 3.3709 11.101 3.71823 11.2769 4.01598L7.5 7.79289L5.91421 6.20711C5.13316 5.42606 3.86683 5.42606 3.08579 6.20711L1.14645 8.14645C0.951184 8.34171 0.951184 8.65829 1.14645 8.85355C1.34171 9.04881 1.65829 9.04881 1.85355 8.85355L3 7.70711L4.29289 9L3.14645 10.1464C2.95118 10.3417 2.95118 10.6583 3.14645 10.8536C3.34171 11.0488 3.65829 11.0488 3.85355 10.8536L5 9.70711L6.29289 11L5.14645 12.1464C4.95118 12.3417 4.95118 12.6583 5.14645 12.8536C5.34171 13.0488 5.65829 13.0488 5.85355 12.8536L7 11.7071L8.29289 13L7.14645 14.1464C6.95118 14.3417 6.95118 14.6583 7.14645 14.8536C7.34171 15.0488 7.65829 15.0488 7.85355 14.8536L9 13.7071V12.2929L3.70711 7L3.79289 6.91421C4.18342 6.52369 4.81658 6.52369 5.20711 6.91421L9.08579 10.7929C9.15478 10.8619 9.21158 10.9385 9.2562 11.0199C9.42621 10.7181 9.67232 10.4648 9.96851 10.2862C9.91517 10.2165 9.85663 10.1495 9.79289 10.0858L8.20711 8.5L11.984 4.72309C12.2818 4.89903 12.6291 5 13 5ZM13 4C13.5523 4 14 3.55228 14 3C14 2.44772 13.5523 2 13 2C12.4477 2 12 2.44772 12 3C12 3.55228 12.4477 4 13 4Z" fill="#DB3B4B"/>
<rect x="11" y="12" width="4" height="3" fill="#EBECF0"/>
<path fill-rule="evenodd" clip-rule="evenodd" d="M15 11V10C15 8.89543 14.1046 8 13 8C11.8954 8 11 8.89543 11 10V11C10.4477 11 10 11.4477 10 12V15C10 15.5523 10.4477 16 11 16H15C15.5523 16 16 15.5523 16 15V12C16 11.4477 15.5523 11 15 11ZM12 10C12 9.44772 12.4477 9 13 9C13.5523 9 14 9.44772 14 10V11H12V10ZM11 15L11 12H15V15H11Z" fill="#6C707E"/>
</svg>
