<svg width="16" height="16" viewBox="0 0 16 16" fill="none" xmlns="http://www.w3.org/2000/svg">
<circle cx="8" cy="8" r="7" fill="#45322B"/>
<path d="M9.76895 5.38506V6.35862H9.73918C9.39401 5.69 8.75515 5.3046 7.91033 5.3046C6.42182 5.3046 5.30343 6.47931 5.30343 8.04023C5.30343 9.60115 6.42182 10.7759 7.91033 10.7759C8.8501 10.7759 9.62734 10.339 10.0417 9.65425C10.481 10.3357 11.2993 10.7517 12.3276 10.7517C13.9609 10.7517 15.0391 9.60115 15.0391 7.91954C15.0391 4.11379 11.8931 1 8.03906 1C4.18504 1 1.03906 4.18621 1.03906 8.08046C1.03906 11.8862 4.18504 15 8.03906 15C9.88964 15 11.5552 14.2356 12.4724 13.4069L11.7483 12.6103C10.9356 13.3345 9.63217 13.9943 8.03906 13.9943C4.74021 13.9943 2.04481 11.331 2.04481 8.08046C2.04481 4.74138 4.74021 2.00575 8.03906 2.00575C11.3379 2.00575 14.0333 4.66897 14.0333 7.91954C14.0333 9.02989 13.3655 9.78621 12.3276 9.78621C11.3862 9.78621 10.6942 9.1908 10.6942 8.32184V5.38506H9.76895ZM7.99883 9.8908C7.03332 9.8908 6.30918 9.09425 6.30918 8.04023C6.30918 6.98621 7.03332 6.18966 7.99883 6.18966C8.96435 6.18966 9.68849 6.98621 9.68849 8.04023C9.68849 9.09425 8.96435 9.8908 7.99883 9.8908Z" fill="#C77D55"/>
</svg>
