<svg width="16" height="16" viewBox="0 0 16 16" fill="none" xmlns="http://www.w3.org/2000/svg">
<path d="M0.930176 11.768H1.15418C1.44818 11.768 1.67918 11.6653 1.84718 11.46C2.01984 11.25 2.10618 10.9677 2.10618 10.613V3.20001H3.38018V10.613C3.38018 11.0983 3.29151 11.5207 3.11418 11.88C2.94151 12.2393 2.69184 12.517 2.36518 12.713C2.04318 12.9043 1.66284 13 1.22418 13H0.930176V11.768Z" fill="#3574F0"/>
<path d="M4.21635 3.20001H5.53235L6.40735 10.13L6.43535 11.061H6.58935L6.62435 10.13L7.53435 3.20001H8.80835L7.27535 13H5.72135L4.21635 3.20001Z" fill="#3574F0"/>
<path d="M9.64353 3.20001H11.5265L12.3035 9.43001L12.3315 10.361H12.4855L12.5065 9.43001L13.2205 3.20001H15.1315V13H13.9695V5.45401L14.0535 4.52301L13.8995 4.50901L13.8575 5.44701L12.8985 13H11.8975L10.9175 5.48901L10.8755 4.55101L10.7215 4.56501L10.8055 5.49601V13H9.64353V3.20001Z" fill="#3574F0"/>
</svg>
