<svg width="7" height="7" viewBox="0 0 7 7" fill="none" xmlns="http://www.w3.org/2000/svg">
<path d="M1 1H5.64446L3.67479 2.96967C3.38189 3.26256 3.38189 3.73744 3.67479 4.03033L5.64446 6H1V1Z" fill="#2F2936"/>
<path fill-rule="evenodd" clip-rule="evenodd" d="M0 1C0 0.447715 0.447715 0 1 0H6.24801C6.91619 0 7.25081 0.807857 6.77834 1.28033L4.55867 3.5L6.77834 5.71967C7.25081 6.19214 6.91619 7 6.24801 7H1C0.447715 7 0 6.55228 0 6V1ZM5.64446 1L1 1V6H5.64446L3.67479 4.03033C3.38189 3.73744 3.38189 3.26256 3.67479 2.96967L5.64446 1Z" fill="#A571E6"/>
</svg>
