<svg width="16" height="16" viewBox="0 0 16 16" fill="none" xmlns="http://www.w3.org/2000/svg">
<path d="M11.0346 1.00006C11.8358 1.00006 12.4839 1.10946 12.9763 1.32882C13.4686 1.54762 13.7144 1.82059 13.7144 2.14946C13.7144 2.55061 13.6133 3.00608 13.4133 3.51644C13.2125 4.02679 13.021 4.44577 12.8389 4.77393C12.7657 4.8472 12.6751 4.85597 12.5657 4.80166C12.4563 4.74649 12.4013 4.64691 12.4013 4.50065C12.511 4.24632 12.5657 3.88138 12.5657 3.40667C12.5657 2.8966 12.429 2.47678 12.1555 2.14918C11.8822 1.82084 11.5079 1.65701 11.0346 1.65701C10.4141 1.65701 9.91353 1.8482 9.53062 2.23122C9.14797 2.6137 8.95653 3.15234 8.95653 3.84375C8.95653 4.42766 9.11096 4.98384 9.42122 5.51174C9.7413 6.05745 10.088 6.58676 10.4603 7.09825C10.8515 7.64 11.2076 8.20637 11.5267 8.79367C11.8549 9.3954 12.019 10.0789 12.019 10.8444C12.019 12.1565 11.4902 13.1772 10.4332 13.906C9.37562 14.6361 7.99014 15 6.27726 15C5.03761 15 4.0624 14.7997 3.35155 14.3985C2.64014 13.9979 2.28516 13.5611 2.28516 13.0864C2.28516 12.9413 2.33956 12.7401 2.44898 12.4847C2.55838 12.2301 2.70368 11.9571 2.88686 11.664C3.07504 11.3641 3.27579 11.0722 3.48859 10.789C3.7071 10.4976 3.94361 10.2611 4.19915 10.0789C4.30855 10.0056 4.40884 10.0234 4.50027 10.1329C4.59088 10.2424 4.60028 10.3519 4.52791 10.4611C4.30883 10.6795 4.14526 10.9078 4.03532 11.1449C3.92593 11.3816 3.87121 11.7013 3.87121 12.1016C3.87121 12.7577 4.09001 13.2963 4.52791 13.7142C4.96525 14.1343 5.52995 14.3436 6.22283 14.3436C7.17043 14.3436 7.90863 14.0794 8.43769 13.5507C8.96592 13.0228 9.23057 12.3749 9.23057 11.6091C9.23057 10.9168 9.07532 10.2696 8.76563 9.66812C8.45667 9.06865 8.11914 8.48474 7.7542 7.91781C7.39223 7.35823 7.05458 6.78338 6.7422 6.19466C6.43497 5.62348 6.27522 4.98413 6.27754 4.33544C6.27754 3.38828 6.67813 2.59503 7.48069 1.95734C8.28158 1.32081 9.46651 1.00006 11.0346 1.00006Z" fill="#9CB700"/>
</svg>
