<svg width="16" height="16" viewBox="0 0 16 16" fill="none" xmlns="http://www.w3.org/2000/svg">
<path d="M5.49994 13C5.49994 13.5523 5.05223 14 4.49994 14C3.94765 14 3.49994 13.5523 3.49994 13C3.49994 12.4477 3.94765 12 4.49994 12C5.05223 12 5.49994 12.4477 5.49994 13Z" fill="#CED0D6"/>
<path fill-rule="evenodd" clip-rule="evenodd" d="M8.74539 12.5716C8.91804 12.8348 8.91804 13.1652 8.74539 13.4284C8.20158 14.2573 6.78643 16 4.49994 16C2.21345 16 0.798302 14.2573 0.25449 13.4284C0.0818369 13.1652 0.0818367 12.8348 0.254489 12.5716C0.798302 11.7427 2.21345 10 4.49994 10C6.78643 10 8.20158 11.7427 8.74539 12.5716ZM6.49994 13C6.49994 14.1046 5.60451 15 4.49994 15C3.39537 15 2.49994 14.1046 2.49994 13C2.49994 11.8954 3.39537 11 4.49994 11C5.60451 11 6.49994 11.8954 6.49994 13Z" fill="#CED0D6"/>
<path d="M8.82478 14.9519C12.3021 14.5438 15 11.587 15 8C15 4.13401 11.866 1 8 1C4.13401 1 1 4.13401 1 8C1 8.7108 1.10594 9.39685 1.3029 10.0432C2.1245 9.46087 3.18841 9 4.5 9C7.32497 9 9.00091 11.138 9.58158 12.0231C9.97273 12.6193 9.97273 13.3807 9.58158 13.9769C9.41735 14.2273 9.16548 14.5778 8.82478 14.9519Z" fill="#2F2936"/>
<path d="M2.19404 9.51934C2.06741 9.03409 2 8.52492 2 8C2 4.68629 4.68629 2 8 2C11.3137 2 14 4.68629 14 8C14 10.7209 12.1888 13.0188 9.70635 13.7539C9.67048 13.8303 9.6289 13.9048 9.58158 13.9769C9.41735 14.2273 9.16548 14.5778 8.82478 14.9519C12.3021 14.5438 15 11.587 15 8C15 4.13401 11.866 1 8 1C4.13401 1 1 4.13401 1 8C1 8.7108 1.10594 9.39685 1.3029 10.0432C1.57358 9.85137 1.87056 9.67269 2.19404 9.51934Z" fill="#A571E6"/>
<path fill-rule="evenodd" clip-rule="evenodd" d="M6.68167 5.99832C7.06238 5.37098 7.72605 5 8.56983 5C10.0282 5 11.0464 6.1155 11.0464 7.74269C11.0464 9.36988 10.0282 10.4854 8.56983 10.4854C8.45282 10.4854 8.33928 10.4782 8.22947 10.4643C7.58584 9.90129 6.74376 9.37346 5.69922 9.13427V5.12281H6.68167V5.99832ZM6.70214 7.74269C6.70214 8.8326 7.3827 9.5848 8.36004 9.5848C9.33226 9.5848 10.0026 8.8326 10.0026 7.74269C10.0026 6.65278 9.33226 5.90058 8.36004 5.90058C7.3827 5.90058 6.70214 6.65278 6.70214 7.74269Z" fill="#A571E6"/>
</svg>
