<svg width="16" height="16" viewBox="0 0 16 16" fill="none" xmlns="http://www.w3.org/2000/svg">
<path d="M5.5 13C5.5 13.5523 5.05229 14 4.5 14C3.94772 14 3.5 13.5523 3.5 13C3.5 12.4477 3.94772 12 4.5 12C5.05229 12 5.5 12.4477 5.5 13Z" fill="#6C707E"/>
<path fill-rule="evenodd" clip-rule="evenodd" d="M8.74545 12.5716C8.9181 12.8348 8.9181 13.1652 8.74545 13.4284C8.20164 14.2573 6.78649 16 4.5 16C2.21351 16 0.798362 14.2573 0.25455 13.4284C0.0818972 13.1652 0.081897 12.8348 0.25455 12.5716C0.798362 11.7427 2.21351 10 4.5 10C6.78649 10 8.20164 11.7427 8.74545 12.5716ZM6.5 13C6.5 14.1046 5.60457 15 4.5 15C3.39543 15 2.5 14.1046 2.5 13C2.5 11.8954 3.39543 11 4.5 11C5.60457 11 6.5 11.8954 6.5 13Z" fill="#6C707E"/>
</svg>
