<svg width="16" height="16" viewBox="0 0 16 16" fill="none" xmlns="http://www.w3.org/2000/svg">
<rect x="2" y="14" width="12" height="1" rx="0.5" fill="#CED0D6"/>
<path fill-rule="evenodd" clip-rule="evenodd" d="M12.3536 5.85329C12.5488 6.04856 12.5488 6.36514 12.3536 6.5604C12.1583 6.75566 11.8417 6.75566 11.6464 6.5604L8.5 3.41395L8.5 11.5068C8.5 11.783 8.27614 12.0068 8 12.0068C7.72386 12.0068 7.5 11.783 7.5 11.5068L7.5 3.41395L4.35355 6.5604C4.15829 6.75566 3.84171 6.75566 3.64645 6.5604C3.45118 6.36514 3.45118 6.04856 3.64645 5.8533L7.64645 1.8533L8 1.49974L8.35355 1.8533L12.3536 5.85329Z" fill="#CED0D6"/>
</svg>
