<svg width="16" height="16" viewBox="0 0 16 16" fill="none" xmlns="http://www.w3.org/2000/svg">
<path fill-rule="evenodd" clip-rule="evenodd" d="M7.11086 1.60685C7.5014 1.65529 7.81518 1.95183 7.88558 2.33901L9.37103 10.509L10.6808 7.62759C10.8268 7.30629 11.1472 7.10001 11.5001 7.10001H14.5001C14.9972 7.10001 15.4001 7.50295 15.4001 8.00001C15.4001 8.49707 14.9972 8.90001 14.5001 8.90001H12.0796L9.81943 13.8724C9.65658 14.2307 9.27987 14.4416 8.88933 14.3932C8.49879 14.3447 8.18501 14.0482 8.11461 13.661L6.62916 5.49102L5.31943 8.37243C5.17338 8.69373 4.85303 8.90001 4.5001 8.90001H1.5001C1.00304 8.90001 0.600098 8.49707 0.600098 8.00001C0.600098 7.50295 1.00304 7.10001 1.5001 7.10001H3.92058L6.18077 2.12759C6.34361 1.76933 6.72033 1.55842 7.11086 1.60685Z" fill="#A571E6"/>
</svg>
