<svg width="16" height="16" viewBox="0 0 16 16" fill="none" xmlns="http://www.w3.org/2000/svg">
<path fill-rule="evenodd" clip-rule="evenodd" d="M13.1368 11.8636C13.4883 12.2151 13.4883 12.7849 13.1368 13.1364C12.7853 13.4879 12.2155 13.4879 11.864 13.1364L8 9.2724L4.13601 13.1364C3.78453 13.4879 3.21468 13.4879 2.86321 13.1364C2.51174 12.7849 2.51174 12.2151 2.86321 11.8636L6.72721 7.99961L2.864 4.1364C2.51252 3.78493 2.51252 3.21508 2.864 2.86361C3.21547 2.51214 3.78532 2.51214 4.13679 2.86361L8 6.72682L11.8632 2.86361C12.2147 2.51214 12.7845 2.51214 13.136 2.86361C13.4875 3.21508 13.4875 3.78493 13.136 4.1364L9.27279 7.99961L13.1368 11.8636Z" fill="#CED0D6"/>
</svg>
