<svg width="16" height="16" viewBox="0 0 16 16" fill="none" xmlns="http://www.w3.org/2000/svg">
<rect x="2" y="14" width="12" height="1" rx="0.5" fill="#CED0D6"/>
<path fill-rule="evenodd" clip-rule="evenodd" d="M13.9825 4.2266C13.9815 3.95046 13.757 3.72734 13.4808 3.72825C13.2047 3.72915 12.9816 3.95375 12.9825 4.22989L12.9959 8.30879L7.83597 3.62961L7.48324 3.30974L7.14654 3.64645L2.14655 8.64644C1.95129 8.84171 1.95129 9.15829 2.14655 9.35355C2.34181 9.54881 2.6584 9.54881 2.85366 9.35355L7.51694 4.69025L12.2419 8.97498L8.25544 8.98809C7.9793 8.98899 7.75618 9.21359 7.75709 9.48973C7.758 9.76587 7.98259 9.98899 8.25873 9.98808L13.5013 9.97085L14.0013 9.9692L13.9997 9.4692L13.9825 4.2266Z" fill="#CED0D6"/>
</svg>
