<svg width="16" height="16" viewBox="0 0 16 16" fill="none" xmlns="http://www.w3.org/2000/svg">
<path d="M6.67099 10.5795V10.4318C6.67478 9.7462 6.73917 9.20074 6.86417 8.79544C6.99296 8.39014 7.17478 8.06438 7.40962 7.81817C7.64447 7.56817 7.93046 7.339 8.26758 7.13067C8.49864 6.98673 8.70508 6.82953 8.8869 6.65907C9.0725 6.48483 9.21834 6.29165 9.3244 6.07953C9.43046 5.86362 9.48349 5.62309 9.48349 5.35794C9.48349 5.0587 9.41341 4.79923 9.27326 4.57953C9.13311 4.35983 8.94372 4.18938 8.70508 4.06817C8.47023 3.94695 8.20697 3.88635 7.91531 3.88635C7.64637 3.88635 7.39068 3.94506 7.14826 4.06248C6.90962 4.17612 6.71076 4.35036 6.55167 4.58521C6.39637 4.81627 6.30924 5.10983 6.29031 5.46589H4.26758C4.28652 4.7462 4.46076 4.14392 4.79031 3.65907C5.12364 3.17423 5.56303 2.81059 6.10849 2.56816C6.65773 2.32574 7.26379 2.20453 7.92667 2.20453C8.65015 2.20453 9.28652 2.33142 9.83576 2.58521C10.3888 2.839 10.8187 3.20074 11.1255 3.67044C11.4361 4.13635 11.5914 4.68938 11.5914 5.32953C11.5914 5.76135 11.5214 6.14771 11.3812 6.48862C11.2449 6.82953 11.0498 7.13256 10.796 7.39771C10.5422 7.66286 10.2411 7.8996 9.89258 8.10794C9.58576 8.29733 9.33387 8.4943 9.1369 8.69885C8.94372 8.90339 8.79978 9.14392 8.70508 9.42044C8.61417 9.69317 8.56682 10.0303 8.56303 10.4318V10.5795H6.67099ZM7.65962 14.125C7.31871 14.125 7.02515 14.0038 6.77894 13.7613C6.53273 13.5189 6.40962 13.2235 6.40962 12.875C6.40962 12.5341 6.53273 12.2424 6.77894 12C7.02515 11.7576 7.31871 11.6363 7.65962 11.6363C7.99674 11.6363 8.28841 11.7576 8.53462 12C8.78462 12.2424 8.90962 12.5341 8.90962 12.875C8.90962 13.106 8.85091 13.3163 8.73349 13.5057C8.61985 13.6951 8.46834 13.8466 8.27894 13.9602C8.09334 14.0701 7.8869 14.125 7.65962 14.125Z" fill="#818594"/>
</svg>
