<svg width="16" height="16" viewBox="0 0 16 16" fill="none" xmlns="http://www.w3.org/2000/svg">
<path d="M4.5157 13C3.68489 13 2.9329 12.7966 2.25972 12.3898C1.58655 11.9786 1.05824 11.416 0.674788 10.7019C0.291335 9.98785 0.0996094 9.18721 0.0996094 8.30001C0.0996094 7.4128 0.291335 6.61216 0.674788 5.89807C1.05824 5.18398 1.58655 4.62353 2.25972 4.21672C2.9329 3.80558 3.68489 3.60001 4.5157 3.60001C5.20165 3.60001 5.84287 3.73633 6.43935 4.00898C7.03583 4.27731 7.5258 4.64734 7.90925 5.11907C8.29271 5.5908 8.52065 6.11446 8.59308 6.69006H7.3149C7.22543 6.33951 7.04223 6.01925 6.76529 5.72929C6.49261 5.43932 6.15816 5.21211 5.76192 5.04766C5.36569 4.8832 4.95028 4.80097 4.5157 4.80097C3.92774 4.80097 3.39943 4.95028 2.93077 5.2489C2.4621 5.54752 2.09356 5.96299 1.82514 6.49531C1.56099 7.02763 1.42891 7.6292 1.42891 8.30001C1.42891 8.97082 1.56099 9.57238 1.82514 10.1047C2.09356 10.637 2.4621 11.0525 2.93077 11.3511C3.39943 11.6497 3.92774 11.799 4.5157 11.799C4.95028 11.799 5.36569 11.7168 5.76192 11.5524C6.15816 11.3879 6.49261 11.1629 6.76529 10.8772C7.04223 10.5873 7.22543 10.267 7.3149 9.91644H8.59308C8.52065 10.492 8.29271 11.0157 7.90925 11.4874C7.5258 11.9548 7.03583 12.3249 6.43935 12.5975C5.84287 12.8658 5.20165 13 4.5157 13Z" fill="#6C707E"/>
<path d="M12.8 13C12.1695 13 11.6007 12.8485 11.0937 12.5456C10.5867 12.2426 10.1883 11.8272 9.89858 11.2992C9.60886 10.7669 9.464 10.1739 9.464 9.52045C9.464 8.86695 9.60886 8.2762 9.89858 7.74821C10.1883 7.21589 10.5867 6.79826 11.0937 6.49531C11.6007 6.19236 12.1695 6.04089 12.8 6.04089C13.3326 6.04089 13.8162 6.13394 14.2508 6.32003C14.6896 6.50613 15.0496 6.77662 15.3308 7.1315C15.6163 7.48638 15.8059 7.90834 15.8996 8.39738H14.647C14.5618 8.13771 14.4254 7.91699 14.238 7.73523C14.0548 7.55346 13.8375 7.41713 13.5861 7.32625C13.339 7.23104 13.077 7.18343 12.8 7.18343C12.4123 7.18343 12.063 7.28297 11.7519 7.48205C11.4409 7.68113 11.1981 7.95811 11.0234 8.31299C10.853 8.66787 10.7677 9.07036 10.7677 9.52045C10.7677 9.96621 10.853 10.3665 11.0234 10.7214C11.1981 11.0763 11.4409 11.3554 11.7519 11.5588C12.063 11.7579 12.4123 11.8575 12.8 11.8575C13.077 11.8575 13.339 11.812 13.5861 11.7211C13.8375 11.6259 14.0548 11.4874 14.238 11.3057C14.4254 11.1239 14.5618 10.9032 14.647 10.6435H15.8996C15.8101 11.1196 15.6184 11.535 15.3244 11.8899C15.0347 12.2448 14.6704 12.5196 14.2316 12.7144C13.797 12.9048 13.3198 13 12.8 13Z" fill="#6C707E"/>
</svg>
