<svg width="16" height="16" viewBox="0 0 16 16" fill="none" xmlns="http://www.w3.org/2000/svg">
<path d="M11 12C10.7239 12 10.5 12.2239 10.5 12.5C10.5 12.7761 10.7239 13 11 13V12ZM12 13C12.2761 13 12.5 12.7761 12.5 12.5C12.5 12.2239 12.2761 12 12 12V13ZM7 12H3V13H7V12ZM3 2H10V1H3V2ZM11 3V4H12V3H11ZM2 11V9.5H1V11H2ZM2 9.5V3H1V9.5H2ZM1.5 10H7V9H1.5V10ZM10 6H13V5H10V6ZM13 14H10V15H13V14ZM9 13V11.5H8V13H9ZM9 11.5V7H8V11.5H9ZM14 7V11.5H15V7H14ZM14 11.5V13H15V11.5H14ZM11 13H12V12H11V13ZM13 15C14.1046 15 15 14.1046 15 13H14C14 13.5523 13.5523 14 13 14V15ZM13 6C13.5523 6 14 6.44772 14 7H15C15 5.89543 14.1046 5 13 5V6ZM10 5C8.89543 5 8 5.89543 8 7H9C9 6.44772 9.44772 6 10 6V5ZM10 2C10.5523 2 11 2.44772 11 3H12C12 1.89543 11.1046 1 10 1V2ZM10 14C9.44772 14 9 13.5523 9 13H8C8 14.1046 8.89543 15 10 15V14ZM3 1C1.89543 1 1 1.89543 1 3H2C2 2.44772 2.44772 2 3 2V1ZM3 12C2.44772 12 2 11.5523 2 11H1C1 12.1046 1.89543 13 3 13V12Z" fill="#6C707E"/>
</svg>
