<svg width="16" height="16" viewBox="0 0 16 16" fill="none" xmlns="http://www.w3.org/2000/svg">
<path d="M7.31798 9.20299C13.0715 4.62013 14.9715 6.78278 14.9715 6.78278C15.0111 6.89023 14.944 7.01325 14.944 7.01325L14.9415 7.01161C14.829 7.36915 13.9563 7.84937 12.6007 7.90304C11.4409 7.94896 10.4374 8.06908 9.79181 8.1633C8.91962 8.70329 8.09559 9.30269 7.42521 9.80298C7.38039 9.83642 7.28293 9.9216 7.14459 10.0425C6.46493 10.6365 4.79845 12.093 3.53779 12.5146C2.55959 12.8418 1.73892 12.9045 1.30907 12.3444C1.18852 12.2084 1.09374 12.0231 1.05387 11.7695C0.781558 10.0385 3.16872 9.0008 3.16872 9.0008C3.16872 9.0008 3.33715 9.97596 3.45467 10.132C4.84462 10.0358 6.62949 9.44638 7.31798 9.20299Z" fill="#6C707E"/>
<path d="M3.17373 8.85632C3.17373 8.85632 2.24809 5.43511 4.52149 4.13305C5.2806 3.69823 6.75583 3.22377 7.48972 3.12646C8.2237 3.02908 9.95251 2.72137 10.8415 4.18754C11.1664 4.72324 11.589 5.67112 11.6782 6.01428C10.7495 7.02699 4.20315 8.79106 3.17373 8.85632Z" fill="#6C707E"/>
</svg>
