<svg width="16" height="16" viewBox="0 0 16 16" fill="none" xmlns="http://www.w3.org/2000/svg">
<path d="M11.5827 12.0891C11.5827 12.0891 13.5651 10.1485 12.3174 7.98614C11.8828 7.23294 11.4351 6.75732 10.9933 6.28803C10.4734 5.73583 9.96185 5.1924 9.48967 4.21584C8.672 2.52475 9.57284 1 9.57284 1C9.57284 1 6.28806 2.19208 6.38492 4.52079C6.46022 6.33119 7.95201 7.44025 9.24382 8.40062C9.65443 8.70589 10.0448 8.99614 10.3631 9.28911C11.5829 10.4119 11.5827 12.0891 11.5827 12.0891Z" fill="#ED1C24"/>
<path d="M10.2803 10.301C11.6386 12.2277 10.1139 14.5564 10.1139 14.5564C10.1139 14.5564 9.94725 13.3089 8.18686 12.0614C7.54708 11.608 6.92561 11.2378 6.3517 10.8958C4.71478 9.92061 3.46475 9.17588 3.28027 7.3901C3.07476 5.40073 5.88621 3.68911 5.88621 3.68911C5.88621 3.68911 5.06541 4.88303 5.997 6.33663C6.92474 7.78422 7.86691 8.39753 8.69471 8.93638C9.30163 9.33145 9.84707 9.6865 10.2803 10.301Z" fill="#ED1C24"/>
<path d="M8.06167 12.7267C9.64938 13.6347 9.79434 15 9.79434 15C9.79434 15 9.16865 14.4034 8.01359 14.1198C7.26336 13.9356 6.6929 13.8745 6.21016 13.8228C5.45759 13.7421 4.91822 13.6843 4.24329 13.2188C2.52506 12.0337 3.9587 10.1208 3.9587 10.1208C3.9587 10.1208 4.05385 10.8027 4.73537 11.2713C5.52231 11.8123 6.05526 11.9704 6.59692 12.1311C7.03362 12.2606 7.47598 12.3918 8.06167 12.7267Z" fill="#ED1C24"/>
</svg>
