<svg width="16" height="16" viewBox="0 0 16 16" fill="none" xmlns="http://www.w3.org/2000/svg">
<path fill-rule="evenodd" clip-rule="evenodd" d="M2.77811 8.56208C1.80015 10.2569 1 11.6459 1 11.6487C1 11.6516 1.72316 11.653 2.60701 11.6519L4.21403 11.6499L8.67408 2.08389C8.69616 2.03634 8.71115 1.99861 8.7074 2.00004C8.70365 2.00147 7.7681 2.78518 6.6284 3.74162L4.55622 5.48059L2.77811 8.56208ZM10.7781 11.6804C10.761 11.684 9.27542 11.947 7.47675 12.2647L4.20643 12.8424L15 12.8438L14.9779 12.8051L12.0688 7.76272C10.3728 4.82316 9.17947 2.76299 9.17617 2.76873C9.16632 2.78591 7.41286 7.61456 7.41286 7.62453C7.41286 7.62979 8.17701 8.54304 9.11098 9.65397L10.8091 11.6738L10.7781 11.6804Z" fill="#529FDB"/>
</svg>
