<svg width="16" height="16" viewBox="0 0 16 16" fill="none" xmlns="http://www.w3.org/2000/svg">
<g opacity="0.8">
<path d="M3.27863 6.69756C2.91286 7.09196 2.71722 7.52859 2.7424 7.97714C2.78591 8.77554 3.51893 9.44478 4.63931 9.85344C4.92404 9.93544 5.21093 10.0102 5.50135 10.0724C5.69106 10.1129 5.88192 10.1456 6.07278 10.1726C6.25367 10.1991 6.43538 10.2176 6.6179 10.2363L6.72078 10.2468C7.02021 10.2761 7.31963 10.2727 7.62021 10.2626C7.80033 10.257 7.97933 10.2382 8.15944 10.2192L8.16421 10.2187C8.83849 10.1501 9.49906 9.99932 10.1391 9.7552C10.6213 9.57182 11.0796 9.3322 11.5048 9.0217C11.8579 8.7652 12.1733 8.4637 12.4488 8.11045C12.6277 7.88002 12.7834 7.63214 12.9158 7.36788C12.9155 7.34936 12.9149 7.33082 12.9138 7.31226C12.897 7.00783 12.78 6.72218 12.5795 6.46259C12.5189 6.42809 12.4582 6.39382 12.3972 6.36005C11.7046 5.97868 10.9869 5.67493 10.2246 5.50955C9.9343 5.44655 9.63944 5.40268 9.34573 5.36218C9.13773 5.33405 8.92858 5.31605 8.71944 5.30705C8.40516 5.29468 8.09087 5.28905 7.77658 5.29018C7.5823 5.2913 7.38801 5.3048 7.19487 5.32505C6.92287 5.35205 6.65087 5.38243 6.38001 5.42518C5.79944 5.51968 5.22801 5.6648 4.69201 5.92918C4.31601 6.1148 3.9423 6.31055 3.57773 6.51643C3.47634 6.57381 3.37676 6.63441 3.27863 6.69756Z" fill="#BBE6FB"/>
<path d="M12.4693 8.48721C12.4737 8.47586 12.4815 8.46625 12.4931 8.45834C12.4852 8.46799 12.4773 8.47761 12.4693 8.48721Z" fill="#BBE6FB"/>
</g>
<g opacity="0.8">
<path d="M4.31266 6.12074C4.27689 6.33786 4.25901 6.5458 4.26087 6.66776C4.2963 8.64889 5.80373 10.0495 7.62887 10.0495C9.45402 10.0495 10.8963 8.45089 10.862 6.46751C10.8583 6.23363 10.8283 5.92834 10.7188 5.63717C10.5562 5.58844 10.3918 5.54569 10.2252 5.50955C9.93491 5.44655 9.64005 5.40268 9.34634 5.36218C9.13834 5.33405 8.92919 5.31605 8.72005 5.30705C8.40577 5.29468 8.09148 5.28905 7.77719 5.29018C7.58291 5.2913 7.38862 5.3048 7.19548 5.32505C6.92348 5.35205 6.65148 5.38243 6.38062 5.42518C5.80005 5.51968 5.22862 5.6648 4.69262 5.92918C4.56562 5.99188 4.43888 6.05573 4.31266 6.12074Z" fill="#D3EFFC"/>
</g>
<path d="M5.15852 5.73067C4.96999 5.83539 4.86373 6.37978 4.86831 6.62838C4.89802 8.19775 6.12773 9.47013 7.61573 9.47013C9.10602 9.47013 10.2832 8.083 10.2546 6.51363C10.2484 6.15385 10.1619 5.67986 9.67482 5.40971C9.56528 5.39285 9.45561 5.37728 9.34609 5.36218C9.13809 5.33405 8.92895 5.31605 8.71981 5.30705C8.40552 5.29468 8.09124 5.28905 7.77695 5.29018C7.58266 5.2913 7.38838 5.3048 7.19524 5.32505C6.92324 5.35205 6.65124 5.38243 6.38038 5.42518C5.96521 5.49276 5.55472 5.58622 5.15852 5.73067Z" fill="#1287B1"/>
<path fill-rule="evenodd" clip-rule="evenodd" d="M8.31105 6.87003L8.62182 6.29018L8.62274 6.96226L9.11533 6.55499L8.87878 7.17594L9.47804 7.00427L9.04019 7.48094L9.65337 7.57134L9.08286 7.82885L9.61626 8.16763L8.99844 8.16854L9.37321 8.70274L8.80085 8.44706L8.95855 9.09631L8.5207 8.62147L8.43721 9.28716L8.19973 8.66713L7.88804 9.2479L7.88712 8.57581L7.39546 8.98217L7.63108 8.36122L7.03275 8.53198L7.46967 8.05714L6.85742 7.96582L7.42793 7.70831L6.8936 7.37044L7.51234 7.36953L7.13757 6.83442L7.70993 7.09102L7.55223 6.44085L7.98916 6.91569L8.07265 6.25L8.31105 6.87003Z" fill="white"/>
<path d="M13.3335 6.04413C13.8775 5.55588 14.2272 4.9315 14.4901 4.23963L14.4875 4.24205C14.485 4.2443 14.4827 4.2464 14.481 4.24975C14.4384 4.31314 14.3964 4.37712 14.3542 4.44116C14.2798 4.5544 14.2052 4.66783 14.1278 4.7785C13.897 5.107 13.6524 5.42087 13.3587 5.68412C13.2558 5.77525 13.1461 5.85738 13.0215 5.91138C12.9872 5.92648 12.9515 5.93598 12.916 5.9454C12.9066 5.9479 12.8972 5.9504 12.8878 5.953C12.8859 5.95111 12.8848 5.94765 12.8838 5.94459L12.8832 5.94288C13.113 5.71788 13.3084 5.4625 13.4764 5.18237C13.6444 4.90337 13.7838 4.60862 13.897 4.28575C13.8911 4.29339 13.8875 4.29779 13.885 4.30078C13.8832 4.30307 13.881 4.306 13.881 4.306C13.6558 4.64125 13.4158 4.963 13.1312 5.24312C12.9952 5.37587 12.8535 5.49625 12.6901 5.58625C12.6124 5.62787 12.5324 5.66275 12.4364 5.67288C12.4429 5.66646 12.4467 5.6623 12.4494 5.65925C12.451 5.6575 12.4535 5.65488 12.4535 5.65488C12.6192 5.4895 12.7781 5.31512 12.921 5.125C13.0661 4.9315 13.193 4.72787 13.2775 4.49387C13.2923 4.45423 13.3042 4.41284 13.316 4.37138C13.3206 4.35519 13.3253 4.33899 13.3301 4.32287C13.313 4.3285 13.3038 4.3375 13.2958 4.34762C13.0798 4.64462 12.8467 4.92588 12.5941 5.19025C12.4501 5.341 12.2992 5.48162 12.129 5.5975C12.033 5.66387 11.9324 5.71788 11.8181 5.73812C11.7621 5.74825 11.7095 5.74262 11.657 5.71C11.8421 5.48612 12.0078 5.25213 12.161 5.008C12.313 4.76388 12.4535 4.513 12.5735 4.24975C12.5644 4.25425 12.5598 4.25875 12.5541 4.26438C12.5089 4.32421 12.4641 4.38418 12.4194 4.44405C12.3364 4.55528 12.2536 4.66615 12.169 4.77513C12.0272 4.95625 11.8764 5.12725 11.705 5.27575C11.6352 5.3365 11.561 5.39275 11.473 5.41975C11.417 5.4355 11.3632 5.42537 11.3232 5.38262C11.2925 5.3488 11.3054 5.31145 11.3178 5.27559C11.321 5.26613 11.3243 5.25678 11.3267 5.24762C11.329 5.23863 11.3335 5.22962 11.3381 5.22175C11.3546 5.19187 11.3709 5.162 11.3873 5.13215C11.4288 5.05634 11.4703 4.98069 11.513 4.90562C11.5356 4.86602 11.5613 4.82883 11.5896 4.78784C11.5999 4.77295 11.6106 4.75756 11.6215 4.74138C11.5934 4.76446 11.5663 4.78707 11.5398 4.80919C11.4746 4.8636 11.4129 4.91501 11.3495 4.963C11.2455 5.04175 11.1392 5.11825 11.0147 5.15538C10.969 5.16887 10.9232 5.1745 10.8832 5.14637C11.1891 4.85641 11.3954 4.49023 11.6015 4.12443C11.6249 4.08291 11.6483 4.0414 11.6718 4C11.6189 4.0576 11.5674 4.1167 11.5163 4.17546C11.5045 4.189 11.4927 4.20252 11.481 4.216C11.2741 4.45562 11.0604 4.68963 10.8215 4.89325C10.7324 4.96863 10.641 5.044 10.5278 5.07438C10.5095 5.07964 10.4891 5.07837 10.4663 5.07695C10.455 5.07624 10.4432 5.0755 10.4307 5.0755C10.4972 4.92818 10.5626 4.78404 10.6274 4.64141C10.6961 4.48995 10.7641 4.34018 10.8318 4.19013C10.7987 4.23385 10.7672 4.2784 10.7357 4.32281C10.6943 4.38123 10.6531 4.43939 10.609 4.495C10.4787 4.65587 10.3301 4.792 10.1404 4.86625C10.0227 4.91125 9.90267 4.92362 9.77809 4.88425C9.79172 4.86313 9.80535 4.8423 9.81888 4.82161C9.85869 4.76075 9.8977 4.70113 9.93352 4.639C9.98152 4.55687 10.0261 4.4725 10.0684 4.38587C10.0962 4.3272 10.1212 4.2669 10.1478 4.20307C10.1594 4.17511 10.1713 4.14647 10.1838 4.117C10.1554 4.1517 10.1285 4.18558 10.1022 4.21862C10.0536 4.27984 10.0073 4.33822 9.95752 4.39375C9.84667 4.52087 9.71752 4.6255 9.56781 4.69412C9.41124 4.76725 9.24895 4.7875 9.08438 4.72787C9.02952 4.7065 9.01009 4.67612 9.03181 4.61762C9.05124 4.56138 9.07752 4.5085 9.10495 4.45675C9.12057 4.42867 9.13781 4.40258 9.15498 4.37658C9.1667 4.35884 9.17839 4.34113 9.18952 4.32287C9.16417 4.34142 9.14065 4.36131 9.11722 4.38113C9.10369 4.39258 9.09019 4.404 9.07638 4.41513C8.94038 4.52312 8.79981 4.6255 8.62495 4.65025C8.52666 4.66488 8.41809 4.62663 8.41695 4.486C8.41581 4.43762 8.42038 4.387 8.43181 4.33975C8.44308 4.29537 8.45682 4.25244 8.47174 4.20586C8.4795 4.1816 8.48759 4.15635 8.49581 4.12937L8.47524 4.15975C8.44488 4.20624 8.41501 4.25297 8.38519 4.29962C8.32409 4.39523 8.26318 4.49051 8.19867 4.58275C8.13581 4.6705 8.06495 4.75038 7.99181 4.828C7.95524 4.8685 7.93009 4.85388 7.91638 4.79988C7.89827 4.72667 7.91117 4.65504 7.9239 4.58432C7.92644 4.57026 7.92896 4.55624 7.93124 4.54225C7.94071 4.48086 7.95346 4.42053 7.96684 4.35721C7.97283 4.32886 7.97894 4.29992 7.98495 4.27C7.97238 4.29025 7.96438 4.30263 7.95638 4.31387C7.93123 4.34882 7.90632 4.38399 7.88139 4.41918C7.81003 4.51991 7.7386 4.62074 7.66152 4.71662C7.61695 4.77287 7.55638 4.81788 7.49467 4.85275C7.41924 4.89438 7.35752 4.86062 7.34267 4.77175C7.33124 4.70312 7.33238 4.63112 7.33695 4.56025C7.34079 4.5142 7.34976 4.46765 7.35871 4.42127C7.3631 4.39853 7.36748 4.37583 7.37124 4.35325C7.35765 4.38174 7.34559 4.41113 7.33348 4.44064C7.32216 4.46824 7.31079 4.49595 7.29809 4.52312C7.29413 4.53176 7.29019 4.54041 7.28625 4.54906C7.24248 4.64522 7.19873 4.74131 7.12324 4.81563C7.07067 4.86625 7.02381 4.8685 6.97695 4.81337C6.94267 4.77175 6.91067 4.72 6.89238 4.66712C6.87118 4.60934 6.85696 4.54812 6.84308 4.48836C6.83751 4.46436 6.83199 4.44059 6.82609 4.41737C6.82495 4.42487 6.82394 4.43287 6.82288 4.44121C6.82076 4.45787 6.81847 4.47587 6.81466 4.49387C6.79295 4.62325 6.76095 4.74925 6.69695 4.864C6.65809 4.92925 6.60895 4.981 6.53695 4.99787C6.47981 5.01138 6.42266 5.02452 6.36552 5.03766C6.27981 5.05737 6.19409 5.07708 6.10838 5.098C5.50038 5.2465 4.90952 5.45575 4.33695 5.72462C3.72552 6.01262 3.14495 6.367 2.59181 6.77087C2.27524 7.00262 1.96438 7.24563 1.66952 7.51C1.43867 7.71587 1.21009 7.92175 0.986094 8.13662C0.849334 8.26812 0.716447 8.40451 0.583583 8.54088C0.525475 8.60052 0.467372 8.66016 0.408951 8.71938C0.390952 8.73766 0.373544 8.75595 0.356276 8.77409C0.339553 8.79166 0.322962 8.80909 0.306094 8.82625C0.289522 8.84425 0.272951 8.86253 0.25638 8.88081C0.239808 8.89909 0.223237 8.91738 0.206665 8.93538C0.226094 8.93425 0.239808 8.92637 0.254665 8.91738C0.567808 8.73063 0.871808 8.527 1.16438 8.302C1.40475 8.11694 1.64393 7.92917 1.88309 7.74141C2.05101 7.60957 2.21893 7.47774 2.38724 7.34687C2.77009 7.0465 3.15866 6.754 3.57809 6.51662C3.94266 6.31075 4.31638 6.115 4.69238 5.92938C5.22838 5.665 5.79981 5.51987 6.38038 5.42537C6.65124 5.38262 6.92324 5.35225 7.19524 5.32525C7.38838 5.305 7.58266 5.2915 7.77695 5.29037C8.09124 5.28925 8.40552 5.29488 8.71981 5.30725C8.92895 5.31625 9.13809 5.33425 9.34609 5.36238C9.63981 5.40288 9.93466 5.44675 10.225 5.50975C10.9872 5.67513 11.705 5.97887 12.3975 6.36025C12.513 6.42413 12.6273 6.48981 12.7417 6.55547C12.883 6.63668 13.0244 6.71787 13.1678 6.79562C13.2535 6.84175 13.3484 6.8845 13.4432 6.89913C13.6512 6.93175 13.8592 6.89913 14.0627 6.85188C14.5221 6.74725 14.9244 6.51213 15.289 6.19712C15.4855 6.02837 15.6627 5.83713 15.8272 5.63013C15.8745 5.57127 15.9183 5.51036 15.9625 5.449C15.9749 5.43178 15.9873 5.41451 15.9998 5.39725C15.985 5.39838 15.9758 5.40738 15.9678 5.41638C15.8192 5.58288 15.6615 5.7415 15.4901 5.87987C15.241 6.08012 14.9804 6.25562 14.6638 6.29837C14.553 6.31412 14.4432 6.30063 14.3347 6.25563C14.8295 5.908 15.161 5.41075 15.4535 4.87525C15.4432 4.8775 15.4364 4.88313 15.4307 4.88987C15.2044 5.125 14.9667 5.34775 14.7072 5.54125C14.3701 5.79212 14.0204 6.01713 13.5998 6.06325C13.5118 6.07337 13.425 6.06438 13.3335 6.04413Z" fill="#27282E"/>
<path d="M10.7207 10.2179C10.6884 10.1336 10.6558 10.0483 10.6229 9.96127C10.6354 9.95811 10.6478 9.95461 10.6601 9.95112C10.6918 9.94216 10.723 9.93332 10.7543 9.93089C10.8411 9.92527 10.92 9.96239 10.9954 10.0051C11.1474 10.0929 11.2754 10.2166 11.3977 10.3471C11.6789 10.6453 11.9189 10.9805 12.1486 11.3259C12.1883 11.3853 12.2269 11.4447 12.2654 11.5041C12.2911 11.5437 12.3168 11.5833 12.3429 11.6229C12.3463 11.6128 12.344 11.6071 12.3406 11.6015C12.3039 11.5307 12.2671 11.4599 12.2302 11.3892C12.1418 11.2196 12.0535 11.05 11.968 10.8793C11.8046 10.5553 11.6446 10.2313 11.52 9.88814C11.4857 9.79027 11.4583 9.68789 11.4423 9.58552C11.4286 9.50564 11.4766 9.46739 11.5497 9.48989C11.5966 9.50452 11.6446 9.52477 11.6869 9.55177C11.848 9.65527 11.9851 9.79139 12.1211 9.93089C12.1638 9.97515 12.2055 10.0214 12.2471 10.0677C12.2679 10.0908 12.2888 10.1139 12.3097 10.1368C12.3131 10.1255 12.3109 10.1199 12.3074 10.1143C12.2786 10.064 12.2493 10.0142 12.2201 9.96448C12.1578 9.85842 12.0957 9.75278 12.0389 9.64402C12.005 9.57914 11.9836 9.50777 11.9623 9.43684C11.957 9.41921 11.9517 9.40161 11.9463 9.38414C11.9406 9.36502 11.9509 9.33127 11.9657 9.31664C11.9723 9.30833 11.9927 9.31367 12.0106 9.31834C12.0145 9.31936 12.0182 9.32034 12.0217 9.32114C12.0309 9.32339 12.0411 9.32902 12.0503 9.33577C12.0692 9.35119 12.0882 9.36624 12.1072 9.38124C12.1546 9.41877 12.2016 9.45597 12.2457 9.49777C12.5635 9.79734 12.856 10.126 13.1491 10.4553L13.168 10.4765C13.2258 10.5411 13.283 10.6062 13.3401 10.671C13.3666 10.7011 13.393 10.7312 13.4194 10.7611C13.4229 10.7521 13.4206 10.7465 13.4171 10.742C13.3824 10.6934 13.3474 10.645 13.3123 10.5964C13.2459 10.5046 13.1794 10.4125 13.1143 10.319C12.9383 10.0681 12.768 9.81164 12.6229 9.53827C12.5611 9.42352 12.504 9.30764 12.4789 9.17602C12.4617 9.09164 12.4949 9.03989 12.5737 9.03202C12.6103 9.02864 12.648 9.03089 12.6846 9.03877C12.7966 9.06127 12.8994 9.11414 12.9989 9.17152L13.1463 9.25702C13.129 9.23788 13.1095 9.22097 13.0902 9.20433C13.0789 9.19456 13.0677 9.18488 13.0571 9.17489C13.0304 9.15043 13.0037 9.12599 12.9769 9.10156C12.856 8.99118 12.735 8.88073 12.6171 8.76652C12.5554 8.70914 12.5029 8.64052 12.4731 8.55389C12.456 8.50214 12.4663 8.46727 12.5131 8.44814C12.552 8.43352 12.5954 8.42114 12.6377 8.41664C12.7554 8.40427 12.872 8.43014 12.9851 8.46614C13.2686 8.55389 13.5314 8.69564 13.7897 8.84527C13.8207 8.8626 13.8508 8.88122 13.883 8.90111C13.9031 8.9135 13.9239 8.92639 13.9463 8.93977C13.9423 8.93302 13.94 8.92852 13.9384 8.92542C13.9369 8.92233 13.9349 8.91952 13.9349 8.91952C13.9037 8.88647 13.8725 8.85362 13.8412 8.82078C13.7406 8.71502 13.6402 8.60951 13.5451 8.49877C13.4971 8.44364 13.4629 8.37052 13.4354 8.29964C13.4126 8.24339 13.4469 8.20627 13.5017 8.22427C13.5623 8.24564 13.6251 8.26927 13.6823 8.30077C13.9349 8.44702 14.1703 8.62589 14.4057 8.80477C14.472 8.85539 14.5394 8.90714 14.6046 8.95889C14.5574 8.90796 14.5067 8.86051 14.4558 8.8129C14.4302 8.78901 14.4046 8.76508 14.3794 8.74064C14.3617 8.72317 14.3439 8.7057 14.3262 8.68822C14.1483 8.51328 13.9701 8.33791 13.7966 8.15789C13.7417 8.10164 13.6971 8.02852 13.656 7.95764C13.6229 7.90252 13.6457 7.85752 13.7051 7.84627C13.7417 7.83839 13.7817 7.83277 13.8171 7.83727C13.9314 7.85414 14.0446 7.87102 14.1577 7.89577C14.2306 7.91262 14.3035 7.93328 14.3768 7.95403C14.416 7.96515 14.4554 7.97629 14.4949 7.98689C14.4834 7.97677 14.4709 7.97002 14.4583 7.96439C14.3897 7.9253 14.3209 7.88649 14.2521 7.84767C14.0813 7.75129 13.9104 7.65481 13.7417 7.55377C13.6728 7.51309 13.6105 7.45901 13.5487 7.40546C13.5285 7.38793 13.5083 7.37045 13.488 7.35352C13.4754 7.34227 13.4663 7.31189 13.472 7.29839C13.4777 7.28489 13.504 7.27139 13.52 7.27477C13.5291 7.27626 13.5383 7.27775 13.5475 7.27923C13.6212 7.29116 13.6967 7.30339 13.7669 7.32539C13.8537 7.35362 13.9399 7.38702 14.0296 7.42174C14.0722 7.43821 14.1155 7.45499 14.16 7.47164C14.135 7.45288 14.1116 7.43474 14.0891 7.41728C14.0508 7.38761 14.015 7.35989 13.9783 7.33439C13.7806 7.19714 13.5783 7.06889 13.3383 7.04189C13.2229 7.03064 13.1166 7.05314 13.0377 7.14989C12.9985 7.1995 12.97 7.2581 12.9416 7.31651C12.9352 7.32964 12.9288 7.34276 12.9223 7.35577C12.7886 7.62464 12.6309 7.87664 12.4491 8.11064C12.1737 8.46389 11.8583 8.76539 11.5051 9.02189C11.08 9.33239 10.6217 9.57202 10.1394 9.75539C9.49943 9.99952 8.83886 10.1503 8.16457 10.2189L8.1598 10.2194C7.9797 10.2384 7.8007 10.2572 7.62057 10.2628C7.32 10.2729 7.02057 10.2763 6.72114 10.247C6.68682 10.2435 6.65253 10.24 6.61827 10.2365C6.43575 10.2178 6.25404 10.1993 6.07314 10.1728C5.88229 10.1458 5.69143 10.1131 5.50171 10.0726C5.03429 9.97252 4.576 9.83977 4.12114 9.69689C3.84571 9.61027 3.568 9.54952 3.28343 9.53264C3.08686 9.52139 2.88914 9.52364 2.69257 9.53039C2.56305 9.53552 2.43304 9.54686 2.30318 9.55818C2.23366 9.56424 2.16419 9.57029 2.09486 9.57539C2.03413 9.58005 1.9734 9.5855 1.91268 9.59095C1.78255 9.60263 1.65242 9.61431 1.52229 9.61814C1.29029 9.62602 1.05714 9.62939 0.824 9.59564C0.621714 9.56639 0.422857 9.51914 0.230857 9.44264C0.186296 9.42431 0.141348 9.40446 0.0964636 9.38463C0.0642207 9.37039 0.0320105 9.35616 0 9.34252C0.138286 9.46627 0.286857 9.56752 0.453714 9.63952C0.678857 9.73852 0.915429 9.78914 1.15771 9.81164C1.392 9.83527 1.62629 9.83977 1.86057 9.83414C1.87678 9.83377 1.893 9.83338 1.90921 9.833C2.27937 9.82424 2.6504 9.81546 3.01829 9.87689C3.09401 9.89005 3.16756 9.91816 3.24212 9.94665L3.248 9.94889C3.29257 9.96689 3.32 10.0096 3.30971 10.0636C3.296 10.1233 3.28114 10.1829 3.256 10.2358C3.16 10.4281 3.02629 10.5901 2.89143 10.7499C2.85044 10.7992 2.80844 10.847 2.76543 10.896C2.74369 10.9208 2.72169 10.9458 2.69943 10.9715C2.70454 10.9703 2.70786 10.9701 2.71 10.9699L2.71314 10.9693C2.75631 10.9332 2.79924 10.8967 2.8422 10.8602C2.9346 10.7816 3.02711 10.7029 3.12229 10.6284C3.34857 10.4506 3.57829 10.2751 3.83543 10.1503C3.90857 10.1143 3.98857 10.0895 4.06857 10.0704C4.15886 10.0468 4.24 10.0985 4.25143 10.184C4.25714 10.2369 4.25714 10.2931 4.24686 10.3449C4.21289 10.5299 4.12955 10.6918 4.04576 10.8545L4.04343 10.859C4.0138 10.9164 3.98162 10.9729 3.94909 11.03C3.94397 11.039 3.93884 11.048 3.93371 11.057L3.94171 11.0638C3.94505 11.06 3.94818 11.0559 3.95136 11.0517C3.95582 11.0458 3.96038 11.0398 3.96571 11.0345C4.00187 10.9925 4.03777 10.9502 4.07367 10.9079C4.16941 10.7952 4.26514 10.6824 4.36571 10.5744C4.49486 10.4383 4.64 10.3258 4.81714 10.2695C4.98971 10.2155 5.15429 10.2189 5.29371 10.3539C5.448 10.5024 5.46857 10.535 5.38057 10.7398C5.28713 10.9576 5.15433 11.1485 5.022 11.3388C5.01352 11.351 5.00504 11.3632 4.99657 11.3754C4.96 11.426 4.92343 11.4766 4.88571 11.5284C4.89829 11.5261 4.90629 11.5194 4.91314 11.5126C4.99102 11.439 5.06877 11.3648 5.14656 11.2906C5.30166 11.1427 5.45692 10.9946 5.61371 10.85C5.70286 10.7679 5.79886 10.6891 5.91086 10.6441C5.97371 10.6194 6.01143 10.6374 6.02857 10.706C6.04343 10.7589 6.05371 10.8151 6.05486 10.8703C6.05829 11.057 6.03657 11.2426 6.008 11.426C6.002 11.4598 5.99793 11.4935 5.99386 11.5273C5.9925 11.5385 5.99114 11.5498 5.98971 11.561C6.00229 11.5475 6.00914 11.5329 6.01486 11.5194C6.01852 11.5107 6.02218 11.5021 6.02584 11.4934C6.12386 11.2613 6.222 11.0288 6.352 10.8163C6.39193 10.7515 6.44206 10.6947 6.49179 10.6384C6.49472 10.635 6.49765 10.6317 6.50057 10.6284C6.512 10.6138 6.544 10.6036 6.55771 10.6115C6.57143 10.6194 6.58057 10.6509 6.58171 10.6723C6.58602 10.7952 6.55485 10.9121 6.52352 11.0296C6.52158 11.0369 6.51964 11.0441 6.51771 11.0514C6.392 11.5241 6.22811 11.9814 6.06389 12.4396L6.05943 12.452C6.02975 12.5329 5.99997 12.6141 5.97029 12.6961C5.98629 12.6826 5.99657 12.6646 6.00571 12.6478C6.27314 12.1269 6.544 11.6071 6.84343 11.1076C6.93143 10.9614 7.02857 10.8219 7.12914 10.6858C7.18514 10.6104 7.24571 10.6115 7.31429 10.6745C7.38629 10.7375 7.42857 10.8253 7.46514 10.9141C7.55657 11.1301 7.61486 11.3574 7.66629 11.588C7.67973 11.6469 7.69159 11.7058 7.7035 11.7649C7.71184 11.8063 7.7202 11.8478 7.72914 11.8895C7.72571 11.7511 7.71657 11.615 7.70629 11.4789C7.69257 11.2606 7.68114 11.0446 7.70857 10.8286C7.70953 10.8216 7.71041 10.8145 7.71129 10.8072C7.71781 10.7538 7.72488 10.6958 7.76914 10.67C7.88229 10.6048 8.00229 10.5643 8.13257 10.607C8.25943 10.6475 8.32229 10.7555 8.368 10.8793C8.43086 11.0514 8.44571 11.2336 8.45029 11.4148C8.456 11.6949 8.43314 11.9739 8.39429 12.2506C8.36688 12.4339 8.33833 12.616 8.30978 12.7981C8.30801 12.8109 8.30526 12.8235 8.30261 12.8355C8.30012 12.8468 8.29766 12.858 8.296 12.8694C8.29228 12.8877 8.28931 12.9075 8.28648 12.9264C8.28584 12.9307 8.28521 12.935 8.28457 12.9391C8.29257 12.9346 8.29714 12.9279 8.29943 12.9211C8.47657 12.3868 8.64457 11.8513 8.68686 11.2798C8.704 11.0514 8.704 10.823 8.56229 10.6149C8.93029 10.8849 9.19771 11.2314 9.37486 11.6589C9.55086 12.0819 9.62857 12.5263 9.61029 12.9999C9.61371 12.9937 9.616 12.9903 9.61743 12.9882C9.61886 12.9861 9.61943 12.9841 9.61943 12.9841C9.66743 12.7974 9.66857 12.6061 9.65143 12.4149C9.632 12.1933 9.58972 11.9761 9.53257 11.7624C9.42857 11.381 9.28686 11.0154 9.12457 10.6599L9.11918 10.6481C9.09137 10.587 9.06407 10.527 9.02971 10.4551C9.04626 10.4587 9.06181 10.4616 9.07652 10.4643C9.10345 10.4693 9.12754 10.4737 9.14971 10.481C9.28 10.526 9.384 10.6171 9.48114 10.7173C9.71086 10.9524 9.89257 11.2291 10.0674 11.5138C10.0766 11.529 10.086 11.5441 10.0954 11.5593C10.1049 11.5745 10.1143 11.5897 10.1234 11.6049C10.1234 11.587 10.1181 11.5727 10.1129 11.5587L10.1109 11.5531C10.0931 11.5092 10.0751 11.4653 10.057 11.4214C10.0053 11.2956 9.95347 11.1697 9.90857 11.0413C9.84571 10.8646 9.79429 10.6835 9.80229 10.4889C9.808 10.3629 9.87771 10.2763 9.98971 10.2751C10.064 10.2751 10.1383 10.2808 10.2091 10.2988C10.4229 10.3516 10.5794 10.4968 10.7051 10.6846C10.8423 10.886 10.9291 11.1144 10.9977 11.3529C11.0846 11.6533 11.1314 11.9615 11.16 12.2878C11.1647 12.2758 11.1696 12.2655 11.174 12.2561C11.1804 12.2426 11.1859 12.2311 11.1886 12.2191C11.1911 12.2049 11.194 12.1905 11.1969 12.1761C11.206 12.1313 11.2152 12.0859 11.2126 12.0425C11.2034 11.9008 11.1909 11.7601 11.1669 11.6218C11.112 11.3079 11.0149 11.0098 10.9074 10.7139C10.8474 10.5492 10.7848 10.3856 10.7207 10.2179Z" fill="#27282E"/>
</svg>
