<svg width="16" height="16" viewBox="0 0 16 16" fill="none" xmlns="http://www.w3.org/2000/svg">
<path fill-rule="evenodd" clip-rule="evenodd" d="M2.40294 2.16147L2.15137 1.02053L2.34668 0.977468C2.87402 0.861191 3.42115 0.800049 3.9817 0.800049C5.4279 0.800049 6.77989 1.20613 7.93316 1.91144C9.08644 1.20613 10.4384 0.800049 11.8846 0.800049C12.4468 0.800049 12.9955 0.861544 13.5242 0.978474C13.5674 0.988023 13.6104 0.997941 13.6533 1.00822L13.8478 1.05484L13.5755 2.191L13.381 2.14438C13.3448 2.1357 13.3084 2.12732 13.2719 2.11925C12.8254 2.02051 12.3614 1.96839 11.8846 1.96839C10.8363 1.96839 9.84551 2.2211 8.96815 2.67022C10.608 4.09696 11.6456 6.21433 11.6456 8.57369C11.6456 11.126 10.4322 13.3933 8.55659 14.8109C8.38962 14.9371 8.2174 15.0566 8.0403 15.1689L7.93316 15.2369L7.82603 15.1689C7.58375 15.0152 7.35058 14.8482 7.12753 14.6689C5.35594 13.2445 4.22075 11.0423 4.22075 8.57369C4.22075 6.21433 5.2583 4.09696 6.89818 2.67022C6.02082 2.2211 5.03005 1.96839 3.9817 1.96839C3.50635 1.96839 3.04355 2.02021 2.59825 2.1184L2.40294 2.16147ZM9.41185 4.59131C8.99982 4.01206 8.50031 3.50149 7.93316 3.07948C7.36602 3.50149 6.86651 4.01206 6.45448 4.59131C6.44634 4.60275 6.43824 4.61422 6.43017 4.62572L6.42832 4.62834C6.41872 4.64204 6.40916 4.65578 6.39965 4.66955C6.37176 4.7267 6.32404 4.83282 6.27912 4.97261C6.23981 5.09492 6.20265 5.24302 6.18278 5.40663C6.14123 5.74885 6.17538 6.15896 6.42392 6.54308C6.74164 7.03409 7.36905 7.63021 7.7062 7.93464C7.84389 8.05896 7.93316 8.13464 7.93316 8.13464C7.93316 8.13464 8.02244 8.05896 8.16013 7.93464C8.49727 7.63021 9.12469 7.03409 9.4424 6.54308C9.69095 6.15896 9.72509 5.74885 9.68355 5.40663C9.66368 5.24302 9.62652 5.09492 9.58721 4.97261C9.54229 4.83282 9.49457 4.7267 9.46668 4.66955C9.45717 4.65578 9.44761 4.64204 9.43801 4.62834L9.43616 4.62572C9.42809 4.61422 9.41999 4.60275 9.41185 4.59131ZM5.55589 7.0793C5.44678 7.55932 5.38909 8.05953 5.38909 8.57369C5.38909 10.4285 6.14033 12.103 7.34899 13.302V9.40243L7.34858 9.39906C7.34755 9.39143 7.34487 9.37528 7.33823 9.35049C7.32495 9.30095 7.29572 9.21645 7.23183 9.09645C7.10376 8.85594 6.83744 8.47472 6.28608 7.95026C5.94507 7.62588 5.71015 7.31762 5.55589 7.0793ZM8.51733 9.40243V13.302C9.72598 12.103 10.4772 10.4285 10.4772 8.57369C10.4772 8.05953 10.4195 7.55932 10.3104 7.07931C10.1562 7.31762 9.92126 7.62589 9.58025 7.95026C9.02889 8.47472 8.76256 8.85594 8.6345 9.09645C8.57061 9.21645 8.54137 9.30095 8.5281 9.35049C8.52146 9.37528 8.51877 9.39143 8.51775 9.39906L8.51733 9.40243Z" fill="url(#paint0_radial_1228_29482)"/>
<defs>
<radialGradient id="paint0_radial_1228_29482" cx="0" cy="0" r="1" gradientUnits="userSpaceOnUse" gradientTransform="translate(10.608 5.44046) rotate(123.197) scale(10.4748 8.43044)">
<stop stop-color="#4AF7EE"/>
<stop offset="0.338542" stop-color="#5EA6F2"/>
<stop offset="0.6875" stop-color="#746EF7"/>
<stop offset="1" stop-color="#6A99FB"/>
</radialGradient>
</defs>
</svg>
