<svg width="16" height="16" viewBox="0 0 16 16" fill="none" xmlns="http://www.w3.org/2000/svg">
<path d="M8 1C4.14048 1 1 4.12993 1 8C1 11.8595 4.12993 15 8 15C11.8595 15 15 11.8701 15 8C15 4.12993 11.8595 1 8 1ZM12.7266 9.22659C12.7266 9.64954 12.4834 10.0197 12.0076 10.1042C11.1828 10.2523 9.44862 10.3369 8 10.3369C6.55133 10.3369 4.81719 10.2523 3.99245 10.1042C3.51666 10.0197 3.27341 9.64954 3.27341 9.22659V6.4985C3.27341 6.07555 3.60121 5.68431 3.99245 5.62082C4.23564 5.57855 4.80663 5.53627 5.2508 5.53627C5.41995 5.53627 5.55738 5.66315 5.55738 5.86407V7.77797L8.01055 7.72509L10.4637 7.77797V5.86407C10.4637 5.66315 10.6012 5.53627 10.7704 5.53627C11.2145 5.53627 11.7855 5.57855 12.0287 5.62082C12.4305 5.68426 12.7477 6.07555 12.7477 6.4985C12.7266 7.39729 12.7266 8.31724 12.7266 9.22659Z" fill="#ED2226"/>
<path d="M12.7266 9.22669C12.7266 9.64964 12.4834 10.0198 12.0076 10.1043C11.1828 10.2524 9.44864 10.337 8.00002 10.337C6.55135 10.337 4.81721 10.2524 3.99247 10.1043C3.51669 10.0198 3.27344 9.64964 3.27344 9.22669V6.4986C3.27344 6.07565 3.60123 5.68442 3.99247 5.62092C4.23566 5.57865 4.80666 5.53638 5.25083 5.53638C5.41998 5.53638 5.55741 5.66325 5.55741 5.86417V7.77807L8.01058 7.72519L10.4637 7.77807V5.86417C10.4637 5.66325 10.6012 5.53638 10.7704 5.53638C11.2145 5.53638 11.7855 5.57865 12.0287 5.62092C12.4305 5.68436 12.7478 6.07565 12.7478 6.4986C12.7266 7.39739 12.7266 8.31735 12.7266 9.22669Z" fill="white"/>
</svg>
