<svg width="16" height="16" viewBox="0 0 16 16" fill="none" xmlns="http://www.w3.org/2000/svg">
<path fill-rule="evenodd" clip-rule="evenodd" d="M8.3528 1.271C11.4168 2.1505 13.0987 3.68391 13.4043 5.8741C13.4671 8.88668 12.2163 10.46 9.65496 10.5857C8.82971 10.4772 8.56415 9.80049 9.07529 9.16366C9.88626 8.24704 10.2461 7.41037 10.1547 6.6508C10.089 6.19963 9.57215 5.73418 8.60413 5.25445C8.73548 5.09454 9.06958 5.05742 9.60927 5.14023C10.0776 5.18878 10.226 4.9689 10.0547 4.48632C10.1918 5.0717 9.28085 4.98603 7.3191 4.23789C7.25342 4.21219 7.18775 4.18649 7.11921 4.16079C6.4653 4.00659 6.21401 4.26073 6.3625 4.9175C6.0027 4.90322 5.73143 4.92892 5.54582 5.00031C4.59779 5.57142 4.62634 6.08255 5.63434 6.53087C5.68574 6.21391 6.00842 6.06542 6.60236 6.08255C6.86222 6.15965 7.03355 6.23961 7.1135 6.31956C7.20202 6.39666 7.27341 6.47091 7.3191 6.54515C7.43047 6.71362 7.43047 6.8821 7.3191 7.05058C7.21059 7.21905 6.98786 7.38467 6.65662 7.54744C5.19174 8.0186 4.41503 8.83813 4.3208 10.0032V10.4944C4.3208 10.4986 4.32151 10.5029 4.32222 10.5071C4.32294 10.5114 4.32366 10.5157 4.32366 10.52C4.475 11.9706 4.88619 12.9758 5.49157 13.604C5.83423 13.9438 6.53669 14.4321 7.3191 14.6748C7.65605 14.7805 8.00157 14.8405 8.34709 14.8233C12.0051 14.6577 14.8206 11.7679 14.8206 8.03002C14.8206 4.41207 11.9679 1.43091 8.3528 1.271ZM7.69317 4.92321H6.96502C6.90219 4.63766 7.01927 4.56627 7.3191 4.70619C7.42476 4.75188 7.54754 4.82612 7.69317 4.92321Z" fill="url(#paint0_linear_1228_29719)"/>
<path d="M5.69138 14.4035C4.84329 13.6497 4.28932 12.8815 4.16082 11.8621C-0.370899 6.75931 3.50976 2.08196 7.55889 1.28241C4.02375 1.54512 1.29102 4.48916 1.29102 8.03001C1.29102 10.817 2.97577 13.2128 5.38584 14.2493L5.69138 14.4035Z" fill="url(#paint1_linear_1228_29719)"/>
<defs>
<linearGradient id="paint0_linear_1228_29719" x1="14.8195" y1="14.8409" x2="14.8195" y2="1.28864" gradientUnits="userSpaceOnUse">
<stop stop-color="#F40A0B"/>
<stop offset="1" stop-color="#F5E710"/>
</linearGradient>
<linearGradient id="paint1_linear_1228_29719" x1="14.8195" y1="14.8409" x2="14.8195" y2="1.28864" gradientUnits="userSpaceOnUse">
<stop stop-color="#F40A0B"/>
<stop offset="1" stop-color="#F5E710"/>
</linearGradient>
</defs>
</svg>
