<svg width="16" height="16" viewBox="0 0 16 16" fill="none" xmlns="http://www.w3.org/2000/svg">
<path fill-rule="evenodd" clip-rule="evenodd" d="M12.2665 5.39151C11.3876 3.95704 9.80556 3 8 3C5.23858 3 3 5.23858 3 8C3 9.94523 4.11083 11.631 5.73275 12.4576C5.88861 12.537 6.4827 12.5718 7 12C7.27287 11.6984 7.54302 11.2615 7.83576 10.7881C8.2099 10.183 8.62095 9.51829 9.12172 9C9.64624 8.45713 10.3061 7.92163 10.8951 7.44372C11.3296 7.09108 11.7256 6.76978 12 6.5C12.4938 6.01452 12.3016 5.44874 12.2665 5.39151ZM9.89056 6.46006C9.44284 5.94214 8.78321 5.61476 8.04761 5.61476C6.69889 5.61476 5.60555 6.71533 5.60555 8.07295C5.60555 8.89705 6.0084 9.62642 6.6267 10.0724C7.05071 10.3783 7.36345 9.92817 7.78406 9.32282C7.97678 9.04545 8.19215 8.73548 8.45124 8.45072C8.68364 8.19529 8.94208 7.96299 9.17998 7.74914C9.75305 7.23403 10.2069 6.82604 9.89056 6.46006Z" fill="#8AC831"/>
<path fill-rule="evenodd" clip-rule="evenodd" d="M8 15C11.866 15 15 11.866 15 8C15 4.13401 11.866 1 8 1C4.13401 1 1 4.13401 1 8C1 11.866 4.13401 15 8 15ZM8 14C11.3137 14 14 11.3137 14 8C14 4.68629 11.3137 2 8 2C4.68629 2 2 4.68629 2 8C2 11.3137 4.68629 14 8 14Z" fill="#8AC831"/>
</svg>
