<svg width="16" height="16" viewBox="0 0 16 16" fill="none" xmlns="http://www.w3.org/2000/svg">
<rect x="1" y="3" width="14" height="10" fill="#0600FF"/>
<path fill-rule="evenodd" clip-rule="evenodd" d="M14.0018 11.0645V12.0124H10.7294C10.7294 12.0124 12.339 8.82473 12.515 8.47328C12.6911 8.12183 12.7791 7.84766 12.7791 7.65075C12.7791 7.49964 12.7525 7.38688 12.6993 7.31247C12.6462 7.23806 12.5652 7.21992 12.4566 7.21992C12.3479 7.21992 12.2669 7.24207 12.2138 7.32449C12.1606 7.40692 12.134 7.57062 12.134 7.8156V8.34449H10.8511V8.14186C10.8511 7.83048 10.8676 7.58493 10.9007 7.4052C10.9338 7.22547 11.0153 7.0486 11.1452 6.87459C11.2752 6.70058 11.4441 6.56894 11.652 6.47964C11.86 6.39035 12.1092 6.3457 12.3999 6.3457C12.9693 6.3457 13.3999 6.4825 13.6917 6.75611C13.9835 7.02971 14.1294 7.376 14.1294 7.795C14.1294 8.11325 14.0473 8.44981 13.8831 8.80469C13.7189 9.15958 13.2351 9.91284 12.4318 11.0645H14.0018Z" fill="white"/>
<path d="M6.00879 6.61665H7.20879V8.80892H8.8001V6.61665H10.0001V12.0166H8.8001V10.0089H7.20879V12.0166H6.00879V6.61665Z" fill="white"/>
</svg>
