<svg width="16" height="16" viewBox="0 0 16 16" fill="none" xmlns="http://www.w3.org/2000/svg">
<path fill-rule="evenodd" clip-rule="evenodd" d="M1 1H15L12.5 8H1V1Z" fill="#389FD6"/>
<path fill-rule="evenodd" clip-rule="evenodd" d="M3.579 7.04C2.837 7.04 2.088 6.781 1.5 6.256L2.137 5.493C2.578 5.857 3.04 6.088 3.6 6.088C4.041 6.088 4.307 5.913 4.307 5.626V5.612C4.307 5.339 4.139 5.199 3.32 4.989C2.333 4.737 1.696 4.464 1.696 3.491V3.477C1.696 2.588 2.41 2 3.411 2C4.125 2 4.734 2.224 5.231 2.623L4.671 3.435C4.237 3.134 3.81 2.952 3.397 2.952C2.984 2.952 2.767 3.141 2.767 3.379V3.393C2.767 3.715 2.977 3.82 3.824 4.037C4.73 4.27307 5.27544 4.59056 5.36492 5.2916L6.73794 2.065H7.73194L9 5.04494V2.1H11.002C12.171 2.1 12.878 2.793 12.878 3.794V3.808C12.878 4.942 11.996 5.53 10.897 5.53H10.078V7H8.70494L8.25694 5.901C8.25694 5.901 7.75941 6.18313 7.23494 6.18313C6.71047 6.18313 6.18494 5.901 6.18494 5.901L5.73694 7H4.63794L4.75025 6.73607C4.44409 6.93536 4.04173 7.04 3.579 7.04ZM6.56994 4.949C6.56994 4.949 6.89544 5.16961 7.22094 5.16961C7.54644 5.16961 7.87194 4.949 7.87194 4.949L7.22094 3.36L6.56994 4.949ZM10.932 4.571H10.078V3.073H10.911C11.45 3.073 11.786 3.332 11.786 3.815V3.829C11.786 4.249 11.471 4.571 10.932 4.571Z" fill="white"/>
<path fill-rule="evenodd" clip-rule="evenodd" d="M1 9V14H2V12.001H3V14H4H5L5.32948 13.0116L6.67069 13.0121L7 14H8H9V11L10 14H11H12L12.3295 13.0116L13.6707 13.0121L14 14H15L13.5 9H12.5L11 14V9H10V12.001L9 9H8V14L6.5 9H5.5L4 14V9H3V11.0285H1.99792L2 9H1ZM6.33189 11.9957L6 11L5.66634 12.001L6.33189 11.9957ZM13 11L13.3319 11.9957L12.6663 12.001L13 11Z" fill="#EDA200"/>
</svg>
