<svg width="16" height="16" viewBox="0 0 16 16" fill="none" xmlns="http://www.w3.org/2000/svg">
<path d="M1 5V6.162H1.78312V9.466H1.02132V10.614H3.74641V9.466H2.96328V6.162H3.72507V5H1Z" fill="black"/>
<path d="M8.75635 5.01401V6.16201H9.53948V9.46601H8.77768V10.614H10.7196V7.41974L11.8768 10.6129L11.9003 10.6135L13.0367 7.41975V10.614H15V9.46601H14.2169V6.16201H14.9787V5.01401H12.7901L11.8839 7.57443L10.9663 5.01401H8.75635Z" fill="black"/>
<path fill-rule="evenodd" clip-rule="evenodd" d="M4.11121 5.01401V6.15368H4.89432V9.45364H4.11121V10.614H7.07253C7.59789 10.614 7.99455 10.2267 7.99455 10.2267L8.30628 9.86031C8.39456 9.77165 8.44519 9.47359 8.44519 9.47359L8.47746 9.10772C8.47746 8.9247 8.40253 8.71991 8.40253 8.71991L8.24121 8.35404C8.16086 8.16548 7.90871 7.96677 7.90871 7.96677L7.90867 7.61401L7.90871 7.60904C7.90871 7.61401 8.16086 7.41885 8.24121 7.23365L8.40253 6.87431C8.40253 6.87431 8.47746 6.67317 8.47746 6.49342L8.44519 6.13408C8.44519 6.13408 8.39456 5.84134 8.30628 5.75426L7.99455 5.39436C7.99455 5.39436 7.59789 5.01401 7.07253 5.01401H4.11121ZM7.22235 6.16202H6.07446V7.22602H7.22235V6.16202ZM6.07446 8.388H7.22235V9.452H6.07446V8.388Z" fill="black"/>
</svg>
