<svg width="16" height="16" viewBox="0 0 16 16" fill="none" xmlns="http://www.w3.org/2000/svg">
<path d="M8.12074 14.5926C8.26143 14.7383 8.20099 14.89 8.10204 15C8.77827 14.8128 9.13739 14.6743 9.33814 14.364C10.4569 12.6351 10.2574 11.1866 10.4615 10.9554C10.5811 10.8198 10.8352 10.743 10.8504 10.4727C10.8504 10.4727 11.2063 10.4336 11.305 10.3689C10.9901 10.3146 10.6092 10.0731 10.6891 9.80977C10.8524 9.27118 11.9919 8.93314 12.2286 8.65175C12.7427 8.04062 12.7178 7.59915 12.6542 7.0056C11.5868 7.94818 10.6833 8.52904 10.4574 8.69793C10.3644 8.76751 10.1852 8.81245 10.0556 8.80177C9.95286 8.79331 9.88995 8.74411 9.83864 8.67107C9.77156 8.57558 9.8623 8.42668 9.90874 8.27207C9.9997 7.96924 10.1901 7.71795 10.3327 7.55791C10.8713 6.95321 11.6992 6.46695 12.2914 6.11525C12.2914 6.11525 13.4787 3.25037 9.88696 1C12.372 3.14895 11.2084 5.64465 11.2084 5.64465C11.2084 5.64465 8.9102 7.01147 8.71821 8.05908C8.50787 9.20684 9.63013 9.32212 9.63013 10.0731C9.63013 10.5766 8.82002 10.9273 8.59385 11.8461C8.43169 12.505 8.8829 13.1974 8.77827 13.3404C8.7402 13.3924 8.66393 13.4755 8.58454 13.536C8.50514 13.5965 8.4599 13.6189 8.3739 13.6651C8.29127 13.7095 8.23132 13.768 8.15488 13.768C8.04725 13.768 7.93497 13.6738 7.80452 13.6009C7.64504 13.5119 7.39195 13.3789 7.39195 13.3789L7.37508 13.3855C7.37508 13.3855 7.31845 13.5837 7.47988 13.6494C7.75247 13.7603 8.26184 13.891 8.12074 14.2202C8.01794 14.4599 7.31799 14.364 7.31799 14.364C7.31799 14.364 7.44974 14.4201 7.62613 14.4459C7.78823 14.4695 8.01697 14.4852 8.12074 14.5926Z" fill="#3574F0"/>
<path d="M5.22121 10.4101C5.22121 10.4101 5.57951 10.229 5.96171 10.2466C6.37807 10.2659 6.61434 10.5049 6.78816 10.8099C7.01788 11.213 7.12578 11.7173 7.15355 11.9977C6.89995 11.6263 6.71593 11.2277 6.54663 11.0282C6.47663 10.9458 6.40252 10.9087 6.33955 10.8999C6.1699 10.8763 6.03989 10.9118 5.90994 10.8318C5.66173 10.6791 5.80427 10.5376 5.61422 10.4638C5.45049 10.4002 5.22121 10.4101 5.22121 10.4101Z" fill="#3574F0"/>
<path d="M3.37452 7.5759C3.97291 7.79199 4.74922 8.58483 4.97746 9.09382C3.99503 8.70306 3.46532 8.17652 3.37452 7.5759Z" fill="#3574F0"/>
<path d="M4.08643 6.45378C4.17055 6.50814 5.98461 7.4975 5.94535 9.05539C6.56308 9.00635 7.0615 8.79084 7.04903 8.42636C6.99647 6.88943 4.73233 5.80247 4.61361 5.57768C4.49489 5.35288 3.68097 2.96231 5.90208 1.00675C3.81811 2.38705 3.3152 3.90271 3.31251 4.94292C3.31092 5.5613 3.45674 6.0156 3.63282 6.1627C3.77394 6.2806 3.99903 6.3973 4.08643 6.45378Z" fill="#3574F0"/>
</svg>
