<svg width="16" height="16" viewBox="0 0 16 16" fill="none" xmlns="http://www.w3.org/2000/svg">
<path fill-rule="evenodd" clip-rule="evenodd" d="M13.6539 3.10877C13.9135 3.1015 14.1634 3.0945 14.3709 3.04125C14.6091 2.9801 14.7108 2.93811 14.7783 2.91023C14.8498 2.88067 14.883 2.86696 14.9999 2.86306C15.2066 2.85617 15.3361 2.98252 15.3392 3.2092C15.349 3.91296 15.2203 4.21234 14.8934 4.5199C14.8019 4.60596 14.6932 4.69484 14.5766 4.79018C14.2765 5.03555 13.9241 5.32368 13.6786 5.71648C13.5305 5.95347 13.4498 6.3521 13.3593 6.79858C13.3114 7.03506 13.2607 7.28497 13.1959 7.5314C13.1385 7.74964 13.0814 7.98299 13.0244 8.21572C12.9084 8.68967 12.7931 9.16109 12.677 9.4973C12.4942 10.0269 12.6443 11.2288 13.1857 11.3886C12.5687 11.8574 11.5744 11.7189 11.2088 11.1329C10.8412 11.2338 10.6541 11.5396 10.4665 11.846C10.3194 12.0865 10.172 12.3274 9.93688 12.4701C9.50159 12.7344 9.08592 12.8541 8.50915 13.0029C8.18852 13.0663 8.00648 13.0545 8.0999 12.9496C8.1322 12.8999 8.16422 12.851 8.19588 12.8027C8.45998 12.3997 8.69923 12.0347 8.86672 11.5138C8.69218 11.4876 8.51776 11.4602 8.34388 11.4329C7.25749 11.2624 6.19211 11.0952 5.25013 11.2261C4.62078 11.3137 4.22059 11.6093 3.8331 11.8956C3.70067 11.9934 3.56973 12.0901 3.43162 12.1771C2.26739 12.9102 0.986654 12.7238 0.877538 12.4488C0.81274 12.2855 0.995274 12.1658 1.16327 12.0556C1.26413 11.9895 1.35975 11.9267 1.39346 11.8601C1.14566 11.8945 0.727201 11.8194 0.646213 11.6443C0.585337 11.5126 0.820436 11.2688 0.877538 11.2261C0.988949 11.1428 1.22741 11.0804 1.39122 11.0375C1.42447 11.0288 1.45464 11.0209 1.48005 11.0138C1.75057 10.9381 2.01143 10.9164 2.2497 10.8965C2.62765 10.865 2.94879 10.8382 3.1616 10.6086C3.38871 10.3634 3.49153 10.1743 3.58687 9.99884C3.69061 9.80797 3.78549 9.63338 4.02199 9.42075C4.60669 8.89523 5.23614 8.43524 6.21813 8.1143C6.505 8.02055 6.80128 7.94168 7.10397 7.86111C7.83746 7.66586 8.60864 7.46058 9.37498 7.00911C9.95385 6.66812 10.2805 6.11297 10.6266 5.52483C10.7014 5.3977 10.7771 5.26902 10.8565 5.14063L10.8773 5.10693C11.3421 4.3548 11.7974 3.61807 12.6042 3.2652C12.9144 3.12949 13.2935 3.11887 13.6539 3.10877ZM15.0632 3.71081C15.1761 3.48328 15.1758 3.28264 15.0643 3.16974C14.9516 3.05571 14.7748 3.10771 14.5717 3.28267L14.5713 3.28124C14.3864 3.38993 14.2164 3.4132 14.0243 3.41917C13.975 3.42073 13.9243 3.42115 13.8715 3.42159C13.7458 3.42264 13.6084 3.42378 13.451 3.44065C12.2535 3.56892 11.7329 4.50544 11.1929 5.47691C10.8989 6.00575 10.5992 6.54495 10.1813 6.96976C10.0951 7.05739 10.0019 7.13913 9.90329 7.21585C9.48818 7.53849 8.97892 7.76907 8.5106 7.95575C8.10826 8.11609 7.71644 8.19738 7.33097 8.27736C6.99018 8.34806 6.65436 8.41773 6.32063 8.54009C5.79853 8.73146 5.26802 9.00909 4.83917 9.3152C4.73194 9.39166 4.63092 9.47 4.538 9.54927C4.28635 9.764 4.12117 10.0022 3.96139 10.2473L3.91103 10.3248C3.76327 10.5528 3.61274 10.785 3.39491 11.0079C3.19362 11.2141 2.71015 11.2391 2.21693 11.2646C1.74727 11.2888 1.26877 11.3136 1.01663 11.4956C1.01362 11.4978 1.00982 11.5002 1.00568 11.5028C0.974024 11.5229 0.92194 11.5558 1.04285 11.5958C1.05694 11.6004 1.10471 11.5988 1.17012 11.5967C1.24683 11.5941 1.34779 11.5908 1.44713 11.5958L1.464 11.5964C1.54901 11.5996 1.81789 11.6096 1.80701 11.7082C1.79684 11.8003 1.71062 11.9328 1.63179 12.0522C1.60077 12.0992 1.5502 12.1487 1.5043 12.1936C1.44074 12.2558 1.3861 12.3093 1.40463 12.3353C2.2337 12.4592 2.78602 12.0975 2.78602 12.0975C2.78602 12.0975 3.86903 11.2319 4.538 11.0079C5.13023 10.8097 5.77004 10.7374 6.4149 10.771C6.63462 10.7824 6.85492 10.8148 7.07412 10.847C7.27883 10.8771 7.48268 10.9071 7.68412 10.9197C7.81279 10.9278 7.97636 10.9659 8.14084 11.0043C8.35627 11.0546 8.5733 11.1052 8.71553 11.0891C8.90247 10.9693 9.00958 10.7048 9.112 10.4519C9.22394 10.1755 9.33029 9.91294 9.52913 9.86808C9.51793 11.1842 9.37999 11.69 8.83893 12.4536C9.4077 12.3488 9.98185 11.6497 9.98185 11.6497C9.98185 11.6497 11.0023 10.3414 11.1079 10.0273C11.2105 10.1094 11.2379 10.2968 11.2645 10.4782C11.2803 10.5856 11.2957 10.6909 11.3262 10.771C11.9975 10.381 12.2137 9.56359 12.4483 8.6767C12.4882 8.52591 12.5287 8.37305 12.5719 8.22C12.6388 7.98333 12.7045 7.74607 12.7686 7.51474C13.0344 6.55466 13.2719 5.69671 13.451 5.40608C13.6244 5.12468 13.9071 4.92955 14.171 4.74746C14.2372 4.70176 14.3023 4.65684 14.3642 4.61162C14.6869 4.37545 14.9774 4.13009 15.0632 3.71081Z" fill="#5A5D63"/>
<path fill-rule="evenodd" clip-rule="evenodd" d="M12.8362 4.23827C13.098 4.47533 13.6473 4.28507 13.5491 3.81342C13.1423 3.7783 12.9067 3.92228 12.8362 4.23827Z" fill="#5A5D63"/>
</svg>
