<svg width="16" height="16" viewBox="0 0 16 16" fill="none" xmlns="http://www.w3.org/2000/svg">
<path d="M9.39905 4.79611C9.39905 4.79611 9.33775 4.45517 9.46634 4.31389C9.59493 4.17261 9.95604 4.18679 9.95604 4.18679C9.95604 4.18679 9.71076 3.93587 9.83642 3.83167C9.98968 3.70457 10.7903 4.07788 11.3055 4.39987C11.4039 4.46138 11.4876 4.51209 11.5634 4.55805C11.8331 4.72157 12.0036 4.82487 12.3858 5.14003C12.5224 5.2526 12.607 5.42844 12.6963 5.61409C12.8084 5.84717 12.9279 6.09572 13.1671 6.25399C13.2633 6.31767 13.357 6.38289 13.4468 6.44543C13.8315 6.71331 14.1456 6.93203 14.2886 6.76985C14.5241 6.50273 14.1549 6.22457 13.7576 5.92521C13.6378 5.83496 13.5155 5.74279 13.4064 5.64841C13.0679 5.35562 13.0029 5.14535 12.9464 4.96253C12.9033 4.82323 12.8652 4.69987 12.7148 4.56809C12.5901 4.45885 12.4901 4.4265 12.3852 4.39254C12.2946 4.3632 12.2002 4.33267 12.083 4.25034C11.9388 4.14899 11.8744 4.04167 11.819 3.94938C11.7681 3.86466 11.7249 3.7926 11.6345 3.74943C11.2195 3.55131 11.0269 3.46077 10.6439 3.33076C10.1903 3.17684 9.71315 3.04221 9.39905 3.14759C8.96859 3.29201 8.91572 3.57777 8.943 4.01857C8.96475 4.36992 9.39905 4.79611 9.39905 4.79611Z" fill="#FF7800"/>
<path d="M3.94136 9.84262C3.74995 10.1672 3.67221 10.994 4.09088 11.0986C4.73265 11.2591 4.85472 9.71846 4.89897 9.16007L4.90206 9.12115C4.91698 8.93461 4.9108 8.75012 4.905 8.5768C4.89336 8.22915 4.88322 7.92637 5.04785 7.74177C5.16606 7.60923 5.30147 7.59775 5.46266 7.58408C5.50681 7.58033 5.5529 7.57642 5.6011 7.56982C5.82076 7.53972 5.98558 7.59299 6.15571 7.64798C6.29901 7.6943 6.44607 7.74183 6.63283 7.74177C6.71555 7.74175 6.78591 7.71098 6.8502 7.68286C6.9476 7.64027 7.03108 7.60376 7.12252 7.68944C7.21718 7.77814 7.21062 7.92823 7.20411 8.07715C7.20037 8.16286 7.19664 8.24818 7.21224 8.32119C7.24169 8.4591 7.32137 8.56593 7.3958 8.66571C7.47523 8.7722 7.54867 8.87067 7.54867 8.99032C7.54867 9.37974 7.74381 9.726 8.16173 9.65945C8.74862 9.56599 8.49816 8.7436 8.18042 8.48193C7.95688 8.29784 7.77864 7.95412 7.99725 7.76421C8.25397 7.54118 8.5075 7.8085 8.70855 8.02047C8.74484 8.05874 8.77958 8.09537 8.81216 8.12681C8.96784 8.27702 8.99312 8.41858 9.02544 8.59958C9.05122 8.74395 9.08148 8.91342 9.18598 9.13237C9.28333 9.33633 9.30205 9.55159 9.32093 9.76861C9.33284 9.90551 9.34481 10.0431 9.37663 10.1791C9.41338 10.3361 9.46902 10.4456 9.52622 10.5582C9.57469 10.6536 9.62428 10.7512 9.66446 10.8818C9.75274 11.1687 9.77144 11.3606 9.79347 11.5867C9.8013 11.667 9.80954 11.7516 9.82146 11.8463C9.89406 12.4226 10.0788 12.9962 10.5878 12.8743C10.9466 12.7883 11.0049 12.1352 10.8308 11.6519C10.7738 11.4937 10.7074 11.3852 10.6388 11.273C10.5371 11.1068 10.4303 10.9323 10.3411 10.5753C10.3195 10.4891 10.3021 10.4094 10.2848 10.3301C10.2397 10.1235 10.1952 9.91969 10.0794 9.61085C10.0023 9.4052 9.92504 9.26746 9.85073 9.13493C9.76152 8.97584 9.67651 8.82422 9.60092 8.57164C9.52967 8.33357 9.51195 8.1698 9.49452 8.00863C9.47445 7.8231 9.45476 7.64102 9.3542 7.35301C9.31017 7.22691 9.22882 7.14621 9.14756 7.0656C9.03355 6.9525 8.91971 6.83956 8.90936 6.60164C8.9025 6.44402 8.95996 6.32469 9.01933 6.20141C9.10519 6.0231 9.19504 5.83652 9.1 5.51384C9.03395 5.28957 8.92132 5.19477 8.80209 5.09441C8.70977 5.01671 8.6135 4.93567 8.53181 4.78864C8.46439 4.66729 8.47733 4.56875 8.48934 4.47725C8.50398 4.36579 8.51725 4.26477 8.38228 4.14568C8.00099 3.80924 7.11234 3.88178 6.71506 4.14567C6.34128 4.39396 6.25443 4.67148 6.1823 4.90195C6.1291 5.07193 6.08392 5.21632 5.93753 5.3045C5.75505 5.41444 5.61202 5.45432 5.46869 5.49429C5.25402 5.55415 5.03866 5.6142 4.68899 5.91008C4.20278 6.3215 4.2029 6.56135 4.20302 6.80327L4.20303 6.81471C4.20303 6.99497 4.25027 7.09325 4.29523 7.18679C4.33605 7.2717 4.37498 7.3527 4.37498 7.48758C4.37498 7.68382 4.34604 7.85962 4.31577 8.04342C4.28262 8.24478 4.24789 8.45574 4.24789 8.7137C4.24789 9.13237 4.11331 9.55104 3.94136 9.84262Z" fill="#FF7800"/>
<path d="M9.4327 6.69509C9.44235 6.88192 9.61213 7.10629 9.61213 7.10629C9.61213 7.10629 9.6805 6.88604 9.79904 6.75864C9.89128 6.6595 9.96145 6.62973 10.0408 6.59609C10.0993 6.57125 10.1628 6.5443 10.2439 6.48576C10.3527 6.40719 10.3604 6.30797 10.3673 6.21973C10.3731 6.14425 10.3784 6.0768 10.4457 6.03718C10.627 5.93056 10.8636 6.14061 11.1076 6.35719C11.2058 6.44435 11.3052 6.53258 11.4027 6.60164C11.6953 6.80901 11.9147 6.97624 12.1343 7.14367C12.3522 7.30975 12.5704 7.4761 12.8606 7.68197C13.125 7.86958 13.2842 8.03709 13.4315 8.19209C13.5924 8.36138 13.7391 8.51575 13.9932 8.6651C14.0455 8.69583 14.0979 8.72826 14.1499 8.76047C14.4584 8.9516 14.754 9.13467 14.9427 8.90434C15.1255 8.68126 14.8343 8.1754 14.5801 7.99223C14.4454 7.89518 14.3428 7.84581 14.2377 7.79526C14.0891 7.72375 13.9355 7.64988 13.6792 7.43525C13.4014 7.20255 13.1729 6.99247 12.9167 6.73622C12.7821 6.60161 12.6685 6.54121 12.5587 6.48281C12.4825 6.44228 12.4081 6.40271 12.3298 6.33997C12.2273 6.25793 12.1615 6.18075 12.0959 6.10373C12.0294 6.02569 11.963 5.94782 11.8588 5.86522C11.7515 5.78021 11.6406 5.71282 11.5244 5.64227C11.3719 5.54959 11.2104 5.45146 11.0364 5.30076C10.704 5.01297 10.1504 4.57183 9.72053 4.94564C9.49575 5.14111 9.58075 5.39021 9.66477 5.63644C9.71178 5.77422 9.75849 5.9111 9.75044 6.03718C9.74196 6.17012 9.66442 6.26371 9.58802 6.35593C9.50602 6.45491 9.42532 6.5523 9.4327 6.69509Z" fill="#FF7800"/>
<path d="M3.58996 6.67267C3.56294 6.90293 3.76192 7.24087 3.76192 7.24087C3.76192 7.24087 3.37443 7.15485 3.22736 7.37171C3.10277 7.55543 3.08444 7.72478 3.06372 7.91624C3.04777 8.0637 3.03039 8.22428 2.96196 8.41465C2.87751 8.64956 2.76615 8.81195 2.65461 8.97462C2.54426 9.13554 2.43374 9.29672 2.3489 9.52862C2.25293 9.79095 2.23682 9.96955 2.21857 10.1718C2.20151 10.361 2.18258 10.5709 2.09471 10.8893C2.02744 11.1331 2.00193 11.4025 1.97864 11.6484C1.9413 12.0427 1.90966 12.3767 1.72089 12.4481C1.50982 12.5279 1.22078 12.4481 1.14521 12.3584C1.01611 12.2051 1.0898 11.9063 1.15963 11.6231C1.19348 11.4858 1.22642 11.3523 1.23493 11.2407C1.24384 11.124 1.24911 11.0245 1.25395 10.9331C1.2668 10.6907 1.27667 10.5046 1.34334 10.2015C1.39215 9.97958 1.47326 9.76436 1.56085 9.53192C1.64585 9.30635 1.73696 9.06456 1.81061 8.78473C1.83571 8.68933 1.90933 8.58739 1.99201 8.47292C2.09728 8.32717 2.21723 8.1611 2.2704 7.96233C2.4274 7.37544 2.58838 7.03675 2.93579 6.60165C3.32082 6.11942 3.83668 6.20166 3.83668 6.20166C3.83668 6.20166 3.61417 6.46644 3.58996 6.67267Z" fill="#FF7800"/>
<path d="M4.0049 5.98485C4.0049 5.98485 3.89592 5.59486 3.95257 5.32319C4.00583 5.06779 4.16938 4.77369 4.16938 4.77369C4.16938 4.77369 3.86337 4.93353 3.49651 5.0391C3.41016 5.06394 3.32227 5.08679 3.23811 5.10867C3.00123 5.17025 2.79396 5.22413 2.73393 5.29329C2.61737 5.42759 2.61189 5.61916 2.60733 5.77904C2.60436 5.8828 2.60178 5.97322 2.56945 6.02597C2.52345 6.10104 2.44053 6.16869 2.34786 6.24431C2.27508 6.30369 2.19628 6.36799 2.12461 6.44464C2.05959 6.51419 2.01799 6.58558 1.97841 6.6535C1.91752 6.75799 1.8614 6.85429 1.73211 6.92313C1.48969 7.0522 1.12717 7.04713 1.02933 6.94929C0.951132 6.87109 1.04334 6.76463 1.14133 6.65151C1.18855 6.597 1.2371 6.54095 1.26858 6.48576C1.28775 6.45215 1.30595 6.42017 1.32334 6.38962C1.47806 6.1178 1.56854 5.95883 1.70968 5.76056C1.75982 5.69013 1.78919 5.62361 1.81984 5.55419C1.85504 5.47448 1.89192 5.39095 1.96387 5.29329C2.06528 5.15566 2.09476 5.05225 2.12114 4.95968C2.14922 4.86115 2.17381 4.7749 2.27788 4.67276C2.43071 4.52276 2.58981 4.49908 2.78149 4.47055C2.84299 4.46139 2.90784 4.45174 2.97691 4.43726C3.09708 4.41206 3.18502 4.37284 3.27419 4.33307C3.357 4.29614 3.44087 4.25873 3.55259 4.23166C3.63586 4.21148 3.69788 4.20819 3.75787 4.20501C3.86502 4.19933 3.96568 4.194 4.16938 4.09335C4.52904 3.91563 4.81982 3.82793 5.02542 3.94008C5.13134 3.99786 5.09222 4.1657 5.04767 4.35684C5.02072 4.47249 4.99178 4.59667 4.99178 4.71014C4.99178 4.9419 5.1114 5.22227 5.1114 5.22227C5.1114 5.22227 4.70535 5.33202 4.48712 5.4802C4.26161 5.63333 4.0049 5.98485 4.0049 5.98485Z" fill="#FF7800"/>
</svg>
