<svg width="16" height="16" viewBox="0 0 16 16" fill="none" xmlns="http://www.w3.org/2000/svg">
<rect x="1" y="1" width="14" height="14" fill="#F80000"/>
<path fill-rule="evenodd" clip-rule="evenodd" d="M2 8.00319C2 10.2123 3.70002 12 5.79492 12H10.2057C12.3012 12 14 10.2123 14 8.00319C14 5.79409 12.3012 4 10.2057 4H5.79492C3.70002 4 2 5.79409 2 8.00319ZM12.5641 8.00319C12.5641 9.43336 11.4648 10.589 10.1076 10.589H5.89241C4.53579 10.589 3.43594 9.43336 3.43594 8.00319C3.43594 6.57302 4.53579 5.41101 5.89241 5.41101H10.1076C11.4648 5.41101 12.5641 6.57302 12.5641 8.00319Z" fill="white"/>
</svg>
