<svg width="16" height="16" viewBox="0 0 16 16" fill="none" xmlns="http://www.w3.org/2000/svg">
<path d="M8.31684 1C9.81674 1.41716 11.1833 2.4684 11.7499 3.75323C12.6165 5.83903 12.4165 8.47545 11.4666 10.044C10.6667 11.3288 9.43342 12.013 8.01686 11.9963C5.81704 11.9796 4.03385 10.2275 4.01718 8.02492C4.01718 5.82234 5.75037 4.00353 8.01686 4.00353C8.3835 4.00353 8.91215 4.05438 9.51211 4.30467C9.51211 4.30467 9.08078 4.0492 7.97306 3.87759C4.78997 3.46044 1.03408 5.8724 1.90068 11.4289C3.10058 13.5648 5.4004 15.0165 8.01686 14.9999C11.8666 14.9831 15.0164 11.8294 14.9996 7.95818C14.9996 4.25382 11.9832 1.10012 8.31684 1Z" fill="url(#paint0_linear_2471_34080)"/>
<path d="M10.9334 3.95354C10.4001 2.83556 9.30018 1.95119 7.95028 1.60078C7.65029 1.51734 7.33365 1.48397 6.98368 1.46729C6.46706 1.46729 5.9671 1.53403 5.45047 1.66752C4.16723 2.05131 3.2673 2.80219 2.73401 3.38621C2.05073 4.17046 1.60077 4.9881 1.33412 5.80572C1.33412 5.8224 1.31745 5.83909 1.31745 5.87247C1.30079 5.93921 1.23413 6.13945 1.23413 6.18951C1.21746 6.22287 1.21746 6.27293 1.2008 6.30631C1.18413 6.37305 1.16747 6.4398 1.1508 6.50655C1.1508 6.52323 1.1508 6.53992 1.13414 6.5566C0.700836 8.70913 1.42065 10.6408 1.85395 11.3583C1.96233 11.5378 2.05133 11.6875 2.14052 11.8249C1.15726 6.48528 3.98391 3.93685 7.20034 3.87012C8.88353 3.83673 10.5667 4.52087 11.3833 5.88915C11.3333 5.13827 11.2834 4.72111 10.9334 3.95354Z" fill="url(#paint1_linear_2471_34080)"/>
<defs>
<linearGradient id="paint0_linear_2471_34080" x1="12.5837" y1="1" x2="2.36394" y2="9.99701" gradientUnits="userSpaceOnUse">
<stop stop-color="#E859FF"/>
<stop offset="0.403975" stop-color="#A000F0"/>
<stop offset="1" stop-color="#8B01D0"/>
</linearGradient>
<linearGradient id="paint1_linear_2471_34080" x1="6.19179" y1="-0.813329" x2="12.4032" y2="5.49106" gradientUnits="userSpaceOnUse">
<stop offset="0.0354358" stop-color="#E762F5"/>
<stop offset="0.512854" stop-color="#9913D4"/>
<stop offset="1" stop-color="#680AB4"/>
</linearGradient>
</defs>
</svg>
