<svg width="16" height="16" viewBox="0 0 16 16" fill="none" xmlns="http://www.w3.org/2000/svg">
<path d="M5.99957 1C5.44728 1 4.99957 1.44772 4.99957 2V3.07482L4.12078 2.45949C3.66838 2.14271 3.04483 2.25266 2.72805 2.70506C2.41128 3.15747 2.52122 3.78101 2.97363 4.09779L5.35986 5.76865C5.53324 5.9131 5.75625 6 5.99957 6C6.05107 6 6.10166 5.99611 6.15107 5.9886C6.41335 5.94973 6.65973 5.80728 6.82381 5.57295C6.96706 5.36837 7.02305 5.12879 6.99957 4.89842V2C6.99957 1.44772 6.55185 1 5.99957 1Z" fill="#40B6E0"/>
<path d="M9.99939 1C9.44711 1 8.99939 1.44772 8.99939 2V5C8.99939 5.55228 9.44711 6 9.99939 6C10.2299 6 10.4422 5.92199 10.6114 5.79093L13.033 4.09532C13.4854 3.77854 13.5953 3.155 13.2785 2.70259C12.9618 2.25019 12.3382 2.14024 11.8858 2.45701L10.9994 3.07769V2C10.9994 1.44772 10.5517 1 9.99939 1Z" fill="#40B6E0"/>
<path d="M1.27964 7.48831C0.792002 7.22903 0.606883 6.62353 0.866165 6.13589C1.12545 5.64825 1.73095 5.46313 2.21858 5.72241L4.77745 7.08299C4.99201 7.17039 5.17737 7.33234 5.2908 7.55496C5.42039 7.80929 5.43074 8.09302 5.34255 8.34244C5.32588 8.39017 5.30537 8.43723 5.2809 8.48325C5.16662 8.69818 4.98508 8.85434 4.77602 8.93958L2.18077 10.2619C1.68868 10.5127 1.0865 10.317 0.835769 9.82491C0.585037 9.33283 0.780696 8.73065 1.27279 8.47992L2.22862 7.99289L1.27964 7.48831Z" fill="#40B6E0"/>
<path d="M15.1328 6.13588C15.3921 6.62351 15.207 7.22901 14.7194 7.48829L13.7704 7.99288L14.7262 8.4799C15.2183 8.73063 15.414 9.33281 15.1632 9.8249C14.9125 10.317 14.3103 10.5126 13.8182 10.2619L11.223 8.93957C11.0139 8.85433 10.8324 8.69817 10.7181 8.48323C10.6936 8.43722 10.6731 8.39015 10.6565 8.34243C10.5683 8.09301 10.5786 7.80927 10.7082 7.55495C10.8216 7.33232 11.007 7.17037 11.2216 7.08297L13.7804 5.7224C14.2681 5.46312 14.8736 5.64824 15.1328 6.13588Z" fill="#40B6E0"/>
<path d="M4.11504 13.5419L4.9995 12.9226V14C4.9995 14.5523 5.44722 15 5.9995 15C6.55179 15 6.9995 14.5523 6.9995 14V11C6.9995 10.4477 6.55179 10 5.9995 10C5.76745 10 5.55385 10.0791 5.38417 10.2117L2.96789 11.9036C2.51549 12.2204 2.40554 12.8439 2.72232 13.2963C3.03909 13.7487 3.66264 13.8587 4.11504 13.5419Z" fill="#40B6E0"/>
<path d="M9.99951 10C9.44723 10 8.99951 10.4477 8.99951 11V14C8.99951 14.5523 9.44723 15 9.99951 15C10.5518 15 10.9995 14.5523 10.9995 14V12.9168L11.8904 13.5406C12.3428 13.8573 12.9663 13.7474 13.2831 13.295C13.5999 12.8426 13.4899 12.219 13.0375 11.9022L10.5801 10.1815C10.4281 10.0751 10.2568 10.0168 10.0843 10.0035C10.0563 10.0012 10.0281 10 9.99951 10Z" fill="#40B6E0"/>
<path d="M8.35307 6.35355C8.1578 6.15829 7.84122 6.15829 7.64596 6.35355L6.35306 7.64645C6.1578 7.84171 6.1578 8.15829 6.35306 8.35355L7.64596 9.64645C7.84122 9.84171 8.1578 9.84171 8.35307 9.64645L9.64596 8.35355C9.84122 8.15829 9.84122 7.84171 9.64596 7.64645L8.35307 6.35355Z" fill="#40B6E0"/>
</svg>
