<svg width="16" height="16" viewBox="0 0 16 16" fill="none" xmlns="http://www.w3.org/2000/svg">
<path fill-rule="evenodd" clip-rule="evenodd" d="M1.45037 8.8394L5.24456 10.447L6.05786 14.4576C6.17246 15.0227 6.88289 15.2146 7.26651 14.7841L10.0095 11.7059L14.2273 12.186C14.8114 12.2525 15.2124 11.6129 14.898 11.1162L12.694 7.63395L14.4211 3.93942C14.667 3.41326 14.2022 2.83371 13.6352 2.95964L9.58822 3.85845L6.52043 1.17999C6.09106 0.805111 5.4176 1.07314 5.36324 1.64054L4.98419 5.59702L1.38539 7.58192C0.873921 7.86402 0.912546 8.61152 1.45037 8.8394ZM3.73606 8.0685L6.65529 9.23677L7.3171 12.27L9.36579 9.89376L12.5074 10.1946L10.8543 7.55768L12.1342 4.71032L9.06382 5.45691L6.71316 3.39634L6.46866 6.49465L3.73606 8.0685Z" fill="#E25A1C"/>
</svg>
