<svg width="16" height="16" viewBox="0 0 16 16" fill="none" xmlns="http://www.w3.org/2000/svg">
<path fill-rule="evenodd" clip-rule="evenodd" d="M4.13664 2.65811C4.16416 2.72575 4.26985 2.8082 4.36075 2.89279C4.36075 2.89279 5.30166 3.81043 5.41584 3.94154C5.93596 4.54201 6.16222 5.13405 6.18337 5.95022C6.19605 6.47459 6.09665 6.93553 5.84928 7.47048C5.40949 8.43043 4.48125 9.48975 3.0498 10.6654L3.25916 10.5956C3.39448 10.4941 3.57844 10.3863 4.00976 10.1494C5.00563 9.6039 6.12627 9.10279 7.50064 8.58688C9.47967 7.84259 14.7784 6.65852 14.7784 6.65852C14.7784 6.65852 14.4633 6.18702 14.3238 6.01364C13.9178 5.51041 13.4252 5.10235 12.8226 4.76403C11.9937 4.301 10.9217 3.93944 9.56428 3.6709C9.30844 3.62013 8.746 3.52288 8.2893 3.45311C7.32089 3.30302 6.69502 3.1994 6.00575 3.08099C5.75838 3.03868 5.38833 2.97527 5.14306 2.92242C5.0162 2.89491 4.77306 2.83783 4.58277 2.77229C4.43054 2.71305 4.21062 2.65385 4.1641 2.47412C4.1641 2.47412 4.09225 2.54816 4.13664 2.65811ZM5.61036 3.33682C5.62519 3.35163 5.95422 4.21486 5.95422 4.21486C5.95422 4.21486 5.85402 4.06582 5.55195 3.72488C5.2515 3.38577 4.9998 3.12419 4.9998 3.15287C4.9998 3.15287 5.59553 3.32201 5.61036 3.33682ZM7.16735 3.60956L6.23583 4.35803C6.23583 4.35803 5.98696 3.41327 5.98696 3.40906C5.99969 3.41118 7.16735 3.60956 7.16735 3.60956ZM7.73957 5.04524C7.73957 5.04524 6.39484 4.64774 6.39484 4.64352C6.39484 4.63081 7.56194 3.63282 7.58099 3.63918L7.73957 5.04524ZM8.99765 3.8802C9.29157 3.93728 9.71866 4.0261 9.74402 4.03669C9.75671 4.0409 9.7123 4.06627 9.57062 4.12969C9.01244 4.38133 8.59799 4.60754 8.18573 4.88244C8.07789 4.95433 7.98696 5.01352 7.98485 5.01352C7.98275 5.01352 7.98063 4.95222 7.98063 4.87821C7.98063 4.47648 7.90028 4.07051 7.75224 3.72798C7.73745 3.69415 7.72476 3.66244 7.72688 3.66029C7.73324 3.65399 8.60225 3.80407 8.99765 3.8802ZM9.92796 4.38344C9.85185 4.69849 9.64676 5.1658 9.39518 5.60557C9.35074 5.6838 9.31057 5.74724 9.30631 5.74935C9.30213 5.75145 9.24503 5.71972 9.17947 5.68167C8.93421 5.53789 8.65512 5.40258 8.35063 5.2757C8.26608 5.23977 8.19206 5.21014 8.18994 5.20595C8.17511 5.19325 8.85597 4.74288 9.21542 4.52721C9.50087 4.35384 9.96602 4.09587 9.97448 4.10434C9.98084 4.11068 9.95333 4.28196 9.92796 4.38344ZM11.9971 4.82112C11.9971 4.82112 12.0485 4.84438 12.0742 4.85602C12.0999 4.86765 12.1514 4.89092 12.1514 4.89092L12.0436 4.91627C11.1344 5.12558 10.666 5.28621 9.91534 5.59067C9.85402 5.61604 9.79904 5.63719 9.79485 5.63719C9.7906 5.63719 9.81175 5.58856 9.83924 5.52934C10.0655 5.04938 10.3559 4.24182 10.3559 4.24182C10.3559 4.24182 11.6249 4.65197 11.9971 4.82112ZM7.43942 5.36874C7.43942 5.37085 6.47692 6.31599 6.47692 6.31599C6.47692 6.31599 6.39209 5.01141 6.39421 5.00931C6.39421 5.00931 7.43942 5.35604 7.43942 5.36874ZM12.2559 5.3645C12.1291 5.54634 10.8118 6.98015 10.8118 6.98015C10.8118 6.98015 10.2324 6.45977 9.89623 6.18068C9.8328 6.1278 9.76306 6.07072 9.73979 6.0538C9.71653 6.03689 9.69749 6.01998 9.69749 6.01787C9.69749 6.01154 10.0569 5.9034 10.3297 5.79348C10.8076 5.59894 11.4587 5.38907 11.9472 5.23893C12.2031 5.1586 12.4758 5.05355 12.4801 5.0578C12.4801 5.0578 12.3447 5.23977 12.2559 5.3645ZM12.7636 5.16766C12.7636 5.16766 13.4054 5.6328 13.803 6.02186C13.915 6.13182 14.1769 6.42385 14.1727 6.42596C13.9806 6.42596 11.2705 7.04759 11.2705 7.04759C11.2705 7.04759 11.2476 7.01588 11.3513 6.91652C11.994 6.297 12.7636 5.16766 12.7636 5.16766ZM8.44578 5.77895C8.63608 5.87406 8.92154 6.02633 8.93633 6.039C8.93843 6.0411 8.83692 6.09397 8.71223 6.1553C8.31469 6.35405 7.43299 6.86999 7.43088 6.86999C7.42242 6.86999 7.99347 5.54004 7.9998 5.54004C7.9998 5.54004 8.23858 5.67537 8.44578 5.77895ZM7.01011 7.02806L6.4998 6.74781C6.4998 6.74781 7.6477 5.58442 7.65403 5.59076C7.66039 5.59711 7.01011 7.02806 7.01011 7.02806ZM10.057 6.88899C10.1775 6.98835 10.451 7.21037 10.451 7.21037L7.97137 8.08088C7.97137 8.08088 8.89825 6.94819 9.26617 6.39633L9.3402 6.28218C9.3402 6.28218 9.84339 6.70927 10.057 6.88899ZM8.3721 7.03489C8.16489 7.30977 7.41398 8.27234 7.40973 8.27446C7.40337 8.27657 7.16444 7.42218 7.17505 7.41162C7.21521 7.37566 7.8305 6.94395 8.21953 6.73464C8.48172 6.5951 8.89188 6.38789 8.89827 6.39213C8.90248 6.39634 8.5455 6.80441 8.3721 7.03489ZM6.38404 7.04759C6.3904 7.04759 6.69929 7.23477 6.69929 7.23477C6.69929 7.23477 5.83675 8.11747 5.85787 8.08576C5.99744 7.8722 6.37983 7.04759 6.38404 7.04759ZM7.01132 8.37968C7.01132 8.37968 5.97407 8.79815 5.65052 8.94613C5.55963 8.98844 5.03736 9.23389 5.1177 9.17467C5.74995 8.71587 6.7267 7.65784 6.83034 7.60579L7.01132 8.37968Z" fill="#F26522"/>
<path fill-rule="evenodd" clip-rule="evenodd" d="M5.90877 1.47814C6.39295 1.28153 7.14359 1.01089 7.19011 1.0172C7.21334 1.0193 7.2176 1.0278 7.25355 1.17157C7.31911 1.4084 7.43752 1.73821 7.56226 2.02366C7.72294 2.39157 7.99782 2.93709 8.24733 3.3769L8.29004 3.4531C8.28988 3.45307 8.29021 3.45312 8.29004 3.4531C8.13017 3.42832 7.97913 3.40473 7.8361 3.38221C7.80422 3.33183 7.73112 3.19683 7.66618 3.07688C7.60407 2.96217 7.5494 2.8612 7.54537 2.8612C7.5548 2.87063 7.19021 3.1023 6.95258 3.24024C6.76481 3.20939 6.58546 3.17945 6.40723 3.14931C6.47073 3.11817 6.89419 2.88489 7.08495 2.76242C7.29497 2.62758 7.47635 2.47403 7.47635 2.47403C7.46654 2.47403 7.45329 2.47429 7.43675 2.4746C7.30368 2.47717 6.9579 2.48385 6.47952 2.39505C6.02513 2.3107 5.55059 2.16769 5.34535 2.09797L6.29995 3.12526V3.13113C6.20247 3.11457 6.10488 3.09789 6.00599 3.0809C5.93165 3.06818 5.84624 3.05356 5.75645 3.0379C5.75004 3.02802 5.73098 3.00448 5.70754 2.97553L5.69524 2.96033C5.65926 2.91594 5.03342 2.24852 5.03342 2.24852C5.03342 2.24852 4.46246 2.56533 4.42836 2.71322C4.31141 2.66472 4.19792 2.59868 4.16501 2.47654C4.21108 2.40892 4.33421 2.28972 4.43503 2.21818C4.74798 1.99833 5.25541 1.74459 5.90877 1.47814ZM5.54666 1.91266C5.54666 1.91266 7.03067 2.28142 7.31888 2.20276C7.35597 2.19263 7.01584 1.33803 7.01159 1.33594C6.95241 1.3465 5.53821 1.90421 5.54666 1.91266Z" fill="#6C707E"/>
<path fill-rule="evenodd" clip-rule="evenodd" d="M3.07282 10.6577C3.06149 10.6668 3.05038 10.6756 3.0395 10.6843C2.86825 10.8196 2.61452 11.0733 2.48555 11.234C2.29313 11.475 2.14089 11.7309 2.07534 11.9275C1.95904 12.2828 2.01616 12.6422 2.24028 12.9742C2.52784 13.3971 3.10085 13.8284 3.76898 14.1223C4.10942 14.2724 4.68242 14.4648 5.11374 14.5727C5.83051 14.7545 7.21758 14.9512 7.98086 14.9808C8.13519 14.9871 8.34242 14.9871 8.35085 14.9808C8.36779 14.9702 8.4862 14.744 8.62366 14.4628C9.09306 13.5049 9.43135 12.6063 9.61529 11.8388C9.72524 11.3736 9.81192 10.7541 9.86899 10.0204C9.88382 9.8153 9.89014 9.12812 9.87745 8.89551C9.85841 8.51493 9.82457 8.20625 9.77176 7.90388C9.77086 7.89915 9.77003 7.89446 9.76927 7.88987C9.65213 7.92182 9.53622 7.95379 9.42196 7.9857C9.49582 8.2355 9.56276 9.03715 9.56276 9.03715C9.56276 9.03715 8.43314 8.41921 8.28076 8.32178C8.14616 8.36411 8.01779 8.40575 7.89682 8.44649C8.12668 8.58737 9.23133 9.26227 9.45836 9.36067C9.53658 9.3945 7.73773 10.2001 7.73773 10.2001C7.73773 10.2001 7.83287 8.72799 7.85169 8.46177C7.72587 8.50457 7.60847 8.54633 7.50089 8.58679C7.48247 8.5937 7.4641 8.60061 7.44577 8.60752C7.44856 8.80076 7.41827 9.19949 7.39385 9.52101C7.37486 9.77105 7.35941 9.9744 7.36583 9.99811C7.32897 9.9565 6.88135 9.25107 6.66962 8.90951C6.54786 8.95848 6.42818 9.00743 6.31046 9.05641C6.41907 9.21918 7.16762 10.3586 7.16762 10.3586C7.16762 10.3586 5.4146 10.9609 5.29562 11C5.27798 11.0058 6.15023 9.32117 6.28105 9.06866C6.08437 9.15072 5.89317 9.23288 5.70691 9.31538C5.66342 9.39884 5.596 9.52674 5.51791 9.67492C5.26868 10.1478 4.91063 10.8271 4.8739 10.9278C4.83723 10.9003 4.6857 10.6936 4.65704 10.5426C4.62531 10.3777 4.63167 10.0901 4.66763 9.91252L4.66988 9.90177C4.68408 9.83383 4.69019 9.80464 4.70393 9.78654C4.54412 9.86632 4.38782 9.94681 4.23458 10.0282C4.23396 10.041 4.23224 10.0578 4.22861 10.0795C4.22015 10.1345 4.20959 10.236 4.20539 10.3058C4.19234 10.5433 4.26647 10.6807 4.37067 10.874C4.40192 10.9319 4.43587 10.9949 4.47098 11.0671C4.51327 11.1538 4.54498 11.2278 4.54498 11.2278C4.54498 11.2278 2.5496 11.7724 2.5411 11.7745C2.52633 11.7788 2.86877 11.179 3.1986 10.8365C3.35112 10.6781 3.77634 10.3357 4.0311 10.1378C4.02406 10.1417 4.01703 10.1455 4.01001 10.1494C3.57868 10.3862 3.39472 10.494 3.25941 10.5955L3.07282 10.6577ZM4.8739 10.9278C4.86823 10.9433 4.87021 10.945 4.88141 10.9301C4.8804 10.9316 4.8778 10.9307 4.8739 10.9278ZM7.36583 9.99811C7.36642 10.0003 7.3672 10.001 7.36818 9.99997C7.36796 10.0002 7.36716 9.99961 7.36583 9.99811ZM9.42655 11.0206L9.55823 9.80028C9.55823 9.80028 8.01345 10.4835 8.00006 10.497L9.42655 11.0206ZM7.72714 10.6377C7.66583 10.6018 7.61509 10.5743 7.61298 10.5764C7.6121 10.5773 7.60982 10.5838 7.60626 10.594C7.60113 10.6087 7.59336 10.6309 7.58334 10.6547C7.44803 11.0733 7.18159 11.6759 6.91729 12.1707C6.86869 12.2616 6.83061 12.3356 6.83061 12.3377C6.83061 12.3398 6.85387 12.3335 6.87924 12.3229C6.90465 12.3124 7.03996 12.2616 7.17741 12.2109C8.12253 11.8577 9.04653 11.4729 9.32773 11.3164L9.3954 11.2784L9.34674 11.2678C8.80971 11.1431 8.17963 10.8999 7.72714 10.6377ZM7.24084 10.7836C7.262 10.7329 7.27894 10.6885 7.27679 10.6864C7.27468 10.6864 7.20701 10.7139 7.12453 10.7477C6.54304 10.9972 5.95738 11.2002 5.26807 11.3884L5.07568 11.4412L5.11375 11.4878C5.3738 11.8155 5.77129 12.1538 6.21957 12.4287C6.29569 12.4752 6.35914 12.5133 6.36122 12.5133C6.36336 12.5133 6.42892 12.4012 6.50714 12.2616C6.81582 11.7161 7.0569 11.2298 7.24084 10.7836ZM8.8761 13.0289C8.8761 13.0289 9.06736 12.583 9.14136 12.3187C9.23017 12.0037 9.34575 11.6844 9.34575 11.6844C9.3452 11.6844 9.32387 11.6939 9.2856 11.7108C9.09438 11.7956 8.48087 12.0675 7.92541 12.2835C7.40978 12.4839 6.90879 12.63 6.75192 12.6757C6.71918 12.6853 6.70132 12.6905 6.70167 12.6908C6.71435 12.7014 8.8761 13.0289 8.8761 13.0289ZM3.05087 13.1926C3.07173 13.2079 3.08933 13.2208 3.10354 13.2326C3.10354 13.2326 4.5471 11.585 4.54287 11.5808C4.5421 11.5808 4.26248 11.6737 3.90724 11.7917C3.29462 11.9951 2.45695 12.2734 2.43688 12.2787C2.41577 12.285 2.41577 12.3358 2.43903 12.4373C2.46047 12.5333 2.58633 12.74 2.72996 12.9021C2.87078 13.061 2.97974 13.1406 3.05087 13.1926ZM4.90623 11.9018L4.83859 11.8257C4.83859 11.8257 3.64634 13.1053 3.4476 13.3928L3.38629 13.4816L3.42433 13.5091C3.4455 13.5239 3.46455 13.5366 3.46665 13.5366C3.46874 13.5366 3.74575 13.4414 4.08192 13.323C4.68028 13.1158 5.7888 12.657 5.80356 12.6465C5.80781 12.6443 5.75708 12.6105 5.6894 12.5724C5.31304 12.3526 5.21074 12.2422 4.90623 11.9018ZM8.68077 13.414C8.37416 13.3886 6.55373 13.0453 6.56402 13.0349C6.56402 13.037 5.62943 14.2041 5.55175 14.2772C5.54836 14.2787 5.54662 14.2798 5.54662 14.2804C5.54662 14.2815 5.54838 14.2804 5.55175 14.2772C5.65112 14.2341 7.17217 13.8387 8.07832 13.6032C8.46465 13.5028 8.73986 13.4313 8.74419 13.4288C8.75266 13.4224 8.72728 13.4182 8.68077 13.414ZM5.02454 14.1428C5.02454 14.1428 6.13076 12.9044 6.12865 12.9023C6.12747 12.9011 5.42797 13.1883 4.81687 13.4392C4.3375 13.6361 3.91246 13.8106 3.92169 13.806C3.87957 13.8165 5.02454 14.1428 5.02454 14.1428ZM8.10352 14.6774C8.11836 14.6796 8.56446 13.8279 8.55389 13.8068C8.4947 13.8152 6.12455 14.4526 6.12455 14.4526C6.12455 14.4526 8.06758 14.6753 8.10352 14.6774Z" fill="#6C707E"/>
</svg>
