<svg width="16" height="16" viewBox="0 0 16 16" fill="none" xmlns="http://www.w3.org/2000/svg">
<path d="M7.5826 9.82418C6.58461 8.82619 6.58461 7.20812 7.5826 6.21013L9.11003 4.6827C10.108 3.68471 11.7261 3.68471 12.7241 4.6827L14.2515 6.21012C15.2495 7.20812 15.2495 8.82619 14.2515 9.82418L12.7241 11.3516C11.7261 12.3496 10.108 12.3496 9.11003 11.3516L7.5826 9.82418Z" fill="url(#paint0_linear_1228_29899)"/>
<path d="M1.92225 10.2241C0.692583 8.99444 0.692582 7.00075 1.92225 5.77108L3.90096 3.79237C5.13063 2.5627 7.12432 2.5627 8.35399 3.79237L10.3327 5.77108C11.5624 7.00075 11.5624 8.99444 10.3327 10.2241L8.35399 12.2028C7.12432 13.4325 5.13063 13.4325 3.90096 12.2028L1.92225 10.2241Z" fill="url(#paint1_linear_1228_29899)"/>
<path d="M9.17827 4.61938L10.3326 5.77369C11.5622 7.00336 11.5622 8.99705 10.3326 10.2267L9.15811 11.4012C9.14189 11.3858 9.12582 11.3701 9.10991 11.3542L7.58248 9.82678C6.58449 8.82879 6.58448 7.21072 7.58248 6.21273L9.1099 4.6853C9.13238 4.66282 9.15517 4.64085 9.17827 4.61938Z" fill="#FF0D2A"/>
<defs>
<linearGradient id="paint0_linear_1228_29899" x1="15" y1="7.87012" x2="1" y2="7.87012" gradientUnits="userSpaceOnUse">
<stop stop-color="#FF0D2A"/>
<stop offset="0.416667" stop-color="#FF0D2A" stop-opacity="0.55"/>
<stop offset="1" stop-color="#FF0D2A"/>
</linearGradient>
<linearGradient id="paint1_linear_1228_29899" x1="15" y1="7.87012" x2="1" y2="7.87012" gradientUnits="userSpaceOnUse">
<stop stop-color="#FF0D2A"/>
<stop offset="0.416667" stop-color="#FF0D2A" stop-opacity="0.55"/>
<stop offset="1" stop-color="#FF0D2A"/>
</linearGradient>
</defs>
</svg>
