<svg width="16" height="16" viewBox="0 0 16 16" fill="none" xmlns="http://www.w3.org/2000/svg">
<g clip-path="url(#clip0_1228_29960)">
<path d="M6.25573 14.1836C6.49144 14.0273 5.87399 14.0862 5.82274 13.9812C5.57829 13.9608 5.33636 13.917 5.10025 13.8505C4.65701 13.7378 3.60657 13.0281 3.4964 12.3619C3.38624 11.6958 3.4964 10.402 3.96526 9.6436C4.26471 9.1789 4.6499 8.77545 5.10025 8.45481C5.10025 8.45481 4.18559 6.27963 4.10617 4.63736C4.02675 2.99508 4.1446 0.0538514 5.23091 4.83932e-05C6.31722 -0.0537546 6.12507 2.68508 5.95341 4.4657C5.84327 5.64874 5.87909 8.00654 5.95341 9.19237C7.89425 8.6262 8.85327 9.09993 8.85327 9.09993C8.85327 9.09993 8.88441 7.56774 9.29688 7.65563L8.64653 7.43857C8.80189 6.63388 9.20516 4.96324 10.0373 3.80725C11.1697 2.23416 12.3432 0.61494 13.1118 1.07355C13.8804 1.53215 12.9043 3.17187 12.2253 4.02503C11.5464 4.87819 10.3678 6.15922 9.97583 6.84328C9.71928 7.2987 9.49249 7.77025 9.29688 8.25497C9.99622 8.61427 10.5685 9.17943 10.9366 9.87419C11.4669 10.9707 11.5182 12.3312 11.2312 12.9051C11.0817 13.1711 10.8754 13.4008 10.627 13.5779C10.3785 13.7551 10.0941 13.8753 9.79392 13.9299C9.45573 13.9555 8.02355 14.3091 8.02355 14.3091L6.25573 14.1836Z" fill="#515151"/>
<path d="M8.75586 7.92708C8.75586 7.92708 9.60902 5.6981 10.3751 4.44269C11.1411 3.18729 12.1685 2.24189 12.4913 2.43405C12.8141 2.6262 11.8303 3.80474 10.9746 4.94998C10.2719 5.96443 9.63519 7.02303 9.06843 8.11924L8.75586 7.92708Z" fill="#DD00A1"/>
<path d="M5.33299 8.31141L5.57638 8.11926C5.57638 8.11926 5.54308 5.89027 5.57638 4.53239C5.60969 3.1745 5.68143 1.48099 5.22794 1.49892C4.77446 1.51685 4.45933 2.81838 4.63611 4.67074C4.76682 5.90155 4.99992 7.11933 5.33299 8.31141Z" fill="#DD00A1"/>
<path d="M7.56659 14.1194C9.56171 14.1194 11.1791 12.954 11.1791 11.5164C11.1791 10.0788 9.56171 8.91333 7.56659 8.91333C5.57147 8.91333 3.9541 10.0788 3.9541 11.5164C3.9541 12.954 5.57147 14.1194 7.56659 14.1194Z" fill="#E8F5F5"/>
<path d="M4.56637 13.0947C4.84088 13.0947 5.06341 12.8721 5.06341 12.5976C5.06341 12.3231 4.84088 12.1006 4.56637 12.1006C4.29187 12.1006 4.06934 12.3231 4.06934 12.5976C4.06934 12.8721 4.29187 13.0947 4.56637 13.0947Z" fill="#F9D8D2"/>
<path d="M10.4394 13.0947C10.7139 13.0947 10.9365 12.8721 10.9365 12.5976C10.9365 12.3231 10.7139 12.1006 10.4394 12.1006C10.1649 12.1006 9.94238 12.3231 9.94238 12.5976C9.94238 12.8721 10.1649 13.0947 10.4394 13.0947Z" fill="#F9D8D2"/>
<path d="M8.32768 12.554C8.31881 12.5462 8.30743 12.542 8.29565 12.542C8.28388 12.542 8.2725 12.5462 8.26363 12.554C8.26363 12.554 8.11759 12.8102 7.90238 12.8256C7.82954 12.8231 7.75795 12.806 7.69191 12.7751C7.62586 12.7443 7.56673 12.7005 7.51807 12.6462V12.2978C7.65642 12.2235 7.87932 11.9929 7.87932 11.9135C7.86035 11.8281 7.81081 11.7525 7.74003 11.7011C7.66925 11.6497 7.58211 11.6259 7.49501 11.6342C7.23881 11.6342 7.05947 11.8007 7.05947 11.9391C7.05947 12.0774 7.34129 12.2542 7.42071 12.308V12.6795C7.38138 12.7316 7.33126 12.7746 7.27377 12.8056C7.21629 12.8365 7.1528 12.8547 7.08765 12.8589C6.88268 12.8589 6.72896 12.5822 6.72896 12.5796C6.72297 12.5686 6.71297 12.5603 6.70104 12.5565C6.68911 12.5527 6.67617 12.5536 6.66491 12.5591C6.65473 12.5646 6.64698 12.5737 6.64318 12.5846C6.63939 12.5955 6.63983 12.6074 6.64441 12.618C6.64441 12.6334 6.82632 12.9485 7.08765 12.9485C7.16098 12.946 7.233 12.9284 7.29915 12.8966C7.3653 12.8649 7.42414 12.8197 7.47196 12.7641C7.58024 12.8742 7.7252 12.9408 7.87932 12.9511H7.91519C8.0074 12.9335 8.09454 12.8957 8.17032 12.8403C8.24609 12.7849 8.3086 12.7134 8.3533 12.6308C8.3616 12.6222 8.36623 12.6108 8.36623 12.5988C8.36623 12.5869 8.3616 12.5754 8.3533 12.5668C8.34589 12.5606 8.33711 12.5562 8.32768 12.554Z" fill="#10110E"/>
<path d="M5.57889 10.9783C5.50186 10.9783 5.42657 11.0011 5.36253 11.0439C5.29849 11.0867 5.24857 11.1475 5.2191 11.2187C5.18962 11.2898 5.18191 11.3681 5.19694 11.4437C5.21196 11.5192 5.24905 11.5886 5.30352 11.6431C5.35798 11.6975 5.42737 11.7346 5.50291 11.7496C5.57845 11.7647 5.65675 11.757 5.72791 11.7275C5.79907 11.698 5.85989 11.6481 5.90269 11.5841C5.94548 11.52 5.96832 11.4447 5.96832 11.3677C5.96833 11.2653 5.928 11.167 5.85607 11.0941C5.78414 11.0212 5.6864 10.9796 5.58401 10.9783H5.57889ZM5.68137 11.3395C5.66008 11.3395 5.63928 11.3332 5.62158 11.3214C5.60389 11.3096 5.5901 11.2928 5.58195 11.2731C5.57381 11.2534 5.57168 11.2318 5.57583 11.2109C5.57998 11.19 5.59023 11.1709 5.60528 11.1558C5.62033 11.1408 5.6395 11.1305 5.66037 11.1264C5.68125 11.1222 5.70288 11.1244 5.72255 11.1325C5.74221 11.1406 5.75901 11.1544 5.77084 11.1721C5.78266 11.1898 5.78897 11.2106 5.78897 11.2319C5.78931 11.246 5.78687 11.2601 5.78177 11.2733C5.77668 11.2865 5.76903 11.2985 5.75928 11.3088C5.74952 11.319 5.73785 11.3272 5.72492 11.3329C5.71199 11.3386 5.69806 11.3417 5.68393 11.3421L5.68137 11.3395Z" fill="#10110E"/>
<path d="M9.40859 10.9783C9.33157 10.9778 9.25613 11.0001 9.19181 11.0425C9.12749 11.0849 9.07717 11.1454 9.04723 11.2163C9.01729 11.2873 9.00906 11.3655 9.02359 11.4412C9.03812 11.5168 9.07475 11.5864 9.12886 11.6413C9.18296 11.6961 9.2521 11.7336 9.32755 11.7491C9.40299 11.7647 9.48134 11.7575 9.55269 11.7285C9.62404 11.6995 9.68519 11.6499 9.7284 11.5862C9.77161 11.5224 9.79495 11.4473 9.79546 11.3703C9.79579 11.3191 9.78606 11.2684 9.7668 11.221C9.74754 11.1737 9.71913 11.1306 9.68321 11.0942C9.64728 11.0578 9.60454 11.0288 9.55742 11.0089C9.5103 10.989 9.45973 10.9786 9.40859 10.9783ZM9.52388 11.3395C9.50975 11.3399 9.49569 11.3374 9.4825 11.3323C9.46931 11.3272 9.45726 11.3196 9.44703 11.3098C9.4368 11.3001 9.42859 11.2884 9.42287 11.2755C9.41716 11.2625 9.41404 11.2486 9.41371 11.2345C9.41368 11.2061 9.42458 11.1789 9.44415 11.1583C9.46371 11.1378 9.49043 11.1256 9.51876 11.1243C9.53289 11.124 9.54695 11.1264 9.56013 11.1315C9.57332 11.1366 9.58537 11.1443 9.5956 11.154C9.60583 11.1638 9.61404 11.1754 9.61976 11.1884C9.62548 11.2013 9.62859 11.2152 9.62892 11.2294C9.62926 11.2432 9.62688 11.2569 9.62192 11.2698C9.61695 11.2826 9.6095 11.2944 9.59998 11.3044C9.59046 11.3144 9.57907 11.3224 9.56645 11.328C9.55383 11.3336 9.54024 11.3366 9.52644 11.337L9.52388 11.3395Z" fill="#10110E"/>
<path fill-rule="evenodd" clip-rule="evenodd" d="M11.941 8.3471V10.0688C12.078 10.1056 12.1996 10.1855 12.2877 10.2967C12.3758 10.4078 12.4258 10.5444 12.4303 10.6863V12.0006C12.421 12.1864 12.3384 12.3609 12.2005 12.4858C12.0626 12.6107 11.8808 12.6758 11.695 12.6667H11.4388C11.2421 13.1686 10.9264 13.6152 10.519 13.9682L10.8521 14.2731C10.8927 14.3079 10.9179 14.3573 10.9223 14.4106C10.9266 14.4638 10.9096 14.5167 10.8752 14.5575C10.1245 15.4799 8.89469 15.9923 7.50862 15.9923C6.12255 15.9923 4.89533 15.4619 4.14465 14.5575C4.12765 14.5375 4.11475 14.5143 4.10671 14.4893C4.09867 14.4643 4.09563 14.438 4.09777 14.4118C4.09991 14.3856 4.10719 14.3602 4.11919 14.3368C4.13119 14.3134 4.14768 14.2927 4.16771 14.2757L4.49821 13.9759C4.0898 13.6207 3.7741 13.1714 3.57844 12.6667H3.34529C3.15964 12.6758 2.97792 12.6112 2.83971 12.4869C2.70151 12.3626 2.61801 12.1887 2.60742 12.0031V10.6863C2.61931 10.5014 2.70328 10.3286 2.84126 10.2049C2.97925 10.0813 3.16023 10.0168 3.34529 10.0252H3.51695C4.01911 8.23694 5.54097 7.13525 7.51887 7.13525C9.49677 7.13525 11.0109 8.24718 11.5234 10.0252H11.5746V8.3471C11.4395 8.31657 11.3181 8.24273 11.2288 8.13681C11.1395 8.0309 11.0873 7.89872 11.0801 7.76039C11.0979 7.59377 11.1767 7.43961 11.3014 7.32758C11.426 7.21556 11.5876 7.15359 11.7552 7.15359C11.9228 7.15359 12.0845 7.21556 12.2091 7.32758C12.3337 7.43961 12.4125 7.59377 12.4303 7.76039C12.4242 7.89828 12.3731 8.03036 12.2847 8.13635C12.1963 8.24234 12.0755 8.31638 11.941 8.3471ZM10.8342 11.7264C10.8342 10.2481 9.34818 9.04398 7.51887 9.04398V9.03117C5.68188 9.03117 4.20358 10.2481 4.20358 11.7136C4.20358 13.3226 5.87147 14.0323 7.51887 14.0323C9.16627 14.0323 10.8342 13.3277 10.8342 11.7264ZM7.51887 8.81083C7.10362 8.81317 6.69067 8.87265 6.29164 8.98762V7.64766C6.69098 7.53563 7.10412 7.48043 7.51887 7.48369C7.93445 7.48042 8.34844 7.53562 8.74865 7.64766V8.9953C8.35057 8.87128 7.93582 8.80907 7.51887 8.81083ZM12.0639 11.5702H11.5746V11.314C11.5746 10.9877 11.5411 10.6623 11.4747 10.3429H11.6848C11.7761 10.3366 11.8663 10.3668 11.9354 10.4268C12.0046 10.4868 12.0471 10.5718 12.0537 10.6632L12.0639 11.5702ZM11.4388 12.3439H11.695V12.3413H11.7104C11.7555 12.342 11.8002 12.3338 11.8422 12.3172C11.8841 12.3005 11.9223 12.2758 11.9546 12.2444C11.987 12.213 12.0129 12.1755 12.0307 12.1341C12.0486 12.0927 12.0581 12.0482 12.0588 12.0031V11.7854H11.5464C11.5234 11.9738 11.4875 12.1604 11.4388 12.3439ZM7.51886 15.6541C6.29164 15.6541 5.19764 15.2134 4.51102 14.4294L4.84408 14.1194C5.63144 14.6449 6.56233 14.9134 7.50861 14.888C8.4552 14.9158 9.3868 14.6471 10.1731 14.1194L10.519 14.4294C9.84008 15.2134 8.75633 15.6541 7.51886 15.6541ZM3.4657 11.3268C3.4661 11.0007 3.49872 10.6754 3.56306 10.3558H3.30685C3.221 10.3578 3.13943 10.3936 3.07992 10.4556C3.02041 10.5175 2.98778 10.6004 2.98916 10.6863V11.583H3.4657C3.46057 11.4976 3.46057 11.4121 3.4657 11.3268ZM3.48876 11.7854C3.51386 11.972 3.55066 12.1568 3.59893 12.3388H3.34272C3.25135 12.3451 3.1612 12.315 3.09204 12.2549C3.02288 12.1949 2.98035 12.1099 2.97379 12.0185V11.7854H3.48876ZM12.0639 7.7604C12.0639 7.91321 11.9263 8.0371 11.7565 8.0371C11.5867 8.0371 11.449 7.91321 11.449 7.7604C11.449 7.60758 11.5867 7.48369 11.7565 7.48369C11.9263 7.48369 12.0639 7.60758 12.0639 7.7604Z" fill="#515151"/>
</g>
<defs>
<clipPath id="clip0_1228_29960">
<rect width="16" height="16" fill="white"/>
</clipPath>
</defs>
</svg>
