<svg width="16" height="16" viewBox="0 0 16 16" fill="none" xmlns="http://www.w3.org/2000/svg">
<path fill-rule="evenodd" clip-rule="evenodd" d="M4 1C2.34315 1 1 2.34315 1 4V11C1 12.6569 2.34315 14 4 14H10.2809L11.5 15L15 15L13.1213 13.1213C13.6642 12.5784 14 11.8284 14 11V4C14 2.34315 12.6569 1 11 1H4ZM7.5 7C4 7 3 6 3 6V7C3 7 4 8 7.5 8C11 8 12 7 12 7V6C12 6 11 7 7.5 7ZM7.5 6C9.98528 6 12 5.32843 12 4.5C12 3.67157 9.98528 3 7.5 3C5.01472 3 3 3.67157 3 4.5C3 5.32843 5.01472 6 7.5 6ZM7.5 9C4 9 3 8 3 8V9C3 9 4 10 7.5 10C11 10 12 9 12 9V8C12 8 11 9 7.5 9ZM3 10C3 10 4 11 7.5 11C11 11 12 10 12 10V11C12 11 11 12 7.5 12C4 12 3 11 3 11V10Z" fill="#548AF7"/>
</svg>
