<svg width="16" height="16" viewBox="0 0 16 16" fill="none" xmlns="http://www.w3.org/2000/svg">
<path fill-rule="evenodd" clip-rule="evenodd" d="M11.6468 3.80221C10.6488 2.94452 9.37113 2.46969 8.04501 2.47341C6.57625 2.46929 5.16693 3.05217 4.13131 4.09207C3.08973 5.12617 2.50594 6.53347 2.51016 8.00004C2.50919 8.67806 2.63382 9.3504 2.87776 9.98313C2.51833 10.3386 2.17752 10.7123 1.85668 11.1028C1.66045 11.3424 1.4797 11.5941 1.31554 11.8567C1.22879 11.9945 1.15448 12.1397 1.09348 12.2907C1.05902 12.3746 1.03296 12.4617 1.01566 12.5507C0.992496 12.66 0.995059 12.7732 1.02315 12.8814C1.0301 12.9083 1.03993 12.9343 1.05246 12.9591L1.06027 12.9756C1.06321 12.9818 1.06647 12.9877 1.07004 12.9935C1.08657 13.0222 1.10587 13.0492 1.12767 13.0742C1.17624 13.1297 1.23635 13.1741 1.30382 13.2042C1.4068 13.2474 1.51773 13.2686 1.62941 13.2663C1.80299 13.2609 1.97504 13.2321 2.14093 13.1808C2.44251 13.0892 2.73645 12.9742 3.02004 12.8368C3.47335 12.6163 3.91511 12.3728 4.34359 12.1073C5.35877 13.0227 6.67846 13.5286 8.04631 13.5267C9.515 13.5307 10.9243 12.9478 11.96 11.908C13.0015 10.8739 13.5852 9.46662 13.5811 8.00004C13.5823 7.55703 13.5298 7.11945 13.4273 6.69593C13.3792 6.83708 13.3224 6.95032 13.2558 7.00814L12.9672 7.25889C13.0037 7.50317 13.0221 7.7513 13.0214 8.00134C13.0249 9.31987 12.5002 10.585 11.564 11.515C10.6328 12.4497 9.36581 12.9738 8.04533 12.9704C6.86991 12.9712 5.73237 12.5557 4.83494 11.7978C5.27154 11.5108 5.70298 11.2136 6.11842 10.911C6.68887 10.4903 7.14569 10.1382 7.55463 9.8027C8.00496 9.43795 8.46894 9.0423 8.93519 8.62455L8.99409 8.56961C9.40794 8.1834 9.83577 7.78353 10.2477 7.38106C10.2921 7.33691 10.2949 7.26607 10.2542 7.21851C10.2125 7.17144 10.1414 7.16451 10.0914 7.20258C9.68477 7.51647 9.28 7.84237 8.8862 8.15945C8.84073 8.19606 8.7954 8.23255 8.75024 8.2689L8.67927 8.32611C8.27258 8.64796 7.83272 8.98574 7.25574 9.42039L7.20366 9.45908L7.16668 9.48646C6.72236 9.81538 6.26421 10.1546 5.80356 10.474C5.27089 10.8479 4.8284 11.1454 4.41946 11.4041C3.5497 10.4844 3.06632 9.26662 3.06888 8.00167C3.06546 6.68321 3.59034 5.41815 4.52658 4.48836C5.45779 3.55353 6.72482 3.02945 8.04533 3.0329C9.04804 3.03021 10.0199 3.33171 10.8374 3.88626C11.0536 3.82695 11.3657 3.80654 11.6468 3.80221ZM3.9366 11.7035C3.54958 11.2768 3.23206 10.792 2.99562 10.2669C2.68565 10.6489 2.42127 10.9864 2.17218 11.3407C2.00101 11.5771 1.84464 11.8238 1.70398 12.0794C1.63729 12.1998 1.58004 12.3253 1.53271 12.4545C1.51178 12.5111 1.49651 12.5695 1.48713 12.6291C1.47952 12.6648 1.47952 12.7017 1.48713 12.7374C1.48822 12.739 1.48942 12.7407 1.49071 12.7422C1.49101 12.7422 1.49203 12.7427 1.49379 12.7436C1.49579 12.7446 1.49877 12.746 1.50276 12.7478C1.53944 12.7582 1.57772 12.762 1.61574 12.7588C1.74337 12.7495 1.8693 12.7241 1.9905 12.6831C2.26209 12.5924 2.52628 12.481 2.78073 12.3498C3.13856 12.1717 3.51788 11.9597 3.9366 11.7035Z" fill="white"/>
<path d="M15.0002 2.84269C15.0002 2.84269 13.6747 2.63137 13.2322 3.01531L12.4208 3.71947L12.3456 3.78449L12.3075 3.817C12.3075 3.817 10.9231 3.72532 10.6235 3.98507L10.3152 4.25295L10.2009 4.35048L10.0775 4.45777L10.0449 4.48507L10.6864 5.22174C10.4884 5.39339 10.6303 5.88006 11.0035 6.30855C11.3766 6.73703 11.8393 6.94509 12.0373 6.77312L12.6787 7.50979L12.6985 7.49256L12.948 7.27604L13.2563 7.00816C13.5558 6.74808 13.6574 5.36674 13.6574 5.36674L13.7343 5.30009L13.7968 5.24612L14.5825 4.56342C15.024 4.18338 15.0002 2.84269 15.0002 2.84269Z" fill="#ED5735"/>
</svg>
