<svg width="16" height="16" viewBox="0 0 16 16" fill="none" xmlns="http://www.w3.org/2000/svg">
<path d="M3.5 5.91421C3.5 5.649 3.60536 5.39464 3.79289 5.20711L7.20711 1.79289C7.39464 1.60536 7.649 1.5 7.91421 1.5H11.5C12.0523 1.5 12.5 1.94772 12.5 2.5V7.02469C12.3355 7.00836 12.1687 7 12 7C9.23858 7 7 9.23858 7 12C7 12.9107 7.24349 13.7646 7.66891 14.5H4.5C3.94772 14.5 3.5 14.0523 3.5 13.5V5.91421Z" fill="#EBECF0"/>
<path fill-rule="evenodd" clip-rule="evenodd" d="M6.85355 1.43934C7.13486 1.15803 7.51639 1 7.91421 1H11.5C12.3284 1 13 1.67157 13 2.5V7.10002C12.6769 7.03443 12.3425 7 12 7V2.5C12 2.22386 11.7761 2 11.5 2H8V4.5C8 5.32843 7.32843 6 6.5 6H4V13.5C4 13.7761 4.22386 14 4.5 14H7.41604C7.57202 14.357 7.76849 14.6923 7.99963 15H4.5C3.67157 15 3 14.3284 3 13.5V5.91421C3 5.51639 3.15804 5.13486 3.43934 4.85355L6.85355 1.43934ZM4.70711 5L7 2.70711V4.5C7 4.77614 6.77614 5 6.5 5H4.70711Z" fill="#6C707E"/>
<path fill-rule="evenodd" clip-rule="evenodd" d="M9.24875 12.7372L11.2757 14.7823L14.0183 14.0474L14.7511 11.2628L12.7242 9.21775L9.98159 9.95263L9.24875 12.7372ZM10.5654 15.4862L8.5385 13.4411C8.28924 13.1896 8.19156 12.8251 8.28168 12.4827L9.01452 9.69811C9.10586 9.35108 9.37614 9.07958 9.72277 8.9867L12.4654 8.25183C12.812 8.15895 13.1818 8.25892 13.4344 8.5138L15.4614 10.5589C15.7106 10.8104 15.8083 11.1749 15.7182 11.5173L14.9854 14.3019C14.894 14.6489 14.6237 14.9204 14.2771 15.0133L11.5345 15.7482C11.1879 15.8411 10.8181 15.7411 10.5654 15.4862Z" fill="#A46704"/>
</svg>
