<svg width="16" height="16" viewBox="0 0 16 16" fill="none" xmlns="http://www.w3.org/2000/svg">
<path d="M11.2029 15.1524C11.4421 15.2905 11.7478 15.2085 11.8859 14.9694C12.024 14.7302 11.9421 14.4244 11.7029 14.2864L11.2029 15.1524ZM9.35156 14.0835L11.2029 15.1524L11.7029 14.2864L9.85156 13.2175L9.35156 14.0835Z" fill="#CED0D6"/>
<path d="M12.0232 11.7955C12.2994 11.7955 12.5232 11.5717 12.5232 11.2955C12.5232 11.0194 12.2994 10.7955 12.0232 10.7955L12.0232 11.7955ZM9.93555 11.7955L12.0232 11.7955L12.0232 10.7955L9.93555 10.7955L9.93555 11.7955Z" fill="#CED0D6"/>
<path d="M11.691 8.22789C11.9338 8.09644 12.0241 7.79302 11.8927 7.55017C11.7613 7.30731 11.4578 7.217 11.215 7.34845L11.691 8.22789ZM9.83956 9.22997L11.691 8.22789L11.215 7.34845L9.36356 8.35053L9.83956 9.22997Z" fill="#CED0D6"/>
<path d="M1.31791 15.1523C1.07876 15.2904 0.772969 15.2085 0.634898 14.9693C0.496827 14.7302 0.578764 14.4244 0.81791 14.2863L1.31791 15.1523ZM3.17187 14.082L1.31791 15.1523L0.81791 14.2863L2.67188 13.2159L3.17187 14.082Z" fill="#CED0D6"/>
<path d="M0.500194 11.7955C0.224051 11.7955 0.00019381 11.5717 0.000193834 11.2955C0.000193858 11.0194 0.224052 10.7955 0.500194 10.7955L0.500194 11.7955ZM2.58789 11.7955L0.500194 11.7955L0.500194 10.7955L2.58789 10.7955L2.58789 11.7955Z" fill="#CED0D6"/>
<path d="M0.830168 8.22806C0.587241 8.09676 0.496752 7.79338 0.628057 7.55046C0.759361 7.30753 1.06274 7.21704 1.30566 7.34834L0.830168 8.22806ZM2.68413 9.23014L0.830168 8.22806L1.30566 7.34834L3.15962 8.35042L2.68413 9.23014Z" fill="#CED0D6"/>
<path fill-rule="evenodd" clip-rule="evenodd" d="M4.67578 7.28712C4.67578 6.41055 5.38638 5.69995 6.26295 5.69995C7.13953 5.69995 7.85013 6.41055 7.85013 7.28712C7.85013 7.37235 7.84341 7.45601 7.83048 7.5376H8.33525C8.34508 7.45548 8.35013 7.37189 8.35013 7.28712C8.35013 6.13441 7.41567 5.19995 6.26295 5.19995C5.11024 5.19995 4.17578 6.13441 4.17578 7.28712C4.17578 7.37189 4.18083 7.45548 4.19066 7.5376H4.69543C4.6825 7.45601 4.67578 7.37235 4.67578 7.28712Z" fill="#CED0D6"/>
<path d="M7.83048 7.5376L7.58356 7.49845L7.53772 7.7876H7.83048V7.5376ZM8.33525 7.5376V7.7876H8.55714L8.58348 7.56729L8.33525 7.5376ZM4.19066 7.5376L3.94242 7.56729L3.96877 7.7876H4.19066V7.5376ZM4.69543 7.5376V7.7876H4.98819L4.94235 7.49845L4.69543 7.5376ZM6.26295 5.44995C5.24831 5.44995 4.42578 6.27248 4.42578 7.28712H4.92578C4.92578 6.54862 5.52445 5.94995 6.26295 5.94995V5.44995ZM8.10013 7.28712C8.10013 6.27248 7.2776 5.44995 6.26295 5.44995V5.94995C7.00145 5.94995 7.60013 6.54862 7.60013 7.28712H8.10013ZM8.07739 7.57674C8.09237 7.48225 8.10013 7.38551 8.10013 7.28712H7.60013C7.60013 7.35919 7.59445 7.42976 7.58356 7.49845L8.07739 7.57674ZM7.83048 7.7876H8.33525V7.2876H7.83048V7.7876ZM8.10013 7.28712C8.10013 7.36195 8.09567 7.43562 8.08702 7.50791L8.58348 7.56729C8.59448 7.47533 8.60013 7.38184 8.60013 7.28712H8.10013ZM6.26295 5.44995C7.2776 5.44995 8.10013 6.27248 8.10013 7.28712H8.60013C8.60013 5.99634 7.55374 4.94995 6.26295 4.94995V5.44995ZM4.42578 7.28712C4.42578 6.27248 5.24831 5.44995 6.26295 5.44995V4.94995C4.97217 4.94995 3.92578 5.99634 3.92578 7.28712H4.42578ZM4.43889 7.50791C4.43024 7.43562 4.42578 7.36195 4.42578 7.28712H3.92578C3.92578 7.38184 3.93143 7.47533 3.94242 7.56729L4.43889 7.50791ZM4.19066 7.7876H4.69543V7.2876H4.19066V7.7876ZM4.42578 7.28712C4.42578 7.38551 4.43354 7.48225 4.44852 7.57674L4.94235 7.49845C4.93146 7.42976 4.92578 7.35919 4.92578 7.28712H4.42578Z" fill="#CED0D6"/>
<path d="M2.92188 9.88736C2.92188 8.58962 3.9739 7.5376 5.27163 7.5376H7.25275C8.55048 7.5376 9.6025 8.58962 9.6025 9.88736V12.3378C9.6025 14.0681 8.19981 15.4708 6.46949 15.4708H6.05489C4.32457 15.4708 2.92188 14.0681 2.92188 12.3378V9.88736Z" stroke="#CED0D6"/>
<path d="M10.2625 3.37461C10.7455 3.40832 11.4014 3.38619 12.1204 4.10524C12.8395 4.82428 12.8174 5.48018 12.8511 5.96316" stroke="#5FAD65" stroke-linecap="round"/>
<path d="M11.0746 0.750846C11.9631 0.74076 13.0862 1.25936 14.0264 2.19952C14.9665 3.13969 15.4851 4.26282 15.4751 5.15126" stroke="#5FAD65" stroke-linecap="round"/>
<circle cx="10.072" cy="6.0036" r="0.747819" fill="#5FAD65"/>
</svg>
