<svg width="16" height="16" viewBox="0 0 16 16" fill="none" xmlns="http://www.w3.org/2000/svg">
<path d="M6.36812 4.97354C6.62969 4.7701 6.67681 4.39313 6.47337 4.13157C6.26992 3.87 5.89296 3.82288 5.63139 4.02632L0.522461 7.99993L5.63139 11.9735C5.89296 12.177 6.26992 12.1299 6.47337 11.8683C6.67681 11.6067 6.62969 11.2298 6.36812 11.0263L2.47705 7.99993L6.36812 4.97354Z" fill="#6C707E"/>
<path d="M9.63139 4.97354C9.36983 4.7701 9.3227 4.39313 9.52615 4.13157C9.72959 3.87 10.1066 3.82288 10.3681 4.02632L15.4771 7.99993L10.3681 11.9735C10.1066 12.177 9.72959 12.1299 9.52615 11.8683C9.3227 11.6067 9.36983 11.2298 9.63139 11.0263L13.5225 7.99993L9.63139 4.97354Z" fill="#6C707E"/>
</svg>
