<svg width="16" height="16" viewBox="0 0 16 16" fill="none" xmlns="http://www.w3.org/2000/svg">
<g clip-path="url(#clip0_5092_58543)">
<path fill-rule="evenodd" clip-rule="evenodd" d="M2 12.4984V3.50157C2 3.06857 2.51115 2.8398 2.83262 3.12893L7.83411 7.62736C8.05529 7.82629 8.05529 8.17371 7.83411 8.37264L2.83262 12.8711C2.51115 13.1602 2 12.9314 2 12.4984Z" fill="#43454A"/>
<path fill-rule="evenodd" clip-rule="evenodd" d="M2.9985 11.3769L6.75307 8L2.9985 4.62308V11.3769ZM2 12.4984V3.50157C2 3.06857 2.51115 2.8398 2.83262 3.12893L7.83411 7.62736C8.05529 7.82629 8.05529 8.17371 7.83411 8.37264L2.83262 12.8711C2.51115 13.1602 2 12.9314 2 12.4984Z" fill="#CED0D6"/>
<path d="M13.4287 16C12.9237 16 12.4666 15.9195 12.0574 15.7584C11.6526 15.5973 11.3283 15.3731 11.0845 15.0858C10.8451 14.7942 10.7166 14.4655 10.6992 14.0998H11.7636C11.781 14.3001 11.8637 14.4807 12.0117 14.6418C12.1597 14.7985 12.3556 14.9226 12.5994 15.014C12.8432 15.1054 13.1153 15.1511 13.4156 15.1511C13.7204 15.1511 13.9881 15.1011 14.2188 15.0009C14.4539 14.9008 14.6345 14.7615 14.7608 14.583C14.8914 14.4045 14.9567 14.2021 14.9567 13.9757C14.9567 13.732 14.887 13.5274 14.7477 13.3619C14.6128 13.1922 14.4234 13.0855 14.1796 13.042L12.5668 12.7481C12.0531 12.6524 11.6526 12.4456 11.3653 12.1278C11.078 11.8057 10.9343 11.3986 10.9343 10.9067C10.9343 10.5541 11.0344 10.2341 11.2347 9.94683C11.4393 9.65516 11.7244 9.42444 12.0901 9.25466C12.4557 9.08489 12.8737 9 13.3438 9C13.8096 9 14.2297 9.07618 14.6041 9.22855C14.9784 9.38091 15.2766 9.59204 15.4987 9.86194C15.7207 10.1318 15.8404 10.4322 15.8578 10.7631H14.7934C14.7804 10.5889 14.7085 10.4322 14.5779 10.2929C14.4517 10.1536 14.2819 10.0448 14.0686 9.96642C13.8553 9.88806 13.6159 9.84888 13.3503 9.84888C13.0804 9.84888 12.841 9.89459 12.6321 9.98601C12.4231 10.0774 12.2599 10.2037 12.1423 10.3647C12.0291 10.5215 11.9725 10.6999 11.9725 10.9002C11.9725 11.1266 12.0357 11.3137 12.1619 11.4618C12.2881 11.6098 12.4732 11.7055 12.7169 11.7491L14.369 12.0429C14.7085 12.1039 15.0002 12.2236 15.244 12.4021C15.4921 12.5805 15.6793 12.8026 15.8056 13.0681C15.9362 13.3336 16.0015 13.6231 16.0015 13.9366C16.0015 14.3284 15.8883 14.681 15.6619 14.9944C15.4399 15.3078 15.133 15.5538 14.7412 15.7323C14.3494 15.9108 13.9119 16 13.4287 16Z" fill="#B589EC"/>
<path d="M9 3.50157V12.4984C9 12.9314 9.51115 13.1602 9.83262 12.8711L10.3387 12.4159C10.0618 11.9645 9.93519 11.4493 9.93519 10.9067C9.93519 10.3511 10.0971 9.83133 10.4152 9.37504L10.4169 9.37254C10.7352 8.91881 11.1661 8.58154 11.6699 8.34766C12.1876 8.10726 12.7531 8 13.3447 8C13.896 8 14.4245 8.08659 14.9171 8.27661C15.0505 8.07512 15.0229 7.79715 14.8341 7.62736L9.83262 3.12893C9.51115 2.8398 9 3.06857 9 3.50157Z" fill="#43454A"/>
<path d="M13.7363 8.0151L13.7531 8L9.9985 4.62308V10.3191C9.95639 10.5094 9.93519 10.7057 9.93519 10.9067C9.93519 11.4493 10.0618 11.9645 10.3387 12.4159L9.83262 12.8711C9.51115 13.1602 9 12.9314 9 12.4984V3.50157C9 3.06857 9.51115 2.8398 9.83262 3.12893L14.8341 7.62736C15.0229 7.79715 15.0505 8.07513 14.9171 8.27661C14.5424 8.13205 14.1468 8.04735 13.7363 8.0151Z" fill="#CED0D6"/>
</g>
<defs>
<clipPath id="clip0_5092_58543">
<rect width="16" height="16" fill="white"/>
</clipPath>
</defs>
</svg>
