<svg width="16" height="16" viewBox="0 0 16 16" fill="none" xmlns="http://www.w3.org/2000/svg">
<rect x="1.5" y="1.5" width="13" height="13" rx="6.5" fill="#402929" stroke="#DB5C5C"/>
<path d="M5.01613 9.00613C5.0209 8.84883 4.97443 8.7237 4.87671 8.63075C4.77899 8.5378 4.64791 8.49133 4.48346 8.49133H4.11523V7.50463H4.48346C4.65029 7.50463 4.78138 7.45696 4.87671 7.36163C4.97443 7.26391 5.0209 7.13402 5.01613 6.97195L4.99826 6.23908C4.99111 5.99598 5.05069 5.78148 5.17701 5.59558C5.30333 5.40729 5.48208 5.2631 5.71326 5.163C5.94444 5.06052 6.21138 5.00928 6.51406 5.00928H7.00026V5.97453H6.60701C6.42111 5.97453 6.27215 6.03054 6.16013 6.14255C6.0505 6.25457 5.99807 6.39876 6.00283 6.57513L6.01713 7.19718C6.02428 7.42836 5.95278 7.61307 5.80263 7.7513C5.65487 7.88715 5.45705 7.96461 5.20918 7.98368C5.45467 8.02658 5.65129 8.12072 5.79906 8.2661C5.94921 8.4091 6.0219 8.58666 6.01713 8.79878L6.00283 9.50305C5.99807 9.67704 6.04693 9.81169 6.14941 9.90703C6.25189 10.0024 6.39251 10.05 6.57126 10.05H7.00026V11.0153H6.47831C6.19469 11.0153 5.93848 10.9664 5.70968 10.8687C5.48327 10.7734 5.3069 10.6375 5.18058 10.4612C5.05427 10.2872 4.99349 10.0858 4.99826 9.85698L5.01613 9.00613Z" fill="#DB5C5C"/>
<path d="M10.9841 9.00613C10.9794 8.84883 11.0258 8.7237 11.1235 8.63075C11.2213 8.5378 11.3523 8.49133 11.5168 8.49133H11.885V7.50463H11.5168C11.35 7.50463 11.2177 7.45696 11.12 7.36163C11.0246 7.26391 10.9794 7.13402 10.9841 6.97195L11.002 6.23908C11.0091 5.99598 10.9496 5.78148 10.8232 5.59558C10.6969 5.40729 10.5182 5.2631 10.287 5.163C10.0558 5.06052 9.78888 5.00928 9.4862 5.00928H9V5.97453H9.39325C9.57915 5.97453 9.72692 6.03054 9.83655 6.14255C9.94857 6.25457 10.0022 6.39876 9.99742 6.57513L9.98312 7.19718C9.97597 7.42836 10.0463 7.61307 10.194 7.7513C10.3442 7.88715 10.5432 7.96461 10.7911 7.98368C10.5456 8.02658 10.3478 8.12072 10.1976 8.2661C10.0499 8.4091 9.97836 8.58666 9.98312 8.79878L9.99742 9.50305C10.0022 9.67704 9.95333 9.81169 9.85085 9.90703C9.74837 10.0024 9.60775 10.05 9.429 10.05H9V11.0153H9.52195C9.80557 11.0153 10.0606 10.9664 10.287 10.8687C10.5158 10.7734 10.6934 10.6375 10.8197 10.4612C10.946 10.2872 11.0068 10.0858 11.002 9.85698L10.9841 9.00613Z" fill="#DB5C5C"/>
</svg>
