<svg width="14" height="14" viewBox="0 0 14 14" fill="none" xmlns="http://www.w3.org/2000/svg">
<path d="M2.98755 8.77751C2.99755 8.39251 2.87005 8.08501 2.60505 7.85501C2.34005 7.62501 1.98255 7.51001 1.53255 7.51001H1V6.43001H1.53255C1.98255 6.43001 2.34005 6.31501 2.60505 6.08501C2.87005 5.85501 2.99755 5.54751 2.98755 5.16251L2.95755 3.58C2.94755 3.06 3.05505 2.605 3.28005 2.215C3.51005 1.825 3.83755 1.525 4.26255 1.315C4.68755 1.105 5.18755 1 5.76255 1H6.5V2.005H5.77005C5.25005 2.005 4.83755 2.15 4.53255 2.44C4.23255 2.725 4.08505 3.1125 4.09005 3.6025L4.12005 5.17001C4.13005 5.68001 3.99255 6.09751 3.70755 6.42251C3.42255 6.74251 3.03755 6.92001 2.55255 6.95501C3.03755 7.04501 3.42255 7.25501 3.70755 7.58501C3.99255 7.91001 4.13005 8.30501 4.12005 8.77001L4.09005 10.5475C4.08005 10.9875 4.21255 11.3375 4.48755 11.5975C4.76755 11.8625 5.14505 11.995 5.62005 11.995H6.5V13H5.61255C5.07755 13 4.60755 12.9 4.20255 12.7C3.80255 12.505 3.49255 12.2225 3.27255 11.8525C3.05755 11.4875 2.95255 11.06 2.95755 10.57L2.98755 8.77751Z" fill="#DB3B4B"/>
<path d="M11.0145 8.77751C11.0045 8.39251 11.132 8.08501 11.397 7.85501C11.662 7.62501 12.0195 7.51001 12.4695 7.51001H13V6.43001H12.4695C12.0195 6.43001 11.662 6.31501 11.397 6.08501C11.132 5.85501 11.0045 5.54751 11.0145 5.16251L11.0445 3.58C11.0545 3.06 10.9445 2.605 10.7145 2.215C10.4895 1.825 10.1645 1.525 9.73955 1.315C9.31455 1.105 8.81455 1 8.23955 1H7.5V2.005H8.23205C8.75205 2.005 9.16205 2.15 9.46205 2.44C9.76705 2.725 9.91705 3.1125 9.91205 3.6025L9.88205 5.17001C9.87205 5.68001 10.0095 6.09751 10.2945 6.42251C10.5795 6.74251 10.9645 6.92001 11.4495 6.95501C10.9645 7.04501 10.5795 7.25501 10.2945 7.58501C10.0095 7.91001 9.87205 8.30501 9.88205 8.77001L9.91205 10.5475C9.92205 10.9875 9.78705 11.3375 9.50705 11.5975C9.23205 11.8625 8.85705 11.995 8.38205 11.995H7.5V13H8.38955C8.92455 13 9.39205 12.9 9.79205 12.7C10.197 12.505 10.507 12.2225 10.722 11.8525C10.942 11.4875 11.0495 11.06 11.0445 10.57L11.0145 8.77751Z" fill="#DB3B4B"/>
</svg>
