<svg width="16" height="16" viewBox="0 0 16 16" fill="none" xmlns="http://www.w3.org/2000/svg">
<path d="M7.99998 1.5L14.5 4.5V8.20738C14.2263 8.07207 13.923 8 13.6127 8H10.3874C9.88502 8 9.401 8.18885 9.0314 8.52912L7.4843 9.95347C6.90742 10.4846 6.83662 11.3703 7.3219 11.9863L8.95667 14.0614L8 14.5L1.5 11.5199V4.5L7.99998 1.5Z" fill="#EBECF0"/>
<path fill-rule="evenodd" clip-rule="evenodd" d="M8.2095 1.04602C8.07656 0.98466 7.92339 0.98466 7.79045 1.04602L1.29047 4.04602C1.1134 4.12775 1 4.30497 1 4.5V11.5199C1 11.7154 1.11392 11.8929 1.29162 11.9744L7.79162 14.9545C7.92392 15.0152 8.07608 15.0152 8.20838 14.9545L9.27501 14.4655L8.63833 13.6573L8.5 13.7207V13.4817L7.5 12.2123V13.7207L2 11.1991V5.28145L7.5 7.81992V9.93901L8.5 9.01836V7.81992L14 5.28145V8.03782C14.3595 8.10872 14.6954 8.27753 14.9686 8.52912L15 8.558V4.5C15 4.30497 14.8866 4.12775 14.7095 4.04602L8.2095 1.04602ZM2.69315 4.5L7.99998 2.05069L13.3068 4.5L8 6.94932L2.69315 4.5Z" fill="#6C707E"/>
<path fill-rule="evenodd" clip-rule="evenodd" d="M15.8926 11.3674L12.3935 15.8091C12.193 16.0636 11.807 16.0636 11.6065 15.8091L8.10741 11.3674C7.94549 11.1619 7.9691 10.8664 8.1616 10.6892L9.70871 9.26481C9.89367 9.09453 10.1359 9 10.3873 9H13.6127C13.8641 9 14.1063 9.09453 14.2913 9.26481L15.8384 10.6892C16.0309 10.8664 16.0545 11.1619 15.8926 11.3674Z" fill="#FFF7F7"/>
<path fill-rule="evenodd" clip-rule="evenodd" d="M12 14.6898L14.8186 11.1119L13.6127 10.0016L10.3873 10.0016L9.18136 11.1119L12 14.6898ZM15.8926 11.3674L12.3935 15.8091C12.193 16.0636 11.807 16.0636 11.6065 15.8091L8.10741 11.3674C7.94549 11.1619 7.9691 10.8664 8.1616 10.6892L9.70871 9.26481C9.89367 9.09453 10.1359 9 10.3873 9H13.6127C13.8641 9 14.1063 9.09453 14.2913 9.26481L15.8384 10.6892C16.0309 10.8664 16.0545 11.1619 15.8926 11.3674Z" fill="#DB3B4B"/>
</svg>
