<svg width="14" height="14" viewBox="0 0 14 14" fill="none" xmlns="http://www.w3.org/2000/svg">
<path d="M9.99756 11C10.5498 11 10.9976 10.5523 10.9976 10C10.9976 9.44771 10.5498 9 9.99756 9C9.44527 9 8.99756 9.44771 8.99756 10C8.99756 10.5523 9.44527 11 9.99756 11Z" fill="#6C707E"/>
<path fill-rule="evenodd" clip-rule="evenodd" d="M11.1192 13.6756C11.046 13.8707 10.8594 14 10.651 14H9.344C9.13558 14 8.94902 13.8707 8.87584 13.6756L8.62634 13.0102C8.54243 12.7865 8.31189 12.6534 8.07613 12.6926L7.37521 12.8092C7.16961 12.8434 6.96437 12.7464 6.86016 12.5659L6.20666 11.4341C6.10245 11.2536 6.12113 11.0273 6.25355 10.8664L6.70498 10.3177C6.85681 10.1331 6.85681 9.86691 6.70498 9.68235L6.25353 9.13361C6.12111 8.97266 6.10243 8.74645 6.20664 8.56595L6.86014 7.43405C6.96435 7.25355 7.1696 7.15663 7.37519 7.19083L8.07613 7.30742C8.31188 7.34664 8.54243 7.21353 8.62634 6.98976L8.87584 6.32444C8.94902 6.12929 9.13558 6 9.344 6H10.651C10.8594 6 11.046 6.12929 11.1192 6.32444L11.3687 6.98976C11.4526 7.21353 11.6831 7.34664 11.9189 7.30742L12.6198 7.19083C12.8254 7.15663 13.0307 7.25355 13.1349 7.43405L13.7884 8.56595C13.8926 8.74645 13.8739 8.97266 13.7415 9.13361L13.29 9.68235C13.1382 9.86691 13.1382 10.1331 13.29 10.3177L13.7415 10.8664C13.8739 11.0273 13.8926 11.2536 13.7883 11.4341L13.1348 12.5659C13.0306 12.7464 12.8254 12.8434 12.6198 12.8092L11.9189 12.6926C11.6831 12.6534 11.4526 12.7865 11.3687 13.0102L11.1192 13.6756ZM9.6905 13H10.3045L10.4323 12.6591C10.6841 11.9878 11.3757 11.5885 12.0829 11.7061L12.4421 11.7659L12.7491 11.2341L12.5178 10.953C12.0623 10.3993 12.0623 9.6007 12.5178 9.04703L12.7491 8.76587L12.4421 8.23413L12.0829 8.29387C11.3757 8.41151 10.6841 8.0122 10.4323 7.34088L10.3045 7H9.6905L9.56267 7.34088C9.31092 8.0122 8.6193 8.41151 7.91205 8.29387L7.55291 8.23413L7.24591 8.76587L7.47722 9.04703C7.93273 9.6007 7.93273 10.3993 7.47722 10.953L7.24593 11.2341L7.55293 11.7659L7.91205 11.7061C8.6193 11.5885 9.31093 11.9878 9.56267 12.6591L9.6905 13Z" fill="#6C707E"/>
<path fill-rule="evenodd" clip-rule="evenodd" d="M10.3086 13H9.69459L9.56676 12.6591C9.31501 11.9878 8.62339 11.5885 7.91614 11.7061L7.55702 11.7659L7.25002 11.2341L7.48131 10.953C7.93681 10.3993 7.93681 9.6007 7.48131 9.04703L7.25 8.76587L7.557 8.23413L7.91614 8.29387C8.62339 8.41151 9.31501 8.0122 9.56676 7.34088L9.69459 7H10.3086L10.4364 7.34088C10.6882 8.0122 11.3798 8.41151 12.087 8.29387L12.4462 8.23413L12.7532 8.76587L12.5219 9.04703C12.0664 9.6007 12.0664 10.3993 12.5219 10.953L12.7532 11.2341L12.4462 11.7659L12.087 11.7061C11.3798 11.5885 10.6882 11.9878 10.4364 12.6591L10.3086 13ZM11.0016 10C11.0016 10.5523 10.5539 11 10.0016 11C9.44936 11 9.00164 10.5523 9.00164 10C9.00164 9.44771 9.44936 9 10.0016 9C10.5539 9 11.0016 9.44771 11.0016 10Z" fill="#EBECF0"/>
<path d="M0 7C0 3.13401 3.13401 0 7 0C10.8658 0 13.9997 3.13374 14 6.99951C13.0878 5.78534 11.6356 5 10 5C7.23858 5 5 7.23858 5 10C5 11.6356 5.78534 13.0878 6.99951 14C3.13374 13.9997 0 10.8658 0 7Z" fill="#EDF3FF"/>
<path d="M6.99951 14C3.13374 13.9997 0 10.8658 0 7C0 3.13401 3.13401 0 7 0C10.8658 0 13.9997 3.13374 14 6.99951C13.6919 6.5895 13.3223 6.22839 12.9049 5.9299C12.4002 3.12676 9.94847 1 7 1C3.68629 1 1 3.68629 1 7C1 9.94847 3.12676 12.4002 5.9299 12.9049C6.22839 13.3223 6.5895 13.6919 6.99951 14Z" fill="#3574F0"/>
</svg>
