<svg width="16" height="16" viewBox="0 0 16 16" fill="none" xmlns="http://www.w3.org/2000/svg">
<path d="M10.9922 9.70001H12.0002V12.3145H14.9972V9.70001H16.0052V16H14.9972V13.255H12.0002V16H10.9922V9.70001Z" fill="#548AF7"/>
<path d="M2.63333 2C1.73127 2 1 2.83574 1 3.86667V12.1333C1 13.1643 1.73127 14 2.63333 14H9.99316V8.7C12.4064 8.7 13.0444 8.7 15 8.7V6C15 4.89543 14.1046 4 13 4L8.46667 4L6.84336 2.30775C6.65477 2.11115 6.39413 2 6.1217 2H2.63333Z" fill="#43454A"/>
<path d="M6.1217 3L2.63333 3C2.40481 3 2 3.25841 2 3.86667V12.1333C2 12.7416 2.40481 13 2.63333 13H9.99316V14H2.63333C1.73127 14 1 13.1643 1 12.1333V3.86667C1 2.83574 1.73127 2 2.63333 2H6.1217C6.39413 2 6.65477 2.11115 6.84336 2.30775L8.46667 4L13 4C14.1046 4 15 4.89543 15 6V8.7H14V6C14 5.44771 13.5523 5 13 5H8.04022L6.1217 3Z" fill="#CED0D6"/>
<path d="M15 9.7V10.4804L14.9982 10.479V9.7H15Z" fill="#CED0D6"/>
</svg>
