<svg width="16" height="16" viewBox="0 0 16 16" fill="none" xmlns="http://www.w3.org/2000/svg">
<path d="M1 12.1333C1 13.1643 1.73127 14 2.63333 14H13.3667C14.2687 14 15 13.1643 15 12.1333V8H1V12.1333Z" fill="#43454A"/>
<path fill-rule="evenodd" clip-rule="evenodd" d="M1 3.86667C1 2.83574 1.73127 2 2.63333 2H6.1217C6.39413 2 6.65477 2.11115 6.84336 2.30775L8.46667 4L13 4C14.1046 4 15 4.89543 15 6V12.1333C15 13.1643 14.2687 14 13.3667 14H2.63333C1.73127 14 1 13.1643 1 12.1333V3.86667ZM2.63333 3L6.1217 3L8.04022 5H13C13.5523 5 14 5.44771 14 6V8H2V3.86667C2 3.25841 2.40481 3 2.63333 3ZM14 9V12.1333C14 12.7416 13.5952 13 13.3667 13H2.63333C2.40481 13 2 12.7416 2 12.1333V9H14Z" fill="#CED0D6"/>
</svg>
