<svg width="16" height="16" viewBox="0 0 16 16" fill="none" xmlns="http://www.w3.org/2000/svg">
<path d="M1 3.86667C1 2.83574 1.73127 2 2.63333 2H6.1217C6.39413 2 6.65477 2.11115 6.84336 2.30775L8.46667 4L13 4C14.1046 4 15 4.89543 15 6V9.32442C14.7729 9.16836 14.5026 9.10168 14.238 9.1257C14.229 8.83112 14.1078 8.54425 13.8881 8.3302C13.5418 7.99227 13.0244 7.9054 12.588 8.10814L6.67334 10.8666L6.67143 10.8675C6.2738 11.0524 6.01369 11.446 6.0005 11.8853L6.00033 11.8915C5.99016 12.3187 6.21681 12.7301 6.61014 12.942L6.61177 12.9428L7.39487 13.3657L7.69064 14H2.63333C1.73127 14 1 13.1643 1 12.1333V3.86667Z" fill="#EBECF0"/>
<path d="M2.63333 3L6.1217 3L8.04022 5H13C13.5523 5 14 5.44771 14 6V8.45629C14.1488 8.65084 14.2307 8.88571 14.238 9.1257C14.5026 9.10168 14.7729 9.16836 15 9.32442V6C15 4.89543 14.1046 4 13 4L8.46667 4L6.84336 2.30775C6.65477 2.11115 6.39413 2 6.1217 2H2.63333C1.73127 2 1 2.83574 1 3.86667V12.1333C1 13.1643 1.73127 14 2.63333 14H7.69064L7.39487 13.3657L6.71763 13H2.63333C2.40481 13 2 12.7416 2 12.1333V3.86667C2 3.25841 2.40481 3 2.63333 3Z" fill="#6C707E"/>
<path fill-rule="evenodd" clip-rule="evenodd" d="M15.8928 13.1107L15.2477 12.8828L15.1695 12.4107C15.1599 12.352 15.1187 12.3038 15.0628 12.2845C15.0069 12.2657 14.9451 12.2785 14.9014 12.3186L14.1028 13.0562L13.6625 12.1126C14.2114 11.2507 14.4776 10.3928 14.4971 10.3284C14.5151 10.2673 14.4963 10.2016 14.4484 10.16C14.4005 10.1184 14.3326 10.1093 14.275 10.1358L13.0149 10.7236L12.7871 10.2348L13.2252 9.22486C13.2519 9.16379 13.2377 9.09228 13.1897 9.04588C13.1415 8.99887 13.07 8.98688 13.0094 9.01504L7.09339 11.7741C7.03802 11.7997 7.00187 11.8544 7.00005 11.9153C6.99861 11.9758 7.03081 12.0328 7.0846 12.0617L8.1613 12.643L8.99376 14.4285C9.01197 14.4668 9.04442 14.4968 9.08436 14.5114L11.526 15.4024C11.5438 15.409 11.5626 15.4123 11.5813 15.4123C11.6043 15.4123 11.6276 15.4071 11.6491 15.3973L15.9076 13.4081C15.9665 13.3804 16.0031 13.3198 15.9998 13.2544C15.9968 13.1892 15.9544 13.1323 15.8928 13.1107Z" fill="#633333"/>
<path fill-rule="evenodd" clip-rule="evenodd" d="M13.2128 12.1966L13.215 12.1936C13.6321 11.6065 13.913 10.973 14.0618 10.5904L10.885 12.0718C10.8366 12.0941 10.7807 12.0911 10.7349 12.0642C10.6892 12.0372 10.6598 11.989 10.6562 11.9362C10.6559 11.929 10.6059 11.2385 10.2184 10.9959C10.0374 10.8824 9.79671 10.8852 9.50474 11.0036L8.06445 11.6749L9.25727 14.2321L11.5732 15.0775L13.8931 13.9961C13.7414 13.775 13.4044 13.3305 12.9541 13.0115C12.6008 13.3658 12.1839 13.6592 11.6984 13.8114C11.6824 13.8164 11.6663 13.8188 11.6504 13.8188C11.582 13.8188 11.5185 13.7746 11.497 13.7058C11.4703 13.6211 11.5175 13.5306 11.6023 13.5044C11.6023 13.5044 12.4713 13.2831 13.2078 12.2033C13.2095 12.2009 13.2111 12.1988 13.2128 12.1966ZM8.74877 11.8495C8.8213 11.6494 9.04299 11.5463 9.24303 11.6191C9.44311 11.6919 9.54601 11.9131 9.47348 12.113C9.40068 12.3135 9.1793 12.4166 8.97908 12.3435C8.77915 12.2709 8.67586 12.0496 8.74877 11.8495Z" fill="#E55765"/>
<path d="M14.9455 13.0292L14.9007 12.7574L14.2455 13.3628L14.4251 13.7477L15.4152 13.2833L15.0508 13.1547C14.9958 13.1352 14.9553 13.0869 14.9455 13.0292Z" fill="#E55765"/>
<path fill-rule="evenodd" clip-rule="evenodd" d="M8.40754 12.4102L7.51562 11.9286L8.06463 11.6743L8.40754 12.4102Z" fill="#FCC75B"/>
</svg>
