<svg width="16" height="16" viewBox="0 0 16 16" fill="none" xmlns="http://www.w3.org/2000/svg">
<path d="M15 8C15 4.13401 11.866 1 8 1C4.13401 1 1 4.13401 1 8C1 11.866 4.13401 15 8 15V10C8 8.89543 8.89543 8 10 8H15Z" fill="#EDF3FF"/>
<path d="M8 14C4.68629 14 2 11.3137 2 8C2 4.68629 4.68629 2 8 2C11.3137 2 14 4.68629 14 8H15C15 4.13401 11.866 1 8 1C4.13401 1 1 4.13401 1 8C1 11.866 4.13401 15 8 15V14Z" fill="#3574F0"/>
<path fill-rule="evenodd" clip-rule="evenodd" d="M10 9C9.44772 9 9 9.44772 9 10L9 15C9 15.5523 9.44772 16 10 16L15 16C15.5523 16 16 15.5523 16 15L16 10C16 9.44772 15.5523 9.00001 15 9.00001L10 9ZM10 11L10 10H12L12 11H10ZM10 12L10 15H12L12 12H10ZM13 15H15L15 12H13L13 15ZM15 11L15 10H13L13 11H15Z" fill="#6C707E"/>
</svg>
