<svg width="14" height="14" viewBox="0 0 14 14" fill="none" xmlns="http://www.w3.org/2000/svg">
<path d="M10 7C10 9.48528 7.98528 11.5 5.5 11.5C3.01472 11.5 1 9.48528 1 7C1 4.51472 3.01472 2.5 5.5 2.5C7.98528 2.5 10 4.51472 10 7Z" fill="#FAF5FF"/>
<path d="M5.58885 10.5C5.08388 10.5 4.62679 10.4195 4.21758 10.2584C3.81273 10.0973 3.48842 9.87313 3.24464 9.58582C3.00521 9.29415 2.87679 8.96549 2.85938 8.59981H3.92374C3.94115 8.80006 4.02386 8.98072 4.17187 9.14179C4.31988 9.29851 4.51578 9.42257 4.75956 9.51399C5.00334 9.60541 5.27542 9.65112 5.57579 9.65112C5.88052 9.65112 6.14824 9.60106 6.37896 9.50093C6.61404 9.40081 6.7947 9.2615 6.92094 9.08302C7.05154 8.90454 7.11684 8.70211 7.11684 8.47575C7.11684 8.23197 7.04719 8.02736 6.90788 7.86194C6.77293 7.69216 6.58357 7.58551 6.33979 7.54198L4.72691 7.24813C4.21323 7.15236 3.81273 6.94559 3.52542 6.6278C3.23811 6.30566 3.09445 5.89863 3.09445 5.40672C3.09445 5.0541 3.19457 4.73414 3.39482 4.44683C3.59942 4.15516 3.88456 3.92444 4.25023 3.75466C4.6159 3.58489 5.03382 3.5 5.50396 3.5C5.96976 3.5 6.38985 3.57618 6.76423 3.72855C7.1386 3.88091 7.4368 4.09204 7.65881 4.36194C7.88083 4.63184 8.00054 4.93221 8.01796 5.26306H6.95359C6.94053 5.08893 6.8687 4.93221 6.73811 4.79291C6.61186 4.65361 6.44209 4.54478 6.22878 4.46642C6.01547 4.38806 5.77604 4.34888 5.51049 4.34888C5.24059 4.34888 5.00117 4.39459 4.79221 4.48601C4.58326 4.57743 4.42001 4.70367 4.30247 4.86474C4.18929 5.02146 4.1327 5.19994 4.1327 5.40019C4.1327 5.62655 4.19582 5.81374 4.32206 5.96175C4.44831 6.10976 4.63332 6.20554 4.8771 6.24907L6.52915 6.54291C6.8687 6.60386 7.16037 6.72357 7.40415 6.90205C7.65229 7.08054 7.83947 7.30255 7.96572 7.5681C8.09631 7.83364 8.16161 8.12314 8.16161 8.43657C8.16161 8.82836 8.04843 9.18097 7.82206 9.4944C7.60005 9.80784 7.29314 10.0538 6.90135 10.2323C6.50956 10.4108 6.07206 10.5 5.58885 10.5Z" fill="#834DF0"/>
<path fill-rule="evenodd" clip-rule="evenodd" d="M11.5 8C11.2239 8 11 7.77614 11 7.5L11 1.70711L9.85355 2.85355C9.65829 3.04882 9.34171 3.04882 9.14645 2.85355C8.95118 2.65829 8.95118 2.34171 9.14645 2.14645L11.1464 0.146447C11.3417 -0.0488155 11.6583 -0.0488155 11.8536 0.146447L13.8536 2.14645C14.0488 2.34171 14.0488 2.65829 13.8536 2.85355C13.6583 3.04882 13.3417 3.04882 13.1464 2.85355L12 1.70711L12 7.5C12 7.77614 11.7761 8 11.5 8Z" fill="#DB3B4B"/>
<path d="M10 7C10 9.48528 7.98528 11.5 5.5 11.5C3.01472 11.5 1 9.48528 1 7C1 4.51472 3.01472 2.5 5.5 2.5C6.61537 2.5 7.63597 2.90579 8.4222 3.5778L8.43934 3.56066C8.05008 3.1714 7.91948 2.62142 8.04756 2.12432C7.28593 1.72554 6.41931 1.5 5.5 1.5C2.46243 1.5 0 3.96243 0 7C0 10.0376 2.46243 12.5 5.5 12.5C7.91689 12.5 9.96967 10.9411 10.7077 8.7739C10.2828 8.50906 10 8.03755 10 7.5V7Z" fill="#834DF0"/>
</svg>
