<svg width="16" height="16" viewBox="0 0 16 16" fill="none" xmlns="http://www.w3.org/2000/svg">
<path d="M9.755 0.890015L10.377 2.28201C9.746 2.30101 9.196 2.42001 8.703 2.60701L8 1.22301L9.755 0.890015Z" fill="#E66D17"/>
<path d="M2.025 7.0737L3.523 7.9647C3.161 8.6237 2.821 9.3627 2.51 10.1737L1 9.3417L2.025 7.0737Z" fill="#E66D17"/>
<path d="M13.6417 3.14214L13.643 3.14351C13.6438 3.14426 13.6445 3.14501 13.645 3.14601L13.45 1.30601L12 0.890015L12.219 2.32101C12.668 2.48201 13.12 2.72601 13.641 3.14101L13.6417 3.14214Z" fill="#E66D17"/>
<path d="M5.4718 2.76352L6.6218 4.01652C6.1808 4.41052 5.6878 4.90952 5.1828 5.52052L3.8418 4.18752L5.4718 2.76352Z" fill="#E66D17"/>
<path d="M13.6708 6.81142C13.591 6.79825 13.5118 6.79457 13.4328 6.79089L13.3818 6.78842L13.5458 7.86542H14.6398L14.5528 7.04842L14.5472 7.04674C14.4549 7.01902 13.8643 6.84171 13.6708 6.81142Z" fill="#E66D17"/>
<path d="M11.3569 7.679C11.5189 7.514 11.6859 7.351 11.8789 7.203C12.0739 7.054 12.2819 6.946 12.5059 6.875L12.9479 7.865L11.9639 8.875L11.3569 7.679Z" fill="#E66D17"/>
<path d="M9.6792 14.1229L11.3562 14.7739L11.1512 12.4979L9.7992 11.6939C9.7262 12.4119 9.6902 13.2189 9.6792 14.1229Z" fill="#E66D17"/>
<path d="M11.0072 11.3131L10.0132 10.3251C10.1712 9.62112 10.3942 9.00812 10.7182 8.48212L11.5302 9.36812L11.0072 11.3131Z" fill="#E66D17"/>
<path fill-rule="evenodd" clip-rule="evenodd" d="M15.0254 5.14036C14.6537 4.72073 14.2639 4.34388 13.8561 4.0149C13.0456 3.35898 12.4414 3.13898 11.5407 3.02592C10.6009 2.90879 9.31842 3.17666 8.4277 3.66759C7.04204 4.43249 4.34886 6.67527 2.81691 11.2413C2.40512 12.4706 2.28689 13.811 2.02539 14.9986C2.02539 14.9986 9.09398 14.9945 9.09398 14.9925C9.09398 10.673 9.48373 8.31305 11.5778 6.67527C12.2621 6.13851 13.0075 6.04583 13.772 6.16703C13.9984 6.2037 14.7469 6.43184 14.7469 6.43184L15.0254 5.14036Z" fill="#FFF4EB"/>
<path fill-rule="evenodd" clip-rule="evenodd" d="M13.7807 6.16848C14.0169 6.20933 14.7469 6.43184 14.7469 6.43184L15.0254 5.14036C14.6537 4.72073 14.2639 4.34388 13.8561 4.0149C13.0456 3.35898 12.4414 3.13898 11.5407 3.02592C10.6009 2.90879 9.31842 3.17666 8.4277 3.66759C7.04204 4.43249 4.34886 6.67527 2.81691 11.2413C2.54982 12.0387 2.40622 12.8828 2.26693 13.7016C2.25003 13.801 2.23318 13.9 2.21619 13.9985C2.15734 14.3396 2.09669 14.6748 2.02539 14.9986C4.38166 14.9972 6.73777 14.9969 9.09398 14.9925C9.09398 10.673 9.48373 8.31305 11.5778 6.67527C12.2621 6.13851 13.0075 6.04583 13.772 6.16703L13.7807 6.16848ZM13.2282 4.7932C13.3638 4.90255 13.4979 5.01859 13.6306 5.1412C12.7551 5.05637 11.8223 5.21303 10.9617 5.88758C8.64768 7.69741 8.164 10.2534 8.10163 13.9942L7.98851 13.9943C6.40266 13.9959 4.81681 13.9968 3.23096 13.9979L3.25737 13.8428C3.2883 13.6611 3.31865 13.4827 3.34924 13.3113C3.46071 12.6867 3.58305 12.1026 3.76498 11.5594C5.21401 7.24049 7.73558 5.19195 8.91097 4.54306C9.63457 4.14444 10.7057 3.92971 11.4167 4.0182C12.1462 4.10981 12.5721 4.26226 13.2271 4.79226L13.2282 4.7932Z" fill="#E66D17"/>
</svg>
