<svg width="16" height="16" viewBox="0 0 16 16" fill="none" xmlns="http://www.w3.org/2000/svg">
<path fill-rule="evenodd" clip-rule="evenodd" d="M15 3C15 4.10457 14.1046 5 13 5C12.6291 5 12.2818 4.89903 11.984 4.72309L8.20711 8.5L9.79289 10.0858C10.5739 10.8668 10.5739 12.1332 9.79289 12.9142L7.85355 14.8536C7.65829 15.0488 7.34171 15.0488 7.14645 14.8536C6.95118 14.6583 6.95118 14.3417 7.14645 14.1464L8.29289 13L7 11.7071L5.85355 12.8536C5.65829 13.0488 5.34171 13.0488 5.14645 12.8536C4.95118 12.6583 4.95118 12.3417 5.14645 12.1464L6.29289 11L5 9.70711L3.85355 10.8536C3.65829 11.0488 3.34171 11.0488 3.14645 10.8536C2.95118 10.6583 2.95118 10.3417 3.14645 10.1464L4.29289 9L3 7.70711L1.85355 8.85355C1.65829 9.04881 1.34171 9.04881 1.14645 8.85355C0.951184 8.65829 0.951184 8.34171 1.14645 8.14645L3.08579 6.20711C3.86683 5.42606 5.13316 5.42606 5.91421 6.20711L7.5 7.79289L11.2769 4.01598C11.101 3.71823 11 3.3709 11 3C11 1.89543 11.8954 1 13 1C14.1046 1 15 1.89543 15 3ZM14 3C14 3.55228 13.5523 4 13 4C12.4477 4 12 3.55228 12 3C12 2.44772 12.4477 2 13 2C13.5523 2 14 2.44772 14 3ZM9.08579 12.2071L9 12.2929L3.70711 7L3.79289 6.91421C4.18342 6.52369 4.81658 6.52369 5.20711 6.91421L9.08579 10.7929C9.47631 11.1834 9.47631 11.8166 9.08579 12.2071Z" fill="#DB3B4B"/>
</svg>
