<svg width="16" height="16" viewBox="0 0 16 16" fill="none" xmlns="http://www.w3.org/2000/svg">
<path d="M11.1464 7.85355C11.3416 8.04882 11.6582 8.04882 11.8535 7.85355L15.207 4.5L11.8535 1.14645C11.7559 1.0489 11.6274 1.00009 11.4996 1C11.3717 1.00009 11.2439 1.0489 11.1464 1.14645C10.9511 1.34171 10.9511 1.65829 11.1464 1.85355L13.2928 4L6.49993 4C6.22378 4 5.99993 4.22386 5.99993 4.5C5.99993 4.77614 6.22378 5 6.49993 5L13.2928 5L11.1464 7.14645C10.9511 7.34171 10.9511 7.65829 11.1464 7.85355Z" fill="#6C707E"/>
<path d="M2.91421 12H7.33273L7.3219 11.9863C7.09298 11.6957 6.9878 11.3451 7.00112 11H2.91421L5.06066 8.85355C5.25592 8.65829 5.25592 8.34171 5.06066 8.14645C4.8654 7.95118 4.54882 7.95118 4.35355 8.14645L1 11.5L4.35355 14.8536C4.4511 14.9511 4.57961 14.9999 4.70745 15C4.8353 14.9999 4.96312 14.9511 5.06066 14.8536C5.25592 14.6583 5.25592 14.3417 5.06066 14.1464L2.91421 12Z" fill="#6C707E"/>
<path fill-rule="evenodd" clip-rule="evenodd" d="M15.8926 11.3674L12.3935 15.8091C12.193 16.0636 11.807 16.0636 11.6065 15.8091L8.10741 11.3674C7.94549 11.1619 7.9691 10.8664 8.1616 10.6892L9.70871 9.26481C9.89367 9.09453 10.1359 9 10.3873 9H13.6127C13.8641 9 14.1063 9.09453 14.2913 9.26481L15.8384 10.6892C16.0309 10.8664 16.0545 11.1619 15.8926 11.3674Z" fill="#FFF7F7"/>
<path fill-rule="evenodd" clip-rule="evenodd" d="M12 14.6898L14.8186 11.1119L13.6127 10.0016L10.3873 10.0016L9.18136 11.1119L12 14.6898ZM15.8926 11.3674L12.3935 15.8091C12.193 16.0636 11.807 16.0636 11.6065 15.8091L8.10741 11.3674C7.94549 11.1619 7.9691 10.8664 8.1616 10.6892L9.70871 9.26481C9.89367 9.09453 10.1359 9 10.3873 9H13.6127C13.8641 9 14.1063 9.09453 14.2913 9.26481L15.8384 10.6892C16.0309 10.8664 16.0545 11.1619 15.8926 11.3674Z" fill="#DB3B4B"/>
</svg>
