<svg width="14" height="14" viewBox="0 0 14 14" fill="none" xmlns="http://www.w3.org/2000/svg">
<path d="M2.65177 10.9999L1.50057 7.36838H2.6174L3.80869 10.9999H2.65177ZM0 10.9999V2.99994H1.66666C2.12485 2.99994 2.50286 3.09349 2.80068 3.2686C3.10232 3.4399 3.32569 3.69875 3.47078 4.04516C3.61587 4.39156 3.68842 4.82743 3.68842 5.35275C3.68842 5.88187 3.61396 6.32154 3.46505 6.67176C3.31614 7.02197 3.08896 7.28463 2.7835 7.45974C2.47804 7.63104 2.09049 7.71669 1.62084 7.71669H1.07102V10.9999H0ZM1.64948 6.7517C1.96639 6.7517 2.1974 6.6394 2.34249 6.41481C2.48758 6.18641 2.56013 5.83429 2.56013 5.35846C2.56013 4.88643 2.48758 4.53812 2.34249 4.31353C2.1974 4.08513 1.96639 3.97093 1.64948 3.97093H1.07102V6.7517H1.64948Z" fill="#CED0D6"/>
<path d="M6.81127 2.99994C7.27709 2.99994 7.66655 3.08397 7.97965 3.24005C8.29656 3.39231 8.53329 3.62452 8.68984 3.93667C8.85021 4.24501 8.93039 4.63138 8.93039 5.0958C8.93039 5.4993 8.8693 5.83619 8.74711 6.10647C8.62493 6.37674 8.44165 6.5804 8.19729 6.71744C7.95674 6.85067 7.6551 6.91729 7.29236 6.91729V6.73457C7.70092 6.73457 8.04074 6.8107 8.31183 6.96297C8.58675 7.11523 8.79293 7.34363 8.93039 7.64817C9.06785 7.9527 9.13657 8.33146 9.13657 8.78446C9.13657 9.27552 9.05257 9.68664 8.88457 10.0178C8.71657 10.3452 8.46456 10.5907 8.12856 10.7544C7.79255 10.9181 7.37636 10.9999 6.87999 10.9999H5.33361V2.99994H6.81127ZM6.38744 7.36838V10.0692H6.8399C7.237 10.0692 7.53291 9.95881 7.72764 9.73803C7.92619 9.51724 8.02547 9.18035 8.02547 8.72736C8.02547 8.42282 7.98156 8.16968 7.89374 7.96793C7.80592 7.76617 7.67419 7.61581 7.49855 7.51684C7.32291 7.41786 7.10336 7.36838 6.8399 7.36838H6.38744ZM6.77117 6.46049C7.11863 6.46049 7.38018 6.3558 7.55582 6.14644C7.73528 5.93707 7.82501 5.62112 7.82501 5.19858C7.82501 4.77223 7.73528 4.45628 7.55582 4.25072C7.38018 4.04135 7.11863 3.93667 6.77117 3.93667H6.38744V6.46049H6.77117Z" fill="#CED0D6"/>
<path d="M12.173 11.137C11.7568 11.137 11.4112 11.0494 11.1363 10.8743C10.8652 10.6992 10.6609 10.4346 10.5235 10.0806C10.3899 9.72661 10.323 9.27361 10.323 8.72165H11.4112C11.4112 9.06044 11.4399 9.33833 11.4971 9.55531C11.5544 9.76848 11.6403 9.92836 11.7549 10.0349C11.8694 10.1377 12.0126 10.1891 12.1844 10.1891C12.3486 10.1891 12.4842 10.1415 12.5911 10.0464C12.698 9.94739 12.7763 9.79703 12.8259 9.59528C12.8793 9.39352 12.9061 9.13467 12.9061 8.81872C12.9061 8.47992 12.8564 8.20775 12.7572 8.00219C12.6617 7.79282 12.5109 7.63104 12.3047 7.51684L11.6632 7.21421C11.3883 7.06575 11.163 6.89254 10.9874 6.6946C10.8118 6.49284 10.68 6.26254 10.5922 6.00369C10.5082 5.74103 10.4662 5.4403 10.4662 5.10151C10.4662 4.59141 10.5273 4.17268 10.6495 3.84531C10.7717 3.51413 10.955 3.2686 11.1993 3.10872C11.4475 2.94884 11.7606 2.8689 12.1386 2.8689C12.5204 2.8689 12.8373 2.95074 13.0893 3.11443C13.3414 3.27431 13.5304 3.51793 13.6564 3.84531C13.7824 4.17268 13.8473 4.59332 13.8511 5.10722H12.7572C12.7572 4.8103 12.7343 4.56857 12.6884 4.38205C12.6464 4.19171 12.5796 4.05087 12.488 3.95951C12.4002 3.86434 12.2894 3.81676 12.1558 3.81676C11.9496 3.81676 11.795 3.91954 11.6919 4.1251C11.5926 4.32685 11.543 4.64661 11.543 5.08438C11.543 5.36988 11.5907 5.60399 11.6861 5.78671C11.7816 5.96943 11.9286 6.11598 12.1272 6.22638L12.803 6.55756C13.0741 6.70221 13.2974 6.87922 13.4731 7.08859C13.6487 7.29415 13.7805 7.53777 13.8683 7.81947C13.9561 8.10116 14 8.42663 14 8.79588C14 9.325 13.9332 9.76277 13.7995 10.1092C13.6659 10.4556 13.4635 10.7144 13.1924 10.8857C12.9213 11.0532 12.5815 11.137 12.173 11.137Z" fill="#CED0D6"/>
</svg>
