<svg width="16" height="16" viewBox="0 0 16 16" fill="none" xmlns="http://www.w3.org/2000/svg">
<path d="M14.4718 16C14.1968 16 13.9475 15.9413 13.7238 15.824C13.5001 15.703 13.3241 15.538 13.1958 15.329C13.0675 15.12 13.0033 14.8853 13.0033 14.625L12.9978 11.2425H12.0078L12.0133 10.368H12.6293C12.7686 10.368 12.8805 10.324 12.9648 10.236C13.0528 10.148 13.0968 10.0362 13.0968 9.90051V8.99301H13.9988V10.368H15.3573L15.3518 11.2425H13.9933L13.9988 14.537C13.9988 14.7057 14.0538 14.8468 14.1638 14.9605C14.2775 15.0705 14.4186 15.1255 14.5873 15.1255H15.3518V16H14.4718Z" fill="#CED0D6"/>
<path d="M1 3.86667C1 2.83574 1.7835 2 2.75 2H6.03823C6.29871 2 6.5489 2.10163 6.73559 2.28327L8.5 4L13 4C14.1046 4 15 4.89543 15 6V8H12.0859V9.35938H11V12.2344H12V14H2.75C1.7835 14 1 13.1643 1 12.1333V3.86667Z" fill="#253627"/>
<path d="M6.03823 3L8.09379 5H13C13.5523 5 14 5.44772 14 6V8H15V6C15 4.89543 14.1046 4 13 4L8.5 4L6.73559 2.28327C6.5489 2.10163 6.29871 2 6.03823 2H2.75C1.7835 2 1 2.83574 1 3.86667V12.1333C1 13.1643 1.7835 14 2.75 14H12V13H2.75C2.3956 13 2 12.6738 2 12.1333V3.86667C2 3.32624 2.3956 3 2.75 3H6.03823Z" fill="#57965C"/>
</svg>
