<svg width="16" height="16" viewBox="0 0 16 16" fill="none" xmlns="http://www.w3.org/2000/svg">
<path fill-rule="evenodd" clip-rule="evenodd" d="M1.38421 8.41903C1.1744 8.1901 1.17396 7.83893 1.38322 7.60948L5.4555 3.14419C5.82475 2.73931 6.49895 3.00049 6.49895 3.54842L6.49902 12.4571C6.49902 13.0043 5.82632 13.2659 5.45656 12.8624L1.38421 8.41903Z" fill="#5E3838"/>
<path fill-rule="evenodd" clip-rule="evenodd" d="M5.08605 2.80731C5.763 2.06503 6.99903 2.54386 6.99904 3.5484L6.9991 12.4571C6.99911 13.4603 5.76582 13.9398 5.08793 13.2002L1.01558 8.75679C0.630922 8.33708 0.630132 7.69326 1.01376 7.27261L5.08605 2.80731ZM5.87597 3.449C5.86295 3.4517 5.84566 3.45843 5.82505 3.48103L1.75276 7.94633C1.71788 7.98457 1.71795 8.0431 1.75292 8.08125L5.82527 12.5247C5.8459 12.5472 5.86318 12.5539 5.87623 12.5565C5.89225 12.5598 5.91321 12.5589 5.93526 12.5503C5.95731 12.5417 5.97341 12.5283 5.983 12.515C5.9908 12.5042 5.99902 12.4876 5.99902 12.4571L5.99895 3.54841C5.99895 3.51781 5.99071 3.5012 5.98291 3.49043C5.97331 3.47718 5.95718 3.46373 5.93508 3.45517C5.91298 3.44661 5.89199 3.44567 5.87597 3.449Z" fill="#DB5C5C"/>
<path d="M14.695 8.31779C14.8355 8.09317 14.8133 7.79642 14.6283 7.59461L10.5424 3.1372C10.1727 2.73381 9.50002 2.99537 9.50002 3.54256L9.5 8.20738C9.77368 8.07207 10.077 8 10.3873 8H13.6127C13.9988 8 14.3741 8.1116 14.695 8.31779Z" fill="#375239"/>
<path d="M10.0001 8.03781L10.0001 3.54255C10.0001 3.51203 10.0083 3.49541 10.0161 3.48462C10.0257 3.47137 10.0418 3.45793 10.0639 3.44936C10.0859 3.44078 10.1069 3.43981 10.1229 3.44311C10.1359 3.44579 10.1532 3.45249 10.1738 3.47499L14.2597 7.93239C14.2948 7.97062 14.2948 8.02928 14.2597 8.06751L14.2317 8.09811C14.5032 8.18638 14.755 8.33246 14.9686 8.52912L15.0841 8.6354C15.3799 8.21831 15.3509 7.64282 14.997 7.2568L10.9111 2.79939C10.2332 2.05984 9.00002 2.53937 9.00002 3.54254L9 8.55802L9.03139 8.52912C9.30468 8.27751 9.64053 8.1087 10.0001 8.03781Z" fill="#57965C"/>
<path fill-rule="evenodd" clip-rule="evenodd" d="M15.8926 11.3674L12.3935 15.8091C12.193 16.0636 11.807 16.0636 11.6065 15.8091L8.10741 11.3674C7.94549 11.1619 7.9691 10.8664 8.1616 10.6892L9.70871 9.26481C9.89367 9.09453 10.1359 9 10.3873 9H13.6127C13.8641 9 14.1063 9.09453 14.2913 9.26481L15.8384 10.6892C16.0309 10.8664 16.0545 11.1619 15.8926 11.3674Z" fill="#402929"/>
<path fill-rule="evenodd" clip-rule="evenodd" d="M12 14.6898L14.8186 11.1119L13.6127 10.0016L10.3873 10.0016L9.18136 11.1119L12 14.6898ZM15.8926 11.3674L12.3935 15.8091C12.193 16.0636 11.807 16.0636 11.6065 15.8091L8.10741 11.3674C7.94549 11.1619 7.9691 10.8664 8.1616 10.6892L9.70871 9.26481C9.89367 9.09453 10.1359 9 10.3873 9H13.6127C13.8641 9 14.1063 9.09453 14.2913 9.26481L15.8384 10.6892C16.0309 10.8664 16.0545 11.1619 15.8926 11.3674Z" fill="#DB5C5C"/>
</svg>
