<svg width="16" height="16" viewBox="0 0 16 16" fill="none" xmlns="http://www.w3.org/2000/svg">
<path d="M1 3.86667C1 2.83574 1.73127 2 2.63333 2H6.1217C6.39413 2 6.65477 2.11115 6.84336 2.30775L8.46667 4L13 4C14.1046 4 15 4.89543 15 6V8.558L14.9686 8.52912C14.599 8.18885 14.115 8 13.6127 8H10.3874C9.88502 8 9.401 8.18885 9.0314 8.52912L7.4843 9.95347C6.90742 10.4846 6.83662 11.3703 7.3219 11.9863L8.90831 14H2.63333C1.73127 14 1 13.1643 1 12.1333V3.86667Z" fill="#43454A"/>
<path d="M2.63333 3L6.1217 3L8.04022 5H13C13.5523 5 14 5.44771 14 6V8.03782C14.3595 8.10872 14.6954 8.27753 14.9686 8.52912L15 8.558V6C15 4.89543 14.1046 4 13 4L8.46667 4L6.84336 2.30775C6.65477 2.11115 6.39413 2 6.1217 2H2.63333C1.73127 2 1 2.83574 1 3.86667V12.1333C1 13.1643 1.73127 14 2.63333 14H8.90831L8.12052 13H2.63333C2.40481 13 2 12.7416 2 12.1333V3.86667C2 3.25841 2.40481 3 2.63333 3Z" fill="#CED0D6"/>
<path fill-rule="evenodd" clip-rule="evenodd" d="M15.8926 11.3674L12.3935 15.8091C12.193 16.0636 11.807 16.0636 11.6065 15.8091L8.10741 11.3674C7.94549 11.1619 7.9691 10.8664 8.1616 10.6892L9.70871 9.26481C9.89367 9.09453 10.1359 9 10.3873 9H13.6127C13.8641 9 14.1063 9.09453 14.2913 9.26481L15.8384 10.6892C16.0309 10.8664 16.0545 11.1619 15.8926 11.3674Z" fill="#402929"/>
<path fill-rule="evenodd" clip-rule="evenodd" d="M12 14.6898L14.8186 11.1119L13.6127 10.0016L10.3873 10.0016L9.18136 11.1119L12 14.6898ZM15.8926 11.3674L12.3935 15.8091C12.193 16.0636 11.807 16.0636 11.6065 15.8091L8.10741 11.3674C7.94549 11.1619 7.9691 10.8664 8.1616 10.6892L9.70871 9.26481C9.89367 9.09453 10.1359 9 10.3873 9H13.6127C13.8641 9 14.1063 9.09453 14.2913 9.26481L15.8384 10.6892C16.0309 10.8664 16.0545 11.1619 15.8926 11.3674Z" fill="#DB5C5C"/>
</svg>
