<svg width="16" height="16" viewBox="0 0 16 16" fill="none" xmlns="http://www.w3.org/2000/svg">
<path d="M7.60349 15.478L0.250723 5.82749C0.105786 5.63726 0.11585 5.37103 0.274734 5.19228L3.70287 1.33564C3.89263 1.12215 4.16464 1 4.45027 1H11.5521C11.8378 1 12.1098 1.12215 12.2996 1.33564L15.7277 5.19228C15.8866 5.37103 15.8966 5.63726 15.7517 5.82749L13.6825 8.54334L11.8237 7.38319C10.1585 6.34387 8 7.54109 8 9.50399V15.675C7.85157 15.6746 7.70327 15.609 7.60349 15.478Z" fill="#402929"/>
<path fill-rule="evenodd" clip-rule="evenodd" d="M7.60349 15.478L0.250723 5.82749C0.105786 5.63726 0.11585 5.37103 0.274734 5.19228L3.70287 1.33564C3.89263 1.12215 4.16464 1 4.45027 1H11.5521C11.8378 1 12.1098 1.12215 12.2996 1.33564L15.7277 5.19228C15.8866 5.37103 15.8966 5.63726 15.7517 5.82749L13.6825 8.54334L12.8305 8.01156L14.3631 6H11.3674L11.0334 7.05775C10.6804 6.97953 10.3239 6.98275 9.98545 7.05543L10.3187 6H5.68321L8 13.3365V15.675C7.85157 15.6746 7.70327 15.609 7.60349 15.478ZM11.5521 2L14.2188 5H11.31L9.80999 2H11.5521ZM7.31 2H8.69196L10.192 5H5.80999L7.31 2ZM4.45027 2H6.19196L4.69196 5H1.7836L4.45027 2ZM6.75472 12.7139L1.63934 6H4.63453L6.75472 12.7139Z" fill="#DB5C5C"/>
<path fill-rule="evenodd" clip-rule="evenodd" d="M9 9.50217C9 8.32443 10.2951 7.60609 11.2942 8.22968L15.2962 10.7275C16.2372 11.3149 16.2372 12.6851 15.2962 13.2725L11.2942 15.7703C10.2951 16.3939 9 15.6756 9 14.4978V9.50217ZM10.7647 9.07801C10.4317 8.87014 10 9.10959 10 9.50217V14.4978C10 14.8904 10.4317 15.1299 10.7647 14.922L14.7667 12.4242C15.0804 12.2284 15.0804 11.7716 14.7667 11.5758L10.7647 9.07801Z" fill="#57965C"/>
<path d="M10 9.50217C10 9.10959 10.4317 8.87015 10.7647 9.07801L14.7667 11.5758C15.0804 11.7716 15.0804 12.2284 14.7667 12.4242L10.7647 14.922C10.4317 15.1299 10 14.8904 10 14.4978V9.50217Z" fill="#253627"/>
</svg>
