<svg width="16" height="16" viewBox="0 0 16 16" fill="none" xmlns="http://www.w3.org/2000/svg">
<path d="M4.5 10.5L7 8L4.4799 5.5201" stroke="#6C707E" stroke-linecap="round"/>
<path d="M3 3H13C13.5523 3 14 3.44772 14 4V8.03782C14.3595 8.10872 14.6954 8.27753 14.9686 8.52912L15 8.558V4C15 2.89543 14.1046 2 13 2H3C1.89543 2 1 2.89543 1 4V12C1 13.1046 1.89543 14 3 14H8.90831L8.12052 13H3C2.44772 13 2 12.5523 2 12V4C2 3.44772 2.44772 3 3 3Z" fill="#6C707E"/>
<path fill-rule="evenodd" clip-rule="evenodd" d="M15.8926 11.3674L12.3935 15.8091C12.193 16.0636 11.807 16.0636 11.6065 15.8091L8.10741 11.3674C7.94549 11.1619 7.9691 10.8664 8.1616 10.6892L9.70871 9.26481C9.89367 9.09453 10.1359 9 10.3873 9H13.6127C13.8641 9 14.1063 9.09453 14.2913 9.26481L15.8384 10.6892C16.0309 10.8664 16.0545 11.1619 15.8926 11.3674Z" fill="#FFF7F7"/>
<path fill-rule="evenodd" clip-rule="evenodd" d="M12 14.6898L14.8186 11.1119L13.6127 10.0016L10.3873 10.0016L9.18136 11.1119L12 14.6898ZM15.8926 11.3674L12.3935 15.8091C12.193 16.0636 11.807 16.0636 11.6065 15.8091L8.10741 11.3674C7.94549 11.1619 7.9691 10.8664 8.1616 10.6892L9.70871 9.26481C9.89367 9.09453 10.1359 9 10.3873 9H13.6127C13.8641 9 14.1063 9.09453 14.2913 9.26481L15.8384 10.6892C16.0309 10.8664 16.0545 11.1619 15.8926 11.3674Z" fill="#DB3B4B"/>
</svg>
