<svg width="16" height="16" viewBox="0 0 16 16" fill="none" xmlns="http://www.w3.org/2000/svg">
<rect x="5.70142" y="12" width="4.6" height="1" fill="#6C707E"/>
<path d="M6 14H10C10 14.5523 9.55228 15 9 15H7C6.44772 15 6 14.5523 6 14Z" fill="#6C707E"/>
<mask id="path-3-inside-1_2178_31747" fill="white">
<path fill-rule="evenodd" clip-rule="evenodd" d="M10.8704 9.14748C12.0417 8.27221 12.8 6.87465 12.8 5.3C12.8 2.64903 10.6509 0.5 7.99995 0.5C5.34898 0.5 3.19995 2.64903 3.19995 5.3C3.19995 6.87464 3.95817 8.27218 5.12943 9.14746L5.49994 11H10.4999L10.8704 9.14748Z"/>
</mask>
<path d="M10.8704 9.14748L10.2718 8.34643L9.96499 8.57574L9.88986 8.95136L10.8704 9.14748ZM5.12943 9.14746L6.11001 8.95134L6.03489 8.57572L5.72804 8.34641L5.12943 9.14746ZM5.49994 11L4.51936 11.1961L4.68014 12H5.49994V11ZM10.4999 11V12H11.3197L11.4805 11.1961L10.4999 11ZM11.8 5.3C11.8 6.54594 11.2014 7.65181 10.2718 8.34643L11.469 9.94852C12.8821 8.8926 13.8 7.20336 13.8 5.3H11.8ZM7.99995 1.5C10.0986 1.5 11.8 3.20132 11.8 5.3H13.8C13.8 2.09675 11.2032 -0.5 7.99995 -0.5V1.5ZM4.19995 5.3C4.19995 3.20132 5.90127 1.5 7.99995 1.5V-0.5C4.7967 -0.5 2.19995 2.09675 2.19995 5.3H4.19995ZM5.72804 8.34641C4.79852 7.65179 4.19995 6.54593 4.19995 5.3H2.19995C2.19995 7.20335 3.11782 8.89257 4.53082 9.9485L5.72804 8.34641ZM6.48052 10.8039L6.11001 8.95134L4.14885 9.34357L4.51936 11.1961L6.48052 10.8039ZM10.4999 9.99999H5.49994V12H10.4999V9.99999ZM9.88986 8.95136L9.51936 10.8039L11.4805 11.1961L11.851 9.34359L9.88986 8.95136Z" fill="#6C707E" mask="url(#path-3-inside-1_2178_31747)"/>
</svg>
