<svg width="32" height="32" viewBox="0 0 32 32" fill="none" xmlns="http://www.w3.org/2000/svg">
<path opacity="0.78" fill-rule="evenodd" clip-rule="evenodd" d="M2 16C2 14.8954 2.89543 14 4 14H8C9.10457 14 10 14.8954 10 16C10 17.1046 9.10457 18 8 18H4C2.89543 18 2 17.1046 2 16Z" fill="#A8ADBD"/>
<path opacity="0.62" fill-rule="evenodd" clip-rule="evenodd" d="M14 24C14 22.8954 14.8954 22 16 22C17.1046 22 18 22.8954 18 24V28C18 29.1046 17.1046 30 16 30C14.8954 30 14 29.1046 14 28V24Z" fill="#A8ADBD"/>
<path opacity="0.38" fill-rule="evenodd" clip-rule="evenodd" d="M22 16C22 14.8954 22.8954 14 24 14H28C29.1046 14 30 14.8954 30 16C30 17.1046 29.1046 18 28 18H24C22.8954 18 22 17.1046 22 16Z" fill="#A8ADBD"/>
<path fill-rule="evenodd" clip-rule="evenodd" d="M14 4C14 2.89543 14.8954 2 16 2C17.1046 2 18 2.89543 18 4V8C18 9.10457 17.1046 10 16 10C14.8954 10 14 9.10457 14 8V4Z" fill="#A8ADBD"/>
<path opacity="0.93" fill-rule="evenodd" clip-rule="evenodd" d="M6.10043 6.10049C6.88148 5.31944 8.14781 5.31944 8.92886 6.10049L11.7573 8.92892C12.5383 9.70997 12.5383 10.9763 11.7573 11.7573C10.9762 12.5384 9.70991 12.5384 8.92886 11.7573L6.10043 8.92892C5.31939 8.14787 5.31939 6.88154 6.10043 6.10049Z" fill="#A8ADBD"/>
<rect opacity="0.69" x="10.3428" y="18.8284" width="4" height="8" rx="2" transform="rotate(45 10.3428 18.8284)" fill="#A8ADBD"/>
<path opacity="0.48" fill-rule="evenodd" clip-rule="evenodd" d="M20.243 20.2426C21.0241 19.4615 22.2904 19.4615 23.0714 20.2426L25.8999 23.071C26.6809 23.8521 26.6809 25.1184 25.8999 25.8994C25.1188 26.6805 23.8525 26.6805 23.0714 25.8994L20.243 23.071C19.462 22.29 19.462 21.0236 20.243 20.2426Z" fill="#A8ADBD"/>
<path opacity="0.3" fill-rule="evenodd" clip-rule="evenodd" d="M23.0711 6.10049C23.8522 5.31944 25.1185 5.31944 25.8996 6.10049C26.6806 6.88154 26.6806 8.14787 25.8996 8.92892L23.0711 11.7573C22.2901 12.5384 21.0238 12.5384 20.2427 11.7573C19.4617 10.9763 19.4617 9.70997 20.2427 8.92892L23.0711 6.10049Z" fill="#A8ADBD"/>
</svg>
