<svg width="16" height="16" viewBox="0 0 16 16" fill="none" xmlns="http://www.w3.org/2000/svg">
<path fill-rule="evenodd" clip-rule="evenodd" d="M12.4211 3.54342C15.2863 6.40854 16.0769 10.3148 13.1805 13.2112C10.284 16.1076 6.22827 15.2144 3.48908 12.4753C0.749897 9.73619 -0.0649633 5.63357 2.76887 2.79978C5.60271 -0.0339966 9.55592 0.678305 12.4211 3.54342Z" fill="#F2FCF3"/>
<path d="M12.4211 3.54342C12.8166 3.93893 13.1726 4.35429 13.4848 4.78409L12.6758 5.37181C12.3958 4.98644 12.0743 4.6108 11.714 4.25053C11.3563 3.89285 10.9824 3.57466 10.5983 3.29835L11.1822 2.48655C11.6119 2.79565 12.0268 3.14915 12.4211 3.54342Z" fill="#208A3C"/>
<path d="M8.92296 2.38351L9.27977 1.44933C8.22523 1.04656 7.13558 0.903843 6.07999 1.06485L6.23078 2.05342C7.09474 1.92164 8.00945 2.0346 8.92296 2.38351Z" fill="#208A3C"/>
<path d="M4.55942 2.65618L4.04875 1.7964C3.60349 2.06086 3.1747 2.39396 2.76887 2.79978C2.36451 3.20414 2.03444 3.63433 1.77365 4.0827L2.63806 4.58548C2.78167 4.33858 2.95214 4.09572 3.15195 3.85903L12.1217 12.8287C11.8816 13.0327 11.6365 13.2063 11.3886 13.3523L11.8959 14.2141C12.3424 13.9512 12.7729 13.6187 13.1805 13.2112C13.5894 12.8022 13.9249 12.3731 14.1914 11.9296L13.3343 11.4145C13.1916 11.652 13.0233 11.8877 12.8271 12.1199L3.86085 3.15372C4.0898 2.96162 4.32323 2.79647 4.55942 2.65618Z" fill="#208A3C"/>
<path d="M2.05132 6.26281L1.06186 6.11802C0.906865 7.1772 1.04778 8.2704 1.43242 9.31795L2.37114 8.97327C2.03646 8.06177 1.9234 7.13698 2.05132 6.26281Z" fill="#208A3C"/>
<path d="M3.26073 10.6571L2.44217 11.2316C2.74892 11.6687 3.09954 12.0858 3.48908 12.4753C3.87984 12.8661 4.29739 13.2193 4.73455 13.5292L5.31297 12.7135C4.92292 12.4369 4.54827 12.1203 4.19618 11.7682C3.84675 11.4188 3.53358 11.0459 3.26073 10.6571Z" fill="#208A3C"/>
<path d="M6.99959 13.6186L6.64838 14.5549C7.69687 14.9482 8.79176 15.0957 9.85705 14.9376L9.71028 13.9484C8.8349 14.0783 7.9116 13.9607 6.99959 13.6186Z" fill="#208A3C"/>
<path d="M13.9463 9.74216L14.9346 9.89493C15.0987 8.83323 14.9494 7.74207 14.5378 6.68663L13.6061 7.04995C13.9626 7.96408 14.0801 8.8771 13.9463 9.74216Z" fill="#208A3C"/>
</svg>
