<svg width="16" height="16" viewBox="0 0 16 16" fill="none" xmlns="http://www.w3.org/2000/svg">
<path fill-rule="evenodd" clip-rule="evenodd" d="M15.827 11.1757C16.0613 11.4101 16.0613 11.7899 15.827 12.0243L12.0301 15.8211C11.7958 16.0555 11.4159 16.0555 11.1816 15.8211L9.17574 13.8153C8.94142 13.581 8.94142 13.2011 9.17574 12.9668C9.41005 12.7324 9.78995 12.7324 10.0243 12.9668L11.6059 14.5483L14.9785 11.1757C15.2128 10.9414 15.5927 10.9414 15.827 11.1757Z" fill="#369650"/>
<path d="M14.9489 9.79658C15.242 7.64455 14.2578 5.38007 12.4211 3.54342C9.55592 0.678305 5.60271 -0.0339965 2.76887 2.79978C-0.0649633 5.63356 0.749897 9.73619 3.48908 12.4753C5.03726 14.0235 7.00601 14.9819 8.94831 14.9997L8.47254 14.524C7.8477 13.8991 7.8477 12.8861 8.47254 12.2612C9.09737 11.6364 10.1104 11.6364 10.7353 12.2612L11.6098 13.1357L14.9489 9.79658Z" fill="#FFFAEB"/>
<path d="M14.9489 9.79658C15.242 7.64455 14.2578 5.38007 12.4211 3.54342C9.55592 0.678305 5.60271 -0.0339965 2.76887 2.79978C-0.0649632 5.63356 0.749897 9.73619 3.48908 12.4753C5.03726 14.0235 7.00601 14.9819 8.94831 14.9997L8.47254 14.524C8.29554 14.347 8.16869 14.1388 8.09196 13.9172C6.73318 13.6792 5.35358 12.9227 4.19761 11.7668C2.96238 10.5316 2.1978 9.02377 2.03495 7.5621C1.89119 6.27175 2.20946 4.98843 3.13864 3.87802L12.0031 12.7423L12.7117 12.0338L3.84627 3.1686C4.96097 2.22632 6.21752 1.89609 7.47661 2.03083C8.90451 2.18363 10.4065 2.94592 11.7126 4.25194C13.025 5.56439 13.8035 7.05797 13.9658 8.47924C14.0793 9.47275 13.8981 10.4716 13.3336 11.4119L14.9489 9.79658Z" fill="#C27D04"/>
</svg>
