<svg width="16" height="16" viewBox="0 0 16 16" fill="none" xmlns="http://www.w3.org/2000/svg">
<rect x="11" y="12" width="4" height="3" fill="#EBECF0"/>
<path fill-rule="evenodd" clip-rule="evenodd" d="M15 11V10C15 8.89543 14.1046 8 13 8C11.8954 8 11 8.89543 11 10V11C10.4477 11 10 11.4477 10 12V15C10 15.5523 10.4477 16 11 16H15C15.5523 16 16 15.5523 16 15V12C16 11.4477 15.5523 11 15 11ZM12 10C12 9.44772 12.4477 9 13 9C13.5523 9 14 9.44772 14 10V11H12V10ZM11 15L11 12H15V15H11Z" fill="#6C707E"/>
<path d="M14.8311 7.62346C14.4897 6.18007 13.6445 4.76683 12.4211 3.54342C9.55592 0.678305 5.60271 -0.0339965 2.76887 2.79978C-0.0649633 5.63356 0.749897 9.73619 3.48908 12.4753C5.05099 14.0372 7.04097 14.9989 9 15V12C9 11.2597 9.4022 10.6134 10 10.2676V10C10 8.34315 11.3431 7 13 7C13.6894 7 14.3245 7.23254 14.8311 7.62346Z" fill="#F2FCF3"/>
<path d="M14.8311 7.62346C14.4897 6.18007 13.6445 4.76683 12.4211 3.54342C9.55592 0.678305 5.60271 -0.0339965 2.76887 2.79978C-0.0649632 5.63356 0.749897 9.73619 3.48908 12.4753C5.05099 14.0372 7.04097 14.9989 9 15V13.9981C8.7982 13.9979 8.5959 13.9855 8.3937 13.9615C6.93895 13.7891 5.43927 13.0084 4.19761 11.7668C2.96238 10.5316 2.1978 9.02377 2.03495 7.5621C1.89119 6.27175 2.20946 4.98843 3.13864 3.87802L9.72215 10.4614C9.80888 10.3893 9.9018 10.3244 10 10.2676V10C10 9.7893 10.0217 9.58368 10.063 9.38525L3.84627 3.1686C4.96097 2.22632 6.21752 1.89609 7.47661 2.03083C8.90451 2.18363 10.4065 2.94592 11.7126 4.25194C12.5932 5.13252 13.2334 6.09463 13.6084 7.06173C14.0617 7.1551 14.4777 7.35073 14.8311 7.62346Z" fill="#208A3C"/>
</svg>
