<svg width="16" height="16" viewBox="0 0 16 16" fill="none" xmlns="http://www.w3.org/2000/svg">
<path d="M1 2C1 1.44772 1.44772 1 2 1H6C6.55228 1 7 1.44772 7 2V6C7 6.55228 6.55228 7 6 7H2C1.44772 7 1 6.55228 1 6V2Z" fill="#43454A"/>
<path d="M1 9C1 8.44772 1.44772 8 2 8H6C6.55228 8 7 8.44772 7 9V13C7 13.5523 6.55228 14 6 14H2C1.44772 14 1 13.5523 1 13V9Z" fill="#43454A"/>
<path d="M9 1C8.44772 1 8 1.44772 8 2V6C8 6.55228 8.44772 7 9 7H13C13.5523 7 14 6.55228 14 6V2C14 1.44772 13.5523 1 13 1H9Z" fill="#43454A"/>
<path fill-rule="evenodd" clip-rule="evenodd" d="M2 1C1.44772 1 1 1.44772 1 2V6C1 6.55228 1.44772 7 2 7H6C6.55228 7 7 6.55228 7 6V2C7 1.44772 6.55228 1 6 1H2ZM6 2H2V6H6V2Z" fill="#CED0D6"/>
<path fill-rule="evenodd" clip-rule="evenodd" d="M2 8C1.44772 8 1 8.44772 1 9V13C1 13.5523 1.44772 14 2 14H6C6.55228 14 7 13.5523 7 13V9C7 8.44772 6.55228 8 6 8H2ZM6 9H2V13H6V9Z" fill="#CED0D6"/>
<path fill-rule="evenodd" clip-rule="evenodd" d="M8 2C8 1.44772 8.44772 1 9 1H13C13.5523 1 14 1.44772 14 2V6C14 6.55228 13.5523 7 13 7H9C8.44772 7 8 6.55228 8 6V2ZM9 2H13V6H9V2Z" fill="#CED0D6"/>
<path fill-rule="evenodd" clip-rule="evenodd" d="M14.5263 9.45338C16.1636 11.0906 16.6154 13.3227 14.9603 14.9778C13.3051 16.6329 10.9876 16.1225 9.42233 14.5573C7.85708 12.9921 7.39145 10.6478 9.01078 9.02845C10.6301 7.40914 12.8891 7.81617 14.5263 9.45338Z" fill="#3D3223"/>
<path fill-rule="evenodd" clip-rule="evenodd" d="M14.5263 9.45338C16.1636 11.0906 16.6154 13.3227 14.9603 14.9778C13.3051 16.6329 10.9876 16.1225 9.42233 14.5573C7.85708 12.9921 7.39145 10.6478 9.01078 9.02845C10.6301 7.40914 12.8891 7.81617 14.5263 9.45338ZM13.8192 10.1605C14.518 10.8592 14.9051 11.6277 14.9844 12.3223C15.0442 12.8461 14.9368 13.3752 14.5851 13.8779L10.1121 9.40499C10.602 9.06741 11.1283 8.95763 11.6554 9.01405C12.355 9.08891 13.1269 9.46818 13.8192 10.1605ZM9.40383 10.1109L13.8791 14.5862C13.3735 14.9393 12.8254 15.0473 12.2753 14.9821C11.5564 14.8969 10.7844 14.5051 10.1294 13.8502C9.4809 13.2017 9.09686 12.4265 9.01619 11.7024C8.9545 11.1487 9.06497 10.6036 9.40383 10.1109Z" fill="#BA9752"/>
</svg>
