<svg width="16" height="16" viewBox="0 0 16 16" fill="none" xmlns="http://www.w3.org/2000/svg">
<path fill-rule="evenodd" clip-rule="evenodd" d="M2.08296 6C2.55904 3.16229 5.027 1 8 1C10.973 1 13.441 3.16229 13.917 6H13C12.4477 6 12 6.44772 12 7V9C12 9.55228 12.4477 10 13 10H14C14.5523 10 15 9.55228 15 9V7C15 3.13401 11.866 0 8 0C4.13401 0 1 3.13401 1 7V9C1 9.55228 1.44772 10 2 10H3C3.55228 10 4 9.55228 4 9V7C4 6.44772 3.55228 6 3 6H2.08296ZM2 7V9H3V7H2ZM14 7H13V9H14V7Z" fill="#6C707E"/>
<path d="M4.22988 10.5775C4.69879 10.2115 5.00028 9.64094 5.00028 9V7C5.00028 6.11034 4.41939 5.35636 3.61621 5.09664C3.79172 4.81423 4.00673 4.54259 4.26376 4.28556C6.28793 2.26143 9.11165 2.77022 11.1582 4.81673C11.3641 5.0226 11.555 5.23599 11.7297 5.45541C11.2843 5.82223 11.0003 6.37795 11.0003 7V9C11.0003 9.88312 11.5727 10.6326 12.3667 10.8976C12.186 11.1822 11.9648 11.4581 11.7006 11.7223C9.63171 13.7911 6.73476 13.1532 4.7782 11.1967C4.58105 10.9995 4.39786 10.7925 4.22988 10.5775Z" fill="#F2FCF3"/>
<path d="M11.7297 5.45541C11.555 5.23599 11.3641 5.0226 11.1582 4.81673C9.11165 2.77022 6.28793 2.26143 4.26376 4.28556C4.00673 4.54259 3.79172 4.81423 3.61621 5.09664C3.94218 5.20205 4.23153 5.38886 4.4603 5.63312C4.51789 5.53978 4.58123 5.44778 4.65051 5.3573L10.6297 11.3365C9.90975 11.8937 9.1125 12.0704 8.31495 11.9759C7.35062 11.8617 6.3359 11.3401 5.4853 10.4895C5.24925 10.2535 5.03926 10.0037 4.85684 9.7452C4.72421 10.0753 4.50609 10.3619 4.22988 10.5775C4.39786 10.7925 4.58105 10.9995 4.7782 11.1967C6.73476 13.1532 9.63171 13.7911 11.7006 11.7223C11.9648 11.4581 12.186 11.1822 12.3667 10.8976C12.042 10.7892 11.7543 10.5998 11.5277 10.3534C11.4695 10.4457 11.4055 10.5373 11.3354 10.628L5.35911 4.65169C6.05858 4.11729 6.82667 3.93663 7.59619 4.01898C8.53873 4.11984 9.55412 4.62687 10.4511 5.52384C10.7058 5.77856 10.9299 6.04177 11.1227 6.30944C11.2465 5.97305 11.4581 5.67911 11.7297 5.45541Z" fill="#208A3C"/>
<rect x="13" y="7" width="1" height="2" fill="#EBECF0"/>
<rect x="2" y="7" width="1" height="2" fill="#EBECF0"/>
</svg>
