<svg width="14" height="14" viewBox="0 0 14 14" fill="none" xmlns="http://www.w3.org/2000/svg">
<path fill-rule="evenodd" clip-rule="evenodd" d="M1.08296 6C1.55904 3.16229 4.027 1 7 1C9.973 1 12.441 3.16229 12.917 6H12C11.4477 6 11 6.44772 11 7V9C11 9.55228 11.4477 10 12 10H13C13.5523 10 14 9.55228 14 9V7C14 3.13401 10.866 0 7 0C3.13401 0 0 3.13401 0 7V9C0 9.55228 0.447715 10 1 10H2C2.55228 10 3 9.55228 3 9V7C3 6.44772 2.55228 6 2 6H1.08296ZM1 7V9H2V7H1ZM13 7H12V9H13V7Z" fill="#CED0D6"/>
<path d="M3.22988 10.5775C3.69879 10.2115 4.00028 9.64094 4.00028 9V7C4.00028 6.11034 3.41939 5.35636 2.61621 5.09664C2.79172 4.81423 3.00673 4.54259 3.26376 4.28556C5.28793 2.26143 8.11165 2.77022 10.1582 4.81673C10.3641 5.0226 10.555 5.23599 10.7297 5.45541C10.2843 5.82223 10.0003 6.37795 10.0003 7V9C10.0003 9.88312 10.5727 10.6326 11.3667 10.8976C11.186 11.1822 10.9648 11.4581 10.7006 11.7223C8.63171 13.7911 5.73476 13.1532 3.7782 11.1967C3.58105 10.9995 3.39786 10.7925 3.22988 10.5775Z" fill="#253627"/>
<path d="M10.7297 5.45541C10.555 5.23599 10.3641 5.0226 10.1582 4.81673C8.11165 2.77022 5.28793 2.26143 3.26376 4.28556C3.00673 4.54259 2.79172 4.81423 2.61621 5.09664C2.94218 5.20205 3.23153 5.38886 3.4603 5.63312C3.51789 5.53978 3.58123 5.44778 3.65051 5.3573L9.62973 11.3365C8.90975 11.8937 8.1125 12.0704 7.31495 11.9759C6.35062 11.8617 5.3359 11.3401 4.4853 10.4895C4.24925 10.2535 4.03926 10.0037 3.85684 9.7452C3.72421 10.0753 3.50609 10.3619 3.22988 10.5775C3.39786 10.7925 3.58105 10.9995 3.7782 11.1967C5.73476 13.1532 8.63171 13.7911 10.7006 11.7223C10.9648 11.4581 11.186 11.1822 11.3667 10.8976C11.042 10.7892 10.7543 10.5998 10.5277 10.3534C10.4695 10.4457 10.4055 10.5373 10.3354 10.628L4.35911 4.65169C5.05858 4.11729 5.82667 3.93663 6.59619 4.01898C7.53873 4.11984 8.55412 4.62687 9.4511 5.52384C9.70582 5.77856 9.92988 6.04177 10.1227 6.30944C10.2465 5.97305 10.4581 5.67911 10.7297 5.45541Z" fill="#57965C"/>
<rect x="12" y="7" width="1" height="2" fill="#43454A"/>
<rect x="1" y="7" width="1" height="2" fill="#43454A"/>
</svg>
