<svg width="14" height="14" viewBox="0 0 14 14" fill="none" xmlns="http://www.w3.org/2000/svg">
<g clip-path="url(#clip0_3388_47683)">
<path fill-rule="evenodd" clip-rule="evenodd" d="M13.827 0.175736C14.0613 0.410051 14.0613 0.78995 13.827 1.02426L10.0301 4.82114C9.79581 5.05545 9.41591 5.05545 9.1816 4.82114L7.17574 2.81528C6.94142 2.58097 6.94142 2.20107 7.17574 1.96675C7.41005 1.73244 7.78995 1.73244 8.02426 1.96675L9.60586 3.54835L12.9785 0.175736C13.2128 -0.0585787 13.5927 -0.0585787 13.827 0.175736Z" fill="#6C707E"/>
<path d="M6.47254 3.52397C5.8477 2.89913 5.8477 1.88607 6.47254 1.26123C7.09737 0.636393 8.11044 0.636393 8.73528 1.26123L9.60977 2.13572L10.2267 1.51877C7.52529 -0.448369 4.22623 -0.657522 1.76887 1.79978C-1.06496 4.63356 -0.250103 8.73619 2.48908 11.4753C5.22827 14.2144 9.284 15.1076 12.1805 12.2112C14.6767 9.71497 14.4344 6.46873 12.4857 3.78528L10.7411 5.52983C10.1163 6.15467 9.10323 6.15467 8.47839 5.52983L6.47254 3.52397Z" fill="#F2FCF3"/>
<path fill-rule="evenodd" clip-rule="evenodd" d="M6.71499 1.06189C6.63533 1.04966 6.55586 1.03931 6.47661 1.03083C5.21752 0.896088 3.96097 1.22632 2.84627 2.1686L11.8122 11.1344C12.7837 9.99274 13.1089 8.73177 12.9658 7.47924C12.8533 6.49398 12.4447 5.47397 11.7673 4.50364L12.4857 3.78528C14.4344 6.46873 14.6767 9.71497 12.1805 12.2112C9.284 15.1076 5.22826 14.2144 2.48908 11.4753C-0.250103 8.73619 -1.06496 4.63356 1.76887 1.79978C4.22623 -0.657522 7.52529 -0.448369 10.2267 1.51877L9.60977 2.13572L8.73528 1.26123C8.18603 0.711987 7.33682 0.645539 6.71499 1.06189ZM11.1028 11.842L2.13864 2.87802C1.20946 3.98843 0.891189 5.27175 1.03495 6.5621C1.1978 8.02377 1.96238 9.53159 3.19761 10.7668C4.43927 12.0084 5.93895 12.7891 7.3937 12.9615C8.67759 13.1137 9.96566 12.8003 11.1028 11.842Z" fill="#208A3C"/>
</g>
<defs>
<clipPath id="clip0_3388_47683">
<rect width="14" height="14" fill="white"/>
</clipPath>
</defs>
</svg>
