<svg width="16" height="16" viewBox="0 0 16 16" fill="none" xmlns="http://www.w3.org/2000/svg">
<path d="M10 9H11.0352L15 14.435V9H16V16H14.93L11 10.565V16H10V9Z" fill="#CED0D6"/>
<path d="M14.9085 8C14.6336 6.42691 13.7508 4.87305 12.4211 3.54342C9.55592 0.678305 5.60271 -0.0339965 2.76887 2.79978C-0.0649633 5.63356 0.749897 9.73619 3.48908 12.4753C5.05099 14.0372 7.04097 14.9989 9 15V8H11.5435L14 11.3674V8H14.9085Z" fill="#253627"/>
<path d="M14.9085 8C14.6336 6.42691 13.7507 4.87305 12.4211 3.54342C9.55592 0.678305 5.60271 -0.0339965 2.76887 2.79978C-0.0649632 5.63356 0.749897 9.73619 3.48908 12.4753C5.05099 14.0372 7.04097 14.9989 9 15V13.9981C8.7982 13.9979 8.5959 13.9855 8.3937 13.9615C6.93895 13.7891 5.43927 13.0084 4.19761 11.7668C2.96238 10.5316 2.1978 9.02377 2.03495 7.5621C1.89119 6.27175 2.20946 4.98843 3.13864 3.87802L9 9.73927V8.32223L3.84627 3.1686C4.96097 2.22632 6.21752 1.89609 7.47661 2.03083C8.90451 2.18363 10.4065 2.94592 11.7126 4.25194C12.8782 5.4176 13.6227 6.72614 13.8884 8H14.9085Z" fill="#57965C"/>
</svg>
