<svg width="14" height="14" viewBox="0 0 14 14" fill="none" xmlns="http://www.w3.org/2000/svg">
<g clip-path="url(#clip0_3376_47514)">
<path d="M7.00031 11.4014L8.06605 13H5.93457L7.00031 11.4014Z" fill="#43454A"/>
<path fill-rule="evenodd" clip-rule="evenodd" d="M9.52634 2.45338C11.1636 4.09059 11.6154 6.32272 9.96026 7.97781C8.30514 9.63289 5.98758 9.12254 4.42233 7.55732C2.85708 5.99211 2.39145 3.64775 4.01078 2.02845C5.63012 0.409145 7.8891 0.816175 9.52634 2.45338Z" fill="#253627"/>
<path fill-rule="evenodd" clip-rule="evenodd" d="M9.52634 2.45338C11.1636 4.09059 11.6154 6.32272 9.96026 7.97781C8.30514 9.63289 5.98758 9.12254 4.42233 7.55732C2.85708 5.99211 2.39145 3.64775 4.01078 2.02845C5.63012 0.409145 7.8891 0.816175 9.52634 2.45338ZM8.81924 3.1605C9.51799 3.85924 9.90507 4.62771 9.98439 5.32235C10.0442 5.84606 9.93683 6.37522 9.58505 6.87791L5.11213 2.40499C5.602 2.06741 6.12827 1.95763 6.65544 2.01405C7.35503 2.08891 8.12691 2.46818 8.81924 3.1605ZM4.40383 3.11091L8.87908 7.58615C8.37355 7.93927 7.82544 8.04732 7.27527 7.98213C6.55643 7.89695 5.78438 7.50514 5.12943 6.85021C4.4809 6.20169 4.09686 5.42651 4.01619 4.70244C3.9545 4.14872 4.06497 3.60362 4.40383 3.11091Z" fill="#57965C"/>
<path d="M0 0.5C0 0.223858 0.223858 0 0.5 0H1.5C1.77614 0 2 0.223858 2 0.5C2 0.776142 1.77614 1 1.5 1H1V8H1.5C1.77614 8 2 8.22386 2 8.5C2 8.77614 1.77614 9 1.5 9H0.5C0.223858 9 0 8.77614 0 8.5V0.5Z" fill="#CED0D6"/>
<path d="M14 8.5C14 8.77614 13.7761 9 13.5 9H12.5C12.2239 9 12 8.77614 12 8.5C12 8.22386 12.2239 8 12.5 8H13L13 1H12.5C12.2239 1 12 0.776143 12 0.5C12 0.223858 12.2239 0 12.5 0H13.5C13.7761 0 14 0.223858 14 0.5L14 8.5Z" fill="#CED0D6"/>
<path fill-rule="evenodd" clip-rule="evenodd" d="M7.41603 10.2226C7.32329 10.0836 7.16718 10 7 10C6.83282 10 6.67671 10.0836 6.58398 10.2226L4.58398 13.2226C4.48169 13.3761 4.47215 13.5733 4.55916 13.7359C4.64617 13.8985 4.8156 14 5 14H9C9.1844 14 9.35383 13.8985 9.44084 13.7359C9.52785 13.5733 9.51831 13.3761 9.41603 13.2226L7.41603 10.2226ZM7 11.4014L8.06574 13H5.93426L7 11.4014Z" fill="#CED0D6"/>
</g>
<defs>
<clipPath id="clip0_3376_47514">
<rect width="14" height="14" fill="white"/>
</clipPath>
</defs>
</svg>
