<svg width="14" height="14" viewBox="0 0 14 14" fill="none" xmlns="http://www.w3.org/2000/svg">
<g clip-path="url(#clip0_3376_47437)">
<path fill-rule="evenodd" clip-rule="evenodd" d="M3.85355 7.14645C3.65829 6.95118 3.34171 6.95118 3.14645 7.14645L0.146446 10.1464C-0.0488155 10.3417 -0.0488155 10.6583 0.146446 10.8536L3.14645 13.8536C3.34171 14.0488 3.65829 14.0488 3.85355 13.8536C4.04882 13.6583 4.04882 13.3417 3.85355 13.1464L1.70709 11H7.5C7.77614 11 8 10.7761 8 10.5C8 10.2238 7.77614 9.99998 7.5 9.99998H1.70713L3.85355 7.85355C4.04882 7.65829 4.04882 7.34171 3.85355 7.14645Z" fill="#6C707E"/>
<path d="M12.1805 12.2112C15.0769 9.31476 14.2863 5.40854 11.4211 2.54342C8.55592 -0.321695 4.60271 -1.034 1.76887 1.79978C-0.129394 3.69801 -0.390457 6.16558 0.467387 8.41129L2.43934 6.43934C3.02513 5.85355 3.97487 5.85355 4.56066 6.43934C5.14645 7.02513 5.14645 7.97487 4.56066 8.56066L4.12134 8.99998H7.5C8.32843 8.99998 9 9.67155 9 10.5C9 11.3284 8.32843 12 7.5 12H4.1213L4.56066 12.4393C4.79466 12.6733 4.93518 12.9654 4.98223 13.2692C7.36069 14.4195 10.0764 14.3151 12.1805 12.2112Z" fill="#F2FCF3"/>
<path fill-rule="evenodd" clip-rule="evenodd" d="M12.1805 12.2112C15.0769 9.31476 14.2863 5.40854 11.4211 2.54342C8.55592 -0.321695 4.60271 -1.034 1.76887 1.79978C-0.129394 3.69801 -0.390457 6.16558 0.467387 8.41129L1.25582 7.62286C1.14845 7.26957 1.07421 6.91449 1.03495 6.5621C0.891189 5.27175 1.20946 3.98843 2.13864 2.87802L11.1028 11.842C9.96566 12.8003 8.67759 13.1137 7.3937 12.9615C6.50604 12.8563 5.60165 12.5247 4.74936 12H4.1213L4.56066 12.4393C4.79466 12.6733 4.93518 12.9654 4.98223 13.2692C7.36069 14.4195 10.0764 14.3151 12.1805 12.2112ZM12.9658 7.47924C12.8035 6.05797 12.025 4.56439 10.7126 3.25194C9.40651 1.94592 7.90451 1.18363 6.47661 1.03083C5.21752 0.896088 3.96097 1.22632 2.84627 2.1686L11.8122 11.1344C12.7837 9.99274 13.1089 8.73177 12.9658 7.47924Z" fill="#208A3C"/>
</g>
<defs>
<clipPath id="clip0_3376_47437">
<rect width="14" height="14" fill="white"/>
</clipPath>
</defs>
</svg>
