<svg width="16" height="16" viewBox="0 0 16 16" fill="none" xmlns="http://www.w3.org/2000/svg">
<path fill-rule="evenodd" clip-rule="evenodd" d="M12.1464 9.14645C12.3417 8.95118 12.6583 8.95118 12.8536 9.14645L15.8536 12.1464C16.0488 12.3417 16.0488 12.6583 15.8536 12.8536L12.8536 15.8536C12.6583 16.0488 12.3417 16.0488 12.1464 15.8536C11.9512 15.6583 11.9512 15.3417 12.1464 15.1464L14.2929 13H8.5C8.22386 13 8 12.7761 8 12.5C8 12.2238 8.22386 12 8.5 12H14.2929L12.1464 9.85355C11.9512 9.65829 11.9512 9.34171 12.1464 9.14645Z" fill="#6C707E"/>
<path d="M14.9451 9.82381C15.2503 7.66366 14.2655 5.38782 12.4211 3.54342C9.55592 0.678305 5.60271 -0.0339965 2.76887 2.79978C-0.0649633 5.63356 0.749897 9.73619 3.48908 12.4753C5.70444 14.6906 8.78097 15.6985 11.4089 14.4707C11.4189 14.4601 11.429 14.4497 11.4393 14.4393L11.8787 14H8.5C7.67157 14 7 13.3284 7 12.5C7 11.6716 7.67157 11 8.5 11H11.8787L11.4393 10.5607C10.8536 9.97487 10.8536 9.02513 11.4393 8.43934C12.0251 7.85355 12.9749 7.85355 13.5607 8.43934L14.9451 9.82381Z" fill="#F2FCF3"/>
<path d="M14.9451 9.82381C15.2503 7.66366 14.2655 5.38782 12.4211 3.54342C9.55592 0.678305 5.60271 -0.0339965 2.76887 2.79978C-0.0649632 5.63356 0.749897 9.73619 3.48908 12.4753C5.70444 14.6906 8.78097 15.6985 11.4089 14.4707C11.4189 14.4601 11.429 14.4497 11.4393 14.4393L11.8787 14H8.5C8.29547 14 8.1005 13.959 7.92284 13.8849C6.61914 13.6158 5.30564 12.8748 4.19761 11.7668C2.96238 10.5316 2.1978 9.02377 2.03495 7.5621C1.89119 6.27175 2.20946 4.98843 3.13864 3.87802L10.2607 11H11.6778L3.84627 3.1686C4.96097 2.22632 6.21752 1.89609 7.47661 2.03083C8.90451 2.18363 10.4065 2.94592 11.7126 4.25194C13.025 5.56439 13.8035 7.05797 13.9658 8.47924C13.9809 8.61074 13.9907 8.74233 13.9952 8.87387L14.9451 9.82381Z" fill="#208A3C"/>
</svg>
