<svg width="14" height="14" viewBox="0 0 14 14" fill="none" xmlns="http://www.w3.org/2000/svg">
<path d="M3 3V11C3 12.1046 3.89543 13 5 13H9C10.1046 13 11 12.1046 11 11V3C11 1.89543 10.1046 1 9 1H5C3.89543 1 3 1.89543 3 3Z" fill="#253627"/>
<path fill-rule="evenodd" clip-rule="evenodd" d="M4 3V11C4 11.5523 4.44772 12 5 12H9C9.55228 12 10 11.5523 10 11V3C10 2.44772 9.55228 2 9 2H5C4.44772 2 4 2.44772 4 3ZM3 11V3C3 1.89543 3.89543 1 5 1H9C10.1046 1 11 1.89543 11 3V11C11 12.1046 10.1046 13 9 13H5C3.89543 13 3 12.1046 3 11Z" fill="#57965C"/>
<path fill-rule="evenodd" clip-rule="evenodd" d="M0 3.5C0 3.22386 0.223858 3 0.5 3H2.99998V4H0.5C0.223858 4 0 3.77614 0 3.5ZM11 3H13.5C13.7761 3 14 3.22386 14 3.5C14 3.77614 13.7761 4 13.5 4H11V3ZM0 7C0 6.72386 0.223858 6.5 0.5 6.5H2.99998V7.5H0.5C0.223858 7.5 0 7.27614 0 7ZM11 6.5H13.5C13.7761 6.5 14 6.72386 14 7C14 7.27614 13.7761 7.5 13.5 7.5H11V6.5ZM0 10.5C0 10.2239 0.223858 10 0.5 10H2.99998V11H0.5C0.223858 11 0 10.7761 0 10.5ZM11 10H13.5C13.7761 10 14 10.2239 14 10.5C14 10.7761 13.7761 11 13.5 11H11V10Z" fill="#CED0D6"/>
</svg>
