<svg width="14" height="14" viewBox="0 0 14 14" fill="none" xmlns="http://www.w3.org/2000/svg">
<g clip-path="url(#clip0_3388_47498)">
<path d="M13.4766 4.33933L12.3991 6.57358L12.392 6.58704C12.3821 6.60572 12.3632 6.6397 12.3348 6.6854C12.2776 6.77723 12.1834 6.91354 12.0472 7.06728C11.7754 7.37418 11.3435 7.74272 10.7038 7.97807C10.1496 8.18196 9.69505 8.20349 9.12863 8.2303L9.10907 8.23123C8.53916 8.25823 7.81732 8.29243 7.02853 8.68236C6.41009 8.98808 5.88439 9.41115 5.5204 9.99219C5.15596 10.5739 5 11.24 5 11.9551C5 12.7951 5.326 13.4407 5.82631 13.902C2.5191 13.3437 0 10.466 0 7C0 3.13401 3.13401 0 7 0C9.92407 0 12.4294 1.79289 13.4766 4.33933Z" fill="#FFF4EB"/>
<path d="M7.57081 4C6.72702 4 6.06335 4.37098 5.68265 4.99832V4.12281H4.7002V11H5.70312V8.52032C6.08689 9.12719 6.74186 9.48538 7.57081 9.48538C9.02914 9.48538 10.0474 8.36988 10.0474 6.74269C10.0474 5.1155 9.02914 4 7.57081 4ZM7.36101 8.5848C6.38367 8.5848 5.70312 7.8326 5.70312 6.74269C5.70312 5.65278 6.38367 4.90058 7.36101 4.90058C8.33324 4.90058 9.00356 5.65278 9.00356 6.74269C9.00356 7.8326 8.33324 8.5848 7.36101 8.5848Z" fill="#E66D17"/>
<path d="M12.8465 5.64575C12.2325 2.98428 9.84799 1 7 1C3.68629 1 1 3.68629 1 7C1 9.6467 2.71369 11.8931 5.09202 12.6903C5.22229 13.183 5.48334 13.5858 5.82631 13.902C2.5191 13.3437 0 10.466 0 7C0 3.13401 3.13401 0 7 0C9.92407 0 12.4294 1.79289 13.4766 4.33933L12.8465 5.64575Z" fill="#E66D17"/>
<path d="M13.4211 12.7264C14.789 10.7804 13.3036 7 13.3036 7C13.3036 7 12.7009 8.3089 11.0491 8.9166C9.60551 9.44774 8.64125 9.00068 7.47168 9.57885C6.49036 10.064 6 10.8197 6 11.9551C6 12.649 6.3238 13.1034 6.82142 13.4027C11.9415 12.7264 12.9005 9.49314 12.9005 9.49314C12.9005 9.49314 12.3642 12.9368 7.96896 13.8127C8.6222 13.9449 9.35034 13.9789 10.008 13.9964C11.4319 14.0343 12.6774 13.7844 13.4211 12.7264Z" fill="#55A76A"/>
</g>
<defs>
<clipPath id="clip0_3388_47498">
<rect width="14" height="14" fill="white"/>
</clipPath>
</defs>
</svg>
