<svg width="16" height="16" viewBox="0 0 16 16" fill="none" xmlns="http://www.w3.org/2000/svg">
<g clip-path="url(#clip0_3392_47479)">
<path fill-rule="evenodd" clip-rule="evenodd" d="M14 16.0044H9C7.89539 16.0044 7 14.8851 7 13.5044C7 12.1237 7.89539 11.0044 9 11.0044H14C15.1046 11.0044 16 12.1237 16 13.5044C16 14.8851 15.1046 16.0044 14 16.0044ZM12.3999 15.0044H9C8.64441 15.0044 8 14.5526 8 13.5044C8 12.4562 8.64441 12.0044 9 12.0044H12.3999C12.1488 12.4222 12 12.9416 12 13.5044C12 14.0672 12.1488 14.5865 12.3999 15.0044ZM15 13.5044C15 14.5526 14.3556 15.0044 14 15.0044C13.6444 15.0044 13 14.5526 13 13.5044C13 12.4562 13.6444 12.0044 14 12.0044C14.3556 12.0044 15 12.4562 15 13.5044Z" fill="#548AF7"/>
<path d="M9 15.0044H12.3999C12.1488 14.5865 12 14.0672 12 13.5044C12 12.9416 12.1488 12.4222 12.3999 12.0044H9C8.64441 12.0044 8 12.4562 8 13.5044C8 14.5526 8.64441 15.0044 9 15.0044Z" fill="#25324D"/>
<path d="M14 15.0044C14.3556 15.0044 15 14.5526 15 13.5044C15 12.4562 14.3556 12.0044 14 12.0044C13.6444 12.0044 13 12.4562 13 13.5044C13 14.5526 13.6444 15.0044 14 15.0044Z" fill="#25324D"/>
<path d="M3 5.82843V11C3 12.1046 3.89543 13 5 13H6.03266C6.23165 11.4579 7.32817 10.0044 9 10.0044H12V3C12 1.89543 11.1046 1 10 1H7.82843C7.29799 1 6.78929 1.21071 6.41421 1.58579L3.58579 4.41421C3.21071 4.78929 3 5.29799 3 5.82843Z" fill="#43454A"/>
<path fill-rule="evenodd" clip-rule="evenodd" d="M3 11V5.82843C3 5.29799 3.21071 4.78929 3.58579 4.41421L6.41421 1.58579C6.78929 1.21071 7.29799 1 7.82843 1H10C11.1046 1 12 1.89543 12 3V10.0044H11V3C11 2.44772 10.5523 2 10 2H8V4.5C8 5.32843 7.32843 6 6.5 6H4V11C4 11.5523 4.44772 12 5 12H6.29477C6.16543 12.319 6.07688 12.6573 6.03266 13H5C3.89543 13 3 12.1046 3 11ZM4.41421 5L7 2.41421V4.5C7 4.77614 6.77614 5 6.5 5H4.41421Z" fill="#CED0D6"/>
<path d="M14 10.0044V4.5C14 4.22386 13.7761 4 13.5 4C13.2239 4 13 4.22386 13 4.5V10.0044H14Z" fill="#CED0D6"/>
</g>
<defs>
<clipPath id="clip0_3392_47479">
<rect width="16" height="16" fill="white"/>
</clipPath>
</defs>
</svg>
