<svg width="16" height="16" viewBox="0 0 16 16" fill="none" xmlns="http://www.w3.org/2000/svg">
<path fill-rule="evenodd" clip-rule="evenodd" d="M11.4328 9.65098C11.5711 9.89001 11.4894 10.1959 11.2504 10.3341C10.9158 10.5277 10.6299 10.7968 10.4164 11.1179C10.1533 11.5136 10 11.9881 10 12.5C10 13.8807 11.1193 15 12.5 15C13.8807 15 15 13.8807 15 12.5C15 11.9881 14.8467 11.5136 14.5836 11.1179C14.3701 10.7968 14.0842 10.5277 13.7496 10.3341C13.5106 10.1959 13.4289 9.89001 13.5672 9.65098C13.7055 9.41195 14.0113 9.33027 14.2504 9.46854C14.7185 9.73937 15.1179 10.1153 15.4164 10.5643C15.7851 11.1189 16 11.7851 16 12.5C16 14.433 14.433 16 12.5 16C10.567 16 9 14.433 9 12.5C9 11.7851 9.21486 11.1189 9.58363 10.5643C9.88212 10.1153 10.2815 9.73937 10.7496 9.46854C10.9887 9.33027 11.2945 9.41195 11.4328 9.65098Z" fill="#6C707E"/>
<path fill-rule="evenodd" clip-rule="evenodd" d="M12.5 8C12.7761 8 13 8.22386 13 8.5V11.5C13 11.7761 12.7761 12 12.5 12C12.2239 12 12 11.7761 12 11.5V8.5C12 8.22386 12.2239 8 12.5 8Z" fill="#6C707E"/>
<path d="M13.9836 8.27771C13.8762 7.5547 13.2529 7 12.5 7C11.7048 7 11.0541 7.61878 11.0032 8.4011C10.7468 8.40032 10.4868 8.46531 10.2489 8.60294C9.64713 8.95105 9.13432 9.43392 8.7509 10.0106C8.42206 10.5052 8.18834 11.0691 8.07585 11.6743C7.80117 11.8088 7.52609 11.9262 7.25453 12.0246C5.92295 12.5065 3.57821 12.9777 3.31088 13.0314C3.29444 13.0347 3.28585 13.0365 3.28585 13.0365L3.18238 12.9823C1.44444 12.1521 1.39622 8.45669 4.55116 7.26566C5.32861 6.97195 6.08696 6.93407 6.86743 6.89509C7.47602 6.86469 8.09806 6.83362 8.75308 6.68005C10.3481 6.30802 12.1948 5.1299 12.9454 3.59784C13.3954 4.90768 13.8934 6.61223 13.9836 8.27771Z" fill="#F2FCF3"/>
<path d="M8.24226 13.9604C7.72292 13.9646 7.20476 13.9484 6.70554 13.9329C6.07993 13.9134 5.48404 13.8948 4.95277 13.9184C4.95277 13.9184 4.52047 13.9425 4.08467 14.0131C4.08467 14.0131 4.24952 13.9442 4.45997 13.8727C5.0869 13.6598 5.59304 13.5091 6.03387 13.3779C6.78875 13.1531 7.35217 12.9853 8.00279 12.6599C8.01863 13.1137 8.10168 13.5504 8.24226 13.9604Z" fill="#F2FCF3"/>
<path d="M6.55611 5.92719C5.85274 5.96513 5.04122 6.0281 4.19306 6.34848C2.25367 7.08072 1.25338 8.61754 1.04186 10.1251C0.845643 11.5236 1.33026 13.1485 2.68495 13.836C2.69455 13.8582 2.70621 13.8868 2.72278 13.9275L2.76153 14.0223C2.80274 14.1231 2.90264 14.3675 3.08492 14.572C3.19454 14.695 3.35522 14.8302 3.57859 14.9162C3.80724 15.0043 4.03864 15.0165 4.24795 14.9825C4.43448 14.9523 4.62629 14.9312 4.77532 14.9176C4.84878 14.9109 4.90953 14.9062 4.95111 14.9032L4.9978 14.9001L5.00581 14.8996C5.49374 14.8783 6.04412 14.8954 6.67179 14.9149L6.95762 14.9236C7.511 14.9401 8.10922 14.9536 8.71409 14.9335C8.51984 14.6319 8.36064 14.3056 8.24226 13.9603C7.72308 13.9646 7.20509 13.9484 6.70602 13.9328C6.08041 13.9133 5.48453 13.8948 4.95325 13.9184C4.95325 13.9184 4.52096 13.9425 4.08516 14.0131C4.08516 14.0131 4.25001 13.9442 4.46046 13.8727C5.08736 13.6598 5.59348 13.5091 6.03431 13.3779C6.789 13.1531 7.35238 12.9854 8.0028 12.6601C8.00094 12.607 8 12.5536 8 12.5C8 12.2184 8.02602 11.9424 8.0758 11.6745C7.80131 11.809 7.5264 11.9263 7.25502 12.0246C5.84152 12.5361 3.28634 13.0365 3.28634 13.0365L3.18287 12.9822C1.44493 12.1521 1.3967 8.45667 4.55165 7.26564C5.3291 6.97193 6.08745 6.93405 6.86791 6.89507C7.4765 6.86467 8.09855 6.8336 8.75357 6.68003C10.3486 6.308 12.1953 5.12988 12.9458 3.59782C13.3963 4.90905 13.895 6.61582 13.9844 8.28298C13.9901 8.32189 13.9942 8.36129 13.9968 8.4011C14.2532 8.40032 14.5132 8.46531 14.7511 8.60294C14.8353 8.65166 14.9178 8.70303 14.9984 8.75692C14.9973 8.46069 14.983 8.16673 14.9587 7.87787C14.8172 6.1955 14.3228 4.53336 13.8934 3.28357L13.1088 1L12.0449 3.17167C11.4581 4.36933 9.90789 5.40096 8.52266 5.72407L8.52154 5.72433C7.96186 5.85554 7.43529 5.88228 6.82056 5.91348L6.81914 5.91355C6.73331 5.91791 6.64574 5.92236 6.55611 5.92719Z" fill="#208A3C"/>
</svg>
