<svg width="16" height="16" viewBox="0 0 16 16" fill="none" xmlns="http://www.w3.org/2000/svg">
<path fill-rule="evenodd" clip-rule="evenodd" d="M14 16H9C7.89539 16 7 14.8807 7 13.5C7 12.1193 7.89539 11 9 11H14C15.1046 11 16 12.1193 16 13.5C16 14.8807 15.1046 16 14 16ZM12.3999 15H9C8.64441 15 8 14.5482 8 13.5C8 12.4518 8.64441 12 9 12H12.3999C12.1488 12.4178 12 12.9372 12 13.5C12 14.0628 12.1488 14.5822 12.3999 15ZM15 13.5C15 14.5482 14.3556 15 14 15C13.6444 15 13 14.5482 13 13.5C13 12.4518 13.6444 12 14 12C14.3556 12 15 12.4518 15 13.5Z" fill="#548AF7"/>
<path d="M9 15H12.3999C12.1488 14.5822 12 14.0628 12 13.5C12 12.9372 12.1488 12.4178 12.3999 12H9C8.64441 12 8 12.4518 8 13.5C8 14.5482 8.64441 15 9 15Z" fill="#25324D"/>
<path d="M14 15C14.3556 15 15 14.5482 15 13.5C15 12.4518 14.3556 12 14 12C13.6444 12 13 12.4518 13 13.5C13 14.5482 13.6444 15 14 15Z" fill="#25324D"/>
<path d="M6.55611 5.92719C5.85274 5.96513 5.04122 6.0281 4.19306 6.34848C2.25367 7.08072 1.25338 8.61754 1.04186 10.1251C0.845643 11.5236 1.33026 13.1485 2.68495 13.836C2.69455 13.8582 2.70621 13.8868 2.72278 13.9275L2.76153 14.0223C2.80274 14.1231 2.90264 14.3675 3.08492 14.572C3.19454 14.695 3.35522 14.8302 3.57859 14.9162C3.80724 15.0043 4.03864 15.0165 4.24795 14.9825C4.43448 14.9523 4.62629 14.9312 4.77532 14.9176C4.84878 14.9109 4.90953 14.9062 4.95111 14.9032L4.9978 14.9001L5.00581 14.8996C5.38268 14.8832 5.79681 14.8896 6.25503 14.9024C6.13652 14.5852 6.05772 14.2509 6.02199 13.9136C5.64603 13.9054 5.2869 13.9035 4.95325 13.9184C4.95325 13.9184 4.52096 13.9425 4.08516 14.0131C4.08516 14.0131 4.25001 13.9442 4.46046 13.8727C5.07193 13.6651 5.5685 13.5166 6.00164 13.3876C6.01168 13.0425 6.0677 12.6962 6.16614 12.3636C4.8184 12.7365 3.28634 13.0365 3.28634 13.0365L3.18287 12.9822C1.44493 12.1521 1.3967 8.45667 4.55165 7.26564C5.3291 6.97193 6.08745 6.93405 6.86791 6.89507C7.4765 6.86467 8.09855 6.8336 8.75357 6.68003C10.3486 6.308 12.1953 5.12988 12.9458 3.59782C13.554 5.3679 14.2498 7.85881 13.9084 10H14C14.3208 10 14.6204 10.0535 14.8965 10.1509C15.0174 9.39144 15.0209 8.6179 14.9587 7.87787C14.8172 6.1955 14.3228 4.53336 13.8934 3.28357L13.1088 1L12.0449 3.17167C11.4581 4.36933 9.90789 5.40096 8.52266 5.72407L8.52154 5.72433C7.96186 5.85554 7.43529 5.88228 6.82056 5.91348L6.81914 5.91355C6.73331 5.91791 6.64574 5.92236 6.55611 5.92719Z" fill="#57965C"/>
<path d="M13.9079 10C14.2493 7.8588 13.5535 5.36788 12.9454 3.59778C12.1948 5.12984 10.3481 6.30795 8.75308 6.67999C8.09806 6.83356 7.47602 6.86463 6.86743 6.89503C6.08696 6.93401 5.32861 6.97189 4.55116 7.2656C1.39622 8.45663 1.44444 12.152 3.18238 12.9822L3.28585 13.0365L3.31088 13.0314C3.51421 12.9905 4.91923 12.7082 6.16623 12.3633C6.54658 11.0786 7.55983 10 9 10H13.9079Z" fill="#253627"/>
<path d="M4.95277 13.9183C5.28655 13.9035 5.64585 13.9053 6.02199 13.9136C6.00741 13.7759 6 13.6377 6 13.5C6 13.4625 6.00055 13.425 6.00165 13.3874C5.56839 13.5164 5.07168 13.6649 4.45997 13.8727C4.24952 13.9442 4.08467 14.0131 4.08467 14.0131C4.52047 13.9424 4.95277 13.9183 4.95277 13.9183Z" fill="#253627"/>
</svg>
