<svg width="16" height="16" viewBox="0 0 16 16" fill="none" xmlns="http://www.w3.org/2000/svg">
<path d="M3 11V5.82843C3 5.29799 3.21071 4.78929 3.58579 4.41421L6.41421 1.58579C6.78929 1.21071 7.29799 1 7.82843 1H10C11.1046 1 12 1.89543 12 3V9.03245C11.8364 9.01104 11.6695 9 11.5 9C10.211 9 9.07285 9.64131 8.38421 10.6183C7.24585 10.9313 6.35944 11.8476 6.08704 13H5C3.89543 13 3 12.1046 3 11Z" fill="#43454A"/>
<path fill-rule="evenodd" clip-rule="evenodd" d="M3 5.82843V11C3 12.1046 3.89543 13 5 13H6.08704C6.17216 12.6399 6.31725 12.3028 6.51125 12H5C4.44772 12 4 11.5523 4 11V6H6.5C7.32843 6 8 5.32843 8 4.5V2H10C10.5523 2 11 2.44772 11 3V9.03257C11.1636 9.01109 11.3305 9 11.5 9C11.6695 9 11.8364 9.01104 12 9.03245V3C12 1.89543 11.1046 1 10 1H7.82843C7.29799 1 6.78929 1.21071 6.41421 1.58579L3.58579 4.41421C3.21071 4.78929 3 5.29799 3 5.82843ZM7 2.41421L4.41421 5H6.5C6.77614 5 7 4.77614 7 4.5V2.41421Z" fill="#CED0D6"/>
<path d="M14 9.93486C13.7035 9.67653 13.3666 9.46348 13 9.30634V4.5C13 4.22386 13.2239 4 13.5 4C13.7761 4 14 4.22386 14 4.5V9.93486Z" fill="#CED0D6"/>
<path d="M13.2751 12.4584L13.4232 13.2097L14.1872 13.2626C14.6481 13.2945 15 13.6706 15 14.125C15 14.6077 14.6077 15 14.125 15H9.25C8.56104 15 8 14.439 8 13.75C8 13.1069 8.48746 12.5758 9.11197 12.5094L9.64538 12.4527L9.89316 11.9769C10.1968 11.394 10.8042 11 11.5 11C12.3778 11 13.1107 11.624 13.2751 12.4584Z" fill="#25324D"/>
<path fill-rule="evenodd" clip-rule="evenodd" d="M13.4232 13.2097L13.2751 12.4584C13.1107 11.624 12.3778 11 11.5 11C10.8042 11 10.1968 11.394 9.89316 11.9769L9.64538 12.4527L9.11197 12.5094C8.48746 12.5758 8 13.1069 8 13.75C8 14.439 8.56103 15 9.25 15H14.125C14.6077 15 15 14.6077 15 14.125C15 13.6706 14.6481 13.2945 14.1872 13.2626L13.4232 13.2097ZM11.5 10C12.865 10 14.0012 10.9713 14.2562 12.265C15.2312 12.3325 16 13.135 16 14.125C16 15.16 15.16 16 14.125 16H9.25C8.00875 16 7 14.9913 7 13.75C7 12.5912 7.8775 11.635 9.00625 11.515C9.475 10.615 10.4162 10 11.5 10Z" fill="#548AF7"/>
</svg>
