<svg width="16" height="16" viewBox="0 0 16 16" fill="none" xmlns="http://www.w3.org/2000/svg">
<path fill-rule="evenodd" clip-rule="evenodd" d="M1 1.5V3.5C1 3.77614 1.22386 4 1.5 4H3.5C3.77614 4 4 3.77614 4 3.5V1.5C4 1.22386 3.77614 1 3.5 1H1.5C1.22386 1 1 1.22386 1 1.5ZM2 3H3V2H2V3Z" fill="#6C707E"/>
<path fill-rule="evenodd" clip-rule="evenodd" d="M1 14V11C1 10.4477 1.44772 10 2 10H5C5.55228 10 6 10.4477 6 11V14C6 14.5523 5.55228 15 5 15H2C1.44772 15 1 14.5523 1 14ZM2 11V14H5V11H2Z" fill="#6C707E"/>
<path fill-rule="evenodd" clip-rule="evenodd" d="M10 2C10 1.44772 10.4477 1 11 1H14C14.5523 1 15 1.44772 15 2V5C15 5.55228 14.5523 6 14 6H11C10.4477 6 10 5.55228 10 5V2ZM11 5H14V2L11 2V5Z" fill="#6C707E"/>
<path d="M5 2.5C5 2.22386 5.22386 2 5.5 2H8.5C8.77614 2 9 2.22386 9 2.5C9 2.77614 8.77614 3 8.5 3H5.5C5.22386 3 5 2.77614 5 2.5Z" fill="#6C707E"/>
<path d="M2.5 5C2.77614 5 3 5.22386 3 5.5V8.5C3 8.77614 2.77614 9 2.5 9C2.22386 9 2 8.77614 2 8.5V5.5C2 5.22386 2.22386 5 2.5 5Z" fill="#6C707E"/>
<path d="M12.5 7C12.7761 7 13 7.22386 13 7.5V9.85337C12.9067 9.89791 12.808 9.93977 12.7038 9.97809C12.4556 10.0694 12.2273 10.1242 12 10.1592V7.5C12 7.22386 12.2239 7 12.5 7Z" fill="#6C707E"/>
<path d="M15.4211 14.7264C16.789 12.7804 15.3036 9 15.3036 9C15.3036 9 14.7009 10.3089 13.0491 10.9166C11.6055 11.4477 10.6413 11.0007 9.47168 11.5788C8.49036 12.064 8 12.8197 8 13.9551C8 14.649 8.3238 15.1034 8.82142 15.4027C13.9415 14.7264 14.9005 11.4931 14.9005 11.4931C14.9005 11.4931 14.3642 14.9368 9.96896 15.8127C10.6222 15.9449 11.3503 15.9789 12.008 15.9964C13.4319 16.0343 14.6774 15.7844 15.4211 14.7264Z" fill="#55A76A"/>
</svg>
