<svg width="14" height="14" viewBox="0 0 14 14" fill="none" xmlns="http://www.w3.org/2000/svg">
<path fill-rule="evenodd" clip-rule="evenodd" d="M9.4328 7.65098C9.57107 7.89001 9.48939 8.19588 9.25036 8.33415C8.91577 8.5277 8.62991 8.79676 8.41637 9.11794C8.15329 9.51361 8 9.98814 8 10.5C8 11.8807 9.11929 13 10.5 13C11.8807 13 13 11.8807 13 10.5C13 9.98814 12.8467 9.51361 12.5836 9.11794C12.3701 8.79676 12.0842 8.5277 11.7496 8.33415C11.5106 8.19588 11.4289 7.89001 11.5672 7.65098C11.7055 7.41195 12.0113 7.33027 12.2504 7.46854C12.7185 7.73937 13.1179 8.11534 13.4164 8.56427C13.7851 9.1189 14 9.78512 14 10.5C14 12.433 12.433 14 10.5 14C8.567 14 7 12.433 7 10.5C7 9.78512 7.21486 9.1189 7.58363 8.56426C7.88212 8.11534 8.28145 7.73937 8.74964 7.46854C8.98867 7.33027 9.29453 7.41195 9.4328 7.65098Z" fill="#6C707E"/>
<path fill-rule="evenodd" clip-rule="evenodd" d="M10.5 6C10.7761 6 11 6.22386 11 6.5V9.5C11 9.77614 10.7761 10 10.5 10C10.2239 10 10 9.77614 10 9.5V6.5C10 6.22386 10.2239 6 10.5 6Z" fill="#6C707E"/>
<path d="M12.9408 6.71901C12.8786 6.67882 12.8153 6.64011 12.7511 6.60294C12.5132 6.46531 12.2532 6.40032 11.9968 6.4011C11.9459 5.61878 11.2952 5 10.5 5C9.7048 5 9.05413 5.61878 9.00321 6.4011C8.74683 6.40032 8.48683 6.46531 8.24891 6.60294C7.64713 6.95105 7.13432 7.43392 6.7509 8.01059C6.27645 8.72417 6 9.58206 6 10.5C6 10.7035 6.0135 10.9038 6.03966 11.1001C4.6853 11.5546 2.56618 11.9805 2.31284 12.0314C2.29639 12.0347 2.28781 12.0365 2.28781 12.0365L2.18434 11.9822C0.446396 11.152 0.398169 7.45666 3.55312 6.26563C4.33057 5.97192 5.08892 5.93404 5.86938 5.89506C6.47797 5.86466 7.10001 5.83359 7.75504 5.68002C9.35005 5.30799 11.1967 4.12987 11.9473 2.59781C12.3471 3.76142 12.7848 5.23652 12.9408 6.71901Z" fill="#F2FCF3"/>
<path d="M6.73039 12.9586C6.53381 12.6578 6.37227 12.3321 6.25153 11.9871C5.87515 12.1279 5.49017 12.2425 5.03583 12.3778C4.59499 12.5091 4.08885 12.6598 3.46192 12.8727C3.25148 12.9442 3.08663 13.0131 3.08663 13.0131C3.52243 12.9425 3.95472 12.9184 3.95472 12.9184C4.48599 12.8947 5.08188 12.9133 5.70749 12.9328C6.04175 12.9433 6.38449 12.9539 6.73039 12.9586Z" fill="#F2FCF3"/>
<path d="M5.55806 4.92719C4.8547 4.96513 4.04318 5.0281 3.19501 5.34848C1.25562 6.08072 0.255335 7.61754 0.043817 9.12509C-0.152404 10.5236 0.332217 12.1485 1.6869 12.836C1.69651 12.8582 1.70816 12.8868 1.72473 12.9275L1.76348 13.0223C1.8047 13.1231 1.9046 13.3675 2.08688 13.572C2.19649 13.695 2.35718 13.8302 2.58054 13.9162C2.80919 14.0043 3.0406 14.0165 3.2499 13.9825C3.43643 13.9523 3.62824 13.9312 3.77727 13.9176C3.85073 13.9109 3.91149 13.9062 3.95306 13.9032L3.99975 13.9001L4.00776 13.8996C4.49569 13.8783 5.04607 13.8954 5.67375 13.9149L5.95957 13.9236C6.47609 13.939 7.03168 13.9518 7.59527 13.9371C7.26189 13.655 6.9701 13.3254 6.73039 12.9586C6.38466 12.9539 6.04208 12.9433 5.70798 12.9328C5.08237 12.9133 4.48648 12.8948 3.95521 12.9184C3.95521 12.9184 3.52291 12.9425 3.08711 13.0131C3.08711 13.0131 3.25196 12.9442 3.46241 12.8727C4.08931 12.6598 4.59543 12.5091 5.03626 12.3779C5.49043 12.2426 5.87535 12.128 6.25159 11.9873C6.15225 11.7035 6.08054 11.4068 6.03968 11.1002C4.59737 11.5843 2.28829 12.0365 2.28829 12.0365L2.18482 11.9822C0.446884 11.1521 0.398657 7.45667 3.5536 6.26564C4.33105 5.97193 5.0894 5.93405 5.86987 5.89507C6.47845 5.86467 7.1005 5.8336 7.75553 5.68003C9.35054 5.308 11.1972 4.12988 11.9478 2.59782C12.3476 3.76151 12.7853 5.23675 12.9413 6.71935C13.3429 6.97903 13.7001 7.30073 13.9997 7.67102C13.9964 7.40386 13.9826 7.13879 13.9606 6.87787C13.8191 5.1955 13.3247 3.53336 12.8953 2.28357L12.1108 0L11.0468 2.17167C10.4601 3.36933 8.90985 4.40096 7.52462 4.72407L7.5235 4.72433C6.96382 4.85554 6.43725 4.88228 5.82251 4.91348L5.8211 4.91355C5.73526 4.91791 5.64769 4.92236 5.55806 4.92719Z" fill="#208A3C"/>
</svg>
