<svg width="16" height="16" viewBox="0 0 16 16" fill="none" xmlns="http://www.w3.org/2000/svg">
<path d="M8.85355 11.1464C8.75979 11.0527 8.63261 11 8.5 11C8.36739 11 8.24021 11.0527 8.14645 11.1464L6.64645 12.6464C6.45118 12.8417 6.45118 13.1583 6.64645 13.3536C6.84171 13.5488 7.15829 13.5488 7.35355 13.3536L8 12.7071V13.5C8 14.8807 9.11929 16 10.5 16H13.5C14.8807 16 16 14.8807 16 13.5V12.5C16 12.2239 15.7761 12 15.5 12C15.2239 12 15 12.2239 15 12.5V13.5C15 14.3284 14.3284 15 13.5 15H10.5C9.67157 15 9 14.3284 9 13.5V12.7071L9.64645 13.3536C9.84171 13.5488 10.1583 13.5488 10.3536 13.3536C10.5488 13.1583 10.5488 12.8417 10.3536 12.6464L8.85355 11.1464Z" fill="#3574F0"/>
<path d="M6 10.5C6 9.67157 6.67157 9 7.5 9H10.5C11.3284 9 12 9.67157 12 10.5V11.2929L11.3536 10.6464C11.1583 10.4512 10.8417 10.4512 10.6464 10.6464C10.4512 10.8417 10.4512 11.1583 10.6464 11.3536L12.1464 12.8536C12.3417 13.0488 12.6583 13.0488 12.8536 12.8536L14.3536 11.3536C14.5488 11.1583 14.5488 10.8417 14.3536 10.6464C14.1583 10.4512 13.8417 10.4512 13.6464 10.6464L13 11.2929V10.5C13 9.11929 11.8807 8 10.5 8H7.5C6.11929 8 5 9.11929 5 10.5V11.5C5 11.7761 5.22386 12 5.5 12C5.77614 12 6 11.7761 6 11.5V10.5Z" fill="#6C707E"/>
<path d="M6.55611 5.92719C5.85274 5.96513 5.04122 6.0281 4.19306 6.34848C2.25367 7.08072 1.25338 8.61754 1.04186 10.1251C0.845643 11.5236 1.33026 13.1485 2.68495 13.836C2.69455 13.8582 2.70621 13.8868 2.72278 13.9275L2.76153 14.0223C2.80274 14.1231 2.90264 14.3675 3.08492 14.572C3.19454 14.695 3.35522 14.8302 3.57859 14.9162C3.80724 15.0043 4.03864 15.0165 4.24795 14.9825C4.43448 14.9523 4.62629 14.9312 4.77532 14.9176C4.84878 14.9109 4.90953 14.9062 4.95111 14.9032L4.9978 14.9001L5.00581 14.8996C5.49374 14.8783 6.04412 14.8954 6.67179 14.9149L6.95762 14.9236C7.07192 14.927 7.18814 14.9303 7.30593 14.9332C7.24217 14.7913 7.18758 14.6444 7.14293 14.4932C6.71292 14.5341 6.26863 14.3899 5.93934 14.0607C5.89131 14.0126 5.84721 13.9621 5.80706 13.9096C5.50887 13.9053 5.22275 13.9064 4.95325 13.9184C4.95325 13.9184 4.52096 13.9425 4.08516 14.0131C4.08516 14.0131 4.25001 13.9442 4.46046 13.8727C4.88683 13.7279 5.25733 13.6119 5.58942 13.5112C5.52981 13.3464 5.5 13.1732 5.5 13C5.18784 13 4.89796 12.9046 4.65788 12.7415C3.88234 12.9198 3.28634 13.0365 3.28634 13.0365L3.18287 12.9822C1.44493 12.1521 1.3967 8.45667 4.55165 7.26564C5.3291 6.97193 6.08745 6.93405 6.86791 6.89507C7.4765 6.86467 8.09855 6.8336 8.75357 6.68003C10.3486 6.308 12.1953 5.12988 12.9458 3.59782C13.5072 5.23179 14.1433 7.47997 13.9693 9.50032C14.3128 9.49333 14.6583 9.60366 14.9405 9.83132C15.0171 9.17557 15.0122 8.51433 14.9587 7.87787C14.8172 6.1955 14.3228 4.53336 13.8934 3.28357L13.1088 1L12.0449 3.17167C11.4581 4.36933 9.90789 5.40096 8.52266 5.72407L8.52154 5.72433C7.96186 5.85554 7.43529 5.88228 6.82056 5.91348L6.81914 5.91355C6.73331 5.91791 6.64574 5.92236 6.55611 5.92719Z" fill="#208A3C"/>
<path d="M12.2898 7.49163C12.3047 7.42386 12.3182 7.35599 12.3303 7.28803C12.3086 7.35055 12.2855 7.4128 12.2613 7.47479C12.2708 7.48036 12.2803 7.48597 12.2898 7.49163Z" fill="#208A3C"/>
<path d="M13.9688 9.50033C14.1428 7.47999 13.5067 5.2318 12.9454 3.59784C12.1948 5.1299 10.3481 6.30802 8.75308 6.68005C8.09806 6.83362 7.47602 6.86469 6.86743 6.89509C6.08696 6.93407 5.32861 6.97195 4.55116 7.26566C1.39622 8.45669 1.44444 12.1521 3.18238 12.9823L3.28585 13.0365L3.31088 13.0314C3.43149 13.0072 3.97493 12.898 4.65741 12.7412C4.26061 12.4713 4 12.0161 4 11.5V10.5C4 8.567 5.567 7 7.5 7H10.5C11.0365 7 11.5454 7.12086 12 7.33665C12.0954 7.38196 12.1884 7.43162 12.2788 7.48506C13.0334 7.94307 13.6058 8.6562 13.8571 9.50679C13.8942 9.50325 13.9315 9.5011 13.9688 9.50033Z" fill="#F2FCF3"/>
<path d="M5.80708 13.9096C5.7128 13.7863 5.64024 13.6517 5.58938 13.5111C5.25718 13.6118 4.88653 13.7279 4.45997 13.8727C4.24952 13.9442 4.08467 14.0131 4.08467 14.0131C4.52047 13.9425 4.95277 13.9184 4.95277 13.9184C5.22241 13.9064 5.5087 13.9053 5.80708 13.9096Z" fill="#F2FCF3"/>
</svg>
