<svg width="16" height="16" viewBox="0 0 16 16" fill="none" xmlns="http://www.w3.org/2000/svg">
<path d="M9.65817 1.70242C9.97761 1.79054 10.1651 2.12093 10.077 2.44037L6.92159 13.8788C6.83347 14.1982 6.50308 14.3857 6.18364 14.2976C5.8642 14.2095 5.67668 13.8791 5.7648 13.5596L8.92021 2.12126C9.00834 1.80182 9.33873 1.6143 9.65817 1.70242Z" fill="#C77D55"/>
<path d="M5.41232 4.66699C5.61933 4.92575 5.57738 5.30332 5.31862 5.51033L1.96 8.19723L5.31862 10.8841C5.57738 11.0911 5.61933 11.4687 5.41232 11.7275C5.20532 11.9862 4.82774 12.0282 4.56898 11.8212L0.0390625 8.19723L4.56898 4.57329C4.82774 4.36628 5.20532 4.40823 5.41232 4.66699Z" fill="#C77D55"/>
<path d="M14.9457 7.38571L14.4285 8.50872L10.6805 5.51036C10.4218 5.30336 10.3798 4.92578 10.5868 4.66702C10.7938 4.40827 11.1714 4.36631 11.4302 4.57332L14.9457 7.38571Z" fill="#C77D55"/>
<path d="M15.4211 14.7264C16.789 12.7804 15.3036 9 15.3036 9C15.3036 9 14.7009 10.3089 13.0491 10.9166C11.6055 11.4477 10.6413 11.0007 9.47168 11.5788C8.49036 12.064 8 12.8197 8 13.9551C8 14.649 8.3238 15.1034 8.82142 15.4027C13.9415 14.7264 14.9005 11.4931 14.9005 11.4931C14.9005 11.4931 14.3642 14.9368 9.96896 15.8127C10.6222 15.9449 11.3503 15.9789 12.008 15.9964C13.4319 16.0343 14.6774 15.7844 15.4211 14.7264Z" fill="#57965C"/>
</svg>
