<svg width="16" height="16" viewBox="0 0 16 16" fill="none" xmlns="http://www.w3.org/2000/svg">
<path d="M13.2751 12.4584L13.4232 13.2097L14.1872 13.2626C14.6481 13.2945 15 13.6706 15 14.125C15 14.6077 14.6077 15 14.125 15H9.25C8.56104 15 8 14.439 8 13.75C8 13.1069 8.48746 12.5758 9.11197 12.5094L9.64538 12.4527L9.89316 11.9769C10.1968 11.394 10.8042 11 11.5 11C12.3778 11 13.1107 11.624 13.2751 12.4584Z" fill="#EBECF0"/>
<path fill-rule="evenodd" clip-rule="evenodd" d="M13.4232 13.2097L13.2751 12.4584C13.1107 11.624 12.3778 11 11.5 11C10.8042 11 10.1968 11.394 9.89316 11.9769L9.64538 12.4527L9.11197 12.5094C8.48746 12.5758 8 13.1069 8 13.75C8 14.439 8.56103 15 9.25 15H14.125C14.6077 15 15 14.6077 15 14.125C15 13.6706 14.6481 13.2945 14.1872 13.2626L13.4232 13.2097ZM11.5 10C12.865 10 14.0012 10.9713 14.2562 12.265C15.2312 12.3325 16 13.135 16 14.125C16 15.16 15.16 16 14.125 16H9.25C8.00875 16 7 14.9913 7 13.75C7 12.5912 7.8775 11.635 9.00625 11.515C9.475 10.615 10.4162 10 11.5 10Z" fill="#6C707E"/>
<path d="M6.55611 5.92719C5.85274 5.96513 5.04122 6.0281 4.19306 6.34848C2.25367 7.08072 1.25338 8.61754 1.04186 10.1251C0.845643 11.5236 1.33026 13.1485 2.68495 13.836C2.69455 13.8582 2.70621 13.8868 2.72278 13.9275L2.76153 14.0223C2.80274 14.1231 2.90264 14.3675 3.08492 14.572C3.19454 14.695 3.35522 14.8302 3.57859 14.9162C3.80724 15.0043 4.03864 15.0165 4.24795 14.9825C4.43448 14.9523 4.62629 14.9312 4.77532 14.9176C4.84878 14.9109 4.90953 14.9062 4.95111 14.9032L4.9978 14.9001L5.00581 14.8996C5.37033 14.8837 5.76971 14.8892 6.21013 14.9011C6.09269 14.5916 6.0212 14.2595 6.00404 13.9132C5.63459 13.9053 5.28158 13.9038 4.95325 13.9184C4.95325 13.9184 4.52096 13.9425 4.08516 14.0131C4.08516 14.0131 4.25001 13.9442 4.46046 13.8727C5.08089 13.662 5.58302 13.5122 6.02063 13.3819C6.06332 13.0035 6.17105 12.6447 6.33243 12.3169C4.94786 12.7111 3.28634 13.0365 3.28634 13.0365L3.18287 12.9822C1.44493 12.1521 1.3967 8.45667 4.55165 7.26564C5.3291 6.97193 6.08745 6.93405 6.86791 6.89507C7.4765 6.86467 8.09855 6.8336 8.75357 6.68003C10.3486 6.308 12.1953 5.12988 12.9458 3.59782C13.542 5.33306 14.2225 7.76103 13.9274 9.87316C14.2532 10.1431 14.5334 10.4664 14.7546 10.8298C15.0093 9.85888 15.0396 8.84006 14.9587 7.87787C14.8172 6.1955 14.3228 4.53336 13.8934 3.28357L13.1088 1L12.0449 3.17167C11.4581 4.36933 9.90789 5.40096 8.52266 5.72407L8.52154 5.72433C7.96186 5.85554 7.43529 5.88228 6.82056 5.91348L6.81914 5.91355C6.73331 5.91791 6.64574 5.92236 6.55611 5.92719Z" fill="#208A3C"/>
<path d="M12.9454 3.59784C13.5415 5.33298 14.2219 7.76075 13.9269 9.8728C13.6246 9.62243 13.2829 9.418 12.9124 9.27009C12.5419 9.12218 12.1426 9.0308 11.7251 9.00653C11.6506 9.0022 11.5756 9 11.5 9C11.461 9 11.4222 9.00059 11.3834 9.00175C10.8932 9.01651 10.4265 9.12403 10 9.30714C9.3469 9.58752 8.7882 10.0451 8.38421 10.6183C7.48195 10.8664 6.73798 11.4935 6.33255 12.3167C5.04737 12.6825 3.5233 12.9888 3.31088 13.0314L3.28585 13.0365L3.18238 12.9823C1.44444 12.1521 1.39622 8.45669 4.55116 7.26566C5.32861 6.97195 6.08696 6.93407 6.86743 6.89509C7.47602 6.86469 8.09806 6.83362 8.75308 6.68005C10.3481 6.30802 12.1948 5.1299 12.9454 3.59784Z" fill="#F2FCF3"/>
<path d="M4.95277 13.9184C5.28124 13.9038 5.63441 13.9053 6.00404 13.9132C6.00136 13.8592 6 13.8047 6 13.75C6 13.6255 6.00701 13.5027 6.02065 13.3818C5.58292 13.5121 5.08064 13.662 4.45997 13.8727C4.24952 13.9442 4.08467 14.0131 4.08467 14.0131C4.52047 13.9425 4.95277 13.9184 4.95277 13.9184Z" fill="#F2FCF3"/>
</svg>
