<svg width="16" height="16" viewBox="0 0 16 16" fill="none" xmlns="http://www.w3.org/2000/svg">
<path fill-rule="evenodd" clip-rule="evenodd" d="M9 11.5C9 11.2239 9.22386 11 9.5 11H15.5C15.7761 11 16 11.2239 16 11.5C16 11.7761 15.7761 12 15.5 12H9.5C9.22386 12 9 11.7761 9 11.5ZM9 13.5C9 13.2239 9.22386 13 9.5 13H15.5C15.7761 13 16 13.2239 16 13.5C16 13.7761 15.7761 14 15.5 14H9.5C9.22386 14 9 13.7761 9 13.5ZM9 15.5C9 15.2239 9.22386 15 9.5 15H15.5C15.7761 15 16 15.2239 16 15.5C16 15.7761 15.7761 16 15.5 16H9.5C9.22386 16 9 15.7761 9 15.5Z" fill="#6C707E"/>
<path d="M13.9079 10C14.2493 7.85881 13.5535 5.36792 12.9454 3.59784C12.1948 5.1299 10.3481 6.30802 8.75308 6.68005C8.09806 6.83362 7.47602 6.86469 6.86743 6.89509C6.08696 6.93407 5.32861 6.97195 4.55116 7.26566C1.39622 8.45669 1.44444 12.1521 3.18238 12.9823L3.28585 13.0365C3.28585 13.0365 3.29444 13.0347 3.31088 13.0314C3.57821 12.9777 5.92295 12.5065 7.25453 12.0246C7.50109 11.9353 7.75057 11.8303 8 11.711V11.5C8 10.6716 8.67157 10 9.5 10H10.4818C11.3105 9.21368 11.9839 8.28313 12.3298 7.28805C12.1619 8.23459 11.7137 9.16606 11.1036 10H13.9079Z" fill="#F2FCF3"/>
<path d="M8 13.9609V12.6613C7.35056 12.9858 6.78767 13.1534 6.03387 13.3779C5.59304 13.5091 5.0869 13.6598 4.45997 13.8727C4.24952 13.9442 4.08467 14.0131 4.08467 14.0131C4.52047 13.9425 4.95277 13.9184 4.95277 13.9184C5.48404 13.8948 6.07993 13.9134 6.70554 13.9329C7.12709 13.946 7.56213 13.9596 8 13.9609Z" fill="#F2FCF3"/>
<path d="M6.55611 5.92719C5.85274 5.96513 5.04122 6.0281 4.19306 6.34848C2.25367 7.08072 1.25338 8.61754 1.04186 10.1251C0.845643 11.5236 1.33026 13.1485 2.68495 13.836C2.69455 13.8582 2.70621 13.8868 2.72278 13.9275L2.76153 14.0223C2.80274 14.1231 2.90264 14.3675 3.08492 14.572C3.19454 14.695 3.35522 14.8302 3.57859 14.9162C3.80724 15.0043 4.03864 15.0165 4.24795 14.9825C4.43448 14.9523 4.62629 14.9312 4.77532 14.9176C4.84878 14.9109 4.90953 14.9062 4.95111 14.9032L4.9978 14.9001L5.00581 14.8996C5.49374 14.8783 6.04412 14.8954 6.67179 14.9149L6.95762 14.9236C7.29155 14.9335 7.64181 14.9424 8 14.9435V13.9609C7.5623 13.9595 7.12742 13.946 6.70602 13.9328C6.08041 13.9133 5.48453 13.8948 4.95325 13.9184C4.95325 13.9184 4.52096 13.9425 4.08516 14.0131C4.08516 14.0131 4.25001 13.9442 4.46046 13.8727C5.08736 13.6598 5.59348 13.5091 6.03431 13.3779C6.78792 13.1535 7.35076 12.9859 8 12.6615V11.7112C7.75073 11.8304 7.50142 11.9353 7.25502 12.0246C5.84152 12.5361 3.28634 13.0365 3.28634 13.0365L3.18287 12.9822C1.44493 12.1521 1.3967 8.45667 4.55165 7.26564C5.3291 6.97193 6.08745 6.93405 6.86791 6.89507C7.4765 6.86467 8.09855 6.8336 8.75357 6.68003C10.3486 6.308 12.1953 5.12988 12.9458 3.59782C13.554 5.3679 14.2498 7.85881 13.9084 10H14.919C15.0175 9.28924 15.0168 8.56895 14.9587 7.87787C14.8172 6.1955 14.3228 4.53336 13.8934 3.28357L13.1088 1L12.0449 3.17167C11.4581 4.36933 9.90789 5.40096 8.52266 5.72407L8.52154 5.72433C7.96186 5.85554 7.43529 5.88228 6.82056 5.91348L6.81914 5.91355C6.73331 5.91791 6.64574 5.92236 6.55611 5.92719Z" fill="#208A3C"/>
<path d="M11.1041 10C11.7141 9.16605 12.1623 8.23458 12.3303 7.28803C11.9844 8.28312 11.3109 9.21367 10.4822 10H11.1041Z" fill="#208A3C"/>
</svg>
