<svg width="16" height="16" viewBox="0 0 16 16" fill="none" xmlns="http://www.w3.org/2000/svg">
<path d="M14.051 10.909L11.4996 9.03961L8.94824 10.909L11.4996 12.7784L14.051 10.909Z" fill="#EBECF0"/>
<path fill-rule="evenodd" clip-rule="evenodd" d="M12.0247 8.1746C11.7069 7.9418 11.293 7.9418 10.9753 8.1746L8.42388 10.044C7.86225 10.4555 7.86225 11.3625 8.42388 11.774L10.9753 13.6434C11.293 13.8762 11.7069 13.8762 12.0247 13.6434L14.5761 11.774C15.1377 11.3625 15.1377 10.4555 14.5761 10.044L12.0247 8.1746ZM14.0513 10.909L11.5 9.03962L8.94858 10.909L11.5 12.7784L14.0513 10.909Z" fill="#6C707E"/>
<path d="M8.07195 13.2326C8.2104 12.9891 8.50219 12.9151 8.7237 13.0673L11.2493 14.8021C11.4027 14.9075 11.5973 14.9075 11.7507 14.8021L14.2763 13.0673C14.4978 12.9151 14.7896 12.9891 14.928 13.2326C15.0665 13.476 14.9991 13.7967 14.7776 13.9489L12.252 15.6837C11.7919 15.9998 11.2081 15.9998 10.748 15.6837L8.22236 13.9489C8.00085 13.7967 7.93351 13.476 8.07195 13.2326Z" fill="#6C707E"/>
<path d="M13.9884 8.37357L12.6159 7.36795C11.9463 6.87735 11.054 6.87735 10.3844 7.36795L7.83304 9.23734C7.25306 9.6623 6.97696 10.3371 7.00476 11L7.00309 12.1116C5.64754 12.5619 3.56208 12.9809 3.31088 13.0314C3.29444 13.0347 3.28585 13.0365 3.28585 13.0365L3.18238 12.9823C1.44444 12.1521 1.39622 8.45668 4.55116 7.26565C5.32861 6.97193 6.08696 6.93406 6.86743 6.89507C7.47602 6.86467 8.09806 6.8336 8.75308 6.68004C10.3481 6.308 12.1948 5.12989 12.9454 3.59782C13.404 4.93282 13.9126 6.67781 13.9884 8.37357Z" fill="#F2FCF3"/>
<path d="M7.06154 13.9437C7.02031 13.7994 7.00011 13.6497 7.00101 13.5L7.00164 13.0759C6.7021 13.1789 6.3892 13.272 6.03387 13.3778C5.59304 13.5091 5.0869 13.6598 4.45997 13.8727C4.24952 13.9442 4.08467 14.0131 4.08467 14.0131C4.52047 13.9425 4.95277 13.9184 4.95277 13.9184C5.48404 13.8948 6.07993 13.9133 6.70554 13.9328C6.82323 13.9365 6.94197 13.9402 7.06154 13.9437Z" fill="#F2FCF3"/>
<path d="M4.19306 6.34848C5.04122 6.0281 5.85274 5.96513 6.55611 5.92719C6.64574 5.92236 6.73331 5.91791 6.81914 5.91355L6.82056 5.91348C7.43529 5.88228 7.96186 5.85554 8.52154 5.72433L8.52266 5.72407C9.90789 5.40096 11.4581 4.36933 12.0449 3.17167L13.1088 1L13.8934 3.28357C14.3228 4.53336 14.8172 6.1955 14.9587 7.87787C14.9926 8.2812 15.007 8.69448 14.9935 9.11L13.9889 8.37394C13.9131 6.67807 13.4045 4.93291 12.9458 3.59782C12.1953 5.12988 10.3486 6.308 8.75357 6.68003C8.09855 6.8336 7.47651 6.86467 6.86792 6.89507C6.08745 6.93405 5.3291 6.97193 4.55165 7.26564C1.3967 8.45667 1.44493 12.1521 3.18287 12.9822L3.28634 13.0365C3.28634 13.0365 5.55553 12.5922 7 12.1128V13.0767C6.7011 13.1793 6.38879 13.2723 6.03431 13.3779C5.59349 13.5091 5.08734 13.6598 4.46046 13.8727C4.25001 13.9442 4.08516 14.0131 4.08516 14.0131C4.52096 13.9425 4.95325 13.9184 4.95325 13.9184C5.48453 13.8948 6.08041 13.9133 6.70602 13.9328C6.82326 13.9365 6.94244 13.9402 7.06153 13.9437C7.15408 14.2676 7.3526 14.5645 7.65636 14.7731L7.90365 14.943C7.579 14.9408 7.26154 14.9326 6.95762 14.9236L6.67179 14.9149C6.04413 14.8954 5.49374 14.8783 5.00581 14.8996L4.9978 14.9001L4.95111 14.9032C4.90953 14.9062 4.84878 14.9109 4.77532 14.9176C4.62629 14.9312 4.43448 14.9523 4.24795 14.9825C4.03864 15.0165 3.80724 15.0043 3.57859 14.9162C3.35522 14.8302 3.19454 14.695 3.08492 14.572C2.90264 14.3675 2.80274 14.1231 2.76153 14.0223L2.72278 13.9275C2.70621 13.8868 2.69455 13.8582 2.68495 13.836C1.33026 13.1485 0.845643 11.5236 1.04186 10.1251C1.25338 8.61754 2.25367 7.08072 4.19306 6.34848Z" fill="#208A3C"/>
</svg>
