<svg width="16" height="16" viewBox="0 0 16 16" fill="none" xmlns="http://www.w3.org/2000/svg">
<path d="M6 10C6 9.44772 6.44772 9 7 9L12.5 9C13.0523 9 13.5 9.44772 13.5 10V12.25C13.5 14.3211 11.8211 16 9.75 16C7.67893 16 6 14.3211 6 12.25V10Z" fill="#EDF3FF"/>
<path fill-rule="evenodd" clip-rule="evenodd" d="M13.425 13C13.0775 14.7117 11.5642 16 9.75 16C7.67893 16 6 14.3211 6 12.25V10C6 9.44772 6.44772 9 7 9H14C15.1046 9 16 9.89543 16 11C16 12.1046 15.1046 13 14 13H13.425ZM7 10H12.5V12.25C12.5 13.7688 11.2688 15 9.75 15C8.23122 15 7 13.7688 7 12.25V10ZM13.5 12H14C14.5523 12 15 11.5523 15 11C15 10.4477 14.5523 10 14 10H13.5V12Z" fill="#3574F0"/>
<path d="M2.47037 5.67626C2.66735 5.20781 2.92233 4.76924 3.22655 4.36961L4.87261 4.38764C5.52165 4.39475 6.12297 4.04758 6.44133 3.48194L7.24899 2.04695C7.49594 2.016 7.74792 2 8.00408 2C8.2602 2 8.51214 2.01599 8.75904 2.04693L9.56671 3.48194C9.88507 4.04758 10.4864 4.39475 11.1354 4.38764L12.7816 4.36961C13.0858 4.76921 13.3408 5.20773 13.5377 5.67613L12.6981 7.0943C12.5328 7.37356 12.4501 7.68678 12.4501 8H13.4501C13.4501 7.86297 13.4863 7.72593 13.5586 7.60376L14.4612 6.07931C14.5763 5.88489 14.6034 5.6491 14.5207 5.43884C14.2632 4.78416 13.9099 4.17766 13.4781 3.63661C13.3372 3.46012 13.1196 3.36585 12.8938 3.36832L11.1245 3.3877C10.8405 3.39081 10.5774 3.23892 10.4382 2.99146L9.56986 1.44873C9.45889 1.25157 9.26792 1.11007 9.04414 1.07674C8.7048 1.02619 8.3575 1 8.00408 1C7.65062 1 7.30327 1.0262 6.96387 1.07676C6.7401 1.1101 6.54914 1.25159 6.43817 1.44875L5.56988 2.99146C5.4306 3.23892 5.16752 3.39081 4.88356 3.3877L3.1144 3.36832C2.8886 3.36585 2.67096 3.46012 2.53009 3.63661C2.09822 4.1777 1.74489 4.78425 1.48738 5.43898C1.40469 5.64924 1.43184 5.88502 1.54695 6.07944L2.44942 7.60376C2.5941 7.84811 2.5941 8.15189 2.44942 8.39625L1.54695 9.92057C1.43184 10.115 1.40469 10.3508 1.48738 10.561C1.74489 11.2158 2.09822 11.8223 2.5301 12.3634C2.67096 12.5399 2.8886 12.6342 3.1144 12.6317L4.88356 12.6123C4.92779 12.6118 4.97152 12.6151 5.01435 12.6219C5.00484 12.4992 5 12.3752 5 12.25V11.6155C4.95779 11.613 4.9153 11.6119 4.87261 11.6124L3.22656 11.6304C2.92233 11.2308 2.66736 10.7922 2.47037 10.3237L3.30992 8.9057C3.6406 8.34718 3.6406 7.65283 3.30992 7.0943L2.47037 5.67626Z" fill="#6C707E"/>
<path d="M10.655 8C10.655 6.5359 9.4681 5.34902 8.004 5.34902C6.5399 5.34902 5.353 6.53591 5.353 8.00001C5.353 8.25324 5.38851 8.49818 5.45481 8.73011C5.68891 8.44559 6.00005 8.22687 6.35634 8.10583C6.35413 8.07084 6.353 8.03556 6.353 8.00001C6.353 7.08819 7.09218 6.34902 8.004 6.34902C8.91582 6.34902 9.65499 7.08819 9.655 8H10.655Z" fill="#6C707E"/>
</svg>
