<svg width="16" height="16" viewBox="0 0 16 16" fill="none" xmlns="http://www.w3.org/2000/svg">
<path d="M8.74086 7.52789H6.96858L5.83013 9.62504H9.55688L8.74086 7.52789Z" fill="#6C707E"/>
<path d="M12.7483 9.62504H15V7.52789H11.9323L12.7483 9.62504Z" fill="#6C707E"/>
<path d="M1 7.52789H3.61305L2.47459 9.62504H1V7.52789Z" fill="#6C707E"/>
<path d="M5.03206 6.07086L2.20102 11.8372L2.13843 14.0231L3.76461 12.5199L6.60462 6.73529L5.03206 6.07086Z" fill="#6C707E"/>
<path d="M5.39137 5.339L6.96393 6.00342L7.38638 5.14297C7.62884 4.64912 7.44379 4.17881 7.03438 4.00005C6.59605 3.80866 6.09154 3.91286 5.78917 4.52874L5.39137 5.339Z" fill="#6C707E"/>
<path d="M11.2123 12.54C11.2138 12.5441 11.2146 12.5462 11.2146 12.5462C11.6383 13.6819 12.7182 14.3434 13.6267 13.8138C13.6267 13.8138 13.3315 13.0146 12.8898 11.8194L11.2123 12.54Z" fill="#6C707E"/>
<path d="M10.8477 11.5576L12.5266 10.8365C11.1882 7.21492 9.09253 1.54574 8.98676 1.2702C8.91003 1.07031 8.3553 0.936236 7.93568 1.10951C7.51501 1.2832 7.19447 1.72886 7.2712 1.92875C7.33333 2.09062 9.88084 8.95305 10.8477 11.5576Z" fill="#6C707E"/>
</svg>
