<svg width="16" height="16" viewBox="0 0 16 16" fill="none" xmlns="http://www.w3.org/2000/svg">
<path d="M0.552734 12.5L1.95673 3.40002H3.43873L4.86873 12.5H3.75723L2.78223 5.31102L2.70423 4.70002L2.62623 5.31102L1.70323 12.5H0.552734ZM1.34573 10.0885V9.14602H3.96523V10.0885H1.34573Z" fill="#548AF7"/>
<path d="M7.04766 12.656C6.60999 12.656 6.25249 12.5607 5.97516 12.37C5.69782 12.1794 5.49199 11.8847 5.35766 11.486C5.22766 11.083 5.16266 10.5652 5.16266 9.93252H6.28066C6.28066 10.3355 6.30666 10.667 6.35866 10.927C6.41499 11.1827 6.49949 11.3712 6.61216 11.4925C6.72916 11.6139 6.87866 11.6745 7.06066 11.6745C7.23399 11.6745 7.37266 11.6182 7.47666 11.5055C7.58499 11.3885 7.66516 11.2109 7.71716 10.9725C7.76916 10.7299 7.79516 10.4179 7.79516 10.0365C7.79516 9.62485 7.74099 9.29768 7.63266 9.05502C7.52866 8.81235 7.36399 8.61952 7.13866 8.47652L6.56016 8.12552C6.26982 7.94352 6.03366 7.73985 5.85166 7.51452C5.66966 7.28918 5.53532 7.03352 5.44866 6.74752C5.36199 6.45718 5.31866 6.12352 5.31866 5.74652C5.31866 5.16152 5.37716 4.68485 5.49416 4.31652C5.61549 3.94818 5.79966 3.67735 6.04666 3.50402C6.29366 3.33069 6.61432 3.24402 7.00866 3.24402C7.41166 3.24402 7.73882 3.33285 7.99016 3.51052C8.24149 3.68385 8.42782 3.95685 8.54916 4.32952C8.67049 4.69785 8.73116 5.17668 8.73116 5.76602H7.61966C7.61966 5.40635 7.59799 5.11385 7.55466 4.88852C7.51132 4.66319 7.44632 4.49635 7.35966 4.38802C7.27732 4.27969 7.16466 4.22552 7.02166 4.22552C6.81366 4.22552 6.66199 4.34685 6.56666 4.58952C6.47132 4.82785 6.42366 5.21135 6.42366 5.74002C6.42366 6.08235 6.47349 6.36402 6.57316 6.58502C6.67716 6.80169 6.83966 6.97719 7.06066 7.11152L7.69766 7.50152C7.98366 7.67918 8.21332 7.88502 8.38666 8.11902C8.56432 8.34868 8.69432 8.61952 8.77666 8.93152C8.85899 9.24352 8.90016 9.60752 8.90016 10.0235C8.90016 10.6345 8.83516 11.135 8.70516 11.525C8.57516 11.9107 8.37366 12.1967 8.10066 12.383C7.83199 12.565 7.48099 12.656 7.04766 12.656Z" fill="#548AF7"/>
<path d="M9.82478 12.5V3.40002H11.5668L12.3533 9.50352L12.4248 10.8165L12.4898 9.50352L13.2113 3.40002H14.9858V12.5H13.9653V5.00552L13.9978 3.74452L12.8148 12.5H12.0088L10.7998 3.78352L10.8323 5.00552V12.5H9.82478Z" fill="#548AF7"/>
</svg>
