<svg width="16" height="16" viewBox="0 0 16 16" fill="none" xmlns="http://www.w3.org/2000/svg">
<rect x="2.5" y="2.5" width="11" height="11" rx="1.5" fill="#402929" stroke="#DB5C5C"/>
<path fill-rule="evenodd" clip-rule="evenodd" d="M7.9918 11C6.22951 11 5 9.64917 5 8.01657V8C5 6.3674 6.2459 5 8.0082 5C9.77049 5 11 6.35083 11 7.98343V8C11 9.6326 9.7541 11 7.9918 11ZM8.00746 10.0553C9.1468 10.0553 9.94189 9.14366 9.94189 8.01659V8.00001C9.94189 6.87294 9.13041 5.94476 7.99107 5.94476C6.85172 5.94476 6.05664 6.85637 6.05664 7.98344V8.00001C6.05664 9.12708 6.86812 10.0553 8.00746 10.0553Z" fill="#DB5C5C"/>
<path d="M7.99111 10.15C8.35378 10.15 8.68103 10.0593 8.97286 9.878C9.26753 9.69667 9.49703 9.4445 9.66136 9.1215C9.82853 8.7985 9.91211 8.433 9.91211 8.025C9.91211 7.617 9.82994 7.2515 9.66561 6.9285C9.50128 6.6055 9.27319 6.35333 8.98136 6.172C8.68953 5.99067 8.35944 5.9 7.99111 5.9C7.62278 5.9 7.29269 5.99067 7.00086 6.172C6.70903 6.35333 6.47953 6.6055 6.31236 6.9285C6.14803 7.2515 6.06586 7.617 6.06586 8.025C6.06586 8.433 6.14803 8.7985 6.31236 9.1215C6.47953 9.4445 6.70903 9.69667 7.00086 9.878C7.29269 10.0593 7.62278 10.15 7.99111 10.15ZM7.99111 11.102C7.43011 11.102 6.92153 10.9688 6.46536 10.7025C6.00919 10.4333 5.64936 10.065 5.38586 9.5975C5.12519 9.12717 4.99486 8.603 4.99486 8.025C4.99486 7.447 5.12519 6.92425 5.38586 6.45675C5.64936 5.98642 6.00919 5.61808 6.46536 5.35175C6.92153 5.08258 7.43011 4.948 7.99111 4.948C8.54928 4.948 9.05644 5.08258 9.51261 5.35175C9.96878 5.61808 10.3272 5.98642 10.5879 6.45675C10.8514 6.92425 10.9831 7.447 10.9831 8.025C10.9831 8.603 10.8514 9.12717 10.5879 9.5975C10.3272 10.065 9.96878 10.4333 9.51261 10.7025C9.05644 10.9688 8.54928 11.102 7.99111 11.102Z" fill="#DB5C5C"/>
</svg>
