<svg width="17" height="16" viewBox="0 0 17 16" fill="none" xmlns="http://www.w3.org/2000/svg">
<path d="M11 16H16.02L16.03 15H12V13H15.51L15.5 12H11.99V10H16.02V9H11V16Z" fill="#548AF7"/>
<path d="M4 2C2.89543 2 2 2.89543 2 4V12C2 13.1046 2.89543 14 4 14H10V8H14V4C14 2.89543 13.1046 2 12 2H4Z" fill="#25324D"/>
<path d="M4 3H12C12.5523 3 13 3.44772 13 4V8H14V4C14 2.89543 13.1046 2 12 2H4C2.89543 2 2 2.89543 2 4V12C2 13.1046 2.89543 14 4 14H10V13H4C3.44772 13 3 12.5523 3 12V4C3 3.44772 3.44772 3 4 3Z" fill="#548AF7"/>
<path d="M6 4.97998H8.5198C8.92687 4.97998 9.28377 5.05451 9.5905 5.20358C9.9001 5.35265 10.138 5.56478 10.3043 5.83998C10.4734 6.11518 10.558 6.43338 10.558 6.79458C10.558 7.15865 10.472 7.47828 10.3 7.75348C10.1309 8.02868 9.89007 8.24225 9.5776 8.39418C9.26513 8.54611 8.90107 8.62208 8.4854 8.62208H6.9804V11H6V4.97998ZM8.4768 7.77498C8.68893 7.77498 8.87527 7.73628 9.0358 7.65888C9.19633 7.57861 9.3196 7.46538 9.4056 7.31918C9.4916 7.17011 9.5346 6.99668 9.5346 6.79888C9.5346 6.60108 9.4916 6.42908 9.4056 6.28288C9.3196 6.13668 9.19633 6.02488 9.0358 5.94748C8.87527 5.86721 8.68893 5.82708 8.4768 5.82708H6.9804V7.77498H8.4768Z" fill="#548AF7"/>
</svg>
