<svg width="16" height="16" viewBox="0 0 16 16" fill="none" xmlns="http://www.w3.org/2000/svg">
<rect x="2.5" y="2.5" width="11" height="11" rx="1.5" fill="#FFF4EB" stroke="#E66D17"/>
<path d="M7.85008 11.72C7.46008 11.72 7.10174 11.6583 6.77508 11.535C6.44841 11.415 6.17841 11.2433 5.96508 11.02C5.75174 10.8 5.61841 10.545 5.56508 10.255H6.53008C6.59674 10.395 6.69508 10.5133 6.82508 10.61C6.95508 10.7067 7.10674 10.78 7.28008 10.83C7.45341 10.88 7.63341 10.905 7.82008 10.905C8.12008 10.905 8.38175 10.8433 8.60508 10.72C8.83174 10.6 9.00508 10.43 9.12508 10.21C9.24841 9.99334 9.31008 9.74168 9.31008 9.45501V9.24001L9.35008 7.78001L9.76508 7.31001C9.75841 7.76001 9.66175 8.16001 9.47508 8.51001C9.28841 8.85668 9.03174 9.12668 8.70508 9.32001C8.38175 9.51334 8.01508 9.61001 7.60508 9.61001C7.17841 9.61001 6.79008 9.50668 6.44008 9.30001C6.09341 9.09001 5.82174 8.80168 5.62508 8.43501C5.42841 8.06834 5.33008 7.65334 5.33008 7.19001C5.33008 6.73001 5.42841 6.31501 5.62508 5.94501C5.82174 5.57501 6.09341 5.28501 6.44008 5.07501C6.79008 4.86501 7.17841 4.76001 7.60508 4.76001C8.01508 4.76001 8.38175 4.85834 8.70508 5.05501C9.03174 5.25168 9.28841 5.52668 9.47508 5.88001C9.66175 6.23001 9.75841 6.63168 9.76508 7.08501L9.35008 6.66501V4.88001H10.3051L10.2901 9.45501C10.2901 9.89834 10.1884 10.2917 9.98508 10.635C9.78175 10.9817 9.49508 11.2483 9.12508 11.435C8.75508 11.625 8.33008 11.72 7.85008 11.72ZM7.83008 8.77001C8.11008 8.77001 8.36174 8.70168 8.58508 8.56501C8.81174 8.42834 8.99008 8.24001 9.12008 8.00001C9.25341 7.75668 9.32008 7.48668 9.32008 7.19001C9.32008 6.89001 9.25341 6.62001 9.12008 6.38001C8.99008 6.14001 8.81174 5.95168 8.58508 5.81501C8.36174 5.67501 8.11008 5.60501 7.83008 5.60501C7.54674 5.60501 7.29174 5.67501 7.06508 5.81501C6.83841 5.95168 6.66174 6.14001 6.53508 6.38001C6.40841 6.62001 6.34508 6.89001 6.34508 7.19001C6.34508 7.48668 6.40841 7.75668 6.53508 8.00001C6.66174 8.24001 6.83841 8.42834 7.06508 8.56501C7.29174 8.70168 7.54674 8.77001 7.83008 8.77001Z" fill="#E66D17"/>
</svg>
