<svg width="16" height="16" viewBox="0 0 16 16" fill="none" xmlns="http://www.w3.org/2000/svg">
<path d="M4 3.98999V11.99C4 13.0946 4.89543 13.99 6 13.99H10C11.1046 13.99 12 13.0946 12 11.99V3.98999C12 2.88542 11.1046 1.98999 10 1.98999H6C4.89543 1.98999 4 2.88542 4 3.98999Z" fill="#EBECF0"/>
<path fill-rule="evenodd" clip-rule="evenodd" d="M5 3.98999V11.99C5 12.5423 5.44772 12.99 6 12.99H10C10.5523 12.99 11 12.5423 11 11.99V3.98999C11 3.43771 10.5523 2.98999 10 2.98999H6C5.44772 2.98999 5 3.43771 5 3.98999ZM4 11.99V3.98999C4 2.88542 4.89543 1.98999 6 1.98999H10C11.1046 1.98999 12 2.88542 12 3.98999V11.99C12 13.0946 11.1046 13.99 10 13.99H6C4.89543 13.99 4 13.0946 4 11.99Z" fill="#6C707E"/>
<path fill-rule="evenodd" clip-rule="evenodd" d="M1 4.48999C1 4.21385 1.22386 3.98999 1.5 3.98999H3.99998V4.98999H1.5C1.22386 4.98999 1 4.76613 1 4.48999ZM12 3.98999H14.5C14.7761 3.98999 15 4.21385 15 4.48999C15 4.76613 14.7761 4.98999 14.5 4.98999H12V3.98999ZM1 7.98999C1 7.71385 1.22386 7.48999 1.5 7.48999H3.99998V8.48999H1.5C1.22386 8.48999 1 8.26613 1 7.98999ZM12 7.48999H14.5C14.7761 7.48999 15 7.71385 15 7.98999C15 8.26613 14.7761 8.48999 14.5 8.48999H12V7.48999ZM1 11.49C1 11.2138 1.22386 10.99 1.5 10.99H3.99998V11.99H1.5C1.22386 11.99 1 11.7661 1 11.49ZM12 10.99H14.5C14.7761 10.99 15 11.2138 15 11.49C15 11.7661 14.7761 11.99 14.5 11.99H12V10.99Z" fill="#6C707E"/>
</svg>
