<svg width="16" height="16" viewBox="0 0 16 16" fill="none" xmlns="http://www.w3.org/2000/svg">
<path d="M5 13C5.55228 13 6 12.5523 6 12C6 10.8954 6.89543 10 8 10C8.55228 10 9 9.55228 9 9C9 8.44772 8.55228 8 8 8C6.89543 8 6 7.10457 6 6C6 5.44772 5.55228 5 5 5C4.44772 5 4 5.44772 4 6C4 7.10457 3.10457 8 2 8C1.44772 8 1 8.44772 1 9C1 9.55228 1.44772 10 2 10C3.10457 10 4 10.8954 4 12C4 12.5523 4.44772 13 5 13Z" fill="#5BC447"/>
<path d="M11 9C11.5523 9 12 8.55228 12 8C12 6.89543 12.8954 6 14 6C14.5523 6 15 5.55228 15 5C15 4.44772 14.5523 4 14 4C12.8954 4 12 3.10457 12 2C12 1.44772 11.5523 1 11 1C10.4477 1 10 1.44772 10 2C10 3.10457 9.10457 4 8 4C7.44772 4 7 4.44772 7 5C7 5.55228 7.44772 6 8 6C9.10457 6 10 6.89543 10 8C10 8.55228 10.4477 9 11 9Z" fill="#534BBA"/>
<path fill-rule="evenodd" clip-rule="evenodd" d="M15.3798 12.7117C15.5435 12.8691 15.5436 13.131 15.3799 13.2884L12.6774 15.8876C12.4232 16.132 12 15.9519 12 15.5993L12 10.4038C12 10.0513 12.423 9.87118 12.6772 10.1154L15.3798 12.7117Z" fill="#55A76A"/>
<path fill-rule="evenodd" clip-rule="evenodd" d="M7.62255 13.2883C7.45909 13.1309 7.45916 12.8692 7.62271 12.7119L10.3216 10.1163C10.5757 9.87185 10.9989 10.0519 10.9989 10.4045V15.5986C10.9989 15.9514 10.5755 16.1314 10.3214 15.8868L7.62255 13.2883Z" fill="#E55765"/>
</svg>
