<svg width="14" height="14" viewBox="0 0 14 14" fill="none" xmlns="http://www.w3.org/2000/svg">
<path fill-rule="evenodd" clip-rule="evenodd" d="M1 1H5.5C5.77614 1 6 1.22386 6 1.5C6 1.77614 5.77614 2 5.5 2H2.70711L12 11.2929V8.5C12 8.22386 12.2239 8 12.5 8C12.7761 8 13 8.22386 13 8.5V13H8.5C8.22386 13 8 12.7761 8 12.5C8 12.2239 8.22386 12 8.5 12H11.2929L2 2.70711V5.5C2 5.77614 1.77614 6 1.5 6C1.22386 6 1 5.77614 1 5.5V1Z" fill="#548AF7"/>
<path d="M5.58579 7.70711L2 11.2929L2 8.5C2 8.22386 1.77614 8 1.5 8C1.22386 8 1 8.22386 1 8.5V13H5.5C5.77614 13 6 12.7761 6 12.5C6 12.2239 5.77614 12 5.5 12H2.70711L6.29289 8.41421L5.58579 7.70711Z" fill="#57965C"/>
<path d="M8.41421 6.29289L7.70711 5.58579L11.2929 2L8.5 2C8.22386 2 8 1.77614 8 1.5C8 1.22386 8.22386 1 8.5 1H13L13 5.5C13 5.77614 12.7761 6 12.5 6C12.2239 6 12 5.77614 12 5.5V2.70711L8.41421 6.29289Z" fill="#57965C"/>
</svg>
