<svg width="16" height="16" viewBox="0 0 16 16" fill="none" xmlns="http://www.w3.org/2000/svg">
<path d="M7.99994 1.01001C8.27608 1.01001 8.49994 1.23387 8.49993 1.51002L8.49984 6.8029L10.1461 5.15662C10.3414 4.96135 10.658 4.96135 10.8532 5.15662C11.0485 5.35188 11.0485 5.66846 10.8532 5.86372L7.99984 8.71712L5.14645 5.86372C4.95118 5.66846 4.95118 5.35188 5.14645 5.15662C5.34171 4.96135 5.65829 4.96135 5.85355 5.15662L7.49984 6.80291L7.49993 1.51C7.49994 1.23386 7.7238 1.01001 7.99994 1.01001Z" fill="#57965C"/>
<path d="M6 12.01H4V13.01H6V12.01Z" fill="#57965C"/>
<path fill-rule="evenodd" clip-rule="evenodd" d="M2 11.01V14.01C2 14.5623 2.44772 15.01 3 15.01H13C13.5523 15.01 14 14.5623 14 14.01V11.01C14 10.4577 13.5523 10.01 13 10.01H3C2.44772 10.01 2 10.4577 2 11.01ZM3 14.01V11.01H13L13 14.01H3Z" fill="#57965C"/>
</svg>
