<svg width="16" height="16" viewBox="0 0 16 16" fill="none" xmlns="http://www.w3.org/2000/svg">
<path d="M2.88086 12.5V3.40002H3.96636V12.5H2.88086Z" fill="#3574F0"/>
<path d="M6.93777 11.6615C7.13277 11.6615 7.29094 11.5597 7.41227 11.356C7.53361 11.148 7.62244 10.8295 7.67877 10.4005C7.73944 9.96719 7.76977 9.40819 7.76977 8.72352V7.17652C7.76977 6.49185 7.73944 5.93502 7.67877 5.50602C7.62244 5.07269 7.53361 4.75419 7.41227 4.55052C7.29094 4.34252 7.13277 4.23852 6.93777 4.23852C6.74711 4.23852 6.58894 4.34252 6.46327 4.55052C6.33761 4.75419 6.24444 5.07269 6.18377 5.50602C6.12744 5.93502 6.09927 6.49185 6.09927 7.17652V8.72352C6.09927 9.40819 6.12744 9.96719 6.18377 10.4005C6.24444 10.8295 6.33761 11.148 6.46327 11.356C6.58894 11.5597 6.74711 11.6615 6.93777 11.6615ZM6.93777 12.656C6.47844 12.656 6.10361 12.5195 5.81327 12.2465C5.52727 11.9692 5.31494 11.5424 5.17627 10.966C5.03761 10.3897 4.96827 9.64219 4.96827 8.72352V7.17652C4.97694 6.25785 5.05061 5.51035 5.18927 4.93402C5.33227 4.35769 5.54677 3.93302 5.83277 3.66002C6.11877 3.38269 6.48711 3.24402 6.93777 3.24402C7.38844 3.24402 7.75461 3.38269 8.03627 3.66002C8.32227 3.93302 8.53461 4.35769 8.67327 4.93402C8.81627 5.51035 8.89211 6.25785 8.90077 7.17652V8.72352C8.90077 9.64219 8.83144 10.3897 8.69277 10.966C8.55411 11.5424 8.34177 11.9692 8.05577 12.2465C7.76977 12.5195 7.39711 12.656 6.93777 12.656Z" fill="#3574F0"/>
<path d="M11.5589 12.656C11.0995 12.656 10.7247 12.5195 10.4344 12.2465C10.1484 11.9692 9.93603 11.5424 9.79737 10.966C9.6587 10.3897 9.58937 9.64219 9.58937 8.72352V7.17652C9.58937 6.25785 9.6587 5.51035 9.79737 4.93402C9.93603 4.35769 10.1484 3.93302 10.4344 3.66002C10.7247 3.38269 11.0995 3.24402 11.5589 3.24402C11.9792 3.24402 12.3259 3.35018 12.5989 3.56252C12.8762 3.77052 13.0864 4.09552 13.2294 4.53752C13.3724 4.97952 13.459 5.55152 13.4894 6.25352H12.3974C12.38 5.78119 12.3389 5.39768 12.2739 5.10302C12.2089 4.80835 12.1179 4.59168 12.0009 4.45302C11.8839 4.31002 11.7365 4.23852 11.5589 4.23852C11.3682 4.23852 11.21 4.34252 11.0844 4.55052C10.9587 4.75419 10.8655 5.07269 10.8049 5.50602C10.7485 5.93502 10.7204 6.49185 10.7204 7.17652V8.72352C10.7204 9.40819 10.7485 9.96719 10.8049 10.4005C10.8655 10.8295 10.9587 11.148 11.0844 11.356C11.21 11.5597 11.3682 11.6615 11.5589 11.6615C11.7365 11.6615 11.8839 11.5922 12.0009 11.4535C12.1179 11.3105 12.2089 11.0917 12.2739 10.797C12.3389 10.5024 12.38 10.1189 12.3974 9.64652H13.4894C13.459 10.3485 13.3724 10.9205 13.2294 11.3625C13.0864 11.8045 12.8762 12.1317 12.5989 12.344C12.3259 12.552 11.9792 12.656 11.5589 12.656Z" fill="#3574F0"/>
</svg>
