<svg width="16" height="16" viewBox="0 0 16 16" fill="none" xmlns="http://www.w3.org/2000/svg">
<path d="M11 2H5C4.44772 2 4 2.44772 4 3V13C4 13.5523 4.44772 14 5 14H8.16755C8.20676 14.1454 8.25559 14.3026 8.31641 14.4688C8.38789 14.664 8.46737 14.8424 8.54619 15H5C3.89543 15 3 14.1046 3 13V3C3 1.89543 3.89543 1 5 1H11C12.1046 1 13 1.89543 13 3V8.06902C12.82 8.11472 12.6477 8.18024 12.4844 8.25841L12.4799 8.26061C12.3105 8.3428 12.1493 8.44065 12 8.55585V3C12 2.44772 11.5523 2 11 2Z" fill="#6C707E"/>
<path d="M14.8742 14.4551C14.7665 14.6997 14.639 14.9248 14.4913 15.1318C14.2899 15.4139 14.125 15.6092 13.9979 15.7177C13.801 15.8957 13.5899 15.9869 13.3639 15.9921C13.2017 15.9921 13.006 15.9467 12.7782 15.8547C12.5497 15.763 12.3397 15.7177 12.1477 15.7177C11.9464 15.7177 11.7304 15.763 11.4994 15.8547C11.268 15.9467 11.0816 15.9946 10.9391 15.9994C10.7224 16.0085 10.5064 15.9147 10.2908 15.7177C10.1531 15.5997 9.98099 15.3975 9.77478 15.111C9.55352 14.8051 9.37163 14.4504 9.22912 14.0459C9.07651 13.6091 9 13.1861 9 12.7766C9 12.3074 9.10315 11.9028 9.30976 11.5638C9.47214 11.2914 9.68816 11.0766 9.95852 10.9189C10.2289 10.7612 10.521 10.6808 10.8356 10.6757C11.0078 10.6757 11.2335 10.728 11.514 10.8308C11.7937 10.934 11.9734 10.9863 12.0521 10.9863C12.111 10.9863 12.3105 10.9252 12.6488 10.8032C12.9686 10.6901 13.2386 10.6432 13.4598 10.6617C14.0591 10.7092 14.5093 10.9414 14.8087 11.3596C14.2728 11.6788 14.0076 12.1258 14.0129 12.6992C14.0177 13.1458 14.1826 13.5175 14.5067 13.8126C14.6535 13.9496 14.8175 14.0554 15 14.1306C14.9604 14.2434 14.9187 14.3514 14.8742 14.4551ZM13.4998 9.14004C13.4998 9.49012 13.3696 9.81699 13.1102 10.1195C12.7972 10.4792 12.4185 10.687 12.0079 10.6542C12.0026 10.6122 11.9996 10.568 11.9996 10.5216C11.9996 10.1855 12.1485 9.82585 12.4129 9.53177C12.5449 9.38287 12.7127 9.25907 12.9163 9.1603C13.1194 9.06302 13.3116 9.00921 13.4923 9C13.4976 9.0468 13.4998 9.0936 13.4998 9.14004V9.14004Z" fill="#6C707E"/>
</svg>
