<svg width="16" height="16" viewBox="0 0 16 16" fill="none" xmlns="http://www.w3.org/2000/svg">
<path d="M7.99998 1.5L14.5 4.5V9H12.9142L12.2071 8.29289C12.0196 8.10536 11.7652 8 11.5 8H9C7.89543 8 7 8.89543 7 10V14.0415L1.5 11.5199V4.5L7.99998 1.5Z" fill="#FFF4EB"/>
<path fill-rule="evenodd" clip-rule="evenodd" d="M8.2095 1.04602C8.07656 0.98466 7.92339 0.98466 7.79045 1.04602L1.29047 4.04602C1.1134 4.12775 1 4.30497 1 4.5V11.5199C1 11.7154 1.11392 11.8929 1.29162 11.9744L7 14.5916V13.4915L2 11.1991V5.28145L7.5 7.81992V8.67709C7.76055 8.38189 8.10689 8.16419 8.5 8.06301V7.81992L14 5.28145V9H15V4.5C15 4.30497 14.8866 4.12775 14.7095 4.04602L8.2095 1.04602ZM2.69315 4.5L7.99998 2.05069L13.3068 4.5L8 6.94932L2.69315 4.5Z" fill="#E66D17"/>
<path d="M8 10V15C8 15.5523 8.44772 16 9 16H15C15.5523 16 16 15.5523 16 15V11C16 10.4477 15.5523 10 15 10H12.5L11.5 9H9C8.44772 9 8 9.44772 8 10Z" fill="#EBECF0"/>
<path fill-rule="evenodd" clip-rule="evenodd" d="M12.5 10L11.5 9H9C8.44772 9 8 9.44772 8 10V15C8 15.5523 8.44772 16 9 16H15C15.5523 16 16 15.5523 16 15V11C16 10.4477 15.5523 10 15 10H12.5ZM11.0858 10L9 10V15H15V11H12.5C12.2348 11 11.9804 10.8946 11.7929 10.7071L11.0858 10Z" fill="#6C707E"/>
</svg>
