<svg width="16" height="16" viewBox="0 0 16 16" fill="none" xmlns="http://www.w3.org/2000/svg">
<g clip-path="url(#clip0_4897_50840)">
<g clip-path="url(#clip1_4897_50840)">
<path d="M10 10H11.4594L13 12.5L14.5 10H16V16H15V11.3752L13.4093 13.9965H12.691L11 11.3752V16H10V10Z" fill="#548AF7"/>
<path d="M3 2C1.89543 2 1 2.89543 1 4V12C1 13.1046 1.89543 14 3 14H9V9H12.1594L13 10.9614L13.8406 9H15V4C15 2.89543 14.1046 2 13 2H3Z" fill="#43454A"/>
<path d="M3 3H13C13.5523 3 14 3.44772 14 4V9H15V4C15 2.89543 14.1046 2 13 2H3C1.89543 2 1 2.89543 1 4V12C1 13.1046 1.89543 14 3 14H9V13H3C2.44772 13 2 12.5523 2 12V4C2 3.44772 2.44772 3 3 3Z" fill="#CED0D6"/>
<path d="M3.5 5.5C3.5 5.22386 3.72386 5 4 5H5C5.27614 5 5.5 5.22386 5.5 5.5C5.5 5.77614 5.27614 6 5 6H4C3.72386 6 3.5 5.77614 3.5 5.5Z" fill="#CED0D6"/>
<path d="M7 5C6.72386 5 6.5 5.22386 6.5 5.5C6.5 5.77614 6.72386 6 7 6H8C8.27614 6 8.5 5.77614 8.5 5.5C8.5 5.22386 8.27614 5 8 5H7Z" fill="#CED0D6"/>
</g>
</g>
<defs>
<clipPath id="clip0_4897_50840">
<rect width="16" height="16" fill="white"/>
</clipPath>
<clipPath id="clip1_4897_50840">
<rect width="16" height="16" fill="white"/>
</clipPath>
</defs>
</svg>
