<svg width="16" height="16" viewBox="0 0 16 16" fill="none" xmlns="http://www.w3.org/2000/svg">
<path d="M0.960938 12V3.95001H2.61119L3.50244 9.33776L3.57144 10.4073L3.64044 9.33776L4.47419 3.95001H6.14744V12H5.12969V5.56001L5.15844 4.53651L3.95094 12H3.16319L1.94419 4.57101L1.97294 5.56001V12H0.960938Z" fill="#DB3B4B"/>
<path d="M6.80779 12L8.27404 3.95001H9.66553L11.1663 12H10.068L9.04454 5.69226L8.96978 5.15751L8.89504 5.69226L7.93479 12H6.80779ZM7.65304 9.91276V9.01001H10.229V9.91276H7.65304Z" fill="#DB3B4B"/>
<path d="M11.8229 12V3.95001H13.4962C13.9562 3.95001 14.3357 4.03818 14.6347 4.21451C14.9375 4.38701 15.1618 4.64768 15.3074 4.99651C15.4531 5.34535 15.5259 5.78426 15.5259 6.31326C15.5259 6.8461 15.4512 7.28885 15.3017 7.64151C15.1522 7.99418 14.9241 8.25868 14.6174 8.43501C14.3108 8.60751 13.9217 8.69376 13.4502 8.69376H12.8982V12H11.8229ZM13.4789 7.72201C13.7971 7.72201 14.029 7.60893 14.1747 7.38276C14.3204 7.15276 14.3932 6.79818 14.3932 6.31901C14.3932 5.84368 14.3204 5.49293 14.1747 5.26676C14.029 5.03676 13.7971 4.92176 13.4789 4.92176H12.8982V7.72201H13.4789Z" fill="#DB3B4B"/>
</svg>
