<svg width="16" height="16" viewBox="0 0 16 16" fill="none" xmlns="http://www.w3.org/2000/svg">
<path d="M8.2032 10.5527H9.4187L12.1786 15H10.9059L8.2032 10.5527ZM5 5H8.98255C9.61652 5 10.1742 5.11917 10.6557 5.3575C11.1371 5.59583 11.5089 5.93427 11.7711 6.3728C12.0332 6.80657 12.1643 7.30183 12.1643 7.8786C12.1643 8.45537 12.0308 8.96302 11.7639 9.40155C11.497 9.84008 11.1204 10.1785 10.6342 10.4169C10.148 10.6552 9.58077 10.7744 8.9325 10.7744H6.07965V15H5V5ZM8.98255 9.7662C9.39248 9.7662 9.74998 9.68993 10.0551 9.5374C10.3601 9.3801 10.5961 9.15845 10.7629 8.87245C10.9345 8.58645 11.0203 8.25517 11.0203 7.8786C11.0203 7.50203 10.9345 7.18313 10.7629 6.9019C10.5961 6.6159 10.3601 6.39663 10.0551 6.2441C9.74998 6.09157 9.39248 6.0153 8.98255 6.0153H6.07965V9.7662H8.98255Z" fill="#6C707E"/>
<path d="M4.5 2.5H12.5" stroke="#6C707E" stroke-linecap="round"/>
</svg>
