<svg width="16" height="16" viewBox="0 0 16 16" fill="none" xmlns="http://www.w3.org/2000/svg">
<path d="M15 8C15 8.76602 14.877 9.5033 14.6496 10.1932C14.2895 10.068 13.9027 10 13.5 10C12.5459 10 11.681 10.3825 11.0506 11H9.9494C9.31899 10.3825 8.45406 10 7.5 10C5.567 10 4 11.567 4 13.5C4 13.5846 4.003 13.6684 4.0089 13.7515C2.1904 12.4872 1 10.3826 1 8C1 4.13401 4.13401 1 8 1C11.866 1 15 4.13401 15 8Z" fill="#FFF7F7"/>
<path d="M4.12247 12.5789C2.82411 11.4783 2 9.83539 2 8C2 4.68629 4.68629 2 8 2C11.3137 2 14 4.68629 14 8C14 8.70257 13.8792 9.37694 13.6574 10.0035C14.0035 10.0188 14.3366 10.0844 14.6496 10.1932C14.877 9.5033 15 8.76602 15 8C15 4.13401 11.866 1 8 1C4.13401 1 1 4.13401 1 8C1 10.3826 2.1904 12.4872 4.0089 13.7515C4.003 13.6684 4 13.5846 4 13.5C4 13.1812 4.04262 12.8724 4.12247 12.5789Z" fill="#DB3B4B"/>
<path d="M7.25824 10.0083C7.33844 10.0028 7.41938 10 7.50098 10C7.7671 10 8.02628 10.0298 8.27538 10.0861V7.32741H9.82967V6.43027H8.27538V5.48C8.27538 5.12 8.52109 4.87429 8.87538 4.87429H9.88109V4H8.77824C7.87538 4 7.25824 4.57143 7.25824 5.40571V6.43027H6.12109V7.32741H7.25824V10.0083Z" fill="#DB3B4B"/>
<path fill-rule="evenodd" clip-rule="evenodd" d="M7.5 16C8.88071 16 10 14.8807 10 13.5C10 13.3288 9.98278 13.1616 9.94999 13H11.05C11.0172 13.1616 11 13.3288 11 13.5C11 14.8807 12.1193 16 13.5 16C14.8807 16 16 14.8807 16 13.5C16 12.1193 14.8807 11 13.5 11C12.6821 11 11.9559 11.3928 11.4998 12H9.50018C9.04408 11.3928 8.31791 11 7.5 11C6.11929 11 5 12.1193 5 13.5C5 14.8807 6.11929 16 7.5 16ZM7.5 15C8.32843 15 9 14.3284 9 13.5C9 12.6716 8.32843 12 7.5 12C6.67157 12 6 12.6716 6 13.5C6 14.3284 6.67157 15 7.5 15ZM13.5 15C14.3284 15 15 14.3284 15 13.5C15 12.6716 14.3284 12 13.5 12C12.6716 12 12 12.6716 12 13.5C12 14.3284 12.6716 15 13.5 15Z" fill="#6C707E"/>
</svg>
