<svg width="40" height="40" viewBox="0 0 40 40" fill="none" xmlns="http://www.w3.org/2000/svg">
<path d="M18.546 14.1059C11.8955 11.7501 7.14061 14.7506 4.38565 18.2048C4.28123 18.3321 4.08043 18.2525 4.10453 18.0854C4.26517 17.1701 4.64267 15.3794 5.38161 13.7398C8.38557 7.07826 16.3774 3.83901 21.1323 4.00615C25.8873 4.17329 31.5819 7.2852 29.6061 11.6785C27.8631 15.5624 25.5017 16.5732 18.546 14.1059Z" fill="url(#paint0_linear_6352_49500)"/>
<path d="M13.5589 13.9962C13.5589 13.9087 13.4946 13.8291 13.3983 13.8291C11.1895 13.8848 6.49078 15.3492 4.05709 19.7744C4.04906 19.7903 4.04103 19.8062 4.04103 19.8301C3.28602 25.1228 13.1975 28.5768 13.5589 13.9962Z" fill="url(#paint1_linear_6352_49500)"/>
<path d="M21.4818 25.894C28.1323 28.2498 32.8871 25.2494 35.6421 21.7952C35.7465 21.6679 35.9473 21.7475 35.9231 21.9146C35.7625 22.8299 35.3851 24.6206 34.6461 26.2602C31.6501 32.9218 23.6584 36.161 18.9035 35.9938C14.1486 35.8266 8.45395 32.7148 10.4298 28.3214C12.1647 24.4456 14.5341 23.4348 21.4818 25.894Z" fill="url(#paint2_linear_6352_49500)"/>
<path d="M26.4248 26.14C26.4248 26.2276 26.4892 26.3072 26.5854 26.3072C28.7942 26.2516 33.509 24.7154 35.9428 20.2824C35.9508 20.2665 35.9588 20.2506 35.9588 20.2267C36.7138 14.942 26.7862 11.5595 26.4248 26.14Z" fill="url(#paint3_linear_6352_49500)"/>
<defs>
<linearGradient id="paint0_linear_6352_49500" x1="4.64887" y1="19.7352" x2="31.7543" y2="3.09218" gradientUnits="userSpaceOnUse">
<stop stop-color="#FC950B"/>
<stop offset="0.592076" stop-color="#F9C438"/>
</linearGradient>
<linearGradient id="paint1_linear_6352_49500" x1="15.2855" y1="12.1747" x2="4.65516" y2="24.7298" gradientUnits="userSpaceOnUse">
<stop stop-color="#FC950B"/>
<stop offset="1" stop-color="#F9C438"/>
</linearGradient>
<linearGradient id="paint2_linear_6352_49500" x1="38.5761" y1="23.8871" x2="8.19202" y2="33.4722" gradientUnits="userSpaceOnUse">
<stop stop-color="#FC950B"/>
<stop offset="0.612893" stop-color="#F9C438"/>
</linearGradient>
<linearGradient id="paint3_linear_6352_49500" x1="32.2492" y1="30.913" x2="29.395" y2="8.21408" gradientUnits="userSpaceOnUse">
<stop stop-color="#FC950B"/>
<stop offset="1" stop-color="#F9C438"/>
</linearGradient>
</defs>
</svg>
