<svg width="16" height="16" viewBox="0 0 16 16" fill="none" xmlns="http://www.w3.org/2000/svg">
<path d="M2.43133 12.8895L0.611328 4.01052H1.68383L2.97083 11.0045L3.07483 11.609L3.17883 11.089L4.44633 3.99102L5.58383 3.98452L3.85483 12.8895H2.43133Z" fill="#E66D17"/>
<path d="M6.47951 13V3.90002H7.56501V7.82602H9.09901V3.90002H10.191V13H9.09901V8.84652H7.56501V13H6.47951Z" fill="#E66D17"/>
<path d="M11.5069 13V3.90002H13.3009C13.7689 3.90002 14.1502 4.03219 14.4449 4.29652C14.7395 4.56086 14.9562 4.97036 15.0949 5.52502C15.2335 6.07536 15.3029 6.79252 15.3029 7.67652V9.22353C15.3029 10.1075 15.2335 10.8269 15.0949 11.3815C14.9562 11.9319 14.7395 12.3392 14.4449 12.6035C14.1502 12.8679 13.7689 13 13.3009 13H11.5069ZM13.3009 11.986C13.5045 11.986 13.6692 11.8885 13.7949 11.6935C13.9249 11.4985 14.0202 11.1995 14.0809 10.7965C14.1415 10.3935 14.1719 9.86919 14.1719 9.22353V7.67652C14.1719 7.03086 14.1415 6.50652 14.0809 6.10352C14.0202 5.70052 13.9249 5.40152 13.7949 5.20653C13.6692 5.01152 13.5045 4.91402 13.3009 4.91402H12.5924V11.986H13.3009Z" fill="#E66D17"/>
</svg>
