<svg width="16" height="16" viewBox="0 0 16 16" fill="none" xmlns="http://www.w3.org/2000/svg">
<path d="M2.38672 13L3.79072 3.90002H5.27272L6.70272 13H5.59122L4.61622 5.81102L4.53822 5.20002L4.46022 5.81102L3.53722 13H2.38672ZM3.17972 10.5885V9.64602H5.79922V10.5885H3.17972Z" fill="#3574F0"/>
<path d="M7.55818 13V3.90002H9.11818C9.61651 3.90002 10.0217 3.99536 10.3337 4.18602C10.65 4.37669 10.8818 4.66703 11.0292 5.05703C11.1808 5.44702 11.2567 5.94102 11.2567 6.53903C11.2567 7.14569 11.1808 7.64619 11.0292 8.04052C10.8775 8.43052 10.6392 8.72086 10.3142 8.91152C9.99351 9.10219 9.57751 9.19753 9.06618 9.19753H8.64368V13H7.55818ZM9.11818 8.18352C9.46918 8.18352 9.72051 8.05352 9.87218 7.79352C10.0238 7.52919 10.0997 7.11102 10.0997 6.53903C10.0997 5.98003 10.0238 5.57052 9.87218 5.31052C9.72051 5.04619 9.46918 4.91402 9.11818 4.91402H8.64368V8.18352H9.11818Z" fill="#3574F0"/>
<path d="M12.065 13V3.90002H13.1505V13H12.065Z" fill="#3574F0"/>
</svg>
