<svg width="16" height="16" viewBox="0 0 16 16" fill="none" xmlns="http://www.w3.org/2000/svg">
<path d="M2.5 4C2.5 3.17157 3.17157 2.5 4 2.5H12C12.8284 2.5 13.5 3.17157 13.5 4V12C13.5 12.8284 12.8284 13.5 12 13.5H4C3.17157 13.5 2.5 12.8284 2.5 12V4Z" fill="#EDF3FF" stroke="#3574F0"/>
<path d="M9.00105 4.69995H9.99105V11H9.00105V4.69995ZM7.40805 11.108C6.98805 11.108 6.61455 11.0075 6.28755 10.8065C5.96055 10.6025 5.70555 10.3175 5.52255 9.95145C5.33955 9.58545 5.24805 9.16695 5.24805 8.69595C5.24805 8.22495 5.33955 7.80645 5.52255 7.44045C5.70555 7.07445 5.96055 6.79095 6.28755 6.58995C6.61455 6.38595 6.98655 6.28395 7.40355 6.28395C7.78755 6.28395 8.12505 6.36945 8.41605 6.54045C8.71005 6.70845 8.93805 6.94695 9.10005 7.25595C9.26505 7.56195 9.34905 7.91895 9.35205 8.32695H9.04155V9.06495H9.35205C9.34905 9.47295 9.26505 9.83145 9.10005 10.1405C8.93805 10.4465 8.71155 10.685 8.42055 10.856C8.12955 11.024 7.79205 11.108 7.40805 11.108ZM7.63755 10.2215C7.90455 10.2215 8.14155 10.157 8.34855 10.028C8.55855 9.89895 8.72205 9.72045 8.83905 9.49245C8.95605 9.26145 9.01455 8.99595 9.01455 8.69595C9.01455 8.39595 8.95605 8.13195 8.83905 7.90395C8.72205 7.67295 8.55855 7.49295 8.34855 7.36395C8.14155 7.23495 7.90455 7.17045 7.63755 7.17045C7.37055 7.17045 7.13355 7.23495 6.92655 7.36395C6.72255 7.49295 6.56355 7.67295 6.44955 7.90395C6.33555 8.13195 6.27855 8.39595 6.27855 8.69595C6.27855 8.99595 6.33555 9.26145 6.44955 9.49245C6.56355 9.72045 6.72255 9.89895 6.92655 10.028C7.13355 10.157 7.37055 10.2215 7.63755 10.2215Z" fill="#3574F0"/>
</svg>
