<svg width="16" height="16" viewBox="0 0 16 16" fill="none" xmlns="http://www.w3.org/2000/svg">
<path fill-rule="evenodd" clip-rule="evenodd" d="M3 2C1.89543 2 1 2.89543 1 4V12C1 13.1046 1.89543 14 3 14H8.25606C8.09023 13.5308 8 13.026 8 12.5C8 10.0147 10.0147 8 12.5 8C13.4251 8 14.285 8.27914 15 8.75777V4C15 2.89543 14.1046 2 13 2H3Z" fill="#EBECF0"/>
<mask id="path-2-inside-1_2772_38612" fill="white">
<path fill-rule="evenodd" clip-rule="evenodd" d="M3 3H13C13.5523 3 14 3.44772 14 4V8.25606C14.356 8.3819 14.6915 8.55127 15 8.75777V4C15 2.89543 14.1046 2 13 2H3C1.89543 2 1 2.89543 1 4V12C1 13.1046 1.89543 14 3 14H8.25606C8.14352 13.6816 8.06579 13.3467 8.02746 13H3C2.44772 13 2 12.5523 2 12V4C2 3.44772 2.44772 3 3 3Z"/>
</mask>
<path fill-rule="evenodd" clip-rule="evenodd" d="M3 3H13C13.5523 3 14 3.44772 14 4V8.25606C14.356 8.3819 14.6915 8.55127 15 8.75777V4C15 2.89543 14.1046 2 13 2H3C1.89543 2 1 2.89543 1 4V12C1 13.1046 1.89543 14 3 14H8.25606C8.14352 13.6816 8.06579 13.3467 8.02746 13H3C2.44772 13 2 12.5523 2 12V4C2 3.44772 2.44772 3 3 3Z" fill="#6C707E"/>
<path d="M14 8.25606H13V8.96323L13.6668 9.1989L14 8.25606ZM15 8.75777L14.4437 9.58878L16 10.6305V8.75777H15ZM8.25606 14V15H9.67013L9.1989 13.6668L8.25606 14ZM8.02746 13L9.02141 12.8901L8.92301 12H8.02746V13ZM13 2H3V4H13V2ZM15 4C15 2.89543 14.1046 2 13 2V4H15ZM15 8.25606V4H13V8.25606H15ZM13.6668 9.1989C13.943 9.29654 14.2037 9.42808 14.4437 9.58878L15.5563 7.92677C15.1793 7.67445 14.7691 7.46726 14.3332 7.31322L13.6668 9.1989ZM16 8.75777V4H14V8.75777H16ZM16 4C16 2.34315 14.6569 1 13 1V3C13.5523 3 14 3.44772 14 4H16ZM13 1H3V3H13V1ZM3 1C1.34315 1 0 2.34315 0 4H2C2 3.44772 2.44772 3 3 3V1ZM0 4V12H2V4H0ZM0 12C0 13.6569 1.34315 15 3 15V13C2.44772 13 2 12.5523 2 12H0ZM3 15H8.25606V13H3V15ZM9.1989 13.6668C9.1116 13.4198 9.05122 13.1598 9.02141 12.8901L7.03352 13.1099C7.08036 13.5336 7.17543 13.9434 7.31322 14.3332L9.1989 13.6668ZM3 14H8.02746V12H3V14ZM1 12C1 13.1046 1.89543 14 3 14V12H3H1ZM1 4V12H3V4H1ZM3 2C1.89543 2 1 2.89543 1 4H3V4V2Z" fill="#6C707E" mask="url(#path-2-inside-1_2772_38612)"/>
<path d="M4 5.5H5" stroke="#6C707E" stroke-linecap="round"/>
<path d="M7 5.5H8" stroke="#6C707E" stroke-linecap="round"/>
<path fill-rule="evenodd" clip-rule="evenodd" d="M12.5 16C14.433 16 16 14.433 16 12.5C16 10.567 14.433 9 12.5 9C10.567 9 9 10.567 9 12.5C9 14.433 10.567 16 12.5 16ZM13 10.5C13 10.2239 12.7761 10 12.5 10C12.2239 10 12 10.2239 12 10.5V12.5C12 12.6326 12.0527 12.7598 12.1464 12.8536L13.5607 14.2678C13.7559 14.463 14.0725 14.463 14.2678 14.2678C14.463 14.0725 14.463 13.7559 14.2678 13.5607L13 12.2929V10.5Z" fill="#4682FA"/>
</svg>
