<svg width="16" height="16" viewBox="0 0 16 16" fill="none" xmlns="http://www.w3.org/2000/svg">
<g clip-path="url(#clip0_4336_47963)">
<path d="M6.86482 8H8.08667L7.74137 9.68282H8.83926C9.44133 9.69462 9.88988 9.81797 10.1851 10.0529C10.4861 10.2878 10.5746 10.7343 10.4507 11.3921L9.85747 14.326H8.61791L9.18457 11.5242C9.24354 11.2305 9.22583 11.022 9.13144 10.8987C9.03706 10.7753 8.83342 10.7137 8.52052 10.7137L7.53772 10.7048L6.8117 14.326H5.58984L6.86482 8Z" fill="#548AF7"/>
<path fill-rule="evenodd" clip-rule="evenodd" d="M1.26612 9.68262H3.63899C4.33545 9.68844 4.84013 9.88825 5.15303 10.2817C5.46593 10.6752 5.56917 11.2127 5.46292 11.8941C5.42166 12.2054 5.33011 12.5108 5.18845 12.8104C5.05263 13.1099 4.86385 13.3801 4.62179 13.6209C4.3266 13.9263 4.01086 14.1202 3.67441 14.2024C3.33796 14.2847 2.98965 14.3258 2.62964 14.3258H1.56716L1.23071 15.9998H0L1.26612 9.68262ZM1.7708 13.3302L2.30027 10.6958H2.47912C2.54411 10.6958 2.61193 10.6928 2.68276 10.687C3.15503 10.6812 3.54745 10.7253 3.86034 10.8192C4.17909 10.9131 4.28534 11.2685 4.17909 11.8853C4.04929 12.6195 3.79536 13.0483 3.41764 13.1716C3.03993 13.2891 2.56766 13.3448 2.001 13.339H1.87705C1.84163 13.339 1.80622 13.336 1.7708 13.3302Z" fill="#548AF7"/>
<path fill-rule="evenodd" clip-rule="evenodd" d="M14.1351 9.68262H11.7622L10.4961 15.9998H11.7268L12.0633 14.3258H13.1257C13.4857 14.3258 13.8341 14.2847 14.1705 14.2024C14.507 14.1202 14.8227 13.9263 15.1179 13.6209C15.3599 13.3801 15.5487 13.1099 15.6845 12.8104C15.8262 12.5108 15.9177 12.2054 15.959 11.8941C16.0653 11.2127 15.962 10.6752 15.6491 10.2817C15.3362 9.88825 14.8315 9.68844 14.1351 9.68262ZM12.7964 10.6958L12.2669 13.3302C12.3023 13.336 12.3377 13.339 12.3731 13.339H12.4971C13.0638 13.3448 13.536 13.2891 13.9137 13.1716C14.2915 13.0483 14.5454 12.6195 14.6752 11.8853C14.7814 11.2685 14.6752 10.9131 14.3564 10.8192C14.0435 10.7253 13.6511 10.6812 13.1789 10.687C13.108 10.6928 13.0402 10.6958 12.9752 10.6958H12.7964Z" fill="#548AF7"/>
<path d="M12.1464 6.64646C11.9512 6.84172 11.9512 7.15831 12.1465 7.35356C12.3417 7.54882 12.6583 7.54881 12.8536 7.35355L15.7071 4.49987L12.8536 1.64632C12.6583 1.45106 12.3417 1.45106 12.1464 1.64632C11.9512 1.84159 11.9512 2.15817 12.1464 2.35343L13.793 4.00002L9 4.00001C8.72386 4.00001 8.5 4.22387 8.5 4.50001C8.5 4.77616 8.72386 5.00001 9 5.00001L13.7928 5.00002L12.1464 6.64646Z" fill="#DB5C5C"/>
<path d="M3.85363 2.35355C4.04889 2.15829 4.04889 1.84171 3.85363 1.64645C3.65837 1.45118 3.34178 1.45118 3.14652 1.64645L0.292969 4.5L3.14652 7.35355C3.34178 7.54882 3.65837 7.54882 3.85363 7.35355C4.04889 7.15829 4.04889 6.84171 3.85363 6.64645L2.20717 4.99999H7.00008C7.27622 4.99999 7.50008 4.77613 7.50008 4.49999C7.50008 4.22384 7.27622 3.99999 7.00008 3.99999H2.2072L3.85363 2.35355Z" fill="#57965C"/>
</g>
<defs>
<clipPath id="clip0_4336_47963">
<rect width="16" height="16" fill="white"/>
</clipPath>
</defs>
</svg>
