<svg width="14" height="14" viewBox="0 0 14 14" fill="none" xmlns="http://www.w3.org/2000/svg">
<g clip-path="url(#clip0_4204_48579)">
<path fill-rule="evenodd" clip-rule="evenodd" d="M7 7.50217C7 6.32443 8.29512 5.60609 9.29422 6.22968L13.2962 8.72752C14.2372 9.31487 14.2372 10.6851 13.2962 11.2725L9.29422 13.7703C8.29512 14.3939 7 13.6756 7 12.4978V7.50217ZM8.76474 7.07801C8.43171 6.87014 8 7.10959 8 7.50217V12.4978C8 12.8904 8.43171 13.1299 8.76474 12.922L12.7667 10.4242C13.0804 10.2284 13.0804 9.77162 12.7667 9.57584L8.76474 7.07801Z" fill="#208A3C"/>
<path d="M8 7.50217C8 7.10959 8.43171 6.87015 8.76474 7.07801L12.7667 9.57584C13.0804 9.77163 13.0804 10.2284 12.7667 10.4242L8.76474 12.922C8.43171 13.1299 8 12.8904 8 12.4978V7.50217Z" fill="#F2FCF3"/>
<path fill-rule="evenodd" clip-rule="evenodd" d="M2.8116 1.75746L0.3116 11.7575C0.153813 12.3886 0.631171 13 1.28174 13H3.22019C3.67906 13 4.07904 12.6877 4.19033 12.2425L6.69033 2.24253C6.84812 1.61139 6.37076 1 5.72019 1H3.78174C3.32288 1 2.92289 1.3123 2.8116 1.75746ZM1.28174 12L3.78174 2L5.72019 2L3.22019 12H1.28174Z" fill="#6C707E"/>
<path d="M6.84405 5.62768L7.8116 1.75746C7.92289 1.3123 8.32288 1 8.78174 1H10.7202C11.3708 1 11.8481 1.61139 11.6903 2.24253L10.7596 5.96549L9.86795 5.40897L10.7202 2L8.78174 2L8.02014 5.04641C7.58434 5.13357 7.17709 5.33577 6.84405 5.62768Z" fill="#6C707E"/>
<path d="M6 9.00387L5.3116 11.7575C5.17383 12.3085 5.52026 12.8445 6.04342 12.9717C6.01499 12.8196 6 12.6614 6 12.4978V9.00387Z" fill="#6C707E"/>
</g>
<defs>
<clipPath id="clip0_4204_48579">
<rect width="14" height="14" fill="white"/>
</clipPath>
</defs>
</svg>
