<svg width="16" height="16" viewBox="0 0 16 16" fill="none" xmlns="http://www.w3.org/2000/svg">
<path d="M6.86482 8H8.08667L7.74137 9.68286H8.83926C9.44133 9.69466 9.88988 9.81802 10.1851 10.0529C10.4861 10.2878 10.5746 10.7343 10.4507 11.3922L9.85747 14.3261H8.61791L9.18457 11.5243C9.24354 11.2306 9.22583 11.0221 9.13144 10.8987C9.03706 10.7754 8.83342 10.7137 8.52052 10.7137L7.53772 10.7049L6.8117 14.3261H5.58984L6.86482 8Z" fill="#676BD7"/>
<path fill-rule="evenodd" clip-rule="evenodd" d="M1.26612 9.68266H3.63899C4.33545 9.68848 4.84013 9.88831 5.15303 10.2818C5.46593 10.6753 5.56917 11.2127 5.46292 11.8942C5.42166 12.2055 5.33011 12.5109 5.18845 12.8105C5.05263 13.1101 4.86385 13.3802 4.62179 13.6211C4.3266 13.9265 4.01086 14.1203 3.67441 14.2026C3.33796 14.2849 2.98965 14.3259 2.62964 14.3259H1.56716L1.23071 16H0L1.26612 9.68266ZM1.7708 13.3303L2.30027 10.6959H2.47912C2.54411 10.6959 2.61193 10.6929 2.68276 10.6871C3.15503 10.6813 3.54745 10.7253 3.86034 10.8193C4.17909 10.9132 4.28534 11.2686 4.17909 11.8854C4.04929 12.6196 3.79536 13.0484 3.41764 13.1717C3.03993 13.2893 2.56766 13.345 2.001 13.3391H1.87705C1.84163 13.3391 1.80622 13.3361 1.7708 13.3303Z" fill="#676BD7"/>
<path fill-rule="evenodd" clip-rule="evenodd" d="M14.1351 9.68266H11.7622L10.4961 16H11.7268L12.0633 14.3259H13.1257C13.4857 14.3259 13.8341 14.2849 14.1705 14.2026C14.507 14.1203 14.8227 13.9265 15.1179 13.6211C15.3599 13.3802 15.5487 13.1101 15.6845 12.8105C15.8262 12.5109 15.9177 12.2055 15.959 11.8942C16.0653 11.2127 15.962 10.6753 15.6491 10.2818C15.3362 9.88831 14.8315 9.68848 14.1351 9.68266ZM12.7964 10.6959L12.2669 13.3303C12.3023 13.3361 12.3377 13.3391 12.3731 13.3391H12.4971C13.0638 13.345 13.536 13.2893 13.9137 13.1717C14.2915 13.0484 14.5454 12.6196 14.6752 11.8854C14.7814 11.2686 14.6752 10.9132 14.3564 10.8193C14.0435 10.7253 13.6511 10.6813 13.1789 10.6871C13.108 10.6929 13.0402 10.6959 12.9752 10.6959H12.7964Z" fill="#676BD7"/>
<path d="M12.1464 6.64658C11.9512 6.84185 11.9512 7.15843 12.1465 7.35368C12.3417 7.54894 12.6583 7.54893 12.8536 7.35367L15.7071 4.49999L12.8536 1.64645C12.6583 1.45118 12.3417 1.45118 12.1464 1.64645C11.9512 1.84171 11.9512 2.15829 12.1464 2.35355L13.7928 3.99995L9 3.99995C8.72386 3.99995 8.5 4.22381 8.5 4.49995C8.5 4.7761 8.72386 4.99995 9 4.99995L13.793 4.99995L12.1464 6.64658Z" fill="#DB3B4B"/>
<path d="M3.85363 2.35361C4.04889 2.15835 4.04889 1.84177 3.85363 1.64651C3.65837 1.45125 3.34178 1.45125 3.14652 1.64651L0.292969 4.50006L3.14652 7.35361C3.34178 7.54888 3.65837 7.54888 3.85363 7.35361C4.04889 7.15835 4.04889 6.84177 3.85363 6.64651L2.20711 4.99999H7.00008C7.27622 4.99999 7.50008 4.77613 7.50008 4.49999C7.50008 4.22384 7.27622 3.99999 7.00008 3.99999H2.20726L3.85363 2.35361Z" fill="#369650"/>
</svg>
