<svg width="16" height="16" viewBox="0 0 16 16" fill="none" xmlns="http://www.w3.org/2000/svg">
<path fill-rule="evenodd" clip-rule="evenodd" d="M10.8536 10.1464C11.0488 10.3417 11.0488 10.6583 10.8536 10.8536L8.70711 13L10.8536 15.1464C11.0488 15.3417 11.0488 15.6583 10.8536 15.8536C10.6583 16.0488 10.3417 16.0488 10.1464 15.8536L7.64645 13.3536C7.45118 13.1583 7.45118 12.8417 7.64645 12.6464L10.1464 10.1464C10.3417 9.95118 10.6583 9.95118 10.8536 10.1464ZM12.1464 10.1464C12.3417 9.95118 12.6583 9.95118 12.8536 10.1464L15.3536 12.6464C15.5488 12.8417 15.5488 13.1583 15.3536 13.3536L12.8536 15.8536C12.6583 16.0488 12.3417 16.0488 12.1464 15.8536C11.9512 15.6583 11.9512 15.3417 12.1464 15.1464L14.2929 13L12.1464 10.8536C11.9512 10.6583 11.9512 10.3417 12.1464 10.1464Z" fill="#CED0D6"/>
<path d="M14.7646 10.6433C15.4874 8.25101 14.5007 5.62298 12.4211 3.54342C9.55592 0.678305 5.60271 -0.0339965 2.76887 2.79978C-0.0649633 5.63356 0.749897 9.73619 3.48908 12.4753C4.71907 13.7053 6.21453 14.563 7.75128 14.8726L6.93934 14.0607C6.35355 13.4749 6.35355 12.5251 6.93934 11.9393L9.43934 9.43934C9.73223 9.14645 10.1161 9 10.5 9C10.7776 9 11.0102 8.99996 11.2295 8.99992C11.6324 8.99985 11.9904 8.99979 12.5006 9C12.8843 9.00016 13.2679 9.14661 13.5607 9.43934L14.7646 10.6433Z" fill="#3D3223"/>
<path d="M14.7646 10.6433C15.4874 8.25101 14.5007 5.62298 12.4211 3.54342C9.55592 0.678305 5.60271 -0.0339965 2.76887 2.79978C-0.0649632 5.63356 0.749897 9.73619 3.48908 12.4753C4.71907 13.7053 6.21453 14.563 7.75128 14.8726L6.93934 14.0607C6.75852 13.8798 6.63352 13.6643 6.56433 13.4356C5.72792 13.0543 4.9192 12.4884 4.19761 11.7668C2.96238 10.5316 2.1978 9.02377 2.03495 7.5621C1.89119 6.27175 2.20946 4.98843 3.13864 3.87802L9.06971 9.80897L9.43934 9.43934C9.55785 9.32083 9.69125 9.2263 9.83353 9.15574L3.84627 3.1686C4.96097 2.22632 6.21752 1.89609 7.47661 2.03083C8.90451 2.18363 10.4065 2.94592 11.7126 4.25194C13.025 5.56439 13.8035 7.05797 13.9658 8.47924C14.0166 8.92423 14.0084 9.37028 13.933 9.81167L14.7646 10.6433Z" fill="#BA9752"/>
</svg>
