<svg width="16" height="16" viewBox="0 0 16 16" fill="none" xmlns="http://www.w3.org/2000/svg">
<path d="M3 5.82843V11C3 12.1046 3.89543 13 5 13H10C11.1046 13 12 12.1046 12 11V3C12 1.89543 11.1046 1 10 1H7.82843C7.29799 1 6.78929 1.21071 6.41421 1.58579L3.58579 4.41421C3.21071 4.78929 3 5.29799 3 5.82843Z" fill="#43454A"/>
<path fill-rule="evenodd" clip-rule="evenodd" d="M3 5.82843V11C3 12.1046 3.89543 13 5 13H10C11.1046 13 12 12.1046 12 11V3C12 1.89543 11.1046 1 10 1H7.82843C7.29799 1 6.78929 1.21071 6.41421 1.58579L3.58579 4.41421C3.21071 4.78929 3 5.29799 3 5.82843ZM4 11V6H6.5C7.32843 6 8 5.32843 8 4.5V2H10C10.5523 2 11 2.44772 11 3V11C11 11.5523 10.5523 12 10 12H5C4.44772 12 4 11.5523 4 11ZM7 2.41421L4.41421 5H6.5C6.77614 5 7 4.77614 7 4.5V2.41421Z" fill="#CED0D6"/>
<path d="M14 3.5C14 3.22386 13.7761 3 13.5 3C13.2239 3 13 3.22386 13 3.5V12.5C13 13.3284 12.3284 14 11.5 14H5.5C5.22386 14 5 14.2239 5 14.5C5 14.7761 5.22386 15 5.5 15H11.5C12.8807 15 14 13.8807 14 12.5V3.5Z" fill="#CED0D6"/>
</svg>
