<svg width="16" height="16" viewBox="0 0 16 16" fill="none" xmlns="http://www.w3.org/2000/svg">
<path fill-rule="evenodd" clip-rule="evenodd" d="M0 4C0 2.89543 0.895431 2 2 2H14C15.1046 2 16 2.89543 16 4V12C16 13.1046 15.1046 14 14 14H2C0.895431 14 0 13.1046 0 12V4ZM2 3H14C14.5523 3 15 3.44772 15 4V5H1V4C1 3.44772 1.44772 3 2 3ZM1 6V12C1 12.5523 1.44772 13 2 13H14C14.5523 13 15 12.5523 15 12V6H1Z" fill="#6C707E"/>
<path d="M2 11.013H2.819C2.931 11.013 3.03017 10.9896 3.1165 10.943C3.20517 10.894 3.27283 10.8263 3.3195 10.74C3.3685 10.6536 3.393 10.5533 3.393 10.439V7.09998H4.45V10.5195C4.45 10.8088 4.38583 11.0655 4.2575 11.2895C4.1315 11.5135 3.95417 11.6885 3.7255 11.8145C3.49917 11.9381 3.24017 12 2.9485 12H2V11.013Z" fill="#6C707E"/>
<path d="M5.48163 7.09998H7.62362C7.97596 7.09998 8.28513 7.16414 8.55113 7.29248C8.81713 7.42081 9.02246 7.60164 9.16713 7.83498C9.31179 8.06831 9.38413 8.33781 9.38413 8.64348C9.38413 8.95148 9.31063 9.22448 9.16363 9.46248C9.01663 9.69814 8.80779 9.88131 8.53713 10.012C8.26879 10.1426 7.95496 10.208 7.59563 10.208H6.53863V12H5.48163V7.09998ZM7.53963 9.33648C7.69363 9.33648 7.82779 9.30964 7.94213 9.25598C8.05646 9.19998 8.14396 9.12064 8.20463 9.01798C8.26529 8.91298 8.29563 8.79048 8.29563 8.65048C8.29563 8.51281 8.26529 8.39264 8.20463 8.28998C8.14396 8.18498 8.05646 8.10564 7.94213 8.05198C7.82779 7.99598 7.69363 7.96798 7.53963 7.96798H6.53863V9.33648H7.53963Z" fill="#6C707E"/>
<path d="M10.9077 7.09998H12.0662L13.8617 12H12.7977L12.4232 10.908H10.5927L10.2427 12H9.15772L10.9077 7.09998ZM12.1537 10.0995L11.5412 8.35298L11.4747 8.04148L11.4047 8.35298L10.8342 10.0995H12.1537Z" fill="#6C707E"/>
</svg>
