<svg width="16" height="16" viewBox="0 0 16 16" fill="none" xmlns="http://www.w3.org/2000/svg">
<path fill-rule="evenodd" clip-rule="evenodd" d="M6.827 11.1757C7.06131 11.4101 7.06131 11.7899 6.827 12.0243L3.03012 15.8211C2.79581 16.0555 2.41591 16.0555 2.1816 15.8211L0.175736 13.8153C-0.0585787 13.581 -0.0585787 13.2011 0.175736 12.9668C0.410051 12.7324 0.78995 12.7324 1.02426 12.9668L2.60586 14.5483L5.97847 11.1757C6.21278 10.9414 6.59268 10.9414 6.827 11.1757Z" fill="#57965C"/>
<path d="M12 10H13V15H12V10Z" fill="#25324D"/>
<path d="M10 11H11V15H10V11Z" fill="#25324D"/>
<path d="M15 12H14V15H15V12Z" fill="#25324D"/>
<path fill-rule="evenodd" clip-rule="evenodd" d="M11 10C11 9.44772 11.4477 9 12 9H13C13.5523 9 14 9.44772 14 10V11H15C15.5523 11 16 11.4477 16 12V15C16 15.5523 15.5523 16 15 16H10C9.44772 16 9 15.5523 9 15V11C9 10.4477 9.44772 10 10 10L11 10ZM12 10H13V15H12V10ZM11 11H10L10 15H11V11ZM14 15H15V12H14V15Z" fill="#548AF7"/>
<path d="M6.5 10.0043C6.05999 9.97874 5.61144 10.134 5.27527 10.4702L3.3805 12.365C0.728808 9.62696 -0.0271633 5.59577 2.76887 2.79978C5.60271 -0.0339965 9.55592 0.678305 12.4211 3.54342C14.2136 5.33585 15.1941 7.53575 14.9679 9.64095C14.7987 8.70773 13.982 8 13 8H12C11.2597 8 10.6134 8.4022 10.2676 9H10C9.25795 9 8.61028 9.40413 8.26509 10.0043H6.5Z" fill="#3D3223"/>
<path d="M14.9679 9.64094C15.1941 7.53574 14.2136 5.33585 12.4211 3.54342C9.55592 0.678305 5.60271 -0.0339965 2.76887 2.79978C-0.0271633 5.59577 0.728808 9.62696 3.3805 12.365L4.08912 11.6564C2.91763 10.4423 2.19298 8.98049 2.03495 7.5621C1.89119 6.27175 2.20946 4.98843 3.13864 3.87802L8.72214 9.46141C8.99598 9.23371 9.33159 9.07775 9.70012 9.02233L3.84627 3.1686C4.96097 2.22632 6.21752 1.89609 7.47661 2.03083C8.90451 2.18363 10.4065 2.94592 11.7126 4.25194C12.9484 5.48773 13.7108 6.88411 13.9311 8.22951C14.4653 8.51102 14.8566 9.02722 14.9679 9.64094Z" fill="#BA9752"/>
</svg>
