<svg width="14" height="14" viewBox="0 0 14 14" fill="none" xmlns="http://www.w3.org/2000/svg">
<path fill-rule="evenodd" clip-rule="evenodd" d="M11.5 6C11.7761 6 12 6.22386 12 6.5V12.2929L13.1464 11.1464C13.3417 10.9512 13.6583 10.9512 13.8536 11.1464C14.0488 11.3417 14.0488 11.6583 13.8536 11.8536L11.8536 13.8536C11.6583 14.0488 11.3417 14.0488 11.1464 13.8536L9.14645 11.8536C8.95118 11.6583 8.95118 11.3417 9.14645 11.1464C9.34171 10.9512 9.65829 10.9512 9.85355 11.1464L11 12.2929V6.5C11 6.22386 11.2239 6 11.5 6Z" fill="#6C707E"/>
<path fill-rule="evenodd" clip-rule="evenodd" d="M8.15792 2.81673C10.2045 4.86324 10.7692 7.6534 8.70033 9.72226C6.63143 11.7911 3.73448 11.1532 1.77792 9.19666C-0.178645 7.24013 -0.760688 4.30969 1.26348 2.28556C3.28765 0.261431 6.11137 0.770218 8.15792 2.81673Z" fill="#F2FCF3"/>
<path fill-rule="evenodd" clip-rule="evenodd" d="M8.15792 2.81673C10.2045 4.86324 10.7692 7.6534 8.70033 9.72226C6.63143 11.7911 3.73448 11.1532 1.77792 9.19666C-0.178645 7.24013 -0.760688 4.30969 1.26348 2.28556C3.28765 0.261431 6.11137 0.770218 8.15792 2.81673ZM7.45082 3.52384C8.35423 4.42723 8.87187 5.43754 8.97887 6.37457C9.06622 7.13947 8.8889 7.91098 8.33513 8.62799L2.35883 2.65169C3.05829 2.11729 3.82638 1.93663 4.5959 2.01898C5.53845 2.11984 6.55383 2.62687 7.45082 3.52384ZM1.65022 3.3573L7.62944 9.33652C6.90946 9.89372 6.11222 10.0704 5.31467 9.97592C4.35034 9.86166 3.33562 9.34013 2.48502 8.48954C1.64082 7.64537 1.12986 6.62584 1.02178 5.65573C0.932379 4.85335 1.1125 4.05964 1.65022 3.3573Z" fill="#208A3C"/>
</svg>
