<svg width="14" height="14" viewBox="0 0 14 14" fill="none" xmlns="http://www.w3.org/2000/svg">
<g clip-path="url(#clip0_3376_47466)">
<path d="M8.71266 12.7107C8.4717 12.1134 8.30933 11.3479 8.26308 10.5H7.04102C7.2053 11.4792 7.84398 12.2976 8.71266 12.7107Z" fill="#EBECF0"/>
<path d="M9.67826 12.4276C9.47151 11.955 9.31294 11.285 9.26473 10.5H10.7343C10.6861 11.285 10.5276 11.955 10.3208 12.4276C10.202 12.6991 10.085 12.8652 9.99954 12.9529C9.91411 12.8652 9.79704 12.6991 9.67826 12.4276Z" fill="#EBECF0"/>
<path d="M9.67826 7.57238C9.47151 8.04494 9.31294 8.71499 9.26473 9.49999H10.7343C10.6861 8.71499 10.5276 8.04494 10.3208 7.57238C10.202 7.30087 10.085 7.13482 9.99954 7.04712C9.91411 7.13482 9.79704 7.30087 9.67826 7.57238Z" fill="#EBECF0"/>
<path d="M11.2864 12.7107C11.5274 12.1134 11.6897 11.3479 11.736 10.5H12.9581C12.7938 11.4792 12.1551 12.2976 11.2864 12.7107Z" fill="#EBECF0"/>
<path d="M11.736 9.49999H12.9581C12.7938 8.52074 12.1551 7.70236 11.2864 7.28924C11.5274 7.88657 11.6897 8.65207 11.736 9.49999Z" fill="#EBECF0"/>
<path d="M7.04102 9.49999H8.26308C8.30933 8.65207 8.4717 7.88657 8.71266 7.28924C7.84398 7.70236 7.2053 8.52074 7.04102 9.49999Z" fill="#EBECF0"/>
<path fill-rule="evenodd" clip-rule="evenodd" d="M14 10C14 7.79086 12.2091 6 10 6C7.79086 6 6 7.79086 6 10C6 12.2091 7.79086 14 10 14C12.2091 14 14 12.2091 14 10ZM8.26354 10.5C8.3098 11.3479 8.47216 12.1134 8.71313 12.7107C7.84445 12.2976 7.20577 11.4792 7.04148 10.5H8.26354ZM9.2652 10.5C9.3134 11.285 9.47198 11.955 9.67872 12.4276C9.7975 12.6991 9.91458 12.8652 10 12.9529C10.0854 12.8652 10.2025 12.6991 10.3213 12.4276C10.528 11.955 10.6866 11.285 10.7348 10.5H9.2652ZM10.7348 9.5H9.2652C9.3134 8.715 9.47198 8.04495 9.67872 7.57239C9.7975 7.30089 9.91458 7.13483 10 7.04713C10.0854 7.13483 10.2025 7.30089 10.3213 7.57239C10.528 8.04495 10.6866 8.715 10.7348 9.5ZM11.7365 10.5C11.6902 11.3479 11.5278 12.1134 11.2869 12.7107C12.1556 12.2976 12.7942 11.4792 12.9585 10.5H11.7365ZM12.9585 9.5H11.7365C11.6902 8.65208 11.5278 7.88659 11.2869 7.28925C12.1556 7.70237 12.7942 8.52076 12.9585 9.5ZM8.26354 9.5H7.04148C7.20577 8.52076 7.84445 7.70237 8.71313 7.28925C8.47216 7.88659 8.3098 8.65208 8.26354 9.5Z" fill="#6C707E"/>
<path d="M13.8796 6.84559C13.5753 5.32542 12.7072 3.82953 11.4211 2.54342C8.55592 -0.321695 4.60271 -1.034 1.76887 1.79978C-1.06496 4.63356 -0.250103 8.73619 2.48908 11.4753C3.74904 12.7353 5.28756 13.6046 6.86367 13.8942C5.72709 12.9777 5 11.5738 5 10C5 7.23858 7.23858 5 10 5C11.5654 5 12.9628 5.71938 13.8796 6.84559Z" fill="#F2FCF3"/>
<path d="M13.8796 6.84559C13.5753 5.32542 12.7072 3.82953 11.4211 2.54342C8.55592 -0.321695 4.60271 -1.034 1.76887 1.79978C-1.06496 4.63356 -0.250103 8.73619 2.48908 11.4753C3.74904 12.7353 5.28756 13.6046 6.86367 13.8942C6.37775 13.5024 5.96667 13.0215 5.65526 12.4763C4.78658 12.095 3.94532 11.5145 3.19761 10.7668C1.96238 9.53159 1.1978 8.02377 1.03495 6.5621C0.891189 5.27175 1.20946 3.98843 2.13864 2.87802L6.11407 6.85338C6.32492 6.59332 6.56135 6.35484 6.81952 6.14177L2.84627 2.1686C3.96097 1.22632 5.21752 0.896088 6.47661 1.03083C7.90451 1.18363 9.40651 1.94592 10.7126 3.25194C11.46 3.99939 12.0343 4.80559 12.4202 5.62372C12.9817 5.93491 13.477 6.35102 13.8796 6.84559Z" fill="#208A3C"/>
</g>
<defs>
<clipPath id="clip0_3376_47466">
<rect width="14" height="14" fill="white"/>
</clipPath>
</defs>
</svg>
