<svg width="14" height="14" viewBox="0 0 14 14" fill="none" xmlns="http://www.w3.org/2000/svg">
<g clip-path="url(#clip0_3363_48270)">
<path fill-rule="evenodd" clip-rule="evenodd" d="M10.1464 7.14645C10.3417 6.95118 10.6583 6.95118 10.8536 7.14645L13.8536 10.1464C14.0488 10.3417 14.0488 10.6583 13.8536 10.8536L10.8536 13.8536C10.6583 14.0488 10.3417 14.0488 10.1464 13.8536C9.95118 13.6583 9.95118 13.3417 10.1464 13.1464L12.2929 11H6.5C6.22386 11 6 10.7761 6 10.5C6 10.2238 6.22386 9.99998 6.5 9.99998H12.2929L10.1464 7.85355C9.95118 7.65829 9.95118 7.34171 10.1464 7.14645Z" fill="#6C707E"/>
<path d="M13.9451 8.82381C14.2503 6.66366 13.2655 4.38782 11.4211 2.54342C8.55592 -0.321695 4.60271 -1.034 1.76887 1.79978C-1.06496 4.63356 -0.250103 8.73619 2.48908 11.4753C4.33298 13.3192 6.77346 14.3265 9.05531 13.9046C8.91451 13.4 9.04252 12.8362 9.43934 12.4393L9.8787 12H6.5C5.67157 12 5 11.3284 5 10.5C5 9.67155 5.67157 8.99998 6.5 8.99998H9.87866L9.43934 8.56066C8.85355 7.97487 8.85355 7.02513 9.43934 6.43934C10.0251 5.85355 10.9749 5.85355 11.5607 6.43934L13.9451 8.82381Z" fill="#F2FCF3"/>
<path d="M13.9451 8.82381C14.2503 6.66366 13.2655 4.38782 11.4211 2.54342C8.55592 -0.321695 4.60271 -1.034 1.76887 1.79978C-1.06496 4.63356 -0.250103 8.73619 2.48908 11.4753C4.33298 13.3192 6.77346 14.3265 9.05531 13.9046C8.95927 13.5604 8.9883 13.1887 9.14239 12.8612C8.5685 13.0033 7.98066 13.0311 7.3937 12.9615C5.93895 12.7891 4.43927 12.0084 3.19761 10.7668C1.96238 9.53159 1.1978 8.02377 1.03495 6.5621C0.891189 5.27175 1.20946 3.98843 2.13864 2.87802L8.26072 8.99998H9.67779L2.84627 2.1686C3.96097 1.22632 5.21752 0.896088 6.47661 1.03083C7.90451 1.18363 9.40651 1.94592 10.7126 3.25194C12.025 4.56439 12.8035 6.05797 12.9658 7.47924C12.9809 7.61074 12.9907 7.74233 12.9952 7.87387L13.9451 8.82381Z" fill="#208A3C"/>
</g>
<defs>
<clipPath id="clip0_3363_48270">
<rect width="14" height="14" fill="white"/>
</clipPath>
</defs>
</svg>
