<svg width="14" height="14" viewBox="0 0 14 14" fill="none" xmlns="http://www.w3.org/2000/svg">
<path d="M13.4211 12.7264C14.789 10.7804 13.3036 7 13.3036 7C13.3036 7 12.7009 8.3089 11.0491 8.9166C9.60551 9.44774 8.64125 9.00068 7.47168 9.57885C6.49036 10.064 6 10.8197 6 11.9551C6 12.649 6.3238 13.1034 6.82142 13.4027C11.9415 12.7264 12.9005 9.49314 12.9005 9.49314C12.9005 9.49314 12.3642 12.9368 7.96896 13.8127C8.6222 13.9449 9.35034 13.9789 10.008 13.9964C11.4319 14.0343 12.6774 13.7844 13.4211 12.7264Z" fill="#55A76A"/>
<path d="M13.4211 12.7264C14.789 10.7804 13.3036 7 13.3036 7C13.3036 7 12.7009 8.3089 11.0491 8.9166C9.60551 9.44774 8.64125 9.00068 7.47168 9.57885C6.49036 10.064 6 10.8197 6 11.9551C6 12.649 6.3238 13.1034 6.82142 13.4027C11.9415 12.7264 12.9005 9.49314 12.9005 9.49314C12.9005 9.49314 12.3642 12.9368 7.96896 13.8127C8.6222 13.9449 9.35034 13.9789 10.008 13.9964C11.4319 14.0343 12.6774 13.7844 13.4211 12.7264Z" fill="#55A76A"/>
<path d="M8.98251 1.63156C9.05517 1.36515 8.8981 1.09028 8.63168 1.01762C8.36527 0.944964 8.0904 1.10203 8.01774 1.36844L5.75488 9.6656C6.09602 9.24837 6.53244 8.92762 7.02853 8.68238C7.04048 8.67648 7.05241 8.67066 7.06432 8.66491L8.98251 1.63156Z" fill="#E66D17"/>
<path d="M12.8863 5.51566L12.4259 6.51522L10.1204 3.82539C9.94066 3.61572 9.96494 3.30007 10.1746 3.12036C10.3843 2.94065 10.6999 2.96493 10.8796 3.1746L12.8863 5.51566Z" fill="#E66D17"/>
<path d="M3.87963 3.8254C4.05934 3.61574 4.03506 3.30009 3.8254 3.12038C3.61573 2.94067 3.30008 2.96495 3.12037 3.17461L0.120372 6.67461C-0.0401239 6.86186 -0.0401239 7.13816 0.120372 7.3254L3.12037 10.8254C3.30008 11.0351 3.61573 11.0593 3.8254 10.8796C4.03506 10.6999 4.05934 10.3843 3.87963 10.1746L1.15854 7.00001L3.87963 3.8254Z" fill="#E66D17"/>
</svg>
