<svg width="16" height="16" viewBox="0 0 16 16" fill="none" xmlns="http://www.w3.org/2000/svg">
<path fill-rule="evenodd" clip-rule="evenodd" d="M14 9C14 10.1046 13.1046 11 12 11C10.8954 11 10 10.1046 10 9C10 7.89543 10.8954 7 12 7C13.1046 7 14 7.89543 14 9ZM13 9C13 9.55228 12.5523 10 12 10C11.4477 10 11 9.55228 11 9C11 8.44772 11.4477 8 12 8C12.5523 8 13 8.44772 13 9Z" fill="#CED0D6"/>
<path fill-rule="evenodd" clip-rule="evenodd" d="M13 12H11C9.34315 12 8 13.3431 8 15C8 15.5523 8.44772 16 9 16H15C15.5523 16 16 15.5523 16 15C16 13.3431 14.6569 12 13 12ZM9 15C9 13.8954 9.89543 13 11 13H13C14.1046 13 15 13.8954 15 15H9Z" fill="#CED0D6"/>
<path d="M12 10C12.5523 10 13 9.55228 13 9C13 8.44772 12.5523 8 12 8C11.4477 8 11 8.44772 11 9C11 9.55228 11.4477 10 12 10Z" fill="#43454A"/>
<path d="M11 13C9.89543 13 9 13.8954 9 15H15C15 13.8954 14.1046 13 13 13H11Z" fill="#43454A"/>
<path d="M13.7667 6.57513C13.2711 6.21345 12.6605 6 12 6C10.3431 6 9 7.34315 9 9C9 9.65841 9.2121 10.2673 9.57171 10.762C8.83141 11.3092 8.02865 11.7442 7.25453 12.0246C5.92295 12.5065 3.57821 12.9777 3.31088 13.0314C3.29444 13.0347 3.28585 13.0365 3.28585 13.0365L3.18238 12.9823C1.44444 12.1521 1.39622 8.45669 4.55116 7.26566C5.32861 6.97195 6.08696 6.93407 6.86743 6.89509C7.47602 6.86469 8.09806 6.83362 8.75308 6.68005C10.3481 6.30802 12.1948 5.1299 12.9454 3.59784C13.2417 4.4604 13.5589 5.49412 13.7667 6.57513Z" fill="#253627"/>
<path d="M7.14034 13.9459C7.24947 13.5454 7.41929 13.1699 7.63931 12.8299C7.13106 13.0512 6.64526 13.1958 6.03387 13.3779C5.59304 13.5091 5.0869 13.6598 4.45997 13.8727C4.24952 13.9442 4.08467 14.0131 4.08467 14.0131C4.52047 13.9425 4.95277 13.9184 4.95277 13.9184C5.48404 13.8948 6.07993 13.9134 6.70554 13.9329C6.84905 13.9373 6.99412 13.9419 7.14034 13.9459Z" fill="#253627"/>
<path d="M6.55611 5.92719C5.85274 5.96513 5.04122 6.0281 4.19306 6.34848C2.25367 7.08072 1.25338 8.61754 1.04186 10.1251C0.845643 11.5236 1.33026 13.1485 2.68495 13.836C2.69455 13.8582 2.70621 13.8868 2.72278 13.9275L2.76153 14.0223C2.80274 14.1231 2.90264 14.3675 3.08492 14.572C3.19454 14.695 3.35522 14.8302 3.57859 14.9162C3.80724 15.0043 4.03864 15.0165 4.24795 14.9825C4.43448 14.9523 4.62629 14.9312 4.77532 14.9176C4.84878 14.9109 4.90953 14.9062 4.95111 14.9032L4.9978 14.9001L5.00581 14.8996C5.49374 14.8783 6.04412 14.8954 6.67179 14.9149L6.95762 14.9236C6.97195 14.924 6.9863 14.9244 7.00069 14.9249C7.00692 14.5866 7.05514 14.2586 7.14035 13.9459C6.99429 13.9418 6.84938 13.9373 6.70602 13.9328C6.08041 13.9133 5.48453 13.8948 4.95325 13.9184C4.95325 13.9184 4.52096 13.9425 4.08516 14.0131C4.08516 14.0131 4.25001 13.9442 4.46046 13.8727C5.08736 13.6598 5.59348 13.5091 6.03431 13.3779C6.64543 13.1959 7.13112 13.0513 7.63913 12.8301C8.16032 12.0245 8.96327 11.4182 9.90851 11.1507C9.7856 11.0312 9.67292 10.9012 9.57187 10.7622C8.83166 11.3094 8.02902 11.7442 7.25502 12.0246C5.84152 12.5361 3.28634 13.0365 3.28634 13.0365L3.18287 12.9822C1.44493 12.1521 1.3967 8.45667 4.55165 7.26564C5.3291 6.97193 6.08745 6.93405 6.86791 6.89507C7.4765 6.86467 8.09855 6.8336 8.75357 6.68003C10.3486 6.308 12.1953 5.12988 12.9458 3.59782C13.2422 4.46049 13.5595 5.49437 13.7673 6.57554C14.4872 7.10124 14.9642 7.93983 14.9981 8.89126C15.0013 8.54958 14.9867 8.21035 14.9587 7.87787C14.8172 6.1955 14.3228 4.53336 13.8934 3.28357L13.1088 1L12.0449 3.17167C11.4581 4.36933 9.90789 5.40096 8.52266 5.72407L8.52154 5.72433C7.96186 5.85554 7.43529 5.88228 6.82056 5.91348L6.81914 5.91355C6.73331 5.91791 6.64574 5.92236 6.55611 5.92719Z" fill="#57965C"/>
</svg>
