<svg width="16" height="16" viewBox="0 0 16 16" fill="none" xmlns="http://www.w3.org/2000/svg">
<path fill-rule="evenodd" clip-rule="evenodd" d="M14 11.95C15.1411 11.7184 16 10.7095 16 9.5C16 8.11929 14.8807 7 13.5 7C12.1193 7 11 8.11929 11 9.5C11 10.7095 11.8589 11.7184 13 11.95V16H14V15H16V14H14V11.95ZM15 9.5C15 10.3284 14.3284 11 13.5 11C12.6716 11 12 10.3284 12 9.5C12 8.67157 12.6716 8 13.5 8C14.3284 8 15 8.67157 15 9.5Z" fill="#6C707E"/>
<path d="M13.646 6.00299C13.5976 6.001 13.5489 6 13.5 6C11.567 6 10 7.567 10 9.5C10 9.79013 10.0353 10.0719 10.1018 10.3414C9.22534 11.0875 8.21777 11.6756 7.25453 12.0246C5.92295 12.5065 3.57821 12.9777 3.31088 13.0314C3.29444 13.0347 3.28585 13.0365 3.28585 13.0365L3.18238 12.9823C1.44444 12.1521 1.39622 8.45669 4.55116 7.26566C5.32861 6.97195 6.08696 6.93407 6.86743 6.89509C7.47602 6.86469 8.09806 6.83362 8.75308 6.68005C10.3481 6.30802 12.1948 5.1299 12.9454 3.59784C13.189 4.30684 13.4466 5.13149 13.646 6.00299Z" fill="#F2FCF3"/>
<path d="M12 13.1493V12.6629C11.2524 12.3078 10.6507 11.6958 10.3092 10.9407C9.61956 11.6533 8.8244 12.2463 8.02792 12.6473C7.36662 12.981 6.79845 13.1502 6.03387 13.3779C5.59304 13.5091 5.0869 13.6598 4.45997 13.8727C4.24952 13.9442 4.08467 14.0131 4.08467 14.0131C4.52047 13.9425 4.95277 13.9184 4.95277 13.9184C5.48404 13.8948 6.07993 13.9134 6.70554 13.9329C8.5004 13.9888 10.5399 14.0524 12 13.1493Z" fill="#F2FCF3"/>
<path d="M6.55611 5.92719C5.85274 5.96513 5.04122 6.0281 4.19306 6.34848C2.25367 7.08072 1.25338 8.61754 1.04186 10.1251C0.845643 11.5236 1.33026 13.1485 2.68495 13.836C2.69455 13.8582 2.70621 13.8868 2.72278 13.9275L2.76153 14.0223C2.80274 14.1231 2.90264 14.3675 3.08492 14.572C3.19454 14.695 3.35522 14.8302 3.57859 14.9162C3.80724 15.0043 4.03864 15.0165 4.24795 14.9825C4.43448 14.9523 4.62629 14.9312 4.77532 14.9176C4.84878 14.9109 4.90953 14.9062 4.95111 14.9032L4.9978 14.9001L5.00581 14.8996C5.49374 14.8783 6.04412 14.8954 6.67179 14.9149L6.95762 14.9236C7.68694 14.9453 8.49416 14.962 9.2918 14.903C10.1821 14.8371 11.133 14.6721 12 14.2684V13.1496C10.5399 14.0524 8.50069 13.9888 6.70602 13.9328C6.08041 13.9133 5.48453 13.8948 4.95325 13.9184C4.95325 13.9184 4.52096 13.9425 4.08516 14.0131C4.08516 14.0131 4.25001 13.9442 4.46046 13.8727C5.08736 13.6598 5.59348 13.5091 6.03431 13.3779C6.79889 13.1502 7.36711 12.981 8.02841 12.6472C8.82475 12.2464 9.61979 11.6535 10.3094 10.941C10.2229 10.7498 10.1531 10.5494 10.1018 10.3418C9.22552 11.0877 8.21811 11.6757 7.25502 12.0246C5.84152 12.5361 3.28634 13.0365 3.28634 13.0365L3.18287 12.9822C1.44493 12.1521 1.3967 8.45667 4.55165 7.26564C5.3291 6.97193 6.08745 6.93405 6.86791 6.89507C7.4765 6.86467 8.09855 6.8336 8.75357 6.68003C10.3486 6.308 12.1953 5.12988 12.9458 3.59782C13.1894 4.30683 13.4471 5.1315 13.6465 6.00301C14.0209 6.01843 14.38 6.09264 14.715 6.21664C14.4948 5.13315 14.1796 4.11673 13.8934 3.28357L13.1088 1L12.0449 3.17167C11.4581 4.36933 9.90789 5.40096 8.52266 5.72407L8.52154 5.72433C7.96186 5.85554 7.43529 5.88228 6.82056 5.91348L6.81914 5.91355C6.73331 5.91791 6.64574 5.92236 6.55611 5.92719Z" fill="#208A3C"/>
</svg>
