<svg width="16" height="16" viewBox="0 0 16 16" fill="none" xmlns="http://www.w3.org/2000/svg">
<path d="M15.4211 14.7264C16.789 12.7804 15.3036 9 15.3036 9C15.3036 9 14.7009 10.3089 13.0491 10.9166C11.6055 11.4477 10.6413 11.0007 9.47168 11.5788C8.49036 12.064 8 12.8197 8 13.9551C8 14.649 8.3238 15.1034 8.82142 15.4027C13.9415 14.7264 14.9005 11.4931 14.9005 11.4931C14.9005 11.4931 14.3642 14.9368 9.96896 15.8127C10.6222 15.9449 11.3503 15.9789 12.008 15.9964C13.4319 16.0343 14.6774 15.7844 15.4211 14.7264Z" fill="#55A76A"/>
<path d="M14.9689 7.33615L14.3991 8.57362L14.392 8.58708C14.3821 8.60576 14.3632 8.63974 14.3348 8.68544C14.2776 8.77727 14.1834 8.91358 14.0472 9.06732C13.7754 9.37422 13.3435 9.74276 12.7038 9.97811C12.1496 10.182 11.6951 10.2035 11.1286 10.2303L11.1091 10.2313C10.5392 10.2583 9.81732 10.2925 9.02853 10.6824C8.41009 10.9881 7.88439 11.4112 7.5204 11.9922C7.15596 12.574 7 13.2401 7 13.9551C7 14.3248 7.06314 14.6568 7.17648 14.9521C3.69857 14.5445 1 11.5874 1 8C1 4.13401 4.13401 1 8 1C11.6421 1 14.6345 3.78152 14.9689 7.33615Z" fill="#EDF3FF"/>
<path d="M11.2118 9.32459C10.8976 10.6008 9.62136 11.5 8.13241 11.5C6.21321 11.5 4.78711 10.0062 4.78711 8C4.78711 5.99378 6.21321 4.5 8.13241 4.5C9.62136 4.5 10.8976 5.39917 11.2118 6.67541H10.1966C9.88241 5.94544 9.1041 5.42334 8.13241 5.42334C6.79332 5.42334 5.82647 6.49655 5.82647 8C5.82647 9.50345 6.79332 10.5767 8.13241 10.5767C9.1041 10.5767 9.88241 10.0546 10.1966 9.32459H11.2118Z" fill="#3574F0"/>
<path d="M13.869 9.25306C13.9548 8.84892 14 8.42973 14 8C14 4.68629 11.3137 2 8 2C4.68629 2 2 4.68629 2 8C2 10.973 4.16236 13.4411 7.00015 13.9171C7.00005 13.9297 7 13.9424 7 13.9551C7 14.3248 7.06314 14.6568 7.17648 14.9521C3.69857 14.5445 1 11.5874 1 8C1 4.13401 4.13401 1 8 1C11.6421 1 14.6345 3.78152 14.9689 7.33615L14.3991 8.57362L14.392 8.58708C14.3821 8.60576 14.3632 8.63974 14.3348 8.68544C14.2776 8.77727 14.1834 8.91358 14.0472 9.06732C13.9941 9.12736 13.9347 9.18976 13.869 9.25306Z" fill="#3574F0"/>
</svg>
