<svg width="14" height="14" viewBox="0 0 14 14" fill="none" xmlns="http://www.w3.org/2000/svg">
<g clip-path="url(#clip0_3385_47453)">
<path d="M6 8.06116L6.00083 8H5V14H6.00083L6 10.4607C6 10.1097 6.06323 9.80359 6.18803 9.54224C6.31673 9.28088 6.49808 9.08008 6.73208 8.9397C6.96998 8.79932 7.3129 8.72913 7.6249 8.72913C7.9135 8.72913 8.1592 8.7915 8.362 8.91626C8.5687 9.04114 8.72665 9.22046 8.83585 9.45447C8.94505 9.68848 8.99965 9.9635 8.99965 10.2793V14H10V10.4607C10 10.1097 10.0644 9.80554 10.1931 9.5481C10.3217 9.28674 10.5719 9.08594 10.8059 8.94556C11.0399 8.80127 11.3129 8.72913 11.6249 8.72913C11.9135 8.72913 12.1592 8.7915 12.362 8.91626C12.5687 9.04114 12.7247 9.22046 12.83 9.45447C12.9392 9.68848 13 9.9635 13 10.2793V14H14V10.2208C14 9.7489 13.9083 9.33557 13.7251 8.98059C13.5456 8.62573 13.2922 8.35278 12.9646 8.16162C12.6369 7.96667 12.2606 7.86914 11.8355 7.86914C11.3714 7.86914 10.9658 7.9823 10.6187 8.2085C10.2941 8.42004 9.97925 8.71338 9.78669 9.08862C9.77092 9.052 9.75426 9.01599 9.73675 8.98059C9.56515 8.62573 9.31945 8.35278 8.99965 8.16162C8.68375 7.96667 8.31325 7.86914 7.88815 7.86914C7.43575 7.86914 6.97778 7.97839 6.65018 8.19678C6.38295 8.37708 6.16622 8.62244 6 8.93298V8.06116Z" fill="#CED0D6"/>
<path d="M13.9893 7.68491C13.8803 5.88226 12.9436 4.06586 11.4211 2.54342C8.55592 -0.321695 4.60271 -1.034 1.76887 1.79978C-1.06496 4.63356 -0.250103 8.73619 2.48908 11.4753C2.95824 11.9445 3.46603 12.3595 4 12.7105V7H6.90827C7.23636 6.90853 7.5738 6.86914 7.88815 6.86914C8.46898 6.86914 9.02474 7.00372 9.51877 7.3069C9.63305 7.37559 9.74087 7.45102 9.84221 7.53282C9.91953 7.47418 9.99677 7.4202 10.0727 7.37071C10.6012 7.02628 11.2015 6.86914 11.8355 6.86914C12.418 6.86914 12.9737 7.00435 13.4722 7.30007C13.6614 7.41083 13.8339 7.53962 13.9893 7.68491Z" fill="#253627"/>
<path d="M13.9893 7.6849C13.8803 5.88226 12.9436 4.06586 11.4211 2.54342C8.55592 -0.321695 4.60271 -1.034 1.76887 1.79978C-1.06496 4.63356 -0.250103 8.73619 2.48908 11.4753C2.95824 11.9445 3.46603 12.3595 4 12.7105V11.4779C3.72326 11.2616 3.4549 11.0241 3.19761 10.7668C1.96238 9.53159 1.1978 8.02377 1.03495 6.5621C0.891189 5.27175 1.20946 3.98843 2.13864 2.87802L6.2607 7H6.90827C7.1249 6.93961 7.3456 6.90192 7.56104 6.88328L2.84627 2.1686C3.96097 1.22632 5.21752 0.896088 6.47661 1.03083C7.90451 1.18363 9.40651 1.94592 10.7126 3.25194C11.8892 4.42861 12.6367 5.75086 12.8958 7.03608C13.0947 7.10288 13.2874 7.19045 13.4722 7.30007C13.6614 7.41083 13.8339 7.53962 13.9893 7.6849Z" fill="#57965C"/>
</g>
<defs>
<clipPath id="clip0_3385_47453">
<rect width="14" height="14" fill="white"/>
</clipPath>
</defs>
</svg>
