<svg width="16" height="16" viewBox="0 0 16 16" fill="none" xmlns="http://www.w3.org/2000/svg">
<path d="M12.328 16C11.6997 16 11.132 15.8476 10.625 15.5429C10.118 15.2382 9.71933 14.8203 9.429 14.2892C9.143 13.7537 9 13.1573 9 12.5C9 11.8427 9.143 11.2484 9.429 10.7174C9.71933 10.1819 10.118 9.76182 10.625 9.45709C11.132 9.15236 11.6997 9 12.328 9C12.861 9 13.3398 9.09142 13.7645 9.27425C14.1892 9.45274 14.5423 9.72264 14.824 10.084C15.1057 10.4409 15.2985 10.8806 15.4025 11.403H14.3625C14.2672 11.0808 14.1177 10.8109 13.914 10.5933C13.7103 10.3756 13.472 10.2146 13.199 10.1101C12.926 10.0012 12.6357 9.94683 12.328 9.94683C11.899 9.94683 11.5133 10.0557 11.171 10.2733C10.833 10.491 10.5687 10.7935 10.378 11.181C10.1873 11.5684 10.092 12.0081 10.092 12.5C10.092 12.9876 10.1873 13.4251 10.378 13.8125C10.5687 14.1999 10.833 14.5047 11.171 14.7267C11.5133 14.9443 11.899 15.0532 12.328 15.0532C12.6357 15.0532 12.926 15.0009 13.199 14.8965C13.472 14.7876 13.7103 14.6244 13.914 14.4067C14.1177 14.1891 14.2672 13.9192 14.3625 13.597H15.4025C15.3028 14.102 15.1078 14.5351 14.8175 14.8965C14.5272 15.2578 14.1675 15.532 13.7385 15.7192C13.3095 15.9064 12.8393 16 12.328 16Z" fill="#CED0D6"/>
<path d="M14.9969 8.84846C14.9364 6.99243 13.9896 5.11192 12.4211 3.54342C9.55592 0.678305 5.60271 -0.0339965 2.76887 2.79978C-0.0649633 5.63356 0.749897 9.73619 3.48908 12.4753C4.96638 13.9526 6.82662 14.8929 8.68142 14.9914C8.63631 14.9189 8.59301 14.8447 8.55155 14.7689L8.54694 14.7603C8.17719 14.0681 8 13.3077 8 12.5C8 11.6924 8.17717 10.9329 8.54855 10.2432L8.54991 10.2407C8.92275 9.55308 9.44504 8.99957 10.1098 8.59999C10.7822 8.19589 11.5299 8 12.328 8C12.9749 8 13.5899 8.11104 14.156 8.35407C14.4619 8.48306 14.7429 8.64829 14.9969 8.84846Z" fill="#253627"/>
<path d="M14.9969 8.84846C14.9364 6.99243 13.9896 5.11191 12.4211 3.54342C9.55592 0.678305 5.60271 -0.0339965 2.76887 2.79978C-0.0649632 5.63356 0.749897 9.73619 3.48908 12.4753C4.96638 13.9526 6.82662 14.8929 8.68142 14.9914C8.63631 14.9189 8.59301 14.8447 8.55155 14.7689L8.54694 14.7603C8.4053 14.4951 8.29191 14.22 8.20592 13.9359C6.81052 13.7212 5.38591 12.9551 4.19761 11.7668C2.96238 10.5316 2.1978 9.02377 2.03495 7.5621C1.89119 6.27175 2.20946 4.98843 3.13864 3.87802L8.9229 9.66217C9.12678 9.39437 9.35945 9.15392 9.62032 8.94253L3.84627 3.1686C4.96097 2.22632 6.21752 1.89609 7.47661 2.03083C8.90451 2.18363 10.4065 2.94592 11.7126 4.25194C12.96 5.49938 13.7251 6.91045 13.9372 8.26754C14.0109 8.29426 14.0838 8.32309 14.156 8.35407C14.4619 8.48306 14.7429 8.64829 14.9969 8.84846Z" fill="#57965C"/>
</svg>
