<svg width="16" height="16" viewBox="0 0 16 16" fill="none" xmlns="http://www.w3.org/2000/svg">
<path d="M10.7127 14.7107C10.4717 14.1134 10.3093 13.3479 10.2631 12.5H9.04102C9.2053 13.4792 9.84398 14.2976 10.7127 14.7107Z" fill="#EBECF0"/>
<path d="M11.6783 14.4276C11.4715 13.955 11.3129 13.285 11.2647 12.5H12.7343C12.6861 13.285 12.5276 13.955 12.3208 14.4276C12.202 14.6991 12.085 14.8652 11.9995 14.9529C11.9141 14.8652 11.797 14.6991 11.6783 14.4276Z" fill="#EBECF0"/>
<path d="M11.6783 9.57238C11.4715 10.0449 11.3129 10.715 11.2647 11.5H12.7343C12.6861 10.715 12.5276 10.0449 12.3208 9.57238C12.202 9.30087 12.085 9.13482 11.9995 9.04712C11.9141 9.13482 11.797 9.30087 11.6783 9.57238Z" fill="#EBECF0"/>
<path d="M13.2864 14.7107C13.5274 14.1134 13.6897 13.3479 13.736 12.5H14.9581C14.7938 13.4792 14.1551 14.2976 13.2864 14.7107Z" fill="#EBECF0"/>
<path d="M13.736 11.5H14.9581C14.7938 10.5207 14.1551 9.70236 13.2864 9.28924C13.5274 9.88657 13.6897 10.6521 13.736 11.5Z" fill="#EBECF0"/>
<path d="M9.04102 11.5H10.2631C10.3093 10.6521 10.4717 9.88657 10.7127 9.28924C9.84398 9.70236 9.2053 10.5207 9.04102 11.5Z" fill="#EBECF0"/>
<path fill-rule="evenodd" clip-rule="evenodd" d="M16 12C16 9.79086 14.2091 8 12 8C9.79086 8 8 9.79086 8 12C8 14.2091 9.79086 16 12 16C14.2091 16 16 14.2091 16 12ZM10.2635 12.5C10.3098 13.3479 10.4722 14.1134 10.7131 14.7107C9.84445 14.2976 9.20577 13.4792 9.04148 12.5H10.2635ZM11.2652 12.5C11.3134 13.285 11.472 13.955 11.6787 14.4276C11.7975 14.6991 11.9146 14.8652 12 14.9529C12.0854 14.8652 12.2025 14.6991 12.3213 14.4276C12.528 13.955 12.6866 13.285 12.7348 12.5H11.2652ZM12.7348 11.5H11.2652C11.3134 10.715 11.472 10.045 11.6787 9.57239C11.7975 9.30089 11.9146 9.13483 12 9.04713C12.0854 9.13483 12.2025 9.30089 12.3213 9.57239C12.528 10.045 12.6866 10.715 12.7348 11.5ZM13.7365 12.5C13.6902 13.3479 13.5278 14.1134 13.2869 14.7107C14.1556 14.2976 14.7942 13.4792 14.9585 12.5H13.7365ZM14.9585 11.5H13.7365C13.6902 10.6521 13.5278 9.88659 13.2869 9.28925C14.1556 9.70237 14.7942 10.5208 14.9585 11.5ZM10.2635 11.5H9.04148C9.20577 10.5208 9.84445 9.70237 10.7131 9.28925C10.4722 9.88659 10.3098 10.6521 10.2635 11.5Z" fill="#6C707E"/>
<path d="M13.8973 7.37256C13.3123 7.13242 12.6716 7 12 7C9.23858 7 7 9.23858 7 12C7 12.0375 7.00041 12.0749 7.00124 12.1123C5.64564 12.5622 3.56197 12.981 3.31088 13.0314C3.29444 13.0347 3.28585 13.0365 3.28585 13.0365L3.18238 12.9823C1.44444 12.1521 1.39622 8.45668 4.55116 7.26565C5.32861 6.97193 6.08696 6.93406 6.86743 6.89507C7.47602 6.86467 8.09806 6.8336 8.75308 6.68004C10.3481 6.308 12.1948 5.12989 12.9454 3.59782C13.314 4.67071 13.7148 6.00842 13.8973 7.37256Z" fill="#F2FCF3"/>
<path d="M7.39556 13.9525C7.27183 13.661 7.17495 13.3554 7.10805 13.0388C6.77596 13.1569 6.43147 13.2595 6.03387 13.3778C5.59304 13.5091 5.0869 13.6598 4.45997 13.8727C4.24952 13.9442 4.08467 14.0131 4.08467 14.0131C4.52047 13.9425 4.95277 13.9184 4.95277 13.9184C5.48404 13.8948 6.07993 13.9133 6.70554 13.9328C6.9322 13.9399 7.16276 13.9471 7.39556 13.9525Z" fill="#F2FCF3"/>
<path d="M6.55611 5.92719C5.85274 5.96513 5.04122 6.0281 4.19306 6.34848C2.25367 7.08072 1.25338 8.61754 1.04186 10.1251C0.845643 11.5236 1.33026 13.1485 2.68495 13.836C2.69455 13.8582 2.70621 13.8868 2.72278 13.9275L2.76153 14.0223C2.80274 14.1231 2.90264 14.3675 3.08492 14.572C3.19454 14.695 3.35522 14.8302 3.57859 14.9162C3.80724 15.0043 4.03864 15.0165 4.24795 14.9825C4.43448 14.9523 4.62629 14.9312 4.77532 14.9176C4.84878 14.9109 4.90953 14.9062 4.95111 14.9032L4.9978 14.9001L5.00581 14.8996C5.49374 14.8783 6.04412 14.8954 6.67179 14.9149L6.95762 14.9236C7.27838 14.9331 7.61421 14.9417 7.95767 14.9433C7.73459 14.6375 7.54538 14.3053 7.39556 13.9524C7.16292 13.9471 6.93252 13.9399 6.70602 13.9328C6.08041 13.9133 5.48453 13.8948 4.95325 13.9184C4.95325 13.9184 4.52096 13.9425 4.08516 14.0131C4.08516 14.0131 4.25001 13.9442 4.46046 13.8727C5.08736 13.6598 5.59348 13.5091 6.03431 13.3779C6.43173 13.2595 6.77613 13.157 7.10808 13.0389C7.04472 12.7391 7.00823 12.4294 7.00124 12.1124C5.55682 12.5919 3.28634 13.0365 3.28634 13.0365L3.18287 12.9822C1.44493 12.1521 1.3967 8.45667 4.55165 7.26564C5.3291 6.97193 6.08745 6.93405 6.86791 6.89507C7.4765 6.86467 8.09855 6.8336 8.75357 6.68003C10.3486 6.308 12.1953 5.12988 12.9458 3.59782C13.3145 4.67077 13.7153 6.00856 13.8979 7.37277C14.2801 7.52971 14.6386 7.73263 14.9664 7.97464C14.964 7.94233 14.9614 7.91007 14.9587 7.87787C14.8172 6.1955 14.3228 4.53336 13.8934 3.28357L13.1088 1L12.0449 3.17167C11.4581 4.36933 9.90789 5.40096 8.52266 5.72407L8.52154 5.72433C7.96186 5.85554 7.43529 5.88228 6.82056 5.91348L6.81914 5.91355C6.73331 5.91791 6.64574 5.92236 6.55611 5.92719Z" fill="#208A3C"/>
</svg>
