<svg width="16" height="16" viewBox="0 0 16 16" fill="none" xmlns="http://www.w3.org/2000/svg">
<path fill-rule="evenodd" clip-rule="evenodd" d="M11.4328 9.65098C11.5711 9.89001 11.4894 10.1959 11.2504 10.3341C10.9158 10.5277 10.6299 10.7968 10.4164 11.1179C10.1533 11.5136 10 11.9881 10 12.5C10 13.8807 11.1193 15 12.5 15C13.8807 15 15 13.8807 15 12.5C15 11.9881 14.8467 11.5136 14.5836 11.1179C14.3701 10.7968 14.0842 10.5277 13.7496 10.3341C13.5106 10.1959 13.4289 9.89001 13.5672 9.65098C13.7055 9.41195 14.0113 9.33027 14.2504 9.46854C14.7185 9.73937 15.1179 10.1153 15.4164 10.5643C15.7851 11.1189 16 11.7851 16 12.5C16 14.433 14.433 16 12.5 16C10.567 16 9 14.433 9 12.5C9 11.7851 9.21486 11.1189 9.58363 10.5643C9.88212 10.1153 10.2815 9.73937 10.7496 9.46854C10.9887 9.33027 11.2945 9.41195 11.4328 9.65098Z" fill="#6C707E"/>
<path fill-rule="evenodd" clip-rule="evenodd" d="M12.5 8C12.7761 8 13 8.22386 13 8.5V11.5C13 11.7761 12.7761 12 12.5 12C12.2239 12 12 11.7761 12 11.5V8.5C12 8.22386 12.2239 8 12.5 8Z" fill="#6C707E"/>
</svg>
