<svg width="14" height="14" viewBox="0 0 14 14" fill="none" xmlns="http://www.w3.org/2000/svg">
<g clip-path="url(#clip0_3392_47823)">
<path d="M13.4211 12.7264C14.789 10.7804 13.3036 7 13.3036 7C13.3036 7 12.7009 8.3089 11.0491 8.9166C9.60551 9.44774 8.64125 9.00068 7.47168 9.57885C6.49036 10.064 6 10.8197 6 11.9551C6 12.649 6.3238 13.1034 6.82142 13.4027C11.9415 12.7264 12.9005 9.49314 12.9005 9.49314C12.9005 9.49314 12.3642 12.9368 7.96896 13.8127C8.6222 13.9449 9.35034 13.9789 10.008 13.9964C11.4319 14.0343 12.6774 13.7844 13.4211 12.7264Z" fill="#55A76A"/>
<path d="M13.4211 12.7264C14.789 10.7804 13.3036 7 13.3036 7C13.3036 7 12.7009 8.3089 11.0491 8.9166C9.60551 9.44774 8.64125 9.00068 7.47168 9.57885C6.49036 10.064 6 10.8197 6 11.9551C6 12.649 6.3238 13.1034 6.82142 13.4027C11.9415 12.7264 12.9005 9.49314 12.9005 9.49314C12.9005 9.49314 12.3642 12.9368 7.96896 13.8127C8.6222 13.9449 9.35034 13.9789 10.008 13.9964C11.4319 14.0343 12.6774 13.7844 13.4211 12.7264Z" fill="#55A76A"/>
<path fill-rule="evenodd" clip-rule="evenodd" d="M0 0.5V2.5C0 2.77614 0.223858 3 0.5 3H2.5C2.77614 3 3 2.77614 3 2.5V0.5C3 0.223858 2.77614 0 2.5 0H0.5C0.223858 0 0 0.223858 0 0.5ZM1 2H2V1H1V2Z" fill="#6C707E"/>
<path fill-rule="evenodd" clip-rule="evenodd" d="M0 13V10C0 9.44771 0.447715 9 1 9H4C4.55228 9 5 9.44772 5 10V13C5 13.5523 4.55228 14 4 14H1C0.447715 14 0 13.5523 0 13ZM1 10V13H4V10H1Z" fill="#6C707E"/>
<path fill-rule="evenodd" clip-rule="evenodd" d="M10 0C9.44772 0 9 0.447715 9 1V4C9 4.55228 9.44771 5 10 5H13C13.5523 5 14 4.55228 14 4V1C14 0.447715 13.5523 0 13 0H10ZM13 4H10V1L13 1V4Z" fill="#6C707E"/>
<path d="M4 1.5C4 1.22386 4.22386 1 4.5 1H7.5C7.77614 1 8 1.22386 8 1.5C8 1.77614 7.77614 2 7.5 2H4.5C4.22386 2 4 1.77614 4 1.5Z" fill="#6C707E"/>
<path d="M2 4.5C2 4.22386 1.77614 4 1.5 4C1.22386 4 1 4.22386 1 4.5V7.5C1 7.77614 1.22386 8 1.5 8C1.77614 8 2 7.77614 2 7.5V4.5Z" fill="#6C707E"/>
<path d="M12 6.5V7.1195C11.7735 7.36414 11.4478 7.63972 11 7.8534V6.5C11 6.22386 11.2239 6 11.5 6C11.7761 6 12 6.22386 12 6.5Z" fill="#6C707E"/>
</g>
<defs>
<clipPath id="clip0_3392_47823">
<rect width="14" height="14" fill="white"/>
</clipPath>
</defs>
</svg>
