<svg width="16" height="16" viewBox="0 0 16 16" fill="none" xmlns="http://www.w3.org/2000/svg">
<path d="M14.9689 7.33615L14.3991 8.57362L14.392 8.58708C14.3821 8.60576 14.3632 8.63974 14.3348 8.68544C14.2776 8.77727 14.1834 8.91358 14.0472 9.06732C13.7754 9.37422 13.3435 9.74276 12.7038 9.97811C12.1496 10.182 11.6951 10.2035 11.1286 10.2303L11.1091 10.2313C10.5392 10.2583 9.81732 10.2925 9.02853 10.6824C8.41009 10.9881 7.88439 11.4112 7.5204 11.9922C7.15596 12.574 7 13.2401 7 13.9551C7 14.3248 7.06314 14.6568 7.17648 14.9521C3.69857 14.5445 1 11.5874 1 8C1 4.13401 4.13401 1 8 1C11.6421 1 14.6345 3.78152 14.9689 7.33615Z" fill="#45322B"/>
<path d="M13.869 9.25306C13.9548 8.84892 14 8.42973 14 8C14 4.68629 11.3137 2 8 2C4.68629 2 2 4.68629 2 8C2 10.973 4.16236 13.4411 7.00015 13.9171C7.00005 13.9297 7 13.9424 7 13.9551C7 14.3248 7.06314 14.6568 7.17648 14.9521C3.69857 14.5445 1 11.5874 1 8C1 4.13401 4.13401 1 8 1C11.6421 1 14.6345 3.78152 14.9689 7.33615L14.3991 8.57362L14.392 8.58708C14.3821 8.60576 14.3632 8.63974 14.3348 8.68544C14.2776 8.77727 14.1834 8.91358 14.0472 9.06732C13.9941 9.12736 13.9347 9.18976 13.869 9.25306Z" fill="#C77D55"/>
<path d="M8.57081 5C7.72702 5 7.06335 5.37098 6.68265 5.99832V5.12281H5.7002V12H6.70312V9.52032C7.08689 10.1272 7.74186 10.4854 8.57081 10.4854C10.0291 10.4854 11.0474 9.36988 11.0474 7.74269C11.0474 6.1155 10.0291 5 8.57081 5ZM8.36101 9.5848C7.38367 9.5848 6.70312 8.8326 6.70312 7.74269C6.70312 6.65278 7.38367 5.90058 8.36101 5.90058C9.33324 5.90058 10.0036 6.65278 10.0036 7.74269C10.0036 8.8326 9.33324 9.5848 8.36101 9.5848Z" fill="#C77D55"/>
<path d="M15.4211 14.7264C16.789 12.7804 15.3036 9 15.3036 9C15.3036 9 14.7009 10.3089 13.0491 10.9166C11.6055 11.4477 10.6413 11.0007 9.47168 11.5788C8.49036 12.064 8 12.8197 8 13.9551C8 14.649 8.3238 15.1034 8.82142 15.4027C13.9415 14.7264 14.9005 11.4931 14.9005 11.4931C14.9005 11.4931 14.3642 14.9368 9.96896 15.8127C10.6222 15.9449 11.3503 15.9789 12.008 15.9964C13.4319 16.0343 14.6774 15.7844 15.4211 14.7264Z" fill="#57965C"/>
<path d="M15.4211 14.7264C16.789 12.7804 15.3036 9 15.3036 9C15.3036 9 14.7009 10.3089 13.0491 10.9166C11.6055 11.4477 10.6413 11.0007 9.47168 11.5788C8.49036 12.064 8 12.8197 8 13.9551C8 14.649 8.3238 15.1034 8.82142 15.4027C13.9415 14.7264 14.9005 11.4931 14.9005 11.4931C14.9005 11.4931 14.3642 14.9368 9.96896 15.8127C10.6222 15.9449 11.3503 15.9789 12.008 15.9964C13.4319 16.0343 14.6774 15.7844 15.4211 14.7264Z" fill="#57965C"/>
</svg>
