<svg width="14" height="14" viewBox="0 0 14 14" fill="none" xmlns="http://www.w3.org/2000/svg">
<g clip-path="url(#clip0_3376_47489)">
<path d="M11.4211 2.54342C14.2863 5.40854 15.0769 9.31476 12.1805 12.2112C9.284 15.1076 5.22827 14.2144 2.48908 11.4753C-0.250103 8.73619 -1.06496 4.63356 1.76887 1.79978C4.60271 -1.034 8.55592 -0.321695 11.4211 2.54342Z" fill="#253627"/>
<path fill-rule="evenodd" clip-rule="evenodd" d="M11.4211 2.54342C14.2863 5.40854 15.0769 9.31476 12.1805 12.2112C9.284 15.1076 5.22826 14.2144 2.48908 11.4753C-0.250103 8.73619 -1.06496 4.63356 1.76887 1.79978C4.60271 -1.034 8.55592 -0.321695 11.4211 2.54342ZM10.7126 3.25194C12.025 4.56439 12.8035 6.05797 12.9658 7.47924C13.1089 8.73177 12.7837 9.99274 11.8122 11.1344L2.84627 2.1686C3.96097 1.22632 5.21752 0.896088 6.47661 1.03083C7.90451 1.18363 9.40651 1.94592 10.7126 3.25194ZM2.13864 2.87802L11.1028 11.842C9.96566 12.8003 8.67759 13.1137 7.3937 12.9615C5.93895 12.7891 4.43927 12.0084 3.19761 10.7668C1.96238 9.53159 1.1978 8.02377 1.03495 6.5621C0.891189 5.27175 1.20946 3.98843 2.13864 2.87802Z" fill="#57965C"/>
</g>
<defs>
<clipPath id="clip0_3376_47489">
<rect width="14" height="14" fill="white"/>
</clipPath>
</defs>
</svg>
