<svg width="14" height="14" viewBox="0 0 14 14" fill="none" xmlns="http://www.w3.org/2000/svg">
<g clip-path="url(#clip0_3385_47500)">
<path d="M10.328 14C9.69967 14 9.132 13.8476 8.625 13.5429C8.118 13.2382 7.71933 12.8203 7.429 12.2892C7.143 11.7537 7 11.1573 7 10.5C7 9.84266 7.143 9.24845 7.429 8.71735C7.71933 8.1819 8.118 7.76182 8.625 7.45709C9.132 7.15236 9.69967 7 10.328 7C10.861 7 11.3398 7.09142 11.7645 7.27425C12.1892 7.45274 12.5423 7.72264 12.824 8.08396C13.1057 8.44092 13.2985 8.8806 13.4025 9.40299H12.3625C12.2672 9.08085 12.1177 8.81095 11.914 8.59328C11.7103 8.37562 11.472 8.21455 11.199 8.11007C10.926 8.00124 10.6357 7.94683 10.328 7.94683C9.899 7.94683 9.51333 8.05566 9.171 8.27332C8.833 8.49098 8.56867 8.79353 8.378 9.18097C8.18733 9.56841 8.092 10.0081 8.092 10.5C8.092 10.9876 8.18733 11.4251 8.378 11.8125C8.56867 12.1999 8.833 12.5047 9.171 12.7267C9.51333 12.9443 9.899 13.0532 10.328 13.0532C10.6357 13.0532 10.926 13.0009 11.199 12.8965C11.472 12.7876 11.7103 12.6244 11.914 12.4067C12.1177 12.1891 12.2672 11.9192 12.3625 11.597H13.4025C13.3028 12.102 13.1078 12.5351 12.8175 12.8965C12.5272 13.2578 12.1675 13.532 11.7385 13.7192C11.3095 13.9064 10.8393 14 10.328 14Z" fill="#CED0D6"/>
<path d="M13.9999 8.0771C14.0132 6.14749 13.0541 4.17636 11.4211 2.54342C8.55592 -0.321695 4.60271 -1.034 1.76887 1.79978C-1.06496 4.63356 -0.250103 8.73619 2.48908 11.4753C3.92575 12.912 5.72457 13.8408 7.52836 13.9814C7.13439 13.6439 6.80791 13.2378 6.55155 12.7689L6.54694 12.7603C6.17719 12.0681 6 11.3077 6 10.5C6 9.69237 6.17717 8.93286 6.54855 8.24322L6.54991 8.24069C6.92275 7.55308 7.44504 6.99957 8.10985 6.59999C8.78219 6.19589 9.52992 6 10.328 6C10.9749 6 11.5899 6.11104 12.156 6.35407C12.7349 6.59815 13.2245 6.97202 13.6109 7.46682C13.7611 7.65759 13.8903 7.86162 13.9999 8.0771Z" fill="#253627"/>
<path d="M13.9999 8.07709C14.0132 6.14748 13.0541 4.17636 11.4211 2.54342C8.55592 -0.321695 4.60271 -1.034 1.76887 1.79978C-1.06496 4.63356 -0.250103 8.73619 2.48908 11.4753C3.92575 12.912 5.72457 13.8408 7.52836 13.9814C7.14324 13.6515 6.82262 13.256 6.56894 12.8004C5.38317 12.4787 4.20541 11.7746 3.19761 10.7668C1.96238 9.53159 1.1978 8.02377 1.03495 6.5621C0.891189 5.27175 1.20946 3.98843 2.13864 2.87802L6.92289 7.66218C7.12677 7.39438 7.35944 7.15393 7.62031 6.94254L2.84627 2.1686C3.96097 1.22632 5.21752 0.896088 6.47661 1.03083C7.90451 1.18363 9.40651 1.94592 10.7126 3.25194C11.7928 4.33211 12.5113 5.53498 12.8222 6.71924C13.1191 6.92514 13.383 7.17494 13.6109 7.46682C13.7611 7.65759 13.8903 7.86162 13.9999 8.07709Z" fill="#57965C"/>
</g>
<defs>
<clipPath id="clip0_3385_47500">
<rect width="14" height="14" fill="white"/>
</clipPath>
</defs>
</svg>
