<svg width="16" height="16" viewBox="0 0 16 16" fill="none" xmlns="http://www.w3.org/2000/svg">
<path fill-rule="evenodd" clip-rule="evenodd" d="M2.01664 3.39246H2V12.5184H2.00263C2.03051 12.9621 2.2768 13.3344 2.59694 13.6237C2.9371 13.9312 3.40129 14.1852 3.93236 14.3882C4.81382 14.7252 5.95033 14.9487 7.20197 15.0158C7.07766 14.717 7.00573 14.3791 7.00033 14.0012C5.93671 13.9236 4.99926 13.7255 4.28947 13.4542C3.82523 13.2767 3.48396 13.0775 3.2675 12.8819C3.05102 12.6862 3 12.5341 3 12.4343V10.985C3.27236 11.1599 3.58833 11.3128 3.93236 11.4444C4.87523 11.8049 6.10992 12.0354 7.4652 12.0837C7.48304 12.053 7.50144 12.0225 7.5204 11.9922C7.74468 11.6342 8.03036 11.3362 8.3613 11.0886C8.24206 11.0917 8.12158 11.0932 8 11.0932C6.52624 11.0932 5.21452 10.864 4.28947 10.5103C3.82523 10.3328 3.48396 10.1337 3.2675 9.93804C3.05102 9.74236 3 9.59029 3 9.49048V8.04112C3.27236 8.21609 3.58833 8.369 3.93236 8.50053C4.99792 8.90791 6.43619 9.14938 8 9.14938C9.56381 9.14938 11.0021 8.90791 12.0676 8.50053C12.4117 8.369 12.7276 8.21609 13 8.04112C13 8.64521 13 9.2493 13 9.8534C13.4478 9.63972 13.7735 9.36414 14 9.1195V3.39246H13.9834C13.9213 3.00405 13.6924 2.67483 13.4031 2.41334C13.0629 2.10586 12.5987 1.85189 12.0676 1.64885C11.0021 1.24147 9.56381 1 8 1C6.43619 1 4.99792 1.24147 3.93236 1.64885C3.40129 1.85189 2.9371 2.10586 2.59694 2.41334C2.30765 2.67483 2.07865 3.00405 2.01664 3.39246ZM3.2675 3.15519C3.05102 3.35087 3 3.50293 3 3.60275C3 3.70256 3.05102 3.85463 3.2675 4.05031C3.48396 4.24597 3.82523 4.4451 4.28947 4.62258C5.21452 4.97625 6.52624 5.2055 8 5.2055C9.47376 5.2055 10.7855 4.97625 11.7105 4.62258C12.1748 4.4451 12.516 4.24597 12.7325 4.05031C12.949 3.85463 13 3.70256 13 3.60275C13 3.50293 12.949 3.35087 12.7325 3.15519C12.516 2.95953 12.1748 2.7604 11.7105 2.58291C10.7855 2.22925 9.47376 2 8 2C6.52624 2 5.21452 2.22925 4.28947 2.58291C3.82523 2.7604 3.48396 2.95953 3.2675 3.15519ZM3 5.09723V6.54663C3 6.64645 3.05102 6.79851 3.2675 6.99419C3.48396 7.18985 3.82523 7.38898 4.28947 7.56647C5.21452 7.92013 6.52624 8.14938 8 8.14938C9.47376 8.14938 10.7855 7.92013 11.7105 7.56647C12.1748 7.38898 12.516 7.18985 12.7325 6.99419C12.949 6.79851 13 6.64645 13 6.54663V5.09723C12.7276 5.27221 12.4117 5.42512 12.0676 5.55665C11.0021 5.96403 9.56381 6.2055 8 6.2055C6.43619 6.2055 4.99792 5.96403 3.93236 5.55665C3.58833 5.42512 3.27236 5.27221 3 5.09723Z" fill="#CED0D6"/>
<path d="M15.4211 14.7264C16.789 12.7804 15.3036 9 15.3036 9C15.3036 9 14.7009 10.3089 13.0491 10.9166C11.6055 11.4477 10.6413 11.0007 9.47168 11.5788C8.49036 12.064 8 12.8197 8 13.9551C8 14.649 8.3238 15.1034 8.82142 15.4027C13.9415 14.7264 14.9005 11.4931 14.9005 11.4931C14.9005 11.4931 14.3642 14.9368 9.96896 15.8127C10.6222 15.9449 11.3503 15.9789 12.008 15.9964C13.4319 16.0343 14.6774 15.7844 15.4211 14.7264Z" fill="#57965C"/>
</svg>
