<svg width="16" height="16" viewBox="0 0 16 16" fill="none" xmlns="http://www.w3.org/2000/svg">
<path fill-rule="evenodd" clip-rule="evenodd" d="M8.14645 12.1464C7.95118 12.3417 7.95118 12.6583 8.14645 12.8536C8.34171 13.0488 8.65829 13.0488 8.85355 12.8536L12 9.70711V11C12 11.2761 12.2239 11.5 12.5 11.5C12.7761 11.5 13 11.2761 13 11V8.5C13 8.22386 12.7761 8 12.5 8H10C9.72386 8 9.5 8.22386 9.5 8.5C9.5 8.77614 9.72386 9 10 9H11.2929L8.14645 12.1464ZM12.7071 15L15.8536 11.8536C16.0488 11.6583 16.0488 11.3417 15.8536 11.1464C15.6583 10.9512 15.3417 10.9512 15.1464 11.1464L12 14.2929V13C12 12.7239 11.7761 12.5 11.5 12.5C11.2239 12.5 11 12.7239 11 13V15.5C11 15.7761 11.2239 16 11.5 16H14C14.2761 16 14.5 15.7761 14.5 15.5C14.5 15.2239 14.2761 15 14 15H12.7071Z" fill="#6C707E"/>
<path fill-rule="evenodd" clip-rule="evenodd" d="M8.14645 12.1464C7.95118 12.3417 7.95118 12.6583 8.14645 12.8536C8.34171 13.0488 8.65829 13.0488 8.85355 12.8536L12 9.70711V11C12 11.2761 12.2239 11.5 12.5 11.5C12.7761 11.5 13 11.2761 13 11V8.5C13 8.22386 12.7761 8 12.5 8H10C9.72386 8 9.5 8.22386 9.5 8.5C9.5 8.77614 9.72386 9 10 9H11.2929L8.14645 12.1464ZM12.7071 15L15.8536 11.8536C16.0488 11.6583 16.0488 11.3417 15.8536 11.1464C15.6583 10.9512 15.3417 10.9512 15.1464 11.1464L12 14.2929V13C12 12.7239 11.7761 12.5 11.5 12.5C11.2239 12.5 11 12.7239 11 13V15.5C11 15.7761 11.2239 16 11.5 16H14C14.2761 16 14.5 15.7761 14.5 15.5C14.5 15.2239 14.2761 15 14 15H12.7071Z" fill="#6C707E"/>
<path d="M13.9836 8.27771C13.8762 7.5547 13.2529 7 12.5 7H10C9.17157 7 8.5 7.67157 8.5 8.5C8.5 9.01094 8.75546 9.46221 9.14562 9.73306L7.43934 11.4393C7.25074 11.6279 7.12287 11.8543 7.05571 12.094C5.70221 12.5509 3.56536 12.9803 3.31088 13.0314C3.29444 13.0347 3.28585 13.0365 3.28585 13.0365L3.18238 12.9823C1.44444 12.1521 1.39622 8.45669 4.55116 7.26566C5.32861 6.97195 6.08696 6.93407 6.86743 6.89509C7.47602 6.86469 8.09806 6.83362 8.75308 6.68005C10.3481 6.30802 12.1948 5.1299 12.9454 3.59784C13.3954 4.90768 13.8934 6.61223 13.9836 8.27771Z" fill="#F2FCF3"/>
<path d="M10 13.8349V13.1213L9.56066 13.5607C9.37439 13.7469 9.15131 13.874 8.91483 13.9418C9.28193 13.9235 9.64577 13.8904 10 13.8349Z" fill="#F2FCF3"/>
<path d="M8.15872 13.9609C7.89509 13.8995 7.64482 13.7661 7.43934 13.5607C7.28667 13.408 7.1738 13.2306 7.10071 13.0414C6.77088 13.1584 6.42855 13.2603 6.03387 13.3779C5.59304 13.5091 5.0869 13.6598 4.45997 13.8727C4.24952 13.9442 4.08467 14.0131 4.08467 14.0131C4.52047 13.9425 4.95277 13.9184 4.95277 13.9184C5.48404 13.8948 6.07993 13.9134 6.70554 13.9329C7.17799 13.9476 7.66739 13.9629 8.15872 13.9609Z" fill="#F2FCF3"/>
<path d="M6.55611 5.92719C5.85274 5.96513 5.04122 6.0281 4.19306 6.34848C2.25367 7.08072 1.25338 8.61754 1.04186 10.1251C0.845643 11.5236 1.33026 13.1485 2.68495 13.836C2.69455 13.8582 2.70621 13.8868 2.72278 13.9275L2.76153 14.0223C2.80274 14.1231 2.90264 14.3675 3.08492 14.572C3.19454 14.695 3.35522 14.8302 3.57859 14.9162C3.80724 15.0043 4.03864 15.0165 4.24795 14.9825C4.43448 14.9523 4.62629 14.9312 4.77532 14.9176C4.84878 14.9109 4.90953 14.9062 4.95111 14.9032L4.9978 14.9001L5.00581 14.8996C5.49374 14.8783 6.04412 14.8954 6.67179 14.9149L6.95762 14.9236C7.68694 14.9453 8.49416 14.962 9.2918 14.903C9.52459 14.8858 9.76152 14.8618 10 14.8285V13.835C9.64576 13.8904 9.28191 13.9235 8.91481 13.9418C8.66847 14.0124 8.4076 14.0188 8.15864 13.9609C7.66751 13.9628 7.1783 13.9476 6.70602 13.9328C6.08041 13.9133 5.48453 13.8948 4.95325 13.9184C4.95325 13.9184 4.52096 13.9425 4.08516 14.0131C4.08516 14.0131 4.25001 13.9442 4.46046 13.8727C5.08736 13.6598 5.59348 13.5091 6.03431 13.3779C6.4288 13.2604 6.77107 13.1585 7.10076 13.0415C6.98367 12.7385 6.96863 12.405 7.05566 12.0942C5.61464 12.5806 3.28634 13.0365 3.28634 13.0365L3.18287 12.9822C1.44493 12.1521 1.3967 8.45667 4.55165 7.26564C5.3291 6.97193 6.08745 6.93405 6.86791 6.89507C7.4765 6.86467 8.09855 6.8336 8.75357 6.68003C10.3486 6.308 12.1953 5.12988 12.9458 3.59782C13.3963 4.90905 13.895 6.61582 13.9844 8.28298C13.9947 8.35384 14 8.4263 14 8.5V10.8787L14.4393 10.4393C14.5763 10.3024 14.7332 10.1974 14.9007 10.1245C15.0174 9.37352 15.0202 8.60933 14.9587 7.87787C14.8172 6.1955 14.3228 4.53336 13.8934 3.28357L13.1088 1L12.0449 3.17167C11.4581 4.36933 9.90789 5.40096 8.52266 5.72407L8.52154 5.72433C7.96186 5.85554 7.43529 5.88228 6.82056 5.91348L6.81914 5.91355C6.73331 5.91791 6.64574 5.92236 6.55611 5.92719Z" fill="#208A3C"/>
</svg>
