<svg width="14" height="14" viewBox="0 0 14 14" fill="none" xmlns="http://www.w3.org/2000/svg">
<path fill-rule="evenodd" clip-rule="evenodd" d="M3.19306 5.34848C4.04122 5.0281 4.85274 4.96513 5.55611 4.92719C5.64623 4.92233 5.73427 4.91786 5.82055 4.91348C6.43529 4.88228 6.96186 4.85554 7.52154 4.72433L7.52266 4.72407C8.90789 4.40096 10.4581 3.36933 11.0449 2.17167L12.1088 0L12.8934 2.28357C13.3228 3.53336 13.8172 5.1955 13.9587 6.87787C14.0991 8.54668 13.9047 10.3859 12.7858 11.8498C11.6316 13.3595 9.86692 13.7865 8.2918 13.903C7.49416 13.962 6.68694 13.9453 5.95762 13.9236L5.67181 13.9149C5.04413 13.8954 4.49374 13.8783 4.00581 13.8996L3.9978 13.9001L3.95111 13.9032C3.90953 13.9062 3.84878 13.9109 3.77532 13.9176C3.62629 13.9312 3.43448 13.9523 3.24795 13.9825C3.03864 14.0165 2.80724 14.0043 2.57859 13.9162C2.35522 13.8302 2.19454 13.695 2.08492 13.572C1.90264 13.3675 1.80274 13.1231 1.76153 13.0223L1.72278 12.9275C1.70621 12.8868 1.69455 12.8582 1.68495 12.836C0.330264 12.1485 -0.154357 10.5236 0.0418638 9.12509C0.253382 7.61754 1.25367 6.08072 3.19306 5.34848ZM5.70602 12.9328C7.95611 13.003 10.5907 13.0851 11.9862 11.2597C13.7995 8.88712 12.7885 5.0505 11.9458 2.59782C11.1953 4.12988 9.34858 5.308 7.75357 5.68003C7.09855 5.8336 6.47651 5.86467 5.86792 5.89507C5.08745 5.93405 4.3291 5.97193 3.55165 6.26564C0.396704 7.45667 0.444931 11.1521 2.18287 11.9822L2.28634 12.0365C2.28634 12.0365 4.84152 11.5361 6.25502 11.0246C8.31827 10.2771 10.585 8.43241 11.3303 6.28803C10.9348 8.5168 8.98556 10.662 7.02841 11.6472C6.36711 11.981 5.79894 12.1502 5.03436 12.3778C4.59352 12.5091 4.08739 12.6598 3.46046 12.8727C3.25001 12.9442 3.08516 13.0131 3.08516 13.0131C3.52096 12.9425 3.95325 12.9184 3.95325 12.9184C4.48453 12.8948 5.08041 12.9133 5.70602 12.9328Z" fill="#57965C"/>
<path fill-rule="evenodd" clip-rule="evenodd" d="M11.9857 11.2597C10.2022 13.5927 6.39483 12.8099 3.95277 12.9184C3.95277 12.9184 3.52047 12.9425 3.08467 13.0131C3.08467 13.0131 3.24952 12.9442 3.45997 12.8727C5.17423 12.2906 5.98533 12.1735 7.02792 11.6473C8.98507 10.6621 10.9343 8.51682 11.3298 6.28805C10.5845 8.43243 8.31778 10.2771 6.25453 11.0246C4.84103 11.5362 2.28585 12.0357 2.28585 12.0365L2.18238 11.9823C0.444443 11.1521 0.396215 7.45669 3.55116 6.26566C4.93485 5.74292 6.25804 6.03056 7.75308 5.68005C9.34809 5.30802 11.1948 4.1299 11.9454 2.59784C12.788 5.05052 13.799 8.88714 11.9857 11.2597Z" fill="#253627"/>
</svg>
