<svg width="14" height="14" viewBox="0 0 14 14" fill="none" xmlns="http://www.w3.org/2000/svg">
<g clip-path="url(#clip0_3388_47554)">
<circle cx="10" cy="10" r="2" fill="#43454A"/>
<path fill-rule="evenodd" clip-rule="evenodd" d="M11.7383 12.4454C11.2479 12.7946 10.6479 13 10 13C8.34315 13 7 11.6569 7 10C7 8.34315 8.34315 7 10 7C11.6569 7 13 8.34315 13 10C13 10.6479 12.7946 11.2479 12.4454 11.7383L13.8536 13.1464C14.0488 13.3417 14.0488 13.6583 13.8536 13.8536C13.6583 14.0488 13.3417 14.0488 13.1464 13.8536L11.7383 12.4454ZM12 10C12 11.1046 11.1046 12 10 12C8.89543 12 8 11.1046 8 10C8 8.89543 8.89543 8 10 8C11.1046 8 12 8.89543 12 10Z" fill="#CED0D6"/>
<path d="M13.8987 9.10137C14.3332 6.85988 13.3447 4.46701 11.4211 2.54342C8.55592 -0.321695 4.60271 -1.034 1.76887 1.79978C-1.06496 4.63356 -0.250103 8.73619 2.48908 11.4753C4.3436 13.3298 6.8016 14.3381 9.09474 13.8971C7.32165 13.4869 6 11.8978 6 10C6 7.79086 7.79086 6 10 6C11.9002 6 13.4909 7.32494 13.8987 9.10137Z" fill="#253627"/>
<path d="M13.8987 9.10136C14.3332 6.85988 13.3447 4.46701 11.4211 2.54342C8.55592 -0.321695 4.60271 -1.034 1.76887 1.79978C-1.06496 4.63356 -0.250103 8.73619 2.48908 11.4753C4.3436 13.3298 6.8016 14.3381 9.09474 13.8971C8.41236 13.7393 7.79685 13.4068 7.29781 12.9493C5.87321 12.7546 4.41201 11.9812 3.19761 10.7668C1.96238 9.53159 1.1978 8.02377 1.03495 6.5621C0.891189 5.27175 1.20946 3.98843 2.13864 2.87802L6.82604 7.56533C7.03028 7.29948 7.26717 7.06002 7.53071 6.85294L2.84627 2.1686C3.96097 1.22632 5.21752 0.896088 6.47661 1.03083C7.90451 1.18363 9.40651 1.94592 10.7126 3.25194C11.9663 4.50568 12.7328 5.92471 12.9404 7.2881C13.4039 7.79047 13.7404 8.41191 13.8987 9.10136Z" fill="#57965C"/>
</g>
<defs>
<clipPath id="clip0_3388_47554">
<rect width="14" height="14" fill="white"/>
</clipPath>
</defs>
</svg>
