<svg width="16" height="16" viewBox="0 0 16 16" fill="none" xmlns="http://www.w3.org/2000/svg">
<path d="M3.82959 15.08C3.35292 15.08 2.98459 14.9543 2.72459 14.703C2.46459 14.4517 2.33242 14.0963 2.32809 13.637L2.32159 12.597H3.30309L3.30959 13.572C3.30959 13.754 3.35942 13.8948 3.45909 13.9945C3.56309 14.0985 3.70826 14.1505 3.89459 14.1505H4.52509V15.08H3.82959ZM2.89359 12.1615C3.08859 12.1615 3.24676 12.0597 3.36809 11.856C3.48942 11.648 3.57826 11.3295 3.63459 10.9005C3.69526 10.4672 3.72559 9.90817 3.72559 9.2235V7.6765C3.72559 6.99183 3.69526 6.435 3.63459 6.006C3.57826 5.57267 3.48942 5.25417 3.36809 5.0505C3.24676 4.8425 3.08859 4.7385 2.89359 4.7385C2.70292 4.7385 2.54476 4.8425 2.41909 5.0505C2.29342 5.25417 2.20026 5.57267 2.13959 6.006C2.08326 6.435 2.05509 6.99183 2.05509 7.6765V9.2235C2.05509 9.90817 2.08326 10.4672 2.13959 10.9005C2.20026 11.3295 2.29342 11.648 2.41909 11.856C2.54476 12.0597 2.70292 12.1615 2.89359 12.1615ZM2.89359 13.156C2.43426 13.156 2.05942 13.0195 1.76909 12.7465C1.48309 12.4692 1.27076 12.0423 1.13209 11.466C0.993423 10.8897 0.92409 10.1422 0.92409 9.2235V7.6765C0.932757 6.75783 1.00642 6.01033 1.14509 5.434C1.28809 4.85767 1.50259 4.433 1.78859 4.16C2.07459 3.88267 2.44292 3.744 2.89359 3.744C3.34426 3.744 3.71042 3.88267 3.99209 4.16C4.27809 4.433 4.49042 4.85767 4.62909 5.434C4.77209 6.01033 4.84792 6.75783 4.85659 7.6765V9.2235C4.85659 10.1422 4.78726 10.8897 4.64859 11.466C4.50992 12.0423 4.29759 12.4692 4.01159 12.7465C3.72559 13.0195 3.35292 13.156 2.89359 13.156ZM5.85718 13V3.9H7.59918L8.38568 10.0035L8.45718 11.3165L8.52218 10.0035L9.24368 3.9H11.0182V13H9.99768V5.5055L10.0302 4.2445L8.84718 13H8.04118L6.83218 4.2835L6.86468 5.5055V13H5.85718ZM12.3318 3.9H13.4043V11.9795H15.4778V13H12.3318V3.9Z" fill="#5FB865"/>
</svg>
