<svg width="16" height="16" viewBox="0 0 16 16" fill="none" xmlns="http://www.w3.org/2000/svg">
<path d="M4.29932 15.08C3.82265 15.08 3.45432 14.9543 3.19432 14.703C2.93432 14.4517 2.80215 14.0963 2.79782 13.637L2.79132 12.597H3.77282L3.77932 13.572C3.77932 13.754 3.82915 13.8948 3.92882 13.9945C4.03282 14.0985 4.17798 14.1505 4.36432 14.1505H4.99482V15.08H4.29932ZM3.36332 12.1615C3.55832 12.1615 3.71648 12.0597 3.83782 11.856C3.95915 11.648 4.04798 11.3295 4.10432 10.9005C4.16498 10.4672 4.19532 9.90817 4.19532 9.2235V7.6765C4.19532 6.99183 4.16498 6.435 4.10432 6.006C4.04798 5.57267 3.95915 5.25417 3.83782 5.0505C3.71648 4.8425 3.55832 4.7385 3.36332 4.7385C3.17265 4.7385 3.01448 4.8425 2.88882 5.0505C2.76315 5.25417 2.66998 5.57267 2.60932 6.006C2.55298 6.435 2.52482 6.99183 2.52482 7.6765V9.2235C2.52482 9.90817 2.55298 10.4672 2.60932 10.9005C2.66998 11.3295 2.76315 11.648 2.88882 11.856C3.01448 12.0597 3.17265 12.1615 3.36332 12.1615ZM3.36332 13.156C2.90398 13.156 2.52915 13.0195 2.23882 12.7465C1.95282 12.4692 1.74048 12.0423 1.60182 11.466C1.46315 10.8897 1.39382 10.1422 1.39382 9.2235V7.6765C1.40248 6.75783 1.47615 6.01033 1.61482 5.434C1.75782 4.85767 1.97232 4.433 2.25832 4.16C2.54432 3.88267 2.91265 3.744 3.36332 3.744C3.81398 3.744 4.18015 3.88267 4.46182 4.16C4.74782 4.433 4.96015 4.85767 5.09882 5.434C5.24182 6.01033 5.31765 6.75783 5.32632 7.6765V9.2235C5.32632 10.1422 5.25698 10.8897 5.11832 11.466C4.97965 12.0423 4.76732 12.4692 4.48132 12.7465C4.19532 13.0195 3.82265 13.156 3.36332 13.156ZM8.98541 13L7.88041 8.84H8.99841L10.1619 13H8.98541ZM6.32691 13V3.9H7.88691C8.38524 3.9 8.79041 3.99533 9.10241 4.186C9.41874 4.37667 9.65058 4.667 9.79791 5.057C9.94958 5.447 10.0254 5.941 10.0254 6.539C10.0254 7.14567 9.94958 7.64617 9.79791 8.0405C9.64624 8.4305 9.40791 8.72083 9.08291 8.9115C8.76224 9.10217 8.34624 9.1975 7.83491 9.1975H7.41241V13H6.32691ZM7.88691 8.1835C8.23791 8.1835 8.48924 8.0535 8.64091 7.7935C8.79258 7.52917 8.86841 7.111 8.86841 6.539C8.86841 5.98 8.79258 5.5705 8.64091 5.3105C8.48924 5.04617 8.23791 4.914 7.88691 4.914H7.41241V8.1835H7.88691ZM12.7325 13.156C12.2731 13.156 11.8983 13.0195 11.608 12.7465C11.322 12.4692 11.1096 12.0423 10.971 11.466C10.8323 10.8897 10.763 10.1422 10.763 9.2235V7.6765C10.763 6.75783 10.8323 6.01033 10.971 5.434C11.1096 4.85767 11.322 4.433 11.608 4.16C11.8983 3.88267 12.2731 3.744 12.7325 3.744C13.1528 3.744 13.4995 3.85017 13.7725 4.0625C14.0498 4.2705 14.26 4.5955 14.403 5.0375C14.546 5.4795 14.6326 6.0515 14.663 6.7535H13.571C13.5536 6.28117 13.5125 5.89767 13.4475 5.603C13.3825 5.30833 13.2915 5.09167 13.1745 4.953C13.0575 4.81 12.9101 4.7385 12.7325 4.7385C12.5418 4.7385 12.3836 4.8425 12.258 5.0505C12.1323 5.25417 12.0391 5.57267 11.9785 6.006C11.9221 6.435 11.894 6.99183 11.894 7.6765V9.2235C11.894 9.90817 11.9221 10.4672 11.9785 10.9005C12.0391 11.3295 12.1323 11.648 12.258 11.856C12.3836 12.0597 12.5418 12.1615 12.7325 12.1615C12.9101 12.1615 13.0575 12.0922 13.1745 11.9535C13.2915 11.8105 13.3825 11.5917 13.4475 11.297C13.5125 11.0023 13.5536 10.6188 13.571 10.1465H14.663C14.6326 10.8485 14.546 11.4205 14.403 11.8625C14.26 12.3045 14.0498 12.6317 13.7725 12.844C13.4995 13.052 13.1528 13.156 12.7325 13.156Z" fill="#5FB865"/>
</svg>
