<svg width="16" height="16" viewBox="0 0 16 16" fill="none" xmlns="http://www.w3.org/2000/svg">
<path d="M7.04521 15.106C6.54688 15.106 6.15904 14.976 5.88171 14.716C5.60871 14.456 5.47004 14.0877 5.46571 13.611L5.45921 12.597H6.51871L6.52521 13.546C6.52521 13.7193 6.57504 13.8537 6.67471 13.949C6.77871 14.0487 6.92171 14.0985 7.10371 14.0985H7.81221V15.106H7.04521ZM6.07671 12.051C6.31071 12.051 6.50788 11.947 6.66821 11.739C6.82854 11.5267 6.94988 11.2038 7.03221 10.7705C7.11454 10.3372 7.15571 9.78467 7.15571 9.113V7.787C7.15571 7.11533 7.11454 6.56283 7.03221 6.1295C6.94988 5.69617 6.82854 5.3755 6.66821 5.1675C6.50788 4.95517 6.31071 4.849 6.07671 4.849C5.83838 4.849 5.63688 4.95517 5.47221 5.1675C5.31188 5.3755 5.19054 5.69617 5.10821 6.1295C5.02588 6.56283 4.98471 7.11533 4.98471 7.787V9.113C4.98471 9.78467 5.02588 10.3372 5.10821 10.7705C5.19054 11.2038 5.31188 11.5267 5.47221 11.739C5.63688 11.947 5.83838 12.051 6.07671 12.051ZM6.07671 13.156C5.55671 13.156 5.12121 13.0108 4.77021 12.7205C4.42354 12.4258 4.16138 11.9817 3.98371 11.388C3.81038 10.79 3.72371 10.0317 3.72371 9.113V7.787C3.72804 6.86833 3.81904 6.11217 3.99671 5.5185C4.17438 4.9205 4.43654 4.47633 4.78321 4.186C5.12988 3.89133 5.56104 3.744 6.07671 3.744C6.58371 3.744 7.00838 3.89133 7.35071 4.186C7.69738 4.47633 7.95954 4.9205 8.13721 5.5185C8.31488 6.11217 8.40804 6.86833 8.41671 7.787V9.113C8.41671 10.0317 8.32788 10.79 8.15021 11.388C7.97688 11.9817 7.71688 12.4258 7.37021 12.7205C7.02354 13.0108 6.59238 13.156 6.07671 13.156ZM8.46912 5.0245V3.9H12.6616V5.0245H11.1731V13H9.95762V5.0245H8.46912Z" fill="#5FB865"/>
</svg>
