<svg width="16" height="16" viewBox="0 0 16 16" fill="none" xmlns="http://www.w3.org/2000/svg">
<path d="M7.10371 15.106C6.58371 15.106 6.18071 14.976 5.89471 14.716C5.61304 14.456 5.47004 14.0877 5.46571 13.611L5.45921 12.597H6.60321L6.60971 13.546C6.60971 13.702 6.65738 13.8233 6.75271 13.91C6.84804 14.001 6.98238 14.0465 7.15571 14.0465H7.83821V15.106H7.10371ZM6.07021 11.973C6.29554 11.973 6.48188 11.8863 6.62921 11.713C6.77654 11.5353 6.88704 11.2407 6.96071 10.829C7.03871 10.413 7.07771 9.841 7.07771 9.113V7.787C7.07771 7.059 7.03871 6.48917 6.96071 6.0775C6.88704 5.6615 6.77654 5.36683 6.62921 5.1935C6.48188 5.01583 6.29554 4.927 6.07021 4.927C5.84054 4.927 5.65204 5.01583 5.50471 5.1935C5.35738 5.36683 5.24471 5.6615 5.16671 6.0775C5.09304 6.48917 5.05621 7.059 5.05621 7.787V9.113C5.05621 9.841 5.09304 10.413 5.16671 10.829C5.24471 11.2407 5.35738 11.5353 5.50471 11.713C5.65204 11.8863 5.84054 11.973 6.07021 11.973ZM6.07021 13.156C5.56321 13.156 5.13421 13.0087 4.78321 12.714C4.43654 12.415 4.17221 11.9665 3.99021 11.3685C3.81254 10.7705 3.72371 10.0187 3.72371 9.113V7.787C3.72371 6.88133 3.81254 6.1295 3.99021 5.5315C4.17221 4.9335 4.43654 4.48717 4.78321 4.1925C5.13421 3.8935 5.56321 3.744 6.07021 3.744C6.57721 3.744 7.00404 3.89133 7.35071 4.186C7.70171 4.48067 7.96604 4.92917 8.14371 5.5315C8.32571 6.1295 8.41671 6.88133 8.41671 7.787V9.113C8.41671 10.0187 8.32571 10.7727 8.14371 11.375C7.96604 11.973 7.70171 12.4193 7.35071 12.714C7.00404 13.0087 6.57721 13.156 6.07021 13.156ZM8.46912 3.9H12.6616V5.1415H11.2121V13H9.90562V5.1415H8.46912V3.9Z" fill="#57965C"/>
</svg>
