<svg width="16" height="16" viewBox="0 0 16 16" fill="none" xmlns="http://www.w3.org/2000/svg">
<path fill-rule="evenodd" clip-rule="evenodd" d="M8.00003 0.999966C11.866 0.999966 15 4.13399 15 8C15 11.866 11.866 15 8.00003 15C4.13403 15 1 11.866 1 8C1 4.13399 4.13403 0.999966 8.00003 0.999966Z" fill="#CD669A"/>
<path d="M6.60866 10.3317C6.71051 10.7084 6.69933 11.0597 6.59415 11.3779C6.58246 11.4132 6.56958 11.4482 6.55561 11.4827C6.54164 11.5172 6.52651 11.5513 6.51029 11.585C6.42916 11.7533 6.32029 11.9109 6.18696 12.0563C5.78025 12.5 5.212 12.6678 4.96834 12.5264C4.70522 12.3739 4.83702 11.7483 5.30857 11.2499C5.81586 10.7136 6.54576 10.3688 6.54576 10.3688L6.54464 10.3666C6.56566 10.3553 6.58703 10.3436 6.60866 10.3317ZM12.3907 3.99605C12.0737 2.75283 10.0123 2.34414 8.06127 3.03728C6.9002 3.44974 5.64324 4.09715 4.73946 4.94253C3.66488 5.94764 3.49351 6.82246 3.56415 7.18801C3.81329 8.47785 5.58061 9.32094 6.30714 9.94647V9.95025C6.09292 10.0557 4.52493 10.8492 4.15799 11.6605C3.77081 12.5163 4.21962 13.1304 4.51675 13.2131C5.4374 13.4693 6.38214 13.0085 6.88984 12.2512C7.37979 11.5204 7.339 10.5767 7.12608 10.1073C7.41979 10.0298 7.7622 9.99506 8.19736 10.0459C9.42529 10.1893 9.66623 10.956 9.62016 11.2769C9.57412 11.5978 9.31656 11.7742 9.23045 11.8275C9.14432 11.8808 9.11804 11.8992 9.1253 11.9388C9.13573 11.9964 9.1756 11.9942 9.24902 11.9818C9.35009 11.9647 9.89381 11.7208 9.91705 11.1285C9.94666 10.3765 9.22599 9.53523 7.94995 9.55721C7.42443 9.56627 7.09398 9.61626 6.85529 9.70509C6.83764 9.68499 6.81968 9.66498 6.80111 9.64519C6.01223 8.80352 4.5539 8.20815 4.61574 7.07665C4.63823 6.66531 4.7812 5.58213 7.41795 4.26824C9.57791 3.19197 11.307 3.48814 11.6059 4.14455C12.0327 5.0823 10.6817 6.82525 8.43861 7.07665C7.584 7.17247 7.13402 6.84123 7.02208 6.71789C6.90422 6.58803 6.88667 6.58217 6.84268 6.60653C6.77099 6.64623 6.81641 6.76089 6.84268 6.82924C6.90964 7.00353 7.18448 7.31261 7.65303 7.46636C8.06519 7.60163 9.0686 7.67595 10.2821 7.20658C11.6411 6.68085 12.7024 5.21846 12.3907 3.99605Z" fill="white"/>
</svg>
