<svg width="16" height="16" viewBox="0 0 16 16" fill="none" xmlns="http://www.w3.org/2000/svg">
<g clip-path="url(#clip0_3770_47246)">
<path d="M0.975338 2.89804L7.56142 14.929C7.75112 15.2756 8.24888 15.2756 8.43858 14.929L15.0247 2.89804C15.2216 2.53827 14.9255 2.10746 14.519 2.16246L8.06705 3.0355C8.02255 3.04152 7.97745 3.04152 7.93295 3.0355L1.48097 2.16246C1.07452 2.10746 0.77839 2.53827 0.975338 2.89804Z" fill="url(#paint0_linear_3770_47246)"/>
<path d="M12.8087 3.9227L8.14649 12.9554C8.04031 13.1611 7.72778 13.0521 7.77254 12.825L8.43324 9.47243C8.46296 9.32162 8.31853 9.19505 8.17292 9.24431L7.3154 9.53439C7.17246 9.58275 7.0295 9.46143 7.05396 9.31253L7.45051 6.89791C7.47386 6.75569 7.34367 6.6362 7.20397 6.67164L5.77143 7.03509C5.63841 7.06884 5.51169 6.96165 5.52292 6.82487L5.98728 1.16976C5.99476 1.07863 6.0631 1.00418 6.15325 0.98893L11.6593 0.0576326C11.8109 0.0319872 11.9335 0.179911 11.8802 0.324152L10.6244 3.72267C10.5701 3.86965 10.6982 4.01917 10.8518 3.988L12.5911 3.63496C12.7557 3.60157 12.8857 3.77351 12.8087 3.9227Z" fill="url(#paint1_linear_3770_47246)"/>
</g>
<defs>
<linearGradient id="paint0_linear_3770_47246" x1="0.884067" y1="1.59154" x2="9.67112" y2="12.877" gradientUnits="userSpaceOnUse">
<stop stop-color="#41D1FF"/>
<stop offset="1" stop-color="#BD34FE"/>
</linearGradient>
<linearGradient id="paint1_linear_3770_47246" x1="7.59894" y1="0.295762" x2="9.21183" y2="11.7622" gradientUnits="userSpaceOnUse">
<stop stop-color="#FFEA83"/>
<stop offset="0.0833333" stop-color="#FFDD35"/>
<stop offset="1" stop-color="#FFA800"/>
</linearGradient>
<clipPath id="clip0_3770_47246">
<rect width="16" height="16" fill="white"/>
</clipPath>
</defs>
</svg>
