<svg width="16" height="16" viewBox="0 0 16 16" fill="none" xmlns="http://www.w3.org/2000/svg">
<path d="M3.14645 3.85355C2.95118 3.65829 2.95118 3.34171 3.14645 3.14645C3.34171 2.95118 3.65829 2.95118 3.85355 3.14645L12 11.2929V5.5C12 5.22386 12.2239 5 12.5 5C12.7761 5 13 5.22386 13 5.5V12.5C13 12.5678 12.9865 12.6324 12.9621 12.6914C12.9388 12.7477 12.9048 12.8006 12.86 12.847C12.8557 12.8514 12.8514 12.8557 12.847 12.86C12.7571 12.9467 12.6348 13 12.5 13H5.5C5.22386 13 5 12.7761 5 12.5C5 12.2239 5.22386 12 5.5 12H11.2929L3.14645 3.85355Z" fill="#CED0D6"/>
</svg>
