<svg width="16" height="16" viewBox="0 0 16 16" fill="none" xmlns="http://www.w3.org/2000/svg">
<circle opacity="0.2" cx="8" cy="8" r="8" fill="#313547"/>
<path fill-rule="evenodd" clip-rule="evenodd" d="M11.4935 4.48784C11.2998 4.28007 10.972 4.27548 10.7725 4.47775L8.00031 7.28849L5.22829 4.47788C5.02879 4.27561 4.701 4.2802 4.50725 4.48797C4.32463 4.68382 4.3289 4.98882 4.51693 5.17947L7.29866 7.99991L4.51713 10.8201C4.3291 11.0108 4.32483 11.3158 4.50745 11.5116C4.70121 11.7194 5.029 11.724 5.22849 11.5217L8.00031 8.71133L10.7723 11.5219C10.9718 11.7241 11.2996 11.7196 11.4933 11.5118C11.6759 11.3159 11.6717 11.0109 11.4836 10.8203L8.70197 7.99991L11.4838 5.17934C11.6719 4.98869 11.6761 4.68368 11.4935 4.48784Z" fill="#818594"/>
</svg>
