<svg width="16" height="16" viewBox="0 0 16 16" fill="none" xmlns="http://www.w3.org/2000/svg">
<path fill-rule="evenodd" clip-rule="evenodd" d="M6.5 11C6.5 12.1046 5.60457 13 4.5 13C3.39543 13 2.5 12.1046 2.5 11C2.5 9.89543 3.39543 9 4.5 9C5.60457 9 6.5 9.89543 6.5 11ZM4.5 14C6.15685 14 7.5 12.6569 7.5 11C7.5 9.34315 6.15685 8 4.5 8C2.84315 8 1.5 9.34315 1.5 11C1.5 12.6569 2.84315 14 4.5 14ZM13.5 11C13.5 12.1046 12.6046 13 11.5 13C10.3954 13 9.5 12.1046 9.5 11C9.5 9.89543 10.3954 9 11.5 9C12.6046 9 13.5 9.89543 13.5 11ZM11.5 14C13.1569 14 14.5 12.6569 14.5 11C14.5 9.34315 13.1569 8 11.5 8C9.84315 8 8.5 9.34315 8.5 11C8.5 12.6569 9.84315 14 11.5 14Z" fill="#6C707E"/>
<path fill-rule="evenodd" clip-rule="evenodd" d="M11.8537 1.14644C11.7934 1.08614 11.7216 1.04446 11.6453 1.0214C11.5869 1.00369 11.5244 0.996421 11.46 1.00161L11.4585 1.00172L11.4577 1.0018C8.89299 1.21578 7.10682 2.51356 5.92996 4.03109C4.76214 5.53696 4.18349 7.26952 4.00588 8.42397C3.9639 8.6969 4.15111 8.95219 4.42404 8.99418C4.69697 9.03617 4.95227 8.84896 4.99426 8.57603C5.14998 7.56381 5.67133 5.99637 6.72018 4.64391C7.43375 3.72378 8.38624 2.90817 9.6361 2.42683L10.8329 1.8728L10.1507 2.4855C9.63716 3.4581 9.48624 4.48196 9.53842 5.42755C9.61459 6.80787 10.1221 8.03847 10.5761 8.765C10.7225 8.99917 11.031 9.07035 11.2651 8.924C11.4993 8.77764 11.5705 8.46917 11.4241 8.235C11.0449 7.62819 10.6024 6.5588 10.5369 5.37245C10.4723 4.20111 10.7737 2.93357 11.8537 1.85355C12.049 1.65829 12.049 1.34171 11.8537 1.14644Z" fill="#6C707E"/>
</svg>
