<svg width="16" height="16" viewBox="0 0 16 16" fill="none" xmlns="http://www.w3.org/2000/svg">
<path d="M7.99188 15L2.9402 13.6005L1.81445 1H14.1845L13.0575 13.5985L7.99188 15Z" fill="#264DE4"/>
<path d="M12.0933 12.7963L13.0563 2.03027H8V13.9288L12.0933 12.7963Z" fill="#2965F1"/>
<path d="M4.39453 6.70361L4.53333 8.249H7.99878V6.70361H4.39453Z" fill="#EBEBEB"/>
<path d="M4.11719 3.57568L4.25796 5.1211H8.00033V3.57568H7.99497H4.11719Z" fill="#EBEBEB"/>
<path d="M7.99978 10.7169L7.99299 10.7188L6.26831 10.254L6.15806 9.02148H5.32H4.60352L4.82047 11.448L7.99265 12.3268L7.99978 12.3248V10.7169Z" fill="#EBEBEB"/>
<path d="M11.5938 6.70361L11.8734 3.57568H7.99414V5.1211H10.1763L10.0354 6.70361H7.99414V8.249H9.90106L9.72131 10.2533L7.99414 10.7185V12.3263L11.1688 11.4482L11.1921 11.1871L11.556 7.1186L11.5938 6.70361Z" fill="white"/>
</svg>
