<svg width="16" height="16" viewBox="0 0 16 16" fill="none" xmlns="http://www.w3.org/2000/svg">
<path fill-rule="evenodd" clip-rule="evenodd" d="M14.0877 6.73537C14.85 6.73537 15.2114 7.00829 15.2502 7.03904L15.391 7.15031L15.3326 7.3212C15.2394 7.55692 15.0959 7.76945 14.9121 7.94392C14.6354 8.21746 14.1338 8.5439 13.3181 8.5439H13.1865C13.1195 8.71333 13.0478 8.9118 12.9699 9.12757C12.6638 9.97489 12.2613 11.0892 11.6675 11.7614C11.2219 12.2658 10.6977 12.6948 10.1153 13.0321C9.40854 13.4323 8.63977 13.7116 7.84084 13.8583C7.26612 13.9652 6.68264 14.0181 6.09807 14.0163C4.80406 14.0163 4.24822 13.8704 3.34558 13.4401C2.44294 13.0098 1.90016 12.3003 1.41263 11.196C1.1422 10.5834 1.04487 9.67345 1.01182 8.98449C0.986026 8.44692 1.42639 8.02076 1.96457 8.02076H10.9655C11.0804 8.01646 11.6484 7.96789 12.0025 7.77057C11.7093 7.30705 11.6263 6.76488 11.7628 6.18763C11.7827 6.10437 11.8065 6.02221 11.834 5.94141C11.9063 5.72897 12.0046 5.5259 12.1267 5.33684L12.2613 5.14258L12.466 5.26062C12.504 5.28305 13.3396 5.77611 13.4871 6.78699C13.6856 6.75351 13.8864 6.73624 14.0877 6.73537ZM5.75015 11.5C5.75015 11.9142 5.41437 12.25 5.00015 12.25C4.58594 12.25 4.25015 11.9142 4.25015 11.5C4.25015 11.0858 4.58594 10.75 5.00015 10.75C5.41437 10.75 5.75015 11.0858 5.75015 11.5Z" fill="#548AF7"/>
<path d="M8 2H5C4.44772 2 4 2.44772 4 3V6C4 6.55228 4.44772 7 5 7H8C8.55228 7 9 6.55228 9 6V3C9 2.44772 8.55228 2 8 2Z" fill="#548AF7"/>
</svg>
