<svg width="16" height="16" viewBox="0 0 16 16" fill="none" xmlns="http://www.w3.org/2000/svg">
<path d="M4.85321 9.81036H2.70654C2.99077 10.7854 3.51821 11.6593 4.29039 12.4315C5.52142 13.6628 7.00168 14.2774 8.7327 14.2774C9.07873 14.2774 9.41399 14.2517 9.73963 14.2025C11.0435 14.0058 12.185 13.4163 13.1631 12.4315C13.9403 11.6596 14.4714 10.7854 14.7578 9.81036H13.8867H12.6128H4.85321Z" fill="#2C2255"/>
<path d="M3.66939 6.89471H2.54797C2.50695 7.14112 2.479 7.39266 2.46631 7.65061H3.79913H4.46772H14.1184H14.9993C14.9865 7.39266 14.9585 7.14112 14.9171 6.89471" fill="#2C2255"/>
<path d="M2.46631 8.35251C2.479 8.61059 2.50682 8.86213 2.54797 9.10841H3.71387H4.59759H14.0397H14.9173C14.9586 8.86213 14.9868 8.61059 14.9997 8.35251" fill="#2C2255"/>
<path d="M14.758 6.19267C14.4718 5.21498 13.9406 4.33703 13.163 3.55934C12.1875 2.58395 11.0491 1.99856 9.74952 1.80164C9.4208 1.75177 9.08222 1.72562 8.7326 1.72562C7.00157 1.72562 5.52119 2.33703 4.29029 3.55934C3.51785 4.33703 2.99016 5.21498 2.70605 6.19267" fill="#2C2255"/>
<path d="M2.09359 8.00181C2.09359 4.69104 4.58013 1.94014 7.81488 1.45629C7.73462 1.45334 7.65398 1.45001 7.57296 1.45001C3.94295 1.45001 1 4.38348 1 8.00181C1 11.6203 3.94282 14.5535 7.57296 14.5535C7.65424 14.5535 7.73488 14.5505 7.81539 14.5475C4.58013 14.0636 2.09359 11.3127 2.09359 8.00181Z" fill="#F7941E"/>
<path d="M12.9979 7.65049C12.9769 7.39139 12.9333 7.1387 12.8682 6.89459H4.59765C4.53252 7.13844 4.4888 7.39126 4.46777 7.65049H12.9979Z" fill="url(#paint0_linear_1136_25360)"/>
<path d="M12.9978 8.35254H4.46777C4.4888 8.61164 4.53226 8.86421 4.59752 9.10844H12.8682C12.9333 8.86434 12.9768 8.61164 12.9978 8.35254Z" fill="url(#paint1_linear_1136_25360)"/>
<path d="M8.7329 12.2823C10.4505 12.2823 11.931 11.2704 12.6128 9.81036H4.85303C5.53482 11.2704 7.01534 12.2823 8.7329 12.2823Z" fill="url(#paint2_linear_1136_25360)"/>
<defs>
<linearGradient id="paint0_linear_1136_25360" x1="8.73275" y1="15.1294" x2="8.73275" y2="5.689" gradientUnits="userSpaceOnUse">
<stop offset="0.3033" stop-color="#473788"/>
<stop offset="0.872" stop-color="#2C2255"/>
</linearGradient>
<linearGradient id="paint1_linear_1136_25360" x1="8.73274" y1="15.1296" x2="8.73274" y2="5.6891" gradientUnits="userSpaceOnUse">
<stop offset="0.3033" stop-color="#473788"/>
<stop offset="0.872" stop-color="#2C2255"/>
</linearGradient>
<linearGradient id="paint2_linear_1136_25360" x1="8.73287" y1="15.1291" x2="8.73287" y2="5.68945" gradientUnits="userSpaceOnUse">
<stop offset="0.3033" stop-color="#473788"/>
<stop offset="0.8631" stop-color="#2C2255"/>
</linearGradient>
</defs>
</svg>
