<svg width="16" height="16" viewBox="0 0 16 16" fill="none" xmlns="http://www.w3.org/2000/svg">
<path d="M4.85321 9.81039H2.70654C2.99077 10.7854 3.51821 11.6594 4.29039 12.4316C5.52142 13.6628 7.00168 14.2774 8.7327 14.2774C9.07873 14.2774 9.41399 14.2517 9.73963 14.2026C11.0435 14.0058 12.185 13.4163 13.1631 12.4316C13.9403 11.6596 14.4714 10.7854 14.7578 9.81039H13.8867H12.6128H4.85321Z" fill="#2C2255"/>
<path d="M3.66939 6.89474H2.54797C2.50695 7.14116 2.479 7.39269 2.46631 7.65064H3.79913H4.46772H14.1184H14.9993C14.9865 7.39269 14.9585 7.14116 14.9171 6.89474" fill="#2C2255"/>
<path d="M2.46631 8.35254C2.479 8.61062 2.50682 8.86216 2.54797 9.10844H3.71387H4.59759H14.0397H14.9173C14.9586 8.86216 14.9868 8.61062 14.9997 8.35254" fill="#2C2255"/>
<path d="M14.758 6.1927C14.4718 5.21501 13.9406 4.33706 13.163 3.55937C12.1875 2.58398 11.0491 1.99859 9.74952 1.80167C9.4208 1.7518 9.08222 1.72565 8.7326 1.72565C7.00157 1.72565 5.52119 2.33706 4.29029 3.55937C3.51785 4.33706 2.99016 5.21501 2.70605 6.1927" fill="#2C2255"/>
<path d="M2.09359 8.00181C2.09359 4.69104 4.58013 1.94014 7.81488 1.45629C7.73462 1.45334 7.65398 1.45001 7.57296 1.45001C3.94295 1.45001 1 4.38348 1 8.00181C1 11.6203 3.94282 14.5535 7.57296 14.5535C7.65424 14.5535 7.73488 14.5505 7.81539 14.5475C4.58013 14.0636 2.09359 11.3127 2.09359 8.00181Z" fill="#F7941E"/>
<path d="M12.9979 7.65052C12.9769 7.39142 12.9333 7.13873 12.8682 6.89462H4.59765C4.53252 7.13847 4.4888 7.39129 4.46777 7.65052H12.9979Z" fill="url(#paint0_linear_1136_25365)"/>
<path d="M12.9978 8.35257H4.46777C4.4888 8.61167 4.53226 8.86424 4.59752 9.10847H12.8682C12.9333 8.86437 12.9768 8.61167 12.9978 8.35257Z" fill="url(#paint1_linear_1136_25365)"/>
<path d="M8.7329 12.2823C10.4505 12.2823 11.931 11.2704 12.6128 9.81039H4.85303C5.53482 11.2704 7.01534 12.2823 8.7329 12.2823Z" fill="url(#paint2_linear_1136_25365)"/>
<path d="M3.83585 8.35257H4.462H13.0141H14.1375H14.991C14.9969 8.2409 15.0002 8.12847 15.0002 8.01513C15.0002 7.8927 14.9957 7.77142 14.9888 7.65039H14.1374H13.0139H4.46188H3.79149H2.46649C2.45957 7.77116 2.45508 7.8927 2.45508 8.01513C2.45508 8.12847 2.45841 8.2409 2.46431 8.35257H3.83585Z" fill="white"/>
<path d="M4.82834 6.19269H2.70629C2.63655 6.42128 2.59155 6.65577 2.54834 6.89487H3.64129H4.57193H12.8641H14.0385H14.8778C14.8345 6.65602 14.7787 6.42153 14.7091 6.19269" fill="white"/>
<path d="M14.0713 9.10834H12.897H4.60491H3.71875H2.54785C2.5899 9.34718 2.63772 9.58155 2.70631 9.81039H4.86106H12.6408H13.918H14.7498C14.8182 9.5818 14.8735 9.34744 14.9157 9.10834H14.0713Z" fill="white"/>
<defs>
<linearGradient id="paint0_linear_1136_25365" x1="8.73275" y1="15.1294" x2="8.73275" y2="5.68903" gradientUnits="userSpaceOnUse">
<stop offset="0.3033" stop-color="#473788"/>
<stop offset="0.872" stop-color="#2C2255"/>
</linearGradient>
<linearGradient id="paint1_linear_1136_25365" x1="8.73274" y1="15.1296" x2="8.73274" y2="5.68913" gradientUnits="userSpaceOnUse">
<stop offset="0.3033" stop-color="#473788"/>
<stop offset="0.872" stop-color="#2C2255"/>
</linearGradient>
<linearGradient id="paint2_linear_1136_25365" x1="8.73287" y1="15.1292" x2="8.73287" y2="5.68948" gradientUnits="userSpaceOnUse">
<stop offset="0.3033" stop-color="#473788"/>
<stop offset="0.8631" stop-color="#2C2255"/>
</linearGradient>
</defs>
</svg>
