<svg width="16" height="16" viewBox="0 0 16 16" fill="none" xmlns="http://www.w3.org/2000/svg">
<path fill-rule="evenodd" clip-rule="evenodd" d="M11.4239 6.75299C11.4239 6.44012 11.1703 6.18649 10.8574 6.18649H10.3459L10.5935 5.03871C10.6755 4.65871 10.3859 4.29999 9.99718 4.29999C9.70969 4.29999 9.46122 4.5007 9.40076 4.78175L9.09739 6.19199H7.56289L7.81104 5.03845C7.89277 4.6585 7.60318 4.29999 7.21454 4.29999C6.92688 4.29999 6.6783 4.50091 6.61797 4.78217L6.31439 6.19749H5.51689C5.20402 6.19749 4.95039 6.45112 4.95039 6.76399C4.95039 7.07686 5.20402 7.33049 5.51689 7.33049H6.07239L5.72039 8.98599H4.96414C4.65279 8.98599 4.40039 9.23839 4.40039 9.54974C4.40039 9.86109 4.65279 10.1135 4.96414 10.1135H5.47839L5.23076 11.2613C5.14878 11.6413 5.43837 12 5.82711 12C6.11459 12 6.36307 11.7993 6.42353 11.5182L6.72689 10.108H8.26139L8.01325 11.2615C7.93151 11.6415 8.2211 12 8.60974 12C8.8974 12 9.14599 11.7991 9.20632 11.5178L9.50989 10.1025H10.3101C10.6215 10.1025 10.8739 9.85009 10.8739 9.53874C10.8739 9.22739 10.6215 8.97499 10.3101 8.97499H9.75189L10.1039 7.31949H10.8574C11.1703 7.31949 11.4239 7.06586 11.4239 6.75299ZM8.50339 8.98049H6.96889L7.32089 7.32499H8.85539L8.50339 8.98049ZM4.31354 4.60696C4.5537 4.83529 4.56329 5.21507 4.33497 5.45522L1.72805 8.19722L4.33497 10.9392C4.56329 11.1794 4.5537 11.5592 4.31354 11.7875C4.07339 12.0158 3.69361 12.0062 3.46529 11.7661L0.465317 8.61064L0.0722656 8.19722L0.465317 7.7838L3.46529 4.62839C3.69361 4.38823 4.07339 4.37864 4.31354 4.60696ZM11.6867 11.7875C11.4466 11.5592 11.437 11.1794 11.6653 10.9393L14.2723 8.19728L11.6653 5.45528C11.437 5.21513 11.4466 4.83535 11.6867 4.60702C11.9269 4.3787 12.3067 4.38828 12.535 4.62844L15.535 7.78385L15.9281 8.19728L15.535 8.6107L12.535 11.7661C12.3067 12.0063 11.9269 12.0159 11.6867 11.7875Z" fill="#3574F0"/>
</svg>
