<svg width="16" height="16" viewBox="0 0 16 16" fill="none" xmlns="http://www.w3.org/2000/svg">
<path d="M3.3674 6.75618C3.14499 6.75618 2.92757 6.82213 2.74265 6.9457C2.55772 7.06926 2.41359 7.24489 2.32847 7.45037C2.24336 7.65585 2.22109 7.88195 2.26448 8.10009C2.30787 8.31822 2.41497 8.51859 2.57224 8.67586C2.72951 8.83313 2.92988 8.94023 3.14801 8.98362C3.36615 9.02701 3.59225 9.00474 3.79773 8.91963C4.00321 8.83451 4.17884 8.69038 4.3024 8.50546C4.42597 8.32053 4.49192 8.10311 4.49192 7.8807C4.49147 7.5826 4.37285 7.29683 4.16206 7.08604C3.95127 6.87525 3.6655 6.75663 3.3674 6.75618ZM8.23298 6.74544C8.01057 6.74544 7.79315 6.81139 7.60823 6.93496C7.4233 7.05852 7.27917 7.23415 7.19405 7.43963C7.10894 7.64511 7.08667 7.87121 7.13006 8.08935C7.17345 8.30748 7.28055 8.50785 7.43782 8.66512C7.59509 8.82239 7.79546 8.92949 8.01359 8.97288C8.23173 9.01627 8.45783 8.994 8.66331 8.90889C8.86879 8.82377 9.04442 8.67964 9.16798 8.49471C9.29155 8.30979 9.3575 8.09237 9.3575 7.86996C9.35705 7.57186 9.23843 7.28609 9.02764 7.0753C8.81685 6.86451 8.53108 6.74589 8.23298 6.74544ZM13.0799 6.74544C12.8575 6.74544 12.6401 6.81139 12.4551 6.93496C12.2702 7.05852 12.1261 7.23415 12.041 7.43963C11.9559 7.64511 11.9336 7.87121 11.977 8.08935C12.0204 8.30748 12.1275 8.50785 12.2847 8.66512C12.442 8.82239 12.6424 8.92949 12.8605 8.97288C13.0787 9.01627 13.3048 8.994 13.5102 8.90889C13.7157 8.82377 13.8913 8.67964 14.0149 8.49471C14.1385 8.30979 14.2044 8.09237 14.2044 7.86996C14.204 7.57186 14.0854 7.28609 13.8746 7.0753C13.6638 6.86451 13.378 6.74589 13.0799 6.74544ZM14.1354 9.38968C13.8599 9.58173 13.5372 9.69511 13.2021 9.71764C12.867 9.74017 12.532 9.67101 12.2333 9.51757C11.9345 9.36414 11.6831 9.13223 11.5062 8.84674C11.3292 8.56124 11.2333 8.23295 11.2289 7.8971L10.084 7.8807C10.0826 8.14651 10.0239 8.40888 9.912 8.64998C9.8001 8.89109 9.63759 9.10526 9.43551 9.27794C9.23344 9.45062 8.99654 9.57775 8.74094 9.65069C8.48534 9.72363 8.21702 9.74066 7.95425 9.70063C7.64631 10.186 7.27879 10.6308 6.86026 11.0247C6.22643 11.6312 5.4729 12.0986 4.64796 12.3969L4.49983 12.4495L4.36019 12.3777C3.33856 11.853 2.85178 10.742 3.16104 9.72042C2.99689 9.70208 2.83599 9.66157 2.68273 9.6C2.63241 9.70516 2.58153 9.81145 2.52895 9.91943C2.22478 10.5442 1.91044 11.1898 1.79397 11.8914C1.66846 12.6485 1.61871 14.0297 2.69856 14.7748C4.16853 15.7925 5.72952 15.0196 7.53531 14.1224C8.4399 13.6741 9.37107 13.2105 10.3345 12.973C10.6991 12.8831 11.0694 12.8294 11.433 12.7774C12.1063 12.6801 12.7418 12.5885 13.2727 12.281C13.5506 12.1229 13.7904 11.9057 13.9749 11.6446C14.1595 11.3835 14.2844 11.085 14.3407 10.7703C14.4199 10.3 14.348 9.81664 14.1354 9.38968ZM6.78959 0.726501L8.59482 6.05456C8.67589 6.07089 8.75578 6.09262 8.83397 6.11957L10.629 2.49046L12.4207 6.14106C12.4954 6.11258 12.5719 6.08897 12.6497 6.07039L14.4588 0.726501H6.78959Z" fill="#C63D14"/>
</svg>
