<svg width="16" height="16" viewBox="0 0 16 16" fill="none" xmlns="http://www.w3.org/2000/svg">
<path d="M1.7213 6.02906C1.45644 2.4062 3.23004 1.72041 3.23004 1.72041C3.20639 1.70622 3.4807 2.06567 3.4807 2.06567C3.49962 2.06094 2.17534 2.71835 2.71451 5.94393C2.54898 5.8919 1.83481 5.84461 1.7213 6.02906Z" fill="#8FC942" stroke="black" stroke-width="0.5"/>
<path d="M0.652694 9.65665C-0.364167 4.81829 4.00597 4.38789 4.67284 8.50263C5.21201 11.8323 6.80115 13.5869 12.0841 11.7566C13.1293 11.3829 19.3156 9.90259 11.9186 13.2984C4.65865 16.8551 0.652694 9.808 0.652694 9.65665Z" fill="#B62233" stroke="black" stroke-width="0.5"/>
<path d="M1.81592 5.34798L1.82538 5.96283C1.86321 5.92972 2.33144 5.80675 2.54427 5.83513C2.53954 5.83513 2.46387 5.26285 2.46387 5.26285L1.81592 5.34798Z" fill="#8FC942"/>
<path d="M4.76276 13.1943C3.64185 12.8727 0.950713 10.5552 0.936524 8.67283C1.06422 5.01686 2.92768 6.07629 1.7169 8.39851C0.893958 9.65185 3.24929 12.272 4.76276 13.1943Z" fill="#E79EA5"/>
<path d="M3.00318 7.76954C2.9417 7.14524 2.48766 7.1074 2.52077 7.81684C2.53496 8.59722 3.08832 8.62087 3.00791 7.81684C3.00791 7.81684 2.99845 7.77427 3.00318 7.76954Z" fill="black"/>
<path d="M3.8355 7.79793C3.77874 7.12633 3.31524 6.98444 3.38146 7.83577C3.41929 8.55939 3.88752 8.56412 3.8355 7.80266L3.8355 7.79793Z" fill="black"/>
<path d="M1.9815 8.88572C2.37878 10.5458 4.24697 10.3424 5.02735 10.2809C5.02262 10.3093 4.7152 8.93301 4.73412 8.82423C4.74357 8.96139 3.41929 9.01341 3.19227 9.04652C2.90377 9.10328 1.87745 8.65397 1.9815 8.88572Z" fill="black"/>
<path d="M1.96712 8.89514C2.03333 9.12689 1.89617 9.00392 2.79952 9.24986C3.20154 9.35391 3.46639 9.23094 4.33191 9.18365C4.32718 9.21202 4.28461 9.08432 4.26569 8.94717C4.18056 8.99446 3.41437 9.02757 3.15897 9.04176C2.86574 9.10324 1.9009 8.65866 1.96712 8.89514Z" fill="white"/>
<path d="M3.8782 9.35866L4.49304 9.3492L4.41264 9.13164L5.04167 9.05124L5.33491 10.1012L4.59236 10.1674C4.55453 10.1816 3.75996 9.3965 3.8782 9.35866Z" fill="white"/>
</svg>
