<svg width="16" height="16" viewBox="0 0 16 16" fill="none" xmlns="http://www.w3.org/2000/svg">
<rect x="2.5" y="2.5" width="11" height="11" rx="1.5" fill="#EBECF0" stroke="#6C707E"/>
<path d="M7.32559 9.03C7.32559 8.80334 7.36392 8.605 7.44059 8.435C7.52059 8.26167 7.61559 8.11501 7.72559 7.995C7.83892 7.87167 7.98559 7.73167 8.16559 7.575C8.32559 7.435 8.45059 7.31834 8.54059 7.225C8.63392 7.12834 8.71059 7.01667 8.77059 6.89C8.83392 6.76334 8.86559 6.62167 8.86559 6.465C8.86559 6.215 8.78892 6.01167 8.63559 5.855C8.48225 5.695 8.27892 5.615 8.02559 5.615C7.74559 5.615 7.52059 5.705 7.35059 5.885C7.18392 6.065 7.10225 6.3 7.10559 6.59H5.72559C5.72559 6.13 5.81892 5.735 6.00559 5.405C6.19225 5.07167 6.45892 4.81834 6.80559 4.645C7.15559 4.46834 7.56725 4.38 8.04059 4.38C8.49725 4.38 8.89392 4.46167 9.23059 4.625C9.56725 4.78834 9.82559 5.02 10.0056 5.32C10.1856 5.61667 10.2739 5.96667 10.2706 6.37C10.2706 6.67334 10.2223 6.935 10.1256 7.155C10.0289 7.37501 9.91392 7.55501 9.78059 7.695C9.64725 7.835 9.47225 7.99334 9.25559 8.17C9.10559 8.29 8.98725 8.39001 8.90059 8.47001C8.81725 8.55 8.74725 8.64167 8.69059 8.74501C8.63725 8.84501 8.61059 8.95667 8.61059 9.08V9.255H7.32559V9.03ZM8.74059 11.5H7.24059V10H8.74059V11.5Z" fill="#6C707E"/>
</svg>
