<svg width="16" height="16" viewBox="0 0 16 16" fill="none" xmlns="http://www.w3.org/2000/svg">
<path fill-rule="evenodd" clip-rule="evenodd" d="M9.05001 12C9.28164 10.8589 10.2905 10 11.5 10H13.5C13.7761 10 14 10.2239 14 10.5V11H15.5C15.7761 11 16 11.2239 16 11.5C16 11.7761 15.7761 12 15.5 12H14V14H15.5C15.7761 14 16 14.2239 16 14.5C16 14.7761 15.7761 15 15.5 15H14V15.5C14 15.7761 13.7761 16 13.5 16H11.5C10.2905 16 9.28164 15.1411 9.05001 14H8.5C8.22386 14 8 13.7761 8 13.5V12.5C8 12.2239 8.22386 12 8.5 12H9.05001ZM10 13.5V12.5C10 11.6716 10.6716 11 11.5 11H13V15H11.5C10.6716 15 10 14.3284 10 13.5Z" fill="#548AF7"/>
<path fill-rule="evenodd" clip-rule="evenodd" d="M11 2C10.4477 2 10 2.44772 10 3V4H5C4.44772 4 4 4.44772 4 5V7H2C1.44772 7 1 7.44772 1 8V13C1 13.5523 1.44772 14 2 14H7V13H2L2 8H7V12.5C7 11.8469 7.4174 11.2913 8 11.0854V8C8 7.44772 7.55228 7 7 7H5V5H10V6C10 6.55228 10.4477 7 11 7H14C14.5523 7 15 6.55228 15 6V3C15 2.44772 14.5523 2 14 2H11ZM14 3H11V6H14V3Z" fill="#CED0D6"/>
</svg>
