<svg width="16" height="16" viewBox="0 0 16 16" fill="none" xmlns="http://www.w3.org/2000/svg">
<path fill-rule="evenodd" clip-rule="evenodd" d="M3.79289 5.20711C3.60536 5.39464 3.5 5.649 3.5 5.91421V13.5C3.5 14.0523 3.94772 14.5 4.5 14.5H5H8.46776C8.16835 13.8975 8 13.2184 8 12.5C8 10.0147 10.0147 8 12.5 8V2.5C12.5 1.94772 12.0523 1.5 11.5 1.5H7.91421C7.649 1.5 7.39464 1.60536 7.20711 1.79289L3.79289 5.20711Z" fill="#43454A"/>
<path fill-rule="evenodd" clip-rule="evenodd" d="M6.85355 1.43934C7.13486 1.15803 7.51639 1 7.91421 1H11.5C12.3284 1 13 1.67157 13 2.5V8.02746C12.8358 8.00932 12.669 8 12.5 8C12.331 8 12.1642 8.00932 12 8.02746V2.5C12 2.22386 11.7761 2 11.5 2H8V4.5C8 5.32843 7.32843 6 6.5 6H4V13.5C4 13.7761 4.22386 14 4.5 14H8.25606C8.3819 14.356 8.55127 14.6915 8.75777 15H4.5C3.67157 15 3 14.3284 3 13.5V5.91421C3 5.51639 3.15804 5.13486 3.43934 4.85355L6.85355 1.43934ZM4.70711 5L7 2.70711V4.5C7 4.77614 6.77614 5 6.5 5H4.70711Z" fill="#CED0D6"/>
<path d="M12.5 15.5V9.5M9.90193 14L15.0981 11M15.0981 14L9.90192 11" stroke="#548AF7" stroke-linecap="round"/>
</svg>
