<svg width="16" height="16" viewBox="0 0 16 16" fill="none" xmlns="http://www.w3.org/2000/svg">
<path fill-rule="evenodd" clip-rule="evenodd" d="M10 6H6V8H5V6H2V8H1V4C1 2.89543 1.89543 2 3 2H13C14.1046 2 15 2.89543 15 4V8H14V6H11V8H10V6ZM5 3H3C2.44772 3 2 3.44772 2 4V5H5V3ZM6 5H10V3H6V5ZM11 5H14V4C14 3.44772 13.5523 3 13 3H11V5Z" fill="#6C707E"/>
<path d="M5 9H6V13H7V14H3C1.89543 14 1 13.1046 1 12V9H2V12C2 12.5523 2.44772 13 3 13H5V9Z" fill="#3574F0"/>
<path fill-rule="evenodd" clip-rule="evenodd" d="M9.05001 12C9.28164 10.8589 10.2905 10 11.5 10H13.5C13.7761 10 14 10.2239 14 10.5V11H15.5C15.7761 11 16 11.2239 16 11.5C16 11.7761 15.7761 12 15.5 12H14V14H15.5C15.7761 14 16 14.2239 16 14.5C16 14.7761 15.7761 15 15.5 15H14V15.5C14 15.7761 13.7761 16 13.5 16H11.5C10.2905 16 9.28164 15.1411 9.05001 14H8.5C8.22386 14 8 13.7761 8 13.5V12.5C8 12.2239 8.22386 12 8.5 12H9.05001ZM10 13.5V12.5C10 11.6716 10.6716 11 11.5 11H13V15H11.5C10.6716 15 10 14.3284 10 13.5Z" fill="#3574F0"/>
</svg>
