<svg width="14" height="14" viewBox="0 0 14 14" fill="none" xmlns="http://www.w3.org/2000/svg">
<path d="M10.2825 7C10.2825 11.375 7.43872 12.25 7.43872 12.25C7.43872 12.25 7.00122 11.8125 7.00122 10.5V0C7.00122 0 10.2825 2.625 10.2825 7Z" fill="#12924F"/>
<path d="M3.71997 7C3.71997 11.375 6.56372 12.25 6.56372 12.25C6.56372 12.25 7.00122 11.8125 7.00122 10.5V0C7.00122 0 3.71997 2.625 3.71997 7Z" fill="#10AA50"/>
<path d="M6.56372 12.25L6.78247 14H7.21997L7.43872 12.25C7.43872 12.25 7.00122 11.8125 7.00122 10.5C7.00122 11.8125 6.56372 12.25 6.56372 12.25Z" fill="#B8C4C2"/>
</svg>
