<svg width="14" height="14" viewBox="0 0 14 14" fill="none" xmlns="http://www.w3.org/2000/svg">
<path fill-rule="evenodd" clip-rule="evenodd" d="M12 9.94999C13.1411 9.71836 14 8.70948 14 7.5C14 6.11929 12.8807 5 11.5 5C10.1193 5 9 6.11929 9 7.5C9 8.70948 9.85888 9.71836 11 9.94999V14H12V13H14V12H12V9.94999ZM13 7.5C13 8.32843 12.3284 9 11.5 9C10.6716 9 10 8.32843 10 7.5C10 6.67157 10.6716 6 11.5 6C12.3284 6 13 6.67157 13 7.5Z" fill="#F2C55C"/>
<path d="M2.60505 7.85501C2.87005 8.08501 2.99755 8.39251 2.98755 8.77751L2.95755 10.57C2.95255 11.06 3.05755 11.4875 3.27255 11.8525C3.49255 12.2225 3.80255 12.505 4.20255 12.7C4.60755 12.9 5.07755 13 5.61255 13H6.5V11.995H5.62005C5.14505 11.995 4.76755 11.8625 4.48755 11.5975C4.21255 11.3375 4.08005 10.9875 4.09005 10.5475L4.12005 8.77001C4.13005 8.30501 3.99255 7.91001 3.70755 7.58501C3.42255 7.25501 3.03755 7.04501 2.55255 6.95501C3.03755 6.92001 3.42255 6.74251 3.70755 6.42251C3.99255 6.09751 4.13005 5.68001 4.12005 5.17001L4.09005 3.6025C4.08505 3.1125 4.23255 2.725 4.53255 2.44C4.83755 2.15 5.25005 2.005 5.77005 2.005H6.5V1H5.76255C5.18755 1 4.68755 1.105 4.26255 1.315C3.83755 1.525 3.51005 1.825 3.28005 2.215C3.05505 2.605 2.94755 3.06 2.95755 3.58L2.98755 5.16251C2.99755 5.54751 2.87005 5.85501 2.60505 6.08501C2.34005 6.31501 1.98255 6.43001 1.53255 6.43001H1V7.51001H1.53255C1.98255 7.51001 2.34005 7.62501 2.60505 7.85501Z" fill="#CED0D6"/>
<path d="M10 12.5871V10.6629C9.97056 10.6489 9.94135 10.6345 9.91237 10.6197C9.90666 11.026 9.77155 11.3519 9.50705 11.5975C9.23205 11.8625 8.85705 11.995 8.38205 11.995H7.5V13H8.38955C8.92455 13 9.39205 12.9 9.79205 12.7C9.8644 12.6652 9.93371 12.6275 10 12.5871Z" fill="#CED0D6"/>
<path d="M11.0445 3.58L11.036 4.03048C10.6303 4.08422 10.2465 4.20746 9.89702 4.38784L9.91205 3.6025C9.91705 3.1125 9.76705 2.725 9.46205 2.44C9.16205 2.15 8.75205 2.005 8.23205 2.005H7.5V1H8.23955C8.81455 1 9.31455 1.105 9.73955 1.315C10.1645 1.525 10.4895 1.825 10.7145 2.215C10.9445 2.605 11.0545 3.06 11.0445 3.58Z" fill="#CED0D6"/>
</svg>
