<svg width="16" height="16" viewBox="0 0 16 16" fill="none" xmlns="http://www.w3.org/2000/svg">
<circle cx="8" cy="8" r="6.5" fill="#45322B" stroke="#C77D55"/>
<path d="M8.16182 5C8.61415 5 9.01282 5.08242 9.35782 5.24725C9.70665 5.41208 9.9769 5.65358 10.1686 5.97175C10.3602 6.28608 10.4561 6.65792 10.4561 7.08725V11.026H9.42682V8.82375H9.69132C9.69132 9.31058 9.60507 9.73033 9.43257 10.083C9.2639 10.4318 9.02049 10.7002 8.70232 10.888C8.38415 11.072 8.00657 11.164 7.56957 11.164C7.19007 11.164 6.8489 11.0912 6.54607 10.9455C6.24707 10.7998 6.01132 10.5986 5.83882 10.3418C5.66632 10.0849 5.58007 9.79358 5.58007 9.46775C5.58007 9.15725 5.66057 8.87167 5.82157 8.611C5.98257 8.35033 6.2049 8.13758 6.48857 7.97275C6.77224 7.80408 7.09232 7.70058 7.44882 7.66225L9.01282 7.4955C9.13932 7.48017 9.23707 7.43033 9.30607 7.346C9.3789 7.25783 9.41532 7.1275 9.41532 6.955L9.48432 8.19125L7.63857 8.39825C7.45074 8.41742 7.28207 8.47108 7.13257 8.55925C6.9869 8.64742 6.87382 8.76433 6.79332 8.91C6.71282 9.05183 6.67257 9.209 6.67257 9.3815C6.67257 9.56933 6.7224 9.73608 6.82207 9.88175C6.92174 10.0274 7.05974 10.1405 7.23607 10.221C7.4124 10.3015 7.61557 10.3418 7.84557 10.3418C8.1599 10.3418 8.43399 10.2785 8.66782 10.152C8.90549 10.0255 9.08949 9.84725 9.21982 9.61725C9.35015 9.38725 9.41532 9.12275 9.41532 8.82375V6.9665C9.41532 6.748 9.36165 6.55633 9.25432 6.3915C9.14699 6.22283 8.99749 6.0925 8.80582 6.0005C8.61799 5.9085 8.39757 5.8625 8.14457 5.8625C7.8954 5.8625 7.66924 5.90658 7.46607 5.99475C7.26674 6.07908 7.10574 6.19408 6.98307 6.33975C6.86424 6.48158 6.7914 6.63683 6.76457 6.8055H5.71232C5.75832 6.4605 5.89057 6.15192 6.10907 5.87975C6.3314 5.60375 6.62082 5.38908 6.97732 5.23575C7.33382 5.07858 7.72865 5 8.16182 5Z" fill="#C77D55"/>
</svg>
