<svg width="16" height="16" viewBox="0 0 16 16" fill="none" xmlns="http://www.w3.org/2000/svg">
<path d="M11 9H15.5V9.945H12.01V12H15V12.945H12.01V16H11V9Z" fill="#3574F0"/>
<path fill-rule="evenodd" clip-rule="evenodd" d="M8 14C8.70127 14 9.37444 13.8797 10 13.6586V14.7101C9.36629 14.8987 8.69497 15 8 15C4.13401 15 1 11.866 1 8C1 4.13401 4.13401 1 8 1C11.866 1 15 4.13401 15 8H14C14 4.68629 11.3137 2 8 2C4.68629 2 2 4.68629 2 8C2 11.3137 4.68629 14 8 14Z" fill="#6C707E"/>
<path fill-rule="evenodd" clip-rule="evenodd" d="M7.9918 11C6.22951 11 5 9.64917 5 8.01657V8C5 6.3674 6.2459 5 8.0082 5C9.77049 5 11 6.35083 11 7.98343V8C11 9.6326 9.7541 11 7.9918 11ZM8.0082 10.0552C9.14754 10.0552 9.94262 9.14365 9.94262 8.01657V8C9.94262 6.87293 9.13115 5.94475 7.9918 5.94475C6.85246 5.94475 6.05738 6.85635 6.05738 7.98343V8C6.05738 9.12707 6.86885 10.0552 8.0082 10.0552Z" fill="#6C707E"/>
</svg>
