<svg width="16" height="16" viewBox="0 0 16 16" fill="none" xmlns="http://www.w3.org/2000/svg">
<path fill-rule="evenodd" clip-rule="evenodd" d="M9.70703 11.5H10.4999C10.7761 11.5 10.9999 11.7239 10.9999 12V15H12.9999V12C12.9999 11.7239 13.2238 11.5 13.4999 11.5H14.2928L11.9999 9.20715L9.70703 11.5Z" fill="#253627"/>
<path fill-rule="evenodd" clip-rule="evenodd" d="M11.6465 8.14645C11.8417 7.95118 12.1583 7.95118 12.3536 8.14645L15.8536 11.6464C15.9966 11.7894 16.0393 12.0045 15.962 12.1913C15.8846 12.3782 15.7022 12.5 15.5 12.5H14V15.5C14 15.7761 13.7761 16 13.5 16H10.5C10.2239 16 10 15.7761 10 15.5V12.5H8.50001C8.29778 12.5 8.11547 12.3782 8.03807 12.1913C7.96068 12.0045 8.00346 11.7894 8.14646 11.6464L11.6465 8.14645ZM9.70712 11.5H10.5C10.7761 11.5 11 11.7239 11 12V15H13V12C13 11.7239 13.2239 11.5 13.5 11.5H14.2929L12 9.20711L9.70712 11.5Z" fill="#57965C"/>
<path d="M8.34481 13.492C8.22993 13.4973 8.11496 13.5 8 13.5C4.5 13.5 1 11 0 8C1 5 4.5 2.5 8 2.5C11.5 2.5 15 5 16 8C15.8163 8.55103 15.5483 9.08518 15.2114 9.59008L14.4881 8.86671C14.6643 8.58383 14.8139 8.29378 14.934 8C14.4672 6.85823 13.555 5.77271 12.3664 4.94591C11.0721 4.04548 9.51792 3.5 8 3.5C6.48208 3.5 4.92792 4.04548 3.63356 4.94591C2.44503 5.77271 1.53283 6.85823 1.06602 8C1.53283 9.14177 2.44503 10.2273 3.63356 11.0541C4.66239 11.7698 5.85536 12.2613 7.0638 12.4328C7.07815 12.4803 7.09494 12.5275 7.11422 12.574C7.3264 13.0863 7.80149 13.4356 8.34481 13.492Z" fill="#CED0D6"/>
<path d="M10.9464 7.43239C10.6811 6.04694 9.4628 5 8 5C6.34315 5 5 6.34315 5 8C5 9.4628 6.04694 10.6811 7.4324 10.9464C7.43472 10.944 7.43704 10.9417 7.43938 10.9393L8.42369 9.95503C8.28713 9.98449 8.14537 10 8 10C6.89543 10 6 9.10457 6 8C6 6.89543 6.89543 6 8 6C9.10457 6 10 6.89543 10 8C10 8.14537 9.98449 8.28713 9.95503 8.42369L10.9394 7.43934C10.9417 7.43701 10.944 7.4347 10.9464 7.43239Z" fill="#CED0D6"/>
</svg>
