<svg width="16" height="16" viewBox="0 0 16 16" fill="none" xmlns="http://www.w3.org/2000/svg">
<circle cx="8" cy="8" r="6.5" fill="#EDF3FF" stroke="#3574F0"/>
<path d="M5.99902 4.98001H8.51882C8.92589 4.98001 9.28279 5.05454 9.58952 5.20361C9.89912 5.35268 10.1371 5.56481 10.3033 5.84001C10.4725 6.11521 10.557 6.43341 10.557 6.79461C10.557 7.15868 10.471 7.47831 10.299 7.75351C10.1299 8.02871 9.88909 8.24228 9.57662 8.39421C9.26416 8.54614 8.90009 8.62211 8.48442 8.62211H6.97942V11H5.99902V4.98001ZM8.47582 7.77501C8.68796 7.77501 8.87429 7.73631 9.03482 7.65891C9.19536 7.57864 9.31862 7.46541 9.40462 7.31921C9.49062 7.17014 9.53362 6.99671 9.53362 6.79891C9.53362 6.60111 9.49062 6.42911 9.40462 6.28291C9.31862 6.13671 9.19536 6.02491 9.03482 5.94751C8.87429 5.86724 8.68796 5.82711 8.47582 5.82711H6.97942V7.77501H8.47582Z" fill="#3574F0"/>
</svg>
