<svg width="16" height="16" viewBox="0 0 16 16" fill="none" xmlns="http://www.w3.org/2000/svg">
<path d="M14.4512 11.2524C13.7042 11.6418 9.83391 13.2331 9.00998 13.6626C8.18598 14.0924 7.72831 14.0882 7.07741 13.777C6.42652 13.4658 2.30793 11.8022 1.56603 11.4475C1.19518 11.2704 1.00024 11.1207 1.00024 10.9795V9.56436C1.00024 9.56436 6.3621 8.39709 7.22777 8.08652C8.09341 7.77598 8.39365 7.76477 9.1303 8.03465C9.86704 8.30452 14.2717 9.09919 14.9998 9.36584C14.9998 9.36584 14.9994 10.6297 14.9994 10.7609C14.9995 10.9008 14.8316 11.0544 14.4512 11.2524Z" fill="#A42122"/>
<path d="M14.4512 9.83667C13.7041 10.226 9.83385 11.8174 9.00992 12.2469C8.18592 12.6765 7.72825 12.6723 7.07735 12.3611C6.42637 12.0501 2.30788 10.3862 1.56597 10.0318C0.824055 9.67721 0.808512 9.43306 1.53732 9.14776C2.26605 8.86229 6.36204 7.25523 7.22779 6.94464C8.09335 6.63423 8.39368 6.62285 9.13032 6.8928C9.86704 7.16264 13.7141 8.69399 14.4422 8.96065C15.1703 9.22747 15.1983 9.44721 14.4512 9.83667Z" fill="#D82F27"/>
<path d="M14.4512 8.94457C13.7042 9.33402 9.83391 10.9253 9.00998 11.3549C8.18598 11.7844 7.72831 11.7803 7.07741 11.4691C6.42643 11.158 2.30793 9.49428 1.56603 9.1397C1.19518 8.96242 1.00024 8.81309 1.00024 8.6718V7.25646C1.00024 7.25646 6.3621 6.08926 7.22777 5.77867C8.09341 5.46817 8.39365 5.45688 9.1303 5.72675C9.86704 5.99659 14.2717 6.79118 14.9998 7.05787C14.9998 7.05787 14.9994 8.32172 14.9994 8.45305C14.9995 8.59288 14.8316 8.74638 14.4512 8.94457Z" fill="#A42122"/>
<path d="M14.4512 7.5292C13.7041 7.91861 9.83385 9.50988 9.00992 9.93952C8.18592 10.3692 7.72825 10.3648 7.07735 10.0538C6.42637 9.74279 2.30788 8.07882 1.56597 7.72433C0.824055 7.36979 0.808512 7.12572 1.53732 6.8402C2.26605 6.55491 6.36204 4.94781 7.22779 4.63731C8.09335 4.32681 8.39368 4.31552 9.13032 4.58539C9.86704 4.85522 13.7141 6.38642 14.4422 6.65316C15.1703 6.91998 15.1983 7.13978 14.4512 7.5292Z" fill="#D82F27"/>
<path d="M14.4512 6.55133C13.7042 6.94074 9.8339 8.5321 9.00997 8.96174C8.18598 9.39138 7.7283 9.38704 7.0774 9.07602C6.42643 8.76499 2.30793 7.10104 1.56603 6.74654C1.19518 6.56926 1.00024 6.4198 1.00024 6.27861V4.86335C1.00024 4.86335 6.3621 3.69613 7.22777 3.38564C8.09341 3.07505 8.39365 3.06384 9.1303 3.33371C9.86704 3.60354 14.2717 4.39813 14.9998 4.66483C14.9998 4.66483 14.9994 5.92869 14.9994 6.05992C14.9995 6.19968 14.8315 6.35314 14.4512 6.55133Z" fill="#A42122"/>
<path d="M14.4512 5.13608C13.7041 5.52549 9.83386 7.11684 9.00993 7.54645C8.18593 7.97598 7.72826 7.97175 7.07736 7.6607C6.42646 7.34958 2.30788 5.68584 1.56597 5.3313C0.824055 4.97675 0.808512 4.7326 1.53732 4.44717C2.26606 4.16174 6.36205 2.55485 7.22781 2.24427C8.09336 1.93368 8.39369 1.92248 9.13033 2.19239C9.86705 2.46227 13.7142 3.99347 14.4422 4.2602C15.1703 4.52682 15.1983 4.74674 14.4512 5.13608Z" fill="#D82F27"/>
<path d="M9.83476 3.77339L8.6217 3.89927L8.35008 4.55269L7.91145 3.82357L6.51074 3.69767L7.55591 3.32075L7.24237 2.74219L8.22084 3.12486L9.14345 2.82283L8.89406 3.42113L9.83476 3.77339Z" fill="white"/>
<path d="M8.27765 6.94323L6.01367 6.00422L9.25782 5.50635L8.27765 6.94323Z" fill="white"/>
<path d="M5.13821 5.48045C6.09583 5.48045 6.87213 5.17954 6.87213 4.80834C6.87213 4.43714 6.09583 4.13623 5.13821 4.13623C4.1806 4.13623 3.4043 4.43714 3.4043 4.80834C3.4043 5.17954 4.1806 5.48045 5.13821 5.48045Z" fill="white"/>
<path d="M11.2676 3.95166L13.1876 4.71044L11.2692 5.46839L11.2676 3.95166Z" fill="#791514"/>
<path d="M9.14355 4.79189L11.2676 3.95166L11.2693 5.46839L11.061 5.54984L9.14355 4.79189Z" fill="#AD2524"/>
</svg>
