<svg width="16" height="16" viewBox="0 0 16 16" fill="none" xmlns="http://www.w3.org/2000/svg">
<path fill-rule="evenodd" clip-rule="evenodd" d="M5 4C5 5.65685 6.34315 7 8 7C9.65685 7 11 5.65685 11 4H10C10 5.10457 9.10457 6 8 6C6.89543 6 6 5.10457 6 4H5Z" fill="#CED0D6"/>
<path fill-rule="evenodd" clip-rule="evenodd" d="M5 2V3H3.5C3.22386 3 3 3.22386 3 3.5C3 3.77614 3.22386 4 3.5 4H12.5C12.7761 4 13 3.77614 13 3.5C13 3.22386 12.7761 3 12.5 3H11V2C11 0.895431 10.1046 0 9 0H7C5.89543 0 5 0.895431 5 2ZM6 3V2C6 1.44772 6.44772 1 7 1H9C9.55228 1 10 1.44772 10 2V3H6Z" fill="#548AF7"/>
<path d="M4.99951 4C4.99951 5.65685 6.34266 7 7.99951 7C9.65637 7 10.9995 5.65685 10.9995 4H9.99951C9.99951 5.10457 9.10408 6 7.99951 6C6.89494 6 5.99951 5.10457 5.99951 4H4.99951Z" fill="#CED0D6"/>
<path fill-rule="evenodd" clip-rule="evenodd" d="M2.10272 13.008C2.39906 11.3034 3.54766 8 7.99969 8C12.4517 8 13.6003 11.3034 13.8967 13.008C13.9912 13.5521 13.552 14 12.9997 14H2.99969C2.4474 14 2.00813 13.5521 2.10272 13.008ZM12.8778 13C12.7281 12.2552 12.4081 11.2951 11.7438 10.5114C11.0591 9.70375 9.94134 9 7.99969 9C6.05804 9 4.94028 9.70375 4.25563 10.5114C3.59131 11.2951 3.27126 12.2552 3.12154 13H12.8778Z" fill="#CED0D6"/>
</svg>
