<svg width="16" height="16" viewBox="0 0 16 16" fill="none" xmlns="http://www.w3.org/2000/svg">
<g clip-path="url(#clip0_2617_35178)">
<path fill-rule="evenodd" clip-rule="evenodd" d="M9 9.50215C9 8.32441 10.2951 7.60608 11.2942 8.22967L15.2962 10.7275C16.2372 11.3149 16.2372 12.6851 15.2962 13.2725L11.2942 15.7703C10.2951 16.3939 9 15.6756 9 14.4978V9.50215ZM10.7647 9.07799C10.4317 8.87013 10 9.10957 10 9.50215V14.4978C10 14.8904 10.4317 15.1298 10.7647 14.922L14.7667 12.4241C15.0804 12.2284 15.0804 11.7716 14.7667 11.5758L10.7647 9.07799Z" fill="#208A3C"/>
<path d="M10 9.50214C10 9.10956 10.4317 8.87012 10.7647 9.07798L14.7667 11.5758C15.0804 11.7716 15.0804 12.2284 14.7667 12.4241L10.7647 14.922C10.4317 15.1298 10 14.8904 10 14.4978V9.50214Z" fill="#F2FCF3"/>
<path fill-rule="evenodd" clip-rule="evenodd" d="M2.01664 3.39246H2V12.5184H2.00263C2.03051 12.9621 2.2768 13.3344 2.59694 13.6237C2.9371 13.9312 3.40129 14.1852 3.93236 14.3882C4.99792 14.7956 6.43619 15.0371 8 15.0371V14.0371C6.52624 14.0371 5.21452 13.8078 4.28947 13.4542C3.82523 13.2767 3.48396 13.0775 3.2675 12.8819C3.05102 12.6862 3 12.5341 3 12.4343V10.985C3.27236 11.1599 3.58833 11.3128 3.93236 11.4444C4.99792 11.8518 6.43619 12.0932 8 12.0932V11.0932C6.52624 11.0932 5.21452 10.864 4.28947 10.5103C3.82523 10.3328 3.48396 10.1337 3.2675 9.93804C3.05102 9.74236 3 9.59029 3 9.49048V8.04112C3.27236 8.21609 3.58833 8.369 3.93236 8.50053C4.99792 8.90791 6.43619 9.14938 8 9.14938L8.02409 9.14933C8.07555 8.77573 8.20725 8.43659 8.3978 8.14377C8.26665 8.14748 8.134 8.14938 8 8.14938C6.52624 8.14938 5.21452 7.92013 4.28947 7.56647C3.82523 7.38898 3.48396 7.18985 3.2675 6.99419C3.05102 6.79851 3 6.64645 3 6.54663V5.09723C3.27236 5.27221 3.58833 5.42512 3.93236 5.55665C4.99792 5.96403 6.43619 6.2055 8 6.2055C9.56381 6.2055 11.0021 5.96403 12.0676 5.55665C12.4117 5.42512 12.7276 5.27221 13 5.09723V6.54663C13 6.64645 12.949 6.79851 12.7325 6.99419C12.5562 7.15359 12.297 7.3153 11.9559 7.46572L12.9392 8.0794C12.9597 8.06676 12.98 8.054 13 8.04112V8.11737L14 8.74152V3.39246H13.9834C13.9213 3.00405 13.6924 2.67483 13.4031 2.41334C13.0629 2.10586 12.5987 1.85189 12.0676 1.64885C11.0021 1.24147 9.56381 1 8 1C6.43619 1 4.99792 1.24147 3.93236 1.64885C3.40129 1.85189 2.9371 2.10586 2.59694 2.41334C2.30765 2.67483 2.07865 3.00405 2.01664 3.39246ZM3.2675 3.15519C3.05102 3.35087 3 3.50293 3 3.60275C3 3.70256 3.05102 3.85463 3.2675 4.05031C3.48396 4.24597 3.82523 4.4451 4.28947 4.62258C5.21452 4.97625 6.52624 5.2055 8 5.2055C9.47376 5.2055 10.7855 4.97625 11.7105 4.62258C12.1748 4.4451 12.516 4.24597 12.7325 4.05031C12.949 3.85463 13 3.70256 13 3.60275C13 3.50293 12.949 3.35087 12.7325 3.15519C12.516 2.95953 12.1748 2.7604 11.7105 2.58291C10.7855 2.22925 9.47376 2 8 2C6.52624 2 5.21452 2.22925 4.28947 2.58291C3.82523 2.7604 3.48396 2.95953 3.2675 3.15519Z" fill="#6C707E"/>
</g>
<defs>
<clipPath id="clip0_2617_35178">
<rect width="16" height="16" fill="white"/>
</clipPath>
</defs>
</svg>
