<svg width="16" height="16" viewBox="0 0 16 16" fill="none" xmlns="http://www.w3.org/2000/svg">
<path d="M2.7085 6.67775H1.29325V5.968H2.0625C2.241 5.968 2.39683 5.93117 2.53 5.8575C2.66317 5.781 2.76517 5.67475 2.836 5.53875C2.90683 5.39992 2.94225 5.237 2.94225 5.05H2.9465H3.567V11H2.7085V6.67775ZM5.27489 10.2945L7.70164 8.06325C7.93397 7.84792 8.10255 7.64108 8.20739 7.44275C8.31505 7.24158 8.36889 7.02908 8.36889 6.80525C8.36889 6.59275 8.32072 6.40433 8.22439 6.24C8.12805 6.07567 7.99205 5.94817 7.81639 5.8575C7.64355 5.76683 7.4438 5.7215 7.21714 5.7215C6.9763 5.7215 6.76097 5.77392 6.57114 5.87875C6.38414 5.98075 6.2368 6.12383 6.12914 6.308C6.0243 6.49217 5.97189 6.70325 5.97189 6.94125H5.10914C5.10914 6.56158 5.20122 6.22158 5.38539 5.92125C5.56955 5.61808 5.82314 5.38008 6.14614 5.20725C6.46914 5.03442 6.8318 4.948 7.23414 4.948C7.6138 4.948 7.95664 5.02592 8.26264 5.18175C8.57147 5.33758 8.8123 5.5515 8.98514 5.8235C9.1608 6.0955 9.24864 6.4015 9.24864 6.7415C9.24864 7.06733 9.16364 7.38183 8.99364 7.685C8.82364 7.98533 8.55589 8.30125 8.19039 8.63275L6.48189 10.218H9.41439V11H5.27489V10.2945ZM12.4296 11.102C12.0273 11.102 11.6646 11.0255 11.3416 10.8725C11.0186 10.7195 10.7622 10.507 10.5724 10.235C10.3825 9.96017 10.2819 9.6485 10.2706 9.3H11.1419C11.156 9.504 11.2212 9.68533 11.3374 9.844C11.4535 10.0027 11.6079 10.1273 11.8006 10.218C11.9933 10.3087 12.2058 10.354 12.4381 10.354C12.6874 10.354 12.9099 10.3044 13.1054 10.2052C13.3009 10.1032 13.4539 9.963 13.5644 9.7845C13.6749 9.60317 13.7301 9.40058 13.7301 9.17675C13.7301 8.94725 13.6734 8.74183 13.5601 8.5605C13.4496 8.37917 13.2952 8.2375 13.0969 8.1355C12.8985 8.0335 12.6733 7.9825 12.4211 7.9825H11.7369V7.31525L13.3476 5.79375H10.5979V5.05H14.3974V5.73L12.4296 7.5745V7.29825C12.8489 7.28975 13.2229 7.36483 13.5516 7.5235C13.8831 7.68217 14.1424 7.90742 14.3294 8.19925C14.5164 8.48825 14.6099 8.81975 14.6099 9.19375C14.6099 9.56208 14.5164 9.89075 14.3294 10.1797C14.1424 10.4687 13.8831 10.6954 13.5516 10.8598C13.2229 11.0213 12.8489 11.102 12.4296 11.102Z" fill="#CED0D6"/>
<path d="M1.5 2.5H14.5" stroke="#CED0D6" stroke-linecap="round"/>
<path d="M1.5 13.5H14.5" stroke="#CED0D6" stroke-linecap="round"/>
</svg>
