<svg width="16" height="16" viewBox="0 0 16 16" fill="none" xmlns="http://www.w3.org/2000/svg">
<g clip-path="url(#clip0_4641_49566)">
<path d="M1.12372 4.17075C1.30556 3.96294 1.62144 3.94188 1.82926 4.12372L6.2593 8.00001L1.82926 11.8763C1.62144 12.0581 1.30556 12.0371 1.12372 11.8293C0.941877 11.6214 0.962936 11.3056 1.17075 11.1237L4.74071 8.00001L1.17075 4.8763C0.962936 4.69445 0.941877 4.37857 1.12372 4.17075Z" fill="#6C707E"/>
<path d="M5.62372 4.17075C5.80556 3.96294 6.12144 3.94188 6.32926 4.12372L10.7593 8.00001L6.32926 11.8763C6.12144 12.0581 5.80556 12.0371 5.62372 11.8293C5.44188 11.6214 5.46294 11.3056 5.67075 11.1237L9.24071 8.00001L5.67075 4.8763C5.46294 4.69445 5.44188 4.37857 5.62372 4.17075Z" fill="#6C707E"/>
<path d="M10.1237 4.17075C10.3056 3.96294 10.6214 3.94188 10.8293 4.12372L15.2593 8.00001L12.3616 10.5355C12.0504 10.3397 11.7063 10.1915 11.3393 10.1012L13.7407 8.00001L10.1708 4.8763C9.96294 4.69445 9.94188 4.37857 10.1237 4.17075Z" fill="#6C707E"/>
<path fill-rule="evenodd" clip-rule="evenodd" d="M12.95 14C12.7184 15.1411 11.7095 16 10.5 16C9.11929 16 8 14.8807 8 13.5C8 12.1193 9.11929 11 10.5 11C11.7095 11 12.7184 11.8589 12.95 13L16 13L16 14L15 14L15 16L14 16L14 14L12.95 14ZM10.5 15C11.3284 15 12 14.3284 12 13.5C12 12.6716 11.3284 12 10.5 12C9.67157 12 9 12.6716 9 13.5C9 14.3284 9.67157 15 10.5 15Z" fill="#6C707E"/>
</g>
<defs>
<clipPath id="clip0_4641_49566">
<rect width="16" height="16" fill="white"/>
</clipPath>
</defs>
</svg>
