<svg width="16" height="16" viewBox="0 0 16 16" fill="none" xmlns="http://www.w3.org/2000/svg">
<path d="M12.245 9H13.34L16 16H14.95L14.31 14.22H11.345L10.75 16H9.67505L12.245 9ZM14.01 13.385L12.9 10.33L12.785 9.9L12.675 10.33L11.625 13.385H14.01Z" fill="#548AF7"/>
<path d="M4.46431 4.46444C2.51169 6.41706 2.51169 9.58288 4.46431 11.5355L4.63086 11.702V9.90916C4.63086 9.63301 4.85472 9.40916 5.13086 9.40916C5.407 9.40916 5.63086 9.63301 5.63086 9.90916L5.63086 13.4092L2.13086 13.4092C1.85472 13.4092 1.63086 13.1853 1.63086 12.9092C1.63086 12.633 1.85472 12.4092 2.13086 12.4092H3.92375L3.75721 12.2426C1.41406 9.89947 1.41406 6.10048 3.75721 3.75733C4.61045 2.90408 5.65811 2.36092 6.75797 2.12925C7.02818 2.07233 7.29337 2.24524 7.35029 2.51545C7.40721 2.78566 7.2343 3.05085 6.96409 3.10777C6.04824 3.30069 5.1763 3.75245 4.46431 4.46444Z" fill="#CED0D6"/>
<path d="M13.9999 7.99997H12.9999C12.9999 6.72035 12.5117 5.44072 11.5354 4.4644L11.3688 4.29781V6.09078C11.3688 6.36693 11.145 6.59078 10.8688 6.59078C10.5927 6.59078 10.3688 6.36693 10.3688 6.09078V2.59078L13.8688 2.59078C14.145 2.59079 14.3688 2.81464 14.3688 3.09078C14.3688 3.36693 14.145 3.59078 13.8688 3.59078H12.076L12.2425 3.75729C13.4141 4.92887 13.9999 6.46442 13.9999 7.99997Z" fill="#CED0D6"/>
</svg>
