<svg width="16" height="16" viewBox="0 0 16 16" fill="none" xmlns="http://www.w3.org/2000/svg">
<circle cx="8" cy="8" r="6.5" fill="#25324D" stroke="#548AF7"/>
<path d="M7.9302 8.405H9.0252L10.9252 11.5H9.7752L7.9302 8.405ZM5.7002 4.5H8.5852C9.04853 4.5 9.45353 4.58667 9.8002 4.76C10.1502 4.93 10.4202 5.17167 10.6102 5.485C10.8002 5.795 10.8952 6.15833 10.8952 6.575C10.8952 6.98833 10.7985 7.35333 10.6052 7.67C10.4119 7.98667 10.1385 8.23167 9.7852 8.405C9.43186 8.575 9.01853 8.66 8.5452 8.66H6.7002V11.5H5.7002V4.5ZM8.5602 7.77C8.8202 7.77 9.04686 7.72167 9.2402 7.625C9.43353 7.52833 9.58353 7.39 9.6902 7.21C9.79686 7.03 9.8502 6.81833 9.8502 6.575C9.8502 6.335 9.79686 6.12667 9.6902 5.95C9.58353 5.77 9.43353 5.63167 9.2402 5.535C9.04686 5.43833 8.8202 5.39 8.5602 5.39H6.7002V7.77H8.5602Z" fill="#548AF7"/>
</svg>
