<svg width="16" height="16" viewBox="0 0 16 16" fill="none" xmlns="http://www.w3.org/2000/svg">
<path d="M1 3.86667C1 2.83574 1.7835 2 2.75 2H6.03823C6.29871 2 6.5489 2.10163 6.73559 2.28327L8.5 4L13 4C14.1046 4 15 4.89543 15 6V10H9C8.44772 10 8 10.4477 8 11V14H2.75C1.7835 14 1 13.1643 1 12.1333V3.86667Z" fill="#EBECF0"/>
<path d="M8.09379 5H13C13.5523 5 14 5.44772 14 6V10H15V6C15 4.89543 14.1046 4 13 4L8.5 4L6.73559 2.28327C6.5489 2.10163 6.29871 2 6.03823 2H2.75C1.7835 2 1 2.83574 1 3.86667V12.1333C1 13.1643 1.7835 14 2.75 14H8V13H2.75C2.3956 13 2 12.6738 2 12.1333V3.86667C2 3.32624 2.3956 3 2.75 3H6.03823L8.09379 5Z" fill="#6C707E"/>
<path fill-rule="evenodd" clip-rule="evenodd" d="M9 11.5C9 11.2239 9.22386 11 9.5 11H15.5C15.7761 11 16 11.2239 16 11.5C16 11.7761 15.7761 12 15.5 12H9.5C9.22386 12 9 11.7761 9 11.5ZM9 13.5C9 13.2239 9.22386 13 9.5 13H15.5C15.7761 13 16 13.2239 16 13.5C16 13.7761 15.7761 14 15.5 14H9.5C9.22386 14 9 13.7761 9 13.5ZM9 15.5C9 15.2239 9.22386 15 9.5 15H15.5C15.7761 15 16 15.2239 16 15.5C16 15.7761 15.7761 16 15.5 16H9.5C9.22386 16 9 15.7761 9 15.5Z" fill="#E66D17"/>
</svg>
