<svg width="16" height="16" viewBox="0 0 16 16" fill="none" xmlns="http://www.w3.org/2000/svg">
<path d="M14.4639 10.6915C14.8093 9.8629 15 8.95372 15 8C15 4.13401 11.866 1 8 1C4.13401 1 1 4.13401 1 8C1 11.6622 3.81225 14.6675 7.39498 14.9742L12.0001 5.76395L14.4639 10.6915Z" fill="#25324D"/>
<path fill-rule="evenodd" clip-rule="evenodd" d="M10.0388 9.6847L9.20842 11.3454C8.86523 11.4485 8.48369 11.5 8.06381 11.5C7.43695 11.5 6.8732 11.3498 6.37258 11.0494C5.87196 10.7491 5.48017 10.3333 5.19721 9.80224C4.9186 9.26679 4.7793 8.66169 4.7793 7.98694C4.7793 7.3296 4.92078 6.73539 5.20374 6.20429C5.49105 5.6732 5.88502 5.25746 6.38564 4.95709C6.88626 4.65236 7.44565 4.5 8.06381 4.5C8.69503 4.5 9.24789 4.65019 9.72239 4.95056C10.2012 5.25093 10.5691 5.66667 10.8259 6.19776C11.0068 6.56545 11.125 6.96653 11.1806 7.401L10.7538 8.25466H5.84389C5.8773 8.64561 5.97299 9.00257 6.13098 9.32556C6.33122 9.7217 6.60548 10.0308 6.95374 10.2528C7.302 10.4748 7.69379 10.5858 8.12911 10.5858C8.42078 10.5858 8.69068 10.551 8.93881 10.4813C9.1913 10.4073 9.40896 10.3029 9.5918 10.1679C9.77899 10.0286 9.92264 9.86754 10.0228 9.6847H10.0388ZM5.87118 7.39272H10.133C10.0941 7.11942 10.0269 6.86911 9.93135 6.64179C9.77028 6.25435 9.53085 5.95398 9.21307 5.74067C8.89963 5.52736 8.5209 5.42071 8.07687 5.42071C7.63284 5.42071 7.24105 5.52519 6.9015 5.73414C6.56195 5.93874 6.29858 6.23259 6.11139 6.61567C5.99535 6.85044 5.91528 7.10945 5.87118 7.39272Z" fill="#548AF7"/>
<path d="M13.83 9.42381C13.9411 8.96741 14 8.49058 14 8C14 4.68629 11.3137 2 8 2C4.68629 2 2 4.68629 2 8C2 11.2745 4.6231 13.9363 7.88265 13.9989L7.39498 14.9742C3.81225 14.6675 1 11.6622 1 8C1 4.13401 4.13401 1 8 1C11.866 1 15 4.13401 15 8C15 8.95372 14.8093 9.8629 14.4639 10.6915L13.83 9.42381Z" fill="#548AF7"/>
<path d="M12 8L12.4159 12.0799L10.6387 13.6576L10.6333 13.6552L8 16L12 8Z" fill="url(#paint0_linear_5148_55591)"/>
<path fill-rule="evenodd" clip-rule="evenodd" d="M10.6333 13.6552L16 16H8L10.6333 13.6552Z" fill="url(#paint1_linear_5148_55591)"/>
<path fill-rule="evenodd" clip-rule="evenodd" d="M12 8L16 16L12.6667 14.5391L12 8Z" fill="url(#paint2_linear_5148_55591)"/>
<defs>
<linearGradient id="paint0_linear_5148_55591" x1="9.90575" y1="4.80754" x2="3.59968" y2="8.51456" gradientUnits="userSpaceOnUse">
<stop stop-color="#7777E9"/>
<stop offset="1" stop-color="#01009A"/>
</linearGradient>
<linearGradient id="paint1_linear_5148_55591" x1="17.6001" y1="15.019" x2="15.3537" y2="11.3546" gradientUnits="userSpaceOnUse">
<stop stop-color="#01B202"/>
<stop offset="1" stop-color="#0FE90F"/>
</linearGradient>
<linearGradient id="paint2_linear_5148_55591" x1="10.055" y1="12.2199" x2="16.3497" y2="15.2808" gradientUnits="userSpaceOnUse">
<stop stop-color="#B83535"/>
<stop offset="1" stop-color="#FD5B5A"/>
</linearGradient>
</defs>
</svg>
