<svg width="16" height="16" viewBox="0 0 16 16" fill="none" xmlns="http://www.w3.org/2000/svg">
<path fill-rule="evenodd" clip-rule="evenodd" d="M15.3798 12.7117C15.5435 12.8691 15.5436 13.131 15.3799 13.2884L12.6774 15.8876C12.4232 16.132 12 15.9519 12 15.5993L12 10.4038C12 10.0513 12.423 9.87118 12.6772 10.1154L15.3798 12.7117Z" fill="#57965C"/>
<path fill-rule="evenodd" clip-rule="evenodd" d="M7.62255 13.2883C7.45909 13.1309 7.45916 12.8692 7.62271 12.7119L10.3216 10.1163C10.5757 9.87185 10.9989 10.0519 10.9989 10.4045V15.5986C10.9989 15.9514 10.5755 16.1314 10.3214 15.8868L7.62255 13.2883Z" fill="#DB5C5C"/>
<path fill-rule="evenodd" clip-rule="evenodd" d="M6.93723 4.16649C6.5819 3.98883 6.1399 3.89999 5.61123 3.89999H3.92773V13H5.68923C5.98544 13 6.25649 12.9742 6.50238 12.9227C6.52112 12.5821 6.66359 12.2471 6.92977 11.9911L8.24357 10.7276C8.24801 10.6465 8.25023 10.5633 8.25023 10.478C8.25023 9.96233 8.17223 9.53116 8.01623 9.18449C7.86023 8.83783 7.62623 8.57783 7.31423 8.40449C7.19432 8.33694 7.06255 8.28254 6.91894 8.24132C7.01365 8.20941 7.10208 8.17064 7.18423 8.12499C7.46157 7.96899 7.66957 7.73716 7.80823 7.42949C7.9469 7.12183 8.01623 6.73833 8.01623 6.27899C8.01623 5.75033 7.92523 5.31049 7.74323 4.95949C7.56557 4.60416 7.2969 4.33983 6.93723 4.16649ZM5.12373 11.9405V8.86599H5.64373C5.94273 8.86599 6.1919 8.92233 6.39123 9.03499C6.59057 9.14766 6.74007 9.31883 6.83973 9.54849C6.9394 9.77816 6.98923 10.0663 6.98923 10.413C6.98923 10.9287 6.87657 11.3122 6.65123 11.5635C6.43023 11.8148 6.0944 11.9405 5.64373 11.9405H5.12373ZM6.45623 7.47499C6.2569 7.71333 5.96007 7.83249 5.56573 7.83249H5.12373V4.95949H5.56573C5.96007 4.95949 6.2569 5.07866 6.45623 5.31699C6.6599 5.55533 6.76173 5.91499 6.76173 6.39599C6.76173 6.87699 6.6599 7.23666 6.45623 7.47499Z" fill="#CED0D6"/>
<path d="M11.3057 9.19553C10.9459 8.98712 10.4974 8.93567 10.0902 9.09633V5.02449H8.60174V3.89999H12.7942V5.02449H11.3057V9.19553Z" fill="#CED0D6"/>
</svg>
