<svg width="17" height="16" viewBox="0 0 17 16" fill="none" xmlns="http://www.w3.org/2000/svg">
<path d="M11 16H16.02L16.03 15H12V13H15.51L15.5 12H11.99V10H16.02V9H11V16Z" fill="#548AF7"/>
<path d="M4 2C2.89543 2 2 2.89543 2 4V12C2 13.1046 2.89543 14 4 14H10V8H14V4C14 2.89543 13.1046 2 12 2H4Z" fill="#25324D"/>
<path d="M4 3H12C12.5523 3 13 3.44772 13 4V8H14V4C14 2.89543 13.1046 2 12 2H4C2.89543 2 2 2.89543 2 4V12C2 13.1046 2.89543 14 4 14H10V13H4C3.44772 13 3 12.5523 3 12V4C3 3.44772 3.44772 3 4 3Z" fill="#548AF7"/>
<path fill-rule="evenodd" clip-rule="evenodd" d="M8.53244 4.97998H7.47034L5.27734 11H6.30074L6.79094 9.51648H9.26774L9.79664 11H9.99951V8.87731L8.53244 4.97998ZM8.08954 6.22268L8.99254 8.72958H7.04464L7.90034 6.22268L7.99494 5.84858L8.08954 6.22268Z" fill="#548AF7"/>
</svg>
