<svg width="16" height="16" viewBox="0 0 16 16" fill="none" xmlns="http://www.w3.org/2000/svg">
<rect x="2.5" y="2.5" width="11" height="11" rx="5.5" fill="#FFF7F7" stroke="#DB3B4B"/>
<path d="M6 4.97998H8.5198C8.92687 4.97998 9.28377 5.05427 9.5905 5.20284C9.9001 5.35141 10.138 5.56284 10.3043 5.83712C10.4734 6.11141 10.558 6.42855 10.558 6.78855C10.558 7.15141 10.472 7.46998 10.3 7.74427C10.1309 8.01855 9.89007 8.23141 9.5776 8.38284C9.26513 8.53427 8.90107 8.60998 8.4854 8.60998H6.9804V10.98H6V4.97998ZM8.4768 7.76569C8.68893 7.76569 8.87527 7.72712 9.0358 7.64998C9.19633 7.56998 9.3196 7.45712 9.4056 7.31141C9.4916 7.16284 9.5346 6.98998 9.5346 6.79284C9.5346 6.59569 9.4916 6.42427 9.4056 6.27855C9.3196 6.13284 9.19633 6.02141 9.0358 5.94427C8.87527 5.86427 8.68893 5.82427 8.4768 5.82427H6.9804V7.76569H8.4768Z" fill="#DB3B4B"/>
</svg>
