<svg width="16" height="16" viewBox="0 0 16 16" fill="none" xmlns="http://www.w3.org/2000/svg">
<rect x="2.5" y="2.5" width="11" height="11" rx="1.5" fill="#FFF7F7" stroke="#DB3B4B"/>
<path fill-rule="evenodd" clip-rule="evenodd" d="M7.9918 11C6.22951 11 5 9.64917 5 8.01657V8C5 6.3674 6.2459 5 8.0082 5C9.77049 5 11 6.35083 11 7.98343V8C11 9.6326 9.7541 11 7.9918 11ZM8.00746 10.0553C9.1468 10.0553 9.94189 9.14366 9.94189 8.01659V8.00001C9.94189 6.87294 9.13041 5.94476 7.99107 5.94476C6.85172 5.94476 6.05664 6.85637 6.05664 7.98344V8.00001C6.05664 9.12708 6.86812 10.0553 8.00746 10.0553Z" fill="#DB3B4B"/>
</svg>
