<svg width="16" height="16" viewBox="0 0 16 16" fill="none" xmlns="http://www.w3.org/2000/svg">
<g clip-path="url(#clip0_4897_51127)">
<path fill-rule="evenodd" clip-rule="evenodd" d="M2.01664 3.39246H2V12.5184H2.00263C2.03051 12.9621 2.2768 13.3344 2.59694 13.6237C2.9371 13.9312 3.40129 14.1852 3.93236 14.3882C4.99792 14.7956 6.43619 15.0371 8 15.0371C8.00938 15.0371 8.01875 15.0371 8.02812 15.037C7.7907 14.7268 7.58852 14.3876 7.4279 14.0254C6.18817 13.9747 5.09295 13.7613 4.28947 13.4542C3.82523 13.2767 3.48396 13.0775 3.2675 12.8819C3.05102 12.6862 3 12.5341 3 12.4343V10.985C3.27236 11.1599 3.58833 11.3128 3.93236 11.4444C4.78969 11.7722 5.88831 11.9925 7.09946 12.0661C7.16067 11.864 7.26381 11.678 7.40012 11.5199C7.27778 11.3881 7.17886 11.2342 7.10999 11.0648C6.00115 10.9933 5.02355 10.791 4.28947 10.5103C3.82523 10.3328 3.48396 10.1337 3.2675 9.93804C3.05102 9.74236 3 9.59029 3 9.49048V8.04112C3.27236 8.21609 3.58833 8.369 3.93236 8.50053C4.76617 8.81931 5.82819 9.0365 7 9.11589V8.5C7 8.36761 7.01715 8.23922 7.04936 8.11694C5.96552 8.04201 5.01014 7.84199 4.28947 7.56647C3.82523 7.38898 3.48396 7.18985 3.2675 6.99419C3.05102 6.79851 3 6.64645 3 6.54663V5.09723C3.27236 5.27221 3.58833 5.42512 3.93236 5.55665C4.99792 5.96403 6.43619 6.2055 8 6.2055C9.56381 6.2055 11.0021 5.96403 12.0676 5.55665C12.4117 5.42512 12.7276 5.27221 13 5.09723V6.54663C13 6.64645 12.949 6.79851 12.7325 6.99419C12.7138 7.01113 12.6941 7.02809 12.6735 7.04506C13.1389 7.10784 13.5842 7.23474 14 7.41638V3.39246H13.9834C13.9213 3.00405 13.6924 2.67483 13.4031 2.41334C13.0629 2.10586 12.5987 1.85189 12.0676 1.64885C11.0021 1.24147 9.56381 1 8 1C6.43619 1 4.99792 1.24147 3.93236 1.64885C3.40129 1.85189 2.9371 2.10586 2.59694 2.41334C2.30765 2.67483 2.07865 3.00405 2.01664 3.39246ZM3.2675 3.15519C3.05102 3.35087 3 3.50293 3 3.60275C3 3.70256 3.05102 3.85463 3.2675 4.05031C3.48396 4.24597 3.82523 4.4451 4.28947 4.62258C5.21452 4.97625 6.52624 5.2055 8 5.2055C9.47376 5.2055 10.7855 4.97625 11.7105 4.62258C12.1748 4.4451 12.516 4.24597 12.7325 4.05031C12.949 3.85463 13 3.70256 13 3.60275C13 3.50293 12.949 3.35087 12.7325 3.15519C12.516 2.95953 12.1748 2.7604 11.7105 2.58291C10.7855 2.22925 9.47376 2 8 2C6.52624 2 5.21452 2.22925 4.28947 2.58291C3.82523 2.7604 3.48396 2.95953 3.2675 3.15519Z" fill="#6C707E"/>
<path d="M8.5 8C8.77614 8 9 8.22386 9 8.5V9.326L9.181 9.16238C9.90358 8.44447 10.9005 8 12.0002 8C13.1046 8 14.1053 8.44826 14.8286 9.17157C15.1887 9.5316 15.4806 9.96029 15.6831 10.4368C15.8159 10.7493 15.9101 11.0822 15.9597 11.4292C15.9988 11.7026 15.8089 11.9559 15.5356 11.995C15.2622 12.0341 15.0089 11.8442 14.9698 11.5708C14.9326 11.3108 14.8621 11.0617 14.7627 10.8279C14.6111 10.4711 14.3922 10.1493 14.1215 9.87868C13.5781 9.33524 12.8288 9 12.0002 9C11.1716 9 10.4223 9.33524 9.87888 9.87868L9.86997 9.88759L9.74562 10H10.5C10.7761 10 11 10.2239 11 10.5C11 10.7761 10.7761 11 10.5 11H8.5C8.22386 11 8 10.7761 8 10.5V8.5C8 8.22386 8.22386 8 8.5 8Z" fill="#3574F0"/>
<path d="M8.46491 12.005C8.73827 11.9659 8.99157 12.1558 9.03067 12.4292C9.12449 13.0851 9.43079 13.6732 9.87894 14.1213C10.4224 14.6648 11.1717 15 12.0003 15C12.8288 15 13.5781 14.6648 14.1216 14.1213L14.1305 14.1124L14.2487 14H13.5C13.2239 14 13 13.7761 13 13.5C13 13.2239 13.2239 13 13.5 13H15.5C15.7761 13 16 13.2239 16 13.5V15.5C16 15.7761 15.7761 16 15.5 16C15.2239 16 15 15.7761 15 15.5V14.6657L14.8241 14.833C14.1011 15.5536 13.1024 16 12.0003 16C10.8958 16 9.89515 15.5517 9.17184 14.8284C8.57574 14.2323 8.16618 13.4477 8.04075 12.5708C8.00165 12.2974 8.19155 12.0441 8.46491 12.005Z" fill="#3574F0"/>
</g>
<defs>
<clipPath id="clip0_4897_51127">
<rect width="16" height="16" fill="white"/>
</clipPath>
</defs>
</svg>
