<svg width="16" height="16" viewBox="0 0 16 16" fill="none" xmlns="http://www.w3.org/2000/svg">
<path d="M7.99985 0.519653L8.76765 7.90495L5.48661 10.7609L5.47677 10.7567L0.615234 15.0011L7.99985 0.519653Z" fill="url(#paint0_linear_4897_51326)"/>
<path d="M12.3263 9.00359L8 0.519623L8.98711 10.0132L9.62937 9.39554C10.1907 8.85569 10.9879 8.90752 11.4995 9.32964C11.7323 9.1373 12.0242 9.02165 12.3263 9.00359Z" fill="url(#paint1_linear_4897_51326)"/>
<path d="M7.9605 15.0011L6.9297 14.0086C6.35752 13.4577 6.35778 12.5417 6.93026 11.9911L7.37037 11.5679L5.47677 10.7567L0.615234 15.0011H7.9605Z" fill="url(#paint2_linear_4897_51326)"/>
<path fill-rule="evenodd" clip-rule="evenodd" d="M15.3798 12.7117C15.5435 12.8691 15.5436 13.131 15.3799 13.2884L12.6774 15.8876C12.4232 16.132 12 15.9519 12 15.5993L12 10.4038C12 10.0513 12.423 9.87118 12.6772 10.1154L15.3798 12.7117Z" fill="#57965C"/>
<path fill-rule="evenodd" clip-rule="evenodd" d="M7.62255 13.2883C7.45909 13.1309 7.45916 12.8692 7.62271 12.7119L10.3216 10.1163C10.5757 9.87185 10.9989 10.0519 10.9989 10.4045V15.5986C10.9989 15.9514 10.5755 16.1314 10.3214 15.8868L7.62255 13.2883Z" fill="#DB5C5C"/>
<defs>
<linearGradient id="paint0_linear_4897_51326" x1="4.13355" y1="-5.25929" x2="-7.38965" y2="1.64922" gradientUnits="userSpaceOnUse">
<stop stop-color="#7777E9"/>
<stop offset="1" stop-color="#01009A"/>
</linearGradient>
<linearGradient id="paint1_linear_4897_51326" x1="4.4092" y1="8.15849" x2="15.9417" y2="13.8777" gradientUnits="userSpaceOnUse">
<stop stop-color="#B83535"/>
<stop offset="1" stop-color="#FD5B5A"/>
</linearGradient>
<linearGradient id="paint2_linear_4897_51326" x1="18.3386" y1="13.2254" x2="14.3088" y2="6.52139" gradientUnits="userSpaceOnUse">
<stop stop-color="#01B202"/>
<stop offset="1" stop-color="#0FE90F"/>
</linearGradient>
</defs>
</svg>
