<svg width="16" height="16" viewBox="0 0 16 16" fill="none" xmlns="http://www.w3.org/2000/svg">
<path d="M1 7.15088C1 7.15088 3.59552 4.59221 6.59595 4.34935H6.59437C6.68218 4.34211 6.77055 4.33655 6.85892 4.33321C6.9062 4.33161 6.95317 4.33056 7 4.33011L7.00009 5.06455C6.95411 5.06441 6.90773 5.06509 6.86113 5.06657C6.77166 5.06936 6.68384 5.07436 6.59658 5.08048L6.59649 5.07933C3.88855 5.2891 2.53264 7.30501 2.53264 7.30501C2.53264 7.30501 3.56919 10.6659 6.59594 11.0485L6.59658 11.051C6.73054 11.0683 6.86518 11.0796 7.00009 11.0848L7 11.856C6.86286 11.8508 6.72903 11.8409 6.59768 11.8282L6.59658 11.8276C2.47087 11.4354 1 7.15088 1 7.15088Z" fill="#55A76A"/>
<path d="M7.00009 10.2668C7.09383 10.2735 7.18783 10.2769 7.2819 10.2769C9.94068 10.2769 12.4923 7.1509 12.4923 7.1509C12.4923 7.1509 10.33 4.29824 7 4.33011V3H16V13H7V11.856C7.06751 11.8585 7.13591 11.8599 7.20513 11.8599C9.38175 11.8599 13.2203 10.742 14.8678 9.35099C14.7333 9.21365 14.3102 8.97845 13.9115 8.75688C13.5931 8.57989 13.2904 8.4116 13.1628 8.30881C11.4302 9.8156 9.64078 11.0881 7.16702 11.0881C7.11132 11.0881 7.05572 11.087 7.00009 11.0848V10.2668Z" fill="#55A76A"/>
<path fill-rule="evenodd" clip-rule="evenodd" d="M7.00009 5.95599C6.86526 5.95935 6.73063 5.9689 6.59658 5.98411C4.77177 6.18498 3.6731 7.40906 3.6731 7.40906C3.6731 7.40906 4.30838 9.80506 6.59437 10.2168L6.59602 10.2163C6.72979 10.2401 6.86472 10.257 7.00009 10.2668V9.59977C7.10649 9.61468 7.21389 9.62191 7.32166 9.62141C9.18458 9.62141 10.9221 7.18929 10.9221 7.18929C10.9221 7.18929 9.3739 5.07159 7.00009 5.06455V5.95599ZM7 6.84546L7.00009 9.59977C6.8632 9.5806 6.72812 9.54822 6.59658 9.50403C5.30805 9.06502 4.88761 7.5504 4.88761 7.5504C4.88761 7.5504 5.63557 6.64904 6.59326 6.7631L6.59658 6.76533C6.74893 6.78388 6.88185 6.81028 7 6.84546ZM7 6.84546C7.5754 7.0168 7.8003 7.3963 8.21214 8.09127C8.24572 8.14794 8.28055 8.20671 8.31691 8.26764L9.59384 7.1854C9.59384 7.1854 8.6621 5.9546 7.09135 5.9546C7.06089 5.95475 7.03053 5.95523 7.00009 5.95599L7 6.84546Z" fill="#55A76A"/>
</svg>
