<svg width="16" height="16" viewBox="0 0 16 16" fill="none" xmlns="http://www.w3.org/2000/svg">
<path fill-rule="evenodd" clip-rule="evenodd" d="M3 13.01H13C13.5523 13.01 14 12.5623 14 12.01V6.01001C14 5.45773 13.5523 5.01001 13 5.01001H3C2.44772 5.01001 2 5.45773 2 6.01001V12.01C2 12.5623 2.44772 13.01 3 13.01ZM3 14.01H13C14.1046 14.01 15 13.1146 15 12.01V6.01001C15 4.90544 14.1046 4.01001 13 4.01001H3C1.89543 4.01001 1 4.90544 1 6.01001V12.01C1 13.1146 1.89543 14.01 3 14.01Z" fill="#CED0D6"/>
<path fill-rule="evenodd" clip-rule="evenodd" d="M7 2.01001C6.44772 2.01001 6 2.45773 6 3.01001V4.01001H5V3.01001C5 1.90544 5.89543 1.01001 7 1.01001H9C10.1046 1.01001 11 1.90544 11 3.01001V4.01001H10V3.01001C10 2.45773 9.55228 2.01001 9 2.01001H7Z" fill="#CED0D6"/>
<path fill-rule="evenodd" clip-rule="evenodd" d="M14 8.01001H2V7.01001H14V8.01001Z" fill="#CED0D6"/>
<path fill-rule="evenodd" clip-rule="evenodd" d="M6 8.51001V8.01001H7V8.51001C7 8.78615 7.22386 9.01001 7.5 9.01001H8.5C8.77614 9.01001 9 8.78615 9 8.51001V8.01001H10V8.51001C10 9.33844 9.32843 10.01 8.5 10.01H7.5C6.67157 10.01 6 9.33844 6 8.51001Z" fill="#CED0D6"/>
</svg>
