<svg width="16" height="16" viewBox="0 0 16 16" fill="none" xmlns="http://www.w3.org/2000/svg">
<path d="M4.69385 6.88495C5.17029 5.47068 6.52962 4.45472 8.13987 4.45472C9.005 4.45472 9.7864 4.75474 10.4004 5.24569L12.1864 3.50011C11.098 2.57277 9.70268 2 8.13987 2C5.71366 2 3.62756 3.35735 2.62891 5.34166L4.69385 6.88495Z" fill="#EA4335"/>
<path d="M2.62863 10.6592L4.69358 9.11594C4.5755 8.76544 4.51165 8.39047 4.51165 8.00045C4.51165 7.61042 4.5755 7.23546 4.69358 6.88496L2.62863 5.34167C2.22588 6.14193 2 7.04416 2 8.00045C2 8.95674 2.22588 9.85896 2.62863 10.6592Z" fill="#FBBC05"/>
<path fill-rule="evenodd" clip-rule="evenodd" d="M15.3798 12.7117C15.5435 12.8691 15.5436 13.131 15.3799 13.2884L12.6774 15.8876C12.4232 16.132 12 15.9519 12 15.5993L12 10.4038C12 10.0513 12.423 9.87118 12.6772 10.1154L15.3798 12.7117Z" fill="#57965C"/>
<path fill-rule="evenodd" clip-rule="evenodd" d="M7.62255 13.2883C7.45909 13.1309 7.45916 12.8692 7.62271 12.7119L10.3216 10.1163C10.5757 9.87185 10.9989 10.0519 10.9989 10.4045V15.5986C10.9989 15.9514 10.5755 16.1314 10.3214 15.8868L7.62255 13.2883Z" fill="#DB5C5C"/>
<path d="M8.14062 7.14291H13.8616C13.8765 7.20608 13.8906 7.26275 13.9036 7.31516C13.9635 7.55691 14.0012 7.70905 14.0012 8.00044C14.0012 8.64204 13.9224 9.23743 13.7767 9.78404L13.371 9.39427C13.3592 9.38291 13.3472 9.37211 13.3352 9.36185C12.7756 8.8568 12 8.9157 11.499 9.33004C11.0482 8.95773 10.3753 8.8731 9.83759 9.2278H8.14062V7.14291Z" fill="#4285F4"/>
<path d="M7.45697 11.4841L6.92977 11.9911C6.4068 12.4941 6.36136 13.302 6.79359 13.858C4.95614 13.4605 3.43504 12.2645 2.62695 10.6575L4.69106 9.11093C5.09729 10.3229 6.15157 11.2432 7.45697 11.4841Z" fill="#34A853"/>
</svg>
