<svg width="16" height="16" viewBox="0 0 16 16" fill="none" xmlns="http://www.w3.org/2000/svg">
<path d="M3.83398 3.90002H5.04298V11.869H7.40898V13H3.83398V3.90002Z" fill="#369650"/>
<path d="M8.08691 13V3.90002H10.1214C10.6501 3.90002 11.0899 4.04086 11.4409 4.32252C11.7962 4.59986 12.0606 5.02669 12.2339 5.60302C12.4116 6.17502 12.5004 6.90302 12.5004 7.78702V9.11302C12.5004 9.99703 12.4116 10.7272 12.2339 11.3035C12.0606 11.8755 11.7984 12.3024 11.4474 12.584C11.0964 12.8614 10.6566 13 10.1279 13H8.08691ZM10.1214 11.8755C10.3684 11.8755 10.5742 11.778 10.7389 11.583C10.9079 11.3837 11.0336 11.0825 11.1159 10.6795C11.1982 10.2722 11.2394 9.75002 11.2394 9.11302V7.78702C11.2394 7.15002 11.1982 6.63002 11.1159 6.22702C11.0336 5.81969 10.9079 5.51852 10.7389 5.32352C10.5742 5.12419 10.3684 5.02452 10.1214 5.02452H9.30891V11.8755H10.1214Z" fill="#369650"/>
</svg>
