<svg width="16" height="16" viewBox="0 0 16 16" fill="none" xmlns="http://www.w3.org/2000/svg">
<path fill-rule="evenodd" clip-rule="evenodd" d="M8.2095 1.04602C8.07656 0.98466 7.92339 0.98466 7.79045 1.04602L1.29047 4.04602C1.1134 4.12775 1 4.30497 1 4.5V11.5199C1 11.7154 1.11392 11.8929 1.29162 11.9744L7.79162 14.9545C7.85778 14.9848 7.92891 15 8.00004 15C7.68781 14.5841 7.43844 14.1173 7.26682 13.6138L2 11.1991V5.28145L7.23301 7.69669C7.49909 7.2779 7.96709 7 8.5 7C8.87577 7 9.21926 7.13817 9.48245 7.36648L14 5.28145V7.41638C14.3571 7.57239 14.6924 7.7688 15 7.99966V4.5C15 4.30497 14.8866 4.12775 14.7095 4.04602L8.2095 1.04602ZM2.69315 4.5L7.99998 2.05069L13.3068 4.5L8 6.94932L2.69315 4.5Z" fill="#CED0D6"/>
<path d="M14 7.41635V5.28143L9.48245 7.36645C9.55385 7.4284 9.61934 7.49697 9.67797 7.57122C10.3719 7.20675 11.1624 6.99997 12.0002 6.99997C12.7109 6.99997 13.3875 7.14875 14 7.41635Z" fill="#43454A"/>
<path d="M7.23301 7.69666L2 5.28143V11.1991L7.26682 13.6138C7.16821 13.3245 7.09527 13.0231 7.05082 12.7124C6.98692 12.2656 7.12688 11.8368 7.40012 11.5199C7.15182 11.2523 7 10.8939 7 10.5V8.49997C7 8.20446 7.08546 7.9289 7.23301 7.69666Z" fill="#43454A"/>
<path d="M7.99998 2.05066L2.69315 4.49997L8 6.94929L13.3068 4.49997L7.99998 2.05066Z" fill="#43454A"/>
<path d="M8.5 8C8.77614 8 9 8.22386 9 8.5V9.326L9.181 9.16238C9.90358 8.44447 10.9005 8 12.0002 8C13.1046 8 14.1053 8.44826 14.8286 9.17157C15.1887 9.5316 15.4806 9.96029 15.6831 10.4368C15.8159 10.7493 15.9101 11.0822 15.9597 11.4292C15.9988 11.7026 15.8089 11.9559 15.5356 11.995C15.2622 12.0341 15.0089 11.8442 14.9698 11.5708C14.9326 11.3108 14.8621 11.0617 14.7627 10.8279C14.6111 10.4711 14.3922 10.1493 14.1215 9.87868C13.5781 9.33524 12.8288 9 12.0002 9C11.1716 9 10.4223 9.33524 9.87888 9.87868L9.86997 9.88759L9.74562 10H10.5C10.7761 10 11 10.2239 11 10.5C11 10.7761 10.7761 11 10.5 11H8.5C8.22386 11 8 10.7761 8 10.5V8.5C8 8.22386 8.22386 8 8.5 8Z" fill="#548AF7"/>
<path d="M8.46491 12.005C8.73827 11.9659 8.99157 12.1558 9.03067 12.4292C9.12449 13.0851 9.43079 13.6732 9.87894 14.1213C10.4224 14.6648 11.1717 15 12.0003 15C12.8288 15 13.5781 14.6648 14.1216 14.1213L14.1305 14.1124L14.2487 14H13.5C13.2239 14 13 13.7761 13 13.5C13 13.2239 13.2239 13 13.5 13H15.5C15.7761 13 16 13.2239 16 13.5V15.5C16 15.7761 15.7761 16 15.5 16C15.2239 16 15 15.7761 15 15.5V14.6657L14.8241 14.833C14.1011 15.5536 13.1024 16 12.0003 16C10.8958 16 9.89515 15.5517 9.17184 14.8284C8.57574 14.2323 8.16618 13.4477 8.04075 12.5708C8.00165 12.2974 8.19155 12.0441 8.46491 12.005Z" fill="#548AF7"/>
</svg>
