<svg width="16" height="16" viewBox="0 0 16 16" fill="none" xmlns="http://www.w3.org/2000/svg">
<rect x="2.5" y="2.5" width="11" height="11" rx="1.5" fill="#402929" stroke="#DB5C5C"/>
<path d="M8.11288 11.5164C7.50178 11.5164 6.94726 11.3645 6.44933 11.0605C5.95463 10.7534 5.56501 10.333 5.28048 9.79952C4.99595 9.26279 4.85368 8.66462 4.85368 8.00502C4.85368 7.34542 4.99595 6.74887 5.28048 6.21537C5.56501 5.67864 5.95463 5.25831 6.44933 4.95437C6.94726 4.64721 7.50178 4.49362 8.11288 4.49362C8.62375 4.49362 9.10066 4.60032 9.54363 4.81372C9.98983 5.02712 10.3552 5.31651 10.6397 5.68187C10.9275 6.04724 11.1005 6.44656 11.1587 6.87982H10.3633C10.3051 6.57266 10.1677 6.29297 9.95103 6.04077C9.73763 5.78534 9.46926 5.58326 9.14593 5.43452C8.82583 5.28579 8.48148 5.21142 8.11288 5.21142C7.64728 5.21142 7.22856 5.33106 6.85673 5.57032C6.4849 5.80959 6.1939 6.14101 5.98373 6.56457C5.77356 6.98814 5.66848 7.46829 5.66848 8.00502C5.66848 8.54176 5.77356 9.02191 5.98373 9.44547C6.1939 9.86904 6.4849 10.2005 6.85673 10.4397C7.22856 10.679 7.64728 10.7986 8.11288 10.7986C8.53968 10.7986 8.92445 10.7113 9.26718 10.5367C9.61315 10.3621 9.88636 10.1196 10.0868 9.80922C10.2873 9.49559 10.3908 9.14316 10.3972 8.75192V8.69372H8.60273V7.96622H11.212V8.46092C11.212 9.03322 11.0762 9.55217 10.8046 10.0178C10.5363 10.4834 10.166 10.8504 9.69398 11.1187C9.22191 11.3839 8.69488 11.5164 8.11288 11.5164Z" fill="#DB5C5C"/>
</svg>
