<svg width="16" height="16" viewBox="0 0 16 16" fill="none" xmlns="http://www.w3.org/2000/svg">
<path d="M3.211 15.08C2.73867 15.08 2.3725 14.9543 2.1125 14.703C1.8525 14.4517 1.72033 14.0963 1.716 13.637L1.7095 12.597H2.6845L2.691 13.572C2.691 13.7583 2.74083 13.9013 2.8405 14.001C2.9445 14.105 3.08967 14.157 3.276 14.157H3.9V15.08H3.211ZM2.2815 12.168C2.47217 12.168 2.626 12.0662 2.743 11.8625C2.86 11.6588 2.94667 11.3425 3.003 10.9135C3.05933 10.4802 3.0875 9.919 3.0875 9.23V7.67C3.0875 6.981 3.05933 6.422 3.003 5.993C2.94667 5.55967 2.86 5.24117 2.743 5.0375C2.626 4.83383 2.47217 4.732 2.2815 4.732C2.09083 4.732 1.93483 4.83383 1.8135 5.0375C1.69217 5.24117 1.60333 5.55967 1.547 5.993C1.49067 6.422 1.4625 6.981 1.4625 7.67V9.23C1.4625 9.919 1.49067 10.4802 1.547 10.9135C1.60333 11.3425 1.69217 11.6588 1.8135 11.8625C1.93483 12.0662 2.09083 12.168 2.2815 12.168ZM2.2815 13.156C1.8265 13.156 1.456 13.0195 1.17 12.7465C0.888333 12.4735 0.680333 12.051 0.546 11.479C0.411667 10.9027 0.3445 10.153 0.3445 9.23V7.67C0.353167 6.747 0.424667 5.9995 0.559 5.4275C0.697667 4.85117 0.907833 4.4265 1.1895 4.1535C1.47117 3.8805 1.83517 3.744 2.2815 3.744C2.7235 3.744 3.08317 3.8805 3.3605 4.1535C3.64217 4.4265 3.85017 4.85117 3.9845 5.4275C4.12317 5.9995 4.19683 6.747 4.2055 7.67V9.23C4.2055 10.153 4.13833 10.9027 4.004 11.479C3.86967 12.051 3.66167 12.4735 3.38 12.7465C3.09833 13.0195 2.73217 13.156 2.2815 13.156ZM4.14984 4.9075V3.9H7.77684V4.9075H6.50284V13H5.42384V4.9075H4.14984Z" fill="#57965C"/>
</svg>
