<svg width="16" height="16" viewBox="0 0 16 16" fill="none" xmlns="http://www.w3.org/2000/svg">
<path d="M7.99998 1.5L14.5 4.5V8H11C9.89543 8 9 8.89543 9 10V14.0415L8 14.5L1.5 11.5199V4.5L7.99998 1.5Z" fill="#FFF4EB"/>
<path fill-rule="evenodd" clip-rule="evenodd" d="M8.2095 1.04602C8.07656 0.98466 7.92339 0.98466 7.79045 1.04602L1.29047 4.04602C1.1134 4.12775 1 4.30497 1 4.5V11.5199C1 11.7154 1.11392 11.8929 1.29162 11.9744L7.79162 14.9545C7.92392 15.0152 8.07608 15.0152 8.20838 14.9545L9 14.5916V13.4915L8.5 13.7207V7.81992L14 5.28145V8H15V4.5C15 4.30497 14.8866 4.12775 14.7095 4.04602L8.2095 1.04602ZM2.69315 4.5L7.99998 2.05069L13.3068 4.5L8 6.94932L2.69315 4.5ZM7.5 7.81992V13.7207L2 11.1991V5.28145L7.5 7.81992Z" fill="#E66D17"/>
<path d="M12 12H14V11H12V12Z" fill="#6C707E"/>
<path d="M12 14H14V13H12V14Z" fill="#6C707E"/>
<path fill-rule="evenodd" clip-rule="evenodd" d="M11 9C10.4477 9 10 9.44772 10 10V15C10 15.5523 10.4477 16 11 16H15C15.5523 16 16 15.5523 16 15V10C16 9.44772 15.5523 9 15 9H11ZM15 10H11V15H15V10Z" fill="#6C707E"/>
</svg>
