<svg width="16" height="16" viewBox="0 0 16 16" fill="none" xmlns="http://www.w3.org/2000/svg">
<path d="M14.5 4.5L7.99998 1.5L1.5 4.5V11.5199L7.00028 14.0417L7 14C7 12.8888 7.60357 11.9202 8.5 11.4017V10.3227C8.18946 9.97071 8 9.50776 8 9C8 7.89543 8.89543 7 10 7C10.7403 7 11.3866 7.4022 11.7324 8H14.5V4.5Z" fill="#FFF4EB"/>
<path fill-rule="evenodd" clip-rule="evenodd" d="M8.2095 1.04602C8.07656 0.98466 7.92339 0.98466 7.79045 1.04602L1.29047 4.04602C1.1134 4.12775 1 4.30497 1 4.5V11.5199C1 11.7154 1.11392 11.8929 1.29162 11.9744L7.06437 14.6211C7.02218 14.4207 7 14.2129 7 14C7 13.833 7.01363 13.6692 7.03984 13.5097L2 11.1991V5.28145L7.5 7.81992V12.3411C7.75605 11.9561 8.09868 11.6338 8.5 11.4017V7.81992L14 5.28145V8C14.3643 8 14.7058 8.09739 15 8.26756V4.5C15 4.30497 14.8866 4.12775 14.7095 4.04602L8.2095 1.04602ZM2.69315 4.5L7.99998 2.05069L13.3068 4.5L8 6.94932L2.69315 4.5Z" fill="#E66D17"/>
<path fill-rule="evenodd" clip-rule="evenodd" d="M11 9C11 9.37014 10.7989 9.69331 10.5 9.86622V12.063C10.6835 12.1102 10.8568 12.1829 11.016 12.2769L13.0339 10.259C13.0118 10.1764 13 10.0896 13 10C13 9.44772 13.4477 9 14 9C14.5523 9 15 9.44772 15 10C15 10.5523 14.5523 11 14 11C13.9104 11 13.8236 10.9882 13.741 10.9661L11.7231 12.984C11.8171 13.1432 11.8898 13.3165 11.937 13.5H14.1338C14.3067 13.2011 14.6299 13 15 13C15.5523 13 16 13.4477 16 14C16 14.5523 15.5523 15 15 15C14.6299 15 14.3067 14.7989 14.1338 14.5H11.937C11.715 15.3626 10.9319 16 10 16C8.89543 16 8 15.1046 8 14C8 13.0681 8.63739 12.285 9.5 12.063V9.86622C9.2011 9.69331 9 9.37014 9 9C9 8.44772 9.44772 8 10 8C10.5523 8 11 8.44772 11 9ZM10 15C10.5523 15 11 14.5523 11 14C11 13.4477 10.5523 13 10 13C9.44772 13 9 13.4477 9 14C9 14.5523 9.44772 15 10 15Z" fill="#6C707E"/>
</svg>
