<svg width="16" height="16" viewBox="0 0 16 16" fill="none" xmlns="http://www.w3.org/2000/svg">
<path fill-rule="evenodd" clip-rule="evenodd" d="M7.79045 1.04602C7.92339 0.98466 8.07656 0.98466 8.2095 1.04602L14.7095 4.04602C14.8866 4.12775 15 4.30497 15 4.5V9.36562L14 8.74147V5.28145L8.5 7.81992L8.5 14.8208L8.20838 14.9545C8.07608 15.0152 7.92392 15.0152 7.79162 14.9545L1.29162 11.9744C1.11392 11.8929 1 11.7154 1 11.5199V4.5C1 4.30497 1.1134 4.12775 1.29047 4.04602L7.79045 1.04602ZM7.99998 2.05069L2.69315 4.5L8 6.94932L13.3068 4.5L7.99998 2.05069ZM7.5 13.7207V7.81992L2 5.28145V11.1991L7.5 13.7207Z" fill="#C77D55"/>
<path d="M10.2469 7.01362C10.7686 6.95853 11.3188 7.06804 11.8237 7.38316L14.5 9.05357L14 8.74145V5.28143L10.2469 7.01362Z" fill="#45322B"/>
<path d="M2.69315 4.49997L7.99998 2.05066L13.3068 4.49997L8 6.94929L2.69315 4.49997Z" fill="#45322B"/>
<path d="M7.5 7.81989V13.7207L2 11.1991V5.28143L7.5 7.81989Z" fill="#45322B"/>
<path fill-rule="evenodd" clip-rule="evenodd" d="M9 9.50215C9 8.32441 10.2951 7.60608 11.2942 8.22967L15.2962 10.7275C16.2372 11.3149 16.2372 12.6851 15.2962 13.2725L11.2942 15.7703C10.2951 16.3939 9 15.6756 9 14.4978V9.50215ZM10.7647 9.07799C10.4317 8.87013 10 9.10957 10 9.50215V14.4978C10 14.8904 10.4317 15.1298 10.7647 14.922L14.7667 12.4241C15.0804 12.2284 15.0804 11.7716 14.7667 11.5758L10.7647 9.07799Z" fill="#57965C"/>
<path d="M10 9.50214C10 9.10956 10.4317 8.87012 10.7647 9.07798L14.7667 11.5758C15.0804 11.7716 15.0804 12.2284 14.7667 12.4241L10.7647 14.922C10.4317 15.1298 10 14.8904 10 14.4978V9.50214Z" fill="#253627"/>
</svg>
