<svg width="16" height="16" viewBox="0 0 16 16" fill="none" xmlns="http://www.w3.org/2000/svg">
<path d="M7.99998 1.5L14.5 4.5V10.4798L13.37 9.39427C12.8083 8.85466 12.0109 8.907 11.4995 9.32964C10.9879 8.90752 10.1907 8.85569 9.62937 9.39554L6.9305 11.9912C6.35802 12.5417 6.35777 13.4577 6.92995 14.0086L6.93145 14.0101L1.5 11.5199V4.5L7.99998 1.5Z" fill="#45322B"/>
<path fill-rule="evenodd" clip-rule="evenodd" d="M7.62255 13.2883C7.45909 13.1309 7.45916 12.8692 7.62271 12.7119L10.3216 10.1163C10.5757 9.87185 10.9989 10.0519 10.9989 10.4045V15.5986C10.9989 15.9514 10.5755 16.1314 10.3214 15.8868L7.62255 13.2883Z" fill="#DB5C5C"/>
<path fill-rule="evenodd" clip-rule="evenodd" d="M15.3798 12.7117C15.5435 12.8691 15.5436 13.131 15.3799 13.2884L12.6774 15.8876C12.4232 16.132 12 15.9519 12 15.5993L12 10.4038C12 10.0513 12.423 9.87118 12.6772 10.1154L15.3798 12.7117Z" fill="#57965C"/>
<path fill-rule="evenodd" clip-rule="evenodd" d="M8.2095 1.04602C8.07656 0.98466 7.92339 0.98466 7.79045 1.04602L1.29047 4.04602C1.1134 4.12775 1 4.30497 1 4.5V11.5199C1 11.7154 1.11392 11.8929 1.29162 11.9744L7.79162 14.9545C7.84465 14.9788 7.90088 14.9934 7.95774 14.9982L6.92995 14.0086C6.71584 13.8025 6.58188 13.5452 6.52807 13.2751L2 11.1991V5.28145L7.5 7.81992V11.4434L8.5 10.4817V7.81992L14 5.28145V9.9995L15 10.9602V4.5C15 4.30497 14.8866 4.12775 14.7095 4.04602L8.2095 1.04602ZM2.69315 4.5L7.99998 2.05069L13.3068 4.5L8 6.94932L2.69315 4.5Z" fill="#C77D55"/>
</svg>
