<svg width="16" height="16" viewBox="0 0 16 16" fill="none" xmlns="http://www.w3.org/2000/svg">
<path fill-rule="evenodd" clip-rule="evenodd" d="M1.14645 1.14645C1.34171 0.951184 1.65829 0.951184 1.85355 1.14645L14.8536 14.1464C15.0488 14.3417 15.0488 14.6583 14.8536 14.8536C14.6583 15.0488 14.3417 15.0488 14.1464 14.8536L1.14645 1.85355C0.951184 1.65829 0.951184 1.34171 1.14645 1.14645Z" fill="#6C707E"/>
<path d="M14 11.8787V3C14 1.89543 13.1046 1 12 1H4C3.73932 1 3.49028 1.04987 3.26192 1.1406L4.12132 2H12C12.5523 2 13 2.44772 13 3V10.8787L14 11.8787Z" fill="#6C707E"/>
<path d="M10.6093 8.48801C10.8329 8.43814 11 8.23859 11 8C11 7.72386 10.7761 7.5 10.5 7.5H9.62132L10.6093 8.48801Z" fill="#6C707E"/>
<path d="M8.12132 6H10.5C10.7761 6 11 5.77614 11 5.5C11 5.22386 10.7761 5 10.5 5H7.12132L8.12132 6Z" fill="#6C707E"/>
<path d="M3 5.12132L2 4.12132V13C2 14.1046 2.89543 15 4 15H12C12.2607 15 12.5097 14.9501 12.7381 14.8594L11.8787 14H4C3.44772 14 3 13.5523 3 13V5.12132Z" fill="#6C707E"/>
<path d="M7.87868 10L8.87868 11H5.5C5.22386 11 5 10.7761 5 10.5C5 10.2239 5.22386 10 5.5 10H7.87868Z" fill="#6C707E"/>
<path d="M6.37868 8.5L5.39067 7.51199C5.16711 7.56185 5 7.76141 5 8C5 8.27614 5.22386 8.5 5.5 8.5H6.37868Z" fill="#6C707E"/>
</svg>
