<svg width="16" height="16" viewBox="0 0 16 16" fill="none" xmlns="http://www.w3.org/2000/svg">
<path d="M3.34 6.096H1.366V4.872H2.476C2.724 4.872 2.94 4.82 3.124 4.716C3.312 4.612 3.454 4.464 3.55 4.272C3.65 4.08 3.7 3.856 3.7 3.6H3.706H4.81V12H3.34V6.096ZM8.61194 9.378V10.98H7.01594V9.378H8.61194ZM8.61194 4.638V6.24H7.01594V4.638H8.61194ZM11.8858 6.096H9.91178V4.872H11.0218C11.2698 4.872 11.4858 4.82 11.6698 4.716C11.8578 4.612 11.9998 4.464 12.0958 4.272C12.1958 4.08 12.2458 3.856 12.2458 3.6H12.2518H13.3558V12H11.8858V6.096Z" fill="#6C707E"/>
</svg>
