<svg width="16" height="16" viewBox="0 0 16 16" fill="none" xmlns="http://www.w3.org/2000/svg">
<path d="M4.99109 14.7076L5.59241 13.6661L5.35752 13.5305L4.70819 13.1556L4.41504 12.9863L3.81372 14.0278C3.62601 14.353 3.7374 14.7687 4.06253 14.9564C4.38765 15.1441 4.80338 15.0327 4.99109 14.7076Z" fill="#CCA18A"/>
<path d="M4.41504 12.9863L3.81372 14.0278C3.62601 14.353 3.7374 14.7687 4.06253 14.9564V14.9564C4.38765 15.1441 4.80338 15.0327 4.99109 14.7076L5.59241 13.6661" stroke="black" stroke-width="0.2"/>
<path d="M7.4249 1.41113C5.25974 1.41113 3.11664 3.31166 3.04023 5.78436C2.9918 7.35163 2.9918 8.94238 3.04023 10.5097C3.11664 12.9823 4.97876 14.4619 7.14392 14.4619H9.02216C9.65853 14.4619 10.2575 14.3347 10.7869 14.0917L11.9736 12.905C11.4048 12.6919 11 12.1432 11 11.5C11 10.6716 11.6716 10 12.5 10H12.9689C12.9988 8.59085 12.9941 7.19877 12.955 5.78436C12.8872 3.33395 10.7441 1.41113 8.59871 1.41113H7.4249Z" fill="#99D6FA"/>
<path d="M3.51896 2.34563L4.13287 2.58765C4.35452 2.67503 4.42858 2.95182 4.28018 3.13821L3.96642 3.54806C3.80865 3.74966 3.5029 3.74771 3.34772 3.5441L2.97871 3.05993C2.85512 2.89778 2.85161 2.67402 2.97005 2.50807C3.09403 2.33434 3.32039 2.26735 3.51896 2.34563Z" fill="#99D6FA"/>
<path d="M3.62277 3.86282L2.96516 3.0174C2.83973 2.85613 2.84204 2.62968 2.97075 2.47101V2.47101C3.09209 2.32144 3.29671 2.26836 3.47545 2.3401L4.56672 2.77807" stroke="black" stroke-width="0.2"/>
<path d="M12.4572 2.34555L11.8451 2.59217C11.6242 2.68122 11.5522 2.95856 11.702 3.14383L12.0188 3.55131C12.1781 3.75172 12.4838 3.74746 12.6375 3.5427L13.0028 3.05577C13.1252 2.89269 13.127 2.66891 13.0073 2.50386C12.882 2.33106 12.6552 2.26578 12.4572 2.34555Z" fill="#99D6FA"/>
<path d="M12.3652 3.86353L13.0165 3.01319C13.1407 2.85098 13.1367 2.62455 13.0068 2.46686V2.46686C12.8843 2.3182 12.6793 2.26667 12.5011 2.33974L11.5001 2.75024" stroke="black" stroke-width="0.2"/>
<path fill-rule="evenodd" clip-rule="evenodd" d="M7.30156 4.83828C7.30156 5.76247 6.56724 6.51152 5.66152 6.51152C4.75581 6.51152 4.02148 5.76247 4.02148 4.83828C4.02148 3.91409 4.75581 3.16504 5.66152 3.16504C6.56724 3.16504 7.30156 3.91409 7.30156 4.83828Z" fill="white"/>
<path fill-rule="evenodd" clip-rule="evenodd" d="M5.93012 4.83735C5.93012 5.26451 5.59046 5.61122 5.17139 5.61122C4.75275 5.61122 4.41309 5.26451 4.41309 4.83735C4.41309 4.41019 4.75275 4.06348 5.17139 4.06348C5.59046 4.06348 5.93012 4.41019 5.93012 4.83735Z" fill="black"/>
<path fill-rule="evenodd" clip-rule="evenodd" d="M11.9705 4.83828C11.9705 5.76247 11.2362 6.51152 10.3305 6.51152C9.42435 6.51152 8.69043 5.76247 8.69043 4.83828C8.69043 3.91409 9.42435 3.16504 10.3305 3.16504C11.2362 3.16504 11.9705 3.91409 11.9705 4.83828Z" fill="white"/>
<path fill-rule="evenodd" clip-rule="evenodd" d="M11.5854 4.83735C11.5854 5.26451 11.2457 5.61122 10.8271 5.61122C10.408 5.61122 10.0684 5.26451 10.0684 4.83735C10.0684 4.41019 10.408 4.06348 10.8271 4.06348C11.2457 4.06348 11.5854 4.41019 11.5854 4.83735Z" fill="black"/>
<path fill-rule="evenodd" clip-rule="evenodd" d="M7.63184 7.58374H8.60913V6.7793H7.63184V7.58374Z" fill="white"/>
<path fill-rule="evenodd" clip-rule="evenodd" d="M9.0972 6.51175C9.0972 6.80778 8.65999 7.04791 8.12067 7.04791C7.58174 7.04791 7.14453 6.80778 7.14453 6.51175C7.14453 6.21571 7.58174 5.97559 8.12067 5.97559C8.65999 5.97559 9.0972 6.21571 9.0972 6.51175Z" fill="#CCA18A"/>
<path fill-rule="evenodd" clip-rule="evenodd" d="M8.60968 6.23446C8.60968 6.53573 8.38755 6.51159 8.11295 6.51159C7.83874 6.51159 7.61621 6.53573 7.61621 6.23446C7.61621 5.9332 7.83874 5.68945 8.11295 5.68945C8.38755 5.68945 8.60968 5.9332 8.60968 6.23446Z" fill="black"/>
<path fill-rule="evenodd" clip-rule="evenodd" d="M12.5 11C12.2239 11 12 11.2239 12 11.5C12 11.7761 12.2239 12 12.5 12H14.2929L11.1464 15.1464C10.9512 15.3417 10.9512 15.6583 11.1464 15.8535C11.3417 16.0488 11.6583 16.0488 11.8536 15.8535L15 12.7071V14.5C15 14.7761 15.2239 15 15.5 15C15.7761 15 16 14.7761 16 14.5V11.5C16 11.2239 15.7761 11 15.5 11H12.5Z" fill="#3574F0"/>
<path d="M7.4249 1.61113H8.59871C10.6366 1.61113 12.6903 3.44851 12.7551 5.78989C12.7942 7.20246 12.7987 8.59266 12.7688 10H12.9689C12.9988 8.59085 12.9941 7.19877 12.955 5.78436C12.8872 3.33395 10.7441 1.41113 8.59871 1.41113H7.4249C5.25974 1.41113 3.11664 3.31166 3.04023 5.78436C2.9918 7.35163 2.9918 8.94238 3.04023 10.5097C3.11664 12.9823 4.97876 14.4619 7.14392 14.4619H9.02216C9.65853 14.4619 10.2575 14.3347 10.7869 14.0917L11.3676 13.5111C10.7329 13.9976 9.9204 14.2619 9.02216 14.2619H7.14392C5.07497 14.2619 3.31285 12.8567 3.24013 10.5035C3.19183 8.94032 3.19183 7.35369 3.24013 5.79053C3.31315 3.42747 5.36615 1.61113 7.4249 1.61113Z" fill="black"/>
<path d="M3.09682 10.4958L3.94721 9.64545L3.78493 9.48318L3.33632 9.03456L3.13379 8.83203L2.28339 9.68243C2.05877 9.90705 2.05877 10.2712 2.28339 10.4958C2.50801 10.7205 2.8722 10.7205 3.09682 10.4958Z" fill="#CCA18A"/>
<path d="M3.13379 8.83203L2.28339 9.68243C2.05877 9.90705 2.05877 10.2712 2.28339 10.4958V10.4958C2.50801 10.7205 2.8722 10.7205 3.09682 10.4958L3.94721 9.64545" stroke="black" stroke-width="0.2"/>
</svg>
