<svg width="16" height="16" viewBox="0 0 16 16" fill="none" xmlns="http://www.w3.org/2000/svg">
<path d="M7.42933 4.97998H8.49143L10.7575 11H9.75563L9.22673 9.51648H6.74993L6.25973 11H5.23633L7.42933 4.97998ZM8.95153 8.72958L8.04853 6.22268L7.95393 5.84858L7.85933 6.22268L7.00363 8.72958H8.95153Z" fill="#CED0D6"/>
<path fill-rule="evenodd" clip-rule="evenodd" d="M12 10H13.5C13.7761 10 14 10.2239 14 10.5V15H13V11H12V10Z" fill="#548AF7"/>
<path fill-rule="evenodd" clip-rule="evenodd" d="M15.5 16H11.5V15H15.5V16Z" fill="#548AF7"/>
<path d="M12.5 7.5H14V9H12.5V7.5Z" fill="#548AF7"/>
<path fill-rule="evenodd" clip-rule="evenodd" d="M13.811 6.5C13.1449 3.91216 10.7958 2 8 2C4.68629 2 2 4.68629 2 8C2 11.3137 4.68629 14 8 14C8.89221 14 9.73894 13.8053 10.5 13.456V14.5404C9.7236 14.8373 8.8808 15 8 15C4.13401 15 1 11.866 1 8C1 4.13401 4.13401 1 8 1C11.3511 1 14.1522 3.35482 14.8389 6.5H13.811ZM14 8V7.5H13.9795C13.9931 7.66487 14 7.83162 14 8Z" fill="#CED0D6"/>
</svg>
