<svg width="16" height="16" viewBox="0 0 16 16" fill="none" xmlns="http://www.w3.org/2000/svg">
<path d="M7 13.5H6C5.17157 13.5 4.5 12.8284 4.5 12V12V4.5M12.5 9V4.5C12.5 3.39543 11.6046 2.5 10.5 2.5H3M4.5 4.5V4C4.5 3.17157 3.82843 2.5 3 2.5V2.5M4.5 4.5H1.5V4C1.5 3.17157 2.17157 2.5 3 2.5V2.5" stroke="#6C707E" stroke-linejoin="round"/>
<path fill-rule="evenodd" clip-rule="evenodd" d="M9.05001 12C9.28164 10.8589 10.2905 10 11.5 10H13.5C13.7761 10 14 10.2239 14 10.5V11H15.5C15.7761 11 16 11.2239 16 11.5C16 11.7761 15.7761 12 15.5 12H14V14H15.5C15.7761 14 16 14.2239 16 14.5C16 14.7761 15.7761 15 15.5 15H14V15.5C14 15.7761 13.7761 16 13.5 16H11.5C10.2905 16 9.28164 15.1411 9.05001 14H8.5C8.22386 14 8 13.7761 8 13.5V12.5C8 12.2239 8.22386 12 8.5 12H9.05001ZM10 13.5V12.5C10 11.6716 10.6716 11 11.5 11H13V15H11.5C10.6716 15 10 14.3284 10 13.5Z" fill="#3574F0"/>
</svg>
