<svg width="16" height="16" viewBox="0 0 16 16" fill="none" xmlns="http://www.w3.org/2000/svg">
<path opacity="0.8" d="M2.7424 7.97714C2.71722 7.52859 2.91286 7.09196 3.27863 6.69756C3.37676 6.63441 3.47634 6.57381 3.57773 6.51643C3.9423 6.31055 4.31601 6.1148 4.69201 5.92918C5.22801 5.6648 5.79944 5.51968 6.38001 5.42518C6.65087 5.38243 6.92287 5.35205 7.19487 5.32505C7.38801 5.3048 7.5823 5.2913 7.77658 5.29018C8.09087 5.28905 8.40516 5.29468 8.71944 5.30705C8.92858 5.31605 9.13773 5.33405 9.34573 5.36218C9.63944 5.40268 9.9343 5.44655 10.2246 5.50955C10.9869 5.67493 11.7046 5.97868 12.3972 6.36005C12.4582 6.39382 12.5189 6.42809 12.5795 6.46259C12.7195 6.6439 12.8188 6.83792 12.8717 7.04217C12.5869 7.01424 12.2954 6.99994 12 6.99994C10.7738 6.99994 9.61434 7.24631 8.72436 7.6913C7.8942 8.10638 7 8.86483 7 9.99994V10.2654C6.9069 10.2619 6.81384 10.2559 6.72078 10.2468L6.6179 10.2363C6.43538 10.2176 6.25367 10.1991 6.07278 10.1726C5.88192 10.1456 5.69106 10.1129 5.50135 10.0724C5.21093 10.0102 4.92404 9.93544 4.63931 9.85344C3.51893 9.44478 2.78591 8.77554 2.7424 7.97714Z" fill="#BBE6FB"/>
<path opacity="0.8" d="M4.26087 6.66776C4.25901 6.5458 4.27689 6.33786 4.31266 6.12074C4.43888 6.05573 4.56562 5.99188 4.69262 5.92918C5.22862 5.6648 5.80005 5.51968 6.38062 5.42518C6.65148 5.38243 6.92348 5.35205 7.19548 5.32505C7.38862 5.3048 7.58291 5.2913 7.77719 5.29018C8.09148 5.28905 8.40577 5.29468 8.72005 5.30705C8.92919 5.31605 9.13834 5.33405 9.34634 5.36218C9.64005 5.40268 9.93491 5.44655 10.2252 5.50955C10.3918 5.54569 10.5562 5.58844 10.7188 5.63717C10.8283 5.92834 10.8583 6.23363 10.862 6.46751C10.8656 6.67551 10.853 6.87927 10.8253 7.0774C10.0442 7.18241 9.32324 7.39192 8.72436 7.69136C7.89597 8.10555 7.00382 8.86165 7.00001 9.99274C5.46954 9.71205 4.29214 8.41591 4.26087 6.66776Z" fill="#D3EFFC"/>
<path d="M4.86831 6.62838C4.86373 6.37978 4.96999 5.83539 5.15852 5.73067C5.55472 5.58622 5.96521 5.49276 6.38038 5.42518C6.65124 5.38243 6.92324 5.35205 7.19524 5.32505C7.38838 5.3048 7.58266 5.2913 7.77695 5.29018C8.09124 5.28905 8.40552 5.29468 8.71981 5.30705C8.92895 5.31605 9.13809 5.33405 9.34609 5.36218C9.45561 5.37728 9.56528 5.39285 9.67482 5.40971C10.1619 5.67986 10.2484 6.15385 10.2546 6.51363C10.2588 6.74365 10.2371 6.96976 10.1923 7.18816C9.65469 7.30514 9.15759 7.47468 8.72436 7.6913C8.04596 8.0305 7.3248 8.599 7.0838 9.41497C5.84525 9.1549 4.89439 8.00608 4.86831 6.62838Z" fill="#1287B1"/>
<path d="M8.62182 6.29018L8.31105 6.87003L8.07265 6.25L7.98916 6.91569L7.55223 6.44085L7.70993 7.09102L7.13757 6.83442L7.51234 7.36953L6.8936 7.37044L7.42793 7.70831L6.85742 7.96582L7.46967 8.05714L7.03275 8.53198L7.63108 8.36122L7.54878 8.57812C7.87635 8.19353 8.3084 7.89934 8.72436 7.69136C8.86275 7.62216 9.00767 7.55777 9.15833 7.49836L9.04019 7.48094L9.47804 7.00427L8.87878 7.17594L9.11533 6.55499L8.62274 6.96226L8.62182 6.29018Z" fill="white"/>
<path d="M14.4901 4.2395C14.2272 4.93138 13.8775 5.55575 13.3335 6.044C13.425 6.06425 13.5118 6.07325 13.5998 6.06313C14.0204 6.017 14.3701 5.792 14.7072 5.54113C14.9667 5.34763 15.2044 5.12488 15.4307 4.88975C15.4364 4.883 15.4432 4.87738 15.4535 4.87513C15.161 5.41063 14.8295 5.90788 14.3347 6.2555C14.4432 6.3005 14.553 6.314 14.6638 6.29825C14.9804 6.2555 15.241 6.08 15.4901 5.87975C15.6615 5.74138 15.8192 5.58275 15.9678 5.41625C15.9758 5.40725 15.985 5.39825 15.9998 5.39713L15.9625 5.44888C15.9184 5.51021 15.8745 5.57119 15.8272 5.63C15.6627 5.837 15.4855 6.02825 15.289 6.197C14.9244 6.512 14.5221 6.74713 14.0627 6.85175C13.8592 6.899 13.6512 6.93163 13.4432 6.899C13.3484 6.88438 13.2535 6.84163 13.1678 6.7955C13.0244 6.71776 12.8831 6.63658 12.7417 6.55539C12.6274 6.48972 12.513 6.42401 12.3975 6.36013C11.705 5.97875 10.9872 5.675 10.225 5.50963C9.93466 5.44663 9.63981 5.40275 9.34609 5.36225C9.13809 5.33413 8.92895 5.31613 8.71981 5.30713C8.40552 5.29475 8.09124 5.28913 7.77695 5.29025C7.58266 5.29138 7.38838 5.30488 7.19524 5.32513C6.92324 5.35213 6.65124 5.3825 6.38038 5.42525C5.79981 5.51975 5.22838 5.66488 4.69238 5.92925C4.31638 6.11488 3.94266 6.31063 3.57809 6.5165C3.15866 6.75388 2.77009 7.04638 2.38724 7.34675C2.21893 7.47762 2.05102 7.60944 1.8831 7.74128C1.64394 7.92903 1.40475 8.11682 1.16438 8.30188C0.871808 8.52688 0.567808 8.7305 0.254665 8.91725C0.239808 8.92625 0.226094 8.93413 0.206665 8.93525C0.2232 8.91729 0.239735 8.89905 0.25627 8.88081C0.272841 8.86253 0.289522 8.84413 0.306094 8.82613C0.32296 8.80897 0.339551 8.79154 0.356273 8.77398C0.373518 8.75586 0.390976 8.73752 0.408951 8.71925C0.467339 8.66007 0.52541 8.60046 0.583485 8.54086C0.716349 8.40449 0.849334 8.26799 0.986094 8.1365C1.21009 7.92163 1.43867 7.71575 1.66952 7.50988C1.96438 7.2455 2.27524 7.0025 2.59181 6.77075C3.14495 6.36688 3.72552 6.0125 4.33695 5.7245C4.90952 5.45563 5.50038 5.24638 6.10838 5.09788C6.19409 5.07695 6.27981 5.05724 6.36552 5.03753C6.42266 5.02439 6.47981 5.01125 6.53695 4.99775C6.60895 4.98088 6.65809 4.92913 6.69695 4.86388C6.76095 4.74913 6.79295 4.62313 6.81466 4.49375C6.81847 4.47575 6.82076 4.45775 6.82288 4.44108C6.82394 4.43276 6.82495 4.42475 6.82609 4.41725C6.83199 4.44047 6.83751 4.46423 6.84308 4.48824C6.85696 4.54799 6.87118 4.60922 6.89238 4.667C6.91067 4.71988 6.94267 4.77163 6.97695 4.81325C7.02381 4.86838 7.07067 4.86613 7.12324 4.8155C7.19873 4.74119 7.24248 4.64509 7.28625 4.54894L7.29809 4.523C7.31079 4.49582 7.32216 4.46812 7.33348 4.44052C7.34559 4.41101 7.35765 4.38162 7.37124 4.35313C7.36748 4.37571 7.3631 4.39841 7.35871 4.42115C7.34977 4.46752 7.34078 4.51409 7.33695 4.56013C7.33238 4.631 7.33124 4.703 7.34267 4.77163C7.35752 4.8605 7.41924 4.89425 7.49467 4.85263C7.55638 4.81775 7.61695 4.77275 7.66152 4.7165C7.7386 4.62062 7.81003 4.51979 7.88139 4.41905C7.90632 4.38387 7.93123 4.3487 7.95638 4.31375C7.96438 4.3025 7.97238 4.29013 7.98495 4.26988C7.97894 4.29979 7.97283 4.32874 7.96684 4.35709C7.95346 4.42041 7.94071 4.48073 7.93124 4.54213C7.92896 4.55612 7.92644 4.57014 7.9239 4.5842C7.91117 4.65492 7.89827 4.72655 7.91638 4.79975C7.93009 4.85375 7.95524 4.86838 7.99181 4.82788C8.06495 4.75025 8.13581 4.67038 8.19867 4.58263C8.26318 4.49039 8.32409 4.3951 8.38519 4.2995C8.41501 4.25285 8.44488 4.20612 8.47524 4.15963L8.49581 4.12925C8.48759 4.15622 8.4795 4.18148 8.47174 4.20574C8.45682 4.25232 8.44308 4.29525 8.43181 4.33963C8.42038 4.38688 8.41581 4.4375 8.41695 4.48588C8.41809 4.6265 8.52666 4.66475 8.62495 4.65013C8.79981 4.62538 8.94038 4.523 9.07638 4.415C9.09018 4.40389 9.10367 4.39247 9.1172 4.38103C9.14061 4.36122 9.16418 4.34129 9.18952 4.32275C9.1784 4.341 9.16671 4.35869 9.155 4.37643C9.13783 4.40243 9.12057 4.42855 9.10495 4.45663C9.07752 4.50838 9.05124 4.56125 9.03181 4.6175C9.01009 4.676 9.02952 4.70638 9.08438 4.72775C9.24895 4.78738 9.41124 4.76713 9.56781 4.694C9.71752 4.62538 9.84667 4.52075 9.95752 4.39363C10.0072 4.33811 10.0536 4.27974 10.1022 4.21853C10.1284 4.18549 10.1554 4.15158 10.1838 4.11688C10.1713 4.14635 10.1594 4.17499 10.1478 4.20295C10.1213 4.26675 10.0962 4.3271 10.0684 4.38575C10.0261 4.47238 9.98152 4.55675 9.93352 4.63888C9.8977 4.70101 9.85869 4.76063 9.81888 4.82149C9.80538 4.84213 9.79169 4.86306 9.77809 4.88413C9.90267 4.9235 10.0227 4.91113 10.1404 4.86613C10.3301 4.79188 10.4787 4.65575 10.609 4.49488C10.6531 4.43927 10.6943 4.38111 10.7357 4.32268C10.7672 4.27828 10.7987 4.23372 10.8318 4.19C10.7641 4.34006 10.6961 4.48982 10.6274 4.64128C10.5626 4.78392 10.4972 4.92806 10.4307 5.07538C10.4432 5.07538 10.455 5.07612 10.4663 5.07682C10.4891 5.07825 10.5095 5.07952 10.5278 5.07425C10.641 5.04388 10.7324 4.9685 10.8215 4.89313C11.0604 4.6895 11.2741 4.4555 11.481 4.21588L11.5163 4.17534C11.5674 4.11657 11.6189 4.05748 11.6718 3.99988C11.6483 4.04122 11.6249 4.08269 11.6016 4.12415C11.3955 4.48995 11.1891 4.85629 10.8832 5.14625C10.9232 5.17438 10.969 5.16875 11.0147 5.15525C11.1392 5.11813 11.2455 5.04163 11.3495 4.96288C11.4129 4.91488 11.4746 4.86348 11.5398 4.80907C11.5663 4.78695 11.5934 4.76434 11.6215 4.74125C11.6106 4.75744 11.5999 4.77283 11.5896 4.78772C11.5613 4.8287 11.5356 4.86589 11.513 4.9055C11.4703 4.98057 11.4288 5.05622 11.3873 5.13203L11.3381 5.22163C11.3335 5.2295 11.329 5.2385 11.3267 5.2475C11.3243 5.25666 11.321 5.26601 11.3178 5.27547C11.3054 5.31132 11.2925 5.34867 11.3232 5.3825C11.3632 5.42525 11.417 5.43538 11.473 5.41963C11.561 5.39263 11.6352 5.33638 11.705 5.27563C11.8764 5.12713 12.0272 4.95613 12.169 4.775C12.2536 4.66603 12.3364 4.55516 12.4194 4.44393C12.4641 4.38407 12.5089 4.32409 12.5541 4.26425C12.5598 4.25863 12.5644 4.25413 12.5735 4.24963C12.4535 4.51288 12.313 4.76375 12.161 5.00788C12.0078 5.252 11.8421 5.486 11.657 5.70988C11.7095 5.7425 11.7621 5.74813 11.8181 5.738C11.9324 5.71775 12.033 5.66375 12.129 5.59738C12.2992 5.4815 12.4501 5.34088 12.5941 5.19013C12.8467 4.92575 13.0798 4.6445 13.2958 4.3475C13.3038 4.33738 13.313 4.32838 13.3301 4.32275C13.3253 4.33882 13.3207 4.35497 13.3161 4.37111C13.3042 4.41257 13.2923 4.45411 13.2775 4.49375C13.193 4.72775 13.0661 4.93138 12.921 5.12488C12.7781 5.315 12.6192 5.48938 12.4535 5.65475L12.4494 5.65913C12.4467 5.66218 12.4429 5.66633 12.4364 5.67275C12.5324 5.66263 12.6124 5.62775 12.6901 5.58613C12.8535 5.49613 12.9952 5.37575 13.1312 5.243C13.4158 4.96288 13.6558 4.64113 13.881 4.30588L13.885 4.30065C13.8875 4.29766 13.8911 4.29327 13.897 4.28563C13.7838 4.6085 13.6444 4.90325 13.4764 5.18225C13.3084 5.46238 13.113 5.71775 12.8832 5.94275L12.8838 5.94447C12.8848 5.94753 12.8859 5.95099 12.8878 5.95288L12.916 5.94528C12.9515 5.93585 12.9872 5.92636 13.0215 5.91125C13.1461 5.85725 13.2558 5.77513 13.3587 5.684C13.6524 5.42075 13.897 5.10688 14.1278 4.77838C14.2052 4.66771 14.2798 4.55428 14.3542 4.44104C14.3964 4.377 14.4384 4.31302 14.481 4.24963C14.4827 4.24628 14.485 4.24417 14.4875 4.24193L14.4901 4.2395Z" fill="#DFE1E6"/>
<path d="M7 10.8659C6.94559 10.9447 6.89305 11.025 6.84343 11.1075C6.544 11.607 6.27314 12.1268 6.00571 12.6476C5.99657 12.6645 5.98629 12.6825 5.97029 12.696C5.99985 12.6143 6.02952 12.5334 6.05909 12.4528L6.06389 12.4394C6.22811 11.9812 6.392 11.524 6.51771 11.0513L6.52352 11.0295C6.55485 10.912 6.58602 10.795 6.58171 10.6721C6.58057 10.6508 6.57143 10.6193 6.55771 10.6114C6.544 10.6035 6.512 10.6136 6.50057 10.6283L6.49179 10.6382C6.44206 10.6946 6.39193 10.7513 6.352 10.8161C6.222 11.0287 6.12386 11.2611 6.02584 11.4933L6.01486 11.5193C6.00914 11.5328 6.00229 11.5474 5.98971 11.5609L5.99386 11.5271C5.99793 11.4934 6.002 11.4596 6.008 11.4259C6.03657 11.2425 6.05829 11.0569 6.05486 10.8701C6.05371 10.815 6.04343 10.7588 6.02857 10.7059C6.01143 10.6373 5.97371 10.6193 5.91086 10.644C5.79886 10.689 5.70286 10.7678 5.61371 10.8499C5.45692 10.9945 5.30166 11.1426 5.14656 11.2905C5.06877 11.3647 4.99102 11.4389 4.91314 11.5125C4.90629 11.5193 4.89829 11.526 4.88571 11.5283C4.92343 11.4765 4.96 11.4259 4.99657 11.3753L5.022 11.3387C5.15433 11.1484 5.28713 10.9574 5.38057 10.7396C5.46857 10.5349 5.448 10.5023 5.29371 10.3538C5.15429 10.2188 4.98971 10.2154 4.81714 10.2694C4.64 10.3256 4.49486 10.4381 4.36571 10.5743C4.26515 10.6823 4.16942 10.795 4.07369 10.9078C4.03779 10.9501 4.00187 10.9924 3.96571 11.0344C3.96038 11.0396 3.95583 11.0457 3.95137 11.0515C3.94819 11.0557 3.94505 11.0599 3.94171 11.0636L3.93371 11.0569L3.94909 11.0299C3.98162 10.9728 4.01381 10.9162 4.04343 10.8589L4.04576 10.8544C4.12955 10.6916 4.21289 10.5298 4.24686 10.3448C4.25714 10.293 4.25714 10.2368 4.25143 10.1839C4.24 10.0984 4.15886 10.0466 4.06857 10.0703C3.98857 10.0894 3.90857 10.1141 3.83543 10.1501C3.57829 10.275 3.34857 10.4505 3.12229 10.6283C3.02711 10.7028 2.9346 10.7814 2.8422 10.86C2.79924 10.8966 2.75631 10.9331 2.71314 10.9691L2.71 10.9698C2.70786 10.9699 2.70454 10.9701 2.69943 10.9714C2.72167 10.9457 2.74365 10.9207 2.76538 10.896C2.80839 10.847 2.85044 10.7991 2.89143 10.7498C3.02629 10.59 3.16 10.428 3.256 10.2356C3.28114 10.1828 3.296 10.1231 3.30971 10.0635C3.32 10.0095 3.29257 9.96677 3.248 9.94877L3.24212 9.94653C3.16756 9.91803 3.09401 9.88993 3.01829 9.87677C2.6504 9.81534 2.27937 9.82412 1.90921 9.83288L1.86057 9.83402C1.62629 9.83965 1.392 9.83515 1.15771 9.81152C0.915429 9.78902 0.678857 9.7384 0.453714 9.6394C0.286857 9.5674 0.138286 9.46615 0 9.3424C0.0319788 9.35602 0.064157 9.37024 0.096368 9.38447C0.14124 9.40429 0.186309 9.4242 0.230857 9.44252C0.422857 9.51902 0.621714 9.56627 0.824 9.59552C1.05714 9.62927 1.29029 9.6259 1.52229 9.61802C1.65242 9.61419 1.78255 9.60251 1.91268 9.59083C1.9734 9.58538 2.03413 9.57993 2.09486 9.57527C2.16419 9.57017 2.23366 9.56412 2.30318 9.55806C2.43304 9.54674 2.56305 9.5354 2.69257 9.53027C2.88914 9.52352 3.08686 9.52127 3.28343 9.53252C3.568 9.5494 3.84571 9.61015 4.12114 9.69677C4.576 9.83965 5.03429 9.9724 5.50171 10.0725C5.69143 10.113 5.88229 10.1456 6.07314 10.1726C6.25404 10.1992 6.43575 10.2177 6.61827 10.2363L6.72114 10.2469C6.81408 10.256 6.90702 10.2619 7 10.2655V10.8659Z" fill="#DFE1E6"/>
<path fill-rule="evenodd" clip-rule="evenodd" d="M16 13.9959C16 15.0997 14.2091 16 12 16C9.79086 16 8 15.0997 8 13.9959V9.99864C8 8.89482 9.79086 8 12 8C14.2091 8 16 8.89482 16 9.99864V13.9959ZM15 9.99864C15 9.9997 14.9999 10.0012 14.9994 10.0041C14.9988 10.007 14.9972 10.0132 14.9932 10.0229C14.9852 10.0427 14.9658 10.0796 14.9222 10.1312C14.831 10.2389 14.6598 10.3789 14.3812 10.5181C13.8235 10.7968 12.983 10.998 12 10.998C11.017 10.998 10.1765 10.7968 9.61879 10.5181C9.3402 10.3789 9.16902 10.2389 9.07781 10.1312C9.03417 10.0796 9.01484 10.0427 9.00676 10.0229C9.00277 10.0132 9.00124 10.007 9.00064 10.0041C9.00007 10.0012 9 9.9997 9 9.99864C9 9.99758 9.00007 9.99603 9.00064 9.9932C9.00124 9.99025 9.00277 9.98408 9.00676 9.97435C9.01484 9.95462 9.03417 9.91764 9.07781 9.86608C9.16902 9.75833 9.3402 9.61841 9.61879 9.47921C10.1765 9.20053 11.017 8.99932 12 8.99932C12.983 8.99932 13.8235 9.20053 14.3812 9.47921C14.6598 9.61841 14.831 9.75833 14.9222 9.86608C14.9658 9.91764 14.9852 9.95462 14.9932 9.97435C14.9972 9.98408 14.9988 9.99025 14.9994 9.9932C14.9999 9.99603 15 9.99758 15 9.99864ZM15 11.3207C14.2671 11.7356 13.1947 11.9973 12 11.9973C10.8053 11.9973 9.73294 11.7356 9 11.3207V11.9919C8.99942 11.9947 9 11.9973 9 11.9973C9 11.9973 9.00007 11.9999 9.00064 12.0027C9.00124 12.0057 9.00277 12.0118 9.00676 12.0216C9.01484 12.0413 9.03417 12.0783 9.07781 12.1298C9.16902 12.2376 9.3402 12.3775 9.61879 12.5167C10.1765 12.7954 11.017 12.9966 12 12.9966C12.983 12.9966 13.8235 12.7954 14.3812 12.5167C14.6598 12.3775 14.831 12.2376 14.9222 12.1298C14.9658 12.0783 14.9852 12.0413 14.9932 12.0216C14.9972 12.0118 14.9988 12.0057 14.9994 12.0027C14.9999 11.9999 15 11.9973 15 11.9973C15 11.9973 14.9999 11.9947 14.9994 11.9919L15 11.3207ZM15 13.3193C14.2671 13.7342 13.1947 13.9959 12 13.9959C10.8053 13.9959 9.73294 13.7342 9 13.3193V13.9959C8.99942 13.9988 9 14.0014 9 14.0014C9 14.0014 9.00007 14.004 9.00064 14.0068C9.00124 14.0097 9.00277 14.0159 9.00676 14.0256C9.01484 14.0454 9.03417 14.0824 9.07781 14.1339C9.16902 14.2417 9.3402 14.3816 9.61879 14.5208C10.1765 14.7995 11.017 15.0007 12 15.0007C12.983 15.0007 13.8235 14.7995 14.3812 14.5208C14.6598 14.3816 14.831 14.2417 14.9222 14.1339C14.9658 14.0824 14.9852 14.0454 14.9932 14.0256C14.9972 14.0159 14.9988 14.0097 14.9994 14.0068C14.9999 14.004 15 14.0014 15 14.0014C15 14.0014 15 14.0005 14.9999 13.9993C14.9998 13.9983 14.9996 13.9971 14.9994 13.9959L15 13.3193Z" fill="#CED0D6"/>
</svg>
