<svg width="16" height="16" viewBox="0 0 16 16" fill="none" xmlns="http://www.w3.org/2000/svg">
<g clip-path="url(#clip0_6089_49530)">
<path d="M3 3C2.44772 3 2 3.44772 2 4V10.0354C2.1633 10.0121 2.33024 10 2.5 10C3.47934 10 4.36474 10.4022 5 11.0505V3H3Z" fill="#25324D"/>
<path d="M6 2H3C1.89543 2 1 2.89543 1 4V10.3368C1.31085 10.1891 1.64693 10.0859 2 10.0354V4C2 3.44772 2.44772 3 3 3H5V11.0505C5.61859 11.6818 6 12.5463 6 13.5V2Z" fill="#548AF7"/>
<path d="M6 14H13C14.1046 14 15 13.1046 15 12V4C15 2.89543 14.1046 2 13 2H6V3H13C13.5523 3 14 3.44772 14 4V12C14 12.5523 13.5523 13 13 13H6V14Z" fill="#CED0D6"/>
<path fill-rule="evenodd" clip-rule="evenodd" d="M5 13.5C5 14.8807 3.88071 16 2.5 16C1.11929 16 0 14.8807 0 13.5C0 12.1193 1.11929 11 2.5 11C3.88071 11 5 12.1193 5 13.5ZM4 13.5C4 14.3284 3.32843 15 2.5 15C1.67157 15 1 14.3284 1 13.5C1 12.6716 1.67157 12 2.5 12C3.32843 12 4 12.6716 4 13.5Z" fill="#CED0D6"/>
</g>
<defs>
<clipPath id="clip0_6089_49530">
<rect width="16" height="16" fill="white"/>
</clipPath>
</defs>
</svg>
