<svg width="16" height="16" viewBox="0 0 16 16" fill="none" xmlns="http://www.w3.org/2000/svg">
<path d="M3.5 5.91421C3.5 5.649 3.60536 5.39464 3.79289 5.20711L7.20711 1.79289C7.39464 1.60536 7.649 1.5 7.91421 1.5H11.5C12.0523 1.5 12.5 1.94772 12.5 2.5V8H10C8.89543 8 8 8.89543 8 10V14.5H4.5C3.94772 14.5 3.5 14.0523 3.5 13.5V5.91421Z" fill="#43454A"/>
<path fill-rule="evenodd" clip-rule="evenodd" d="M6.85355 1.43934C7.13486 1.15803 7.51639 1 7.91421 1H11.5C12.3284 1 13 1.67157 13 2.5V8H12V2.5C12 2.22386 11.7761 2 11.5 2H8V4.5C8 5.32843 7.32843 6 6.5 6H4V13.5C4 13.7761 4.22386 14 4.5 14H8V15H4.5C3.67157 15 3 14.3284 3 13.5V5.91421C3 5.51639 3.15804 5.13486 3.43934 4.85355L6.85355 1.43934ZM4.70711 5L7 2.70711V4.5C7 4.77614 6.77614 5 6.5 5H4.70711Z" fill="#CED0D6"/>
<path fill-rule="evenodd" clip-rule="evenodd" d="M10 9C9.44772 9 9 9.44772 9 10L9 15C9 15.5523 9.44772 16 10 16L15 16C15.5523 16 16 15.5523 16 15L16 10C16 9.44772 15.5523 9.00001 15 9.00001L10 9ZM10 11L10 10H12L12 11H10ZM10 12L10 15H12L12 12H10ZM13 15H15L15 12H13L13 15ZM15 11L15 10H13L13 11H15Z" fill="#548AF7"/>
</svg>
