<svg width="16" height="16" viewBox="0 0 16 16" fill="none" xmlns="http://www.w3.org/2000/svg">
<path d="M2.63333 2C1.73127 2 1 2.83574 1 3.86667V12.1333C1 13.1643 1.73127 14 2.63333 14L7 13.9999V10C7 8.86489 7.8942 8.10644 8.72436 7.69136C9.61434 7.24637 10.7738 7 12 7C13.1032 7 14.1525 7.19944 15 7.56354V6C15 4.89543 14.1046 4 13 4L8.46667 4L6.84336 2.30775C6.65477 2.11115 6.39413 2 6.1217 2H2.63333Z" fill="#43454A"/>
<path d="M6.1217 3L2.63333 3C2.40481 3 2 3.25841 2 3.86667V12.1333C2 12.7416 2.40481 13 2.63333 13H7V14H2.63333C1.73127 14 1 13.1643 1 12.1333V3.86667C1 2.83574 1.73127 2 2.63333 2H6.1217C6.39413 2 6.65477 2.11115 6.84336 2.30775L8.46667 4L13 4C14.1046 4 15 4.89543 15 6V7.56354C14.6911 7.43083 14.3554 7.31999 14 7.23272V6C14 5.44771 13.5523 5 13 5H8.04022L6.1217 3Z" fill="#CED0D6"/>
<path fill-rule="evenodd" clip-rule="evenodd" d="M16 13.9959C16 15.0997 14.2091 16 12 16C9.79086 16 8 15.0997 8 13.9959V9.99864C8 8.89482 9.79086 8 12 8C14.2091 8 16 8.89482 16 9.99864V13.9959ZM15 9.99864C15 9.9997 14.9999 10.0012 14.9994 10.0041C14.9988 10.007 14.9972 10.0132 14.9932 10.0229C14.9852 10.0427 14.9658 10.0796 14.9222 10.1312C14.831 10.2389 14.6598 10.3789 14.3812 10.5181C13.8235 10.7968 12.983 10.998 12 10.998C11.017 10.998 10.1765 10.7968 9.61879 10.5181C9.3402 10.3789 9.16902 10.2389 9.07781 10.1312C9.03417 10.0796 9.01484 10.0427 9.00676 10.0229C9.00277 10.0132 9.00124 10.007 9.00064 10.0041C9.00007 10.0012 9 9.9997 9 9.99864C9 9.99758 9.00007 9.99603 9.00064 9.9932C9.00124 9.99025 9.00277 9.98408 9.00676 9.97435C9.01484 9.95462 9.03417 9.91764 9.07781 9.86608C9.16902 9.75833 9.3402 9.61841 9.61879 9.47921C10.1765 9.20053 11.017 8.99932 12 8.99932C12.983 8.99932 13.8235 9.20053 14.3812 9.47921C14.6598 9.61841 14.831 9.75833 14.9222 9.86608C14.9658 9.91764 14.9852 9.95462 14.9932 9.97435C14.9972 9.98408 14.9988 9.99025 14.9994 9.9932C14.9999 9.99603 15 9.99758 15 9.99864ZM15 11.3207C14.2671 11.7356 13.1947 11.9973 12 11.9973C10.8053 11.9973 9.73294 11.7356 9 11.3207V11.9919C8.99942 11.9947 9 11.9973 9 11.9973C9 11.9973 9.00007 11.9999 9.00064 12.0027C9.00124 12.0057 9.00277 12.0118 9.00676 12.0216C9.01484 12.0413 9.03417 12.0783 9.07781 12.1298C9.16902 12.2376 9.3402 12.3775 9.61879 12.5167C10.1765 12.7954 11.017 12.9966 12 12.9966C12.983 12.9966 13.8235 12.7954 14.3812 12.5167C14.6598 12.3775 14.831 12.2376 14.9222 12.1298C14.9658 12.0783 14.9852 12.0413 14.9932 12.0216C14.9972 12.0118 14.9988 12.0057 14.9994 12.0027C14.9999 11.9999 15 11.9973 15 11.9973C15 11.9973 14.9999 11.9947 14.9994 11.9919L15 11.3207ZM15 13.3193C14.2671 13.7342 13.1947 13.9959 12 13.9959C10.8053 13.9959 9.73294 13.7342 9 13.3193V13.9959C8.99942 13.9988 9 14.0014 9 14.0014C9 14.0014 9.00007 14.004 9.00064 14.0068C9.00124 14.0097 9.00277 14.0159 9.00676 14.0256C9.01484 14.0454 9.03417 14.0824 9.07781 14.1339C9.16902 14.2417 9.3402 14.3816 9.61879 14.5208C10.1765 14.7995 11.017 15.0007 12 15.0007C12.983 15.0007 13.8235 14.7995 14.3812 14.5208C14.6598 14.3816 14.831 14.2417 14.9222 14.1339C14.9658 14.0824 14.9852 14.0454 14.9932 14.0256C14.9972 14.0159 14.9988 14.0097 14.9994 14.0068C14.9999 14.004 15 14.0014 15 14.0014C15 14.0014 15 14.0005 14.9999 13.9993C14.9998 13.9983 14.9996 13.9971 14.9994 13.9959L15 13.3193Z" fill="#548AF7"/>
</svg>
