<svg width="16" height="16" viewBox="0 0 16 16" fill="none" xmlns="http://www.w3.org/2000/svg">
<circle cx="8" cy="8" r="6.5" fill="#253627" stroke="#57965C"/>
<path d="M9.50132 4.01196H10.4621V11.362H9.50132V4.01196ZM7.57982 11.488C7.08632 11.488 6.64532 11.369 6.25682 11.131C5.87182 10.893 5.57082 10.5605 5.35382 10.1335C5.13682 9.70646 5.02832 9.21996 5.02832 8.67396C5.02832 8.12796 5.13682 7.64146 5.35382 7.21446C5.57082 6.78746 5.87182 6.45496 6.25682 6.21696C6.64532 5.97896 7.08632 5.85996 7.57982 5.85996C8.03482 5.85996 8.43557 5.96146 8.78207 6.16446C9.13207 6.36396 9.40332 6.64746 9.59582 7.01496C9.79182 7.37896 9.89332 7.80246 9.90032 8.28546H9.54332V9.06246H9.90032C9.89332 9.54546 9.79182 9.97071 9.59582 10.3382C9.40332 10.7022 9.13207 10.9857 8.78207 11.1887C8.43557 11.3882 8.03482 11.488 7.57982 11.488ZM7.76357 10.6217C8.10307 10.6217 8.40582 10.5395 8.67182 10.375C8.93782 10.2105 9.14432 9.98121 9.29132 9.68721C9.43832 9.39321 9.51182 9.05546 9.51182 8.67396C9.51182 8.29246 9.43832 7.95471 9.29132 7.66071C9.14432 7.36671 8.93782 7.13746 8.67182 6.97296C8.40582 6.80846 8.10307 6.72621 7.76357 6.72621C7.42407 6.72621 7.12307 6.80846 6.86057 6.97296C6.59807 7.13746 6.39332 7.36671 6.24632 7.66071C6.10282 7.95471 6.03107 8.29246 6.03107 8.67396C6.03107 9.05546 6.10282 9.39321 6.24632 9.68721C6.39332 9.98121 6.59807 10.2105 6.86057 10.375C7.12307 10.5395 7.42407 10.6217 7.76357 10.6217Z" fill="#57965C"/>
</svg>
