<svg width="16" height="16" viewBox="0 0 16 16" fill="none" xmlns="http://www.w3.org/2000/svg">
<path fill-rule="evenodd" clip-rule="evenodd" d="M12.4744 5.65567C12.4429 5.87512 12.6916 6.29024 12.6916 6.29024C12.7085 6.35383 12.7484 6.43268 12.7924 6.51957C12.8253 6.58456 12.8605 6.65419 12.8902 6.72535C12.9367 6.83719 12.9926 6.95302 13.0488 7.06145C12.7082 7.02088 12.3569 7 12 7C10.7738 7 9.61434 7.24637 8.72436 7.69136C8.62261 7.74223 8.51991 7.79826 8.418 7.85951C8.31101 7.02687 8.37615 6.73877 8.49929 6.28464L8.44087 6.296C7.8825 6.4046 7.3163 6.51472 6.71815 6.69636C6.7083 6.69482 6.6978 6.69509 6.68663 6.69743C6.51853 6.73269 5.89098 6.88341 5.73094 6.96339C5.54022 7.01443 5.36654 7.04294 5.17766 7.07396C5.00612 7.10213 4.82204 7.13235 4.60128 7.18338C4.4505 7.20041 3.32133 7.12772 3.28505 7.09661C3.20796 6.99737 3.18937 6.9071 3.16618 6.7945C3.14218 6.67792 3.11325 6.53742 3.00938 6.33828C2.91954 6.16604 2.56813 5.82717 2.4172 5.68875C1.92318 5.23567 1.83099 4.97036 1.71264 4.50615C1.70682 4.47934 1.69914 4.45235 1.69086 4.42324C1.65679 4.30347 1.61252 4.14781 1.64528 3.82156C1.69073 3.67695 1.69048 3.56385 1.69025 3.46241C1.68988 3.2953 1.68957 3.15983 1.89378 2.96723C2.02303 2.96916 2.14734 2.96297 2.26621 2.95706C2.46139 2.94735 2.6419 2.93837 2.80555 2.96723C2.8334 2.97153 2.86819 2.97533 2.9084 2.97972C3.04262 2.99437 3.23738 3.01563 3.43702 3.08428C3.47901 3.09872 3.58395 3.13631 3.7202 3.18511C4.14915 3.33875 4.88834 3.60351 4.95034 3.60697C5.15923 3.61862 4.1217 3.11259 3.7268 2.91997L3.6425 2.87881C3.47743 2.79792 3.36828 2.75299 3.30116 2.72537C3.24303 2.70145 3.21644 2.6905 3.21236 2.68041C3.64288 2.44692 3.76875 2.28477 3.91211 2.1001C3.99909 1.98805 4.09251 1.86771 4.26433 1.71811C4.3574 1.68071 4.42506 1.6278 4.48724 1.57915C4.564 1.51912 4.63242 1.4656 4.73002 1.45581C4.88742 1.47878 5.02861 1.4965 5.15895 1.51285C5.53925 1.56056 5.82719 1.59669 6.1562 1.71811C6.88496 1.98706 7.56753 2.31431 8.07413 2.56441C8.21105 2.63314 8.33901 2.69495 8.46228 2.75449C8.6363 2.83855 8.80112 2.91817 8.96895 3.00654C9.22031 3.08285 10.0541 3.61144 10.2761 3.89643C10.5015 4.33591 10.683 4.81064 10.8332 5.26873C10.8368 5.28457 10.8406 5.30259 10.8449 5.3228C10.8652 5.4192 10.8959 5.56525 10.9725 5.76096C11.0303 5.90898 11.2192 6.29024 11.2192 6.29024C11.2192 6.29024 11.0453 5.23717 11.0269 5.17791C10.9343 4.88004 10.8466 4.49417 10.7775 4.19056C10.7163 3.92137 10.6698 3.71676 10.6476 3.69533C10.5145 3.54072 10.0075 3.14861 9.66703 2.96723C9.63681 2.95113 9.60821 2.93647 9.58207 2.92306C9.4968 2.87934 9.43757 2.84897 9.43341 2.82589C9.45282 2.80779 9.4699 2.79165 9.48553 2.77688C9.55751 2.70887 9.59903 2.66963 9.69798 2.59959C9.7287 2.57785 9.75868 2.55417 9.78918 2.53009C9.87332 2.46365 9.96137 2.39412 10.0795 2.35364C10.1076 2.34196 10.1357 2.32962 10.164 2.31726C10.2663 2.27245 10.3693 2.22735 10.4709 2.21247C10.9403 2.14371 11.3794 2.23598 11.5812 2.40025C11.9892 2.73245 12.5442 3.41298 12.7932 3.85306C12.8907 4.02888 12.9354 4.14465 12.8902 4.35637C12.8472 4.55689 12.8069 4.67201 12.7608 4.80371L12.7529 4.82633C12.7422 4.85683 12.7232 4.90865 12.6998 4.97207L12.6993 4.97356C12.6144 5.20459 12.4736 5.58756 12.4744 5.65567ZM10.0486 5.66464C9.9518 5.5943 9.85921 5.45226 9.75939 5.29914C9.61077 5.07115 9.44614 4.81859 9.22767 4.74157C9.12085 4.73332 9.0354 4.71787 8.95447 4.70324C8.7793 4.67157 8.62525 4.64372 8.32124 4.7009C8.37278 4.67706 8.42341 4.65108 8.47403 4.62512C8.58173 4.56986 8.68945 4.5146 8.80602 4.47986C8.89806 4.4598 8.98558 4.47327 9.0731 4.48674C9.09594 4.49025 9.11879 4.49377 9.14172 4.49669C9.16907 4.48475 9.18699 4.46991 9.1803 4.44748C8.89678 4.28575 8.42434 4.22505 7.95861 4.1652C7.68938 4.1306 7.42239 4.0963 7.19542 4.04293C7.36133 4.04805 7.53131 4.05004 7.70129 4.05202C8.26807 4.05864 8.83485 4.06526 9.2506 4.18833C9.56074 4.44239 9.72144 4.85658 9.86884 5.23648C9.92797 5.38888 9.98499 5.53584 10.0486 5.66464Z" fill="#FDEE21"/>
<path d="M7.48076 8.66123C7.20027 8.15441 6.9532 7.63452 6.78184 7.11452C6.4741 7.17995 6.16846 7.26495 5.90488 7.42952C5.84838 7.4509 5.66931 7.67967 5.62128 7.74853C5.45713 7.98389 5.35379 8.23147 5.29159 8.48327C5.53193 9.09349 6.00395 9.86734 7 10.4274V10C7 9.47395 7.19205 9.0288 7.48076 8.66123Z" fill="#FDEE21"/>
<path d="M7 12.3597C6.72673 12.2995 6.46595 12.2233 6.22422 12.1305L6.25097 12.1588C6.50727 12.3998 6.73456 12.5741 7 12.7467V12.3597Z" fill="#FDEE21"/>
<path d="M3.43566 1.89322C3.52722 1.79009 3.62545 1.67945 3.75281 1.55776C3.85126 1.4637 3.92842 1.38692 3.99325 1.32241C4.1492 1.16723 4.23378 1.08307 4.37175 1C4.86565 1.03567 5.5742 1.12893 6.25147 1.35337C7.06194 1.62196 7.82763 2.01238 8.12705 2.16505C8.16673 2.18528 8.19854 2.2015 8.22082 2.21251C8.23001 2.21738 8.24658 2.22759 8.27096 2.24262C8.3792 2.30936 8.64138 2.47099 9.09517 2.68046C9.21881 2.60811 9.30082 2.53269 9.38472 2.45554C9.47134 2.37589 9.55997 2.29439 9.69848 2.21251C9.87174 2.11008 10.224 1.99524 10.4768 1.94663L10.5147 1.9399C10.7222 1.9027 11.0242 1.84852 11.5398 2.0632C12.0628 2.28095 12.3452 2.65672 12.675 3.09559L12.7226 3.15894C13.0737 3.62487 13.2974 4.13267 13.2948 4.27155C13.2974 4.33416 13.2734 4.38327 13.2393 4.45305C13.2308 4.47046 13.2217 4.48924 13.2122 4.50975C13.1917 4.56194 13.1714 4.61292 13.1513 4.66312C13.0151 5.0048 12.8932 5.31064 12.8224 5.71531C12.8147 5.7718 13.0084 6.18342 13.0396 6.22789C13.0421 6.23137 13.0436 6.23268 13.0438 6.23102C13.0438 6.23102 13.3038 6.72831 13.337 6.77525C13.3575 6.81105 13.384 6.85615 13.4147 6.9081C13.4538 6.97451 13.4997 7.05246 13.5477 7.13632C13.3846 7.10663 13.2183 7.08165 13.0493 7.06151C12.9931 6.95307 12.9372 6.83724 12.8907 6.72539C12.861 6.65421 12.8258 6.58462 12.7929 6.51961C12.7489 6.43273 12.709 6.35387 12.6921 6.29028C12.6921 6.29028 12.4434 5.87516 12.4749 5.65572C12.4741 5.5876 12.6149 5.20462 12.6998 4.97359C12.7232 4.90981 12.7427 4.857 12.7534 4.82637L12.7613 4.80375C12.8074 4.67205 12.8477 4.55694 12.8907 4.35641C12.9359 4.1447 12.8912 4.02893 12.7937 3.8531C12.5447 3.41302 11.9897 2.73249 11.5817 2.4003C11.3799 2.23602 10.9408 2.14375 10.4714 2.21251C10.3698 2.22739 10.2668 2.27249 10.1645 2.3173C10.1362 2.32966 10.1081 2.34201 10.08 2.35368C9.96187 2.39416 9.87382 2.46369 9.78968 2.53013C9.75918 2.55422 9.7292 2.57789 9.69848 2.59963C9.59953 2.66967 9.55801 2.70891 9.48603 2.77692C9.47039 2.79169 9.45332 2.80783 9.4339 2.82593C9.43807 2.84902 9.4973 2.87939 9.58257 2.92311C9.60872 2.93651 9.63731 2.95118 9.66753 2.96727C10.008 3.14865 10.515 3.54077 10.6481 3.69537C10.6703 3.71681 10.7168 3.9214 10.778 4.19056C10.8471 4.49417 10.9348 4.88009 11.0274 5.17795C11.0458 5.23722 11.2197 6.29028 11.2197 6.29028C11.2197 6.29028 11.0308 5.90903 10.973 5.761C10.8964 5.56529 10.8657 5.41924 10.8454 5.32284C10.8411 5.30264 10.8373 5.28461 10.8337 5.26877C10.6835 4.81068 10.502 4.33595 10.2765 3.89647C10.0546 3.61148 9.2208 3.0829 8.96945 3.00658C8.80162 2.91821 8.63681 2.8386 8.46278 2.75454C8.33951 2.69499 8.21155 2.63318 8.07463 2.56445C7.56803 2.31435 6.88546 1.9871 6.1567 1.71815C5.82769 1.59673 5.53975 1.5606 5.15945 1.51289C5.02911 1.49654 4.88792 1.47883 4.73052 1.45585C4.63292 1.46564 4.5645 1.51916 4.48774 1.5792C4.42555 1.62784 4.3579 1.68076 4.26483 1.71815C4.09301 1.86775 3.99959 1.9881 3.91261 2.10015C3.76925 2.28481 3.64338 2.44696 3.21286 2.68046C3.21694 2.69054 3.24353 2.70149 3.30166 2.72541C3.36878 2.75304 3.47793 2.79796 3.643 2.87885L3.72729 2.92002C4.1222 3.11263 5.15973 3.61867 4.95084 3.60701C4.88884 3.60355 4.14965 3.33879 3.7207 3.18515C3.58445 3.13635 3.47951 3.09876 3.43752 3.08432C3.23788 3.01567 3.04312 2.99441 2.9089 2.97976C2.86868 2.97537 2.8339 2.97157 2.80605 2.96727C2.6424 2.93842 2.46189 2.9474 2.2667 2.9571C2.14784 2.96302 2.02353 2.9692 1.89428 2.96727C1.69007 3.15988 1.69037 3.29535 1.69075 3.46246C1.69098 3.56389 1.69123 3.67699 1.64578 3.8216C1.61301 4.14785 1.65729 4.30352 1.69136 4.42328C1.69964 4.45239 1.70732 4.47938 1.71314 4.50619C1.83149 4.9704 1.92368 5.23571 2.4177 5.68879C2.56863 5.82721 2.92003 6.16608 3.00987 6.33832C3.11375 6.53747 3.14268 6.67797 3.16668 6.79454C3.18987 6.90714 3.20846 6.99741 3.28555 7.09665C3.32183 7.12776 4.451 7.20045 4.60178 7.18342C4.82254 7.1324 5.00662 7.10217 5.17816 7.074C5.36703 7.04299 5.54072 7.01447 5.73144 6.96343C5.89148 6.88345 6.51903 6.73273 6.68713 6.69747C6.6983 6.69513 6.7088 6.69486 6.71865 6.6964C7.3168 6.51476 7.88299 6.40464 8.44137 6.29605L8.49979 6.28468C8.37666 6.73876 8.31152 7.02683 8.41846 7.85924C8.07419 8.0661 7.73905 8.33253 7.48104 8.66088C7.20064 8.15418 6.95366 7.63443 6.78234 7.11456C6.4746 7.17999 6.16896 7.26499 5.90538 7.42956C5.84888 7.45094 5.66981 7.67971 5.62178 7.74857C5.45762 7.98393 5.35429 8.23152 5.29208 8.48331C5.53238 9.09343 6.00429 9.86713 7 10.4272V12.3596C6.72691 12.2994 6.4663 12.2233 6.22472 12.1305L6.25147 12.1589C6.50761 12.3997 6.73478 12.5739 7 12.7465V13.2767C6.3697 12.9279 5.89682 12.5176 5.62178 12.1589C5.45521 11.9416 5.21337 11.4987 5.13168 11.2922C4.95318 10.8409 4.84531 10.4464 4.78832 9.9706C4.69925 9.02144 4.72785 8.41302 5.15531 7.74857C5.1798 7.7105 5.23626 7.65046 5.29387 7.58919C5.36802 7.51033 5.44411 7.42942 5.4565 7.39061C5.34865 7.42952 5.34168 7.43076 5.29759 7.43857C5.2719 7.44312 5.23354 7.44992 5.15531 7.4677C4.96432 7.52868 4.74095 7.56699 4.53978 7.60149L4.45737 7.61569C4.29706 7.63112 4.12787 7.64022 4.00467 7.63863C3.9124 7.63131 3.81642 7.62628 3.72101 7.62128C3.52199 7.61084 3.32534 7.60053 3.16948 7.56982C3.06269 7.54807 3.00161 7.46279 2.96194 7.39061C2.91611 7.29578 2.88377 7.20945 2.85172 7.12389C2.80682 7.00403 2.76248 6.88568 2.68244 6.74763C2.50127 6.38284 2.24686 6.08671 1.80559 5.68879C1.50873 5.40132 1.3315 5.03356 1.19592 4.62242C1.10497 4.34661 1.09679 4.05127 1.17825 3.74756C1.21565 3.63487 1.2348 3.49698 1.25443 3.3557C1.28646 3.12513 1.31974 2.88553 1.43564 2.73167C1.60611 2.54346 1.86241 2.41319 2.04626 2.50508C2.20501 2.52348 2.28573 2.51689 2.3653 2.51039C2.39022 2.50836 2.41503 2.50633 2.44208 2.50508C2.68291 2.49211 2.87448 2.40802 2.94274 2.35368C3.15442 2.20998 3.28614 2.06162 3.43566 1.89322Z" fill="black"/>
<path d="M13.0438 6.23102C13.0439 6.22953 13.0425 6.2285 13.0396 6.22789L13.0438 6.23102Z" fill="black"/>
<path d="M9.75989 5.29918C9.85971 5.4523 9.9523 5.59434 10.0491 5.66469C9.98549 5.53588 9.92846 5.38892 9.86934 5.23652C9.72194 4.85662 9.56124 4.44243 9.2511 4.18837C8.83535 4.0653 8.26857 4.05868 7.70179 4.05207C7.53181 4.05008 7.36183 4.04809 7.19592 4.04297C7.42289 4.09634 7.68988 4.13065 7.95911 4.16524C8.42484 4.22509 8.89727 4.28579 9.1808 4.44753C9.18749 4.46996 9.16957 4.4848 9.14222 4.49673C9.11929 4.49381 9.09644 4.49029 9.07359 4.48678C8.98608 4.47331 8.89856 4.45984 8.80652 4.4799C8.68995 4.51464 8.58225 4.56989 8.47455 4.62515C8.42392 4.65112 8.37329 4.6771 8.32174 4.70094C8.62575 4.64376 8.7798 4.67161 8.95497 4.70328C9.0359 4.71791 9.12135 4.73336 9.22817 4.74161C9.44664 4.81863 9.61127 5.07119 9.75989 5.29918Z" fill="black"/>
<path fill-rule="evenodd" clip-rule="evenodd" d="M16 13.9959C16 15.0997 14.2091 16 12 16C9.79086 16 8 15.0997 8 13.9959V9.99864C8 8.89482 9.79086 8 12 8C14.2091 8 16 8.89482 16 9.99864V13.9959ZM15 9.99864C15 9.9997 14.9999 10.0012 14.9994 10.0041C14.9988 10.007 14.9972 10.0132 14.9932 10.0229C14.9852 10.0427 14.9658 10.0796 14.9222 10.1312C14.831 10.2389 14.6598 10.3789 14.3812 10.5181C13.8235 10.7968 12.983 10.998 12 10.998C11.017 10.998 10.1765 10.7968 9.61879 10.5181C9.3402 10.3789 9.16902 10.2389 9.07781 10.1312C9.03417 10.0796 9.01484 10.0427 9.00676 10.0229C9.00277 10.0132 9.00124 10.007 9.00064 10.0041C9.00007 10.0012 9 9.9997 9 9.99864C9 9.99758 9.00007 9.99603 9.00064 9.9932C9.00124 9.99025 9.00277 9.98408 9.00676 9.97435C9.01484 9.95462 9.03417 9.91764 9.07781 9.86608C9.16902 9.75833 9.3402 9.61841 9.61879 9.47921C10.1765 9.20053 11.017 8.99932 12 8.99932C12.983 8.99932 13.8235 9.20053 14.3812 9.47921C14.6598 9.61841 14.831 9.75833 14.9222 9.86608C14.9658 9.91764 14.9852 9.95462 14.9932 9.97435C14.9972 9.98408 14.9988 9.99025 14.9994 9.9932C14.9999 9.99603 15 9.99758 15 9.99864ZM15 11.3207C14.2671 11.7356 13.1947 11.9973 12 11.9973C10.8053 11.9973 9.73294 11.7356 9 11.3207V11.9919C8.99942 11.9947 9 11.9973 9 11.9973C9 11.9973 9.00007 11.9999 9.00064 12.0027C9.00124 12.0057 9.00277 12.0118 9.00676 12.0216C9.01484 12.0413 9.03417 12.0783 9.07781 12.1298C9.16902 12.2376 9.3402 12.3775 9.61879 12.5167C10.1765 12.7954 11.017 12.9966 12 12.9966C12.983 12.9966 13.8235 12.7954 14.3812 12.5167C14.6598 12.3775 14.831 12.2376 14.9222 12.1298C14.9658 12.0783 14.9852 12.0413 14.9932 12.0216C14.9972 12.0118 14.9988 12.0057 14.9994 12.0027C14.9999 11.9999 15 11.9973 15 11.9973C15 11.9973 14.9999 11.9947 14.9994 11.9919L15 11.3207ZM15 13.3193C14.2671 13.7342 13.1947 13.9959 12 13.9959C10.8053 13.9959 9.73294 13.7342 9 13.3193V13.9959C8.99942 13.9988 9 14.0014 9 14.0014C9 14.0014 9.00007 14.004 9.00064 14.0068C9.00124 14.0097 9.00277 14.0159 9.00676 14.0256C9.01484 14.0454 9.03417 14.0824 9.07781 14.1339C9.16902 14.2417 9.3402 14.3816 9.61879 14.5208C10.1765 14.7995 11.017 15.0007 12 15.0007C12.983 15.0007 13.8235 14.7995 14.3812 14.5208C14.6598 14.3816 14.831 14.2417 14.9222 14.1339C14.9658 14.0824 14.9852 14.0454 14.9932 14.0256C14.9972 14.0159 14.9988 14.0097 14.9994 14.0068C14.9999 14.004 15 14.0014 15 14.0014C15 14.0014 15 14.0005 14.9999 13.9993C14.9998 13.9983 14.9996 13.9971 14.9994 13.9959L15 13.3193Z" fill="#6C707E"/>
</svg>
