<svg width="16" height="16" viewBox="0 0 16 16" fill="none" xmlns="http://www.w3.org/2000/svg">
<path d="M7 2C6.72386 2 6.5 2.22386 6.5 2.5V3.47426C6.5 3.75041 6.72386 3.97426 7 3.97426H8C8.27614 3.97426 8.5 3.75041 8.5 3.47426V2.5C8.5 2.22386 8.27614 2 8 2H7Z" fill="#3574F0"/>
<path d="M4.5 6.5C4.5 6.22386 4.72386 6 5 6H7.5C7.77614 6 8 6.22386 8 6.5V14H10.5C10.7761 14 11 14.2239 11 14.5C11 14.7761 10.7761 15 10.5 15H4.5C4.22386 15 4 14.7761 4 14.5C4 14.2239 4.22386 14 4.5 14H7V7H5C4.72386 7 4.5 6.77614 4.5 6.5Z" fill="#3574F0"/>
</svg>
