<svg width="16" height="16" viewBox="0 0 16 16" fill="none" xmlns="http://www.w3.org/2000/svg">
<g clip-path="url(#clip0_2624_36059)">
<path fill-rule="evenodd" clip-rule="evenodd" d="M14 6H11V9H10V6H6V9H5V6H2V12C2 12.5523 2.44772 13 3 13H4V14H3C1.89543 14 1 13.1046 1 12V4C1 2.89543 1.89543 2 3 2H13C14.1046 2 15 2.89543 15 4V9H14V6ZM5 3H3C2.44772 3 2 3.44772 2 4V5H5V3ZM6 3V5H10V3H6ZM11 3V5H14V4C14 3.44772 13.5523 3 13 3H11Z" fill="#CED0D6"/>
<path fill-rule="evenodd" clip-rule="evenodd" d="M6.50013 10C6.70459 10 6.88844 10.1245 6.96437 10.3143L8.50013 14.1537L10.0359 10.3143C10.1118 10.1245 10.2957 10 10.5001 10C10.7046 10 10.8884 10.1245 10.9644 10.3143L12.5001 14.1537L14.0359 10.3143C14.1118 10.1245 14.2957 10 14.5001 10C14.7046 10 14.8884 10.1245 14.9644 10.3143L15.9644 12.8143C16.0669 13.0707 15.9422 13.3617 15.6858 13.4642C15.4294 13.5668 15.1385 13.4421 15.0359 13.1857L14.5001 11.8463L12.9644 15.6857C12.8884 15.8755 12.7046 16 12.5001 16C12.2957 16 12.1118 15.8755 12.0359 15.6857L10.5001 11.8463L8.96437 15.6857C8.88844 15.8755 8.70459 16 8.50013 16C8.29568 16 8.11183 15.8755 8.03589 15.6857L6.50013 11.8463L5.96437 13.1857C5.86181 13.4421 5.57083 13.5668 5.31444 13.4642C5.05805 13.3617 4.93334 13.0707 5.03589 12.8143L6.03589 10.3143C6.11183 10.1245 6.29568 10 6.50013 10Z" fill="#548AF7"/>
</g>
<defs>
<clipPath id="clip0_2624_36059">
<rect width="16" height="16" fill="white"/>
</clipPath>
</defs>
</svg>
