<svg width="16" height="16" viewBox="0 0 16 16" fill="none" xmlns="http://www.w3.org/2000/svg">
<path d="M12.9254 16C12.2971 16 11.7294 15.8476 11.2224 15.5429C10.7154 15.2382 10.3167 14.8203 10.0264 14.2892C9.74041 13.7537 9.59741 13.1573 9.59741 12.5C9.59741 11.8427 9.74041 11.2484 10.0264 10.7174C10.3167 10.1819 10.7154 9.76182 11.2224 9.45709C11.7294 9.15236 12.2971 9 12.9254 9C13.4584 9 13.9372 9.09142 14.3619 9.27425C14.7866 9.45274 15.1397 9.72264 15.4214 10.084C15.7031 10.4409 15.8959 10.8806 15.9999 11.403H14.9599C14.8646 11.0808 14.7151 10.8109 14.5114 10.5933C14.3077 10.3756 14.0694 10.2146 13.7964 10.1101C13.5234 10.0012 13.2331 9.94683 12.9254 9.94683C12.4964 9.94683 12.1107 10.0557 11.7684 10.2733C11.4304 10.491 11.1661 10.7935 10.9754 11.181C10.7847 11.5684 10.6894 12.0081 10.6894 12.5C10.6894 12.9876 10.7847 13.4251 10.9754 13.8125C11.1661 14.1999 11.4304 14.5047 11.7684 14.7267C12.1107 14.9443 12.4964 15.0532 12.9254 15.0532C13.2331 15.0532 13.5234 15.0009 13.7964 14.8965C14.0694 14.7876 14.3077 14.6244 14.5114 14.4067C14.7151 14.1891 14.8646 13.9192 14.9599 13.597H15.9999C15.9002 14.102 15.7052 14.5351 15.4149 14.8965C15.1246 15.2578 14.7649 15.532 14.3359 15.7192C13.9069 15.9064 13.4367 16 12.9254 16Z" fill="#548AF7"/>
<path d="M9.22003 14.894C8.82384 14.9637 8.41616 15 8 15C4.13401 15 1 11.866 1 8C1 4.13401 4.13401 1 8 1C11.866 1 15 4.13401 15 8C15 8.1549 14.995 8.30862 14.9851 8.46102C14.9095 8.42297 14.8323 8.38731 14.7535 8.35406C14.5105 8.24977 14.2586 8.16978 13.999 8.11245C13.9997 8.07505 14 8.03757 14 8C14 4.68629 11.3137 2 8 2C4.68629 2 2 4.68629 2 8C2 11.3137 4.68629 14 8 14C8.27351 14 8.54275 13.9817 8.80655 13.9463C8.89216 14.2266 9.00451 14.4983 9.14444 14.7603L9.14905 14.7689C9.17214 14.8111 9.19581 14.8528 9.22003 14.894Z" fill="#CED0D6"/>
<path fill-rule="evenodd" clip-rule="evenodd" d="M7.9918 11C6.22951 11 5 9.64917 5 8.01657V8C5 6.3674 6.2459 5 8.0082 5C9.77049 5 11 6.35083 11 7.98343V8C11 9.6326 9.7541 11 7.9918 11ZM8.0082 10.0552C9.14754 10.0552 9.94262 9.14365 9.94262 8.01657V8C9.94262 6.87293 9.13115 5.94475 7.9918 5.94475C6.85246 5.94475 6.05738 6.85635 6.05738 7.98343V8C6.05738 9.12707 6.86885 10.0552 8.0082 10.0552Z" fill="#CED0D6"/>
</svg>
