<svg width="16" height="16" viewBox="0 0 16 16" fill="none" xmlns="http://www.w3.org/2000/svg">
<path d="M8 9.50399C8 7.54109 10.1585 6.34387 11.8237 7.38319L14.8811 9.29147C14.9592 8.87289 15 8.44121 15 8C15 4.13401 11.866 1 8 1C4.13401 1 1 4.13401 1 8C1 11.866 4.13401 15 8 15C8.01618 15 8.03234 14.9999 8.04849 14.9998C8.01677 14.8397 8 14.6727 8 14.4997V9.50399Z" fill="#25324D"/>
<path d="M8 14C4.68629 14 2 11.3137 2 8C2 4.68629 4.68629 2 8 2C11.3137 2 14 4.68629 14 8C14 8.24201 13.9857 8.48068 13.9578 8.7152L14.8811 9.29147C14.9592 8.87289 15 8.44121 15 8C15 4.13401 11.866 1 8 1C4.13401 1 1 4.13401 1 8C1 11.866 4.13401 15 8 15V14Z" fill="#548AF7"/>
<path fill-rule="evenodd" clip-rule="evenodd" d="M9 9.50215C9 8.32441 10.2951 7.60608 11.2942 8.22967L15.2962 10.7275C16.2372 11.3149 16.2372 12.6851 15.2962 13.2725L11.2942 15.7703C10.2951 16.3939 9 15.6756 9 14.4978V9.50215ZM10.7647 9.07799C10.4317 8.87013 10 9.10957 10 9.50215V14.4978C10 14.8904 10.4317 15.1298 10.7647 14.922L14.7667 12.4241C15.0804 12.2284 15.0804 11.7716 14.7667 11.5758L10.7647 9.07799Z" fill="#57965C"/>
<path d="M10 9.50214C10 9.10956 10.4317 8.87012 10.7647 9.07798L14.7667 11.5758C15.0804 11.7716 15.0804 12.2284 14.7667 12.4241L10.7647 14.922C10.4317 15.1298 10 14.8904 10 14.4978V9.50214Z" fill="#253627"/>
<path d="M5.99902 4.97998H8.51882C8.92589 4.97998 9.28279 5.05451 9.58952 5.20358C9.89912 5.35265 10.1371 5.56478 10.3033 5.83998C10.4725 6.11518 10.557 6.43338 10.557 6.79458C10.557 7.15865 10.471 7.47828 10.299 7.75348C10.1299 8.02868 9.88909 8.24225 9.57662 8.39418C9.26416 8.54611 8.90009 8.62208 8.48442 8.62208H6.97942V11H5.99902V4.97998ZM8.47582 7.77498C8.68796 7.77498 8.87429 7.73628 9.03482 7.65888C9.19536 7.57861 9.31862 7.46538 9.40462 7.31918C9.49062 7.17011 9.53362 6.99668 9.53362 6.79888C9.53362 6.60108 9.49062 6.42908 9.40462 6.28288C9.31862 6.13668 9.19536 6.02488 9.03482 5.94748C8.87429 5.86721 8.68796 5.82708 8.47582 5.82708H6.97942V7.77498H8.47582Z" fill="#548AF7"/>
</svg>
