<svg width="16" height="16" viewBox="0 0 16 16" fill="none" xmlns="http://www.w3.org/2000/svg">
<path d="M7 13.7409V9.99998C7 8.99714 7.69795 8.28829 8.43307 7.85048C8.0891 7.81512 7.76891 7.89227 7.22777 8.0864C6.3621 8.39697 1.00024 9.56423 1.00024 9.56423V10.9793C1.00024 11.1206 1.19518 11.2703 1.56603 11.4474C1.94919 11.6306 3.23299 12.1629 4.47462 12.6777C5.55607 13.1261 6.60551 13.5613 7 13.7409Z" fill="#A42122"/>
<path d="M7 12.3253V10C7 8.86493 7.8942 8.10649 8.72436 7.69141C9.10813 7.49952 9.54203 7.34457 10.0098 7.23037C9.60918 7.07431 9.29348 6.95268 9.13032 6.89292C8.39368 6.62297 8.09335 6.63435 7.22779 6.94476C6.41463 7.23648 2.75176 8.67195 1.70592 9.08181C1.63828 9.10832 1.58159 9.13054 1.53732 9.14788C0.808512 9.43318 0.824055 9.67733 1.56597 10.0319C1.94901 10.2149 3.23205 10.7469 4.47328 11.2616C5.55522 11.7102 6.60538 12.1457 7 12.3253Z" fill="#D82F27"/>
<path d="M14.9996 7.56341C14.1522 7.19941 13.103 7.00003 12 7.00003C10.7738 7.00003 9.61434 7.2464 8.72436 7.69139C7.8942 8.10647 7 8.86492 7 10V11.4332C6.60569 11.2537 5.5571 10.8189 4.47623 10.3708C3.2341 9.85574 1.94936 9.32303 1.56603 9.13983C1.19518 8.96254 1.00024 8.81322 1.00024 8.67192V7.25658C1.00024 7.25658 6.3621 6.08938 7.22777 5.77879C8.09341 5.46829 8.39365 5.457 9.1303 5.72687C9.49972 5.86218 10.7914 6.12942 12.0793 6.39589C13.3599 6.66084 14.6368 6.92503 14.9998 7.05799L14.9996 7.56341Z" fill="#A42122"/>
<path d="M14.6416 7.42356C13.8647 7.14863 12.9524 6.99997 12 6.99997C10.7738 6.99997 9.61434 7.24634 8.72436 7.69133C7.8942 8.10641 7 8.86486 7 9.99997V10.0179C6.60552 9.83829 5.55592 9.40305 4.47437 8.95455C3.2328 8.43971 1.94912 7.9074 1.56597 7.72433C0.824055 7.36979 0.808512 7.12572 1.53732 6.8402C1.59393 6.81804 1.67085 6.7879 1.765 6.75102C2.88289 6.31306 6.42929 4.92369 7.22779 4.63731C8.09335 4.32681 8.39368 4.31552 9.13032 4.58539C9.50021 4.72086 10.6541 5.1743 11.8037 5.62602C12.9438 6.07402 14.0797 6.52034 14.4422 6.65316C15.1018 6.89486 15.1868 7.09798 14.6416 7.42356Z" fill="#D82F27"/>
<path d="M13.2678 7.0904C13.8112 6.85325 14.2474 6.65756 14.4512 6.55133C14.8315 6.35314 14.9995 6.19968 14.9994 6.05992L14.9998 4.66483C14.6368 4.53186 13.3599 4.26768 12.0793 4.00273C10.7914 3.73626 9.49972 3.46901 9.1303 3.33371C8.39365 3.06384 8.09341 3.07505 7.22777 3.38564C6.3621 3.69613 1.00024 4.86335 1.00024 4.86335V6.27861C1.00024 6.4198 1.19518 6.56926 1.56603 6.74654C1.94915 6.9296 3.23269 7.46186 4.47418 7.97667C5.63683 8.45879 6.76259 8.92561 7.0774 9.07602C7.11625 9.09459 7.15441 9.11206 7.192 9.12841C7.49945 8.46421 8.12841 7.98927 8.72436 7.6913C9.61434 7.24631 10.7738 6.99994 12 6.99994C12.4339 6.99994 12.8595 7.0308 13.2678 7.0904Z" fill="#A42122"/>
<path d="M14.4512 5.13608C13.7041 5.52549 9.83386 7.11684 9.00993 7.54645C8.18593 7.97598 7.72826 7.97175 7.07736 7.6607C6.42646 7.34958 2.30788 5.68584 1.56597 5.3313C0.824055 4.97675 0.808512 4.7326 1.53732 4.44717C2.26606 4.16174 6.36205 2.55485 7.22781 2.24427C8.09336 1.93368 8.39369 1.92248 9.13033 2.19239C9.86705 2.46227 13.7142 3.99347 14.4422 4.2602C15.1703 4.52682 15.1983 4.74674 14.4512 5.13608Z" fill="#D82F27"/>
<path d="M9.83476 3.77339L8.6217 3.89927L8.35008 4.55269L7.91145 3.82357L6.51074 3.69767L7.55591 3.32075L7.24237 2.74219L8.22084 3.12486L9.14345 2.82283L8.89406 3.42113L9.83476 3.77339Z" fill="white"/>
<path d="M8.27765 6.94323L6.01367 6.00422L9.25782 5.50635L8.27765 6.94323Z" fill="white"/>
<path d="M5.13821 5.48045C6.09583 5.48045 6.87213 5.17954 6.87213 4.80834C6.87213 4.43714 6.09583 4.13623 5.13821 4.13623C4.1806 4.13623 3.4043 4.43714 3.4043 4.80834C3.4043 5.17954 4.1806 5.48045 5.13821 5.48045Z" fill="white"/>
<path d="M11.2676 3.95166L13.1876 4.71044L11.2692 5.46839L11.2676 3.95166Z" fill="#791514"/>
<path d="M9.14355 4.79189L11.2676 3.95166L11.2693 5.46839L11.061 5.54984L9.14355 4.79189Z" fill="#AD2524"/>
<path fill-rule="evenodd" clip-rule="evenodd" d="M16 13.9959C16 15.0997 14.2091 16 12 16C9.79086 16 8 15.0997 8 13.9959V9.99864C8 8.89482 9.79086 8 12 8C14.2091 8 16 8.89482 16 9.99864V13.9959ZM15 9.99864C15 9.9997 14.9999 10.0012 14.9994 10.0041C14.9988 10.007 14.9972 10.0132 14.9932 10.0229C14.9852 10.0427 14.9658 10.0796 14.9222 10.1312C14.831 10.2389 14.6598 10.3789 14.3812 10.5181C13.8235 10.7968 12.983 10.998 12 10.998C11.017 10.998 10.1765 10.7968 9.61879 10.5181C9.3402 10.3789 9.16902 10.2389 9.07781 10.1312C9.03417 10.0796 9.01484 10.0427 9.00676 10.0229C9.00277 10.0132 9.00124 10.007 9.00064 10.0041C9.00007 10.0012 9 9.9997 9 9.99864C9 9.99758 9.00007 9.99603 9.00064 9.9932C9.00124 9.99025 9.00277 9.98408 9.00676 9.97435C9.01484 9.95462 9.03417 9.91764 9.07781 9.86608C9.16902 9.75833 9.3402 9.61841 9.61879 9.47921C10.1765 9.20053 11.017 8.99932 12 8.99932C12.983 8.99932 13.8235 9.20053 14.3812 9.47921C14.6598 9.61841 14.831 9.75833 14.9222 9.86608C14.9658 9.91764 14.9852 9.95462 14.9932 9.97435C14.9972 9.98408 14.9988 9.99025 14.9994 9.9932C14.9999 9.99603 15 9.99758 15 9.99864ZM15 11.3207C14.2671 11.7356 13.1947 11.9973 12 11.9973C10.8053 11.9973 9.73294 11.7356 9 11.3207V11.9919C8.99942 11.9947 9 11.9973 9 11.9973C9 11.9973 9.00007 11.9999 9.00064 12.0027C9.00124 12.0057 9.00277 12.0118 9.00676 12.0216C9.01484 12.0413 9.03417 12.0783 9.07781 12.1298C9.16902 12.2376 9.3402 12.3775 9.61879 12.5167C10.1765 12.7954 11.017 12.9966 12 12.9966C12.983 12.9966 13.8235 12.7954 14.3812 12.5167C14.6598 12.3775 14.831 12.2376 14.9222 12.1298C14.9658 12.0783 14.9852 12.0413 14.9932 12.0216C14.9972 12.0118 14.9988 12.0057 14.9994 12.0027C14.9999 11.9999 15 11.9973 15 11.9973C15 11.9973 14.9999 11.9947 14.9994 11.9919L15 11.3207ZM15 13.3193C14.2671 13.7342 13.1947 13.9959 12 13.9959C10.8053 13.9959 9.73294 13.7342 9 13.3193V13.9959C8.99942 13.9988 9 14.0014 9 14.0014C9 14.0014 9.00007 14.004 9.00064 14.0068C9.00124 14.0097 9.00277 14.0159 9.00676 14.0256C9.01484 14.0454 9.03417 14.0824 9.07781 14.1339C9.16902 14.2417 9.3402 14.3816 9.61879 14.5208C10.1765 14.7995 11.017 15.0007 12 15.0007C12.983 15.0007 13.8235 14.7995 14.3812 14.5208C14.6598 14.3816 14.831 14.2417 14.9222 14.1339C14.9658 14.0824 14.9852 14.0454 14.9932 14.0256C14.9972 14.0159 14.9988 14.0097 14.9994 14.0068C14.9999 14.004 15 14.0014 15 14.0014C15 14.0014 15 14.0005 14.9999 13.9993C14.9998 13.9983 14.9996 13.9971 14.9994 13.9959L15 13.3193Z" fill="#6C707E"/>
</svg>
