<svg width="16" height="16" viewBox="0 0 16 16" fill="none" xmlns="http://www.w3.org/2000/svg">
<path d="M2.69962 2C2.69962 1.72386 2.92348 1.5 3.19962 1.5C3.47576 1.5 3.69962 1.72386 3.69962 2V3.81636C4.78925 2.6965 6.31345 2 8.0004 2C11.3141 2 14.0004 4.68629 14.0004 8C14.0004 11.3137 11.3141 14 8.0004 14C5.60857 14 3.54461 12.6004 2.58096 10.5778C2.46218 10.3285 2.56799 10.0301 2.81729 9.91134C3.06658 9.79257 3.36496 9.89838 3.48373 10.1477C4.2878 11.8353 6.00858 13 8.0004 13C10.7618 13 13.0004 10.7614 13.0004 8C13.0004 5.23858 10.7618 3 8.0004 3C6.602 3 5.33753 3.57378 4.42963 4.5H6.19962C6.47576 4.5 6.69962 4.72386 6.69962 5C6.69962 5.27614 6.47576 5.5 6.19962 5.5H2.69962V2Z" fill="#DB5C5C"/>
</svg>
