<svg width="16" height="16" viewBox="0 0 16 16" fill="none" xmlns="http://www.w3.org/2000/svg">
<path d="M7.5 13.5H6M6 13.5V13.5C5.17157 13.5 4.5 12.8284 4.5 12V12V4.5M6 13.5H9M4.5 4.5V4C4.5 3.17157 3.82843 2.5 3 2.5V2.5M4.5 4.5H1.5V4C1.5 3.17157 2.17157 2.5 3 2.5V2.5M3 2.5H10.5C11.6046 2.5 12.5 3.39543 12.5 4.5V5.5V8" stroke="#6C707E" stroke-linejoin="round"/>
<path d="M14 11.5C14 11.7761 13.7761 12 13.5 12H12.5C12.2239 12 12 11.7761 12 11.5C12 11.2239 12.2239 11 12.5 11H13.5C13.7761 11 14 11.2239 14 11.5Z" fill="#3574F0"/>
<path d="M13.5 14C13.7761 14 14 13.7761 14 13.5C14 13.2239 13.7761 13 13.5 13H12.5C12.2239 13 12 13.2239 12 13.5C12 13.7761 12.2239 14 12.5 14H13.5Z" fill="#3574F0"/>
<path fill-rule="evenodd" clip-rule="evenodd" d="M10 9.5C10 9.22386 10.2239 9 10.5 9H15.5C15.7761 9 16 9.22386 16 9.5V15.5C16 15.7761 15.7761 16 15.5 16H10.5C10.2239 16 10 15.7761 10 15.5V9.5ZM11 10V15H15V10H11Z" fill="#3574F0"/>
</svg>
