<svg width="16" height="16" viewBox="0 0 16 16" fill="none" xmlns="http://www.w3.org/2000/svg">
<g clip-path="url(#clip0_4613_50063)">
<path d="M2.98755 9.77751C2.99755 9.39251 2.87005 9.08501 2.60505 8.85501C2.34005 8.62501 1.98255 8.51001 1.53255 8.51001H1V7.43001H1.53255C1.98255 7.43001 2.34005 7.31501 2.60505 7.08501C2.87005 6.85501 2.99755 6.54751 2.98755 6.16251L2.95755 4.58C2.94755 4.06 3.05505 3.605 3.28005 3.215C3.51005 2.825 3.83755 2.525 4.26255 2.315C4.68755 2.105 5.18755 2 5.76255 2H6.5V3.005H5.77005C5.25005 3.005 4.83755 3.15 4.53255 3.44C4.23255 3.725 4.08505 4.1125 4.09005 4.6025L4.12005 6.17001C4.13005 6.68001 3.99255 7.09751 3.70755 7.42251C3.42255 7.74251 3.03755 7.92001 2.55255 7.95501C3.03755 8.04501 3.42255 8.25501 3.70755 8.58501C3.99255 8.91001 4.13005 9.30501 4.12005 9.77001L4.09005 11.5475C4.08005 11.9875 4.21255 12.3375 4.48755 12.5975C4.76755 12.8625 5.14505 12.995 5.62005 12.995H6.5V14H5.61255C5.07755 14 4.60755 13.9 4.20255 13.7C3.80255 13.505 3.49255 13.2225 3.27255 12.8525C3.05755 12.4875 2.95255 12.06 2.95755 11.57L2.98755 9.77751Z" fill="#6C707E"/>
<path d="M13.0145 9.77763C13.0045 9.39263 13.132 9.08513 13.397 8.85513C13.662 8.62513 14.0195 8.51013 14.4695 8.51013H15V7.43013H14.4695C14.0195 7.43013 13.662 7.31513 13.397 7.08513C13.132 6.85513 13.0045 6.54763 13.0145 6.16263L13.0445 4.58012C13.0545 4.06012 12.9445 3.60512 12.7145 3.21512C12.4895 2.82512 12.1645 2.52512 11.7395 2.31512C11.3145 2.10512 10.8145 2.00012 10.2395 2.00012H9.5V3.00512H10.232C10.752 3.00512 11.162 3.15012 11.462 3.44012C11.767 3.72512 11.917 4.11262 11.912 4.60262L11.882 6.17013C11.872 6.68013 12.0095 7.09763 12.2945 7.42263C12.5795 7.74263 12.9645 7.92013 13.4495 7.95513C12.9645 8.04513 12.5795 8.25513 12.2945 8.58513C12.0095 8.91013 11.872 9.30513 11.882 9.77013L11.8908 10.2871C12.3256 10.4756 12.7146 10.7498 13.0365 11.0885L13.0145 9.77763Z" fill="#6C707E"/>
<path d="M10 9.91908V8.85501L7.46306 7.93249L10 7.00997V5.9459L6 7.40045V8.46453L10 9.91908Z" fill="#6C707E"/>
<path fill-rule="evenodd" clip-rule="evenodd" d="M12.95 14C12.7184 15.1411 11.7095 16 10.5 16C9.11929 16 8 14.8807 8 13.5C8 12.1193 9.11929 11 10.5 11C11.7095 11 12.7184 11.8589 12.95 13L16 13L16 14L15 14L15 16L14 16L14 14L12.95 14ZM10.5 15C11.3284 15 12 14.3284 12 13.5C12 12.6716 11.3284 12 10.5 12C9.67157 12 9 12.6716 9 13.5C9 14.3284 9.67157 15 10.5 15Z" fill="#6C707E"/>
</g>
<defs>
<clipPath id="clip0_4613_50063">
<rect width="16" height="16" fill="white"/>
</clipPath>
</defs>
</svg>
