<svg width="16" height="16" viewBox="0 0 16 16" fill="none" xmlns="http://www.w3.org/2000/svg">
<path d="M2.60505 8.85501C2.87005 9.08501 2.99755 9.39251 2.98755 9.77751L2.95755 11.57C2.95724 11.6006 2.95736 11.631 2.95791 11.6611C2.96611 12.1132 3.07099 12.5103 3.27255 12.8525C3.30005 12.8988 3.32896 12.9436 3.35927 12.9871C3.57146 13.2918 3.85255 13.5294 4.20255 13.7C4.60755 13.9 5.07755 14 5.61255 14H6.5V12.995H5.62005C5.14505 12.995 4.76755 12.8625 4.48755 12.5975C4.21255 12.3375 4.08005 11.9875 4.09005 11.5475L4.12005 9.77001C4.13005 9.30501 3.99255 8.91001 3.70755 8.58501C3.42255 8.25501 3.03755 8.04501 2.55255 7.95501C3.03755 7.92001 3.42255 7.74251 3.70755 7.42251C3.99255 7.09751 4.13005 6.68001 4.12005 6.17001L4.09005 4.6025C4.08505 4.1125 4.23255 3.725 4.53255 3.44C4.83755 3.15 5.25005 3.005 5.77005 3.005H6.5V2H5.76255C5.18755 2 4.68755 2.105 4.26255 2.315C3.83755 2.525 3.51005 2.825 3.28005 3.215C3.05505 3.605 2.94755 4.06 2.95755 4.58L2.98755 6.16251C2.99755 6.54751 2.87005 6.85501 2.60505 7.08501C2.34005 7.31501 1.98255 7.43001 1.53255 7.43001H1V8.51001H1.53255C1.98255 8.51001 2.34005 8.62501 2.60505 8.85501Z" fill="#CED0D6"/>
<path d="M10 11H6V10H10V11Z" fill="#CED0D6"/>
<path d="M10 8.9866V7.92254L7.46306 7.00001L10 6.07749V5.01343L6 6.46797V7.53206L10 8.9866Z" fill="#CED0D6"/>
<path d="M13.397 8.85513C13.132 9.08513 13.0045 9.39263 13.0145 9.77763L13.0445 11.5701C13.0495 12.0601 12.942 12.4876 12.722 12.8526C12.507 13.2226 12.197 13.5051 11.792 13.7001C11.392 13.9001 10.9245 14.0001 10.3895 14.0001H9.5V12.9951H10.382C10.857 12.9951 11.232 12.8626 11.507 12.5976C11.787 12.3376 11.922 11.9876 11.912 11.5476L11.882 9.77013C11.872 9.30513 12.0095 8.91013 12.2945 8.58513C12.5795 8.25513 12.9645 8.04513 13.4495 7.95513C12.9645 7.92013 12.5795 7.74263 12.2945 7.42263C12.0095 7.09763 11.872 6.68013 11.882 6.17013L11.912 4.60262C11.917 4.11262 11.767 3.72512 11.462 3.44012C11.162 3.15012 10.752 3.00512 10.232 3.00512H9.5V2.00012H10.2395C10.8145 2.00012 11.3145 2.10512 11.7395 2.31512C12.1645 2.52512 12.4895 2.82512 12.7145 3.21512C12.9445 3.60512 13.0545 4.06012 13.0445 4.58012L13.0145 6.16263C13.0045 6.54763 13.132 6.85513 13.397 7.08513C13.662 7.31513 14.0195 7.43013 14.4695 7.43013H15V8.51013H14.4695C14.0195 8.51013 13.662 8.62513 13.397 8.85513Z" fill="#CED0D6"/>
</svg>
