<svg width="16" height="16" viewBox="0 0 16 16" fill="none" xmlns="http://www.w3.org/2000/svg">
<circle cx="8" cy="8" r="6.5" stroke="#6C707E"/>
<path d="M8.57057 5C7.72678 5 7.06311 5.37098 6.68241 5.99832V5.12281H5.69995V12H6.70288V9.52032C7.08665 10.1272 7.74162 10.4854 8.57057 10.4854C10.0289 10.4854 11.0472 9.36988 11.0472 7.74269C11.0472 6.1155 10.0289 5 8.57057 5ZM8.36077 9.5848C7.38343 9.5848 6.70288 8.8326 6.70288 7.74269C6.70288 6.65278 7.38343 5.90058 8.36077 5.90058C9.33299 5.90058 10.0033 6.65278 10.0033 7.74269C10.0033 8.8326 9.33299 9.5848 8.36077 9.5848Z" fill="#6C707E"/>
</svg>
