<svg width="16" height="16" viewBox="0 0 16 16" fill="none" xmlns="http://www.w3.org/2000/svg">
<path d="M10 10H14.6445L12.6748 11.9697C12.3819 12.2626 12.3819 12.7374 12.6748 13.0303L14.6445 15H10V10Z" fill="#2F2936"/>
<path fill-rule="evenodd" clip-rule="evenodd" d="M9 10C9 9.44771 9.44772 9 10 9H15.248C15.9162 9 16.2508 9.80786 15.7783 10.2803L13.5587 12.5L15.7783 14.7197C16.2508 15.1921 15.9162 16 15.248 16H10C9.44772 16 9 15.5523 9 15V10ZM14.6445 10L10 10V15H14.6445L12.6748 13.0303C12.3819 12.7374 12.3819 12.2626 12.6748 11.9697L14.6445 10Z" fill="#A571E6"/>
<path fill-rule="evenodd" clip-rule="evenodd" d="M2.25202 1.0659C2.49177 0.928898 2.7972 1.0122 2.93421 1.25196L3.9799 3.08192C5.16113 2.39403 6.53455 2 8 2C9.46551 2 10.839 2.39406 12.0202 3.082L13.066 1.25196C13.203 1.0122 13.5084 0.928898 13.7482 1.0659C13.9879 1.20291 14.0712 1.50834 13.9342 1.74809L12.8533 3.63976C14.2567 4.71229 15.2947 6.23878 15.748 8H11C11.5523 8 12 7.55228 12 7C12 6.44772 11.5523 6 11 6C10.4477 6 10 6.44772 10 7C10 7.55228 10.4477 8 11 8H10C8.89543 8 8 8.89543 8 10H0C0 7.40663 1.234 5.10147 3.14687 3.63967L2.06596 1.74809C1.92896 1.50834 2.01226 1.20291 2.25202 1.0659ZM6 7C6 7.55228 5.55228 8 5 8C4.44772 8 4 7.55228 4 7C4 6.44772 4.44772 6 5 6C5.55228 6 6 6.44772 6 7Z" fill="#57965C"/>
</svg>
