<svg width="16" height="16" viewBox="0 0 16 16" fill="none" xmlns="http://www.w3.org/2000/svg">
<path d="M12.4003 14.4V13.6V10.72L10.4062 9.87874" stroke="#6C707E" stroke-linecap="round" stroke-linejoin="round"/>
<path d="M3.59778 14.4V13.6V10.72L5.5918 9.87874" stroke="#6C707E" stroke-linecap="round" stroke-linejoin="round"/>
<path d="M12.4 4.40002V6.80002L10 8.40002" stroke="#6C707E" stroke-linecap="round" stroke-linejoin="round"/>
<path d="M3.6 4.40002V6.80002L6 8.40002" stroke="#6C707E" stroke-linecap="round" stroke-linejoin="round"/>
<path d="M8.00883 2.3623L8.00883 2.8623H8.00883L8.00883 2.3623ZM7.99961 14.3998L7.99961 14.8998H7.99961L7.99961 14.3998ZM9.46883 4.62504C9.46883 5.28816 9.32019 5.52723 9.17653 5.63983C8.99829 5.77951 8.66715 5.8623 8.00883 5.8623V6.8623C8.6735 6.8623 9.32236 6.79606 9.79338 6.42691C10.299 6.03067 10.4688 5.40111 10.4688 4.62504H9.46883ZM8.00883 2.8623C8.29235 2.8623 8.65853 2.96747 8.94797 3.2285C9.22379 3.47725 9.46883 3.90238 9.46883 4.62504H10.4688C10.4688 3.65043 10.1259 2.94419 9.61769 2.48589C9.12312 2.03986 8.5093 1.8623 8.00883 1.8623L8.00883 2.8623ZM6.54883 4.62504C6.54883 3.90238 6.79387 3.47725 7.06969 3.2285C7.35912 2.96748 7.7253 2.86231 8.00883 2.8623L8.00883 1.8623C7.50835 1.86231 6.89453 2.03987 6.39997 2.48589C5.89179 2.94419 5.54883 3.65043 5.54883 4.62504H6.54883ZM8.00883 5.8623C7.3505 5.8623 7.01936 5.77951 6.84113 5.63983C6.69746 5.52723 6.54883 5.28816 6.54883 4.62504H5.54883C5.54883 5.40111 5.71869 6.03067 6.22428 6.42691C6.6953 6.79606 7.34415 6.8623 8.00883 6.8623V5.8623ZM9.89961 10.4613C9.89961 11.029 9.71756 11.939 9.34987 12.6959C8.96719 13.4836 8.49285 13.8998 7.99961 13.8998L7.99961 14.8998C9.10637 14.8998 9.83203 13.9918 10.2493 13.1328C10.6817 12.243 10.8996 11.1838 10.8996 10.4613H9.89961ZM7.99961 8.49979C9.00482 8.49979 9.89961 9.3136 9.89961 10.4613H10.8996C10.8996 8.7542 9.54995 7.49979 7.99961 7.49979V8.49979ZM6.09961 10.4613C6.09961 9.3136 6.9944 8.49979 7.99961 8.49979V7.49979C6.44926 7.49979 5.09961 8.7542 5.09961 10.4613H6.09961ZM7.99961 13.8998C7.50637 13.8998 7.03203 13.4836 6.64934 12.6959C6.28166 11.939 6.09961 11.029 6.09961 10.4613H5.09961C5.09961 11.1838 5.31756 12.243 5.74987 13.1328C6.16719 13.9918 6.89285 14.8998 7.99961 14.8998L7.99961 13.8998Z" fill="#6C707E"/>
<path d="M9.59961 3.2002L10.3996 1.2002" stroke="#6C707E" stroke-linecap="round" stroke-linejoin="round"/>
<path d="M6.40039 3.2002L5.60039 1.2002" stroke="#6C707E" stroke-linecap="round" stroke-linejoin="round"/>
</svg>
