<svg width="20" height="20" viewBox="0 0 20 20" fill="none" xmlns="http://www.w3.org/2000/svg">
<rect x="3" y="7" width="9" height="1.5" rx="0.75" fill="#CED0D6"/>
<rect x="3" y="11" width="6" height="1.5" rx="0.75" fill="#CED0D6"/>
<rect x="3" y="3" width="14" height="1.5" rx="0.75" fill="#CED0D6"/>
<path fill-rule="evenodd" clip-rule="evenodd" d="M15.0408 9.04036C15.2946 8.78652 15.7062 8.78652 15.96 9.04036C16.2139 9.2942 16.2139 9.70575 15.96 9.95959L14.8196 11.1H19.2504C19.6094 11.1 19.9004 11.391 19.9004 11.75C19.9004 12.109 19.6094 12.4 19.2504 12.4H14.8196L15.96 13.5404C16.2139 13.7942 16.2139 14.2058 15.96 14.4596C15.7062 14.7134 15.2946 14.7134 15.0408 14.4596L12.7908 12.2096L12.3312 11.75L12.7908 11.2904L15.0408 9.04036Z" fill="#CED0D6"/>
<path fill-rule="evenodd" clip-rule="evenodd" d="M11.1692 13.9904C10.9153 13.7366 10.5038 13.7366 10.25 13.9904C9.99611 14.2443 9.99611 14.6558 10.25 14.9097L11.3903 16.05H6.95957C6.60059 16.05 6.30957 16.3411 6.30957 16.7C6.30957 17.059 6.60059 17.35 6.95957 17.35H11.3903L10.25 18.4904C9.99611 18.7443 9.99611 19.1558 10.25 19.4097C10.5038 19.6635 10.9153 19.6635 11.1692 19.4097L13.4192 17.1597L13.8788 16.7L13.4192 16.2404L11.1692 13.9904Z" fill="#CED0D6"/>
</svg>
