<svg width="20" height="20" viewBox="0 0 20 20" fill="none" xmlns="http://www.w3.org/2000/svg">
<path d="M2 6.75C2 6.33579 2.33579 6 2.75 6H17.25C17.6642 6 18 6.33579 18 6.75C18 7.16421 17.6642 7.5 17.25 7.5H2.75C2.33579 7.5 2 7.16421 2 6.75Z" fill="#CED0D6"/>
<path d="M2 10.75C2 10.3358 2.33579 10 2.75 10H7.25C7.66421 10 8 10.3358 8 10.75C8 11.1642 7.66421 11.5 7.25 11.5H2.75C2.33579 11.5 2 11.1642 2 10.75Z" fill="#CED0D6"/>
<path d="M2 2.75C2 2.33579 2.33579 2 2.75 2H17.25C17.6642 2 18 2.33579 18 2.75C18 3.16421 17.6642 3.5 17.25 3.5H2.75C2.33579 3.5 2 3.16421 2 2.75Z" fill="#CED0D6"/>
<path d="M10.7559 16.6967V11.4357C10.7559 10.6368 11.6464 10.1604 12.3109 10.6039L16.2529 13.2344C16.8461 13.6302 16.8461 14.5021 16.2529 14.898L12.3109 17.5285C11.6464 17.9719 10.7559 17.4956 10.7559 16.6967Z" stroke="#CED0D6" stroke-width="1.5"/>
</svg>
