<svg width="16" height="16" viewBox="0 0 16 16" fill="none" xmlns="http://www.w3.org/2000/svg">
<path d="M2 5.5C2 5.22386 2.22386 5 2.5 5H13.5C13.7761 5 14 5.22386 14 5.5C14 5.77614 13.7761 6 13.5 6H2.5C2.22386 6 2 5.77614 2 5.5Z" fill="#CED0D6"/>
<path d="M2 8.5C2 8.22386 2.22386 8 2.5 8H6.5C6.77614 8 7 8.22386 7 8.5C7 8.77614 6.77614 9 6.5 9H2.5C2.22386 9 2 8.77614 2 8.5Z" fill="#CED0D6"/>
<path d="M2 2.5C2 2.22386 2.22386 2 2.5 2H13.5C13.7761 2 14 2.22386 14 2.5C14 2.77614 13.7761 3 13.5 3H2.5C2.22386 3 2 2.77614 2 2.5Z" fill="#CED0D6"/>
<path d="M9.5 13.536V9.46353C9.5 8.64624 10.4272 8.17408 11.0882 8.65479L13.888 10.691C14.4371 11.0904 14.4371 11.9091 13.888 12.3085L11.0882 14.3447C10.4272 14.8254 9.5 14.3533 9.5 13.536Z" stroke="#CED0D6"/>
</svg>
