<svg width="20" height="20" viewBox="0 0 20 20" fill="none" xmlns="http://www.w3.org/2000/svg">
<path fill-rule="evenodd" clip-rule="evenodd" d="M3.5 4.48102V11C3.5 12.6577 4.31738 13.9783 5.71641 15.2345C6.8245 16.2294 8.14193 17.0554 9.51489 17.9163C9.67591 18.0173 9.8377 18.1187 10 18.221C10.1623 18.1187 10.3241 18.0173 10.4851 17.9163C11.8581 17.0554 13.1755 16.2294 14.2836 15.2345C15.6826 13.9783 16.5 12.6577 16.5 11V4.48102L10 1.63727L3.5 4.48102ZM10 0L2 3.5V11C2 14.9793 5.58986 17.2285 8.79309 19.2354C9.20458 19.4932 9.6097 19.747 10 20C10.3903 19.747 10.7954 19.4932 11.2069 19.2354C14.4101 17.2285 18 14.9793 18 11V3.5L10 0Z" fill="#6C707E"/>
<path fill-rule="evenodd" clip-rule="evenodd" d="M13.6967 7.35859C13.9896 7.65148 13.9896 8.12635 13.6967 8.41925L9.47445 12.6415C9.3338 12.7821 9.14303 12.8611 8.94412 12.8611C8.74521 12.8611 8.55444 12.7821 8.41379 12.6415L6.30268 10.5304C6.00978 10.2375 6.00978 9.76259 6.30268 9.4697C6.59557 9.1768 7.07044 9.1768 7.36334 9.4697L8.94412 11.0505L12.636 7.35859C12.9289 7.06569 13.4038 7.06569 13.6967 7.35859Z" fill="#6C707E"/>
</svg>
