<svg width="16" height="16" viewBox="0 0 16 16" fill="none" xmlns="http://www.w3.org/2000/svg">
<g clip-path="url(#clip0_7854_11968)">
<path d="M4.14387 14.248L4.14386 14.248L0.715292 8.24807C0.627455 8.09436 0.627455 7.90564 0.715292 7.75193L0.281171 7.50386L0.715293 7.75193L4.14386 1.75193C4.23288 1.59615 4.39856 1.5 4.57798 1.5H11.4174C11.5968 1.5 11.7625 1.59616 11.8514 1.75189L11.8514 1.75193L15.28 7.75193L15.2801 7.75196C15.3679 7.90566 15.3679 8.09434 15.2801 8.24804L15.28 8.24807L11.8514 14.248L11.8514 14.2481C11.7624 14.4038 11.5967 14.5 11.4174 14.5H4.57798C4.39858 14.5 4.2329 14.4039 4.14387 14.248Z" stroke="#CED0D6" stroke-linejoin="round"/>
<path fill-rule="evenodd" clip-rule="evenodd" d="M8.66651 6.68602C9.02032 6.41163 9.24805 5.98241 9.24805 5.5C9.24805 4.67157 8.57648 4 7.74805 4C6.91962 4 6.24805 4.67157 6.24805 5.5V8.08535C6.09166 8.03008 5.92337 8 5.74805 8C4.91962 8 4.24805 8.67157 4.24805 9.5C4.24805 10.3284 4.91962 11 5.74805 11C6.06625 11 6.36131 10.9009 6.60406 10.7319L8.75106 9.40418C8.74906 9.43586 8.74805 9.46781 8.74805 9.5C8.74805 10.3284 9.41962 11 10.248 11C11.0764 11 11.748 10.3284 11.748 9.5C11.748 8.97521 11.4785 8.51337 11.0704 8.24531L8.66651 6.68602ZM7.74805 6C8.02419 6 8.24805 5.77614 8.24805 5.5C8.24805 5.22386 8.02419 5 7.74805 5C7.47191 5 7.24805 5.22386 7.24805 5.5C7.24805 5.65201 7.31588 5.78817 7.42292 5.87987L7.53468 5.95232C7.5994 5.9829 7.67173 6 7.74805 6ZM7.24805 6.95824V9.1579L8.98462 8.08397L7.24805 6.95824ZM6.04831 9.89984C6.16961 9.80861 6.24805 9.66346 6.24805 9.5C6.24805 9.22386 6.02419 9 5.74805 9C5.47191 9 5.24805 9.22386 5.24805 9.5C5.24805 9.77614 5.47191 10 5.74805 10C5.82812 10 5.90379 9.98118 5.97089 9.94772L6.04831 9.89984ZM10.248 10C10.5241 10 10.748 9.77614 10.748 9.5C10.748 9.22386 10.5241 9 10.248 9C9.97191 9 9.74805 9.22386 9.74805 9.5C9.74805 9.77614 9.97191 10 10.248 10Z" fill="#CED0D6"/>
</g>
<defs>
<clipPath id="clip0_7854_11968">
<rect width="16" height="16" fill="white"/>
</clipPath>
</defs>
</svg>
