<svg width="16" height="16" viewBox="0 0 16 16" fill="none" xmlns="http://www.w3.org/2000/svg">
<path d="M7.78048 1.89804C7.919 1.83035 8.081 1.83035 8.21952 1.89804L13.831 4.64012C14.205 4.82287 14.205 5.35584 13.831 5.53859L8.21952 8.28068C8.081 8.34837 7.919 8.34837 7.78048 8.28068L2.169 5.53859C1.79503 5.35584 1.79503 4.82287 2.16901 4.64012L7.78048 1.89804Z" stroke="#6C707E"/>
<path d="M14.2755 8.31655L8.43692 11.1526C8.16105 11.2866 7.83895 11.2866 7.56308 11.1526L1.72447 8.31655" stroke="#6C707E" stroke-linecap="round"/>
<path d="M14.2755 11.5436L8.43692 14.3797C8.16105 14.5137 7.83895 14.5137 7.56308 14.3797L1.72447 11.5436" stroke="#6C707E" stroke-linecap="round"/>
</svg>
