<svg width="16" height="16" viewBox="0 0 16 16" fill="none" xmlns="http://www.w3.org/2000/svg">
<path d="M11.992 14.9314H13.0161V16H11.992V14.9314ZM11.992 7H13.0161V8.20862H11.992V7ZM12.3595 15.1176C11.8662 15.1176 11.4285 15.0294 11.0463 14.853C10.6673 14.6734 10.3701 14.4235 10.1545 14.1033C9.93887 13.7799 9.82944 13.4092 9.82617 12.991H11.0855C11.0855 13.1968 11.1394 13.3798 11.2472 13.5398C11.355 13.6999 11.5069 13.824 11.7029 13.9122C11.8989 14.0004 12.1226 14.0445 12.3742 14.0445C12.6159 14.0445 12.8299 14.0053 13.0161 13.9269C13.2023 13.8453 13.3444 13.7326 13.4424 13.5888C13.5436 13.4418 13.5943 13.2736 13.5943 13.0841C13.5943 12.8457 13.5224 12.6415 13.3787 12.4716C13.2349 12.2985 13.0438 12.1907 12.8054 12.1482L11.6245 11.9522C11.2945 11.8967 11.0054 11.7807 10.7572 11.6043C10.5122 11.4247 10.3227 11.2009 10.1888 10.933C10.0581 10.6619 9.99277 10.3663 9.99277 10.0461C9.99277 9.65739 10.0924 9.30949 10.2917 9.00242C10.4942 8.69535 10.7735 8.45525 11.1296 8.28212C11.4889 8.10899 11.8956 8.02242 12.3497 8.02242C12.8103 8.02242 13.2202 8.10735 13.5796 8.27722C13.9422 8.44382 14.2231 8.67739 14.4224 8.97792C14.6249 9.27845 14.7294 9.62309 14.736 10.0118H13.4767C13.4767 9.83542 13.4293 9.67699 13.3346 9.53652C13.2431 9.39605 13.1124 9.28825 12.9426 9.21312C12.776 9.13472 12.5832 9.09552 12.3644 9.09552C12.1455 9.09552 11.9528 9.13309 11.7862 9.20822C11.6196 9.28009 11.4889 9.38299 11.3942 9.51692C11.3027 9.65085 11.257 9.80602 11.257 9.98242C11.257 10.1915 11.3239 10.3712 11.4579 10.5214C11.5918 10.6717 11.7682 10.7664 11.9871 10.8056L13.1337 10.9918C13.4734 11.0474 13.7756 11.1731 14.0402 11.3691C14.3048 11.5619 14.5089 11.8036 14.6527 12.0943C14.7997 12.3818 14.8732 12.6905 14.8732 13.0204C14.8732 13.4157 14.767 13.7734 14.5547 14.0935C14.3423 14.4137 14.0451 14.6652 13.6629 14.8481C13.2839 15.0278 12.8495 15.1176 12.3595 15.1176Z" fill="#6C707E"/>
<path d="M2.00045 2.99996C3.65731 1.34311 6.3436 1.34311 8.00045 2.99996C9.65731 1.34311 12.3436 1.34311 14.0005 2.99996C15.3242 4.3237 15.5903 6.30454 14.7989 7.8925C14.5687 7.68337 14.3056 7.51221 14.0167 7.37734V7.19269C14.4768 6.02742 14.2357 4.6494 13.2933 3.70707C12.027 2.44074 9.97389 2.44074 8.70756 3.70707L8.00045 4.41418L7.29335 3.70707C6.02702 2.44074 3.97389 2.44074 2.70756 3.70707C1.44123 4.9734 1.44123 7.02653 2.70756 8.29285L8.00045 13.5858L8.82493 12.7613L8.82679 12.9988C8.82951 13.3474 8.88498 13.6845 8.99663 14.0038L8.00045 15L2.00045 8.99996C0.343597 7.34311 0.343601 4.65682 2.00045 2.99996Z" fill="#6C707E"/>
</svg>
