<svg width="20" height="20" viewBox="0 0 20 20" fill="none" xmlns="http://www.w3.org/2000/svg">
<path d="M10 2.5C8.00665 2.5 6.19632 3.27666 4.85246 4.54536C4.55127 4.82971 4.07659 4.81606 3.79224 4.51486C3.50789 4.21367 3.52155 3.73899 3.82274 3.45464C5.43392 1.93357 7.60875 1 10 1C14.9706 1 19 5.02944 19 10C19 14.9706 14.9706 19 10 19C7.60875 19 5.43392 18.0664 3.82274 16.5454C3.52155 16.261 3.50789 15.7863 3.79224 15.4851C4.07659 15.1839 4.55127 15.1703 4.85246 15.4546C6.19632 16.7233 8.00665 17.5 10 17.5C14.1421 17.5 17.5 14.1421 17.5 10C17.5 5.85786 14.1421 2.5 10 2.5Z" fill="#CED0D6"/>
<path fill-rule="evenodd" clip-rule="evenodd" d="M0.75 10C0.75 9.58579 1.08579 9.25 1.5 9.25H6.0702C6.42125 7.39935 8.04721 6 10 6C12.2091 6 14 7.79086 14 10C14 12.2091 12.2091 14 10 14C8.04721 14 6.42125 12.6006 6.0702 10.75H1.5C1.08579 10.75 0.75 10.4142 0.75 10ZM12.5 10C12.5 11.3807 11.3807 12.5 10 12.5C8.61929 12.5 7.5 11.3807 7.5 10C7.5 8.61929 8.61929 7.5 10 7.5C11.3807 7.5 12.5 8.61929 12.5 10Z" fill="#CED0D6"/>
</svg>
