<svg width="15" height="15" viewBox="0 0 15 15" fill="none" xmlns="http://www.w3.org/2000/svg">
<rect x="5.00879" y="3.92651" width="1" height="1.85294" fill="#CED0D6"/>
<rect width="1" height="1.85293" transform="matrix(0.499998 0.866027 -0.866024 0.500002 8.83691 5.2876)" fill="#CED0D6"/>
<rect width="1" height="1.85293" transform="matrix(-0.499998 0.866027 -0.866024 -0.500002 9.19629 8.85815)" fill="#CED0D6"/>
<rect x="5.00879" y="9.48511" width="1" height="1.85294" fill="#CED0D6"/>
<path fill-rule="evenodd" clip-rule="evenodd" d="M5.54395 8.97061C6.35613 8.97061 7.01453 8.3122 7.01453 7.50001C7.01453 6.68783 6.35613 6.02942 5.54395 6.02942C4.73176 6.02942 4.07336 6.68783 4.07336 7.50001C4.07336 8.3122 4.73176 8.97061 5.54395 8.97061ZM5.54395 10C6.92466 10 8.04395 8.88073 8.04395 7.50001C8.04395 6.11929 6.92466 5 5.54395 5C4.16323 5 3.04395 6.11929 3.04395 7.50001C3.04395 8.88073 4.16323 10 5.54395 10Z" fill="#CED0D6"/>
<path fill-rule="evenodd" clip-rule="evenodd" d="M5.5445 3.32426C5.99968 3.32426 6.36868 2.95526 6.36868 2.50008C6.36868 2.0449 5.99968 1.6759 5.5445 1.6759C5.08932 1.6759 4.72033 2.0449 4.72033 2.50008C4.72033 2.95526 5.08932 3.32426 5.5445 3.32426ZM5.5445 4.2858C6.53073 4.2858 7.33022 3.48631 7.33022 2.50008C7.33022 1.51385 6.53073 0.714355 5.5445 0.714355C4.55828 0.714355 3.75879 1.51385 3.75879 2.50008C3.75879 3.48631 4.55828 4.2858 5.5445 4.2858Z" fill="#CED0D6"/>
<path fill-rule="evenodd" clip-rule="evenodd" d="M10.1705 6.00688C10.6257 6.00688 10.9947 5.63788 10.9947 5.1827C10.9947 4.72752 10.6257 4.35852 10.1705 4.35852C9.7153 4.35852 9.3463 4.72752 9.3463 5.1827C9.3463 5.63788 9.7153 6.00688 10.1705 6.00688ZM10.1705 6.96842C11.1567 6.96842 11.9562 6.16893 11.9562 5.1827C11.9562 4.19647 11.1567 3.39697 10.1705 3.39697C9.18426 3.39697 8.38477 4.19647 8.38477 5.1827C8.38477 6.16893 9.18426 6.96842 10.1705 6.96842Z" fill="#CED0D6"/>
<path fill-rule="evenodd" clip-rule="evenodd" d="M5.5445 13.3243C5.99968 13.3243 6.36868 12.9553 6.36868 12.5001C6.36868 12.0449 5.99968 11.6759 5.5445 11.6759C5.08932 11.6759 4.72033 12.0449 4.72033 12.5001C4.72033 12.9553 5.08932 13.3243 5.5445 13.3243ZM5.5445 14.2858C6.53073 14.2858 7.33022 13.4863 7.33022 12.5001C7.33022 11.5139 6.53073 10.7144 5.5445 10.7144C4.55828 10.7144 3.75879 11.5139 3.75879 12.5001C3.75879 13.4863 4.55828 14.2858 5.5445 14.2858Z" fill="#CED0D6"/>
<path fill-rule="evenodd" clip-rule="evenodd" d="M10.1705 10.7718C10.6257 10.7718 10.9947 10.4028 10.9947 9.94759C10.9947 9.49241 10.6257 9.12341 10.1705 9.12341C9.7153 9.12341 9.3463 9.49241 9.3463 9.94759C9.3463 10.4028 9.7153 10.7718 10.1705 10.7718ZM10.1705 11.7333C11.1567 11.7333 11.9562 10.9338 11.9562 9.94759C11.9562 8.96136 11.1567 8.16187 10.1705 8.16187C9.18426 8.16187 8.38477 8.96136 8.38477 9.94759C8.38477 10.9338 9.18426 11.7333 10.1705 11.7333Z" fill="#CED0D6"/>
</svg>
