<svg width="16" height="16" viewBox="0 0 16 16" fill="none" xmlns="http://www.w3.org/2000/svg">
<path d="M6.95699 14.4579H9.04966C8.99311 14.5871 8.91259 14.7059 8.81093 14.8076C8.59674 15.0218 8.30623 15.1421 8.00332 15.1421C7.70041 15.1421 7.4099 15.0218 7.19571 14.8076C7.09405 14.7059 7.01353 14.5871 6.95699 14.4579Z" stroke="#6C707E" stroke-width="0.915741"/>
<path d="M3.94714 8.2236C3.98185 8.15418 3.99993 8.07762 3.99993 8V6C3.99993 4.29256 4.57102 3.18513 5.32401 2.50006C6.08804 1.80496 7.08657 1.50196 8.00107 1.50001L8.00382 1.5L8.00443 1.5L8.00456 1.5H8.00537L8.00611 1.5L8.00886 1.50001C8.92321 1.50196 9.91895 1.80486 10.6803 2.49958C11.4309 3.1844 11.9999 4.2919 11.9999 6V8C11.9999 8.07762 12.018 8.15418 12.0527 8.2236L13.8491 11.8164C14.0062 12.1305 13.7778 12.5 13.4267 12.5H2.5732C2.22207 12.5 1.9937 12.1305 2.15073 11.8164L3.94714 8.2236Z" stroke="#6C707E" stroke-linejoin="round"/>
</svg>
