<svg width="16" height="16" viewBox="0 0 16 16" fill="none" xmlns="http://www.w3.org/2000/svg">
<path fill-rule="evenodd" clip-rule="evenodd" d="M6.40652 1.13693C6.93491 1.04481 7.47033 0.999003 8.00669 1.00002L8.01051 1.00004C8.57815 1.00472 9.14451 1.05468 9.70418 1.14945C10.2421 1.20981 10.7429 1.45457 11.1211 1.84248C11.4975 2.2285 11.7816 2.79518 11.7816 3.34402V6.29583C11.7817 6.86983 11.5575 7.42135 11.1568 7.83234C10.756 8.24337 10.2105 8.48148 9.63656 8.49583L9.62156 8.49602H6.51464C6.16363 8.50255 5.82833 8.64301 5.57744 8.88874C5.32791 9.13314 5.08986 9.45131 5.07468 9.80002V11.3001C5.07468 11.6315 4.89693 11.912 4.56556 11.912H3.47756C2.85908 11.912 2.34586 11.6751 1.962 11.2758C1.59454 10.8936 1.36918 10.3888 1.24106 9.86411C0.920936 8.72275 0.919653 7.51559 1.23721 6.3737C1.35378 5.78903 1.6721 5.26354 2.13698 4.88936C2.60668 4.51131 3.1953 4.31244 3.79783 4.32802H4.35756V3.32802C4.35756 2.85353 4.41651 2.32507 4.78625 1.89425C5.14789 1.47288 5.70727 1.26058 6.40508 1.13718L6.40652 1.13693ZM8.00252 2.0322C7.53688 2.03143 7.0145 2.07124 6.55577 2.15117C5.94213 2.25976 5.72564 2.40738 5.63931 2.50797C5.56105 2.59915 5.5 2.75469 5.5 3.16021C5.5 3.58197 5.5 4.05924 5.5 4.52817C5.5 5.0804 5.05237 5.52808 4.50014 5.52815L3.59966 5.52828C3.59375 5.52828 3.58784 5.52819 3.58193 5.52802C3.26186 5.51855 2.94894 5.62367 2.6995 5.82444C2.41731 6.05156 2.30386 6.33968 2.20909 6.67532C1.94378 7.61492 1.94378 8.60963 2.20909 9.54923C2.29979 9.87044 2.39979 10.1975 2.63722 10.4445C2.79936 10.6131 3.19204 10.712 3.47756 10.712H3.96556V9.80002C3.96556 9.79275 3.96569 9.78549 3.96596 9.77822C3.98993 9.11858 4.26621 8.49331 4.73778 8.03143C5.20936 7.56956 5.84024 7.30634 6.50024 7.29609L6.50956 7.29594L9.7144 7.27957C9.97283 7.2714 10.2182 7.16342 10.3988 6.97817C10.5809 6.79134 10.6829 6.5407 10.6828 6.27976V3.18543C10.6579 2.9261 10.5453 2.68278 10.3631 2.49595C10.1556 2.28318 9.90589 2.19983 9.62156 2.15117C9.12008 2.06534 8.51128 2.0365 8.00252 2.0322Z" fill="#CED0D6"/>
<path fill-rule="evenodd" clip-rule="evenodd" d="M11.0002 4.50006C11.0002 4.16869 10.8505 3.97583 11.1818 3.97583H12.3898C13.0239 3.97583 13.5199 4.23374 13.8763 4.64923C14.2074 5.03528 14.3978 5.53226 14.5195 6.01284C14.8789 7.16669 14.8771 8.40299 14.5141 9.55601L14.5129 9.5599C14.356 10.0467 14.1652 10.5488 13.8459 10.9263C13.4917 11.3451 13.0117 11.5758 12.3898 11.5758H11.4298V12.5758C11.4298 13.2374 11.1318 13.7399 10.7202 14.0925C10.3295 14.4271 9.84 14.6271 9.40138 14.7509C8.27422 15.1058 7.06502 15.1049 5.93825 14.7483C5.069 14.4779 3.96582 13.8511 3.96582 12.5758V11.2558C3.96582 10.9245 4.23445 10.6558 4.56582 10.6558C4.89719 10.6558 5.07486 10.9245 5.07486 11.2558V12.7532C5.07486 13.1731 5.51732 13.5383 6.29584 13.7802L6.29903 13.7812C7.19365 14.0646 8.29652 14.0636 9.19113 13.7802C9.50617 13.6804 9.82627 13.5766 10.082 13.3575C10.2704 13.1962 10.3723 13.0106 10.3723 12.7522C10.3723 12.4882 10.3723 11.9721 10.3723 11.5005C10.3723 10.948 10.8203 10.5003 11.3728 10.5005L12.5002 10.5011C12.7823 10.5011 12.9223 10.4158 13.0401 10.2766C13.1926 10.0963 13.3256 9.79906 13.4805 9.31902C13.7708 8.39536 13.7706 7.1525 13.4799 6.22893C13.3781 5.90577 13.3026 5.56792 13.0757 5.30336C12.9381 5.14284 12.7701 5.04875 12.5002 5.04875H11.1818C10.8505 5.04875 11.0002 4.83143 11.0002 4.50006Z" fill="#CED0D6"/>
<path d="M7.55035 3.59995C7.70106 3.59807 7.84892 3.64103 7.97514 3.72339C8.10137 3.80575 8.20026 3.92377 8.25924 4.06247C8.31822 4.20116 8.33463 4.35426 8.30639 4.50231C8.27815 4.65036 8.20652 4.78666 8.10062 4.8939C7.99472 5.00114 7.85933 5.07447 7.71165 5.10458C7.56397 5.13468 7.41068 5.1202 7.27125 5.06296C7.13182 5.00573 7.01256 4.90833 6.92863 4.78315C6.84469 4.65798 6.79987 4.51067 6.79985 4.35995C6.7986 4.2606 6.81708 4.16198 6.85423 4.06983C6.89138 3.97767 6.94647 3.89382 7.01628 3.82312C7.0861 3.75242 7.16926 3.69628 7.26094 3.65797C7.35262 3.61967 7.45099 3.59994 7.55035 3.59995Z" fill="#CED0D6"/>
<path d="M8.21701 11.06C8.41857 11.06 8.61188 11.1401 8.75441 11.2826C8.89694 11.4252 8.97701 11.6185 8.97701 11.82C8.97701 12.0216 8.89694 12.2149 8.75441 12.3574C8.61188 12.5 8.41857 12.58 8.21701 12.58C8.01545 12.58 7.82214 12.5 7.67961 12.3574C7.53708 12.2149 7.45701 12.0216 7.45701 11.82C7.45701 11.6185 7.53708 11.4252 7.67961 11.2826C7.82214 11.1401 8.01545 11.06 8.21701 11.06Z" fill="#CED0D6"/>
</svg>
