<svg width="20" height="20" viewBox="0 0 20 20" fill="none" xmlns="http://www.w3.org/2000/svg">
<path fill-rule="evenodd" clip-rule="evenodd" d="M5.24328 7.24947C6.30348 6.84188 7.31788 6.76176 8.19709 6.71351C8.30974 6.70732 8.41979 6.70164 8.52765 6.69606C9.29607 6.65636 9.95428 6.62235 10.6539 6.45542L10.6553 6.45509C12.3868 6.04403 14.3246 4.73157 15.058 3.20789L16.388 0.445068L17.3687 3.35026C17.9054 4.94025 18.5234 7.05485 18.7003 9.19519C18.8758 11.3183 18.6328 13.6581 17.2342 15.5206C15.7915 17.4412 13.5856 17.9844 11.6167 18.1326C10.6196 18.2077 9.61063 18.1865 8.69898 18.1588L8.34171 18.1477C7.55711 18.123 6.86913 18.1012 6.25922 18.1283L6.2492 18.1289L6.19084 18.1329C6.13887 18.1367 6.06293 18.1426 5.9711 18.1512C5.78482 18.1685 5.54505 18.1954 5.31189 18.2338C5.05026 18.277 4.761 18.2615 4.47519 18.1495C4.19598 18.0401 3.99512 17.868 3.85811 17.7116C3.63026 17.4514 3.50538 17.1405 3.45386 17.0122L3.40543 16.8916C3.38471 16.8399 3.37015 16.8035 3.35814 16.7752C1.66478 15.9006 1.05901 13.8333 1.30428 12.0541C1.56868 10.1362 2.81904 8.18103 5.24328 7.24947ZM8.38448 16.8984C11.1971 16.9876 14.4903 17.0921 16.2347 14.7698C18.5014 11.7514 17.2376 6.87038 16.1843 3.75005C15.246 5.69916 12.9377 7.19797 10.9439 7.67128C10.1251 7.86665 9.34759 7.90617 8.58685 7.94485C7.61127 7.99444 6.66333 8.04263 5.69152 8.4163C1.74783 9.93154 1.80812 14.6329 3.98054 15.689L4.10988 15.7581C4.10988 15.7581 7.30385 15.1215 9.07072 14.4707C11.6498 13.5197 14.4832 11.1729 15.4148 8.44478C14.9205 11.2803 12.4839 14.0094 10.0375 15.2628C9.21084 15.6874 8.50063 15.9027 7.5449 16.1923C6.99386 16.3593 6.36119 16.551 5.57753 16.8219C5.31447 16.9128 5.10841 17.0005 5.10841 17.0005C5.65316 16.9107 6.19352 16.88 6.19352 16.88C6.85761 16.8499 7.60247 16.8736 8.38448 16.8984Z" fill="#6C707E"/>
</svg>
