<svg width="20" height="20" viewBox="0 0 20 20" fill="none" xmlns="http://www.w3.org/2000/svg">
<circle cx="3.1" cy="4.69998" r="1.1" fill="#CED0D6"/>
<path d="M5.5 4.69995C5.5 4.28574 5.83579 3.94995 6.25 3.94995H17.25C17.6642 3.94995 18 4.28574 18 4.69995C18 5.11416 17.6642 5.44995 17.25 5.44995H6.25C5.83579 5.44995 5.5 5.11416 5.5 4.69995Z" fill="#CED0D6"/>
<circle cx="3.1" cy="10" r="1.1" fill="#CED0D6"/>
<path d="M5.5 10C5.5 9.58579 5.83579 9.25 6.25 9.25H17.25C17.6642 9.25 18 9.58579 18 10C18 10.4142 17.6642 10.75 17.25 10.75H6.25C5.83579 10.75 5.5 10.4142 5.5 10Z" fill="#CED0D6"/>
<circle cx="3.1" cy="15.3" r="1.1" fill="#CED0D6"/>
<path d="M5.5 15.3C5.5 14.8858 5.83579 14.55 6.25 14.55H17.25C17.6642 14.55 18 14.8858 18 15.3C18 15.7143 17.6642 16.05 17.25 16.05H6.25C5.83579 16.05 5.5 15.7143 5.5 15.3Z" fill="#CED0D6"/>
</svg>
