<svg width="16" height="16" viewBox="0 0 16 16" fill="none" xmlns="http://www.w3.org/2000/svg">
<path d="M14.206 1.02165C13.8872 1.07586 13.2997 1.34141 12.5452 1.76906L12.6768 2.83484C13.1847 2.48908 13.6838 2.19511 14.1589 1.96365C14.194 1.94403 14.214 1.93514 14.214 1.93514C14.194 1.94403 14.1788 1.95476 14.1589 1.96365C14.0021 2.04142 13.5226 2.29877 12.7319 2.87807C13.2221 3.03863 13.9996 3.22674 14.6413 3.35169C15.2051 2.4149 15.0264 1.81663 15.0264 1.81663C15.0264 1.81663 14.855 0.912126 14.206 1.02165Z" fill="url(#paint0_linear_1228_28960)"/>
<path d="M10.415 4.58771C10.6608 4.37859 10.9066 4.16947 11.1469 3.97478C11.4023 3.76936 11.6492 3.57171 11.902 3.38736C11.9172 3.37663 11.9324 3.36589 11.9475 3.35516C12.1937 3.17378 12.438 2.99721 12.6769 2.83506L12.5452 1.76929C12.495 1.79965 12.4399 1.82816 12.3896 1.85852C12.1903 1.97515 11.9807 2.10436 11.7626 2.24134C11.516 2.39498 11.2639 2.56305 10.9966 2.74186C10.7512 2.90696 10.5039 3.07688 10.251 3.26122C10.037 3.41632 9.82111 3.57623 9.60154 3.74576C9.59304 3.75353 9.58638 3.75649 9.57788 3.76427L9.72528 5.20578C9.95665 4.99113 10.1843 4.78609 10.415 4.58771Z" fill="url(#paint1_linear_1228_28960)"/>
<path d="M5.68228 9.29825C5.8933 9.06474 6.11098 8.82828 6.3305 8.587C6.53968 8.35831 6.75366 8.13146 6.9743 7.90165C7.19494 7.67183 7.41374 7.44683 7.63438 7.21702C7.86167 6.98425 8.09378 6.75332 8.32404 6.5272C8.5543 6.30108 8.78271 6.07977 9.01593 5.8603C9.10094 5.78258 9.18114 5.70302 9.26615 5.6253C9.41252 5.48836 9.55704 5.35624 9.70156 5.22411C9.71006 5.21634 9.71856 5.20857 9.72521 5.2056L9.57966 3.75928C9.5645 3.77001 9.5475 3.78556 9.53235 3.79629C9.29947 3.97175 9.0677 4.15866 8.83594 4.34558C8.60233 4.53731 8.36687 4.73384 8.13623 4.93223C7.93958 5.09952 7.74591 5.27347 7.55703 5.44926C7.51638 5.48332 7.48053 5.51921 7.44467 5.55511C7.2048 5.77754 6.98304 5.99588 6.7794 6.21015C6.54361 6.4507 6.33258 6.6842 6.13672 6.90697C6.00774 7.0561 5.88727 7.19745 5.77345 7.33585C5.67848 7.45389 5.58647 7.57858 5.49631 7.69846C5.2831 7.98079 5.08247 8.27346 4.89331 8.56501C4.89331 8.56501 4.92185 9.4533 5.03513 10.0195C5.19995 9.83443 5.36851 9.64129 5.53999 9.4533C5.58619 9.40482 5.63423 9.35153 5.68228 9.29825Z" fill="url(#paint2_linear_1228_28960)"/>
<path d="M4.89447 8.5625C4.668 8.9225 4.43822 9.33391 4.26168 9.70756C4.25614 9.72198 4.2506 9.73641 4.2421 9.74418C4.16789 9.36256 3.77258 8.86872 3.77073 8.87353C3.93131 9.54763 4.00902 10.1789 3.85293 10.7149C3.64099 10.6777 3.39384 10.5166 3.12852 10.2878C3.33627 10.7097 3.55015 10.8856 3.6371 10.9465C3.33156 10.8513 2.94624 10.9352 2.5432 11.0508C3.07206 11.0386 3.47004 11.1086 3.71239 11.2679C2.83803 12.2951 1.91272 13.4407 0.958984 14.6747C1.1036 14.6861 1.21377 14.6291 1.30136 14.5303C2.49898 13.003 5.0469 10.0078 5.0469 10.0078C4.92574 9.44142 4.89447 8.5625 4.89447 8.5625Z" fill="url(#paint3_linear_1228_28960)"/>
<path d="M9.80066 5.32031C9.80066 5.32031 8.50793 6.55458 7.71817 7.36798C6.67281 8.44463 5.97427 9.2199 5.13988 10.1937C5.13803 10.1985 5.12953 10.2062 5.12769 10.2111C5.21422 10.2341 5.61632 10.3324 5.61632 10.3324C6.23552 10.4873 7.18923 10.3458 7.90278 9.99621C8.23442 9.8366 8.56047 9.61966 8.88574 9.34725C9.1297 9.14294 9.37808 8.91274 9.62976 8.64519C9.85225 8.41057 10.0725 8.15302 10.302 7.87143C10.1396 7.89187 9.96544 7.8857 9.77939 7.85291C9.74869 7.84664 9.71134 7.84333 9.68064 7.83707C9.64994 7.8308 9.61443 7.82269 9.57892 7.81457C10.2084 7.81342 10.7163 7.53941 11.1584 7.13526C10.9754 7.18087 10.6917 7.21545 10.384 7.16906C10.3418 7.16391 10.3015 7.15395 10.2612 7.14399C10.2516 7.1403 10.2401 7.14141 10.2305 7.13772C10.4542 7.12981 10.6462 7.10416 10.8262 7.0519C10.8643 7.03893 10.9024 7.02596 10.9405 7.01299C10.9985 6.99113 11.0518 6.96743 11.105 6.94373C11.1383 6.92891 11.1734 6.90929 11.2085 6.88966C11.2873 6.84264 11.366 6.79562 11.4437 6.73714C11.4673 6.71863 11.491 6.70012 11.5146 6.68161C11.5468 6.65533 11.576 6.6224 11.6081 6.59612C11.7442 6.47177 11.8602 6.3563 11.9545 6.25454C12.0025 6.20125 12.0468 6.15758 12.0816 6.11022C12.0986 6.09468 12.1108 6.07728 12.1248 6.05509C12.1662 6.00476 12.2009 5.9574 12.232 5.91966C12.2771 5.85971 12.307 5.81051 12.3314 5.77573C12.3066 5.78277 12.2818 5.78981 12.2522 5.79501C12.0026 5.83887 11.6748 5.80604 11.4139 5.74219C11.2553 5.70335 9.80066 5.32031 9.80066 5.32031Z" fill="url(#paint4_linear_1228_28960)"/>
<path d="M12.7539 2.86328C12.5332 3.02134 12.267 3.21284 11.9983 3.42419C11.9831 3.43492 11.9679 3.44566 11.9576 3.45824C11.7277 3.64035 11.4789 3.84281 11.2161 4.06747C10.9873 4.26105 10.7482 4.4672 10.4902 4.69371C10.271 4.89097 10.0366 5.09897 9.79492 5.32621L11.408 5.75231C11.9395 5.71905 12.2135 5.60903 12.5158 5.4106C12.5983 5.35396 12.6807 5.29732 12.765 5.23587C13.0197 5.04672 13.2836 4.83352 13.5265 4.61775C13.7626 4.40494 13.9826 4.1914 14.1644 3.99084C14.2793 3.86391 14.3809 3.7429 14.4559 3.63375C14.5254 3.53903 14.5853 3.44062 14.6414 3.35182C13.9967 3.22021 13.2441 3.02384 12.7539 2.86328Z" fill="url(#paint5_linear_1228_28960)"/>
<path d="M3.99634 11.5203C4.14289 11.6703 4.20409 11.9421 4.24941 12.2409C4.33282 11.9805 4.31747 11.7042 4.1923 11.441C5.0624 11.8191 5.91195 11.8914 6.55551 11.3936C6.61132 11.3488 6.66898 11.2992 6.72184 11.2478C6.45714 11.4055 6.19419 11.4149 5.78319 11.2351C5.78319 11.2351 5.78319 11.2351 5.77838 11.2332C5.77838 11.2332 5.77838 11.2332 5.78319 11.2351C6.50397 11.1972 6.91328 11.0509 7.35723 10.7137C7.46036 10.6319 7.57015 10.5471 7.68066 10.4461C6.92976 10.7924 6.23785 10.7052 5.62516 10.332C5.35476 10.2588 5.12906 10.2109 5.12906 10.2109C5.12906 10.2109 4.30688 11.1495 3.99634 11.5203Z" fill="url(#paint6_linear_1228_28960)"/>
<defs>
<linearGradient id="paint0_linear_1228_28960" x1="13.5146" y1="4.16759" x2="17.0501" y2="3.00898" gradientUnits="userSpaceOnUse">
<stop stop-color="#F69923"/>
<stop offset="0.3123" stop-color="#F79A23"/>
<stop offset="0.8383" stop-color="#E97826"/>
</linearGradient>
<linearGradient id="paint1_linear_1228_28960" x1="8.73674" y1="20.3363" x2="19.0017" y2="8.28939" gradientUnits="userSpaceOnUse">
<stop offset="0.3233" stop-color="#9E2064"/>
<stop offset="0.6302" stop-color="#C92037"/>
<stop offset="0.7514" stop-color="#CD2335"/>
<stop offset="1" stop-color="#E97826"/>
</linearGradient>
<linearGradient id="paint2_linear_1228_28960" x1="6.22581" y1="21.5078" x2="19.7489" y2="11.5918" gradientUnits="userSpaceOnUse">
<stop offset="0.3233" stop-color="#9E2064"/>
<stop offset="0.6302" stop-color="#C92037"/>
<stop offset="0.7514" stop-color="#CD2335"/>
<stop offset="1" stop-color="#E97826"/>
</linearGradient>
<linearGradient id="paint3_linear_1228_28960" x1="2.63622" y1="18.8807" x2="11.5932" y2="14.9878" gradientUnits="userSpaceOnUse">
<stop stop-color="#282662"/>
<stop offset="0.0954839" stop-color="#662E8D"/>
<stop offset="0.7882" stop-color="#9F2064"/>
<stop offset="0.9487" stop-color="#CD2032"/>
</linearGradient>
<linearGradient id="paint4_linear_1228_28960" x1="11.2185" y1="18.5394" x2="17.2528" y2="4.50434" gradientUnits="userSpaceOnUse">
<stop offset="0.3233" stop-color="#9E2064"/>
<stop offset="0.6302" stop-color="#C92037"/>
<stop offset="0.7514" stop-color="#CD2335"/>
<stop offset="1" stop-color="#E97826"/>
</linearGradient>
<linearGradient id="paint5_linear_1228_28960" x1="14.384" y1="19.141" x2="18.1506" y2="4.69325" gradientUnits="userSpaceOnUse">
<stop offset="0.3233" stop-color="#9E2064"/>
<stop offset="0.6302" stop-color="#C92037"/>
<stop offset="0.7514" stop-color="#CD2335"/>
<stop offset="1" stop-color="#E97826"/>
</linearGradient>
<linearGradient id="paint6_linear_1228_28960" x1="9.31285" y1="15.6032" x2="11.1569" y2="8.05646" gradientUnits="userSpaceOnUse">
<stop stop-color="#282662"/>
<stop offset="0.0954839" stop-color="#662E8D"/>
<stop offset="0.7882" stop-color="#9F2064"/>
<stop offset="0.9487" stop-color="#CD2032"/>
</linearGradient>
</defs>
</svg>
