<svg width="16" height="16" viewBox="0 0 16 16" fill="none" xmlns="http://www.w3.org/2000/svg">
<path d="M8 11.7001V15.1001L1 11.6001V9.6001L8 11.7001Z" fill="#9C5121"/>
<path d="M8 11.7001V15.1001L15 11.6001V9.6001L8 11.7001Z" fill="#FB8835"/>
<path d="M8 11.7001L1 9.60008L8 8.77637L15 9.60006L8 11.7001Z" fill="#FFC39C"/>
<path d="M1.00781 6.65601V8.63647L1.90114 8.81064V6.65601H1.00781Z" fill="#9C5121"/>
<path d="M2.44139 6.65601L2.44139 8.75366L1.90112 8.81064V6.65601H2.44139Z" fill="#FB8835"/>
<path d="M2.43579 8.91499L3.55912 9.134V4.1377L2.43579 4.37146V8.91499Z" fill="#9C5121"/>
<path d="M4.69016 8.99349L3.55884 9.134V4.1377L4.69016 4.27493L4.69016 8.99349Z" fill="#FB8835"/>
<path d="M4.27344 9.27318L5.88551 9.58748V5.14819L4.27344 5.31616V9.27318Z" fill="#9C5121"/>
<path d="M6.91405 9.40991L5.8855 9.58748V5.14819L6.91405 5.23413V9.40991Z" fill="#FB8835"/>
<path d="M15.0072 1.67578V8.63672L14.1172 8.80986V1.24097L15.0072 1.67578Z" fill="#FB8835"/>
<path d="M13.1289 1.46875V8.66386L14.1178 8.80986V1.24097L13.1289 1.46875Z" fill="#9C5121"/>
<path d="M13.6282 8.90494L12.4229 9.13942V1.646L13.6282 2.1218V8.90494Z" fill="#FB8835"/>
<path d="M11.3281 9.00514L12.4232 9.13942V1.646L11.3281 1.91396V9.00514Z" fill="#9C5121"/>
<path d="M11.7438 9.27177L10.0955 9.59244V3.67969L11.7438 4.01841V9.27177Z" fill="#FB8835"/>
<path d="M9.09473 9.42121L10.0955 9.59244V3.67969L9.09473 3.82248V9.42121Z" fill="#9C5121"/>
<path d="M7.99995 1.54443V9.99978L6.91187 9.78764V1.91097L7.99995 1.54443Z" fill="#9C5121"/>
<path d="M8 1.5415V9.99987L9.10846 9.78424V1.8904L8 1.5415Z" fill="#FB8835"/>
</svg>
