<svg width="16" height="16" viewBox="0 0 16 16" fill="none" xmlns="http://www.w3.org/2000/svg">
<rect x="1" y="1" width="14" height="7" fill="#020303"/>
<rect x="1" y="8" width="14" height="7" fill="#59A869"/>
<path d="M2 2V3.03491H2.85543V5.97756H2.02329V7H5V5.97756H4.14456V3.03491H4.97669V2H2Z" fill="white"/>
<path d="M9.5 2V3.025H10.0644V5.975H9.51538V7H10.915V4.14797L11.749 6.99902L11.766 6.99953L12.585 4.14799V7H14V5.975H13.4356V3.025H13.9846V2H12.4072L11.7541 4.28609L11.0928 2H9.5Z" fill="white"/>
<path fill-rule="evenodd" clip-rule="evenodd" d="M5.5 2V3.01756H6.12775V5.96395H5.5V7H7.87381C8.29494 7 8.6129 6.65422 8.6129 6.65422L8.86278 6.32705C8.93355 6.24789 8.97413 5.98176 8.97413 5.98176L9 5.65509C9 5.49169 8.93994 5.30884 8.93994 5.30884L8.81062 4.98216C8.74622 4.81381 8.54409 4.63639 8.54409 4.63639V4.31699C8.54409 4.32143 8.74622 4.14718 8.81062 3.98182L8.93994 3.66098C8.93994 3.66098 9 3.48139 9 3.32091L8.97413 3.00006C8.97413 3.00006 8.93355 2.73869 8.86278 2.66094L8.6129 2.3396C8.6129 2.3396 8.29494 2 7.87381 2H5.5ZM7.99392 3.025H7.07377V3.975H7.99392V3.025ZM7.07377 5.0125H7.99392V5.9625H7.07377V5.0125Z" fill="white"/>
<path fill-rule="evenodd" clip-rule="evenodd" d="M2.02134 13.9986V8.99858H3.19167C4.42794 8.99858 5.02134 9.7927 5.02134 11.3589C5.02134 13.0574 4.49387 13.9986 3.10101 13.9986H2.02134ZM3.00979 13.0062V10.0062H3.3999C3.81199 10.0062 4.00979 10.4827 4.00979 11.4224C4.00979 12.4415 3.83397 13.0062 3.36968 13.0062H3.00979ZM6.49407 13.9628V8.96277H7.92922C8.7592 8.96277 9.36731 9.34012 9.36731 10.1048C9.36731 10.8695 9.04941 11.0848 8.8324 11.1478C9.29061 11.2728 9.49407 11.7201 9.49407 12.4995C9.49407 13.3819 8.88888 13.9628 7.87735 13.9628H6.49407ZM7.48605 10.6929H7.89081C8.31462 10.6929 8.48605 10.5213 8.48605 10.1908C8.48605 9.89373 8.3051 9.69289 7.94795 9.69289H7.48605V10.6929ZM7.48671 11.4589V13.2589H7.90913C8.28413 13.2589 8.48671 12.9221 8.48671 12.3466C8.48671 11.7466 8.25826 11.4589 7.84878 11.4589H7.48671ZM14 13.9986L11.0029 14.0062C11.0029 14.0062 10.9492 12.7355 11.7139 11.8835C12.3536 11.1735 13 10.882 13 10.2916C13 10.2841 12.9293 9.9 12.4893 9.9C12.0494 9.9 12.0025 10.3663 12.0025 10.3663H10.9787C10.986 9.66375 11.6494 8.99858 12.4803 8.99858C13.3259 8.99858 14 9.60396 14 10.2916C14 11.0016 13.5071 11.3454 12.86 12.0479C12.8734 12.0333 12.1889 12.6579 12.108 13.0017H14V13.9986Z" fill="white"/>
</svg>
