<svg width="16" height="16" viewBox="0 0 16 16" fill="none" xmlns="http://www.w3.org/2000/svg">
<path d="M15 8.33279C15 7.15082 14.2686 6.12951 13.1829 5.72787C13.2286 5.47541 13.2514 5.23443 13.2514 4.97049C13.2514 2.77869 11.48 1 9.29714 1C8.02857 1 6.84 1.6082 6.09714 2.65246C5.73143 2.36557 5.28571 2.21639 4.81714 2.21639C3.66286 2.21639 2.71429 3.15738 2.71429 4.32787C2.71429 4.58033 2.76 4.83279 2.84 5.06229C1.74286 5.44098 1 6.49672 1 7.66721C1 8.84918 1.73143 9.88197 2.82857 10.2836C2.78286 10.5246 2.76 10.777 2.76 11.041C2.76 13.2213 4.53143 15 6.70286 15C7.98286 15 9.16 14.3803 9.90286 13.3475C10.2686 13.6344 10.7257 13.7951 11.1943 13.7951C12.3486 13.7951 13.2971 12.8541 13.2971 11.6836C13.2971 11.4311 13.2514 11.1787 13.1714 10.9492C14.2457 10.559 15 9.50328 15 8.33279Z" fill="white"/>
<path d="M6.47388 7.01308L9.59388 8.44751L12.7482 5.67046C12.7939 5.44095 12.8167 5.21145 12.8167 4.97046C12.8167 3.01964 11.2396 1.43604 9.29674 1.43604C8.13102 1.43604 7.04531 2.00981 6.39388 2.97374L5.86816 5.70489L6.47388 7.01308Z" fill="#F4BD19"/>
<path d="M3.24045 10.3295C3.19473 10.559 3.17188 10.8 3.17188 11.041C3.17188 12.9918 4.76045 14.5869 6.7033 14.5869C7.88045 14.5869 8.96616 14.0017 9.62902 13.0377L10.1433 10.3066L9.44616 8.97544L6.31473 7.54102L3.24045 10.3295Z" fill="#3CBEB1"/>
<path d="M3.21712 4.90153L5.35426 5.40644L5.83426 2.96218C5.53712 2.73267 5.18283 2.61792 4.80569 2.61792C3.87997 2.61792 3.11426 3.3753 3.11426 4.31628C3.11426 4.51136 3.14854 4.71792 3.21712 4.90153Z" fill="#E9478C"/>
<path d="M3.03399 5.41797C2.07399 5.7278 1.41113 6.65731 1.41113 7.66715C1.41113 8.65403 2.01685 9.53764 2.93113 9.8819L5.93685 7.15076L5.38828 5.96879L3.03399 5.41797Z" fill="#2C458F"/>
<path d="M10.1768 13.0263C10.4739 13.2558 10.8282 13.382 11.1939 13.382C12.1196 13.382 12.8853 12.6247 12.8853 11.6837C12.8853 11.4771 12.851 11.282 12.7825 11.0984L10.6453 10.5935L10.1768 13.0263Z" fill="#95C63D"/>
<path d="M10.611 10.031L12.9653 10.5819C13.9253 10.2605 14.5881 9.34251 14.5881 8.33267C14.5881 7.34579 13.9824 6.47366 13.0681 6.11792L9.98242 8.82612L10.611 10.031Z" fill="#176655"/>
</svg>
