<svg width="16" height="16" viewBox="0 0 16 16" fill="none" xmlns="http://www.w3.org/2000/svg">
<path d="M11.5397 10.5824C11.197 10.3352 10.8696 9.99513 10.6795 9.73303L10.6761 9.74983C10.6524 9.86549 10.6201 10.0229 10.7484 10.222C10.8501 10.38 11.2869 10.7746 11.2869 10.7746L11.5397 10.5824Z" fill="black"/>
<path d="M10.0491 5.66469C9.9523 5.59434 9.85971 5.4523 9.75989 5.29918C9.61127 5.07119 9.44664 4.81863 9.22817 4.74161C9.12135 4.73336 9.0359 4.71791 8.95497 4.70328C8.7798 4.67161 8.62575 4.64376 8.32174 4.70094C8.37329 4.6771 8.42392 4.65112 8.47455 4.62515C8.58225 4.56989 8.68995 4.51464 8.80652 4.4799C8.89856 4.45984 8.98608 4.47331 9.07359 4.48678C9.09644 4.49029 9.11929 4.49381 9.14222 4.49673C9.16957 4.4848 9.18749 4.46996 9.1808 4.44753C8.89727 4.28579 8.42484 4.22509 7.95911 4.16524C7.68988 4.13065 7.42289 4.09634 7.19592 4.04297C7.36183 4.04809 7.53181 4.05008 7.70179 4.05207C8.26857 4.05868 8.83535 4.0653 9.2511 4.18837C9.56124 4.44243 9.72194 4.85662 9.86934 5.23652C9.92846 5.38892 9.98549 5.53588 10.0491 5.66469Z" fill="black"/>
<path fill-rule="evenodd" clip-rule="evenodd" d="M10.7515 7.79551C10.7515 7.79551 11.0784 7.75152 11.072 7.77969C11.0506 7.87434 11.1006 8.09194 11.1156 8.10656L10.9353 8.24236C11.233 8.10419 11.5429 8.09437 11.8581 8.08438C11.9504 8.08145 12.0432 8.07851 12.1363 8.07233C12.1363 8.07233 11.7903 7.98415 11.8115 7.98138C11.8886 7.97127 11.7909 7.64829 11.7644 7.6413C11.8303 7.62073 11.8946 7.60523 11.9611 7.58989C11.4663 7.47037 11.1802 7.54079 10.7515 7.79551ZM11.1191 8.10396L11.1156 8.10656C11.1172 8.10811 11.1184 8.10737 11.1191 8.10396Z" fill="black"/>
<path fill-rule="evenodd" clip-rule="evenodd" d="M3.75281 1.55776C3.62545 1.67945 3.52722 1.79009 3.43566 1.89322C3.28614 2.06162 3.15442 2.20998 2.94274 2.35368C2.87448 2.40802 2.68291 2.49211 2.44208 2.50508C2.41503 2.50633 2.39022 2.50836 2.3653 2.51039C2.28573 2.51689 2.20501 2.52348 2.04626 2.50508C1.86241 2.41319 1.60611 2.54346 1.43564 2.73167C1.31974 2.88553 1.28646 3.12513 1.25443 3.3557C1.2348 3.49698 1.21565 3.63487 1.17825 3.74756C1.09679 4.05127 1.10497 4.34661 1.19592 4.62242C1.3315 5.03356 1.50873 5.40132 1.80559 5.68879C2.24686 6.08671 2.50127 6.38284 2.68244 6.74763C2.76248 6.88568 2.80682 7.00403 2.85172 7.12389C2.88377 7.20945 2.91611 7.29578 2.96194 7.39061C3.00161 7.46279 3.06269 7.54807 3.16948 7.56982C3.32534 7.60053 3.52199 7.61084 3.72101 7.62128C3.81642 7.62628 3.9124 7.63131 4.00467 7.63863C4.12787 7.64022 4.29706 7.63112 4.45737 7.61569L4.53978 7.60149C4.74095 7.56699 4.96432 7.52868 5.15531 7.4677C5.23358 7.44991 5.27189 7.44312 5.29759 7.43857C5.34168 7.43076 5.34865 7.42952 5.4565 7.39061C5.44411 7.42942 5.36802 7.51033 5.29387 7.58919C5.23626 7.65046 5.1798 7.7105 5.15531 7.74857C4.72785 8.41302 4.69925 9.02144 4.78832 9.9706C4.84531 10.4464 4.95318 10.8409 5.13168 11.2922C5.21337 11.4987 5.45521 11.9416 5.62178 12.1589C6.11712 12.8049 7.25413 13.6184 8.79673 13.9378C9.06586 13.9717 9.34242 13.9254 9.62968 13.8548C10.391 13.6417 12.4448 12.9708 12.4448 12.9708C12.4448 12.9708 10.5653 13.0981 9.93454 13.0406C9.88246 13.0331 9.83234 13.0282 9.78813 13.0239C9.70837 13.0163 9.64783 13.0104 9.62968 12.994L9.62345 12.9872C9.58009 12.9401 9.32849 12.6669 9.15463 12.3306C9.0276 12.0849 8.95805 11.782 8.93227 11.6697C8.92681 11.6459 8.92332 11.6307 8.92165 11.6263C8.85463 11.4555 9.01757 10.8156 9.01757 10.8156C9.03631 10.7811 9.04811 10.7552 9.05698 10.7358C9.08231 10.6802 9.08368 10.6772 9.15463 10.6763L9.17729 10.6786C9.44857 10.7064 9.52687 10.7145 9.69848 10.6763C9.71595 10.7095 9.73259 10.7426 9.74911 10.7755C9.84531 10.9672 9.93785 11.1517 10.1693 11.2922C11.0571 11.5355 11.2621 11.2693 11.4766 10.9908L11.488 10.976C11.9204 11.2689 12.5701 11.4149 13.173 11.2922C13.4767 11.2304 13.7685 11.0776 14.0146 10.8872C14.9491 9.8891 15.2178 8.16022 15.135 8.07037C15.0827 7.98845 14.8087 7.93361 14.5232 7.93371C14.3568 7.93377 14.1864 7.94814 14.0538 7.95932C13.9064 7.97175 13.8056 7.98026 13.8084 7.96085C13.8228 7.81527 13.8131 7.63213 13.7194 7.45039C13.6167 7.25088 13.5001 7.05305 13.4148 6.90842C13.3841 6.85633 13.3575 6.81112 13.337 6.77525C13.3038 6.72831 13.0438 6.23102 13.0438 6.23102C13.0439 6.22953 13.0425 6.2285 13.0396 6.22789C13.0084 6.18342 12.8147 5.7718 12.8224 5.71531C12.8932 5.31064 13.0151 5.0048 13.1513 4.66312C13.1714 4.61292 13.1917 4.56194 13.2122 4.50975C13.2217 4.48921 13.2308 4.47049 13.2393 4.45305C13.2734 4.38327 13.2974 4.33416 13.2948 4.27155C13.2974 4.13267 13.0737 3.62487 12.7226 3.15894L12.675 3.09559C12.3452 2.65672 12.0628 2.28095 11.5398 2.0632C11.0242 1.84852 10.7222 1.9027 10.5147 1.9399L10.4768 1.94663C10.224 1.99524 9.87174 2.11008 9.69848 2.21251C9.55997 2.29439 9.47134 2.37589 9.38472 2.45554C9.30082 2.53269 9.21881 2.60811 9.09517 2.68046C8.64138 2.47099 8.3792 2.30936 8.27096 2.24262C8.24658 2.22759 8.23001 2.21738 8.22082 2.21251C8.19848 2.20146 8.16689 2.18536 8.12705 2.16505C7.82763 2.01238 7.06194 1.62196 6.25147 1.35337C5.5742 1.12893 4.86565 1.03567 4.37175 1C4.23378 1.08307 4.14921 1.16723 3.99325 1.32241C3.92842 1.38691 3.85126 1.4637 3.75281 1.55776ZM13.0396 6.22789C13.0421 6.23137 13.0436 6.23268 13.0438 6.23102L13.0396 6.22789ZM12.4749 5.65572C12.4434 5.87516 12.6921 6.29028 12.6921 6.29028C12.709 6.35387 12.7488 6.43261 12.7928 6.5195C12.8258 6.58454 12.861 6.65416 12.8907 6.72539C13.0482 7.10374 13.3119 7.52778 13.337 7.55644C13.4305 7.69569 13.4278 7.85322 13.4253 7.99752C13.4231 8.12321 13.4211 8.23886 13.483 8.32363C13.4847 8.3268 13.4909 8.33406 13.5011 8.34327C13.4593 8.44258 13.4236 8.57541 13.3927 8.69037C13.3666 8.78715 13.344 8.87128 13.324 8.91209C13.2972 8.97048 13.0458 9.44596 12.7858 9.54056C12.5779 9.61617 12.2019 9.89294 12.2501 9.9011C12.5245 9.94758 13.3541 9.55222 13.4887 9.4066C13.5208 9.33623 13.5764 9.21963 13.6402 9.08588L13.6407 9.08497C13.747 8.86194 13.8761 8.5913 13.957 8.40822C13.9953 8.40246 14.035 8.39539 14.0759 8.38726C14.4053 8.32187 14.785 8.38765 14.7825 8.41343C14.7467 8.78028 14.6044 9.25131 14.4194 9.64084C14.2207 9.99413 14.0125 10.3004 13.8084 10.5306C13.6173 10.7461 13.4368 10.8949 13.0764 10.9531C12.4503 11.054 12.0769 10.86 11.734 10.6818C11.6686 10.6479 11.6044 10.6145 11.5398 10.5839L11.2889 10.7747C11.0477 10.9964 10.8214 11.0312 10.6226 11.0251C10.3886 11.0179 10.1925 10.9248 10.0547 10.5839C10.0405 10.5565 10.0244 10.5301 10.0069 10.5046C9.97968 10.453 9.953 10.3972 9.926 10.3408C9.87067 10.225 9.81394 10.1064 9.74851 10.0149C8.98134 9.45489 9.30544 8.94362 9.51646 8.61074L9.53384 8.58329C9.09536 8.48102 8.51437 8.26364 8.43434 7.97773C8.30565 7.05301 8.37099 6.75966 8.49979 6.28468L8.44137 6.29605C7.88299 6.40464 7.3168 6.51476 6.71865 6.6964C6.7088 6.69486 6.6983 6.69513 6.68713 6.69747C6.51903 6.73273 5.89148 6.88345 5.73144 6.96343C5.54072 7.01447 5.36703 7.04299 5.17816 7.074C5.00662 7.10217 4.82254 7.1324 4.60178 7.18342C4.451 7.20045 3.32183 7.12776 3.28555 7.09665C3.20846 6.99741 3.18987 6.90714 3.16668 6.79454C3.14268 6.67797 3.11375 6.53747 3.00987 6.33832C2.92003 6.16608 2.56863 5.82721 2.4177 5.68879C1.92368 5.23571 1.83149 4.9704 1.71314 4.50619C1.70732 4.47938 1.69964 4.45239 1.69136 4.42328C1.65729 4.30352 1.61301 4.14785 1.64578 3.8216C1.69123 3.67699 1.69098 3.56389 1.69075 3.46246C1.69037 3.29535 1.69007 3.15988 1.89428 2.96727C2.02353 2.9692 2.14784 2.96302 2.2667 2.9571C2.46189 2.9474 2.6424 2.93842 2.80605 2.96727C2.8339 2.97157 2.86868 2.97537 2.9089 2.97976C3.04312 2.99441 3.23788 3.01567 3.43752 3.08432C3.47951 3.09876 3.58445 3.13635 3.7207 3.18515C4.14965 3.33879 4.88884 3.60355 4.95084 3.60701C5.15973 3.61867 4.1222 3.11263 3.72729 2.92002L3.643 2.87885C3.47793 2.79796 3.36878 2.75304 3.30166 2.72541C3.24353 2.70149 3.21694 2.69054 3.21286 2.68046C3.64338 2.44696 3.76925 2.28481 3.91261 2.10015C3.99959 1.9881 4.09301 1.86775 4.26483 1.71815C4.3579 1.68076 4.42555 1.62784 4.48774 1.5792C4.5645 1.51916 4.63292 1.46564 4.73052 1.45585C4.88792 1.47883 5.02911 1.49654 5.15945 1.51289C5.53975 1.5606 5.82769 1.59673 6.1567 1.71815C6.88546 1.9871 7.56803 2.31435 8.07463 2.56445C8.21155 2.63318 8.33946 2.69497 8.46273 2.75451C8.63677 2.83858 8.8016 2.9182 8.96945 3.00658C9.2208 3.0829 10.0546 3.61148 10.2765 3.89647C10.502 4.33595 10.6835 4.81068 10.8337 5.26877C10.8373 5.28461 10.8411 5.30264 10.8454 5.32284C10.8657 5.41924 10.8964 5.56529 10.973 5.761C11.0308 5.90903 11.2197 6.29028 11.2197 6.29028C11.2197 6.29028 11.0458 5.23722 11.0274 5.17795C10.9348 4.88009 10.8471 4.49433 10.7781 4.19072C10.7169 3.92148 10.6703 3.71681 10.6481 3.69537C10.515 3.54077 10.008 3.14865 9.66753 2.96727C9.63731 2.95118 9.60872 2.93651 9.58257 2.92311C9.4973 2.87939 9.43807 2.84902 9.4339 2.82593C9.45332 2.80783 9.47039 2.79169 9.48603 2.77692C9.55801 2.70891 9.59953 2.66967 9.69848 2.59963C9.7292 2.57789 9.75918 2.55422 9.78968 2.53013C9.87382 2.46369 9.96187 2.39416 10.08 2.35368C10.1081 2.34201 10.1362 2.32966 10.1645 2.3173C10.2668 2.27249 10.3698 2.22739 10.4714 2.21251C10.9408 2.14375 11.3799 2.23602 11.5817 2.4003C11.9897 2.73249 12.5447 3.41302 12.7937 3.8531C12.8912 4.02893 12.9359 4.1447 12.8907 4.35641C12.8477 4.55694 12.8074 4.67205 12.7613 4.80375L12.7534 4.82637C12.7426 4.8571 12.7234 4.90948 12.6998 4.97354C12.6149 5.20457 12.4741 5.58759 12.4749 5.65572ZM6.78234 7.11456C6.4746 7.17999 6.16896 7.26499 5.90538 7.42956C5.84888 7.45094 5.66981 7.67971 5.62178 7.74857C5.45762 7.98393 5.35429 8.23152 5.29208 8.48331C5.63319 9.34939 6.441 10.5451 8.55128 10.9914C8.55284 10.9119 8.55665 10.8534 8.56394 10.8371C8.60069 10.7551 8.62907 10.688 8.65378 10.6295C8.69185 10.5394 8.72125 10.4699 8.75916 10.3981L8.78255 10.3847C8.53871 10.2609 8.45109 10.1552 8.30264 9.97612C8.27402 9.94159 8.24301 9.90417 8.20831 9.86353C7.65209 8.99897 7.09289 8.05696 6.78234 7.11456ZM8.86547 12.535C7.93284 12.5491 6.98462 12.4225 6.22472 12.1305C6.23383 12.1403 6.24276 12.1497 6.25147 12.1589C6.64856 12.5322 6.97603 12.7456 7.48361 13.0406C7.5082 13.0549 8.45711 13.4552 8.92165 13.5235C9.10123 13.5515 9.51275 13.4474 9.3931 13.3034C9.39106 13.2994 9.30747 13.1872 9.21365 13.0612C9.11731 12.9318 9.01003 12.7878 8.96945 12.732C8.93887 12.6899 8.903 12.6196 8.86547 12.535Z" fill="black"/>
<path d="M11.1186 8.10391L11.1151 8.10652C11.1167 8.10807 11.1179 8.10733 11.1186 8.10391Z" fill="#FDEE21"/>
<path fill-rule="evenodd" clip-rule="evenodd" d="M12.6916 6.29024C12.6916 6.29024 12.4429 5.87512 12.4744 5.65567C12.4736 5.58756 12.6144 5.20459 12.6993 4.97356L12.6998 4.97207C12.7232 4.90865 12.7422 4.85683 12.7529 4.82633L12.7608 4.80371C12.8069 4.67201 12.8472 4.55689 12.8902 4.35637C12.9354 4.14465 12.8907 4.02888 12.7932 3.85306C12.5442 3.41298 11.9892 2.73245 11.5812 2.40025C11.3794 2.23598 10.9403 2.14371 10.4709 2.21247C10.3693 2.22735 10.2663 2.27245 10.164 2.31726C10.1357 2.32962 10.1076 2.34196 10.0795 2.35364C9.96137 2.39412 9.87332 2.46365 9.78918 2.53009C9.75868 2.55417 9.7287 2.57785 9.69798 2.59959C9.59903 2.66963 9.55751 2.70887 9.48553 2.77688C9.4699 2.79165 9.45282 2.80779 9.43341 2.82589C9.43757 2.84897 9.4968 2.87934 9.58207 2.92306C9.60821 2.93647 9.63681 2.95113 9.66703 2.96723C10.0075 3.14861 10.5145 3.54072 10.6476 3.69533C10.6698 3.71676 10.7163 3.92137 10.7775 4.19056C10.8466 4.49417 10.9343 4.88004 11.0269 5.17791C11.0453 5.23717 11.2192 6.29024 11.2192 6.29024C11.2192 6.29024 11.0303 5.90898 10.9725 5.76096C10.8959 5.56525 10.8652 5.4192 10.8449 5.3228C10.8406 5.30259 10.8368 5.28457 10.8332 5.26873C10.683 4.81064 10.5015 4.33591 10.2761 3.89643C10.0541 3.61144 9.22031 3.08285 8.96895 3.00654C8.80112 2.91817 8.63631 2.83856 8.46229 2.7545C8.33902 2.69496 8.21105 2.63314 8.07413 2.56441C7.56753 2.31431 6.88496 1.98706 6.1562 1.71811C5.82719 1.59669 5.53925 1.56056 5.15895 1.51285C5.02861 1.4965 4.88742 1.47878 4.73002 1.45581C4.63242 1.4656 4.564 1.51912 4.48724 1.57915C4.42506 1.6278 4.3574 1.68071 4.26433 1.71811C4.09251 1.86771 3.99909 1.98805 3.91211 2.1001C3.76875 2.28477 3.64288 2.44692 3.21236 2.68041C3.21644 2.6905 3.24303 2.70145 3.30116 2.72537C3.36828 2.75299 3.47743 2.79792 3.6425 2.87881L3.7268 2.91997C4.1217 3.11259 5.15923 3.61862 4.95034 3.60697C4.88834 3.60351 4.14915 3.33875 3.7202 3.18511C3.58395 3.13631 3.47901 3.09872 3.43702 3.08428C3.23738 3.01563 3.04262 2.99437 2.9084 2.97972C2.86819 2.97533 2.8334 2.97153 2.80555 2.96723C2.6419 2.93837 2.46139 2.94735 2.26621 2.95706C2.14734 2.96297 2.02303 2.96916 1.89378 2.96723C1.68957 3.15983 1.68988 3.2953 1.69025 3.46241C1.69048 3.56385 1.69073 3.67695 1.64528 3.82156C1.61252 4.14781 1.65679 4.30347 1.69086 4.42324C1.69914 4.45235 1.70682 4.47934 1.71264 4.50615C1.83099 4.97036 1.92318 5.23567 2.4172 5.68875C2.56813 5.82717 2.91954 6.16604 3.00938 6.33828C3.11325 6.53742 3.14218 6.67792 3.16618 6.7945C3.18937 6.9071 3.20796 6.99737 3.28505 7.09661C3.32133 7.12772 4.4505 7.20041 4.60128 7.18338C4.82204 7.13235 5.00612 7.10213 5.17766 7.07396C5.36654 7.04294 5.54022 7.01443 5.73094 6.96339C5.89098 6.88341 6.51853 6.73269 6.68663 6.69743C6.6978 6.69509 6.7083 6.69482 6.71815 6.69636C7.3163 6.51472 7.8825 6.4046 8.44087 6.296L8.49929 6.28464C8.37049 6.75962 8.30515 7.05297 8.43384 7.97769C8.51387 8.2636 9.09486 8.48097 9.53334 8.58324L9.51596 8.6107C9.30494 8.94358 8.98084 9.45484 9.74801 10.0149C9.81344 10.1064 9.87017 10.225 9.9255 10.3407C9.95251 10.3972 9.97918 10.453 10.0064 10.5046C10.0239 10.5301 10.04 10.5564 10.0542 10.5838C10.192 10.9247 10.3881 11.0178 10.6221 11.0251C10.8209 11.0312 11.0472 10.9964 11.2884 10.7747L11.5393 10.5838C11.6039 10.6145 11.6682 10.6478 11.7335 10.6818C12.0764 10.86 12.4498 11.054 13.0759 10.953C13.4363 10.8949 13.6168 10.7461 13.8079 10.5305C14.012 10.3004 14.2202 9.99408 14.4189 9.64079C14.6039 9.25126 14.7462 8.78024 14.782 8.41338C14.7845 8.3876 14.4048 8.32183 14.0754 8.38722C14.0345 8.39535 13.9948 8.40242 13.9565 8.40818C13.8756 8.59126 13.7465 8.8619 13.6402 9.08492L13.6397 9.08584C13.576 9.21941 13.5203 9.33626 13.4882 9.40655C13.3536 9.55218 12.524 9.94754 12.2496 9.90106C12.2014 9.8929 12.5774 9.61613 12.7853 9.54051C13.0453 9.44592 13.2967 8.97044 13.3235 8.91205C13.3435 8.87124 13.3661 8.78711 13.3922 8.69033C13.4231 8.57536 13.4588 8.44254 13.5006 8.34323C13.4904 8.33402 13.4842 8.32675 13.4825 8.32359C13.4206 8.23882 13.4226 8.12317 13.4248 7.99748C13.4273 7.85318 13.43 7.69564 13.3365 7.5564C13.3114 7.52774 13.0477 7.1037 12.8902 6.72535C12.8605 6.65416 12.8253 6.58458 12.7924 6.51957C12.7484 6.43268 12.7085 6.35383 12.6916 6.29024ZM9.75939 5.29914C9.85921 5.45226 9.9518 5.5943 10.0486 5.66464C9.98499 5.53584 9.92797 5.38888 9.86884 5.23648C9.72144 4.85658 9.56074 4.44239 9.2506 4.18833C8.83485 4.06526 8.26807 4.05864 7.70129 4.05202C7.53131 4.05004 7.36133 4.04805 7.19542 4.04293C7.42239 4.0963 7.68938 4.1306 7.95861 4.1652C8.42434 4.22505 8.89678 4.28575 9.1803 4.44748C9.18699 4.46991 9.16907 4.48475 9.14172 4.49669C9.11879 4.49377 9.09594 4.49025 9.0731 4.48674C8.98558 4.47327 8.89806 4.4598 8.80602 4.47986C8.68945 4.5146 8.58175 4.56985 8.47405 4.62511C8.42342 4.65108 8.37278 4.67706 8.32124 4.7009C8.62525 4.64372 8.7793 4.67157 8.95447 4.70324C9.0354 4.71787 9.12085 4.73332 9.22767 4.74157C9.44614 4.81859 9.61077 5.07115 9.75939 5.29914ZM10.679 9.73299C10.8692 9.99509 11.1965 10.3351 11.5392 10.5824L11.2864 10.7746C11.2864 10.7746 10.8496 10.3799 10.7479 10.222C10.6196 10.0229 10.6519 9.86545 10.6756 9.74979L10.679 9.73299ZM10.751 7.79547C10.751 7.79547 11.0779 7.75147 11.0715 7.77965C11.0501 7.8743 11.1001 8.0919 11.1151 8.10652L10.9348 8.24232C11.2325 8.10415 11.5424 8.09433 11.8576 8.08434C11.9499 8.08141 12.0427 8.07847 12.1358 8.07228C12.1358 8.07228 11.7898 7.9841 11.811 7.98133C11.8881 7.97123 11.7904 7.64825 11.7639 7.64125C11.8298 7.62069 11.8941 7.60519 11.9606 7.58985C11.4658 7.47033 11.1797 7.54075 10.751 7.79547Z" fill="#FDEE21"/>
<path d="M5.90488 7.42952C6.16846 7.26495 6.4741 7.17995 6.78184 7.11452C7.0924 8.05692 7.65159 8.99892 8.20781 9.86349C8.24251 9.90413 8.27352 9.94155 8.30214 9.97608C8.4506 10.1552 8.53821 10.2609 8.78205 10.3847L8.75866 10.398C8.72075 10.4698 8.69135 10.5394 8.65328 10.6295C8.62857 10.6879 8.60018 10.7551 8.56345 10.8371C8.55615 10.8534 8.55235 10.9118 8.55078 10.9913C6.4405 10.545 5.6327 9.34935 5.29159 8.48327C5.35379 8.23147 5.45713 7.98389 5.62128 7.74853C5.66931 7.67967 5.84838 7.4509 5.90488 7.42952Z" fill="#FDEE21"/>
<path d="M6.22422 12.1305C6.98412 12.4225 7.93234 12.5491 8.86497 12.535C8.9025 12.6196 8.93837 12.6899 8.96895 12.7319C9.00953 12.7878 9.11681 12.9318 9.21315 13.0612C9.30697 13.1871 9.39056 13.2994 9.3926 13.3033C9.51225 13.4474 9.10073 13.5514 8.92115 13.5235C8.45661 13.4551 7.50771 13.0548 7.48311 13.0405C6.97553 12.7455 6.64806 12.5321 6.25097 12.1588L6.22422 12.1305Z" fill="#FDEE21"/>
</svg>
