<svg width="16" height="16" viewBox="0 0 16 16" fill="none" xmlns="http://www.w3.org/2000/svg">
<path fill-rule="evenodd" clip-rule="evenodd" d="M11.4109 11.3543C11.4109 11.3543 11.4109 11.3543 11.4109 11.3543L12.643 12.5864L12.6464 12.583C15.3673 9.85864 15.4513 5.52961 12.8333 2.91162C10.2156 0.293848 5.88704 0.377647 3.16261 3.09781C0.792223 5.4682 0.717697 9.23684 2.99664 11.5158C4.84631 13.3655 7.67758 13.665 9.94594 12.4449C10.4708 12.1626 10.9655 11.799 11.4109 11.3543ZM11.5473 4.1339C13.503 6.08958 13.4394 9.32398 11.4052 11.3581L10.3595 10.3134C11.7521 8.92018 11.7964 6.70521 10.4572 5.36595C9.11952 4.02832 6.90811 4.07071 5.51462 5.45844L5.50958 5.46347C4.45732 6.51772 4.42501 8.19244 5.43787 9.2053C6.45073 10.2182 8.12609 10.1865 9.18035 9.13424L10.3595 10.3134C8.62513 12.0413 5.87264 12.0934 4.20757 10.4283C2.54051 8.76124 2.59482 6.00426 4.32878 4.2703C6.36328 2.24172 9.59347 2.18005 11.5473 4.1339ZM9.1412 6.95895C9.72634 7.54409 9.73496 8.4943 9.18035 9.13424C9.18074 9.13385 9.18091 9.13324 9.18113 9.13267L9.1817 9.13166L6.96802 6.91798C7.60793 6.36521 8.55671 6.37445 9.1412 6.95895Z" fill="#9CC4E8"/>
<path fill-rule="evenodd" clip-rule="evenodd" d="M11.405 11.3581C13.4391 9.32398 13.5028 6.08958 11.5471 4.1339C9.59322 2.18005 6.36303 2.24172 4.32854 4.2703C2.59458 6.00426 2.54026 8.76124 4.20732 10.4283C5.8724 12.0934 8.62489 12.0413 10.3592 10.3134L11.405 11.3581ZM9.18011 9.13424C9.73472 8.4943 9.7261 7.54409 9.14096 6.95895C8.55646 6.37445 7.60769 6.36521 6.96777 6.91798L9.18145 9.13166C9.1808 9.13232 9.18076 9.13359 9.18011 9.13424C8.12585 10.1865 6.45048 10.2182 5.43762 9.2053C4.42476 8.19244 4.45707 6.51772 5.50934 5.46347L5.51438 5.45844C6.90787 4.07071 9.11928 4.02832 10.4569 5.36595C11.7962 6.70521 11.7519 8.92018 10.3592 10.3134L9.18011 9.13424Z" fill="#509CD1"/>
<path d="M12.6462 12.583L12.6428 12.5865L11.4106 11.3543C10.9652 11.7989 10.4705 12.1626 9.94568 12.4449L12.5009 15.0001L13.7821 13.7189L12.6462 12.583Z" fill="#509CD1"/>
</svg>
