<svg width="16" height="16" viewBox="0 0 16 16" fill="none" xmlns="http://www.w3.org/2000/svg">
<path d="M8.78266 1.39311C8.30215 1.0989 7.69731 1.09877 7.21668 1.39277L2.74561 4.12766C2.30003 4.40021 2.02832 4.88493 2.02832 5.40725V10.5099C2.02832 11.0652 2.33504 11.575 2.82558 11.8351L7.29729 14.2064C7.71609 14.4285 8.21521 14.4395 8.64342 14.2362L13.1367 12.1027C13.3861 11.9842 13.4923 11.686 13.3739 11.4365C13.2554 11.1871 12.9572 11.0809 12.7078 11.1993L8.21449 13.3329C8.07176 13.4006 7.90538 13.397 7.76578 13.3229L3.29408 10.9516C3.13056 10.8649 3.02832 10.695 3.02832 10.5099L3.02832 5.40725C3.02832 5.23314 3.11889 5.07157 3.26742 4.98072L7.73849 2.24583C7.8987 2.14783 8.10031 2.14788 8.26048 2.24595L12.7882 5.01824C12.9367 5.10911 13.0272 5.27062 13.0272 5.44465V7.24006H12.8462C12.6976 7.24006 12.6009 7.39653 12.6673 7.52951L13.3437 8.88229C13.4174 9.0297 13.6278 9.0297 13.7015 8.88229L14.3779 7.52951C14.4444 7.39653 14.3477 7.24006 14.199 7.24006H14.0272V5.44465C14.0272 4.92256 13.7557 4.43803 13.3104 4.1654L8.78266 1.39311Z" fill="#DB5860"/>
<path d="M8.77021 3.87015C8.29113 3.59113 7.6972 3.59912 7.22579 3.89093L5.90834 4.70648C5.67354 4.85183 5.60103 5.15999 5.74637 5.39479C5.89172 5.62958 6.19989 5.7021 6.43468 5.55675L7.75214 4.7412C7.90927 4.64393 8.10725 4.64127 8.26695 4.73428L10.7642 6.1887C10.9186 6.27862 11.0133 6.44409 11.0126 6.62276L11.0013 9.45157C11.0005 9.63969 10.8943 9.81147 10.7262 9.89611L8.2215 11.1579C8.07854 11.2299 7.90974 11.2291 7.76745 11.1557L5.27386 9.87026C5.10662 9.78405 5.00194 9.61125 5.00297 9.4231L5.02117 6.10624C5.02268 5.8301 4.80006 5.60501 4.52392 5.6035C4.24778 5.60198 4.0227 5.82461 4.02118 6.10075L4.00298 9.41761C3.99989 9.98206 4.31393 10.5005 4.81565 10.7591L7.30924 12.0446C7.73609 12.2646 8.2425 12.267 8.67139 12.0509L11.1761 10.7892C11.6802 10.5353 11.999 10.0199 12.0013 9.45556L12.0126 6.62676C12.0147 6.09075 11.7307 5.59433 11.2675 5.32457L8.77021 3.87015Z" fill="#DB5860"/>
<path d="M7.7592 5.87727C7.83754 5.83226 7.92503 5.81012 8.01237 5.81083L7.9981 8.0063L8.25031 7.8412L8.00847 8.00371L10.0109 8.79274L10.0101 8.96985C10.0093 9.15962 9.90109 9.33257 9.73079 9.41632L8.22943 10.1547C8.09028 10.2232 7.92725 10.2232 7.78809 10.1547L6.28809 9.41699C6.11709 9.33289 6.00876 9.15889 6.00876 8.96832V7.17234C6.00876 6.99333 6.10446 6.82798 6.25968 6.73881L7.7592 5.87727Z" fill="#DB5860"/>
<path d="M9.82271 6.78491C9.94563 6.87922 10.019 7.02636 10.0183 7.18376L10.0112 8.79283L8.00879 8.00379L9.82271 6.78491Z" fill="#F2F2F3"/>
<path d="M8.01232 5.81079L7.99805 8.00626L9.84102 6.79986C9.8184 6.78071 9.79391 6.76343 9.76771 6.74832L8.25804 5.87765C8.18196 5.83377 8.09721 5.81148 8.01232 5.81079Z" fill="#E5B1B4"/>
</svg>
