<svg width="16" height="16" viewBox="0 0 16 16" fill="none" xmlns="http://www.w3.org/2000/svg">
<path fill-rule="evenodd" clip-rule="evenodd" d="M3.92163 3.48241C3.92163 3.48241 3.99241 3.58609 4.14545 3.82545C4.29848 4.06481 4.34769 4.18947 4.38191 4.25791C4.39125 4.24878 4.63125 4.03682 4.65656 3.82545C4.66425 3.76119 4.64907 3.63618 4.56319 3.55308C4.48503 3.47746 4.3378 3.44074 4.29998 3.43473C4.09843 3.40271 3.95458 3.4743 3.92163 3.48241Z" fill="#389FD6"/>
<path fill-rule="evenodd" clip-rule="evenodd" d="M11.6289 12.104C11.7054 12.1799 11.7145 12.3033 11.7815 12.4082C11.8951 12.5981 12.0942 12.8539 12.2749 12.9874C12.4744 13.1394 12.6738 13.3957 12.883 13.5286C13.2531 13.7574 13.6711 13.8991 14.0314 14.1271C14.241 14.26 14.4492 14.3164 14.6588 14.4593C14.7629 14.5354 14.8288 14.6589 14.9623 14.7058C14.9231 14.6392 14.8279 14.2048 14.5291 13.8027C14.3176 13.5181 13.9124 13.2496 13.7592 13.1394C13.4551 12.9298 13.006 12.645 12.883 12.2947C13.0727 12.256 13.8181 12.2075 14.1505 12.1223C14.3027 12.0839 14.6588 11.8666 14.6588 11.8666C14.5675 11.776 14.4969 11.3222 14 10.8652C13.5615 10.462 12.7041 10.0563 12.446 9.89575C12.1512 9.70584 11.1547 9.46411 11.088 9.36875C10.9169 9.15976 10.8216 8.88484 10.6984 8.6375C10.4233 8.11585 10.1569 7.53678 9.9199 6.9851C9.74906 6.61501 9.64457 6.24492 9.43558 5.90284C8.457 4.28817 7.39381 3.3106 5.76048 2.3513C5.40906 2.15144 4.99129 2.06623 4.54532 1.96173C4.30752 1.95179 4.07033 1.93333 3.83294 1.924C3.68077 1.85724 3.52859 1.74382 3.3959 1.6584C2.85436 1.31672 1.45903 0.508981 1.05993 1.48695C0.803464 2.10458 1.43975 2.71205 1.65828 3.02553C1.81958 3.24365 2.02877 3.49098 2.14219 3.7375C2.20874 3.89901 2.22781 4.07026 2.29457 4.24089C2.44633 4.65866 2.58857 5.12411 2.78842 5.51368C2.89251 5.71313 3.00633 5.92231 3.13923 6.10188C3.21593 6.20698 3.34842 6.25385 3.37703 6.4253C3.24454 6.61501 3.23419 6.89988 3.1583 7.13747C2.81662 8.2106 2.94932 9.54 3.43384 10.3281C3.58541 10.5654 3.94677 11.0879 4.43109 10.8881C4.85839 10.7174 4.76343 10.1761 4.8868 9.7015C4.9152 9.58687 4.89613 9.51159 4.95294 9.43571C5.08584 9.72037 5.21914 9.97623 5.34251 10.2428C5.63732 10.7077 6.98517 11.9803 7.27004 12.085C7.19416 11.9711 6.95521 11.4866 6.8217 11.2969C6.423 10.7653 6.12591 10.1761 5.81325 9.5684C5.66087 9.27339 5.38913 8.90565 5.26557 8.61144C5.24553 8.57145 5.07413 8.24651 4.97847 8.26689C4.80284 8.30431 4.45992 8.7944 4.39241 8.95991C4.21183 9.36875 4.20558 9.72037 4.13863 10.2428C4.10089 10.2528 3.76591 9.87872 3.67727 9.26996C3.57064 8.53758 3.6502 7.64794 3.78526 7.22269C3.85141 7.02365 4.12926 6.39689 4.01483 6.20698C3.95741 6.02579 3.88955 5.92231 3.78526 5.77927C3.6621 5.59889 3.46164 5.37144 3.37703 5.17159C3.14897 4.64 2.92685 4.05098 2.68073 3.51939C2.5667 3.27205 2.3601 3.01559 2.1992 2.78814C2.01842 2.53168 1.44929 1.72455 1.52497 1.61092C1.54364 1.53484 1.58219 1.50623 1.65828 1.48695C1.78103 1.38266 2.33836 1.70394 2.44987 1.77392C2.69236 1.9261 3.02139 2.27152 3.13923 2.3513C3.27233 2.44646 3.41477 2.47446 3.58541 2.52234H3.78526C4.089 2.58829 4.43109 2.5844 4.71616 2.67023C5.21914 2.83153 5.67486 3.17826 6.08349 3.43473C7.32706 4.22299 8.35271 5.38643 9.04561 6.72516C9.15984 6.94327 9.75859 8.31437 9.95764 8.76967C10.1569 9.21605 10.3472 9.52485 10.6325 9.89575C10.7745 10.0948 11.3444 10.2236 11.6009 10.3281C11.7904 10.4133 12.0852 10.5234 12.2563 10.6277C12.5791 10.827 12.9013 10.9735 13.2056 11.1922C13.3572 11.306 13.6176 11.4105 13.6462 11.6008C13.2803 11.5917 12.7207 11.6127 12.3485 11.7125C11.9477 11.8201 11.639 12.0105 11.6289 12.104Z" fill="#389FD6"/>
</svg>
