<svg width="16" height="16" viewBox="0 0 16 16" fill="none" xmlns="http://www.w3.org/2000/svg">
<path d="M14.0444 3.66071C14.0962 4.17119 13.9748 4.77192 13.8725 5.19871C13.7807 5.58135 13.522 6.49135 13.1424 7.32513C12.7294 8.23237 12.2011 9.02532 12.2011 9.02532L12.0878 8.87448C12.0878 8.87448 12.3853 8.47165 12.4641 8.23225C12.5722 7.90428 12.5573 7.56558 12.532 7.41229C12.5193 7.33496 12.5057 7.25713 12.4922 7.17945C12.4336 6.84306 12.3754 6.50944 12.387 6.23146C12.3915 6.12406 12.4225 5.96038 12.4553 5.78701C12.5045 5.52675 12.5579 5.24464 12.532 5.09824C12.5201 5.03056 12.3471 4.20288 11.9471 3.59262C11.6429 3.1286 11.1736 2.66776 10.8956 2.44497C10.6116 2.21741 9.85571 1.82599 9.85571 1.82599C9.85571 1.82599 10.3985 1.70713 10.7825 1.67944C10.8024 1.67801 10.8249 1.67621 10.8497 1.67423C11.1494 1.65027 11.7903 1.59903 12.3884 1.82599C13.0017 2.05872 13.5699 2.61414 13.6789 2.74026C13.8135 2.89597 14.0026 3.24899 14.0444 3.66071Z" fill="#3592C4"/>
<path d="M6.42321 2.20535C6.40988 2.20535 6.35679 2.18713 6.27165 2.15792C5.44111 1.87298 1.56035 0.541581 1.77625 4.85902C1.82688 5.87169 3.22768 12.5213 4.8985 10.5128C5.21044 10.1377 5.46484 9.86996 5.65223 9.67277C5.82796 9.48785 5.94478 9.36493 5.99489 9.27351C6.02118 9.29028 6.01751 9.2807 5.99799 9.26773L5.99489 9.27351C5.95907 9.25067 5.86763 9.1789 5.68488 9.00011C5.43195 8.75265 5.31756 8.44699 5.23628 8.22981C5.22483 8.19922 5.21399 8.17026 5.20356 8.1436C5.17337 8.0664 5.13682 7.81167 5.14149 7.47678C5.14353 7.32998 5.16213 7.16777 5.18156 6.99836C5.19857 6.85008 5.21621 6.69626 5.22393 6.54243C5.23338 6.35422 5.22394 6.16598 5.21501 5.98779C5.20931 5.87406 5.20381 5.76442 5.20356 5.66149C5.20287 5.37957 5.25094 4.08666 5.55849 3.46308C5.69892 3.17835 5.83476 2.9041 5.99799 2.68451C6.17337 2.44859 6.35234 2.27576 6.40922 2.22083C6.42685 2.20381 6.43275 2.19811 6.42321 2.20535Z" fill="#3592C4"/>
<path d="M14.092 9.67635C14.092 9.67635 13.2665 9.75923 12.9751 9.7312C12.6842 9.70322 12.4739 9.6045 12.3443 9.54364C12.2879 9.51713 12.2467 9.4978 12.2208 9.49463C12.022 9.47028 11.8351 9.68027 11.8028 9.7312C11.7246 9.85428 11.6065 10.208 11.8028 10.3631C12.0599 10.5663 12.6886 10.5532 12.9616 10.4884C13.7371 10.3045 14.092 9.67635 14.092 9.67635Z" fill="#3592C4"/>
<path d="M7.86655 10.1016C7.86655 9.82544 7.71356 9.6313 7.43742 9.6313C7.34939 9.6313 7.18407 9.77779 7.01174 9.93049C6.90295 10.0269 6.79137 10.1258 6.69468 10.1918C6.58449 10.2671 6.33126 10.3639 6.10367 10.4509C5.85496 10.546 5.63687 10.6293 5.66951 10.6601C5.71926 10.707 6.17828 10.9505 6.62056 10.9324C6.71713 10.9285 7.17355 10.8838 7.47077 10.7023C7.74572 10.5344 7.86655 10.2343 7.86655 10.1016Z" fill="#3592C4"/>
<path fill-rule="evenodd" clip-rule="evenodd" d="M6.99948 9.25686C6.99948 9.25686 7.15962 8.61236 7.29463 8.36915C7.49948 8.0001 7.65572 7.45051 7.65572 7.0001C7.65572 6.88748 7.65736 6.78075 7.65891 6.679C7.66621 6.20142 7.67184 5.8332 7.49948 5.48103C7.49553 5.47296 7.49127 5.46389 7.48663 5.454C7.43227 5.33821 7.32526 5.11026 7.04188 5.05841C6.36112 4.93388 5.49948 5.51872 5.49948 5.51872C5.49948 5.51872 5.52248 5.88812 5.52248 6.04602C5.52248 6.61741 5.5112 6.95731 5.49948 7.05835L5.48926 7.1463C5.46358 7.36698 5.45398 7.44952 5.45039 7.53232C5.44824 7.5818 5.44824 7.63137 5.44824 7.71057C5.44824 7.98504 5.45444 7.99932 5.57909 8.2863L5.60069 8.33609C5.71847 8.60795 5.95529 8.9175 6.31116 9.09457C6.50521 9.19112 6.99948 9.25686 6.99948 9.25686ZM6.89895 6.08294C7.0649 6.11646 7.20695 5.9212 7.21596 5.82766C7.22496 5.73402 7.09763 5.63088 6.93132 5.59736C6.76527 5.56379 6.62316 5.61265 6.61438 5.70606C6.60521 5.79969 6.73271 6.04955 6.89895 6.08294Z" fill="#3592C4"/>
<path d="M7.54103 8.56577C7.48126 8.66887 7.45189 8.77506 7.42166 8.88433C7.40947 8.92838 7.39714 8.97295 7.38262 9.01801C7.34694 9.12878 7.25738 9.29943 7.25738 9.29943C7.25738 9.29943 7.51742 9.33943 7.62039 9.35942C7.80403 9.39505 7.92932 9.49143 7.96304 9.55507C8.11113 9.83456 8.11587 10.0124 8.12094 10.2026C8.12198 10.2414 8.12303 10.2809 8.12532 10.3217C8.12857 10.3798 8.12756 10.5475 8.12617 10.7761C8.12182 11.4953 8.11381 12.8179 8.22356 13.2313C8.27185 13.4132 8.31969 13.5888 8.40326 13.7375C8.52979 13.9626 8.69513 14.1262 8.72667 14.1564C8.86209 14.2864 9.28612 14.5428 9.72524 14.4598C9.95279 14.4168 10.4438 14.1626 10.7323 13.7375C11.0567 13.2594 11.1691 12.4543 11.212 12.1404C11.3291 11.2837 11.3977 10.4123 11.4071 10.2938L11.4085 10.2758C11.4204 10.1265 11.4492 9.76453 11.6388 9.51436C11.7275 9.39732 12.0385 9.29943 12.0385 9.29943C12.0385 9.29943 11.712 8.87532 11.608 8.70775C11.388 8.35313 11.1653 7.89968 11.0478 7.66058C11.0178 7.59945 10.9946 7.5523 10.9802 7.52444C10.8851 7.34109 10.8205 7.19665 10.7732 7.09068C10.7579 7.05649 10.7444 7.02631 10.7323 7.00011C10.4995 6.498 10.398 5.75366 10.4121 5.64927C10.4995 5.00011 10.9071 4.75343 11.3286 4.69006C11.5968 4.64974 12.1195 4.69006 12.1195 4.69006C12.1195 4.69006 11.892 4.16107 11.7726 3.94834C11.5699 3.58737 11.3547 3.32578 11.212 3.16357C10.7734 2.66512 10.2252 2.32361 9.77749 2.13903C9.30308 1.94343 8.80285 1.8035 8.33133 1.8035C7.63451 1.8035 7.05756 2.01504 6.62289 2.37958C6.02404 2.88181 5.74826 3.68137 5.69529 4.00011C5.69529 4.00011 5.62086 4.23661 5.57329 4.49487C5.52304 4.76766 5.49951 5.13295 5.49951 5.13295C5.49951 5.13295 5.98071 4.90666 6.16656 4.84745C6.49756 4.74199 6.71279 4.73838 6.81215 4.73672L6.84113 4.73609C7.16521 4.72515 7.72731 5.03311 7.81212 5.48747C7.85004 5.69056 7.98283 6.68818 7.96304 6.91751C7.9592 6.96198 7.95655 7.01423 7.9536 7.07259C7.94516 7.2396 7.93419 7.45673 7.88538 7.68507C7.82034 7.98937 7.68723 8.3136 7.54103 8.56577Z" fill="#3592C4"/>
<path fill-rule="evenodd" clip-rule="evenodd" d="M11.9201 8.62468C12.0006 8.5614 12.1993 8.03691 12.228 7.83379C12.249 7.68529 12.2127 7.38865 12.1827 7.14294C12.1716 7.05256 12.1614 6.96905 12.1552 6.90236C12.1494 6.8402 12.1352 6.75185 12.1215 6.66629C12.1068 6.57466 12.0927 6.48623 12.0898 6.43659C12.0834 6.32374 12.0956 6.22211 12.1059 6.13701C12.1122 6.08472 12.1177 6.03868 12.1177 6.0001C12.1177 5.91098 12.144 5.8024 12.1749 5.67437C12.1924 5.60211 12.2114 5.52365 12.228 5.43901C12.2522 5.31567 12.2784 5.02952 12.2784 5.02952C12.2784 5.02952 11.9494 4.9832 11.83 4.97432C11.699 4.96458 11.6043 4.96949 11.5457 4.97253C11.5264 4.97353 11.511 4.97432 11.4996 4.97432C11.4097 4.97432 11.211 5.00334 11.0478 5.09545C10.9963 5.12447 10.8389 5.2527 10.7648 5.40806C10.7284 5.48444 10.6918 5.71987 10.7248 5.96664C10.7641 6.26084 10.881 6.57116 10.9226 6.64739C10.9667 6.72795 11.0385 6.88655 11.1242 7.0755C11.1685 7.17339 11.2166 7.2795 11.2664 7.38705C11.5407 7.97967 11.8676 8.66599 11.9201 8.62468ZM11.753 5.59868C11.762 5.69232 11.6346 5.94219 11.4683 5.97557C11.3023 6.0091 11.1602 5.81383 11.1511 5.72028C11.1423 5.62665 11.2697 5.5235 11.4358 5.48998C11.6019 5.45645 11.7439 5.50522 11.753 5.59868Z" fill="#3592C4"/>
</svg>
