<svg width="16" height="16" viewBox="0 0 16 16" fill="none" xmlns="http://www.w3.org/2000/svg">
<path d="M5.2122 3.28011C5.52787 3.28011 5.78377 3.0242 5.78377 2.70853C5.78377 2.39286 5.52787 2.13696 5.2122 2.13696C4.89653 2.13696 4.64062 2.39286 4.64062 2.70853C4.64062 3.0242 4.89653 3.28011 5.2122 3.28011Z" fill="#5890FF"/>
<path d="M6.97869 5.11811C7.33381 5.11811 7.62169 4.83023 7.62169 4.47511C7.62169 4.11999 7.33381 3.83211 6.97869 3.83211C6.62357 3.83211 6.33569 4.11999 6.33569 4.47511C6.33569 4.83023 6.62357 5.11811 6.97869 5.11811Z" fill="#5890FF"/>
<path d="M9.45994 6.24197C9.45994 6.63645 9.14015 6.95625 8.74566 6.95625C8.35117 6.95625 8.03137 6.63645 8.03137 6.24197C8.03137 5.84748 8.35117 5.52768 8.74566 5.52768C9.14015 5.52768 9.45994 5.84748 9.45994 6.24197Z" fill="#5890FF"/>
<path d="M10.5121 8.79425C10.946 8.79425 11.2977 8.44254 11.2977 8.00868C11.2977 7.57482 10.946 7.22311 10.5121 7.22311C10.0783 7.22311 9.72656 7.57482 9.72656 8.00868C9.72656 8.44254 10.0783 8.79425 10.5121 8.79425Z" fill="#5890FF"/>
<path d="M13.1357 9.77539C13.1357 10.2486 12.7521 10.6322 12.2789 10.6322C11.8056 10.6322 11.422 10.2486 11.422 9.77539C11.422 9.30216 11.8056 8.91853 12.2789 8.91853C12.7521 8.91853 13.1357 9.30216 13.1357 9.77539Z" fill="#5890FF"/>
<path d="M2.17953 2.70854C2.17953 2.98484 1.95554 3.20882 1.67924 3.20882C1.40294 3.20882 1.17896 2.98484 1.17896 2.70854C1.17896 2.43224 1.40294 2.20825 1.67924 2.20825C1.95554 2.20825 2.17953 2.43224 2.17953 2.70854Z" fill="#0F2648"/>
<path d="M4.01753 4.47525C4.01753 4.79092 3.76163 5.04682 3.44596 5.04682C3.13029 5.04682 2.87439 4.79092 2.87439 4.47525C2.87439 4.15958 3.13029 3.90368 3.44596 3.90368C3.76163 3.90368 4.01753 4.15958 4.01753 4.47525Z" fill="#0F2648"/>
<path d="M5.2127 6.88497C5.56782 6.88497 5.8557 6.59709 5.8557 6.24197C5.8557 5.88685 5.56782 5.59897 5.2127 5.59897C4.85758 5.59897 4.5697 5.88685 4.5697 6.24197C4.5697 6.59709 4.85758 6.88497 5.2127 6.88497Z" fill="#0F2648"/>
<path d="M7.69371 8.00868C7.69371 8.40317 7.37391 8.72297 6.97942 8.72297C6.58493 8.72297 6.26514 8.40317 6.26514 8.00868C6.26514 7.61419 6.58493 7.2944 6.97942 7.2944C7.37391 7.2944 7.69371 7.61419 7.69371 8.00868Z" fill="#0F2648"/>
<path d="M8.7459 10.561C9.17976 10.561 9.53147 10.2093 9.53147 9.77539C9.53147 9.34153 9.17976 8.98982 8.7459 8.98982C8.31204 8.98982 7.96033 9.34153 7.96033 9.77539C7.96033 10.2093 8.31204 10.561 8.7459 10.561Z" fill="#0F2648"/>
<path d="M11.3697 11.5421C11.3697 12.0153 10.9861 12.399 10.5129 12.399C10.0396 12.399 9.65601 12.0153 9.65601 11.5421C9.65601 11.0689 10.0396 10.6852 10.5129 10.6852C10.9861 10.6852 11.3697 11.0689 11.3697 11.5421Z" fill="#0F2648"/>
<path d="M9.38891 2.70867C9.38891 3.06379 9.10102 3.35167 8.74591 3.35167C8.39079 3.35167 8.10291 3.06379 8.10291 2.70867C8.10291 2.35355 8.39079 2.06567 8.74591 2.06567C9.10102 2.06567 9.38891 2.35355 9.38891 2.70867Z" fill="#1EDCFF"/>
<path d="M11.2269 4.47539C11.2269 4.86988 10.9071 5.18967 10.5126 5.18967C10.1181 5.18967 9.79834 4.86988 9.79834 4.47539C9.79834 4.0809 10.1181 3.7611 10.5126 3.7611C10.9071 3.7611 11.2269 4.0809 11.2269 4.47539Z" fill="#1EDCFF"/>
<path d="M12.2793 7.02767C12.7132 7.02767 13.0649 6.67596 13.0649 6.2421C13.0649 5.80824 12.7132 5.45653 12.2793 5.45653C11.8455 5.45653 11.4938 5.80824 11.4938 6.2421C11.4938 6.67596 11.8455 7.02767 12.2793 7.02767Z" fill="#1EDCFF"/>
<path d="M14.9029 8.00882C14.9029 8.48205 14.5193 8.86568 14.0461 8.86568C13.5728 8.86568 13.1892 8.48205 13.1892 8.00882C13.1892 7.53559 13.5728 7.15196 14.0461 7.15196C14.5193 7.15196 14.9029 7.53559 14.9029 8.00882Z" fill="#1EDCFF"/>
<path d="M5.21281 10.347C5.52848 10.347 5.78438 10.0911 5.78438 9.77539C5.78438 9.45972 5.52848 9.20382 5.21281 9.20382C4.89714 9.20382 4.64124 9.45972 4.64124 9.77539C4.64124 10.0911 4.89714 10.347 5.21281 10.347Z" fill="#1EDCFF"/>
<path d="M4.01765 11.5421C4.01765 11.8578 3.76175 12.1137 3.44608 12.1137C3.13041 12.1137 2.87451 11.8578 2.87451 11.5421C2.87451 11.2264 3.13041 10.9705 3.44608 10.9705C3.76175 10.9705 4.01765 11.2264 4.01765 11.5421Z" fill="#1EDCFF"/>
<path d="M1.67938 13.8804C1.99513 13.8804 2.25109 13.6244 2.25109 13.3087C2.25109 12.9929 1.99513 12.737 1.67938 12.737C1.36363 12.737 1.10767 12.9929 1.10767 13.3087C1.10767 13.6244 1.36363 13.8804 1.67938 13.8804Z" fill="#1EDCFF"/>
<path d="M5.78438 13.3088C5.78438 13.6245 5.52848 13.8804 5.21281 13.8804C4.89714 13.8804 4.64124 13.6245 4.64124 13.3088C4.64124 12.9932 4.89714 12.7373 5.21281 12.7373C5.52848 12.7373 5.78438 12.9932 5.78438 13.3088Z" fill="#1EDCFF"/>
<path d="M8.74601 13.8805C9.06168 13.8805 9.31758 13.6246 9.31758 13.309C9.31758 12.9933 9.06168 12.7374 8.74601 12.7374C8.43034 12.7374 8.17444 12.9933 8.17444 13.309C8.17444 13.6246 8.43034 13.8805 8.74601 13.8805Z" fill="#1EDCFF"/>
<path d="M7.55098 11.5421C7.55098 11.8578 7.29508 12.1137 6.97941 12.1137C6.66374 12.1137 6.40784 11.8578 6.40784 11.5421C6.40784 11.2264 6.66374 10.9705 6.97941 10.9705C7.29508 10.9705 7.55098 11.2264 7.55098 11.5421Z" fill="#1EDCFF"/>
</svg>
