<svg width="16" height="16" viewBox="0 0 16 16" fill="none" xmlns="http://www.w3.org/2000/svg">
<path d="M11.8292 1.61963H3.06765C2.48045 1.61963 2 2.10016 2 2.68735V12.3497C2 12.9368 2.48045 13.4173 3.06765 13.4173H8.83823C8.77273 10.546 9.75323 4.97383 11.8292 1.61963Z" fill="#0F80CC"/>
<path d="M11.8292 1.61954C11.7227 1.71409 11.6165 1.81898 11.5109 1.93102C10.2842 3.23229 9.14562 5.64267 8.79188 7.48347C8.92968 7.76292 9.03732 8.11953 9.1082 8.39193C9.12636 8.46182 9.14276 8.52742 9.15586 8.58322C9.187 8.71529 9.20373 8.80093 9.20373 8.80093C9.20373 8.80093 9.19273 8.75931 9.1476 8.62846C9.13902 8.60336 9.12944 8.57596 9.1181 8.54371C9.11326 8.53039 9.10655 8.51421 9.09917 8.49693C9.01916 8.31093 8.79782 7.91833 8.70042 7.7474C8.6171 7.99317 8.54347 8.2231 8.48183 8.43111C8.76304 8.94564 8.93441 9.82739 8.93441 9.82739C8.93441 9.82739 8.91955 9.77025 8.84889 9.5708C8.78616 9.39441 8.47369 8.84693 8.39967 8.71894C8.27305 9.18636 8.22274 9.50193 8.26811 9.57876C8.35619 9.72764 8.44008 9.98453 8.51375 10.2686C8.68016 10.9086 8.79584 11.6878 8.79584 11.6878C8.79584 11.6878 8.79958 11.7394 8.80586 11.8188C8.78274 12.3563 8.79661 12.9135 8.83821 13.4172C8.89336 14.0839 8.99715 14.6567 9.12944 14.9632L9.21925 14.9143C9.02499 14.3103 8.94608 13.5189 8.98064 12.6061C9.03292 11.211 9.35397 9.52845 9.94721 7.77481C10.9494 5.12758 12.34 3.11434 13.6126 2.1C12.4527 3.14758 10.8827 6.42775 10.4128 7.68346C9.88656 9.08962 9.51367 10.4092 9.28892 11.6734C9.67667 10.4882 10.9304 9.97873 10.9304 9.97873C10.9304 9.97873 11.5453 9.22036 12.2639 8.13692C11.8335 8.23509 11.1266 8.40316 10.8899 8.50266C10.5407 8.64915 10.4466 8.69912 10.4466 8.69912C10.4466 8.69912 11.5778 8.01023 12.5483 7.69832C13.8831 5.59611 15.3372 2.60967 13.8728 1.30333C13.2728 0.768206 12.5462 0.983158 11.8292 1.61954Z" fill="white"/>
</svg>
