<svg width="16" height="16" viewBox="0 0 16 16" fill="none" xmlns="http://www.w3.org/2000/svg">
<path d="M7.16867 1.44486C6.70403 1.9103 6.70403 2.66286 7.16867 3.12817L9.92443 5.88141L10.6611 5.14707L7.88716 2.37164L8.09531 2.1619L10.8707 4.93747L11.6084 4.20062L8.85263 1.44486C8.38733 0.979562 7.63371 0.981675 7.16867 1.44486Z" fill="#5D87A1"/>
<path d="M8.88155 5.27268C9.34686 5.73798 9.34686 6.48909 8.88155 6.95664C8.41665 7.41983 7.66289 7.41983 7.19799 6.95664L4.44421 4.20088L5.1808 3.46219L7.95531 6.23749L8.16452 6.02973L5.38908 3.25588L6.12567 2.51745L8.88155 5.27268Z" fill="#5D87A1"/>
<path d="M10.7419 8.84558C10.2788 9.30877 9.5254 9.30877 9.0601 8.84558C8.59585 8.38068 8.59585 7.62758 9.0601 7.16268L11.8159 4.40692L12.5528 5.14364L9.77832 7.91894L9.98661 8.12722L12.7606 5.35324L13.4992 6.08969L10.7419 8.84558Z" fill="#5D87A1"/>
<path d="M1.48091 8.84558C1.94635 9.31234 2.69891 9.31234 3.16435 8.84558L5.91997 6.09181L5.18074 5.35311L2.40689 8.12854L2.1994 7.91894L4.97259 5.14496L4.23601 4.40837L1.48091 7.16426C1.01548 7.62758 1.01548 8.38068 1.48091 8.84558Z" fill="#5D87A1"/>
<path d="M6.99204 7.13481C6.52701 6.66951 5.77523 6.66951 5.30901 7.13481L2.55286 9.88937L3.29195 10.6274L6.06514 7.85185L6.27554 8.06158L3.49931 10.8356L4.23616 11.5724L6.99204 8.81679C7.45735 8.35136 7.45589 7.59826 6.99204 7.13481Z" fill="#5D87A1"/>
<path d="M8.88155 12.8525C9.34686 13.3161 9.34686 14.069 8.88155 14.5317C8.41665 14.9971 7.66289 14.9971 7.19799 14.5317L4.44421 11.7767L5.1808 11.0416L7.95531 13.8156L8.16452 13.6073L5.38908 10.8321L6.12567 10.0954L8.88155 12.8525Z" fill="#5D87A1"/>
<path d="M7.16867 9.02441C6.70403 9.48628 6.70403 10.2411 7.16867 10.7065L9.92443 13.4603L10.6611 12.7233L7.88716 9.94907L8.09531 9.74105L10.8707 12.5149L11.6084 11.7781L8.85263 9.02441C8.38733 8.557 7.63371 8.557 7.16867 9.02441Z" fill="#5D87A1"/>
<path d="M14.5703 7.13335C14.1068 6.66805 13.3536 6.66805 12.8887 7.13335L10.1328 9.88924L10.8709 10.6237L13.6452 7.85184L13.8531 8.05801L11.0777 10.8333L11.8157 11.5702L14.5703 8.81679C15.0369 8.35149 15.0348 7.59628 14.5703 7.13335Z" fill="#5D87A1"/>
</svg>
