<svg width="16" height="16" viewBox="0 0 16 16" fill="none" xmlns="http://www.w3.org/2000/svg">
<rect x="1" y="1" width="14" height="14" fill="#355CFF"/>
<path d="M2.766 15C1.62014 13.8424 1.13399 12.1191 1.0248 10.4975C1.00806 10.2489 1 10.0002 1 9.75346C1 8.37912 1.25006 7.06639 1.64267 6.17551C3.05581 2.96892 6.19125 1.17829 9.05986 1.01265C10.4986 0.929584 11.9053 1.25321 13.0035 2.05116C14.0609 2.81942 14.7938 4.00042 15 5.57689V6.78633C14.964 6.99822 14.9064 7.20497 14.8247 7.40882C14.6249 7.90712 14.294 8.35475 13.8466 8.80213C12.8444 9.80434 11.4999 9.81251 10.685 9.41604C9.97483 9.07051 9.61488 8.3514 9.6851 7.6669C9.75871 6.94944 10.2939 6.33461 11.1965 6.20408L11.3396 7.19378C10.8699 7.26171 10.7046 7.52839 10.6799 7.76896C10.6518 8.04248 10.7959 8.35789 11.1225 8.51683C11.5964 8.74736 12.4709 8.76363 13.1395 8.09502C13.5275 7.707 13.7631 7.36939 13.8965 7.03661C14.028 6.70886 14.0736 6.35291 14.031 5.90674C13.8948 4.47743 13.277 3.48595 12.4157 2.86016C11.5434 2.22635 10.379 1.93815 9.11751 2.01099C6.58576 2.15718 3.8047 3.74929 2.55775 6.57879C2.17388 7.44984 1.92079 8.91924 2.02254 10.4303C2.12427 11.941 2.57297 13.3869 3.48133 14.3011L4.25024 15H2.766Z" fill="white"/>
</svg>
