<svg width="24" height="24" viewBox="0 0 24 24" fill="none" xmlns="http://www.w3.org/2000/svg">
<path d="M12 5.1101C8.92511 2.24439 4.23924 3.93046 2.59511 4.66079C2.22133 4.82683 2 5.20185 2 5.61207V19.0878C2 19.7629 2.84035 20.1734 3.42123 19.8328C5.21481 18.7814 8.40933 17.6178 11.2517 20.2637C11.4548 20.4528 11.7333 20.5217 12 20.4942L12 5.1101Z" fill="#57965C"/>
<path d="M12 20.4942C12.2667 20.5217 12.5452 20.4528 12.7483 20.2637C15.5907 17.6178 18.7852 18.7814 20.5788 19.8328C21.1596 20.1734 22 19.7629 22 19.0878V5.61207C22 5.20185 21.7787 4.82683 21.4049 4.66079C19.7608 3.93046 15.0749 2.24439 12 5.1101L12 20.4942Z" fill="#CED0D6"/>
</svg>
