<svg width="16" height="16" viewBox="0 0 16 16" fill="none" xmlns="http://www.w3.org/2000/svg">
<circle opacity="0.13" cx="8" cy="8" r="8" fill="#F0F1F2"/>
<path fill-rule="evenodd" clip-rule="evenodd" d="M11.4935 4.4879C11.2998 4.28013 10.972 4.27554 10.7725 4.47781L8.00031 7.28855L5.22829 4.47794C5.02879 4.27567 4.701 4.28026 4.50725 4.48804C4.32463 4.68388 4.3289 4.98888 4.51693 5.17953L7.29866 7.99997L4.51713 10.8202C4.3291 11.0109 4.32483 11.3159 4.50745 11.5117C4.70121 11.7195 5.029 11.7241 5.22849 11.5218L8.00031 8.71139L10.7723 11.5219C10.9718 11.7242 11.2996 11.7196 11.4933 11.5118C11.6759 11.316 11.6717 11.011 11.4836 10.8203L8.70197 7.99997L11.4838 5.1794C11.6719 4.98875 11.6761 4.68374 11.4935 4.4879Z" fill="#868A91"/>
</svg>
