<svg width="16" height="16" viewBox="0 0 16 16" fill="none" xmlns="http://www.w3.org/2000/svg">
<circle cx="7.8002" cy="14.15" r="0.85" fill="#6C707E"/>
<path d="M7.97987 8.25128C8.2044 8.01392 8.49818 7.73622 8.86045 7.41844C9.23268 7.09036 9.52753 6.80791 9.74596 6.57075L9.74692 6.56973C9.96646 6.33799 10.1505 6.0594 10.2984 5.73275L10.2991 5.73133C10.4503 5.4108 10.527 5.0457 10.527 4.634C10.527 4.13537 10.4225 3.69607 10.216 3.31349C10.0096 2.93099 9.71901 2.63442 9.34286 2.42208L9.3418 2.42149C8.9661 2.20334 8.53414 2.093 8.04302 2.093C7.53287 2.093 7.08169 2.20651 6.68677 2.43124C6.29821 2.65595 5.99464 2.97134 5.77523 3.3796C5.67298 3.57247 5.59497 3.77918 5.5415 4C5.51668 4.10252 5.49715 4.20808 5.48294 4.31671C5.44343 4.61868 5.20764 4.867 4.90309 4.867H4.77921C4.47853 4.867 4.23806 4.61717 4.24954 4.31671C4.2598 4.2093 4.27384 4.10373 4.29164 4C4.36526 3.57119 4.50338 3.17391 4.70665 2.80885C5.03251 2.23534 5.48664 1.7906 6.06667 1.47769C6.64687 1.15834 7.30974 1 8.05252 1C8.77593 1 9.41965 1.15185 9.98087 1.45842C10.5477 1.75827 10.989 2.17975 11.3026 2.72194C11.6165 3.26467 11.772 3.88719 11.772 4.5865C11.772 5.13576 11.6815 5.62465 11.4979 6.05106C11.3169 6.47121 11.0927 6.82638 10.8241 7.11469C10.5672 7.39722 10.2285 7.71973 9.80906 8.08202C9.47444 8.37245 9.21405 8.61414 9.02691 8.8075C8.85081 8.98968 8.7014 9.20284 8.57896 9.44772L8.5785 9.44864C8.45974 9.6802 8.39952 9.93983 8.39952 10.2295C8.39952 10.4946 8.18461 10.7095 7.91952 10.7095H7.72002C7.42869 10.7095 7.19252 10.4733 7.19252 10.182C7.19252 9.77678 7.26774 9.41044 7.42049 9.08501C7.57025 8.76595 7.7566 8.48769 7.97987 8.25128Z" fill="#6C707E"/>
</svg>
