<svg width="16" height="16" viewBox="0 0 16 16" fill="none" xmlns="http://www.w3.org/2000/svg">
<path fill-rule="evenodd" clip-rule="evenodd" d="M1 3.86667C1 2.83574 1.7835 2 2.75 2H6.03823C6.29871 2 6.5489 2.10163 6.73559 2.28327L8.5 4L13 4C14.1046 4 15 4.89543 15 6V8.75777C14.285 8.27914 13.4251 8 12.5 8C10.0147 8 8 10.0147 8 12.5C8 13.026 8.09023 13.5308 8.25606 14H2.75C1.7835 14 1 13.1643 1 12.1333V3.86667Z" fill="#EBECF0"/>
<path fill-rule="evenodd" clip-rule="evenodd" d="M7.80265 4.71673L8.09379 5H8.5H13C13.5523 5 14 5.44772 14 6V8.25606C14.356 8.3819 14.6915 8.55127 15 8.75777V6C15 4.89543 14.1046 4 13 4L8.5 4L6.73559 2.28327C6.5489 2.10163 6.29871 2 6.03823 2H2.75C1.7835 2 1 2.83574 1 3.86667V12.1333C1 13.1643 1.7835 14 2.75 14H8.25606C8.14352 13.6816 8.06579 13.3467 8.02746 13H2.75C2.3956 13 2 12.6738 2 12.1333V3.86667C2 3.32624 2.3956 3 2.75 3H6.03823L7.80265 4.71673Z" fill="#6C707E"/>
<path d="M13.0001 9.5C13.0001 9.22386 12.7762 9 12.5001 9C12.2239 9 12.0001 9.22386 12.0001 9.5V10.5C12.0001 10.7761 12.2239 11 12.5001 11C12.7762 11 13.0001 10.7761 13.0001 10.5V9.5Z" fill="#6C707E"/>
<path d="M10.152 10.567C9.91286 10.4289 9.60707 10.5109 9.46899 10.75C9.33092 10.9891 9.41286 11.2949 9.65201 11.433L10.5177 11.9328C10.7569 12.0709 11.0627 11.989 11.2008 11.7498C11.3388 11.5107 11.2569 11.2049 11.0177 11.0668L10.152 10.567Z" fill="#6C707E"/>
<path d="M15.3481 11.433C15.5872 11.2949 15.6692 10.9891 15.5311 10.75C15.393 10.5109 15.0872 10.4289 14.8481 10.567L13.9824 11.0668C13.7433 11.2049 13.6613 11.5107 13.7994 11.7498C13.9375 11.989 14.2433 12.0709 14.4824 11.9328L15.3481 11.433Z" fill="#6C707E"/>
<path d="M11.0177 13.9331C11.2569 13.7951 11.3388 13.4893 11.2007 13.2501C11.0627 13.011 10.7569 12.9291 10.5177 13.0671L9.65194 13.567C9.41279 13.7051 9.33086 14.0109 9.46893 14.25C9.607 14.4891 9.91279 14.5711 10.1519 14.433L11.0177 13.9331Z" fill="#6C707E"/>
<path d="M14.4824 13.0672C14.2433 12.9291 13.9375 13.011 13.7994 13.2502C13.6613 13.4893 13.7433 13.7951 13.9824 13.9332L14.8482 14.433C15.0873 14.5711 15.3931 14.4891 15.5312 14.25C15.6692 14.0109 15.5873 13.7051 15.3482 13.567L14.4824 13.0672Z" fill="#6C707E"/>
<path d="M13.0001 14.5C13.0001 14.2239 12.7762 14 12.5001 14C12.2239 14 12.0001 14.2239 12.0001 14.5V15.5C12.0001 15.7761 12.2239 16 12.5001 16C12.7762 16 13.0001 15.7761 13.0001 15.5V14.5Z" fill="#6C707E"/>
<path d="M12.5 13.5C13.0523 13.5 13.5 13.0523 13.5 12.5C13.5 11.9477 13.0523 11.5 12.5 11.5C11.9477 11.5 11.5 11.9477 11.5 12.5C11.5 13.0523 11.9477 13.5 12.5 13.5Z" fill="#6C707E"/>
</svg>
