<svg width="16" height="16" viewBox="0 0 16 16" fill="none" xmlns="http://www.w3.org/2000/svg">
<path d="M1 3.86667C1 2.83574 1.7835 2 2.75 2H6.03823C6.29871 2 6.5489 2.10163 6.73559 2.28327L8.5 4L13 4C14.1046 4 15 4.89543 15 6V9.26756C14.9428 9.23448 14.8838 9.20415 14.8232 9.17675C14.5094 8.48283 13.8111 8 13 8H12C11.2597 8 10.6134 8.4022 10.2676 9H10C8.89543 9 8 9.89543 8 11V14H2.75C1.7835 14 1 13.1643 1 12.1333V3.86667Z" fill="#EBECF0"/>
<path d="M12 10H13V15H12V10Z" fill="#EDF3FF"/>
<path d="M10 11H11V15H10V11Z" fill="#EDF3FF"/>
<path d="M15 12H14V15H15V12Z" fill="#EDF3FF"/>
<path fill-rule="evenodd" clip-rule="evenodd" d="M11 10C11 9.44772 11.4477 9 12 9H13C13.5523 9 14 9.44772 14 10V11H15C15.5523 11 16 11.4477 16 12V15C16 15.5523 15.5523 16 15 16H10C9.44772 16 9 15.5523 9 15V11C9 10.4477 9.44772 10 10 10L11 10ZM12 10H13V15H12V10ZM11 11H10L10 15H11V11ZM14 15H15V12H14V15Z" fill="#3574F0"/>
<path d="M8.09379 5H13C13.5523 5 14 5.44772 14 6V8.26756C14.5978 8.61337 15 9.25972 15 10V6C15 4.89543 14.1046 4 13 4L8.5 4L6.73559 2.28327C6.5489 2.10163 6.29871 2 6.03823 2H2.75C1.7835 2 1 2.83574 1 3.86667V12.1333C1 13.1643 1.7835 14 2.75 14H8V13H2.75C2.3956 13 2 12.6738 2 12.1333V3.86667C2 3.32624 2.3956 3 2.75 3H6.03823L8.09379 5Z" fill="#6C707E"/>
</svg>
