<svg width="16" height="16" viewBox="0 0 16 16" fill="none" xmlns="http://www.w3.org/2000/svg">
<path d="M13.967 13.533C14.2061 13.6711 14.5119 13.5892 14.65 13.35C14.7881 13.1109 14.7061 12.8051 14.467 12.667L13.967 13.533ZM11.75 12.2531L13.967 13.533L14.467 12.667L12.25 11.3871L11.75 12.2531Z" fill="#6C707E"/>
<path d="M14.9004 9.49976C15.1765 9.49976 15.4004 9.2759 15.4004 8.99976C15.4004 8.72361 15.1765 8.49976 14.9004 8.49976L14.9004 9.49976ZM12.4004 9.49976L14.9004 9.49976L14.9004 8.49976L12.4004 8.49976L12.4004 9.49976Z" fill="#6C707E"/>
<path d="M14.4551 5.23973C14.6979 5.10829 14.7882 4.80486 14.6568 4.56201C14.5253 4.31916 14.2219 4.22884 13.9791 4.36029L14.4551 5.23973ZM12.238 6.43972L14.4551 5.23973L13.9791 4.36029L11.762 5.56028L12.238 6.43972Z" fill="#6C707E"/>
<path d="M2.02989 13.5332C1.79075 13.6712 1.48495 13.5893 1.34688 13.3501C1.20881 13.111 1.29075 12.8052 1.52989 12.6671L2.02989 13.5332ZM4.25 12.2514L2.02989 13.5332L1.52989 12.6671L3.75 11.3853L4.25 12.2514Z" fill="#6C707E"/>
<path d="M1.09961 9.50012C0.823467 9.50012 0.599609 9.27626 0.599609 9.00012C0.599609 8.72398 0.823467 8.50012 1.09961 8.50012L1.09961 9.50012ZM3.59961 9.50012L1.09961 9.50012L1.09961 8.50012L3.59961 8.50012L3.59961 9.50012Z" fill="#6C707E"/>
<path d="M1.54215 5.24C1.29922 5.10869 1.20874 4.80532 1.34004 4.56239C1.47134 4.31946 1.77472 4.22898 2.01765 4.36028L1.54215 5.24ZM3.76225 6.43998L1.54215 5.24L2.01765 4.36028L4.23775 5.56026L3.76225 6.43998Z" fill="#6C707E"/>
<path fill-rule="evenodd" clip-rule="evenodd" d="M6.30078 4.2C6.30078 3.26112 7.0619 2.5 8.00078 2.5C8.93967 2.5 9.70078 3.26112 9.70078 4.2C9.70078 4.48922 9.62856 4.76157 9.50116 5H10.5C10.5267 5 10.5533 5.00053 10.5798 5.00157C10.6584 4.74832 10.7008 4.4791 10.7008 4.2C10.7008 2.70883 9.49195 1.5 8.00078 1.5C6.50961 1.5 5.30078 2.70883 5.30078 4.2C5.30078 4.47908 5.34312 4.74827 5.42173 5.0015C5.4477 5.0005 5.47379 5 5.5 5H6.5004C6.37301 4.76157 6.30078 4.48922 6.30078 4.2Z" fill="#6C707E"/>
<path d="M4 7.5C4 5.84315 5.34315 4.5 7 4.5H9C10.6569 4.5 12 5.84315 12 7.5V10C12 12.2091 10.2091 14 8 14V14C5.79086 14 4 12.2091 4 10V7.5Z" stroke="#6C707E"/>
</svg>
