<svg width="16" height="16" viewBox="0 0 16 16" fill="none" xmlns="http://www.w3.org/2000/svg">
<path fill-rule="evenodd" clip-rule="evenodd" d="M4.19501 5.79948C5.04318 5.4734 5.8547 5.40931 6.55806 5.37071C6.64818 5.36576 6.73622 5.36121 6.82251 5.35675C7.43725 5.32499 7.96382 5.29778 8.5235 5.16424L8.52462 5.16397C9.90985 4.83513 11.4601 3.78516 12.0468 2.56621L13.1108 0.355957L13.8953 2.68011C14.3247 3.95211 14.8191 5.64378 14.9606 7.35605C15.101 9.05451 14.9066 10.9264 13.7878 12.4163C12.6336 13.9529 10.8689 14.3874 9.29376 14.506C8.49611 14.5661 7.68889 14.5491 6.95957 14.527L6.67376 14.5181C6.04608 14.4983 5.4957 14.4809 5.00776 14.5025L4.99975 14.503L4.95306 14.5062C4.91149 14.5093 4.85073 14.514 4.77727 14.5208C4.62824 14.5347 4.43643 14.5562 4.2499 14.587C4.0406 14.6215 3.80919 14.6091 3.58054 14.5195C3.35718 14.432 3.19649 14.2943 3.08688 14.1692C2.9046 13.961 2.8047 13.7123 2.76348 13.6097L2.72473 13.5132C2.70816 13.4718 2.69651 13.4427 2.6869 13.42C1.33222 12.7204 0.847596 11.0666 1.04382 9.6432C1.25534 8.10886 2.25562 6.54473 4.19501 5.79948ZM6.70798 13.5186C8.95806 13.59 11.5926 13.6736 12.9881 11.8157C14.8015 9.401 13.7905 5.4962 12.9478 2.99994C12.1972 4.55923 10.3505 5.75828 8.75553 6.13692C8.1005 6.29322 7.47846 6.32484 6.86987 6.35578C6.08941 6.39546 5.33106 6.43401 4.5536 6.73294C1.39866 7.94514 1.44688 11.7062 3.18482 12.5511L3.28829 12.6063C3.28829 12.6063 5.84347 12.0971 7.25697 11.5765C9.32022 10.8157 11.5869 8.93821 12.3322 6.75573C11.9368 9.02411 9.98752 11.2075 8.03036 12.2102C7.36906 12.5499 6.8009 12.722 6.03631 12.9538C5.59547 13.0874 5.08934 13.2407 4.46241 13.4574C4.25196 13.5302 4.08711 13.6003 4.08711 13.6003C4.52291 13.5284 4.95521 13.5039 4.95521 13.5039C5.48648 13.4799 6.08237 13.4988 6.70798 13.5186Z" fill="#CED0D6"/>
</svg>
