<svg width="14" height="14" viewBox="0 0 14 14" fill="none" xmlns="http://www.w3.org/2000/svg">
<path d="M10.7037 8.58615C10.5085 8.39089 10.5085 8.0743 10.7037 7.87904L12.0473 6.53553C13.3136 5.2692 13.3136 3.21608 12.0473 1.94975C10.7809 0.683418 8.7278 0.683418 7.46147 1.94975L6.11796 3.29326C5.9227 3.48852 5.60611 3.48852 5.41085 3.29326C5.21559 3.09799 5.21559 2.78141 5.41085 2.58615L6.75436 1.24264C8.41121 -0.414214 11.0975 -0.414213 12.7544 1.24264C14.4112 2.89949 14.4112 5.58579 12.7544 7.24264L11.4109 8.58615C11.2156 8.78141 10.899 8.78141 10.7037 8.58615Z" fill="#6C707E"/>
<path d="M9.64303 3.64687C9.83829 3.45161 10.1549 3.45161 10.3501 3.64687C10.5454 3.84214 10.5454 4.15872 10.3501 4.35398L4.35014 10.354C4.15487 10.5492 3.83829 10.5492 3.64303 10.354C3.44777 10.1587 3.44777 9.84214 3.64303 9.64687L9.64303 3.64687Z" fill="#6C707E"/>
<path d="M3.28947 5.41464C3.48473 5.6099 3.48473 5.92648 3.28947 6.12174L1.94975 7.46147C0.683417 8.7278 0.683418 10.7809 1.94975 12.0473C3.21608 13.3136 5.2692 13.3136 6.53553 12.0473L7.87529 10.7075C8.07054 10.5122 8.3871 10.5122 8.58236 10.7075C8.77765 10.9027 8.77767 11.2193 8.58239 11.4146L7.24264 12.7544C5.58579 14.4112 2.89949 14.4112 1.24264 12.7544C-0.414213 11.0975 -0.414214 8.41121 1.24264 6.75436L2.58236 5.41464C2.77763 5.21937 3.09421 5.21937 3.28947 5.41464Z" fill="#6C707E"/>
</svg>
