<svg width="16" height="16" viewBox="0 0 16 16" fill="none" xmlns="http://www.w3.org/2000/svg">
<g clip-path="url(#clip0_6270_49512)">
<path d="M1 3.99994L5 3.99795V5.20036H3.63041V12.9999L2.35673 13.0019V5.20235H1V3.99994Z" fill="#548AF7"/>
<path d="M6 3.99795H7.77468C8.28051 3.99795 8.69631 4.09654 9.0221 4.29373C9.35217 4.48663 9.59651 4.77812 9.75512 5.16821C9.91373 5.55829 9.99303 6.04912 9.99303 6.64068C9.99303 7.23652 9.91158 7.72949 9.74869 8.11958C9.5858 8.50966 9.33717 8.8033 9.00281 9.00049C8.66845 9.19767 8.24193 9.29627 7.72324 9.29627H7.25385V12.9999H6V3.99795ZM7.75539 8.12601C7.99544 8.12601 8.18406 8.07671 8.32123 7.97812C8.4584 7.87952 8.557 7.7252 8.61701 7.51516C8.67702 7.30082 8.70703 7.00933 8.70703 6.64068C8.70703 6.27631 8.67702 5.9891 8.61701 5.77906C8.557 5.56472 8.4584 5.4104 8.32123 5.3161C8.18406 5.2175 7.99544 5.16821 7.75539 5.16821H7.25385V8.12601H7.75539Z" fill="#548AF7"/>
<path d="M13.04 13.1543C12.5599 13.1543 12.1548 13.0107 11.8247 12.7235C11.4989 12.4363 11.2524 12.0012 11.0853 11.4182C10.9181 10.8309 10.8345 10.0872 10.8345 9.18696V7.81094C10.8345 6.91074 10.9181 6.16914 11.0853 5.58616C11.2524 4.99888 11.4989 4.56164 11.8247 4.27444C12.1548 3.98723 12.5599 3.84363 13.04 3.84363C13.4772 3.84363 13.848 3.95508 14.1524 4.17799C14.4567 4.40089 14.6925 4.73525 14.8597 5.18107C15.0268 5.62688 15.1276 6.18415 15.1619 6.85287H13.9145C13.893 6.41563 13.8459 6.05769 13.773 5.77906C13.7001 5.50042 13.6015 5.29466 13.4772 5.16178C13.3572 5.02889 13.2114 4.96245 13.04 4.96245C12.8342 4.96245 12.6628 5.05032 12.5256 5.22608C12.3927 5.39754 12.292 5.69118 12.2234 6.10699C12.1548 6.52279 12.1205 7.09078 12.1205 7.81094V9.18696C12.1205 9.90712 12.1548 10.4751 12.2234 10.8909C12.292 11.3067 12.3927 11.6025 12.5256 11.7782C12.6628 11.9497 12.8342 12.0354 13.04 12.0354C13.2114 12.0354 13.3572 11.969 13.4772 11.8361C13.6015 11.7032 13.7001 11.4996 13.773 11.2253C13.8459 10.9466 13.893 10.5887 13.9145 10.1515H15.1619C15.1276 10.8159 15.0268 11.371 14.8597 11.8168C14.6925 12.2626 14.4567 12.597 14.1524 12.8199C13.848 13.0428 13.4772 13.1543 13.04 13.1543Z" fill="#548AF7"/>
</g>
<defs>
<clipPath id="clip0_6270_49512">
<rect width="16" height="16" fill="white"/>
</clipPath>
</defs>
</svg>
