<svg width="16" height="16" viewBox="0 0 16 16" fill="none" xmlns="http://www.w3.org/2000/svg">
<path d="M1 8C1 11.866 4.13401 15 8 15C11.866 15 15 11.866 15 8H1Z" fill="#45322B"/>
<path d="M1 8C1 11.866 4.13401 15 8 15C11.866 15 15 11.866 15 8H14C14 11.3137 11.3137 14 8 14C4.68629 14 2 11.3137 2 8H1Z" fill="#C77D55"/>
<path d="M15 8C15 4.13401 11.866 1 8 1C4.13401 1 1 4.13401 1 8H15Z" fill="#25324D"/>
<path d="M14 8H15C15 4.13401 11.866 1 8 1C4.13401 1 1 4.13401 1 8H2C2 4.68629 4.68629 2 8 2C11.3137 2 14 4.68629 14 8Z" fill="#548AF7"/>
<path d="M8.13339 11.5C9.62234 11.5 10.8986 10.6008 11.2128 9.32459H10.1976C9.88339 10.0546 9.10507 10.5767 8.13339 10.5767C6.7943 10.5767 5.82745 9.50345 5.82745 8C5.82745 6.49655 6.7943 5.42334 8.13339 5.42334C9.10507 5.42334 9.88339 5.94544 10.1976 6.67541H11.2128C10.8986 5.39917 9.62234 4.5 8.13339 4.5C6.21419 4.5 4.78809 5.99378 4.78809 8C4.78809 10.0062 6.21419 11.5 8.13339 11.5Z" fill="#CED0D6"/>
</svg>
