<svg width="17" height="16" viewBox="0 0 17 16" fill="none" xmlns="http://www.w3.org/2000/svg">
<path fill-rule="evenodd" clip-rule="evenodd" d="M2.63333 2C1.73127 2 1 2.83574 1 3.86667V12.1333C1 13.1643 1.73127 14 2.63333 14H8.28031C8.10268 13.4877 8.01611 12.9455 8.01611 12.38C8.01611 11.5446 8.20507 10.7605 8.59877 10.0502L8.59978 10.0484C8.99196 9.3443 9.53658 8.78007 10.2257 8.37424C10.9218 7.96093 11.6941 7.76 12.5186 7.76C13.338 7.76 14.1062 7.96166 14.8003 8.37353C14.8683 8.41334 14.9349 8.45469 15 8.49755V6C15 4.89543 14.1046 4 13 4H8.46667L6.84336 2.30775C6.65477 2.11115 6.39413 2 6.1217 2H2.63333ZM7 9C7 9.55228 6.55228 10 6 10C5.44772 10 5 9.55228 5 9C5 8.44772 5.44772 8 6 8C6.55228 8 7 8.44772 7 9Z" fill="#43454A"/>
<path d="M2.63333 3H6.1217L8.04022 5H13C13.5523 5 14 5.44771 14 6V8.00206C14.2762 8.09735 14.5433 8.22103 14.8003 8.37353C14.8683 8.41334 14.9349 8.45469 15 8.49755V6C15 4.89543 14.1046 4 13 4H8.46667L6.84336 2.30775C6.65477 2.11115 6.39413 2 6.1217 2H2.63333C1.73127 2 1 2.83574 1 3.86667V12.1333C1 13.1643 1.73127 14 2.63333 14H8.28031C8.16864 13.678 8.09296 13.3441 8.05215 13H2.63333C2.40481 13 2 12.7416 2 12.1333V3.86667C2 3.25841 2.40481 3 2.63333 3Z" fill="#CED0D6"/>
<path fill-rule="evenodd" clip-rule="evenodd" d="M6 7C4.89543 7 4 7.89543 4 9C4 10.1046 4.89543 11 6 11C7.10457 11 8 10.1046 8 9C8 7.89543 7.10457 7 6 7ZM6 10C6.55228 10 7 9.55228 7 9C7 8.44772 6.55228 8 6 8C5.44772 8 5 8.44772 5 9C5 9.55228 5.44772 10 6 10Z" fill="#CED0D6"/>
<path d="M12.5191 15.1C12.9881 15.1 13.4119 14.9833 13.7905 14.75C14.169 14.5167 14.4655 14.1933 14.6799 13.78C14.8943 13.3667 15.0015 12.9 15.0015 12.38C15.0015 11.8567 14.8943 11.3883 14.6799 10.975C14.4689 10.5617 14.1741 10.24 13.7955 10.01C13.4203 9.77668 12.9948 9.66001 12.5191 9.66001C12.0468 9.66001 11.6213 9.77668 11.2427 10.01C10.8675 10.2433 10.5727 10.5667 10.3583 10.98C10.1439 11.39 10.0367 11.8567 10.0367 12.38C10.0367 12.9033 10.1439 13.3717 10.3583 13.785C10.5727 14.195 10.8675 14.5167 11.2427 14.75C11.6213 14.9833 12.0468 15.1 12.5191 15.1ZM12.5191 16C11.8625 16 11.2679 15.8433 10.7352 15.53C10.2025 15.2133 9.7821 14.78 9.47389 14.23C9.16903 13.6767 9.0166 13.06 9.0166 12.38C9.0166 11.7 9.16903 11.085 9.47389 10.535C9.7821 9.98168 10.2025 9.54834 10.7352 9.23501C11.2679 8.91834 11.8625 8.76001 12.5191 8.76001C13.169 8.76001 13.7603 8.91834 14.293 9.23501C14.829 9.54834 15.2494 9.98168 15.5543 10.535C15.8625 11.085 16.0166 11.7 16.0166 12.38C16.0166 13.06 15.8625 13.6767 15.5543 14.23C15.2494 14.78 14.829 15.2133 14.293 15.53C13.7603 15.8433 13.169 16 12.5191 16Z" fill="#C77D55"/>
</svg>
