<svg width="16" height="16" viewBox="0 0 16 16" fill="none" xmlns="http://www.w3.org/2000/svg">
<path d="M12.99 11.2535H12V10.368H12.99V9.65849C12.99 9.39449 13.0523 9.15982 13.177 8.95449C13.3017 8.74549 13.4758 8.58415 13.6995 8.47049C13.9232 8.35682 14.178 8.29999 14.464 8.29999H15.443V9.16349H14.5795C14.4072 9.16349 14.2678 9.21665 14.1615 9.32299C14.0552 9.42932 14.002 9.56682 14.002 9.73549V10.368H15.3935V11.2535H14.002V16H12.99V11.2535Z" fill="#CED0D6"/>
<path d="M2 4C2 2.89543 2.89543 2 4 2H12C13.1046 2 14 2.89543 14 4V7.33613C13.7404 7.37777 13.4872 7.45664 13.2465 7.57901C13.0283 7.68988 12.8322 7.83069 12.6624 8H12.5V8.18062C12.4348 8.26156 12.3748 8.34769 12.3202 8.43888C12.1446 8.72914 12.0434 9.04339 12.0063 9.368H11V12.2535H11.99V14H4C2.89543 14 2 13.1046 2 12V4Z" fill="#45322B"/>
<path d="M8.29593 6.31965C8.636 5.65158 9.25361 5.25 10.0657 5.25C11.2168 5.25 12 6.07523 12 7.36301V9.368H11.0013V7.44185C11.0013 6.62188 10.5756 6.11202 9.82392 6.11202C9.01971 6.11202 8.49409 6.68495 8.49409 7.59428V10.7585H7.50591V7.44185C7.50591 6.62188 7.0749 6.11202 6.32852 6.11202C5.5138 6.11202 4.99869 6.68495 4.99869 7.59428V10.7585H4V5.37615H4.96189V6.25289C5.28147 5.61373 5.84915 5.25 6.6071 5.25C7.40552 5.25 8.00368 5.64685 8.29593 6.31965Z" fill="#C77D55"/>
<path d="M12 3H4C3.44772 3 3 3.44772 3 4V12C3 12.5523 3.44772 13 4 13H11.99V14H4C2.89543 14 2 13.1046 2 12V4C2 2.89543 2.89543 2 4 2H12C13.1046 2 14 2.89543 14 4V7.33613C13.7404 7.37777 13.4872 7.45664 13.2465 7.57901C13.1608 7.62253 13.0786 7.67066 13 7.72332V4C13 3.44772 12.5523 3 12 3Z" fill="#C77D55"/>
</svg>
