<svg width="16" height="16" viewBox="0 0 16 16" fill="none" xmlns="http://www.w3.org/2000/svg">
<path fill-rule="evenodd" clip-rule="evenodd" d="M13.6914 0.0380748C13.8782 0.115465 14 0.297783 14 0.500015V2.00001H15.5C15.7023 2.00001 15.8846 2.12184 15.962 2.30867C16.0394 2.49551 15.9966 2.71057 15.8536 2.85357L13.8536 4.85357C13.7598 4.94734 13.6326 5.00001 13.5 5.00001H11.7071L9.72311 6.98405C9.89904 7.2818 10 7.62911 10 8C10 9.10457 9.10457 10 8 10C6.89543 10 6 9.10457 6 8C6 6.89543 6.89543 6 8 6C8.37092 6 8.71825 6.10097 9.01602 6.27693L11 4.29291V2.50001C11 2.36741 11.0527 2.24023 11.1465 2.14646L13.1465 0.146461C13.2895 0.00346223 13.5045 -0.0393156 13.6914 0.0380748ZM12 4.00001H13.2929L14.2929 3.00001H13.5C13.2239 3.00001 13 2.77616 13 2.50001V1.70712L12 2.70712V4.00001ZM8 9C8.55228 9 9 8.55228 9 8C9 7.44772 8.55228 7 8 7C7.44772 7 7 7.44772 7 8C7 8.55228 7.44772 9 8 9Z" fill="#CED0D6"/>
<path d="M10.0081 2.3443C9.38028 2.12136 8.70432 2 8 2C4.68629 2 2 4.68629 2 8C2 11.3137 4.68625 14 7.99992 14V14.0853C7.59272 14.2293 7.26622 14.544 7.10653 14.9435C3.66246 14.5047 1 11.5633 1 8C1 4.13401 4.13401 1 8 1C8.85864 1 9.68118 1.1546 10.4413 1.43748L10.4394 1.43938C10.195 1.68373 10.0437 2.00371 10.0081 2.3443Z" fill="#CED0D6"/>
<path d="M13.9118 9.03093C14.2727 9.08638 14.5892 9.21297 14.8634 9.38316C14.953 8.93603 15 8.47351 15 8C15 7.1414 14.8454 6.31891 14.5626 5.55883L14.5607 5.5607C14.3163 5.80507 13.9963 5.95641 13.6557 5.99195C13.8787 6.61978 14 7.29572 14 8C14 8.35152 13.9698 8.69599 13.9118 9.03093Z" fill="#CED0D6"/>
<path fill-rule="evenodd" clip-rule="evenodd" d="M9.79236 10.0944C9.92274 10.1884 10 10.3393 10 10.5V15H10.5C10.7761 15 11 15.2239 11 15.5C11 15.7761 10.7761 16 10.5 16H8.5C8.22386 16 8 15.7761 8 15.5C8 15.2239 8.22386 15 8.5 15H9V11.1937L8.15811 11.4743C7.89614 11.5617 7.61298 11.4201 7.52566 11.1581C7.43833 10.8961 7.57991 10.613 7.84189 10.5257L9.34189 10.0257C9.49436 9.97483 9.66197 10.0004 9.79236 10.0944ZM11.9338 11.046C12.2355 10.4803 12.751 10 13.5 10C14.249 10 14.7645 10.4803 15.0662 11.046C15.3653 11.6067 15.5 12.3185 15.5 13C15.5 13.6815 15.3653 14.3933 15.0662 14.954C14.7645 15.5197 14.249 16 13.5 16C12.751 16 12.2355 15.5197 11.9338 14.954C11.6347 14.3933 11.5 13.6815 11.5 13C11.5 12.3185 11.6347 11.6067 11.9338 11.046ZM12.8162 14.4835C13.0145 14.8553 13.249 15 13.5 15C13.751 15 13.9855 14.8553 14.1838 14.4835C14.3847 14.1067 14.5 13.5685 14.5 13C14.5 12.4315 14.3847 11.8933 14.1838 11.5165C13.9855 11.1447 13.751 11 13.5 11C13.249 11 13.0145 11.1447 12.8162 11.5165C12.6153 11.8933 12.5 12.4315 12.5 13C12.5 13.5685 12.6153 14.1067 12.8162 14.4835Z" fill="#548AF7"/>
</svg>
