<svg width="20" height="20" viewBox="0 0 20 20" fill="none" xmlns="http://www.w3.org/2000/svg">
<g clip-path="url(#clip0_7854_11953)">
<path d="M5.28536 17.9978L5.2839 17.9953L0.813927 10.2479C0.813738 10.2475 0.81355 10.2472 0.813362 10.2469C0.726273 10.0938 0.726275 9.90621 0.813369 9.75311C0.813554 9.75279 0.813741 9.75246 0.813927 9.75213L5.2839 2.00463L5.28391 2.00464L5.28534 2.00213C5.3744 1.84639 5.54035 1.75 5.72035 1.75H14.2757C14.4557 1.75 14.6217 1.84642 14.7106 2.00207L14.7121 2.00464L19.1822 9.75217C19.1823 9.75246 19.1825 9.75275 19.1827 9.75303C19.2698 9.90613 19.2698 10.0937 19.1827 10.2468C19.1825 10.2472 19.1824 10.2475 19.1822 10.2478L14.7121 17.9953L14.7106 17.9979C14.6216 18.1536 14.4557 18.25 14.2757 18.25H5.72035C5.54037 18.25 5.37442 18.1536 5.28536 17.9978Z" stroke="#6C707E" stroke-width="1.5" stroke-linejoin="round"/>
<path fill-rule="evenodd" clip-rule="evenodd" d="M10.8336 8.35752C11.2759 8.01454 11.5605 7.47801 11.5605 6.875C11.5605 5.83946 10.7211 5 9.68555 5C8.65001 5 7.81055 5.83946 7.81055 6.875V10.1067C7.61506 10.0376 7.4047 10 7.18555 10C6.15001 10 5.31055 10.8395 5.31055 11.875C5.31055 12.9105 6.15001 13.75 7.18555 13.75C7.5833 13.75 7.95212 13.6261 8.25556 13.4149L10.9393 11.7552C10.9368 11.7948 10.9355 11.8348 10.9355 11.875C10.9355 12.9105 11.775 13.75 12.8105 13.75C13.846 13.75 14.6855 12.9105 14.6855 11.875C14.6855 11.219 14.3487 10.6417 13.8385 10.3066L10.8336 8.35752ZM9.68555 7.5C10.0307 7.5 10.3105 7.22018 10.3105 6.875C10.3105 6.52982 10.0307 6.25 9.68555 6.25C9.34037 6.25 9.06055 6.52982 9.06055 6.875C9.06055 7.06501 9.14533 7.23521 9.27913 7.34984L9.41883 7.4404C9.49973 7.47863 9.59015 7.5 9.68555 7.5ZM9.06055 8.6978V11.4474L11.2313 10.105L9.06055 8.6978ZM7.56087 12.3748C7.7125 12.2608 7.81055 12.0793 7.81055 11.875C7.81055 11.5298 7.53072 11.25 7.18555 11.25C6.84037 11.25 6.56055 11.5298 6.56055 11.875C6.56055 12.2202 6.84037 12.5 7.18555 12.5C7.28563 12.5 7.38022 12.4765 7.4641 12.4346L7.56087 12.3748ZM12.8105 12.5C13.1557 12.5 13.4355 12.2202 13.4355 11.875C13.4355 11.5298 13.1557 11.25 12.8105 11.25C12.4654 11.25 12.1855 11.5298 12.1855 11.875C12.1855 12.2202 12.4654 12.5 12.8105 12.5Z" fill="#6C707E"/>
</g>
<defs>
<clipPath id="clip0_7854_11953">
<rect width="20" height="20" fill="white"/>
</clipPath>
</defs>
</svg>
