<svg width="20" height="20" viewBox="0 0 20 20" fill="none" xmlns="http://www.w3.org/2000/svg">
<path d="M14.7203 18.8667H16.3014V20H14.7203V18.8667ZM14.7203 8.5H16.3014V10.2434H14.7203V8.5ZM15.3045 19.1524C14.6483 19.1524 14.0662 19.036 13.5582 18.8032C13.0545 18.5661 12.6586 18.2359 12.3708 17.8126C12.0871 17.3892 11.9411 16.9024 11.9326 16.3521H13.8313C13.8355 16.5849 13.899 16.7923 14.0218 16.9744C14.1488 17.1522 14.3245 17.2919 14.5488 17.3935C14.7774 17.4951 15.0357 17.5459 15.3235 17.5459C15.6029 17.5459 15.8463 17.5014 16.0538 17.4125C16.2654 17.3236 16.4284 17.1987 16.5427 17.0379C16.657 16.877 16.7142 16.6907 16.7142 16.4791C16.7142 16.2166 16.6337 15.9901 16.4729 15.7996C16.312 15.6091 16.0982 15.4906 15.8315 15.444L14.2567 15.1837C13.8334 15.1117 13.4609 14.9593 13.1391 14.7265C12.8216 14.4936 12.5761 14.1994 12.4025 13.8438C12.229 13.484 12.1422 13.0924 12.1422 12.6691C12.1422 12.1484 12.2755 11.6827 12.5422 11.2721C12.8089 10.8572 13.1815 10.5355 13.6598 10.3069C14.1424 10.074 14.6885 9.9576 15.2981 9.9576C15.9162 9.9576 16.4665 10.0698 16.9491 10.2942C17.4317 10.5143 17.8085 10.8233 18.0794 11.2213C18.3504 11.6192 18.4901 12.0743 18.4985 12.5865H16.5935C16.5935 12.3918 16.5406 12.2161 16.4348 12.0595C16.3289 11.9028 16.1787 11.7822 15.9839 11.6975C15.7934 11.6086 15.5712 11.5642 15.3172 11.5642C15.0716 11.5642 14.8536 11.6065 14.6631 11.6912C14.4726 11.7716 14.3245 11.8859 14.2186 12.0341C14.1128 12.1822 14.0599 12.3558 14.0599 12.5548C14.0599 12.7791 14.134 12.976 14.2821 13.1453C14.4303 13.3104 14.625 13.4141 14.8663 13.4565L16.3586 13.6914C16.8073 13.7634 17.2052 13.9264 17.5524 14.1804C17.9037 14.4301 18.1747 14.7455 18.3652 15.1265C18.5599 15.5075 18.6573 15.9181 18.6573 16.3584C18.6573 16.8918 18.5155 17.3723 18.2318 17.7999C17.9524 18.2232 17.5566 18.5555 17.0444 18.7968C16.5364 19.0339 15.9564 19.1524 15.3045 19.1524Z" fill="#6C707E"/>
<path d="M2.24959 3.75008C4.32066 1.67901 7.67852 1.67901 9.74959 3.75008L9.99959 4.00008L10.2496 3.75008C12.3207 1.67901 15.6785 1.67901 17.7496 3.75008C19.5046 5.50504 19.7724 8.18397 18.5532 10.221C18.2216 9.87107 17.8216 9.59377 17.367 9.38595C17.3502 9.37817 17.3334 9.37051 17.3165 9.36296C18.1315 7.91374 17.9223 6.04408 16.6889 4.81074C15.2036 3.32546 12.7955 3.32546 11.3103 4.81074L9.99959 6.1214L8.68893 4.81074C7.20365 3.32546 4.79553 3.32546 3.31025 4.81074C1.82497 6.29602 1.82497 8.70414 3.31025 10.1894L9.99959 16.8788L10.9259 15.9524L10.9323 16.3676C10.94 16.8645 11.0341 17.3385 11.2205 17.7792L9.99959 19.0001L2.24959 11.2501C0.178522 9.17901 0.178522 5.82115 2.24959 3.75008Z" fill="#6C707E"/>
</svg>
