<svg width="21" height="22" viewBox="0 0 21 22" fill="none" xmlns="http://www.w3.org/2000/svg">
<rect x="7.01172" y="5.99707" width="1.5" height="2.59412" fill="#6C707E"/>
<rect width="1.5" height="2.59411" transform="matrix(0.499998 0.866027 -0.866024 0.500002 12.3711 7.90259)" fill="#6C707E"/>
<rect width="1.5" height="2.59411" transform="matrix(-0.499998 0.866027 -0.866024 -0.500002 12.875 12.9014)" fill="#6C707E"/>
<rect x="7.01172" y="13.7793" width="1.5" height="2.59412" fill="#6C707E"/>
<path fill-rule="evenodd" clip-rule="evenodd" d="M7.76172 13.0589C8.89878 13.0589 9.82054 12.1371 9.82054 11C9.82054 9.86296 8.89878 8.94118 7.76172 8.94118C6.62466 8.94118 5.7029 9.86296 5.7029 11C5.7029 12.1371 6.62466 13.0589 7.76172 13.0589ZM7.76172 14.5C9.69472 14.5 11.2617 12.933 11.2617 11C11.2617 9.06701 9.69472 7.5 7.76172 7.5C5.82872 7.5 4.26172 9.06701 4.26172 11C4.26172 12.933 5.82872 14.5 7.76172 14.5Z" fill="#6C707E"/>
<path fill-rule="evenodd" clip-rule="evenodd" d="M7.76172 5.15387C8.39897 5.15387 8.91556 4.63727 8.91556 4.00001C8.91556 3.36276 8.39897 2.84616 7.76172 2.84616C7.12447 2.84616 6.60787 3.36276 6.60787 4.00001C6.60787 4.63727 7.12447 5.15387 7.76172 5.15387ZM7.76172 6.50003C9.14243 6.50003 10.2617 5.38073 10.2617 4.00001C10.2617 2.61929 9.14243 1.5 7.76172 1.5C6.38101 1.5 5.26172 2.61929 5.26172 4.00001C5.26172 5.38073 6.38101 6.50003 7.76172 6.50003Z" fill="#6C707E"/>
<path fill-rule="evenodd" clip-rule="evenodd" d="M14.2383 8.90973C14.8755 8.90973 15.3921 8.39313 15.3921 7.75587C15.3921 7.11862 14.8755 6.60202 14.2383 6.60202C13.601 6.60202 13.0844 7.11862 13.0844 7.75587C13.0844 8.39313 13.601 8.90973 14.2383 8.90973ZM14.2383 10.2559C15.619 10.2559 16.7383 9.13659 16.7383 7.75587C16.7383 6.37515 15.619 5.25586 14.2383 5.25586C12.8576 5.25586 11.7383 6.37515 11.7383 7.75587C11.7383 9.13659 12.8576 10.2559 14.2383 10.2559Z" fill="#6C707E"/>
<path fill-rule="evenodd" clip-rule="evenodd" d="M7.76172 19.1539C8.39897 19.1539 8.91557 18.6373 8.91557 18C8.91557 17.3628 8.39897 16.8462 7.76172 16.8462C7.12447 16.8462 6.60787 17.3628 6.60787 18C6.60787 18.6373 7.12447 19.1539 7.76172 19.1539ZM7.76172 20.5C9.14243 20.5 10.2617 19.3807 10.2617 18C10.2617 16.6193 9.14243 15.5 7.76172 15.5C6.38101 15.5 5.26172 16.6193 5.26172 18C5.26172 19.3807 6.38101 20.5 7.76172 20.5Z" fill="#6C707E"/>
<path fill-rule="evenodd" clip-rule="evenodd" d="M14.2383 15.5804C14.8755 15.5804 15.3921 15.0638 15.3921 14.4265C15.3921 13.7893 14.8755 13.2727 14.2383 13.2727C13.601 13.2727 13.0844 13.7893 13.0844 14.4265C13.0844 15.0638 13.601 15.5804 14.2383 15.5804ZM14.2383 16.9265C15.619 16.9265 16.7383 15.8072 16.7383 14.4265C16.7383 13.0458 15.619 11.9265 14.2383 11.9265C12.8576 11.9265 11.7383 13.0458 11.7383 14.4265C11.7383 15.8072 12.8576 16.9265 14.2383 16.9265Z" fill="#6C707E"/>
</svg>
