<svg width="22" height="22" viewBox="0 0 22 22" fill="none" xmlns="http://www.w3.org/2000/svg">
<rect x="7.76172" y="5.99707" width="1.5" height="2.59412" fill="#CED0D6"/>
<rect width="1.5" height="2.59411" transform="matrix(0.499998 0.866027 -0.866024 0.500002 13.1211 7.90259)" fill="#CED0D6"/>
<rect width="1.5" height="2.59411" transform="matrix(-0.499998 0.866027 -0.866024 -0.500002 13.625 12.9014)" fill="#CED0D6"/>
<rect x="7.76172" y="13.7793" width="1.5" height="2.59412" fill="#CED0D6"/>
<path fill-rule="evenodd" clip-rule="evenodd" d="M8.51172 13.0589C9.64878 13.0589 10.5705 12.1371 10.5705 11C10.5705 9.86296 9.64878 8.94118 8.51172 8.94118C7.37466 8.94118 6.4529 9.86296 6.4529 11C6.4529 12.1371 7.37466 13.0589 8.51172 13.0589ZM8.51172 14.5C10.4447 14.5 12.0117 12.933 12.0117 11C12.0117 9.06701 10.4447 7.5 8.51172 7.5C6.57872 7.5 5.01172 9.06701 5.01172 11C5.01172 12.933 6.57872 14.5 8.51172 14.5Z" fill="#CED0D6"/>
<path fill-rule="evenodd" clip-rule="evenodd" d="M8.51172 5.15387C9.14897 5.15387 9.66556 4.63727 9.66556 4.00001C9.66556 3.36276 9.14897 2.84616 8.51172 2.84616C7.87447 2.84616 7.35787 3.36276 7.35787 4.00001C7.35787 4.63727 7.87447 5.15387 8.51172 5.15387ZM8.51172 6.50003C9.89243 6.50003 11.0117 5.38073 11.0117 4.00001C11.0117 2.61929 9.89243 1.5 8.51172 1.5C7.13101 1.5 6.01172 2.61929 6.01172 4.00001C6.01172 5.38073 7.13101 6.50003 8.51172 6.50003Z" fill="#CED0D6"/>
<path fill-rule="evenodd" clip-rule="evenodd" d="M14.9883 8.90973C15.6255 8.90973 16.1421 8.39313 16.1421 7.75587C16.1421 7.11862 15.6255 6.60202 14.9883 6.60202C14.351 6.60202 13.8344 7.11862 13.8344 7.75587C13.8344 8.39313 14.351 8.90973 14.9883 8.90973ZM14.9883 10.2559C16.369 10.2559 17.4883 9.13659 17.4883 7.75587C17.4883 6.37515 16.369 5.25586 14.9883 5.25586C13.6076 5.25586 12.4883 6.37515 12.4883 7.75587C12.4883 9.13659 13.6076 10.2559 14.9883 10.2559Z" fill="#CED0D6"/>
<path fill-rule="evenodd" clip-rule="evenodd" d="M8.51172 19.1539C9.14897 19.1539 9.66557 18.6373 9.66557 18C9.66557 17.3628 9.14897 16.8462 8.51172 16.8462C7.87447 16.8462 7.35787 17.3628 7.35787 18C7.35787 18.6373 7.87447 19.1539 8.51172 19.1539ZM8.51172 20.5C9.89243 20.5 11.0117 19.3807 11.0117 18C11.0117 16.6193 9.89243 15.5 8.51172 15.5C7.13101 15.5 6.01172 16.6193 6.01172 18C6.01172 19.3807 7.13101 20.5 8.51172 20.5Z" fill="#CED0D6"/>
<path fill-rule="evenodd" clip-rule="evenodd" d="M14.9883 15.5804C15.6255 15.5804 16.1421 15.0638 16.1421 14.4265C16.1421 13.7893 15.6255 13.2727 14.9883 13.2727C14.351 13.2727 13.8344 13.7893 13.8344 14.4265C13.8344 15.0638 14.351 15.5804 14.9883 15.5804ZM14.9883 16.9265C16.369 16.9265 17.4883 15.8072 17.4883 14.4265C17.4883 13.0458 16.369 11.9265 14.9883 11.9265C13.6076 11.9265 12.4883 13.0458 12.4883 14.4265C12.4883 15.8072 13.6076 16.9265 14.9883 16.9265Z" fill="#CED0D6"/>
</svg>
