<svg width="16" height="16" viewBox="0 0 16 16" fill="none" xmlns="http://www.w3.org/2000/svg">
<path fill-rule="evenodd" clip-rule="evenodd" d="M3 2C1.89543 2 1 2.89543 1 4V12C1 13.1046 1.89543 14 3 14H7.41604C7.27732 13.6825 7.17062 13.3478 7.10002 13H3C2.44772 13 2 12.5523 2 12V6H14V7.41604C14.357 7.57202 14.6923 7.76849 15 7.99963V4C15 2.89543 14.1046 2 13 2H3ZM13 3H3C2.44772 3 2 3.44772 2 4V5H14V4C14 3.44772 13.5523 3 13 3Z" fill="#6C707E"/>
<path d="M10.9207 15.1342L8.89372 13.0892C8.76909 12.9634 8.72025 12.7811 8.76531 12.6099L9.49815 9.82537C9.54382 9.65185 9.67896 9.51611 9.85228 9.46967L12.5949 8.73479C12.7682 8.68835 12.9531 8.73834 13.0794 8.86578L15.1064 10.9108C15.231 11.0366 15.2798 11.2189 15.2348 11.3901L14.5019 14.1746C14.4563 14.3482 14.3211 14.4839 14.1478 14.5303L11.4052 15.2652C11.2319 15.3117 11.047 15.2617 10.9207 15.1342Z" stroke="#6C707E"/>
</svg>
