<svg width="16" height="16" viewBox="0 0 16 16" fill="none" xmlns="http://www.w3.org/2000/svg">
<path fill-rule="evenodd" clip-rule="evenodd" d="M12 7C12 4.23858 9.76142 2 7 2C4.23858 2 2 4.23858 2 7C2 9.76142 4.23858 12 7 12C8.20055 12 9.30227 11.5769 10.1642 10.8716L13.1459 13.8497C13.3413 14.0448 13.6578 14.0446 13.853 13.8492C14.0481 13.6538 14.0479 13.3373 13.8526 13.1421L10.8713 10.1646C11.5768 9.30259 12 8.20072 12 7ZM7.87334 10.0883C7.47408 10.8868 7.10753 11 7 11C6.89247 11 6.52592 10.8868 6.12666 10.0883C5.97338 9.78177 5.8394 9.41463 5.7351 9H8.2649C8.1606 9.41463 8.02662 9.78177 7.87334 10.0883ZM5.5 7C5.5 7.34746 5.51959 7.68207 5.55573 8H8.44427C8.48041 7.68207 8.5 7.34746 8.5 7C8.5 6.65254 8.48041 6.31793 8.44427 6H5.55573C5.51959 6.31793 5.5 6.65254 5.5 7ZM8.73135 10.6069C8.96742 10.1535 9.15909 9.60831 9.29198 9H10.4649C10.063 9.69477 9.4581 10.2574 8.73135 10.6069ZM9.44999 8H10.874C10.9562 7.68038 11 7.3453 11 7C11 6.6547 10.9562 6.31962 10.874 6H9.44999C9.48278 6.32311 9.5 6.65753 9.5 7C9.5 7.34247 9.48279 7.67689 9.44999 8ZM3.12602 8H4.55001C4.51722 7.67689 4.5 7.34247 4.5 7C4.5 6.65753 4.51722 6.32311 4.55001 6H3.12602C3.04375 6.31962 3 6.6547 3 7C3 7.3453 3.04375 7.68038 3.12602 8ZM4.70802 9H3.53513C3.93703 9.69477 4.5419 10.2574 5.26865 10.6069C5.03258 10.1535 4.84091 9.60831 4.70802 9ZM8.2649 5H5.7351C5.8394 4.58537 5.97338 4.21823 6.12666 3.91168C6.52592 3.11316 6.89247 3 7 3C7.10753 3 7.47408 3.11316 7.87334 3.91168C8.02662 4.21823 8.1606 4.58537 8.2649 5ZM10.4649 5H9.29198C9.15909 4.39169 8.96742 3.84648 8.73135 3.39309C9.4581 3.74257 10.063 4.30523 10.4649 5ZM4.70802 5C4.84091 4.39169 5.03258 3.84648 5.26865 3.39309C4.5419 3.74257 3.93703 4.30523 3.53513 5H4.70802Z" fill="#CED0D6"/>
</svg>
