<svg width="20" height="20" viewBox="0 0 20 20" fill="none" xmlns="http://www.w3.org/2000/svg">
<path fill-rule="evenodd" clip-rule="evenodd" d="M16 9C16 5.13401 12.866 2 9 2C5.13401 2 2 5.13401 2 9C2 12.866 5.13401 16 9 16C10.6478 16 12.1626 15.4307 13.3584 14.478C13.3812 14.5085 13.4065 14.5379 13.4343 14.5656L17.4343 18.5656C17.7467 18.8781 18.2533 18.8781 18.5657 18.5656C18.8781 18.2532 18.8781 17.7467 18.5657 17.4343L14.5657 13.4343C14.5379 13.4065 14.5086 13.3812 14.478 13.3583C15.4307 12.1625 16 10.6477 16 9ZM10.0944 13.2662C9.50991 14.4079 9.01851 14.5 9 14.5C8.98149 14.5 8.49009 14.4079 7.90564 13.2662C7.68687 12.8389 7.49302 12.3271 7.34137 11.75H10.6586C10.507 12.3271 10.3131 12.8389 10.0944 13.2662ZM7 9C7 9.43188 7.02369 9.8499 7.06739 10.25H10.9326C10.9763 9.8499 11 9.43188 11 9C11 8.56812 10.9763 8.1501 10.9326 7.75H7.06739C7.02369 8.1501 7 8.56812 7 9ZM11.4392 13.9309C11.7558 13.3078 12.0179 12.5691 12.2023 11.75H13.7642C13.2224 12.6866 12.4124 13.4486 11.4392 13.9309ZM12.4404 10.25H14.3573C14.4507 9.84843 14.5 9.42998 14.5 9C14.5 8.57002 14.4507 8.15157 14.3573 7.75H12.4404C12.4794 8.1556 12.5 8.57334 12.5 9C12.5 9.42666 12.4794 9.8444 12.4404 10.25ZM3.64267 10.25H5.55957C5.52056 9.8444 5.5 9.42666 5.5 9C5.5 8.57334 5.52056 8.1556 5.55957 7.75H3.64267C3.54934 8.15157 3.5 8.57002 3.5 9C3.5 9.42998 3.54934 9.84843 3.64267 10.25ZM5.7977 11.75H4.2358C4.77758 12.6866 5.58761 13.4486 6.56082 13.9309C6.24416 13.3078 5.98212 12.5691 5.7977 11.75ZM10.6586 6.25H7.34137C7.49302 5.67289 7.68687 5.16114 7.90564 4.73378C8.49009 3.59211 8.98149 3.5 9 3.5C9.01851 3.5 9.50991 3.59211 10.0944 4.73378C10.3131 5.16114 10.507 5.67289 10.6586 6.25ZM13.7642 6.25H12.2023C12.0179 5.4309 11.7558 4.69216 11.4392 4.06909C12.4124 4.55144 13.2224 5.31343 13.7642 6.25ZM5.7977 6.25C5.98212 5.4309 6.24416 4.69216 6.56082 4.06909C5.5876 4.55144 4.77758 5.31343 4.2358 6.25H5.7977Z" fill="#6C707E"/>
</svg>
