<svg width="16" height="16" viewBox="0 0 16 16" fill="none" xmlns="http://www.w3.org/2000/svg">
<path d="M11.7077 9.58566C11.5124 9.3904 11.5124 9.07382 11.7077 8.87855L13.0512 7.53504C14.3175 6.26871 14.3175 4.21559 13.0512 2.94926C11.7848 1.68293 9.7317 1.68293 8.46537 2.94926L7.12187 4.29277C6.9266 4.48803 6.61002 4.48803 6.41476 4.29277C6.2195 4.0975 6.2195 3.78092 6.41476 3.58566L7.75827 2.24215C9.41512 0.585298 12.1014 0.585299 13.7583 2.24215C15.4151 3.89901 15.4151 6.5853 13.7583 8.24215L12.4148 9.58566C12.2195 9.78092 11.9029 9.78092 11.7077 9.58566Z" fill="#6C707E"/>
<path d="M10.6469 4.64639C10.8422 4.45112 11.1588 4.45112 11.354 4.64639C11.5493 4.84165 11.5493 5.15823 11.354 5.35349L5.35404 11.3535C5.15878 11.5488 4.8422 11.5488 4.64693 11.3535C4.45167 11.1582 4.45167 10.8416 4.64693 10.6464L10.6469 4.64639Z" fill="#6C707E"/>
<path d="M4.29338 6.41415C4.48864 6.60941 4.48864 6.92599 4.29338 7.12125L2.95365 8.46098C1.68732 9.72731 1.68732 11.7804 2.95365 13.0468C4.21998 14.3131 6.27311 14.3131 7.53944 13.0468L8.87919 11.707C9.07444 11.5118 9.391 11.5117 9.58627 11.707C9.78156 11.9022 9.78158 12.2188 9.5863 12.4141L8.24655 13.7539C6.58969 15.4107 3.9034 15.4107 2.24655 13.7539C0.589693 12.097 0.589692 9.41073 2.24655 7.75387L3.58627 6.41415C3.78153 6.21889 4.09811 6.21889 4.29338 6.41415Z" fill="#6C707E"/>
</svg>
