<svg width="16" height="16" viewBox="0 0 16 16" fill="none" xmlns="http://www.w3.org/2000/svg">
<rect x="2.5" y="2.5" width="11" height="11" rx="1.5" fill="#F2FCF3" stroke="#208A3C"/>
<path d="M7.94977 11.62C7.29643 11.62 6.7081 11.465 6.18477 11.155C5.66143 10.8417 5.25143 10.41 4.95477 9.86C4.6581 9.30667 4.50977 8.68667 4.50977 8C4.50977 7.31334 4.6581 6.695 4.95477 6.145C5.25143 5.59167 5.66143 5.16 6.18477 4.85C6.7081 4.53667 7.29643 4.38 7.94977 4.38C8.5031 4.38 9.01643 4.49334 9.48977 4.72C9.9631 4.94334 10.3498 5.25 10.6498 5.64C10.9498 6.02667 11.1281 6.45667 11.1848 6.93H9.97977C9.9231 6.66 9.7981 6.415 9.60477 6.195C9.41477 5.975 9.17477 5.8 8.88477 5.67C8.5981 5.54 8.2881 5.475 7.95477 5.475C7.53477 5.475 7.15643 5.58334 6.81977 5.8C6.48643 6.01334 6.22477 6.31167 6.03477 6.695C5.8481 7.075 5.75477 7.51 5.75477 8C5.75477 8.49001 5.8481 8.92667 6.03477 9.31C6.22477 9.69 6.4881 9.98834 6.82477 10.205C7.16143 10.4183 7.54143 10.525 7.96477 10.525C8.34477 10.525 8.6881 10.45 8.99477 10.3C9.30477 10.1467 9.54977 9.93334 9.72977 9.66C9.90977 9.38667 10.0064 9.07667 10.0198 8.73L10.0248 8.825H8.34977V7.83H11.2248V8.39C11.2248 9.00334 11.0831 9.55667 10.7998 10.05C10.5198 10.54 10.1298 10.925 9.62977 11.205C9.1331 11.4817 8.5731 11.62 7.94977 11.62Z" fill="#208A3C"/>
</svg>
