<svg width="16" height="16" viewBox="0 0 16 16" fill="none" xmlns="http://www.w3.org/2000/svg">
<path d="M3.89459 15.08C3.39626 15.08 3.01059 14.9543 2.73759 14.703C2.46892 14.4517 2.33242 14.0963 2.32809 13.637L2.32159 12.597H3.40059L3.40709 13.572C3.40709 13.7367 3.45476 13.8623 3.55009 13.949C3.64542 14.04 3.78192 14.0855 3.95959 14.0855H4.55109V15.08H3.89459ZM2.88709 12.0705C3.07342 12.0705 3.21859 11.9882 3.32259 11.8235C3.43092 11.6588 3.50892 11.3728 3.55659 10.9655C3.60859 10.5582 3.63459 9.9775 3.63459 9.2235V7.6765C3.63459 6.9225 3.60859 6.34183 3.55659 5.9345C3.50892 5.52717 3.43092 5.24117 3.32259 5.0765C3.21859 4.91183 3.07342 4.8295 2.88709 4.8295C2.70509 4.8295 2.55992 4.91183 2.45159 5.0765C2.34759 5.24117 2.26959 5.52717 2.21759 5.9345C2.16992 6.34183 2.14609 6.9225 2.14609 7.6765V9.2235C2.14609 9.9775 2.16992 10.5582 2.21759 10.9655C2.26959 11.3728 2.34759 11.6588 2.45159 11.8235C2.55992 11.9882 2.70509 12.0705 2.88709 12.0705ZM2.88709 13.156C2.44509 13.156 2.07892 13.0173 1.78859 12.74C1.50259 12.4583 1.28592 12.0293 1.13859 11.453C0.99559 10.8723 0.92409 10.1292 0.92409 9.2235V7.6765C0.92409 6.77083 0.99559 6.02983 1.13859 5.4535C1.28592 4.87283 1.50259 4.44383 1.78859 4.1665C2.07892 3.88483 2.44509 3.744 2.88709 3.744C3.33776 3.744 3.70609 3.88267 3.99209 4.16C4.28242 4.43733 4.49909 4.86633 4.64209 5.447C4.78509 6.02767 4.85659 6.77083 4.85659 7.6765V9.2235C4.85659 10.1292 4.78509 10.8723 4.64209 11.453C4.49909 12.0337 4.28242 12.4627 3.99209 12.74C3.70609 13.0173 3.33776 13.156 2.88709 13.156ZM5.85718 3.9H7.61218L8.35318 9.685L8.38568 10.5495H8.52868L8.54818 9.685L9.23068 3.9H11.0182V13H9.92618V6.0125L10.0042 5.148L9.86118 5.135L9.81568 6.006L8.91218 13H7.97618L7.05318 6.045L7.00768 5.174L6.86468 5.187L6.94268 6.0515V13H5.85718V3.9ZM12.3318 3.9H13.5213V11.8495H15.4778V13H12.3318V3.9Z" fill="#57965C"/>
</svg>
