<svg width="16" height="16" viewBox="0 0 16 16" fill="none" xmlns="http://www.w3.org/2000/svg">
<path d="M4.37701 15.08C3.87868 15.08 3.49301 14.9543 3.22001 14.703C2.95135 14.4517 2.81485 14.0963 2.81051 13.637L2.80401 12.597H3.88301L3.88951 13.572C3.88951 13.7367 3.93718 13.8623 4.03251 13.949C4.12785 14.04 4.26435 14.0855 4.44201 14.0855H5.03351V15.08H4.37701ZM3.36951 12.0705C3.55585 12.0705 3.70101 11.9882 3.80501 11.8235C3.91335 11.6588 3.99135 11.3728 4.03901 10.9655C4.09101 10.5582 4.11701 9.9775 4.11701 9.2235V7.6765C4.11701 6.9225 4.09101 6.34183 4.03901 5.9345C3.99135 5.52717 3.91335 5.24117 3.80501 5.0765C3.70101 4.91183 3.55585 4.8295 3.36951 4.8295C3.18751 4.8295 3.04235 4.91183 2.93401 5.0765C2.83001 5.24117 2.75201 5.52717 2.70001 5.9345C2.65235 6.34183 2.62851 6.9225 2.62851 7.6765V9.2235C2.62851 9.9775 2.65235 10.5582 2.70001 10.9655C2.75201 11.3728 2.83001 11.6588 2.93401 11.8235C3.04235 11.9882 3.18751 12.0705 3.36951 12.0705ZM3.36951 13.156C2.92751 13.156 2.56135 13.0173 2.27101 12.74C1.98501 12.4583 1.76835 12.0293 1.62101 11.453C1.47801 10.8723 1.40651 10.1292 1.40651 9.2235V7.6765C1.40651 6.77083 1.47801 6.02983 1.62101 5.4535C1.76835 4.87283 1.98501 4.44383 2.27101 4.1665C2.56135 3.88483 2.92751 3.744 3.36951 3.744C3.82018 3.744 4.18851 3.88267 4.47451 4.16C4.76485 4.43733 4.98151 4.86633 5.12451 5.447C5.26751 6.02767 5.33901 6.77083 5.33901 7.6765V9.2235C5.33901 10.1292 5.26751 10.8723 5.12451 11.453C4.98151 12.0337 4.76485 12.4627 4.47451 12.74C4.18851 13.0173 3.82018 13.156 3.36951 13.156ZM7.79561 8.84H9.01111L10.1746 13H8.90711L7.79561 8.84ZM6.33961 3.9H7.89961C8.39794 3.9 8.80311 3.9975 9.11511 4.1925C9.43144 4.38317 9.66327 4.6735 9.81061 5.0635C9.96227 5.4535 10.0381 5.9475 10.0381 6.5455C10.0381 7.15217 9.96011 7.65267 9.80411 8.047C9.65244 8.437 9.41627 8.7295 9.09561 8.9245C8.77494 9.11517 8.35894 9.2105 7.84761 9.2105H7.52911V13H6.33961V3.9ZM7.89961 8.073C8.13794 8.073 8.32211 8.02317 8.45211 7.9235C8.58644 7.82383 8.67961 7.66567 8.73161 7.449C8.78794 7.23233 8.81611 6.93117 8.81611 6.5455C8.81611 6.1685 8.78794 5.87167 8.73161 5.655C8.67961 5.43833 8.58644 5.28233 8.45211 5.187C8.32211 5.08733 8.13794 5.0375 7.89961 5.0375H7.52911V8.073H7.89961ZM12.7387 13.156C12.2967 13.156 11.9305 13.0173 11.6402 12.74C11.3542 12.4583 11.1375 12.0293 10.9902 11.453C10.8472 10.8723 10.7757 10.1292 10.7757 9.2235V7.6765C10.7757 6.77083 10.8472 6.02983 10.9902 5.4535C11.1375 4.87283 11.3542 4.44383 11.6402 4.1665C11.9305 3.88483 12.2967 3.744 12.7387 3.744C13.1503 3.744 13.4927 3.85233 13.7657 4.069C14.043 4.28567 14.2532 4.61717 14.3962 5.0635C14.5435 5.50983 14.6323 6.07317 14.6627 6.7535H13.4797C13.4623 6.29417 13.4255 5.9215 13.3692 5.6355C13.3128 5.3495 13.2327 5.13933 13.1287 5.005C13.029 4.87067 12.899 4.8035 12.7387 4.8035C12.5653 4.8035 12.4245 4.888 12.3162 5.057C12.2078 5.226 12.1277 5.5185 12.0757 5.9345C12.0237 6.3505 11.9977 6.93117 11.9977 7.6765V9.2235C11.9977 9.96883 12.0237 10.5495 12.0757 10.9655C12.1277 11.3815 12.2078 11.674 12.3162 11.843C12.4245 12.012 12.5653 12.0965 12.7387 12.0965C12.899 12.0965 13.029 12.0293 13.1287 11.895C13.2327 11.7607 13.3128 11.5505 13.3692 11.2645C13.4255 10.9785 13.4623 10.6058 13.4797 10.1465H14.6627C14.6323 10.8268 14.5435 11.3902 14.3962 11.8365C14.2532 12.2828 14.043 12.6143 13.7657 12.831C13.4927 13.0477 13.1503 13.156 12.7387 13.156Z" fill="#57965C"/>
</svg>
