<svg width="16" height="16" viewBox="0 0 16 16" fill="none" xmlns="http://www.w3.org/2000/svg">
<path d="M12.0073 5.42552L8.18226 10.956C8.14171 11.0147 8.08306 11.0586 8.01521 11.0811C7.94737 11.1037 7.87403 11.1035 7.80632 11.0808C7.73861 11.0581 7.68023 11.0139 7.64003 10.9552C7.59984 10.8963 7.58002 10.826 7.5836 10.755L7.73668 7.70161L5.2653 7.17749C5.21248 7.1663 5.16327 7.1423 5.12202 7.10764C5.08078 7.07299 5.04876 7.02872 5.02882 6.97877C5.00887 6.92883 5.00162 6.87474 5.0077 6.8213C5.01378 6.76787 5.03299 6.71672 5.06364 6.6724L8.88872 1.1419C8.92928 1.08323 8.98793 1.03931 9.05578 1.0168C9.12364 0.994285 9.19698 0.994401 9.2647 1.01715C9.33241 1.03988 9.39079 1.084 9.43098 1.14281C9.47117 1.2016 9.49098 1.27187 9.4874 1.34296L9.33431 4.3964L11.8057 4.92048C11.8585 4.93167 11.9077 4.95567 11.949 4.99032C11.9903 5.02498 12.0222 5.06925 12.0421 5.1192C12.0621 5.16915 12.0693 5.22323 12.0633 5.27666C12.0573 5.3301 12.038 5.38125 12.0073 5.42557V5.42552Z" fill="#FCC72B"/>
<path d="M8.00155 15.7726C7.89981 15.7727 7.79906 15.7528 7.70507 15.7139C7.61108 15.6749 7.5257 15.6178 7.45386 15.5458L3.83963 11.9318C3.69504 11.7865 3.61399 11.5897 3.61426 11.3847C3.61453 11.1797 3.6961 10.983 3.84109 10.8381C3.98606 10.6931 4.18263 10.6115 4.38766 10.6112C4.5927 10.611 4.78949 10.692 4.93487 10.8365L8.00155 13.9029L14.6823 7.2224C14.828 7.07911 15.0243 6.99918 15.2286 7.00001C15.433 7.00084 15.6287 7.08237 15.7731 7.22684C15.9176 7.37132 15.9992 7.56702 16 7.77133C16.0008 7.97564 15.9208 8.17201 15.7775 8.31764L8.5491 15.5458C8.47727 15.6179 8.39192 15.6749 8.29795 15.7139C8.20399 15.7528 8.10326 15.7727 8.00155 15.7726Z" fill="#729B1B"/>
<path d="M7.99843 15.7726C8.10017 15.7727 8.20092 15.7528 8.29491 15.7139C8.3889 15.6749 8.47427 15.6178 8.54611 15.5458L12.1604 11.9318C12.3049 11.7865 12.386 11.5897 12.3857 11.3847C12.3855 11.1797 12.3039 10.983 12.1589 10.8381C12.0139 10.6931 11.8173 10.6115 11.6123 10.6112C11.4073 10.611 11.2105 10.692 11.0651 10.8365L7.99843 13.9029L1.31765 7.2224C1.172 7.07911 0.975637 6.99918 0.771335 7.00001C0.567021 7.00084 0.371313 7.08237 0.226846 7.22684C0.0823753 7.37132 0.000844705 7.56702 6.33104e-06 7.77133C-0.000819184 7.97564 0.0791153 8.17201 0.222405 8.31764L7.45087 15.5458C7.52271 15.6179 7.60806 15.6749 7.70202 15.7139C7.79599 15.7528 7.89672 15.7727 7.99843 15.7726Z" fill="#729B1B" fill-opacity="0.5"/>
</svg>
