<svg width="16" height="17" viewBox="0 0 16 17" fill="none" xmlns="http://www.w3.org/2000/svg">
<path d="M0.967509 2.92657L7.55994 15.148C7.74882 15.4982 8.25118 15.4982 8.44006 15.148L15.0325 2.92657C15.2268 2.56644 14.9298 2.13818 14.5244 2.19385L8.06802 3.08046C8.02289 3.08666 7.97711 3.08666 7.93198 3.08046L1.47559 2.19385C1.07021 2.13818 0.77325 2.56644 0.967509 2.92657Z" fill="url(#paint0_linear_3770_47250)"/>
<path d="M12.8116 3.97512L8.14643 13.1479C8.04131 13.3546 7.72763 13.2467 7.77183 13.0191L8.43405 9.60894C8.46338 9.4579 8.3183 9.33169 8.17277 9.38165L7.31569 9.67589C7.17279 9.72495 7.02918 9.60393 7.05332 9.45478L7.45115 6.99639C7.47419 6.85401 7.34352 6.73479 7.20385 6.77076L5.77186 7.13947C5.63876 7.17374 5.51156 7.06664 5.52264 6.92965L5.98748 1.18465C5.99485 1.0936 6.06297 1.01912 6.15299 1.00366L11.6603 0.0583078C11.8117 0.0323272 11.9346 0.179551 11.8821 0.323851L10.6226 3.78311C10.569 3.93019 10.6975 4.07901 10.8508 4.04743L12.593 3.68857C12.7572 3.65475 12.8876 3.82573 12.8116 3.97512Z" fill="url(#paint1_linear_3770_47250)"/>
<defs>
<linearGradient id="paint0_linear_3770_47250" x1="0.884067" y1="1.61519" x2="9.83299" y2="12.9403" gradientUnits="userSpaceOnUse">
<stop stop-color="#41D1FF"/>
<stop offset="1" stop-color="#BD34FE"/>
</linearGradient>
<linearGradient id="paint1_linear_3770_47250" x1="7.59894" y1="0.300155" x2="9.25913" y2="11.9302" gradientUnits="userSpaceOnUse">
<stop stop-color="#FFEA83"/>
<stop offset="0.0833333" stop-color="#FFDD35"/>
<stop offset="1" stop-color="#FFA800"/>
</linearGradient>
</defs>
</svg>
